<svg class="grid-items-onclick-animation" id="qaosidan-kosmosamde" version="1.1" xmlns="http://www.w3.org/2000/svg" x="0" y="0" viewBox="0 0 510.2 383.8" xml:space="preserve" enable-background="new 0 0 510.24 383.78">
	<style>
			.st0{fill:#fff}
			.st1{fill:#808285}
	</style>
	<g id="Layer_1">
			<path d="M323.4 353.2zM300.8 295c-.2-.6-.5-1-1.3-1.2-.8-.2-1.4-1.1-2.1-1.7 0-2.5 2.1-2.9 3.8-3.8.6 1.2.7 2.9 2.4 3.2l1-2.2h.4l-.1 1.4c.7-1 1-2.1 1-3.3l-.2-4c0-.7 0-1.6.4-2.2.4-.9 1.3-1 2.8-.6l.2 2.2c0 2.3-.3 4.6-.7 6.9l-.1 2.7c0 1.3-1 2.5-2.3 2.8-1.2.3-2.5.7-3.8 0-.4-.2-.9-.1-1.4-.2zM341.3 320.7c-.7-.5-1-1.1-.6-1.8.3-.7.2-1.7 1-2l.1-.2c.4-1.5 1.7-2.7 1.8-4.3 1-1 .5-2.2.6-3.3 0-.7.3-1.3.5-1.9.3-.8 1.6-1.5 2.4-1.4.6 0 1.1.5 1.2 1.3 0 .8 0 1.7-.2 2.6-.3 1.7-.5 3.5-1 5-.6 1.5-1.6 2.8-2.5 4.2l-.2.3-3.1 1.5zM332 312.6l-1.8.7c-.8.5-1.4.3-1.9-.2l-.4-3.6.2-.8c.1-.2.4-.5.3-.7 0-1.3 0-2.6-.3-3.8-.4-2 .6-3.8 2.4-4.6.8-.3 1.7.1 1.8 1a12 12 0 0 1 0 3.4c-.3 1.3-.3 2.4 0 3.5.6 1.4.2 2.7 0 4l-.2 1.1zM318.3 359.2c1-1.3 2.3-2.1 3.7-2.8l1.1-1h.2l.2 1a9.7 9.7 0 0 0-4.4 3.4l-.8-.6zM354.9 231.5c0 1.6-.5 2.8-1.2 3.2.3-1 .1-2.1 1.2-3.2zM356.6 289.8c0-1 0-1.3 1-1.7.1 1.5.1 1.5-1 1.7zM309.1 367.3c0-1.3.2-1.5 1.2-1.3l-1.2 1.3zM358.9 280.2c.2.3.5.5.6.8l-.5.6-.4-.6c0-.3.2-.5.3-.8zM380.4 300l.6-1c.4.8 0 1-.3 1.1l-.3-.2zM323.4 353.2l.6-.7c.1.6-.1.7-.6.7zM157 236.4l.4-.3.2.4-.4.2-.2-.3z"/>
			<path class="st0" d="M304.2 163.9a8.7 8.7 0 0 1-6.6 4.1c-3.2.4-5.8-.8-8.1-2.8a33.7 33.7 0 0 1-4-3.9 31.7 31.7 0 0 0-4-3.8c-1.4-1.1-2.4-2.5-3.8-3.6-1.5-1.2-2.7-3-2.5-5.2.2-1.2.3-1.4 1.4-1.3 1.5.1 2.9.5 4.3.9 2.5.6 4.5 2.2 6.7 3.3l6.3 3.5c1.2.7 2.2 1.7 3.2 2.6l6.2 5.2 1 1z"/>
			<path class="st0" d="M289.2 168.3c.7.9 1.5.9 2.4.8.3 0 .7 0 1 .2 2.9.8 5.7.6 8.4-.6a10 10 0 0 0 3.9-3.2c.1-.2.6-.4.9-.3.4.2.6.6.3 1l-2.1 4c-.6.9-1.6 1.2-2.5 1.5-2.7.9-5.4.7-8-.3l-3.7-1.5c-.5-.3-1-.7-.6-1.6zM284.1 249.3c1-2.1 1.7-4 2.5-5.9l.2-.3c.3-2.2 1.9-3.7 3.2-5.3a27 27 0 0 0 4.5-7l.2-.1c-.2 5.6-7 16.2-10.6 18.6zM394.3 226.6l.2 2.1v2.2l.1 3.9c-1.7-2-3-3.8-2.6-6.3v-.4c-.5-2.3.4-4.5.6-6.8.1-1.4 0-2.7.2-4l.3-2.1c1.2 1 0 2 .3 3l1-.6c.4 1.2.8 2.2.2 3.4-.2.6 0 1.4 0 2.1 0 .3 0 .7-.2 1-1 1-1 1.6 0 2.5z"/>
			<path class="st0" d="M294.6 227.8c-.5 4-3 6.9-5.4 10-.4-.7-.2-1 0-1.4.6-1.2 1.4-2.3 1.8-3.6.6-2 1.7-3.4 3-4.9l.3-.2.3.1zM140.5 250c-1.8.9-3.3 0-4.8-.9-1.4-1-2.9-2-2.5-4.2l.7.7a9.1 9.1 0 0 0 4.6 3c.7.2 1.4.7 2.1 1v.4zM169.1 255.7c-.6-1.2-1-2.1-.6-3.3.5-1.5.7-3 1-4.6l.5-3.7c0-.2.2-.3.4-.4 1 4-.4 7.9-1.3 12zM200.4 275.5c1.1.1 2 .5 2.7 1.5 1.3 2 2.9 3.7 4.3 5.5v.2a48.8 48.8 0 0 1-7-7.2zM278.8 252l4-5.5c.2 1.2-.1 2-.3 2.9-.1.6-.2 1.4-.6 1.7-.8.5-1.7 1-3.1 1zM393.1 236.6a2.7 2.7 0 0 1-2.3-2c-.5-1.7-1.1-3.4-1-5.3 0-.5 0-.9.3-1.4l.7 3.2c.4 2 .7 3.7 2.3 5.5zM277.5 249.5c.3 1.7 0 3-1.3 4.2-1 .8-1.6 1.9-2.6 3 0-1.2.8-1.6 1.2-2.2.4-.6 1-1 .8-2 0-.3.3-.7.6-1.1l1.3-2zM310.8 375.8c-.4-.2-1 .4-1.1-.3l1-1 .3.7 2.3-1 .1.3-.4.4c-1.4.5-1.4.6-.7 2l-.8.6c-.6 0-.9-.7-.7-1.7zM203.2 370c1.1 2 2.1 4.2 3 6.5-1 0-1-.8-1.3-1.4l-1.4-3.3-.6-1.7.3-.2zM286 242.4c-.3 1.8-1.2 3.3-2 4.8-.2-2 .6-3.5 2-4.8zM285.6 237.3c-.2 2.1-1.3 3.9-2.6 5.5.7-2 1.7-3.7 2.6-5.5zM367.5 264.3c0 1.6-1 2.6-1.5 3.9.2-.9-.3-2 .8-2.6-.1-.8-.1-.8.7-1.3zM315 365l1 1.1c-.7.5-.3 1.6-1.4 2l.4-3.1zM207.7 280.8c1.4.6 1.9 1.7 2.4 2.9a8.2 8.2 0 0 1-2.4-3zM390 225.8l.7-3.6c.5 1.3-.1 2.5-.3 3.7h-.3zM290 232.3l-1.2 2.3c-.1-1 0-2 1.3-2.3zM278.5 250.3l.1-1.2 1.5-.2-1.2 1.6-.4-.2zM314.8 370l-1 1.9c.2-.8-.1-1.7.7-2l.3.1zM281.6 243.4c-.3.8-.3 1.6-1.3 2l1-2.1.3.1zM310.1 380.7l1-1.5c.3 1.3.3 1.3-1 1.5zM166.9 316.8c-1.3 0-1.3 0-1.7-1.2a84.5 84.5 0 0 1 1.7 1.1zM168.5 318.2c-.8-.2-1.7-.3-1.6-1.4l1.6 1.5zM354.3 237.9l-.7 1c-.5-.8-.5-.8.6-1zM254.2 271.5l-1.1-.4c.4-.3.4-.3 1.2.1l-.1.3zM189.3 342c.5.2 1 .6.7 1.5l-.7-1.6zM203.7 381.8l.1 1-.3-.1-.1-.9h.3zM167.8 251.8l.4-1.5h.2l-.4 1.5h-.2zM168.5 318.3l1.1.8c-.6 0-1.1-.2-1-.9h-.1zM288.4 167.6c-1 .4-1 0-.9-.6l1 .6zM249.8 272.7l.7-.3v.2l-.6.3v-.2zM320 373l-.2.5h-.2c0-.2 0-.4.2-.6h.2zM266.8 266l.3-.9.2.1c0 .3-.2.5-.3.8h-.2z"/>
			<path d="M201.4 163.7c0 .2.2.5.1.7-.5 1.6.2 2.9 1.2 4 1.1 1.1 1.7 2.3 1.7 3.9l.1 1.3v.7c-.2.7-.5 1.4-.6 2.2-.3 1.4-1 2.7-1.7 4l-.6 1.3c-.1.2-.4.3-.6.4 0-.2-.2-.5-.1-.7 0-.3.2-.6.4-.8.6-.7 1-1.5.9-2.5v-.5c1-2.2.7-4.4.4-6.6a4 4 0 0 0-1-2.3 4 4 0 0 1-.9-2.4c0-.9.3-1.8.5-2.7h.2zM175.9 94.6h.8-.8z"/>
			<path d="M404 267.4c-2-12-2.1-23.8-3.8-35.7-1.4-4 .6-9.1-1-12.5-.8-1.8-.3-4.2-1.9-5.8-.3-2.1-4.8-3.8-6.3-2.6-.6.2-1.6-.1-2.2.2-3.2.5-6.5.6-7 4.6-3.9 12.5 2 25.3 1 38.2 1.1 7.6-7.2 13.5-12 17.7 2-8.3 7.8-16.6 5.7-25.7-1-12.6.6-25.5 0-38-.1-15.2-18.2-16.8-28.8-22.6-1.4-.5-2.8-1-4.2-.2-2.7-.5-5.3-3.2-8.2-4-6.6-5-16-5.2-20.3-12.7-7.1-4.4-13.3-11.1-20.9-15.3-8.1-4.3-19.2-14-26.7-4.2-.7-14.9-5-29.1-7.2-43.9-1.9-4.6 1.5-13.1-6-12-25.7 2.7-52 2-77.5 1.7 5.5.1 11.1.8 16.5 1.2 18 0 35.7-1.2 53.6-1.7 3 .2 7.8-1.3 10 .6 1.5 5 2.8 10 2.6 15 2.5 12.2 6.2 24.3 7.1 36.7.6 4-2.8 7.3-2 11.5 4.6 16.6-2.3 35.1-12.5 48.6-12 15.4-34.8 20.2-53.5 18.6-13.8-1.4-32.4-7.9-31.4-24.6 1.8-6.6 4.1-13.2 3.4-20.3 4.4-1.1 38-4.7 21.6-10.6-8 .3-16.9.2-24.6-.5 4.9-22.5-7.7-12.3-21.3-17-.1-1.3 1.2-3.5 2.4-4.3 2.6-3.8 5.4-8.8 8.1-12.6 3.3-10.5 7.5-21.2 7.8-32.4.6-1.8 0-6.6 1.8-7.4 3-.7 6.3-.9 9.6-.8l-11.7-.1c0 16.7-3 28.5-11.7 44-1 3.4-12.3 14-6.6 14.9 14 2.9 27-2.4 19.4 17.9-.7 1.5 1.4 2.8 1 4.3-1 2.8 2.7 3.8 2.4 6.7.1 8-3.6 15.6-2.5 23.7 5.8 18.5 31.1 21.5 47.6 19.4 42-4.7 45-29 55.5-55.6 2.8 4.1 6.8 6.7 9.7 10.8 2.3 2.3 6.5 4.6 6.7 8.4 3.3 1.6 4.8 6.3 7.1 9.4 8.3 10.6 3.3 19.9-4.6 28.6-5.4 7-9.5 14.7-14.8 21.7-4.6 6.2-11.8 10.6-15.7 17.3-12.4 3-25.3 6.2-38 7.7-2.3 0-4.6-.2-6.8-1.2-2.3-.3-4.8 1-7.4 0-1.5 0-3-1.5-4.5-1.3-.9.3-1.3-.2-1.8-.6-.8-.7-.7-.8-1.8-.3-3-3.7-10.5-3.8-12.3-8.2-5.3-.6-10-3.8-15-5.8 1.6-15.4 5.6-35-5.2-48-9-9.1-19.5-5-25.4 5.1a89.5 89.5 0 0 1-7.7 17.7l.8.5a86.7 86.7 0 0 0-8.3 21.7c-.1.6.6.9.1 1.5-.4.7 0 1.7-1 2.2-2 1.6.3 7.9-3 9.6-.7.4-.3 1.5.7.7-1.1 2.5-2 4.6-2.2 7.1-1.5 3.3 2.8 6.5-.6 10.9 2 1 4.9 2.7 5.8 5 .2.9 1 1.7 1.9 1.6 4.1 1.4 7.1 5.1 11.2 7.1 2.2 1.5 4.1 3 6.3 4.2 1.8.1 1.7 3 3.3 2.8.7 1.9 2.6 1.8 3.2 3.4h.7c0 1.4 1.3 1.3 2.4 1.7 0 1 1 1.3 1.6 1.5.3 1.5 1.3.8 1.7 2 1.4 2.6 3.4 1.4 4.6 4.8l1.3-.3c.2.8 0 1.8 1.1 2l2.5 4a51 51 0 0 0 18.3 19.2l-.5 1c2.4.3 3.7 6.8 4.1 9l2.9-.3c-.6 3 1.2 5.3 1 8.1.3 2.4-.1 4.9.7 7 1.5 4.9 3 9.6 3.5 14.7h12.8c-.2-10-8.2-19.5-10.4-29.3.8 0 1.3-.2 1.6-1-9.4-8-12.5-22.3-23.6-29.2-9.3-9.3-20.9-15.5-30-24.8-6-5.5-12.6-6.4-8.9-16.1-2.4 0-1.9 3.6-4.6 4.3-1.8-1.1-2-3.2-3.7-4.3-1.2-1.5 2.4-2 3.3-2.8 1-.4 2.2-1 2.8-2 1.1-2.1 3.9-1.4 5.3-3.2-4.4-.8-9.8 2-14 3.6-.6-.8-.6-1.6-.7-2.2-.8-.4-.3-1-.2-1.3.9-1.2-1-2.5 1-2.9 4.4-.5 8.8-2.9 13.2-1.7-3-4.2-9.9-.7-14.2-3.2 2.7-6 3.3-12.4 6.5-18.2 7.7 5.4 16.7-.5 22-5.5.7-2.4 2.6-4.3 3-6.7-4 4.8-8.2 13.5-15.6 12 15.6-2.4 20.3-29.3 15.4-41.4 12.6-1 9.2 18.7 11.7 27.1.2 1 .2 2.2-.8 2.7-2 2.3-.7 6-1.8 8.8l-1.2-.5c-1.5 2 0 5.1-1.7 6.6l.4.9c-6.3.7-14.2 1.4-18.4 7.2 5-.8 9.5-5.7 15.4-4 2 0 2.4 2.7.2 2.8l.7 1.5c-2 .8-8 8.4-3.9 7.9 2.3-2 5-5 8.2-4.3 1.3-2.2 3.6 1.4 4.7-1.5 7.4 2 15 4.4 21.5 8.4 4.7 0 8 5.7 11.3 8.8 4 4.1 8.8 7.2 12.2 11.8 3.3 1 3.2 9.2 6.5 8.5l1 2 1-.5c1.6 2.2 2.4 5.7 4.4 7.1l1.2 3.4c3.9-.4 1.2-6.6.2-8.8-3.7-1.8-4.4-8.2-6.3-12l-1.3.7c-2.7-4.7-4.2-9.4-6.8-13.7 6.8-1.5 14.5 2.2 20 5.9 2 .7 4.3 4.6 6.3 2.9l1.8 1.2c.8-.9-.1-1.3-.2-2 2.7-3-5.3-4.2-2.3-7-1.4-1.6-4-1.7-5.8-3.1l5-.6c-.9 1.4-.9 1.4-.6 2.4 4.6-2.9 9.7-4.1 14.9-5.6-.6 4-3.6 7.7-3.1 11.6 1.2 2-.8 3.5-.2 5.4 1.8-.6 1-3.4 3.1-3.6 2.2-4.2 4.9-8.3 7-12.5 1.6.5.3 2 .7 3 1.4 2.9 1 9.8 4.6 10.3-1-7.5-3.3-15 1.8-21.5 2-4.4 5.8-7.6 8.6-11.5 3-2 7.5-2.4 9.8-6 5.2-6.3 9.6-14.6 9-22.7 3.4-3.4 3.3-8.3 5.5-12.2 2.2.7 4.6 4.3 6.9 3-.7-.7-7.1-5.3-4-5.2 5.5 1 14.2 2.4 3.3-2.6 1.8-.9 4.2-.4 4.4-2.7-.7-.1-1.5.2-1.9-.4-1.5-2-4 1.1-6 .7 1-2.6 4.5-3 6.2-4.7 1.7-5.4-8 2.2-10 1.7-3.4-3-5-7.2-8-10.5-2.3-1.8-1.2-5-3-7l-1.3 1c-2-3.3-5.2-5.6-6.9-9.1-.2-.6-.6-.7-1-.4-2.2-2.6-4.6-5-6.3-7.8 2.9.8 3.5 4.2 6 5.3-3.4-6.6-17-22.6-5.5-26.8-.6 6.2 5.4 10.2 9.2 14.3 1.8.6 5.3 7 2.1 3-2.3-3.5-3.7.8-.9.2l-.1 1.4c1 .1 1.2.7 1.5 1.5 1.7.9 2.3 2.8 4.2 3.6 7.8 3 13.3 2.3 17.3-4.7 2.9 2.8 5.7 5.7 8.7 8.4.9 2.2 2.9 4.7 5.1 5 .6 1.4 2.5 4.8 4.4 3.4-.2.7-.7 1.2-.3 1.6 2.7 1.7 3.2 5.2 5.8 6.8.3 0 .4 1 .5 1.2 1.1 0 .9 1 1.3 1.7 1.4.2 2.1 2 3.6 2.9a20.8 20.8 0 0 0-8.1 7.4c2.6.3 6.5-3.1 9.8-3.7l.5 3c-3 .9-7 .8-8.2 4.2 3-.3 5.8-1.1 8.8-1.6 2.8 3.7-3 3.7-.2 6-.8 8.2-4.4 15.7-9 22.2-5.8 11.5-11.8 22.7-16.7 34.6-2.1 1.5-.7 6.3 2 5.3 1.6-.8 2.4.7 4-.6-.2-2.2 2-2.8 2.1-5 2.6-1.6 1.3-3.6 2-6.4l1.1 1.7c.2-6 5.7-9.7 6.3-15.5l1 .4c15.6-56.1 23.8-32-7.6-70.1 5 3.1 11 5 16.5 7.4 7.4 5.3 13.1 9.7 16.2 18.6a8 8 0 0 1-.1 5.2c-.6 4 1.4 8.4-.3 12.2-.5 2 .5 3.5-.7 5.5-.1 1-.5 2-.6 2.8.7.7.3 1.4 0 2-.6 1.2.7 2.5-1.2 2.8-1.9 0-1.1 2.2-2.5 3-.9 1.3-5.6 8-2.3 7.8 0 1.5-1.3 2.2-1.6 3.5.6 2-1.9 2.8-1.6 4.7-1.7 1.1-.5 3.2-2 3.9l-.5-1c-2.2 5.3-3.3 10.8-6.4 15.8-1 2.2-1 5.4-3.4 6.8 9.2 10.7 12-20.5 17.4-25.4 8-11.2 9.4-24.3 11.6-37.6 2.2-3.1-.1-7.7.7-11.6 2-9.2-7.2-12-13-16.4 13.5 4.4 24.2 9 20.6 25.3l1 1.3c-1.4 3.9.1 8.8-.9 13l1 .2c-2.4 3.2.8 5.3-.9 8.1 1.4 1-1.2 13.8-2.6 14.7 1.5 2.3-.6 4.9-1.1 7.3-2.6 6.5-5.7 13.7-8.8 20.4l1.2.3c-.3 1.1-1.5 2.3-.2 3.1v1c-1-.5-1.2.1-1.7.8l-1.3-.8-.2 1.6c1-1 1.4 1 2.2.2-.3 2.4-2.5 5.2.5 7 .3-1.6 2-1.9 3.1-2.4 2-2.4 2.2-6.6 3.9-9.5 6.5-5.3 14-12 18.8-19.8 1.7-5.7 1.1-12.8.7-18.7-1-8.2-6.2-24.7 3.6-28.5 1.8-1 3.2.6 2 2.3-2-.8-2.3 1.6-.4 1.7-3 2.6-2.7 12.6-1.4 16.7.8 3.5 7.3 4.4 6 8.8 0 1.1 1 2 .2 3.3 2.9 1-.9 6.8 2.4 7.2 0 1.9-1.8 3.6-.7 5.3 1 1.5-.3 3-.4 4.5l-1.4-.1c-.1 4.8.5 12.5-3.5 15-1 4.6-3.9 8.2-5.6 12.5-2 3.8-4.7 7-6.7 10.8-2.2 5.6-7.6 7.7-11.8 11.4-5.6 4.5-9.7 10.3-15 15.1l.5 1c-4.1 3.4-7.8 7-10.9 11.3-1.2-.4-1.5.2-1.9 1.1-1.1 1.8-4.9 1.7-4.2 4.2-1.4-1-2.3 1.2-3.4 1.7l.3 1c-.8.3-1.5.9-2.3.9-.5-.3-.8 0-1.1.3-.7 1.1-2 0-2.7 1.7h2c-.5 1.9-3.1 0-2.9 2.5-1 .1-2.7-.1-2.3 1.5.2 2-3 1.2-2.9 3.1-.3 1.3-2.4 1-3 2.2.7 1.3-1 1.7-1.8 2.6.5-1.6 1.3-2.8 1.2-4.5-.9-2.3 5-4 5.6-6.4-3 1.4-5 4.9-8.1 6.1.3-1.3 1.7-2.3 1.2-4-2.7 3.2-4 7.3-5.3 10.8-.5.7-.3 1.2 0 1.6-.4 1.4-2.4 3-.9 4.2-1.1 1.4-1.1 3-1.3 4.6h1c.2 1.6-.3 3.4-.7 5 .7.2.8 1 .6 2.2h7.5c.8-3.9 1.8-7.7 3.3-11.5l-.9-.2 1.3-3.6.6.7c.7-4.8 4-7 7-10.1 4.2-3.5 8.4-7.5 13-10.7 5.7-5.8 13.4-10.6 19.8-16.6 2-.9 4.6-.5 5.8-2.8 6.7-8.1 12.7-17 19.2-25.6 4.3-5.6 7.9-8.2 7.4-15.6 2.6-7 9.8-12.4 10.1-20.3zm-235.7-96.2c8.8.6 18-1.3 26.5 1-5.7.5-11.3.3-17.1.6-2.6-.4-10.3 3.8-9.4-1.6zm0 5.5c1-2.2 4.3-1.1 6.4-1.5 6.4.2 12.8-1.3 19-1.1-7.8 1.3-18 6-25.4 2.6zm35 205.1h.4l.1 1c-.6 0-.3-.6-.4-1zm0-11.9 3 6.6c-2.2-1-2.4-4.3-3.5-6.4l.4-.2zM190 343.5l-.7-1.6c.5.3 1 .7.7 1.6zM169.6 319c-.6 0-1-.2-1.1-.8l1.1.8zm-1.2-.9c-.8-.2-1.6-.4-1.5-1.4l1.5 1.4zm-1.5-1.4c-1.3 0-1.3 0-1.7-1.2l1.7 1.2zM140.5 250c-3 1.1-7.6-1.5-7.3-5.1 1.9 2.6 4.7 3.4 7.4 4.7v.4zm17-29.6c-1 7.5-2 15.6-6.2 22.1-4.3 6-15.9 6.3-17.2-1.7 1.5-11 19.2-52.5 23.4-20.4zm9.3-5.1-.3-1h.3l.3 1h-.3zm1.2 36.5h-.2l.4-1.5h.2l-.4 1.5zm1.1 3.9c-1.5-3.6.6-8.4 1.3-12 1 4-.4 7.9-1.3 12zm31.3 19.8c3.2.6 5.2 5 7 7.2a48.8 48.8 0 0 1-7-7.2zm7.3 5.3c1.4.6 1.9 1.7 2.4 2.9a8.2 8.2 0 0 1-2.4-3zm42.2-7.9v-.2l.6-.3v.2l-.6.3zm4.3-1.4-1.1-.4c.4-.3.4-.3 1.2.1l-.1.3zM267 266h-.2l.3-.9.2.1c0 .3-.2.5-.3.8zm27.6-38.2c-.5 4-3 6.9-5.4 10 .3-3.4 2.6-7.2 4.8-9.9.1-.2.4-.3.6 0zm-4.5 4.5-1.3 2.3c-.1-1 0-2 1.3-2.3zm-8.8 11 .3.1c-.3.8-.3 1.7-1.3 2l1-2.1zm-5.1 10.4c-1 .8-1.6 1.8-2.6 3 0-1.2.8-1.6 1.2-2.2 1.1-1.5 1.1-3.5 2.7-5 .3 1.7 0 3-1.3 4.2zm2.4-4.6 1.5-.2-1.2 1.6-.4-.2.1-1.2zm4 .3c-.2 2-1.8 2.6-3.8 2.6l4-5.5c.2 1.2-.1 2-.3 2.9zm3-12.1c-.2 2.1-1.3 3.9-2.6 5.5.7-2 1.7-3.7 2.6-5.5zm.4 5.1c-.3 1.8-1.2 3.3-2 4.8-.2-2 .6-3.5 2-4.8zm-1.9 7c2.1-7.4 7-12.4 10.6-18.7-.2 5.6-7 16.2-10.6 18.6zM268.7 161l.3 1h-.2l-.4-.8.3-.2zm1.8-2 .5 1.1-.5.2-.3-1.3h.3zm0 8c.2.3.6.5 0 .7l-.3-.6.3-.2zm-.6-.6a4.4 4.4 0 0 1-1.4-3.1c.5 1 1.6 1.8 1.4 3zm17.6.5 1 .6c-1 .4-1.1 0-1-.6zm-2-5.7c-28.3-26 10-8.5 18.7 2.6-4.8 7.8-14.4 3.3-18.8-2.6zm20.6 5c-1.7 5.5-7.4 7.3-12.6 5-1.3-.9-4.8-.8-4.3-3 11 5.7 17.4-6.2 17-2zm47.5 72.5c-.5-.7-.5-.7.6-1l-.6 1zm12.4 29.4c.2-.9-.3-2 .8-2.6-.1-.8-.1-.8.7-1.3 0 1.6-1 2.6-1.5 3.9zm24.7-46c.5 1.3-.1 2.5-.3 3.7h-.3l.6-3.7zm.2 12.4c-.7-2.1-1.8-4.5-.8-6.6.9 3 .7 5.9 3 8.6a2.7 2.7 0 0 1-2.3-2zm3.7-13.6c-.4.9.3 2.2-.2 3-1 1.1-1 1.7 0 2.6.4 3 0 5.1.2 8.2-5.2-5.4-1.5-13-1.5-19.6 1.2 1 0 2 .3 3l1-.6c.4 1.2.8 2.2.2 3.4zm-84.5 159.7 1-1.5c.3 1.3.3 1.3-1 1.5zm2.9-5.8c-1.4.5-1.5.6-.8 2-.8 1.1-1.7.5-1.4-1.1-1.5.3-1-.6 0-1.3l.2.7 2.3-1 .1.3-.4.4zm.9-3c0-.7-.1-2.5 1-1.9l-1 1.9zm.7-3.9.4-3 1 1.1c-.7.5-.3 1.6-1.4 2zm5.4 5-.2.5h-.2c0-.2 0-.4.2-.6h.2z"/>
	</g>
	<g id="Layer_2">
			<path class="st1" d="M230.7 124.7c-.2.5-.3 1 .2 1.3l-.3-1.3v-1.3h-.3c0 .4-.2 1 .4 1.3zm-59.3 62.6-.2.9v4.6c0 .5.2 1 1 1l-.2-1.7.2-3.6c0-.6 0-1-.8-1.2zm40.8 4.5-.3.7.4 4.3c0 .2.1.5.3.7.3.1.6.2.9.1.3-.1.3-.5 0-.8-.6-.4-.6-1-.6-1.5V193c0-.4 0-1-.7-1.3zm33.6-37.1c-.8 1.5-.4 4.9.7 6 .5 0 .4-.4.3-.8a7.3 7.3 0 0 1-.4-4.2c0-.5.1-.9-.6-1zm-54.3 45s.2 0 .2-.2c-1.1-1.7-.6-3.7-.9-5.7-.9.3-1 1-.9 1.6l.4 3 .6 1.2.6.2zm14.2-2c.4-.4.7-.7.3-1.1-.5-.5-.5-1-.5-1.5v-2c-.1-.5 0-1-.7-1.1-.7 1.3-.3 4.3.9 5.6zm57.3-17.4h.3l.4-.4-.7-4.7-.8-.5c-.1 2.1.4 3.8.8 5.6zm-37.7-39v-1.2l-1-3.5-.4-.9c0-.1-.3-.2-.5-.1l-.2.4v.4l1.2 4c0 .4 0 .9 1 .9zM209 192.1l-.4-.1-.2 1a17.4 17.4 0 0 0 .6 4.2c0 .2.4.3.7.4 0-.3.3-.7.2-.8-.8-.7-.6-1.6-.6-2.5 0-.8.1-1.6-.3-2.2zm-7.3-6.7-.4.1c0 1.6 0 3.2.3 4.8 0 .4.5.7.8.4.2-.2.4-.9.3-1-.7-.5-.4-1.2-.5-1.9 0-.6 0-1.2-.2-1.9l-.3-.5zm16.6-49.7h-.4c-.1.3-.3.5-.3.8 0 1.2 0 2.5.2 3.8 0 .4.1.8.6.7.6 0 .5-.6.4-1l-.2-3c0-.5-.2-.9-.3-1.3zM191.3 201c-.7 0-.8.4-.8.8 0 1.2.2 2.4.3 3.5 0 .6 0 1.2 1 1.4l.2-.8-.5-3.8-.2-1zm4.3-.4-.2-.2-.4.4c-.9 1.6 0 3.4 0 5 0 .2.3.3.5.4l.3-.6-.2-3v-2zm20.8-8.4h-.5l-.2 1a50.7 50.7 0 0 0 1 4c.1.2.5.2.7.3 0-.3.3-.7.2-.8-.8-.9-.6-1.9-.8-2.9 0-.5-.3-1-.4-1.6zm-18.2 8.4c-1 .6-.8 1.4-.8 2.1 0 2.3.2 3.1 1 3.7l.2-.2-.3-5.6zM185 194h-.3c-.1.2-.3.5-.3.8v4.5l.1.5.5.3c.2-.1.5-.4.4-.6l-.3-1.6V194zm8.7-.2-.2 1 .5 3.8.1.4c.2.3.4.7.8.4.2-.1.3-.7.2-.8-.6-.7-.5-1.5-.6-2.2v-1.6c0-.4-.1-.9-.8-1zm51.5-20c.7-.2.7-.5.6-1a24 24 0 0 1-.4-2.5v-1.3c0-.2-.4-.4-.5-.6-.2.2-.4.4-.4.6l.2 3.8c0 .4.3.7.5 1zM201.8 192l-.6.5c0 1.7.2 3.4.3 5 0 .4.5.7.8.4.2-.2.4-.8.3-.9-.6-.7-.5-1.4-.5-2.2l-.3-2.8zm-14.6 2c-.6 1.6.2 3 .2 4.5 0 .6 0 1.2.7 1.6l.3-.3-.6-5.4-.6-.4zm5-15.8-.4.3-.1 4.5c0 .4.3.8 1 .6-.6-1.7.1-3.5-.5-5.4zm-15.6 9.5-.4.7.4 4c0 .5.4 1 1.2.9l-.6-1.8v-1.8c0-.6 0-1.3-.6-2zm45.5-2.7-.5.4c-.7 1.5-.2 3 .1 4.5 0 .2.2.4.3.5h.6c.1 0 .2-.4.1-.5-.7-1.2-.5-2.4-.5-3.7v-1.2zm-54.3-75.5v-4.5c0-.2-.5-.4-.7-.6l-.4.7c0 1.2.2 2.4.4 3.6 0 .3.4.4.7.8zm81 65.7-.4 1a78 78 0 0 0 .1 4.1l.5.4c.2-.2.5-.4.5-.6l-.2-3.7-.4-1.2zm-63.1 11.7-.5-.1c-.2.3-.4.7-.4 1l.2 3.4c0 .4.2.7.4 1l.6.2.2-.7c-.7-.8-.5-1.7-.5-2.6v-2.2zm-7.6 14.6c-.7 1-.7 1-.6 4 0 .6 0 1.2.5 1.6.6-.2 1-.7.8-1.1-.7-.9-.3-1.8-.4-2.8l-.3-1.7zm9.4.8c-.5.1-.7.4-.5.9.5 1 .4 2 .4 3 0 .7 0 1.3.7 1.6.5-.9.1-4.5-.6-5.5zm-1.2-64.9c0 1.7.2 3.1.3 4.6l.6.4c.5-.1.7-.5.5-.8-.5-1-.3-2-.3-2.9 0-.5 0-1-1-1.3zm75.1 30-.3.6.5 4c0 .3.3.6 1 .3l-.7-4.4-.5-.4zm-66.2 11h-.5a8.4 8.4 0 0 0 0 5c0 .2.5.3.6.3.2-.1.3-.5.3-.7-.7-1-.5-2.2-.3-3.4l-.1-1.2zm-6.7.5h-.4c-.1.3-.3.5-.3.8a59.8 59.8 0 0 0 .5 4.6l.6.2s.2-.4.1-.5c-.5-1.2-.2-2.5-.3-3.8l-.2-1.3zm54.7-43.7-.3-.2c-.2.2-.6.3-.6.5v3.7l.1.5c.2.2.4.2.7.3 0-.2.3-.5.2-.6-.4-1-.2-2.1-.1-3.2v-1zm-41.5 71.4-.3-3c0-2.4 0-2.4-.5-3.2-.7 1.5-.2 3-.2 4.3 0 .6 0 1.4 1 2zm-20.4-11.2-.2.8a111.7 111.7 0 0 0 .6 4.3l.7.2c.1-.1.3-.6.2-.7-.8-1-.5-2.2-.5-3.3 0-.5 0-1-.8-1.3zm-.7 7c-.2 2 .2 3.5.3 5 0 .2.5.5.7.4.4 0 .4-.4.3-.8l-.4-2.7c0-.4 0-.8-.2-1.3 0-.2-.3-.3-.7-.6zm17.6-9.8h-.4l-.2.6a150 150 0 0 0 .3 5c0 .2.3.3.7.6l-.2-5.2-.2-1zm-13 15.5c0-1.2-.2-2.1-.3-3 0-.6-.1-1.2-.3-1.7 0-.2-.3-.4-.6-.9l-.2 1.4a54.7 54.7 0 0 0 .5 4c.2.5.6.5 1 .2zm30-72.3h-.3c-.1.1-.3.2-.3.4a122 122 0 0 0 .2 4.3c.2.2.5.4.7.3l.3-.6-.3-3.3-.2-1.1zM205 190c.6-.4.8-.8.4-1.1-.5-.6-.3-1.3-.3-2v-1.6c0-.2-.3-.4-.6-.8-.4 1.6-.4 3-.2 4.4 0 .4.5.7.7 1zm6.2-4.9-.4.1c-.4 1.4-.1 2.7.3 4 0 .3.3.6.5.7.4.3.7.2.9-.4-.8-.5-1-1.3-1-2.1v-1.5c0-.3-.2-.5-.3-.8zm47.7-10.4c-.1 1.7.2 3 .5 4.4 0 .2.5.3.6.3.2-.1.4-.5.3-.7 0-.8-.3-1.6-.4-2.5 0-.5 0-1-1-1.5zm-52.6-33.4-.6-4.7c-.8 0-1 .6-.9 1l.5 3.4c.1.5.6.6 1 .3zm-9.9-4.2-.2.3c-.4 1.3-.2 2.6.1 4 .1.2.5.3 1 .6l-.3-3.9v-.5a1 1 0 0 0-.3-.4h-.3zm15.4-.4h-.5c0 .3-.3.6-.3 1l.3 3c0 .3.4.6.6.6.4 0 .5-.4.5-.8l-.4-2.7-.2-1zm41.3 23.1c0-.8-.2-1.6-.4-2.4-.1-.8.5-1.7-.2-2.7-.3.4-.6.7-.6 1 0 1.1 0 2.3.2 3.5 0 .4.3.8 1 .6zm-7.4 20.2c.8-.4.4-1 .3-1.6v-1.6c0-.5.4-1.1-.2-1.6-1 .7-.8 1.7-.8 2.6 0 .8 0 1.6.7 2.2zm10.5-4.7h-.4a7 7 0 0 0 0 4c0 .4.3.8 1 .7-.1-1.6-.4-3.1-.6-4.7zm-70.9 9.4c.7-.8-.1-1.2 0-1.8V181c0-.6.4-1.2-.2-1.8-1 1.2-1 4.2.2 5.4zm9.8.8-.5.6a147 147 0 0 0 .2 4.8c.2.2.5.4.7.3.3 0 .3-.3.2-.7l-.4-1.8v-2.2c0-.3 0-.5-.3-1zm-12.5 1.5c-1 1-1 4-.2 4.9l.6.1c0-.2.2-.5.1-.7-.5-.9-.5-1.9-.4-2.9l-.1-1.4zm1.5-44.8c.3-.5.6-.7.6-1l-.1-3.3c0-.2-.3-.4-.5-.5-.2.1-.5.3-.5.5v3.5c0 .2.3.4.5.8zm-3.2-4.3c-.2.3-.5.5-.5.7V141.7c0 .3.3.5.5.7l.5-.6v-.5l-.1-2.4c0-.3-.2-.6-.4-1zm3.6-20.8c-.8 0-1.2.3-1.2 1.2v3.1c0 .3.2.6.4 1.1 1-1 .2-1.9.4-2.7l.4-2.7zm-14.1 84.2c.5-1 .6-4.5.3-5.8-.9.2-1 .3-.8 1.3l.2 3.1.3 1.3zm8.8-1 .4-.6c-.3-1.2-.2-2.5.2-3.7 0-.4 0-.9-.4-1.1-.8.4-.8 1-.8 1.8 0 1.1-.3 2.4.6 3.7zm41.2-7.7c-.9 1-1 3.7-.3 4.5l.6.2c0-1.7-.2-3.2-.3-4.7zm-27.8-53.3v2c0 .5.4.8.8.6l.3-.7-.1-2.7v-.7l-.6-.6-.4.6v1.5zm15.7 45.2h-.4c-.3 1.4-.2 2.7 0 4.1.2.5.4 1 1 1 0-1.6-.2-3-.3-4.5l-.3-.6zm-5.5-48.4c-.7.2-.7.6-.7 1 0 1.2-.4 2.3.3 3.4l.8.4c-.4-1.7.2-3.3-.4-4.8zM191.3 186l-.2 1 .1 1.8c0 .7.1 1.3.3 2 .2.8.5.8 1.3 0-.7-.6-.8-1.4-.8-2.3 0-.8.2-1.7-.7-2.5zm42.8-18.7.5-.6-.2-4c0-.4-.3-.7-1-.5.2 1.6 0 3.3.7 5.1zm-57.5 28-.3.7v3.7l.1.5.6.5.4-.6c-.5-1.3 0-2.5-.2-3.7 0-.4 0-1-.6-1.1zm-9.7-84.4c-.5 2.3-.2 4 .9 5 .4-1.5-.3-2.8-.2-4.1 0-.4 0-.9-.7-1zm20.3 11.7.4-.1.2-.5c-.4-1.3-.8-2.6-.1-4 0 0-.1-.4-.3-.4l-.5.1-.3.6.1 3.3c0 .3.3.6.5 1zm54.3 53.4c-.3 1-.4 4-.2 4.8l.3.7c.4-.5.6-.6.6-.8l-.3-4.5s-.3 0-.4-.2zm14.1-20.7-.4.2c0 1.5 0 3 .3 4.5.1.4.3.7.9.5v-.8l-.2-2.4-.1-1.3c0-.3-.3-.5-.5-.7zm-67.1 31.5c-.7 0-.8.4-.8.8a60 60 0 0 0 .6 4.1l.6.3c0-.3.3-.6.2-.7-.7-1-.5-2.1-.5-3.2l-.1-1.3zm30.2-1.5h-.3c-.6 1-.7 3.7 0 4.6v.2c.3 0 .5.2.7.1.1 0 .3-.4.2-.6-.9-1.2-.5-2.5-.4-3.8l-.2-.5zm39.6-17c-.3 0-.5.1-.5.3-.5.7-.3 3.3.4 4l.4.1c.1-.1.3-.4.2-.6l-.3-3.2-.2-.6zm-.8-19.9h-.3c-1 1.1-.4 2.5-.3 3.7 0 .6 0 1 1 1l-.4-4.7zm-47.7 35c-.9-1.6-.4-3.4-1.1-5-.3.2-.5.3-.5.5 0 1.5 0 3 .7 4.4l1 .2zM165.1 111l-.5.4v4.3c.4.2.7-.1.7-.6.1-1.3 0-2.6-.2-4zm87 64.7c-.6 1.4 0 2.8 0 4.2l.6.3c.2 0 .4-.4.4-.6l-.3-3.2c0-.4 0-.8-.7-.7zm-17.2 5.5v-2.4c-.1-.7.5-1.5-.2-2.4-.9.9-.9 1.9-.7 2.9.1.6-.2 1.5.9 1.9zm15.2-46.5c-.8.7-.9.7-.8 1.3.1 1.2 0 2.4 1 3.6l.3-.7-.5-4.2zm-23.1.8-.2.3.5 3.9.6.3.3-.6-.4-3c-.1-.4-.2-.8-.8-.9zm21.7 37.8.3-.1-.7-4.5-.6-.3c-.2 1.6.2 3 .4 4.5 0 .2.4.3.6.4zm-76.4 33.9c.2-1.4-.1-2.6-.4-3.8-.1-.5-.2-1-1-1.1 0 .2-.2.5 0 .7.5 1.3.5 3 1.4 4.2zm-3-2.5v-.7c.1-.5.1-1-.4-1-.2 0-.6.6-.6.8 0 1 .2 2 .4 2.9 0 .3.3.7.7.5.2 0 .3-.6.3-.9l-.5-1.6zm47-15.8c-.9-.6-1-1.4-.9-2.3 0-.6.3-1.3-.1-1.9-.8 1-.9 3.7-.2 4.6.5.5.8.3 1.2-.4zm-43.7-79.4c.3-.5.4-.7.4-1l-.3-3.3c0-.4-.2-.9-.8-1-.7 1.2.4 2.2.2 3.3-.1.5.3 1.1.5 2zm67.6 38.1c-.2.5-.6.8-.5 1.1.1 1.2-.3 2.5.4 3.7l.4-.2.1-4-.4-.6zm-60.2 45c.1-.2.3-.4.2-.5l-.5-3.5c0-.5-.2-1-.8-1-.1.2-.3.3-.2.4.1 1.3.3 2.5.6 3.8 0 .2.2.4.3.5l.4.2zm60.4-57.3c-1.3 1.3-1.3 3.6-.2 4.6l.3-.4-.1-4.2zm-14.5 49-.5.6v3.3c0 .3.3.7.5 1 0 .1.4.2.5.1.1-.1.3-.4.2-.5-.8-1-.4-2.2-.5-3.3l-.2-1.2zm23.2-29.8c-.4.6-.5 2.2-.2 4 .1.4 0 1 .8 1.2.2-1.7-.1-4.5-.6-5.2zm-58.8-13v-4s-.3-.3-.4-.2c-.2 0-.5.3-.5.4v3.3c0 .4.3.7.9.4zm47.7 40 .5-.6-.3-4.5h-.2c-.2.2-.5.5-.5.8-.1 1.4-.2 2.7.5 4.3zm-74.5-43.3h-.4c-.1.1-.4.3-.4.5l.4 3.2c0 .2.3.3.5.5l.4-.7-.5-3.5zm91.8 34.6c.2-.2.4-.3.4-.5l-.3-4.2c-1.2 1.2-1.1 3.2 0 4.7zm-39.6 5.5c-.9.3-.8.7-.7 1.1l.5 2.3c0 .3.1.7.3 1l.7.3c0-.3.2-.5.1-.7 0-.6-.3-1.1-.4-1.7l-.5-2.3zm-17.4 7.6-.3.6.4 3.5c0 .3.4.7.6.8.2 0 .5-.4.9-.7-1-.6-1-1.5-1-2.3 0-.6 0-1.3-.6-2zm32.2-9.2c-.2 0-.3.2-.5.3-.2 1.5-.3 3 .1 4.5l.6.3v-4.5l-.2-.6zm-49.3 3c-1 1.7-.5 3-.1 4.4 0 .2.3.4.5.6l.5-.2c-1-1.4-.2-3-1-4.8zm.5-57.4c.3-1-.3-4.3-1-5.2 0 .5-.3.8-.2 1 .3 1.4.2 2.9 1.2 4.2zm-8.8 73.5c-.3.5-.4.5 0 2.2.2.8-.1 2 1 2.7.3-1.4-.4-2.6-.3-3.8 0-.4 0-1-.7-1.2zm53.3-13.8c.8-.5.3-1 .4-1.6v-1.6c0-.5.3-1.1-.5-1.3a5.4 5.4 0 0 0 .1 4.5zm-16.7-78.6-.2-.1c-.1.2-.4.4-.4.6 0 1.3 0 2.6.2 3.9 0 .4.4.7 1 .6l-.6-5zm36.9 32-.3-.2-.2.5.3 3.7c0 .2.4.4.5.3.2-.1.4-.4.4-.6l-.4-3.2-.3-.6zM199.8 108c.8-.1.9-.6.8-1-.2-1.3-.6-2.7 0-4.1-.9 0-1 .5-1 .9l.2 4.2zm-32.9-6.1c.2-.6.4-.7.4-1 0-1-.4-2 .4-3.1.2-.2-.1-.9-.6-.9-.3 0-.7.5-.7.7v2.5c0 .5.3 1 .5 1.8zm74.6 31.7c.5-1.6.5-3.1-.2-4.5-.6 1.2-.2 2.5-.2 3.8l.4.7zm-43.7 45c-.2 1.5-.3 3 .4 4.5l.5.3.3-.2c-.7-1.5-.1-3.2-1.2-4.7zm54-10.3c-.3.5-.5.8-.5 1.1l.5 3c0 .2.4.3.6.5l.3-.8-.5-2.9-.4-1zm8.3-19.5c-.3.4-.7.6-.7.8l.5 3.2.6.3c0-.2.4-.5.3-.6-.5-.8-.2-1.7-.4-2.6l-.3-1.1zm2.8.2a8 8 0 0 0 .2 4l.7.5c0-1.6 0-3-.3-4.2 0-.2-.4-.2-.6-.3zm-3.5 10.8.3-.4-.2-3.6c0-.2-.3-.4-.5-.8-.8 1.6-.4 3-.3 4.3 0 .2.5.4.7.5zm-38.7-22.5.3 1.8c0 .2.4.3.7.4l.2-.7-.1-1.6-.1-1.4c0-.1-.3-.3-.5-.3l-.4.3v1.5zM192 116.6c-1.3.8-1.6 2.1-1.1 3.7.2.7.5.9 1.4.8-.4-1.4-1.1-2.7-.3-4.5zm37.6 67.4c-.8.8-1 2-.4 3.6.2.5.2 1.2 1.1 1l-.5-2.3c-.2-.7.5-1.6-.2-2.3zM177.3 142h.4c1-1.1-.3-2.2 0-3.3 0-.3-.2-.6-.5-1.1-.8 1.3 0 2.4-.2 3.4l.3 1zm-3.1 45.8-.4.7.8 3.2.7.3c0-.2.3-.5.2-.7l-.5-2.2c-.1-.4-.4-.7-.8-1.3zm64-58.8-.4.8c.4 1.2-.1 2.6.8 3.7.4-1.5.6-3-.3-4.5zm18.4-1.7c-1 2-1 3.3.2 4.5l.3-.6-.5-3.9zM206 216.7h-.3l-.2.7a46.2 46.2 0 0 0 .6 5.2c.2.5.5.5.9 0-1.2-1.8-.6-3.9-1-5.9zm48.7-68.7c-1.2 1.5-.6 2.8-.5 4.1 0 .2.4.3.7.4l.2-.2c-.4-1.3.1-2.7-.4-4.3zm-94.8-9.4c0 1.3-.3 2.7.5 4.2.9-1.3.4-2.6.4-3.7 0-.4-.2-.7-.9-.5zm94.8 23.2-.4-.2c-.2.4-.4.7-.4 1v2.9l.6.3.4-.4-.2-3.7zm-18-9.6h.4l.2-1-.1-2-.1-.8-.7-.5c0 .3-.3.5-.3.8l.3 2.4.2 1zM201.3 121l.3-.3v-.4c0-1.2-.6-2.5 0-3.8l-.3-.4h-.5a1 1 0 0 0-.3.6c0 1.5 0 2.9.8 4.3zm35.7 14.6h-.3c-.5.7-.5 3.2 0 3.8l.5.2.3-.5-.2-2.9-.3-.6zm14.3 26.2h-.4c-.5 1.4-.2 2.7.1 4 0 .1.4.3.6.2.1 0 .3-.3.3-.5l-.3-2.3-.3-1.4zm-10.3 0-.4-.2c-.6.6-.6 1.5-.4 2.2.1.7 0 1.6 1 2 0-1.5-.1-2.8-.3-4zm-27.8-58.4-.6.3c-.3 1.5 0 3 .5 4.3 0 .2.4.2.6.3l.2-.7a6 6 0 0 1-.6-3.3l-.1-1zm-13 32.8c-.9.2-1 .6-1 1 .3 1.2-.3 2.6.7 3.7.5-1.5.3-3 .3-4.7zm16.6 84.8c-.2-.7-.5-1.2-.5-1.8v-3.7l-.2-.7c-.3.3-.5.6-.5.8v3.2l.5 1.9c0 .4.3.6.7.3zm-58.7-77.5.3-.2c-.6-1.3-.2-2.8-1-4.1-.6 1.2-.3 2.5-.3 3.7l1 .6zm73-23.2.5-.8-.8-4c-.3.3-.6.6-.6.8.1 1.3.1 2.5.8 4zm6.2 41.7c-.6 1.2-.2 2.5 0 3.8l.4.2.4-.4c-.2-1.2 0-2.5-.8-3.6zm-64.6-50.2c-.7 1.6-.2 3.7 1 4.4l-.5-3.9-.5-.5zm61 23.4c-.3.4-.7.5-.7.7 0 1 0 2 .2 3.1 0 .4.4.6.8.5l-.2-4.3zm-51.4-24.5c-1.5.9-1 2-1 3.1 0 .6.3.9 1 .9v-4zm15.1 5.8c-.5 0-.9.2-.8.6 0 1.1.2 2.2.4 3.3l.7.4.3-.7c-.2-.6-.5-1.1-.6-1.7v-1.9zM167 138.3l-.4.4c-.4 1.2 0 2.3.3 3.5l.8.3c0-1.5-.2-2.8-.7-4.2zM220 183l.2-.3-.7-3.4c0-.2-.4-.4-.6-.6l-.3.2c.2 1.2.3 2.4.7 3.6 0 .3.4.4.7.5zm27.6-20.6h-.3c-.9 1-.6 2.2-.2 3.4.1.5.4.6.9.5a465 465 0 0 1-.4-3.9zm-27.5 58.8c-1.2-1.8-.7-3.8-1.1-5.6-.7.2-.6.6-.6 1a108.8 108.8 0 0 0 1 4.6h.7zm18.5-17-.5-3.2c0-1 .4-2.2-.2-3.2-.4 1.9-.3 3.7 0 5.5 0 .4.2.8.7.8zm-29.9-62.8.4-.3-.5-4.1c-.7.2-.8.7-.7 1.2 0 1.1-.3 2.3.8 3.2zm12-34.1c.8 0 .7-.6.6-1-.2-.6-.5-1-.6-1.7l-.2-1.7c-.3 0-.5.1-.5.3-.2.2-.3.5-.2.7.1 1.2.3 2.3 1 3.4zm37.2 54.3h-.4c-.1.1-.4.3-.4.5a53.4 53.4 0 0 0 .2 3.5c.2.1.5.3.6.2l.3-.5c-.5-.8-.2-1.6-.2-2.4l-.1-1.3zM234.3 115c-.7 0-1 .6-.9 1.1.2 1-.2 2.3.8 3.3.8-.8 0-1.5 0-2.2l.1-2.2zm-39.4 2.3c-1.3 0-1.6.4-1.4 1.5 0 .7 0 1.5.8 2h.8c-.5-1.1-1.3-2.2-.2-3.5zm-10.1-2c.9-.8 0-1.5 0-2.2v-2.2l-.2-.1-.5.8c0 1.2-.2 2.5.7 3.7zm61.7 37.4c.5-1.6.3-3.8-.2-4.5-.6.8-.5 3.6.2 4.5zM217.9 108l-.7-2.4v-2.3c-1 .7-1 1.1-.7 3 .2.7.1 1.5 1.4 1.7zm-44.6 77.3.3-.2c.1-2.1-.2-3.8-1-4.5-.1.3-.4.6-.3.8l.8 3.4.2.5zM207 114c.3-.7.3-.8.1-1.3-.2-.9-.6-1.8 0-2.7-.6-.3-1 0-1 .3-.2 1.3-.3 2.6.9 3.7zm-7.8-.1-.8-4h-.4c-.7 1 0 2.2.2 3.3 0 .5.3.9 1 .7zM175.5 207c.1-1.5-.5-2.6-.7-3.8 0-.3-.3-.5-.5-.7l-.3.1.5 3.4.3.6.7.4zm-3.7-104.6h.3l.4-1c0-1-.3-3.4-.7-4 0 .1-.3.2-.2.3 0 1.6 0 3.1.2 4.7zm63.6 104.2c-1.5 1.9-1.2 5.2.3 5.5-.2-.8-.6-1.7-.7-2.6 0-.9.3-1.8.4-3zm17.9-79c-.8 1.1-.8 1.1-.5 2.8.1.5.2 1 1 1.4-.1-1.4 0-2.7-.5-4.1zm9 31.9c.7-.4.1-.9 0-1.3v-1.7c-.1-.4 0-1-.6-1.2-.8 1.2-.6 3.1.6 4.2zm-85.4 21-.4.7.7 3.7.6.3c0-1.2-.4-4-.9-4.7zm36.3 35.2c-.5 1-.6 4.3-.1 5.5 0 .2.3.4.5.6l-.4-6.1zm17.9-114.9c.5-1.3 0-2.7-.2-4 0-.2-.3-.4-.4-.6l-.4.1c.3 1.5.4 3 1 4.5zm-2.7 19.2c-1.2-1.3-1.2-2.8-1.2-4.2-.6 0-.9.3-.8.7l.5 2.7c.2.6.6.9 1.5.8zm22.2 82.2v-5h-.3a8.5 8.5 0 0 0-.2 4.9l.5.1zM215.2 115l-.4-2.2v-2.4c-1 .7-.7 1.6-.7 2.3 0 .8 0 1.8 1.1 2.3zm7 62.7c-.4 1.5.2 2.7.2 3.9 0 .3.2.8 1 .5-.5-1.3 0-2.9-1.2-4.4zm-20-67.7c-.9 0-.8.7-.8 1.2 0 1.8.4 2.8 1.3 3l-.6-4.2zm-33-4.3.3 2.7c0 .3.2.6.4.8l.4.2c.2 0 .3-.3.3-.4l-.6-3.3c0-.2-.2-.3-.4-.5l-.4.5zm64.5 83c.2-.4.4-.7.3-.8-.4-1.2.1-2.6-.8-3.7-.5 1-.3 3 .5 4.5zm-49.3-84.4-.4-.1c-.1.2-.4.4-.4.6 0 1.2-.1 2.4.7 3.3.6-1.3 0-2.5 0-3.8zm76.4 57.3c-1 1.4-.9 3 .2 3.9.4-.2.6-.5.5-1l-.5-1.8-.2-1zM241.6 120l-.4-2-.3-2c-.8.7-.8.7-.7 1.4.2 1 .2 2 1.4 2.6zm-17-.2c-.1-1.4-.4-2.7-.6-4.1-1 .8-.6 1.8-.5 2.7 0 .5 0 1.4 1.2 1.4zm-21.7 97-.4-.1-.1 1.4v3.4c.1.4 0 1 .2 1.3.1.5.5.6.8.2-1.1-2 0-4.2-.5-6.3zm27.8-77.3c-.3-1.3.1-2.6-.4-3.8-.7 0-1 .5-.8.9.4 1-.2 2.3 1.2 3zm-54.5-28c-.3.4-.6.6-.6.8.1 1.2-.2 2.4.2 3.6.7 0 .8-.5.7-1l-.3-3.5zm3.3 3.3c-.7-1-.7-1.9-.2-2.9v-.6c-.5.4-1 1-1.1 1.5a4 4 0 0 0 0 1.9c.2.5.7.7 1.3.1zm63.4 33.4c-.3 1.4 0 2.8.3 4.2l.6.1c-.1-1.5 0-3-.9-4.3zm8.6 4.6h.5v-4.1l-.5-.5a8 8 0 0 0 0 4.6zm-53.1 23.9v-3.5c-.7-.2-1 .2-1 .6 0 1 0 2 1 2.9zm-4.8-69.3.4-.1-.5-1.8.1-2c-1 .2-1 1-1 1.7.1.9 0 1.8 1 2.2zm-18.6-2.9h-.4c-.4.7-.2 1.5-.2 2.2l.3 1.8.8.3-.5-4.3zm69.3 57.1c-.8 1.6-.6 3.5.5 4.2-.1-1.4 0-2.7-.5-4.2zm-74.1-50c-.6 1.2-.7 3.6-.2 4.4l.6.3c0-.3.3-.6.2-.8 0-1-.2-2-.4-3l-.2-.9zm38 101.2c-1.1-1.6-1-3.2-.4-5.2-1.2.7-1.1 1.6-1 2.3.1 1 0 2.3 1.4 3zM181.6 97.6l-.5.6v3l.4.7h.4c0-1.4 0-2.8-.3-4.3zM211.4 213l.1-.1-.5-1.3v-3.3l-.2-.6c-1 1.7-.5 3.3 0 4.9 0 .2.4.3.6.4zm-14.5-105.4c.3-1 .3-2.7 0-3.8-1 .5-1 2.3 0 3.8zm-16.2-3.1h-.3s-.3.2-.3.4c0 1.2.2 2.4.4 3.6l.5.3c.3-1.6-.1-3-.3-4.3zm32 11.8c-1.3 1-1.3 2.7-.2 4l.3-.2v-3.8zm52.3 55c.5-1.6.4-3 0-3.6-1 1.3-.9 3 0 3.6zm-2-9c0 .9 0 1.6.2 2.2.1.6-.2 1.4.6 1.8.6-2 .4-3.2-.9-4zm-22.6-66.4c-.6 0-.8.4-.7.7.2 1 .1 2.3 1 3.2l.4-.5-.7-3.4zm-35.2 83c-.7 1.1-.6 3 .3 3.9.4-.8.3-2.7-.3-3.9zm7 0h-.5c-.6 1 0 2 .2 3 0 .4.3.8 1 .5l-.8-3.5zm29.7 24.6.3-.2c-1-1.6 0-3.5-.7-5.1a13 13 0 0 0-.2 4.6c0 .2.4.5.6.7zm-54.3-99.6-.6.4v3.2l.4.3c.2 0 .4-.3.4-.5l-.2-3.4zm22.6 118.9c-1-1.8-.4-3.8-1.2-5.6-.3 1 .2 4.7.6 5.4l.6.2zM168.7 98a6.8 6.8 0 0 0-.2 4l.5.3c.3-1.3.2-3.8-.3-4.4zm84.3 99.3c-.9 1.4-.7 3-.2 4.4 0 .2.3.2.5.3-.7-1.6 0-3.2-.3-4.7zM250.1 96h-.4c-.7.7-.3 1.7-.3 2.6 0 .4.2.8 1 .7-.2-1-.2-2.2-.3-3.3zm-72.4 1.6c-.6 1.6-.4 3.3.3 4 .5-1 .3-3.1-.3-4zm54.2 100.4c-.9.6-.7 1.2-.7 1.8 0 2.8.1 3.2.9 4l-.4-2.8.2-3zm5.2-101.8a7.2 7.2 0 0 0-.2 3.9l.5.4h.3c-.1-1.5 0-2.9-.6-4.3zm-46.5 7.2c-.6 0-.9.6-.9 1 0 1-.2 2 1 3v-4zM222.5 215l-.4.2a8 8 0 0 0 .4 4.8l.7.2c-1-1.7-.6-3.4-.7-5.2zm-8-7.7h-.3c-.5 1.3-.2 2.7 0 4 .2.4.2 1 .9 1l-.5-2.4v-2.6zm45.3-75.2c.7-1.4.6-2.7-.3-3.8-.1.2-.4.4-.3.5.4 1 0 2.3.6 3.3zM205 116.2c-.6.6-.7.8-.7 1.5.1.9.4 1.7 1.2 2.1.6-.6.1-1.1 0-1.6-.3-.6-.3-1.2-.5-2zm33 3.4.3-.1c0-1.4-.7-2.6-.7-4.1l-.6.4.5 3.2c0 .2.3.4.5.6zm-40.8 94.2-.5-2.7c0-.7.4-1.5 0-2.6a8.4 8.4 0 0 0-.4 4.7c.2.4.4.8.9.6zm19-97.5c-.9.6-1 1.7-.7 3.2.2.5.4.7.8.5 0-1.2 0-2.4-.2-3.7zm33 32.6c-1 1.3-1 2.7-.2 3.8l.4-.3c-.2-1 .3-2.2-.2-3.5zm-60.9-38.4c-1 .7-1.2 1.7-.6 3 .4.6.6.7 1.3.4-.2-.6-.6-1-.7-1.6-.2-.5 0-1.1 0-1.8zm55.5 85c-1-1.7-.4-3.6-.7-5.6-.9 1.8-.5 5 .8 5.7zM178.4 118c-.3.5-.6.7-.6 1 .2 1 0 2.1.7 3 .2-1.2.5-2.5 0-4zm68.3 76.8v-5.2h-.4l-.2.6c.2 1.6 0 3.2.6 4.6zM219.6 117c-.5 0-.6.4-.6.8.1 1 .2 2.2 1.2 3.1.1-.5.3-.8.2-1l-.8-2.9zm-16-8.7c.5-.8.2-1.6.1-2.4 0-.7.2-1.5-.3-2.2-.6 1.6-.5 3 .2 4.6zm-5.1 60.5.2-.6c-.4-1.6-.3-3-.2-4.6l-.2-.6-.3.1c-.2 1.8-.3 3.6.5 5.7zm25 43.7-.5-2.4c-.2-.8.4-1.7-.1-2.5-.9 1.6-.6 3.8.6 5zm-48.4-111c.5-1 .2-2 .1-3 0-.3-.3-.5-.7-1 0 1.6-.3 2.9.6 4zm52.3 111-.2-2.3v-2.4c0-.4.1-.8-.5-.9 0 2-.4 3.9.8 5.6zm-17.7-96.2c-.6 0-.8.2-.8.4.1 1.1 0 2.3.8 3.2.1 0 .3-.1.2-.2 0-1.1 0-2.3-.2-3.4zm21 80.6.3-6c-.9 1-1 3.8-.3 6zm-2 2.2c-.8.6-1 2.1-.6 4 .1.5.2.6.6.9v-5zm11.2-4h.3v-5a6.5 6.5 0 0 0-.3 5zm-43.6 27.2h.3v-3c0-1 .3-2-.4-2.8-.1 1-.2 2.1-.1 3.2l.2 2.6zm7.2-13.9c-.6.2-.7.6-.7 1.1l.3 2.5c0 .4.3.7.5 1 0 .2.4.2.8.3-.8-1.2-.8-1.2-.9-2.4v-2.5zm46.3-88.8c.3-.5.7-2.7.6-3.6-1.2.8-1.4 2.1-.6 3.6zm-2.2 77.8-.5.2.3 5.1.8.3c-1-1.9-.5-3.7-.6-5.7zm-24.4 7-.4-2v-2.7c0-.2-.2-.4-.3-.5h-.3l.4 4.7c0 .2 0 .3.2.4.1.1.3 0 .4 0zm-3.6 0-.3-4.7c-.9 1.3-.3 2.5-.3 3.8 0 .4 0 .9.6 1zm-45.5-65.5c-1 1.5-1 2.8.3 3.6 0-1.3-.2-2.4-.3-3.6zm-3.8 3.7c.4-.9.4-2.9.1-3.9-.8.6-.9 2.5 0 3.9zm65.4-10c.8-1.3.6-2.7-.3-3.5-.4 1.2-.2 2.3.3 3.6zM225.1 107c0-1.3-.2-2.5-.6-3.8-.8 1-.5 2.9.6 3.8zm-37.4 107.8-.4-2.6c-.2-.8.3-1.7-.3-2.8l-.3 1 .2 3.2c0 .4.2.7.3 1l.5.2zm55.4-9-.3.1c-.5 1.1-.2 3.5.7 4.5l.2-.8c-.7-.7-.4-1.6-.4-2.3l-.2-1.4zM200.6 173c-.5.7-.7 2.5-.5 3.2 0 .2.3.3.5.5l.3-.1c0-1.2 0-2.4-.3-3.6zm-23.1-68c-.5.8-.5 2.3-.2 3.3 0 .3.3.5.7.9.2-1.6 0-2.8-.5-4.2zm80.7 41.1v-5c-.7 1-.6 3.8 0 5zm-13.5 51.4c-.6 1.3-.6 4-.1 5h.2l.2-4.3-.3-.7zm-.8-81.4c-.5.7-.2 2.2.6 3.2.6-1.2.4-2.2-.6-3.2zm3.2 94c-1-1.2-.2-2.9-1-4.2-.6 1-.1 2.2 0 3.2 0 .5 0 1.1 1 1zm-18 4.3c-.7 1.4-.4 2.8-.1 4.2 0 .4.2.7.8.7-.8-1.6-.5-3.3-.7-4.9zm4.8-18v-2.8l.3-2.7h-.4c-.6 1.8-.4 3.7.1 5.5zm-6-100.1h-.4c0 1.4-.5 2.8.5 4 .2-1.2.2-2.5.2-3.7l-.4-.3zm-14.9 1c-.6 1.1-.5 2.4.3 3.2.5-1 .4-2.2-.3-3.1zM179.6 215h.3c0-.8 0-1.7-.3-2.5-.1-.8.2-1.8-.7-2.4 0 1.7.3 3.3.7 5zm-5.6-51-.5.3.5 3.9h.7c-1.1-1.2-.3-2.7-.7-4.1zm45.5 48.1-.3-4.8c-1 1.2-.8 3.1.3 4.8zm-31.2 9.2c-1.3-1.4-.4-3.1-1-4.6l-.4.2.3 3.8c0 .4.3.8 1.1.6zm-18-58.5.4-.1-.4-5.2-.6.6.6 4.7zm23.3 53.5h-.3c-.3.8-.1 1.7-.1 2.5s-.4 1.7.4 2.5v-5zM211.2 114l-.5-2V110c-.7.2-.8.6-.8 1 0 1 0 2 1.3 2.9zm41-14.3c.6-1.5.4-3.3-.3-4-.4 1-.2 2.5.3 4zm-48.4 99.8c-.2.8.2 1.5.2 2.2l.2 2.3c0 1.4 0 1.4.4 2.1l-.3-6.2-.5-.4zm17.2-86.2c.7-.6 0-1 0-1.6l-.3-1.9c-1 1-.8 2.2.3 3.5zm-20.5 100c-.7-1.6 0-3.3-.4-4.8-.5 1.4-.5 3.6-.1 4.4 0 .2.3.3.5.4zm46.8-30.3c-1 1-1 4-.3 5v-2.6l.3-2.4zm-57 26.2c-.8.4-.6 1-.6 1.6v2c.1.8.2 1 .7 1.1v-4.7zm35.2-5.2V200.6c0-.5.4-1.1-.1-1.7-.6 1.3-.5 4.2 0 5.1zm28-16.7c.3-1.4.2-4.4-.2-5.2-.4 2 0 3.6.2 5.2zm-9.5.5v-3.4c0-.5.3-1-.3-1.5-.3 1.7-.5 3.3.3 4.9zm-37.7-84c-.6.7-.6.7-.5 1.3 0 1 0 2 1 2.8l-.5-4zm41.2 28.7c.2-1.1 0-2.2-.1-3.5-1 1-1 2 0 3.5zm-17 0c.5-.8.4-2.4-.3-3.6-.7.8 0 1.6-.2 2.3 0 .5 0 1 .6 1.4zm-6.8-18.8-.2-1.7.1-1.9c-1.3 1.2-1.3 2.7 0 3.6zm2.4 101.1c-.7 1.1-.7 3.6-.2 4.4.2.4.5.3.8-.1-1-1.2-.3-2.7-.6-4.3zm9.1-16.2h-.3c-.6 1.5-.4 3.9.3 4.6v-4.6zm-45 18.4c0 1.4.2 2.7.7 4l.4.2c-.8-1.3 0-3-1-4.2zm65.4-118.4c.2-1.2.3-2.4-.2-3.8-.7 1.4-.7 2.6.2 3.8zM176 214.9h.3v-2.5c0-.8.2-1.6-.4-2.4l-.3.4.4 4.5zm23.6 1.7c-1 1.3-.8 4.5.4 5.4-.2-.9-.5-1.7-.5-2.6l.1-2.8zm-12.7-53c-.7 1.5 0 4.2 1.1 4.5-1.4-1.2-.4-3-1-4.4zm41.1-56.3c.6-1.4.3-3.2-.4-3.6-.4 1.2-.1 2.3.4 3.6zm-4.5 59.4c-.7-.9-.5-1.8-.4-2.7v-1c0-.2-.2-.4-.4-.6-.4 2.8-.3 4 .8 4.3zm-46.3-2.8h-.5l.3 4.2c0 .2.4.3.5.4-.5-1.5.2-3.1-.3-4.6zm11.2-65.8-.4.8c0 .9.2 1.7.3 2.5 0 .2.3.3.4.5.1-1.2.4-2.4-.3-3.8zm-4.7 117.2.3-.3-.2-2.6c-.2-2-.2-2-.9-2.6l.7 5 .2.4zm10.1-53.4h.3l-.3-2.8c0-.8.4-1.8-.3-2.6-.2 1.9 0 3.7.3 5.4zm-8.8-60.4c.3-1.5.3-2.7-.1-4-.8 1-.8 2.5.1 4zM173.4 162c0-2.4-.3-4.3-.9-5-.1 1.9.5 3.4 1 5zm80 27.8c-1 1.2-.8 4 0 4.4v-4.4zm-9-57.3h.3l-.1-1.5-.1-1.8c-1 1-1 2.1-.1 3.3zm6.1 50.6c-.7.4-.6 1-.6 1.5 0 .6 0 1.1.2 1.7 0 .5-.3 1 .4 1.4v-4.6zm10.6-36.3h.3l-.3-2.2v-2.1c-.8 1-.6 3.2 0 4.3zm-67.8 62c-1 1.3-.4 2.8-.1 4.2 0 .3.2.7.8.4-1-1.5-.8-3-.7-4.6zm64.5-73.7c-.1.3-.3.6-.2.8.3 1.2.1 2.6.7 3.7 0-1.5.2-3-.5-4.5zm-1.4 54.9h-.3c-.6 1.5-.3 3 .3 4.5V190zM193 149h-.3c-.1 1.8 0 3.5.7 5.2l-.4-5.2zm25-35.1.4-.1-.4-3.1c-.5-.2-.7 0-.7.5-.1 1 .1 1.9.7 2.7zm28.9-15-.5-3c-.4.5-.7.8-.7 1 0 .7.1 1.3.3 2 .2.4.5.4.9 0zM192 110.3c-1 .2-1.2.3-1.1.8.2.7.4 1.5 1.1 2.4v-3.2zm45.3 80.3c-1 1.4-1.2 3.5-.4 4.6 0-1.4.2-2.9.4-4.6zM222 153c.4-2.4.4-3.7-.2-4.5-.2 1.6 0 3 .2 4.5zm-18.3 8.8-.4-2.8c-.2-.8.3-1.7-.4-2.6-.3 1.7.2 3.2.2 4.6 0 .3.3.4.7.8zm-3 0c-1.2-1.7-.7-3.6-.8-5.4-.7 1.5-.3 4.8.7 5.4zm54.2-15.6-.6-5c-.6 1.4-.2 4.1.6 5zm-60.2-36.3c-.8 1.3-.4 2.8 1 3.7l-1-3.7zM232 214.7c-.6 1-.6 2.9 0 3.6l.6.1c-.9-1.2-.1-2.4-.6-3.7zm2.2-113.7c.5-1.5.2-2.7.2-4l-.4-.3c-.4 1.6-.3 3 .2 4.3zm26.5 33.9h-.4l.4 2.4c.2.7-.2 1.6.5 2.2 0-1.6 0-3.1-.5-4.6zm-20.9 75.9c-1-1 0-2.5-.5-4-.6 1.2-.7 3.1-.4 3.9.2.3.5.5 1 .1zm-34.4-42.6-.4-2.2c-.2-.7.4-1.4 0-2.1-.9 1.8-.7 3.7.4 4.3zm44 22-.4.1c-.2.8 0 1.5.2 2.2.2 1.6.2 1.6.8 2l-.5-4.2zm-47.6-41.8-.3-2.4v-2.7a7 7 0 0 0 .3 5zm17 14.9c.1 1.4 0 2.8.7 4 0 .2.3.1.5.1l-.6-2.2c-.3-.6.2-1.4-.6-2zm-3.6.4c-.4.8-.5 1.7-.5 2.5 0 .6.2 1.2.4 1.7s.6.7 1 .2c-1.8-1.2-.4-3-.9-4.4zm15.5 2.8c.3-3.1.3-3.8-.4-4.7.1 1.7-.3 3.2.4 4.7zm19.4-38.1c-.9 1.3-.8 2.4.1 3.4 0-1 .4-2.1-.1-3.4zm-53.1 21c-1 .4-.7 1-.7 1.6-.1 1 0 2.1.7 3-.6-1.4-.3-3 0-4.5zM176 162.2v-4.7c-.7.3-.7.9-.7 1.4 0 1.2 0 2.4.7 3.3zm71.5-46.6c-1 1.4-.8 2.4.5 3.3l-.5-3.3zM207.3 161c-1.4-1.4-.6-3.1-1.2-4.6-.3 1.4-.1 2.8.2 4.2 0 .3.3.6 1 .4zm9-60.8c.3-1 .3-2.3 0-3-.8 1-.8 2 0 3zm17.2 32.3c.3-1.6.2-2.5-.4-3.1-.6 1.1-.5 2.1.4 3zM179 162.8l-.5-5c-.7.9-.3 3.8.5 5zm48 4.5c.1-1.2-.3-3.7-.8-4.5 0 1.8.2 3.2.8 4.5zM211 148l.4-.3v-4.3l-.2-.3a9 9 0 0 0-.2 4.9zm-3.3 15.9a5.5 5.5 0 0 0 0 3.6c0 .4.3.5.7.2-1-1.1-.3-2.6-.8-3.8zm22.7 42.9c-.8 1-.5 1.7-.4 2.5 0 1.6 0 1.6.6 2l-.2-4.5zM189 143.5c-.7 1.3-.5 3.4.2 4.3l-.2-4.3zm6.2 19.7c-.8 1.6-.3 4.1.6 4.3l-.6-4.3zm-12.2 1.5c-.7 1-.3 3 .6 3.9l-.6-4zm8.2-21.1c-.6 1.4-.2 4 .4 4.6l-.4-4.6zm36.6 47.6h-.5v1.8l.2 2c0 1.3 0 1.3.3 1.7v-5.5zm-45.6-29.6v-2.3c0-.7.4-1.4-.2-2.3-.5 1.7-.2 3.2.2 4.6zm5.3.8h.1l-.2-2.7c-.1-.9.3-1.8 0-2.9-.6 1.1-.6 1.8-.3 4.7l.3 1zm22.8-1.1-.5-2.3c-.2-.8.5-1.5 0-2.4-.8 1.7-.5 4.2.5 4.7zm24.7 53.1c-.7 1-.8 2.2-.3 2.9l.5.2.3-.3-.5-2.8zM226.6 110c-1.1.6-.4 1.4-.5 2 0 .5 0 1.2.9 1.3l-.4-3.3zm-16 89c-.8.7-.8 2 0 5v-5zm-19.4-35.2c-.3 1.4 0 2.8.5 4.1h.8c-1.3-1.2-.6-2.9-1.3-4.1zm7.6-66.5c-.9.5-.7 1.1-.7 1.7 0 .7 0 .7.7 1.4v-3zM177.6 144c-1 1.3-.8 3.5 0 4v-4zm17-45.7c-.5.8-.4 1.8 0 2.8.5-.8.6-1.6 0-2.8zm65.3 83.9c-.7.3-.7.8-.7 1.4 0 .5 0 1 .2 1.6 0 .4-.2 1 .6 1.4l-.3-2.2.2-2.2zm2.7.4h-.5c-.2 1.2-.4 2.5 0 3.8h.2l.3-3.8zM237.3 214h-.3c-.5.6-.7 1.3-.5 2.1 0 .2.4.4.6.4l.3-.3V214zm-21-10v-4.5c-.8 1-.8 2.4 0 4.5zM183.8 154l-.4-4.2c-.6 1.2-.4 3.2.4 4.2zm32.1-4.3c-.7 1.1-.6 3.2 0 4v-4zm8.9-.7c-.8 1-1 2.2-.8 3.5 0 .3.1.7.6.7l-.1-2.1c0-.7.2-1.4.3-2zm33-23.8c0-1.3 0-2.7-.2-4.1h-.3c-.3 1.4 0 2.8.6 4.2zm-27.4 23.7h-.3c-.2 1.3.1 3.4.9 4.1l-.6-4.1zm-8.3-51.9c-.4 1.3-.3 2.2.2 3.3.6-1.4.6-1.9-.2-3.3zm-37.3 122.8-.1-2.8c0-.4 0-.8-.6-.7 0 2.5 0 3.2.7 3.6zm39.7-27.8c-.7.8-.5 3 .2 4.4l-.2-4.4zm-14-91.5c.5-2 .4-2.6-.5-3-.1 1-.2 2 .5 3zm53 34.8c-.3 1.2 0 3.2.5 3.9 0-1.3.2-2.5-.4-4zm-52 28.5c-.3 1.5-.2 2.7.2 3.8 0 .2.4.2.6.3-.2-.7-.4-1.3-.4-2-.1-.6.1-1.3-.5-2zm-25.7-16h.3l-.3-4.1h-.4c-.3 1.4.2 2.8.4 4.2zm78.8-6.5c-.4 1.6-.2 3.9.3 4.5.2-1 0-3.5-.3-4.5zm-108.4 7.4c0-1.8-.2-3-1-3.7.2 1.3 0 2.5 1 3.7zm45-50.7c-.3 1.4 0 2.3.6 2.9.3-1.7.2-2.3-.5-3zm26.6 54.7v-1.9c0-.6.6-1.2 0-1.9-.6 1.3-.6 2.8 0 3.8zm-58.7 46.1c-1 1.2-1.1 2-.4 2.8.5-.9.7-1.7.4-2.8zm38.7 5.7-.6-4c-.2.3-.5.5-.4.6.2 1.2.2 2.4 1 3.4zm-24.6-60c-.7 1.2-.5 3.5 0 4.3v-4.3zm24.3-46.9h-.3l-.1 1v1c0 .4.2.7.5 1.2.4-1.3.5-2.3 0-3.2zm49.1 89.8h.3l-.2-2.2v-2.2h-.2c-.8 1.5 0 3 .1 4.4zm-83.9-43c-.9 1.1-.8 3 0 4l-.2-2.1.2-2zm-3.3 4.5h.2v-4.2h-.3c0 .2-.3.4-.2.7l.3 3.5zm21.4 12.9.2-.1-.6-2.3c-.1-.8.4-1.6-.3-2.3l.1 3.7c0 .4.4.7.6 1zm46.4 22.3c-.4 1-.2 2.8.4 3.5-.4-1.1.3-2.4-.4-3.5zM172 151h-.3c0 .4-.3.8-.2 1 .2 1 0 2 .9 2.8l-.4-3.8zm40.3-2c-.6 1-.4 3.3.3 4 0-1.4-.2-2.7-.3-4zm-34.3 1.5h-.4a6 6 0 0 0 .6 3.9l-.1-1.2-.1-1.4v-1.3zm19.4 5.5c-.9 1.3-.8 3.4 0 4.5 0-.8-.2-1.5-.1-2.3l.1-2.2zm55.5-17.7c.8-.7 0-1.3 0-2 .1-.5.2-1.2-.2-1.8-.3 1.3-.3 2.5.2 3.8zm-8.2 7.3c0-1.4-.2-2.8-.3-4.1-.7 1.4-.2 2.8.3 4.1zm6.6-4.3c-.7.3-.7.8-.7 1.3 0 1 .3 2.6.7 3l-.2-2.1.2-2.2zM243 96c-.4 1.1 0 2 .2 3 .7-1 .6-1.9-.2-3zm-24 53.4c-.9 1.3-.8 2.6 0 3.2v-3.2zm-54.5-.6-.3-4c-.5 1-.4 3 .3 4zm10.5 6.4-.5-4.4h-.3c-.3 1.2.2 2.3.2 3.5 0 .2.3.5.6 1zm9.4 2.1a4.8 4.8 0 0 0 0 4.4v-4.4zm19.2-7.5h-.3c-.2 1.4-.3 2.7.5 4l-.2-4zm9.8 49.7h-.4c-.1 1.5-.5 3.1.1 4.8l.3-4.8zM175.1 144c-.7 1.2-.6 3.5 0 4.2V144zm16.2-43.6c.5-.9.5-1.3-.2-2.2-.7.9-.6 1.4.2 2.2zM169.7 154l-.2-1.9v-1.7h-.4c-.2 1.3-.2 2.5.6 3.6zm47.4-11.2h-.5c0 1.4-.2 2.8 0 4.2h.2l.3-4.2zm-12.6 0c-.6 1.6-.3 3.2 0 4.8V143zm29.6-.7c-.6 1.3-.5 2.7.3 4.2 0-1.5-.2-2.7-.3-4.2zm3.3-.2c0 1.3 0 2.5.8 3.6-.5-1.2 0-2.5-.8-3.6zm10.6 3.7h.4l-.2-2 .2-2c-1 1.3-.6 2.7-.4 4zm-29.7 28h.3l-.7-3.3c-.2 1.2-.3 2.3.4 3.4zm-44.7-39h.2l.1-2.2.1-2h-.4v4.2zm30-5.5h-.2c-.4.9-.1 4 .3 4.7V129zm-45.3 20.3c-.6 1.1-.7 1.9-.3 2.4.1.2.4.3.7.4l-.4-2.8zm46.5-49.2c.3-.9.3-1.7 0-2.6l-.6-.2a4 4 0 0 0 .6 2.8zm18.6 22.1h-.4c-.1 1 .1 3.1.5 3.9.4-1-.1-2 0-2.8l-.1-1zm4.1 3c.3-2.7.2-3-.3-3.5-.3 1.1-.2 2.7.3 3.6zm-62-16.3c.4-.6.7-1 .8-1.4.1-.2 0-.5-.2-.7l-.6.1c-.6.5-.6.9 0 2zm29.1 34.8c-.7 1.8-.6 3.2.1 4l-.1-4zm-8.1 5.8c-.5 1.7-.2 3.3.8 4-.7-1.3-.3-2.6-.8-4zm-5.8-1-.2-4.3c-.8 1.4-.1 2.9.2 4.3zm50.5-3.3.2-3.4h-.4a5 5 0 0 0 .2 3.4zm-78.2-.1h-.3c-.6.9-.2 2-.4 3l.5.4.2-3.4zm60.6 15.2-.5-4c-.6 1-.4 2.6.5 4zm-33.1 4.1c-.8 1.2-.7 2.7 0 3.4v-3.4zm75.2-25.9v-2c0-.6.1-1.3-.4-2-.2 1.5-.2 2.8.4 4zm-36.5-41.5c-.2.9-.3 1.7.6 2.7 0-1.2.3-2-.6-2.8zm-42.8 34h-.5c0 1.1-.2 2.2.5 3.6v-3.6zm77.6-10c0 1.4 0 2.8.6 4.2 0-1.4 0-2.9-.6-4.2zM200 154l-.2-2.1V150c-.7 1.3-.6 2.5.2 3.9zm40.4 32.8c.2-1.7 0-3-.4-3.6-.3 1.3.1 2.4.4 3.6zm15.2-68c-.5-1.1-.2-2.4-.9-3.9-.2 1.2.3 3.1.9 4zm-48 24.5h-.3l.1 1.9c.1 1.4.1 1.4.7 1.7-.7-1.2.4-2.5-.4-3.6zm-9.6.5h-.3c-.2 1.3.1 3.2.7 3.7l-.4-3.7zm22.5-15c-.3.8 0 2.6.5 3.6-.2-1.2 0-2.4-.5-3.6zm-20 .5c-.6 1-.6 2.5 0 3.4v-3.4zm9.2.7h-.3c-.2 1.5.1 2.8.6 4.1l-.3-4zm-48 14.7h-.4v1.7c0 1.3 0 1.3.4 1.7v-3.4zm19.4 9-.2-2V150c-.7.9-.5 3 .2 3.8zm8.7-4.2c-.6 1.2-.3 3.1.3 3.8 0-1.3-.2-2.6-.3-3.8zm44-.7h-.5c.1 1.3.2 2.5 1 3.6l-.5-3.6zm-39.6-20.1c-.6 1-.7 2.2-.3 4.3l.3-4.3zm19.6.4h-.5a10 10 0 0 0 .4 4v-4zm-4.2 24.3h.4v-2c0-.5.4-1-.2-1.6-.2 1.2-.4 2.4-.2 3.6zm-3-3.7h-.4c-.2 1.2-.2 2.3.4 3.3v-3.3zm-47.6-1c.3-1.6.2-2.7-.5-3.6 0 1.3 0 2.4.5 3.6zm69.8-6.5c-1 .5-.4 1.3-.6 1.9-.2.6-.1 1.2.4 2l.2-4zm-9 4.1.2-1.7c0-.6.2-1.2 0-1.8-.6.9-.6.9-.3 3.5zm21.5-4.4c-.7 1.2-.7 2.2 0 4.2v-4.2zm-.9 74.4-.5-2.4c-.8 1.5-.7 2.2.5 2.4zm-78.8-63.5-.2-2.8c-.8 1.5-.8 1.7.2 2.8zm97.7 40.3c.2-2 .1-2.5-.4-3.1a4 4 0 0 0 .4 3zm-92.5-44.5h.3v-1.8c0-.6.2-1.3-.6-2l.3 3.8zm83 59.7c0-.8.3-1.7-.2-2.7-.6 1-.5 1.9.1 2.7zm-75.7 1.8c-.7 1.3-.5 2.2.3 3l-.3-3zm13.8-79.8c-.7.4-.4.9-.4 1.3l.2 1.3.3 1.3h.2l-.3-3.9zm-6.7 86.4h-.3c-.1 1 .3 2.2 1 3.2l-.7-3.2zm16.3-88.2a4.7 4.7 0 0 0-.3 3.6l.3-3.6zm-26.3 6h.3v-3.2c-.5 1-.2 2-.3 3.1zm14-.9v-3c-.9 1-.1 2 0 3zm55-8c0-1.3 0-2.2-.5-3.1-.1 1-.2 1.9.4 3zM213.3 143v3c.2-1 .8-2 0-3zm7.9 31.2h.4c0-.8 0-1.6-.4-2.3h-.3c0 .8.2 1.6.3 2.3zM225 99c.3-.7.2-1.2-.3-1.6-.1 0-.4 0-.5.2-.3.6 0 1 .5 1.3h.3zm-1.3 30.1h-.4c0 1 0 1.9.7 2.6 0-.9-.2-1.7-.3-2.6zm-4.1-6.3h-.4c0 1-.2 2 .2 3h.4l-.2-3zm36.2 75c-1 1-1 1.4-.3 2.2l.3-2.3zm1.7-80.4h.2l-.5-2.6c-.5 1 0 1.8.3 2.6zm-66.3 12c-.6.9-.6 1.2-.1 2.5l.1-2.5zm61.8-10.7-.2-2c0-.5.4-1.1-.4-1.5.3 1.1-.2 2.3.6 3.5zM207.2 129h-.3a9 9 0 0 0 .3 3.8V129zm20-.6c-.6 1-.2 2 0 2.8 0-.9.5-1.8 0-2.8zm6.9-2.2h.3c-.2-1 0-2-.4-2.8h-.3l.4 2.8zm-52 4.6c-.4 1-.4 1 0 3.5v-3.5zm-3 2.9c0-.9.2-1.8-.2-2.6-.4.9 0 1.7.1 2.6zm-12.4 16.8c-.7 1.1-.7 1.6.2 2.2l-.2-2.2zm79.3-28.2h-.5c0 .9.3 1.6.7 2.4l-.2-2.4zm-8.9 3-.2-2.7h-.3c-.2 1 .1 1.8.5 2.7zm-11.2 18h-.3c-.6.8-.6 1.6-.1 2.7l.4-2.6zm23-19v-2.7c-.7 1.1-.2 2 0 2.8zm-85.4 10.6v-2.9h-.4c0 1 .2 2 .4 2.9zm.2 16c-.8 1.3-.7 1.7.3 2l-.3-2zm96.5-27.4c-.6 1-.6 1.4 0 2.4v-2.4zM222.3 146l.2-2.4c-.5.7-.7 1.5-.2 2.4zm-67.2 4h-.3c-.2.6-.3 1.2.6 2l-.3-2zm-2.6.1h-.4c-.3.6-.3 1.1.4 1.8V150zm16.2-16.8c.2-.7.6-1.5-.2-2.2l.2 2.2zM166 131c-.6.6-.1 1 .2 1.5l-.2-1.5zm85.6-9.7h-.4l.1 2.4h.3v-2.4zm-21-17.1h-.3c.2.6-.1 1.2.6 1.6l-.3-1.6zm-69.9 27-.5.1.2 2h.1l.2-2zm81.7 83.9v-1.3c-.8.7-.8.7 0 1.3zm-25-85.7c-.5.5-.4 1 0 1.7v-1.7zm18.3-16.5h-.3l.3 1.7v-1.7zm7.1 12.2h.1v-2.4h-.1v2.4zm16.7-7.4h.2v-2h-.2v2zm-42.8 42c0 .4-.4.8.3 1 .2-.3.3-.6-.3-1zm14 10.1c-.5.3-.4.6.1 1v-1zM237 156h-.3v1.1h.2V156zm-3.7-52.7h.2l-.1-.5h-.2v.5zm5 66.2h-.3l.1.8h.1v-.8zm-83.5-26 .2.1.2-.8h-.2l-.2.7z"/>
			<path class="st1" d="M171.3 187.3c.8.2 1 .6 1 1.2l-.3 3.6.2 1.7c-.8 0-1-.5-1-1v-4.6c0-.3 0-.6.2-1zM212.3 191.8c.6.4.5.9.5 1.3v2.2c.1.6.1 1.1.7 1.6.3.2.3.6 0 .7-.3.1-.6 0-.9-.1a104.8 104.8 0 0 1-.7-5l.3-.7zM245.8 154.7c.7.1.7.5.6 1-.3 1.4-.2 2.8.4 4.2.1.4.2.7-.3.9-1.1-1.2-1.5-4.6-.7-6.1zM191.5 199.8c-.2 0-.5 0-.6-.2l-.6-1.2-.4-3c0-.6 0-1.3.9-1.7.2 2-.2 4 1 5.8l-.3.3zM205.7 197.6c-1.2-1.2-1.6-4.3-.9-5.6.6.1.6.6.6 1l.1 2c0 .6 0 1.1.5 1.6.4.3.1.7-.3 1zM263 180.3c-.4-1.8-1-3.5-.8-5.6l.8.5.7 4.7-.4.4h-.3zM225.3 141.3c-.9 0-.9-.5-1-.9l-1-4c0-.2-.2-.3-.1-.4 0-.2 0-.4.2-.5.2 0 .4 0 .5.2l.4.9 1 3.5v1.2zM209 192c.3.7.3 1.5.3 2.3 0 .9-.3 1.8.5 2.5.1.1-.1.5-.2.8-.3-.1-.7-.2-.7-.4-.3-.6-.4-1.4-.5-2v-2.3l.1-.9h.4zM201.6 185.4l.3.5.2 2c0 .6-.2 1.3.5 1.8 0 .1-.1.8-.3 1-.4.3-.8 0-.8-.4-.4-1.6-.3-3.2-.3-4.8h.4zM218.2 135.7l.3 1.2.2 3.2c0 .4.2.9-.4 1-.5 0-.6-.4-.6-.8l-.2-3.8c0-.3.2-.5.3-.7h.4zM191.3 201l.2 1.1.5 3.8-.3.8c-.8-.2-.8-.9-.9-1.4l-.3-3.5c0-.4 0-.8.8-.8zM195.6 200.6v2l.2 3-.3.6-.5-.3c-.1-1.7-.9-3.4 0-5.1 0-.2.2-.2.4-.3h.2zM216.4 192.2l.4 1.6c.1 1 0 2 .8 2.9l-.2.8c-.3 0-.6-.1-.8-.3a50.7 50.7 0 0 1-.9-4l.2-1h.5zM198.3 200.6c0 2 .2 3.8.3 5.6l-.2.2c-.8-.6-1-1.4-1-3.7 0-.7-.2-1.5.8-2zM185 193.9l.2 1.2v2.7c0 .6.2 1 .3 1.6 0 .2-.3.5-.4.6l-.6-.3-.1-.5v-4.5c0-.3.2-.5.3-.8h.3zM193.7 193.7c.7.1.8.6.8 1v1.6c0 .7 0 1.5.6 2.2l-.1.8c-.5.3-.7-.1-.9-.4v-.4l-.6-3.8c0-.3 0-.7.2-1zM245.2 173.7l-.5-1-.2-3.8c0-.2.2-.4.4-.6l.5.6v1.2l.4 2.6c.1.5 0 .8-.6 1zM201.8 191.9l.3 2.8c0 .8-.1 1.6.5 2.2.1.1 0 .7-.3 1-.3.2-.8 0-.8-.5l-.3-5 .6-.5zM187.3 193.9l.5.4.6 5.4-.3.3c-.6-.4-.7-1-.7-1.6 0-1.5-.8-2.9-.2-4.5zM192.2 178c.6 2 0 3.8.5 5.5-.7.2-1-.2-1-.6v-4.5c.1 0 .2 0 .5-.3zM176.6 187.6c.6.7.6 1.4.6 2v1.8l.6 1.8c-.8 0-1.1-.4-1.2-.9l-.4-4 .4-.7zM222.1 184.9c0 .5.2.9.1 1.2 0 1.3-.2 2.5.5 3.7v.6l-.7-.1a.8.8 0 0 1-.3-.4c-.3-1.5-.8-3-.1-4.6l.5-.4zM167.8 109.4c-.3-.4-.7-.6-.7-.8l-.4-3.6.4-.7c.3.2.7.4.7.6v4.5zM248.9 175.1l.4 1.2.2 3.7c0 .2-.3.4-.4.6l-.5-.4c-.2-.2-.2-.4-.2-.7v-3.4l.5-1zM185.7 186.8v2.2c0 .9-.2 1.8.5 2.6l-.2.7s-.5 0-.6-.2c-.2-.3-.4-.6-.4-1a43 43 0 0 1-.2-3.4c0-.3.3-.7.4-1h.5zM178.1 201.4l.3 1.7c0 1-.3 1.9.4 2.8.3.4-.2.9-.8 1.1-.4-.4-.5-1-.5-1.6 0-3 0-3 .6-4zM187.5 202.2c.7 1 1.1 4.6.6 5.5-.7-.3-.6-1-.7-1.5 0-1 .1-2.1-.4-3.1-.2-.5 0-.8.5-1zM186.3 137.3c1 .2 1 .8 1 1.4.1.9 0 1.9.4 2.8.2.3 0 .7-.5.8l-.5-.4c-.2-1.5-.4-3-.4-4.6zM261.4 167.4l.5.4.6 4.4c-.6.3-.9 0-1-.4l-.4-4 .3-.4zM195.2 178.3v1.2c0 1.1-.3 2.3.4 3.4 0 .1-.1.6-.3.6-.1.1-.6 0-.6-.2a8.4 8.4 0 0 1 0-5h.5zM188.5 178.8l.2 1.3c.1 1.3-.2 2.6.4 3.8l-.2.4-.6-.1a51.2 51.2 0 0 1-.5-4.6c0-.3.2-.5.3-.8h.4zM243.2 135v1.2c-.1 1-.3 2 .1 3l-.2.7c-.3 0-.5-.1-.7-.3l-.2-.5.1-3.7c0-.2.4-.3.5-.5l.4.2zM201.7 206.5c-1-.5-1-1.3-1-1.9 0-1.4-.5-2.8.2-4.3.6.8.5.8.5 3.1l.3 3.1zM181.3 195.3c.8.3.8.8.8 1.3 0 1.1-.3 2.3.5 3.3 0 .1-.1.6-.3.6-.1.1-.5 0-.6-.2a114 114 0 0 1-.6-4.3l.2-.7zM180.6 202.3c.4.3.7.4.7.6l.2 1.3.4 2.7c.1.4.1.8-.3.8-.2 0-.7-.2-.7-.4-.1-1.5-.5-3-.3-5zM198.2 192.5l.2 1 .2 5.2-.7-.6c-.2-.2-.2-.5-.2-.8l-.1-4.2.2-.6h.4zM185.3 208c-.4.3-.8.3-1-.3l-.2-1-.3-2.9.2-1.4c.3.5.6.7.6.9.2.5.2 1 .3 1.6l.4 3.1zM215.3 135.7l.2 1 .3 3.4-.3.6c-.2 0-.5-.1-.7-.3l-.2-.5v-3.8l.3-.4h.4zM205 190c-.3-.4-.7-.7-.7-1-.2-1.5-.2-2.9.2-4.5.3.4.6.6.6.8v1.6c0 .7-.2 1.4.3 2 .4.3.2.8-.4 1zM211.2 185.1c.1.3.3.5.3.8v1.5c0 .8.2 1.6 1 2.1-.2.6-.5.8-1 .4l-.4-.6a6.5 6.5 0 0 1-.3-4l.4-.2zM258.9 174.7c1 .4 1 1 1 1.5l.4 2.5c0 .2 0 .6-.3.7-.1 0-.6-.1-.6-.3-.3-1.3-.6-2.7-.5-4.4zM206.3 141.3c-.4.3-.9.2-1-.4l-.5-3.3c0-.4 0-.9.9-1l.6 4.7zM196.4 137.1l.3.1.2.4.1.5.2 3.9c-.4-.3-.8-.4-.9-.6a7.8 7.8 0 0 1-.1-4c0-.2.2-.2.3-.3zM211.8 136.7l.2 1.1.4 2.7c0 .4 0 .8-.5.8-.2 0-.6-.4-.6-.6l-.3-3.1.3-1 .5.1zM253.1 159.8c-.7.2-1-.2-1-.6l-.2-3.5c0-.3.3-.6.6-1 .7 1 0 1.9.3 2.7l.3 2.4zM245.7 180c-.8-.6-.8-1.4-.8-2.2 0-.9 0-2 .9-2.6.6.5.2 1 .2 1.6v1.6c0 .6.5 1.2-.3 1.6zM256.2 175.3l.7 4.7c-.8.1-1-.3-1.1-.7a7 7 0 0 1 0-4h.4zM185.3 184.7c-1.2-1.2-1.3-4.2-.2-5.4.6.6.2 1.2.2 1.8v1.8c-.1.6.7 1 0 1.8zM195 185.5l.4 1c0 .8-.2 1.5-.1 2.2 0 .6.2 1.2.4 1.8.1.4.1.7-.3.7l-.6-.3a147 147 0 0 1-.2-4.8l.5-.6zM182.6 187v1.4c0 1 0 2 .5 3v.6l-.7-.1c-.7-.8-.8-3.8.2-4.9zM184.1 142.2c-.2-.4-.5-.6-.5-.8V138c0-.2.3-.4.5-.5l.5.4v3.4c0 .3-.2.5-.5 1zM181 137.9l.3 1a38.9 38.9 0 0 1 0 3l-.4.5c-.2-.2-.6-.4-.6-.7V138.6l.6-.7zM184.5 117.1l-.5 2.7c-.1.8.6 1.7-.3 2.7l-.4-1v-3.2c0-1 .4-1.1 1.2-1.2zM170.4 201.3l-.3-1.4-.2-3c-.2-1 0-1.2.7-1.4.4 1.4.3 4.8-.2 5.8zM179.2 200.3c-.9-1.2-.5-2.5-.6-3.6 0-.7 0-1.4.8-1.8.5.2.4.7.3 1a8.6 8.6 0 0 0-.1 3.8l-.4.7zM220.4 192.6l.3 4.7c-.2 0-.5 0-.6-.2-.6-.8-.6-3.6.3-4.5zM192.6 139.3v-1.5c0-.2.3-.4.4-.6l.6.6v.7l.2 2.7c0 .2-.2.6-.4.7-.4.1-.7-.1-.8-.6v-2zM208.3 184.5l.2.6.5 4.5c-.7 0-1-.5-1-1-.3-1.4-.4-2.7-.1-4l.4-.1zM202.8 136.1c.5 1.5 0 3 .4 4.8l-.8-.4c-.7-1-.2-2.2-.3-3.4 0-.4 0-.8.7-1zM191.3 186c.8.8.6 1.6.7 2.4 0 .9 0 1.7.8 2.3-.8.8-1.1.8-1.3 0l-.3-2-.1-1.8.2-1zM234 167.2c-.5-1.8-.5-3.5-.6-5.1.7-.2 1 0 1 .5l.2 4-.5.6zM176.6 195.2c.7.2.6.7.6 1.1.1 1.2-.3 2.4.2 3.6 0 .2-.3.4-.4.6l-.6-.4v-4.2c0-.2 0-.5.2-.7zM167 110.8c.7 0 .6.6.6.9 0 1.3.6 2.6.2 4-1-.9-1.4-2.7-.9-5zM187.2 122.5c-.2-.4-.5-.7-.5-1l-.1-3.3c0-.2 0-.4.2-.6h.6l.2.3c-.7 1.4-.3 2.7.1 4l-.1.5h-.4zM241.5 176c.2 0 .4 0 .4.2.2 1.4.3 3 .3 4.4 0 .2-.2.3-.6.8l-.3-.7c-.2-.7 0-3.9.2-4.8zM255.6 155.2l.5.7v1.3l.3 2.5v.7c-.6.2-.8-.1-.9-.5-.3-1.5-.3-3-.3-4.5l.4-.2zM188.5 186.7v1.3c.1 1 0 2.2.6 3.2l-.2.7c-.2-.1-.5-.1-.6-.3l-.3-.9a90 90 0 0 1-.3-3.2c0-.4.1-.8.8-.8zM218.7 185.2l.2.6c0 1.2-.5 2.6.4 3.8 0 0 0 .5-.2.5h-.6l-.2-.3c-.6-.9-.5-3.6.1-4.5l.3-.1zM258.3 168.2l.2.7.3 3.1c0 .2 0 .5-.2.6l-.4-.1c-.7-.7-1-3.3-.4-4 0-.2.2-.2.5-.3zM257.5 148.3l.3 4.7c-.8 0-.9-.5-1-1 0-1.2-.6-2.6.4-3.7h.3zM209.8 183.3l-1-.1c-.5-1.4-.7-3-.6-4.4 0-.2.2-.3.5-.6.7 1.7.2 3.5 1.1 5.2zM165 111c.4 1.5.4 2.8.3 4.1 0 .5-.3.8-.7.6v-4.3l.5-.4zM252.1 175.7c.7 0 .7.3.7.7l.3 3.2c0 .2-.2.6-.4.6l-.6-.3c0-1.4-.6-2.8 0-4.2zM234.9 181.2c-1-.4-.8-1.3-.9-2-.2-.9-.2-2 .7-2.7.8.8.1 1.6.2 2.3v2.4zM250.1 134.7l.5 4.2-.4.7c-1-1.2-.8-2.4-.9-3.6 0-.6 0-.6.8-1.3zM227 135.5c.6 0 .7.5.8.9l.4 3-.3.6-.6-.3-.5-4 .2-.2zM248.7 173.3c-.2-.1-.5-.2-.6-.4-.2-1.5-.6-2.9-.4-4.6l.6.4.7 4.5-.3.2zM172.3 207.2c-1-1.3-.9-2.8-1.5-4.2l.1-.7c.8 0 .9.6 1 1 .3 1.3.6 2.5.4 3.9zM169.2 204.7l.5 1.6c0 .3 0 .8-.3 1-.4.1-.6-.3-.7-.7-.2-.9-.3-1.8-.3-2.8 0-.2.3-.8.5-.8.5 0 .5.5.5 1l-.2.7zM216.3 189c-.4.6-.7.8-1.2.3-.7-.9-.6-3.5.2-4.6.4.7.2 1.3.2 1.9-.1.9 0 1.7.8 2.3zM172.6 109.5c-.2-.9-.6-1.5-.5-2 .2-1-.9-2.1-.2-3.3.7.1.8.6.8 1 .2 1.1.2 2.3.3 3.4l-.4.9zM240.2 147.6l.4.7-.1 4h-.4c-.7-1-.3-2.4-.4-3.6 0-.3.3-.6.5-1zM180 192.5l-.4-.1-.4-.6-.5-3.8.2-.4c.6.1.7.5.8 1l.5 3.5c0 .1 0 .3-.2.4zM240.4 135.3v4.2l-.2.4c-1-1-1-3.3.2-4.6zM225.9 184.3l.2 1.2c.1 1.1-.3 2.3.5 3.3.1 0 0 .4-.2.5h-.5c-.2-.4-.5-.8-.5-1.1v-3.3l.5-.6zM249.1 154.5c.5.7.8 3.5.6 5.2-.7-.1-.7-.8-.8-1.2-.3-1.8-.3-3.4.2-4zM190.3 141.4c-.6.2-1 0-1-.4v-3.3l.6-.4.4.3v3.8zM238 181.5c-.7-1.6-.6-3-.5-4.2 0-.4.3-.7.5-1l.2.1.3 4.5-.5.6zM163.5 138.2l.5 3.5-.4.7c-.2-.2-.5-.3-.5-.5l-.4-3.2c0-.2.3-.4.4-.5h.4zM255.3 172.8c-1-1.6-1-3.5 0-4.7l.4 4.2c0 .2-.2.3-.3.5zM215.7 178.3l.5 2.3.4 1.7-.1.7-.7-.3c-.2-.3-.2-.7-.3-1l-.5-2.3c0-.4-.2-.8.7-1zM198.3 185.9c.6.6.6 1.3.6 2s0 1.6 1 2.2c-.4.3-.7.7-1 .7-.1 0-.5-.5-.5-.8l-.4-3.5.3-.6zM230.5 176.7l.2.6v4.5l-.6-.3c-.4-1.5-.3-3 0-4.5l.4-.3zM181.2 179.7c.7 1.7 0 3.4.9 4.8l-.5.2c-.2-.2-.5-.3-.5-.6-.4-1.3-.9-2.7 0-4.4zM181.7 122.3c-1-1.3-.9-2.8-1.2-4.1-.1-.3.1-.6.2-1 .7.8 1.3 4.1 1 5.1zM173 195.8c.5.1.7.7.6 1.1 0 1.2.6 2.4.3 3.8-1.1-.8-.8-1.9-1-2.7-.4-1.7-.3-1.7 0-2.3zM226.2 182a5.4 5.4 0 0 1 0-4.5c.7.2.3.8.4 1.3v1.6c0 .5.4 1.1-.4 1.6zM209.5 103.4l.5 5c-.5.1-.9-.2-1-.6v-4l.3-.5h.2zM246.4 135.3l.3.6.4 3.2c0 .2-.2.5-.4.6 0 0-.5-.1-.5-.3l-.3-3.7.2-.5s.2 0 .3.2zM199.8 108l-.2-4.2c0-.4.1-1 1-1-.6 1.5-.2 2.9 0 4.2 0 .4 0 .9-.8 1zM167 101.9l-.6-1.8v-2.5c0-.2.4-.6.7-.6.5 0 .8.6.6.8-.8 1-.3 2.1-.4 3.2l-.4.9zM241.5 133.6l-.4-.7c0-1.3-.4-2.6.2-3.8.7 1.4.8 2.9.2 4.5zM197.8 178.5c1 1.5.5 3.2 1.2 4.7l-.3.2-.5-.3c-.6-1.5-.6-3-.4-4.6zM251.8 168.3c.2.5.4.7.4 1l.5 2.8-.3.8c-.2-.2-.6-.3-.6-.5l-.5-3c0-.3.3-.6.5-1.1zM260.1 148.8l.3 1.1c.1.9-.1 1.8.4 2.6l-.3.6-.6-.3-.5-3.2c0-.2.4-.4.7-.8zM262.9 149c.3 0 .6.2.6.3.3 1.3.3 2.6.3 4.2-.4-.4-.7-.4-.7-.6a8 8 0 0 1-.2-4zM259.4 159.8c-.2-.1-.7-.3-.7-.5-.1-1.3-.5-2.7.2-4.3.3.4.6.6.6.8l.1 3.6-.2.4zM220.7 137.3c0-.5 0-1 .2-1.5l.3-.3c.2 0 .5.2.5.3v1.4l.2 1.6-.2.7c-.3-.1-.7-.2-.7-.4l-.3-1.8zM192 116.6c-.8 1.8-.1 3.1.3 4.5-.9.1-1.2 0-1.4-.8-.5-1.6-.2-3 1-3.7zM229.6 184c.7.7 0 1.6.2 2.3l.5 2.2c-.9.3-1-.4-1-.9-.6-1.5-.5-2.8.3-3.6zM177.3 142.1c0-.3-.4-.7-.3-1 .1-1-.7-2.1.2-3.4.3.5.6.8.5 1-.3 1.2 1 2.3 0 3.4h-.4zM174.2 187.9c.4.6.7.9.8 1.3l.5 2.2-.2.7c-.3 0-.6-.1-.7-.3l-.8-3.2.4-.7zM238.3 129c1 1.7.7 3.1.3 4.6-1-1.1-.4-2.5-.8-3.7 0-.2.2-.4.5-.8zM256.6 127.4l.5 4-.3.5c-1.2-1.1-1.3-2.6-.2-4.5zM206 216.7c.4 2-.2 4.1 1 6-.4.4-.7.4-1-.1l-.3-2-.2-3.2.2-.7h.3zM254.7 148c.5 1.6 0 3 .5 4.3l-.3.2c-.3-.1-.7-.2-.7-.4-.1-1.3-.7-2.6.5-4.1zM160 138.6c.6-.1.9 0 .8.5 0 1.1.5 2.4-.4 3.7-.8-1.5-.4-2.9-.5-4.2zM254.7 161.8l.2 3.6-.4.4c-.2 0-.5-.2-.5-.4-.1-.9-.2-1.8-.1-2.8 0-.3.2-.6.4-1l.4.2zM236.6 152.2l-.2-1.1-.3-2.4c0-.3.2-.5.3-.8.2.1.5.2.6.4.2.3.2.6.2.8l.1 2.2-.2 1-.5-.1zM201.4 121c-.7-1.4-.9-2.8-.8-4.3 0-.2.2-.4.3-.5.1-.1.4-.2.5-.1l.3.4c-.6 1.3 0 2.6 0 3.9v.3l-.3.3zM237 135.6l.4.6.2 2.9-.3.5-.5-.2c-.5-.6-.5-3 0-3.8h.3zM251.4 161.8l.3 1.4c0 .8.2 1.5.3 2.3 0 .2-.2.5-.3.5-.2 0-.6 0-.6-.2-.3-1.3-.6-2.6-.1-4h.4zM241 161.7l.4 4.1c-1.1-.4-1-1.3-1.1-2-.2-.7-.2-1.6.4-2.2l.4.1zM213.3 103.4l.1.9a6 6 0 0 0 .6 3.3l-.2.7c-.2-.1-.5-.1-.6-.3a7.6 7.6 0 0 1-.5-4.3l.6-.3zM200.3 136.2c0 1.7.2 3.2-.3 4.7-1-1.1-.4-2.5-.6-3.7 0-.4 0-.8.8-1zM217 221c-.5.3-.8.1-.9-.3l-.4-1.9v-3.1c0-.3.1-.6.5-.8l.1.6v3.7l.6 1.8zM158.3 143.5l-1.1-.6c0-1.2-.2-2.5.2-3.7 1 1.3.5 2.8 1 4.1 0 .1 0 .2-.2.2zM231.2 120.3c-.7-1.5-.8-2.8-.8-4 0-.2.2-.5.5-.7l.8 3.9-.5.8zM237.4 162c.8 1.1.6 2.4.8 3.6l-.4.4-.5-.2c0-1.3-.5-2.6 0-3.8zM172.8 111.8l.5.5.4 4c-1.1-.8-1.6-3-.9-4.5zM233.9 135.2l.2 4.3c-.4.1-.8 0-.8-.5-.2-1-.2-2-.2-3.1 0-.2.4-.3.8-.7zM182.4 110.7v4c-.6 0-1-.3-1-.9 0-1-.5-2.2 1-3zM197.5 116.5v2c.1.5.5 1 .6 1.6l-.3.7-.7-.4-.4-3.3c0-.4.3-.6.8-.6zM166.9 138.3c.5 1.5.7 2.7.7 4.2-.4-.2-.7-.2-.8-.4-.2-1-.7-2.2-.3-3.4l.4-.4zM220 183l-.6-.6c-.4-1.2-.5-2.4-.7-3.6l.3-.2.6.6.7 3.4-.2.3zM247.7 162.3l.4 3.9c-.5.1-.8 0-1-.5-.3-1.2-.6-2.3.3-3.4h.3zM220.2 221c-.4 0-.7.1-.8 0-.2-.2-.3-.6-.4-1l-.5-3.6c0-.3-.1-.7.6-.9.4 1.8-.1 3.8 1 5.6zM238.7 204c-.5 0-.6-.4-.7-.8-.3-1.8-.4-3.6 0-5.4.6 1 .1 2 .2 3l.5 3.2zM208.8 141.3c-1.1-.9-.8-2.1-.8-3.2 0-.5 0-1 .7-1.2l.5 4.1-.4.3zM220.8 107.2c-.6-1-.8-2.2-1-3.4 0-.2.1-.5.3-.7 0-.2.2-.2.5-.3 0 .6 0 1.2.2 1.7.1.6.4 1.1.6 1.7.1.5.2 1-.6 1zM258 161.5v1.3c0 .8-.2 1.6.3 2.4l-.3.5c-.1 0-.4 0-.6-.2l-.2-.4V162c0-.2.3-.4.4-.5h.4zM234.3 115v2.2c0 .7.7 1.4 0 2.2-1.1-1-.7-2.2-.9-3.3 0-.5.2-1 .9-1.1zM195 117.3c-1.2 1.3-.4 2.3.1 3.6l-.8-.1c-.7-.5-.8-1.3-.9-2-.1-1.1.2-1.5 1.5-1.5zM184.8 115.3c-.9-1.2-.7-2.5-.7-3.7 0-.3.3-.5.5-.8h.3v2.3c0 .7.8 1.4-.1 2.2zM246.5 152.7c-.7-1-.8-3.7-.2-4.5.5.6.6 3 .2 4.5zM217.9 108c-1.3-.1-1.2-1-1.4-1.6-.3-1.9-.2-2.3.7-3v2.3l.7 2.4zM173.3 185.4l-.2-.5-.8-3.4.3-.8c.8.7 1.2 2.4 1 4.5l-.3.2zM207 113.9c-1-1-1-2.4-.8-3.7 0-.4.4-.6 1-.3-.6 1-.2 1.8 0 2.7.2.6.2.6-.1 1.3zM199.3 113.8c-.7.2-1-.2-1-.7-.1-1.1-.9-2.3-.2-3.4h.4l.8 4zM175.5 207.1l-.8-.4-.2-.6-.6-3.4.4-.1c.2.2.5.5.5.7.2 1.2.8 2.3.7 3.8zM171.8 102.5l-.3-4.7.3-.2c.4.5.8 2.8.7 3.9 0 .3-.3.7-.4 1h-.3zM235.4 206.7c-.1 1.1-.4 2-.4 3 0 .8.4 1.7.7 2.5-1.5-.3-1.8-3.6-.3-5.5zM253.3 127.8c.4 1.5.4 2.7.6 4.1-1-.3-1-.9-1-1.4-.4-1.7-.3-1.7.4-2.7zM262.3 159.6c-1.2-1-1.4-3-.6-4.2.6.2.5.8.5 1.2l.2 1.7c0 .4.6.9 0 1.3zM177 180.6c.4.7.9 3.5.8 4.7l-.6-.3a77 77 0 0 1-.7-3.7l.4-.7zM213.2 215.8l.4 6.1-.5-.6c-.5-1.2-.4-4.5.1-5.5zM231 101c-.5-1.5-.6-3-.9-4.6l.4-.1c.1.2.4.4.4.6.2 1.3.7 2.7.2 4zM228.4 120c-.9.2-1.3-.1-1.5-.7a20 20 0 0 1-.5-2.7c0-.4.2-.7.8-.7 0 1.4 0 2.8 1.2 4.2zM250.6 202.3l-.5-.1c-.2-1.6-.5-3.2.2-4.8h.2l.1 4.9zM215.2 115c-1.2-.5-1-1.5-1-2.3-.1-.7-.4-1.6.6-2.3v2.4l.4 2.2zM222.3 177.7c1.2 1.5.6 3 1 4.4-.7.3-.9-.2-.9-.5 0-1.2-.6-2.4-.2-4zM202.1 110l.6 4.3c-.9-.3-1.3-1.3-1.3-3 0-.6 0-1.3.7-1.3zM169.2 105.7l.4-.5c.2.2.4.3.4.5.3 1 .4 2.2.6 3.3l-.3.4s-.4 0-.4-.2c-.2-.2-.3-.5-.3-.8l-.4-2.8zM233.7 188.7c-.8-1.4-1-3.6-.5-4.5 1 1.1.4 2.5.8 3.7l-.3.8zM184.4 104.3c0 1.3.5 2.5 0 3.8-1-1-.8-2.1-.8-3.3 0-.2.3-.4.4-.6h.4zM260.8 161.6l.2 1 .5 2c.1.4 0 .7-.5.9-1.1-1-1.3-2.5-.2-3.9zM241.6 120c-1.2-.5-1.2-1.6-1.4-2.6-.1-.7 0-.7.7-1.5l.3 2.1.4 2zM224.7 119.8c-1.2 0-1.1-.9-1.2-1.4 0-.9-.5-1.9.5-2.7l.7 4zM202.9 216.8c.5 2-.7 4.2.5 6.2-.3.4-.7.3-.8-.2l-.1-1.3-.1-3.4.1-1.4h.4zM230.7 139.5c-1.3-.6-.8-2-1.2-3-.1-.3 0-.7.8-.8.5 1.2.1 2.6.4 3.8zM176.2 111.4l.3 3.6c0 .4 0 .8-.8.9-.3-1.2 0-2.4 0-3.6l.5-.9zM179.5 114.8c-.6.6-1 .4-1.2-.1-.2-.6-.3-1.3-.1-1.9.1-.6.6-1 1.1-1.6v.7c-.5 1-.5 2 .2 3zM242.9 148.2c1 1.3.8 2.8.9 4.3l-.6-.1c-.3-1.4-.6-2.8-.3-4.2zM251.5 152.8c-.5-1.4-.4-3 0-4.6l.5.5v4l-.5.1zM198.4 176.7c-1-.9-1-2-1-2.9 0-.4.3-.8 1-.7v3.6zM193.6 107.4c-1-.4-.9-1.3-1-2.2 0-.7 0-1.5 1-1.7v2c0 .6.2 1.2.4 1.8l-.4.1zM175 104.5l.5 4.3-.8-.3-.3-1.8c0-.7-.3-1.5.2-2.2h.4zM244.3 161.6c.6 1.5.4 2.8.5 4.2-1.1-.7-1.3-2.7-.5-4.2zM170.2 111.6l.2 1 .4 2.9-.2.8-.6-.3c-.5-.8-.4-3.2.2-4.4zM208.2 212.8c-1.4-.6-1.3-1.8-1.4-3-.1-.6-.2-1.6 1-2.1-.7 1.9-.7 3.6.4 5.1zM181.6 97.6c.3 1.5.4 2.9.3 4.2h-.5l-.3-.6v-3c0-.2.3-.4.5-.6zM211.4 213c-.2-.2-.6-.3-.6-.5-.5-1.6-1-3.2 0-5l.1.7.1 3.3c0 .4.4.8.5 1.3l-.1.1zM197 107.5c-1-1.5-1-3.3-.2-3.8a8 8 0 0 1 .1 3.8zM180.7 104.4c.2 1.4.6 2.7.3 4.3l-.5-.3-.4-3.6.3-.5h.3zM212.8 116.2v3.8l-.3.1c-1-1.2-1.1-2.8.3-4zM265 171.2c-.9-.6-1-2.3 0-3.6.4.6.5 2 0 3.6zM263 162.2c1.2.8 1.4 2 .8 4-.8-.4-.5-1.2-.6-1.8l-.3-2.3zM240.4 95.8l.7 3.4-.3.5c-1-1-1-2.1-1.1-3.2 0-.3 0-.7.7-.7zM205.2 178.8c.6 1.2.7 3 .3 3.9-.9-.9-1-2.8-.3-3.9zM212.1 178.8l.9 3.5c-.8.3-1-.1-1.1-.5-.3-1-.8-2-.2-3h.4zM241.9 203.4l-.6-.7a13 13 0 0 1 .2-4.6c.6 1.6-.3 3.5.7 5 0 .2-.2.3-.3.3zM187.6 103.8l.2 3.4c0 .2-.2.5-.4.5-.1 0-.5-.2-.5-.4v-3c0-.2.4-.3.7-.5zM210.2 222.7l-.6-.2a12 12 0 0 1-.6-5.5c.8 1.9.2 3.9 1.2 5.7zM168.7 98c.4.6.6 3.1.3 4.4l-.5-.4c-.3-1.3-.4-2.6.2-4zM253 197.4c.2 1.5-.4 3.1.3 4.7-.2 0-.5-.1-.5-.3-.5-1.5-.7-3 .2-4.4zM250.1 96.1l.2 3.3c-.7 0-1-.3-1-.7 0-.9-.3-1.9.4-2.6h.4zM177.7 97.7c.6 1 .8 3 .3 4-.7-.7-.8-2.5-.3-4zM232 198.1c-.1 1.2-.3 2-.2 3l.3 2.7c-.8-.7-.8-1.1-1-4 0-.5 0-1.1.8-1.7zM237 96.3c.7 1.4.6 2.8.7 4.2l-.3.1-.5-.5c-.2-1.2-.3-2.5.2-3.8zM190.6 103.5v4c-1-1-.9-2-.9-3 0-.4.2-1 1-1zM222.5 214.9c0 1.8-.3 3.5.7 5.2l-.7-.2a8.1 8.1 0 0 1-.4-4.8l.4-.2zM214.6 207.2v2.6c0 .8.3 1.6.5 2.5-.7-.1-.7-.7-.8-1.1-.3-1.4-.6-2.7 0-4h.3zM259.8 132c-.6-1-.2-2.3-.6-3.3l.3-.5c1 1.1 1 2.4.3 3.8zM205 116.2l.4 2c.2.5.7 1 .1 1.6-.8-.4-1-1.2-1.2-2 0-.8 0-1 .7-1.6zM238 119.6c-.2-.2-.5-.4-.5-.6l-.5-3.2.6-.4c0 1.5.7 2.7.7 4l-.3.2zM197.2 213.8c-.5.2-.7-.2-.8-.6-.4-.9-.2-3.3.4-4.7.3 1-.2 1.9 0 2.6 0 .9.2 1.7.4 2.7zM216.2 116.3l.1 3.7c-.4.2-.7 0-.8-.5-.3-1.5-.2-2.6.7-3.2zM249.2 148.9c.5 1.3 0 2.4.2 3.5l-.4.3c-.8-1-.8-2.5.2-3.8zM188.3 110.5c0 .7-.2 1.3 0 1.8 0 .6.5 1 .7 1.6-.8.3-1 .2-1.3-.5-.6-1.2-.5-2.2.6-2.9zM243.8 195.6c-1.2-.7-1.6-3.9-.7-5.7.3 2-.3 4 .8 5.7zM178.4 118c.6 1.5.3 2.8.1 4-.7-.9-.5-2-.6-3 0-.3.2-.5.5-1zM246.7 194.8c-.7-1.4-.4-3-.6-4.6l.2-.6h.3l.1 2.5v2.7zM219.6 117l.8 2.7c0 .3 0 .6-.2 1.1-1-1-1-2-1.2-3 0-.5 0-.9.6-.9zM203.6 108.2c-.6-1.5-.8-3-.2-4.6.5.7.2 1.5.3 2.2.1.8.4 1.6 0 2.4zM198.5 168.7a13 13 0 0 1-.6-5.7h.4l.2.5c-.1 1.5-.2 3 .2 4.6l-.2.6zM223.5 212.4c-1.2-1-1.5-3.3-.6-4.9.5.8-.1 1.7.1 2.5l.5 2.4zM175 101.5c-.8-1.2-.6-2.5-.5-4 .4.4.7.7.7.9 0 1 .4 2-.1 3zM227.4 212.4c-1.2-1.7-.6-3.7-.7-5.6.7.1.6.5.6.9 0 .8-.2 1.6-.1 2.4 0 .8.2 1.5.3 2.3zM209.7 116.2l.3 3.4-.3.2c-.9-1-.7-2.1-.8-3.2 0-.2.2-.3.8-.4zM230.8 196.8c-.8-2.2-.7-5 .2-6l-.3 6zM228.7 199v4.9c-.4-.3-.5-.4-.6-.9-.3-1.8-.2-3.4.6-4zM240 195c-.6-1.7-.6-3.4.2-5v5h-.3zM196.3 222.2l-.3-2.6c0-1 0-2.2.2-3.3.7 1 .4 2 .4 2.9v3h-.3zM203.5 208.3v2.5c0 1.2.1 1.2.9 2.4-.4-.1-.7 0-.8-.2l-.5-1.1-.3-2.5c0-.5.2-.8.7-1zM249.8 119.5c-.8-1.4-.6-2.7.6-3.6.1.9-.3 3.1-.6 3.6zM247.6 197.3c.1 1.9-.4 3.7.6 5.6l-.8-.3-.3-5 .5-.3zM223.2 204.3h-.4a.7.7 0 0 1-.2-.5l-.4-4.7h.3c.1.1.3.3.3.5v2.7c0 .6.3 1.2.4 2zM219.6 204.4c-.5-.1-.5-.6-.6-1 0-1.3-.6-2.5.3-3.7l.3 4.7zM174.1 138.8l.3 3.6c-1.2-.8-1.3-2-.3-3.6zM170.3 142.5c-.8-1.4-.7-3.3.1-3.9.3 1 .3 3 0 3.9zM235.7 132.6c-.5-1.3-.7-2.4-.3-3.6 1 .8 1 2.2.3 3.6zM225 107c-1-1-1.3-3-.5-4 .4 1.4.5 2.7.6 4zM187.7 214.7s-.4 0-.4-.2c-.2-.3-.4-.6-.4-1l-.2-3.1.3-1c.6 1 .1 1.9.3 2.7 0 .8.3 1.7.4 2.6zM243.1 205.8l.2 1.4c0 .7-.3 1.6.4 2.3l-.2.8c-.9-1-1.2-3.4-.7-4.5h.3zM200.6 173c.4 1.2.3 2.4.3 3.6h-.3c-.2 0-.4-.2-.5-.4-.2-.7 0-2.5.5-3.2zM177.5 105c.4 1.4.7 2.6.5 4.2-.4-.4-.6-.6-.7-.9-.3-1-.3-2.5.2-3.3zM258.2 146.1c-.6-1.2-.7-4 0-5v5zM244.7 197.5l.3.7-.2 4.3h-.2c-.5-1-.5-3.7 0-5zM244 116c1 1 1.1 2 .5 3.2-.8-.9-1-2.4-.6-3.1zM247 210.2c-.8 0-1-.6-1-1 0-1.1-.5-2.2 0-3.3.9 1.3 0 3 1 4.3zM229.2 214.4c.1 1.6-.2 3.3.6 4.9-.6 0-.8-.3-.8-.7-.3-1.4-.6-2.8.2-4.2zM234 196.4a9.3 9.3 0 0 1-.2-5.5h.4l-.3 2.7v2.8zM227.8 96.3c.2 0 .4.2.4.3 0 1.2 0 2.5-.2 3.7-1-1.3-.5-2.6-.5-4h.3zM213 97.4c.7.9.8 2.1.3 3.1-.8-.8-.9-2-.3-3.1zM179.6 215c-.4-1.7-.6-3.3-.7-5 1 .6.5 1.6.7 2.4.2.8.2 1.7.3 2.5h-.3zM174 164c.4 1.4-.4 2.9.7 4.1h-.6l-.6-3.9.5-.2zM219.5 212c-1.2-1.7-1.2-3.6-.3-4.8l.3 4.8zM188.3 221.2c-.8.2-1-.2-1.1-.6l-.3-3.8.3-.2c.7 1.5-.1 3.2 1.1 4.6zM170.3 162.7l-.6-4.7.6-.6.4 5.2h-.4zM193.6 216.2v5c-.8-.8-.4-1.7-.4-2.5s-.2-1.7.1-2.5h.3zM211.2 114c-1.3-.9-1.3-1.9-1.3-2.8 0-.5 0-1 .8-1v1.8c0 .5.3 1.1.5 2zM252.2 99.7c-.5-1.5-.7-3-.3-4 .7.7.9 2.5.3 4zM203.8 199.5l.5.4.3 6.2c-.4-.7-.4-.7-.4-2.1l-.2-2.3c0-.7-.4-1.4-.2-2.2zM221 113.3c-1.1-1.4-1.2-2.5-.3-3.5l.3 2c0 .4.7 1 0 1.5zM200.5 213.3l-.5-.4c-.4-.8-.4-3 .1-4.4.4 1.5-.3 3.2.4 4.8zM247.3 183l-.3 2.4v2.6c-.7-1-.6-4 .3-5zM190.4 209.2v4.7c-.5-.2-.6-.3-.7-1.2v-1.9c0-.6-.2-1.2.7-1.6zM225.5 204c-.6-1-.7-3.8-.1-5 .5.5.1 1 .1 1.6V204zM253.5 187.3c-.2-1.6-.6-3.3-.2-5.2.4.8.5 3.8.2 5.2zM244 187.8a7.6 7.6 0 0 1-.3-4.9c.6.5.3 1 .3 1.5v3.4zM206.3 103.8l.6 4.2c-1-.8-1-1.9-1.1-3 0-.5 0-.5.5-1.2zM247.5 132.5c-1-1.4-1-2.5-.1-3.5 0 1.3.3 2.4 0 3.5zM230.6 132.6c-.6-.3-.7-.9-.6-1.4.2-.7-.5-1.5.2-2.3.7 1.2.8 2.8.4 3.7zM223.7 113.7c-1.4-.9-1.4-2.4 0-3.6l-.2 2 .2 1.6zM226 214.8c.4 1.6-.3 3 .7 4.3-.3.4-.6.5-.8 0-.5-.7-.5-3.2.2-4.3zM235.2 198.6v4.6c-.7-.7-1-3-.3-4.6h.3zM190.3 217c1 1.2.2 2.9 1 4.2-.1 0-.4 0-.4-.2a8.6 8.6 0 0 1-.6-4zM255.6 98.6c-.9-1.2-1-2.4-.2-3.8.5 1.4.4 2.6.2 3.8zM176.1 215l-.4-4.6.3-.4c.6.8.3 1.6.3 2.4v2.5h-.2zM199.7 216.6c0 1-.2 2-.1 2.8 0 .9.3 1.8.5 2.7-1.2-1-1.4-4.2-.4-5.5zM187 163.7c.7 1.4-.3 3.2 1.1 4.4-1.2-.3-1.8-3-1-4.4zM228.1 107.3c-.5-1.3-.8-2.4-.4-3.6.7.5 1 2.2.4 3.6zM223.6 166.7c-1-.4-1.2-1.5-.8-4.3.2.3.5.4.5.6l-.1 1c-.1 1-.3 1.8.4 2.7zM177.3 164c.5 1.4-.2 3 .3 4.5l-.5-.4-.3-4.1h.5zM188.5 98.1c.7 1.4.4 2.6.3 3.8l-.4-.5a25 25 0 0 1-.3-2.5l.4-.8zM183.8 215.3l-.1-.6-.7-4.9c.7.5.7.5.9 2.5l.2 2.7-.3.3zM193.9 162c-.3-1.8-.5-3.6-.3-5.5.7.8.2 1.8.3 2.6 0 1 .2 1.9.3 2.8h-.3zM185.1 101.5c-.9-1.5-1-3-.1-4 .4 1.3.4 2.5.1 4zM173.4 162c-.4-1.6-1-3.1-.9-5 .6.7 1 2.6 1 5zM253.3 189.8v4.4c-.7-.4-1-3.2 0-4.4zM244.4 132.5c-.9-1.2-1-2.2 0-3.3l.2 1.8.1 1.5h-.3zM250.5 183.1v4.6c-.7-.3-.3-1-.4-1.4l-.2-1.7c0-.5-.1-1.2.6-1.5zM261 146.8c-.5-1-.7-3.3 0-4.3v2.1l.4 2.1a3 3 0 0 1-.3 0zM193.3 208.8c0 1.6-.3 3.1.7 4.6-.6.3-.7-.1-.8-.4-.3-1.4-1-2.9.1-4.2zM257.8 135c.7 1.6.4 3.1.5 4.6-.6-1.1-.4-2.5-.7-3.7-.1-.2.1-.5.2-.8zM256.4 190v4.5c-.6-1.5-.9-3-.3-4.6h.3zM193 149l.4 5.2c-.8-1.7-.8-3.4-.7-5.2h.3zM218 113.9c-.6-.8-.8-1.7-.7-2.7 0-.4.2-.7.7-.6l.4 3.2h-.4zM246.9 99c-.4.3-.8.4-.9-.1l-.3-2c0-.3.3-.5.7-1l.5 3zM192 110.3v3.2c-.7-.9-.9-1.7-1.1-2.4-.1-.5.1-.6 1.1-.8zM237.3 190.6l-.4 4.6c-.8-1.1-.7-3.2.4-4.6zM222 153c-.2-1.4-.4-2.9-.2-4.5.6.8.6 2.1.2 4.5zM203.8 161.8l-.7-.8c0-1.4-.5-2.9-.2-4.6.7 1 .2 1.8.4 2.6l.4 2.8zM200.6 161.8c-1-.6-1.4-3.9-.7-5.4 0 1.8-.4 3.7.7 5.4zM255 146.2c-.9-.9-1.3-3.6-.7-5l.6 5zM194.7 109.9l1 3.7c-1.4-.9-1.8-2.4-1-3.7zM232 214.7c.5 1.3-.3 2.6.6 3.7-.2 0-.5 0-.7-.2-.5-.6-.5-2.5.1-3.5zM234.2 101a7.4 7.4 0 0 1-.2-4.3c.2.1.5.2.4.3 0 1.3.3 2.5-.2 4zM260.7 134.9c.6 1.5.5 3 .5 4.6-.7-.7-.3-1.5-.5-2.2l-.4-2.4h.4zM239.8 210.8c-.4.4-.7.2-.9-.1-.3-.8-.2-2.7.4-3.8.4 1.4-.5 2.8.5 3.9zM205.4 168.2c-1-.6-1.3-2.5-.5-4.3.5.7 0 1.4 0 2 .3.8.4 1.5.5 2.3zM249.5 190.3l.4 4.1c-.5-.3-.5-.3-.7-1.9-.2-.7-.3-1.4-.1-2.2h.4zM201.8 148.4a7 7 0 0 1-.3-5.1v2.7l.3 2.4zM218.8 163.3c.8.5.3 1.3.6 2l.6 2.1h-.5c-.7-1.3-.6-2.7-.7-4.1zM215.2 163.7c.5 1.5-.9 3.2 1 4.4-.5.5-1 .3-1.1-.2a5 5 0 0 1-.3-1.7c0-.8 0-1.7.4-2.5zM230.7 166.5c-.7-1.5-.3-3-.4-4.7.7.9.7 1.6.4 4.7zM250 128.4c.6 1.3.2 2.3.2 3.4-1-1-1-2-.1-3.4zM197 149.5c-.3 1.6-.5 3 0 4.5a5 5 0 0 1-.7-3c0-.6-.2-1.3.7-1.5zM176.1 162.1c-.7-1-.7-2.1-.7-3.3 0-.5 0-1.1.7-1.4v4.7zM247.6 115.5l.5 3.3c-1.3-.9-1.5-2-.5-3.3zM207.3 161c-.8.1-1-.2-1-.5a8.8 8.8 0 0 1-.2-4.2c.6 1.5-.2 3.2 1.2 4.6zM216.3 100.1c-.8-1-.8-2 0-3 .3.7.3 2 0 3zM233.5 132.4c-.9-1-1-2-.4-3.1.6.6.7 1.5.4 3zM179 162.8c-.8-1.2-1.2-4.1-.5-5l.5 5zM227 167.3c-.6-1.3-.8-2.7-.8-4.5.5.8 1 3.3.8 4.5zM211.1 147.9c-.4-1.7-.3-3.3.2-5l.2.4v4.3l-.4.3zM207.8 163.8c.4 1.2-.4 2.7.7 3.8-.4.3-.6.2-.8-.1a5.5 5.5 0 0 1 0-3.7zM230.5 206.7l.2 4.4c-.5-.3-.5-.3-.6-2 0-.7-.4-1.5.4-2.4zM189 143.5c0 1.4 0 2.8.2 4.3-.7-1-1-3-.2-4.3zM195.2 163.2l.6 4.3c-.9-.2-1.4-2.7-.6-4.3zM183 164.7l.6 3.9c-.9-.9-1.3-2.8-.6-4zM191.2 143.6l.4 4.6c-.6-.6-1-3.2-.4-4.6zM227.8 191.2v5.4c-.3-.3-.3-.3-.3-1.5l-.1-2v-1.9h.4zM182.2 161.6c-.4-1.4-.7-3-.3-4.6.7.9.2 1.6.3 2.3v2.3zM187.4 162.4l-.3-1c-.3-2.8-.3-3.5.2-4.6.4 1 0 2 0 2.9l.3 2.7h-.2zM210.3 161.3c-1-.5-1.3-3-.5-4.7.5.9-.2 1.6 0 2.4l.5 2.3zM235 214.4l.5 2.7c0 .2-.2.4-.3.4l-.5-.2c-.5-.7-.3-2 .3-2.9zM226.6 110l.4 3.2c-1-.1-1-.8-1-1.2.2-.7-.5-1.5.6-2zM210.5 199v4.9c-.7-3-.7-4.3 0-5zM191.2 163.7c.7 1.2 0 2.9 1.3 4.1h-.8a7 7 0 0 1-.5-4.1zM198.8 97.2v3c-.7-.6-.8-.6-.7-1.3 0-.6-.2-1.2.7-1.7zM177.6 143.9v4c-.8-.5-1-2.7 0-4zM194.6 98.2c.6 1.2.5 2 0 2.8-.4-1-.5-2 0-2.8zM260 182l-.3 2.3.3 2.2c-.8-.4-.5-1-.6-1.4l-.2-1.6c0-.6 0-1.1.7-1.4zM262.6 182.5l-.3 3.8h-.3c-.3-1.3-.1-2.6 0-3.9h.6zM237.3 214l.1 2.2c0 .1-.2.4-.3.3-.2 0-.5-.2-.6-.4-.2-.8 0-1.5.5-2.2h.3zM216.3 204c-.8-2-.8-3.5 0-4.5v4.5zM183.8 153.9c-.8-1-1-3-.4-4.2l.4 4.2zM216 149.6v4c-.7-.8-.8-2.9 0-4zM224.8 149c-.1.6-.3 1.3-.3 2l.1 2c-.5 0-.6-.3-.6-.6-.2-1.3 0-2.4.8-3.5zM257.9 125.2a6.6 6.6 0 0 1-.5-4.2h.2l.3 4.2zM230.4 148.8l.6 4.1c-.8-.7-1.1-2.8-.9-4.1h.3zM222.2 97c.7 1.4.7 1.8.1 3.2-.5-1-.6-2-.2-3.3zM184.8 219.8c-.6-.4-.8-1.1-.7-3.6.6 0 .6.3.6.7l.1 2.8zM224.5 191.9l.2 4.4c-.7-1.5-.9-3.6-.2-4.4zM210.5 100.4c-.7-1-.6-2-.5-3 .9.4 1 1 .5 3zM263.6 135.2c.6 1.4.5 2.6.4 3.9-.5-.7-.8-2.7-.4-4zM211.4 163.7c.6.9.4 1.5.5 2.2 0 .6.2 1.2.4 2-.2-.2-.5-.2-.6-.4a7 7 0 0 1-.3-3.8zM185.8 147.8c-.2-1.4-.7-2.8-.4-4.2h.4l.3 4.2h-.3zM264.6 141.2c.4 1 .5 3.5.3 4.5-.5-.6-.7-3-.3-4.5zM156.2 148.6c-1-1.2-.8-2.4-1-3.7.8.7 1 1.9 1 3.7zM201.3 97.9c.7.5.8 1.2.5 2.9-.7-.6-.9-1.5-.5-3zM227.8 152.6c-.6-1-.6-2.5 0-3.8.6.7 0 1.3 0 2v1.8zM169 198.7c.4 1.1.2 2-.3 2.8-.7-.7-.6-1.6.4-2.8zM207.8 204.4c-.8-1-.8-2.2-1-3.4l.4-.6.6 4zM183.2 144.4v4.3c-.5-.8-.7-3 0-4.3zM207.5 97.5c.6 1 .5 1.9 0 3.2-.2-.6-.4-.8-.4-1.1v-2h.4zM256.6 187.3c-.2-1.5-.9-2.9-.1-4.4h.3c0 .7-.2 1.5-.1 2.2l.2 2.2h-.3zM172.7 144.3l-.2 1.9.2 2c-.8-1-.9-2.8 0-4zM169.4 148.8l-.3-3.6.2-.6h.3v4.2h-.2zM190.8 161.7c-.2-.3-.5-.6-.6-1-.1-1.2-.2-2.4-.1-3.7.7.7.2 1.5.4 2.3l.5 2.3h-.2zM237.2 184c.7 1.1 0 2.4.4 3.5-.6-.7-.8-2.4-.4-3.5zM172.1 151l.4 3.8c-1-.8-.7-1.9-.9-2.7l.2-1.1h.3zM212.4 149l.3 4c-.6-.8-.9-3-.3-4zM178 150.5v1.3l.2 1.4c0 .4.2.8 0 1.2-.5-1.3-.8-2.5-.5-3.9h.4zM197.5 156l-.1 2.2v2.3a4.3 4.3 0 0 1 .1-4.5zM253 138.3a6.9 6.9 0 0 1-.2-3.8c.4.6.3 1.3.3 1.9 0 .6.7 1.2-.1 2zM244.8 145.6c-.5-1.3-1-2.7-.3-4.1l.3 4.1zM251.4 141.3l-.2 2.2.2 2.2c-.4-.6-.8-2-.7-3 0-.5 0-1 .7-1.4zM243 96c1 1.1 1 2 .3 3-.2-1-.6-1.9-.2-3zM219 149.4v3.2c-.7-.6-.8-1.9 0-3.2zM164.6 148.8c-.7-1-.8-3-.3-4l.3 4zM175.1 155.2l-.5-.9c0-1.2-.6-2.3-.3-3.5h.3l.5 4.4zM184.5 157.3v4.4c-.7-1-.8-3 0-4.4zM203.7 149.8l.2 4c-.8-1.3-.7-2.6-.5-4h.3zM213.4 199.5c0 1.6 0 3.2-.2 4.8-.6-1.7-.3-3.3-.1-4.9h.3zM175.2 144v4.2c-.6-.7-.7-3 0-4.2zM191.4 100.4c-.9-.8-.9-1.3-.2-2.2.7.9.7 1.3.2 2.2zM169.7 154c-.8-1-.8-2.2-.6-3.5h.4v1.7l.2 1.9zM217 143l-.2 4.1h-.3V143h.6zM204.5 142.9v4.8c-.3-1.6-.6-3.2 0-4.8zM234.1 142.2l.3 4.2c-.8-1.5-.9-3-.3-4.2zM237.4 142c.9 1.1.3 2.5.8 3.6a6.1 6.1 0 0 1-.8-3.6zM248 145.7c-.2-1.3-.6-2.7.4-4l-.2 2 .2 2h-.4zM218.3 173.8c-.7-1-.7-2.2-.4-3.4l.7 3.3h-.3zM173.6 134.7v-4.2h.4v2l-.2 2.2h-.2zM203.7 129.2v4.7c-.4-.6-.6-3.9-.3-4.7h.3zM158.3 149.5c0 .9.2 1.8.4 2.8-.3-.1-.6-.2-.7-.4-.3-.6-.3-1.3.3-2.4zM204.8 100.3a4 4 0 0 1-.6-2.8c.3 0 .5.1.5.2.4.9.4 1.7 0 2.6zM223.4 122.4c0 .4.2.8.1 1.1-.1.9.4 1.8 0 2.8-.4-.8-.6-3-.5-3.8h.4zM227.5 125.5c-.5-.9-.5-2.5-.3-3.6.5.5.6.8.3 3.6zM165.6 109c-.7-1-.7-1.4-.1-1.9.1 0 .5-.2.6 0l.3.6-.8 1.4zM194.6 144l.1 3.8c-.7-.7-.8-2-.1-3.9zM186.5 149.7c.5 1.4.1 2.7.8 4-1-.7-1.3-2.3-.8-4zM180.7 148.7c-.3-1.4-1-2.8-.2-4.3l.2 4.3zM231.2 145.4a5 5 0 0 1-.2-3.4h.4l-.2 3.4zM153 145.3l-.2 3.4c-.2-.2-.5-.3-.5-.5.2-1-.2-2 .4-3h.3zM213.6 160.5c-.9-1.4-1.1-3-.5-4l.5 4zM180.5 164.6v3.4c-.7-.7-.8-2.2 0-3.4zM255.7 138.7a7.8 7.8 0 0 1-.5-4c.6.7.4 1.4.5 2v2zM219.2 97.2c1 .6.6 1.6.6 2.7-1-1-.8-1.9-.6-2.8zM176.3 131.2v3.6c-.6-1.4-.5-2.5-.4-3.6h.4zM254 121.2c.6 1.3.5 2.8.6 4.2-.5-1.4-.5-2.8-.6-4.2zM200 154c-.8-1.4-.9-2.6-.2-3.9v1.8l.2 2zM240.4 186.8c-.3-1.2-.7-2.3-.4-3.6.4.6.6 2 .4 3.6zM255.6 118.9c-.7-.9-1-2.8-.9-4 .7 1.5.4 2.8.9 4zM207.7 143.3c.8 1.1-.3 2.4.4 3.6-.6-.4-.6-.4-.7-1.7l-.1-1.8h.4zM198 143.8l.4 3.7c-.6-.5-1-2.3-.7-3.6h.3zM220.5 128.8c.6 1.2.3 2.4.5 3.6-.6-1-.8-2.8-.5-3.6zM200.5 129.3v3.4c-.6-.9-.6-2.3 0-3.4zM209.7 130l.3 4.1a7.8 7.8 0 0 1-.6-4h.3zM161.7 144.7v3.4c-.4-.4-.4-.4-.4-1.7v-1.8h.4zM181.1 153.7c-.7-.8-1-3-.2-3.8v1.9l.2 2zM189.8 149.5l.3 3.8c-.5-.7-.9-2.6-.3-3.8zM233.8 148.8l.4 3.6c-.7-1.1-.8-2.3-.9-3.6h.5zM194.2 128.7l-.3 4.3c-.4-2.1-.3-3.3.3-4.3zM213.8 129v4a10 10 0 0 1-.5-4h.4zM209.6 153.4c-.1-1.2 0-2.4.2-3.6.6.5.3 1 .2 1.7v1.9h-.4zM206.7 149.7l-.1 1.8v1.5c-.6-1-.6-2.1-.4-3.2h.5zM159 148.7c-.4-1.2-.4-2.3-.5-3.6.6.9.8 2 .5 3.6zM228.8 142.2l-.3 3.9c-.4-.8-.4-1.4-.3-2 .2-.6-.3-1.4.6-2zM219.7 146.3c-.3-2.6-.3-2.6.2-3.5.3.6.1 1.3 0 1.8l-.2 1.7zM241.3 141.9v4.2c-.7-2-.7-3 0-4.2zM240.4 216.3c-1.2-.2-1.3-.9-.5-2.4l.5 2.4zM161.6 152.8c-1-1.1-1-1.3-.2-2.8 0 1 .3 1.8.2 2.8zM259.3 193a4 4 0 0 1-.4-3c.5.6.6 1.1.4 3zM166.8 148.6l-.3-3.9c.8.8.5 1.5.6 2.1v1.8h-.3zM249.7 208.3c-.6-.8-.7-1.6-.1-2.7.5 1 .2 1.9.1 2.7zM174 210.1l.4 3c-.8-.8-1-1.7-.3-3zM187.9 130.3c0 1.4.2 2.6.3 3.9h-.2l-.3-1.3-.2-1.3c0-.4-.3-1 .4-1.3zM181.2 216.7l.8 3.2c-.8-1-1.2-2.2-1.1-3.2h.3zM197.5 128.5l-.3 3.6c-.4-.7-.3-2.5.3-3.6zM171.2 134.4c0-1-.2-2.1.3-3.1v3.1h-.3zM185.1 133.6c0-1-.8-2 0-3v3zM240.1 125.5c-.6-1.1-.5-2-.4-3 .5.9.4 1.8.4 3zM213.4 143.1c.8 1 .2 2 0 3v-3zM221.3 174.3l-.3-2.3h.3c.4.7.4 1.5.4 2.3h-.4zM225 99h-.3c-.4-.4-.8-.8-.5-1.4l.5-.2c.5.4.6 1 .3 1.6zM223.7 129.1c0 .9.2 1.7.3 2.6-.8-.7-.7-1.6-.7-2.5h.4zM219.6 122.8l.2 3h-.4c-.5-1-.1-2-.2-3h.4zM255.8 197.8l-.3 2.2c-.7-.8-.7-1.2.3-2.3zM257.5 117.4c-.4-.8-.8-1.6-.3-2.6l.5 2.6h-.2zM191.2 129.4l-.1 2.5c-.5-1.3-.5-1.6.1-2.5zM253 118.7c-.8-1.2-.3-2.4-.6-3.5.8.4.4 1 .4 1.6l.2 2zM207.2 129v3.7a9 9 0 0 1-.3-3.8h.3zM227.1 128.3c.6 1 0 2 .1 2.8-.2-.9-.6-1.8 0-2.8zM234 126l-.3-2.6h.3c.4.8.2 1.7.4 2.7h-.3zM182.1 130.7v3.5c-.4-2.5-.4-2.5 0-3.5zM179 133.6c-.2-.9-.5-1.7 0-2.6.3.8.2 1.7 0 2.6zM166.7 150.4l.2 2.2c-.9-.6-1-1-.2-2.2zM246 122.2l.2 2.4c-.4-.8-.7-1.5-.7-2.3h.5zM237.1 125.2c-.4-.9-.7-1.7-.5-2.6h.3l.2 2.6zM225.9 143.3l-.4 2.6c-.5-1-.5-2 0-2.7h.4zM248.9 124.3c-.2-.8-.7-1.7 0-2.8v2.8zM163.5 134.8c-.2-1-.5-1.9-.4-2.8h.4v2.8zM163.7 150.8l.3 2c-1-.3-1-.7-.3-2zM260.2 123.4v2.4c-.6-1-.6-1.3 0-2.4zM222.3 146c-.6-1-.3-1.7.2-2.4l-.2 2.4zM155 150l.4 2c-.9-.8-.8-1.4-.7-2h.4zM152.5 150.1v1.8c-.7-.7-.7-1.2-.4-1.7h.4zM168.7 133.3l-.2-2.2c.8.7.4 1.5.2 2.2zM166 131v1.5c-.2-.4-.7-.9 0-1.5zM251.5 121.3v2.4h-.3l-.1-2.4h.4zM230.5 104.2l.3 1.6c-.7-.4-.4-1-.6-1.5l.3-.1zM160.6 131.3l-.1 2h-.2l-.2-2h.5zM242.3 215c-.8-.5-.8-.5 0-1.2v1.3zM217.3 129.4v1.7c-.4-.7-.5-1.2 0-1.7zM235.6 113v1.6c0-.6-.2-1.1-.3-1.7h.3zM242.7 125v-2.3h.1v2.4h-.1zM259.4 117.7v-2h.2v2h-.2zM216.6 159.7c.6.4.5.7.3 1-.7-.2-.3-.5-.3-1zM230.7 124.7c-.6-.3-.3-.8-.4-1.3h.3v1.3zM230.7 169.8v1c-.5-.4-.6-.7 0-1zM236.9 156l-.1 1-.1.1-.1-1.1h.3zM230.6 124.7l.3 1.4c-.5-.4-.4-1-.2-1.4zM233.2 103.3l-.1-.5h.2l.1.4h-.2zM238.1 169.5v.8l-.2-.8h.2zM154.7 143.5l.2-.7h.2l-.2.8h-.2zM268.7 161.1l.3 1h-.2l-.4-.8.3-.2zM175.2 118.3c-.2 1.3-.1 2.5.1 3.8M172.5 118v4.8M170 117.9v2.6M167.7 117.2c.2 1.5.1 3-.2 4.4M164.8 118c-.1 1.5-.3 2.9-.6 4.2M215.8 122.6v2M211.7 122v3.2M205.6 121.5a18 18 0 0 0-.4 6.4M201.7 122v3.9M198.1 122.4v4M194.3 122.4c-.2 1.3 0 2.8.5 4M190.6 123.3c-.2 1.2-.1 2.4.2 3.6M187.3 124c-.1 1.5-.2 3.2.8 4.3M184 124v3.5M181.4 124.1c.2 1.4 0 3-.7 4.2M178.3 123.8c0 1.7-.1 3.5-.5 5.2M175.2 124.1c-.2 1 0 2 .3 2.8M172.7 124.9c.1 1.4-.3 2.9-1.1 4M170 122.8c-.2 1.7-.1 3.3.2 5M167.7 124.8c.2 1.5.1 3.1-.2 4.6M165.2 124.9c-.2 1.5-.1 3 .2 4.5M208.8 122.7c.2 1.6 0 3.2-.6 4.7M162.1 124.7c-.3 1.3-.1 2.7.5 3.8M230.5 110.2v3.6M235.8 102.6c.2 1 0 2-.3 3M238.3 102.6v3.8M240.8 103c0 1 .3 1.8.7 2.6M244.3 101.4v5.2M247.5 101.6c.1 1.2 0 2.4-.1 3.5M250 102v4.6M252 102c0 1.2.2 2.4.9 3.4M255.7 102.3c0 1 0 2-.2 3M256.9 101v5M232.1 102.9v3M232.4 109.7c.1 1 .4 1.9.8 2.8M236.7 110c.4 1.4 1 2.7 1.7 4M241.5 109.7v3.6M245.1 109.7a3 3 0 0 1-.5 2.1M247.5 109l.1 5.5M249.8 110c.2.8.6 1.5 1 2.2M254.2 107.4c.3 2 .1 3.9-.5 5.7M257.3 109.2c0 1.3.5 2.6 1.3 3.7M207.8 171l-.1 4M212 168.8v6.6M214.1 170.2c-.1 1.2 0 2.4.2 3.6M216.2 172.3v2.4M224.3 170.2c-.1 1.2 0 2.4.4 3.5M227.3 168.7c0 1.6.2 3.2.7 4.7M233 168.7a10 10 0 0 0 .7 4.7M236.4 169.6v1.7M241 168.7v3.5M243.2 170.9v1.3M242 154.7c0 1.5-.1 2.9-.3 4.3M239.6 156.3v1.8M234.2 155.5l.1 3.7M230.3 154.2c0 1.2.3 2.4 1 3.4M227.8 154c0 1.1 0 2.3-.2 3.5M225.2 156a12 12 0 0 0 .3 3.9M221.9 155.5v2.7M218 155.8a4 4 0 0 0 .5 2.4M215.7 156.3v.7M437 20c4.3-.6 5.6-3 5.4-6s-2.9-5.5-5.9-5.9c-3-.4-6 1.1-7.8 3.5a8.9 8.9 0 0 0-7.6-9c-4.4-.4-8.7 3-9.3 7.3-2.3-1.9-5-3.7-8-3.9-2.9-.2-6.2 1.8-6.4 4.8a9 9 0 0 0-8-6.5 9 9 0 0 0-8.6 5.5c-2.8-1.7-6-3.1-9.1-2.8-3.2.3-6.5 3-6.2 6.3 1 10.3 23.5 7.6 37.4 8.3 11.7.6 21.5.3 34.2-1.6zM172.4 58.6a8.8 8.8 0 0 1-4.6-6.5c-.2-1.4 0-3 1-4 .5-.4 1.2-.7 2-1 4-1 8.9 2.2 9.4 6.4 1-1.8 2.2-3.7 4-4.9 1.7-1.2 4.1-1.6 6-.5 1.8 1.1 2.5 3.4 3.1 5.5 1.1-3 4-5.2 7.2-5.4 1 0 1.9 0 2.7.4 1.8.8 2.7 2.9 2.6 4.9 0 1.9-1.1 2.8-2.4 4.2-3.6 4-8.8 3.4-15 3.5a32 32 0 0 1-16-2.6zM255.6 43.7c-8.8-.3-7.2-9-6-10.2.6-.9 1.8-1.2 2.8-1.3 2.3-.2 5 .7 5.7 2.9a9.1 9.1 0 0 1 2.9-3.8c1.6-1.3 4-1.9 5.8-.7 1.9 1.3 2 4 3.6 5.8 1-2.4 3-4.4 5.5-4.8s5.4 1.3 5.6 3.8a9.5 9.5 0 0 1 7.3-4.4c3 0 6 1.8 6.9 4.7a8.8 8.8 0 0 1 2.7-3.4 4.6 4.6 0 0 1 4.2-.5c2 .8 2.8 3.2 3.4 5.3.5-2.1 3-3.1 5-3.2.8 0 1.5 0 2.1.3 1 .6 1.3 1.7 1.4 2.7.2 1.7-.3 3.6-1.7 4.6-.9.6-5.1 2-6.3 2.2-7.8 1-26.1.8-29 .8-3.2 0-21.9-.8-21.9-.8zM33 27.4c-2-.3-4.3-.8-6-2a4.8 4.8 0 0 1-1.7-1.9c-.5-1.3 0-3 .8-4.1 1.2-2 3.4-3.4 5.7-3.4 2.3 0 4.5 2 4.5 4.3 1-1.3 2.7-2.1 4.4-2 1.6 0 3.2 1 4 2.5.4.5.6 1.1.6 1.7 0 1.9-1.7 3.3-3.4 4-2.6 1-6 1.5-8.9 1zM119.1 77.6a7 7 0 0 1 1.6-6.6c1.4-1.4 3.3-2 5.3-2.2 8.4-.2 9.3 6.7 11.3 9.1-.7-3.7 2.7-7.4 6.4-7.5 3.8 0 7.1 3.3 7.6 7a14 14 0 0 1 2.2-6.3c1.2-1.8 3.4-3.1 5.7-2.9 2 .2 3.8 1.8 4.8 3.7 1 1.8 1.4 4 1.8 6a21 21 0 0 1 7-6c2.7-1.2 6.4-1 8.4 1.4 2.3 2.8 1 7.4-1.8 9.8a21.5 21.5 0 0 1-10.2 3.9s-45.4 6.2-50-9.4zM139.7 24.4A8.5 8.5 0 0 0 136 20c-.8-.5-1.8-.7-2.7-.9-1.8-.3-3.7 1.2-4 2.7 0 .6-.2 1.1-.3 1.7-.5 2.1.4 4.1 1.7 5.4 1.4 1.3 3.5 2 5.4 2.5 2.4.4 4.8 0 7-.8 1.7-.7 3.1-1.6 4.7-2.3 2.5-1.3 3.6-3.4 2.5-6-.6-1.6-1.5-3.1-3.3-3.2-1.6-.1-3.3 0-4.4 1.7-.8 1.2-1.7 2.2-2.8 3.6zM266.9 67c2-.3 2.5-1.4 2.4-2.8 0-1.4-1.3-2.5-2.7-2.7s-2.7.4-3.6 1.6a4 4 0 0 0-3.5-4.2 4 4 0 0 0-4.3 3.4c-1-.9-2.3-1.7-3.6-1.8-1.4-.1-3 .8-3 2.2-.5-1.6-2-2.9-3.7-3-1.7-.1-3.4 1-4 2.5-1.3-.7-2.7-1.4-4.2-1.3s-3 1.4-2.9 3c.5 4.7 10.9 3.4 17.3 3.8 5.4.3 10 .1 15.8-.7zM65.7 145.2c-2-1-3.3-3-3.6-5-.1-1.1 0-2.3.8-3 .4-.4 1-.7 1.5-.8a6 6 0 0 1 7.2 4.9c.8-1.5 1.7-2.9 3-3.8 1.4-1 3.2-1.2 4.6-.4 1.5.8 2 2.6 2.5 4.2.9-2.3 3.1-4 5.5-4.1.7 0 1.4 0 2 .3 1.4.6 2.2 2.2 2 3.7 0 1.5-.8 2.2-1.8 3.3-2.8 3.1-6.7 2.6-11.4 2.7-4.2 0-8.7 0-12.3-2zM388 76.5c-1.5-.2-3.3-.6-4.5-1.5-.6-.4-1-.8-1.4-1.5-.4-1 0-2.2.6-3.1 1-1.5 2.6-2.7 4.4-2.6s3.5 1.5 3.4 3.3a4 4 0 0 1 3.4-1.6 4 4 0 0 1 3.2 2c.2.3.4.8.4 1.3 0 1.4-1.3 2.5-2.7 3a12 12 0 0 1-6.7.7zM302 109.7c-.4-.9 0-2 .6-2.6a3 3 0 0 1 2-.9c3.4-.1 3.7 2.6 4.5 3.6-.3-1.4 1-3 2.5-3s2.8 1.3 3 2.8c.2-.9.4-1.8.9-2.5s1.3-1.2 2.2-1.1c.9 0 1.5.7 2 1.4s.5 1.6.6 2.4c.8-1 1.7-1.9 2.8-2.4 1-.5 2.5-.4 3.3.6 1 1 .5 2.9-.7 3.8a8.4 8.4 0 0 1-4 1.6s-18 2.4-19.8-3.7zM473.2 160.6a6.6 6.6 0 0 0-2.9-3.4c-.6-.3-1.4-.5-2-.6-1.4-.3-2.9.9-3 2l-.4 1.3c-.3 1.7.3 3.2 1.4 4.1 1 1 2.6 1.7 4.1 2 1.8.3 3.7 0 5.4-.7 1.2-.4 2.4-1.2 3.5-1.7 2-1 2.8-2.6 2-4.6-.5-1.2-1.2-2.4-2.6-2.5-1.2 0-2.5 0-3.3 1.4l-2.2 2.7z"/>
	</g>
</svg>