<svg class="grid-items-onclick-animation" id="opisis-amaoeba" version="1.1" xmlns="http://www.w3.org/2000/svg" x="0" y="0" viewBox="0 0 510.2 382.7" xml:space="preserve" enable-background="new 0 0 510.24 382.68">
    <style>
        .st0{fill:#fff}
        .st1{fill:#666}
    </style>
    <g id="Layer_1">
        <path d="m13.5 144.5-.9-5.3a435.9 435.9 0 0 1-2.2-21.3l-.4-7.2V96l.2-4.5.2-4.8 1.1-10.8 1.3-6.4 1.8-10.1 1.2-5.5c.2-1.2 1.3-5.6 1.8-6.6.5-1.1 1.2-2.2 1.8-3.2l3-4c.4-.7 3.3-3.8 4.2-4.9 1.4-1.6 3-3 4.8-4.3l5.6-3.1c.2-.2.5-.2.8-.3l3.3-1.3c.4-.2.7-.4.9-1l1.3-3.3c0-.2.3-.5.5-.5.5 0 .6-.2.8-.6l1.3-3a29 29 0 0 1 3.8-4.8l.8-.4 3-.4c1-.1 1.9.4 2.6 1 1 .9 2.1 1.7 2.7 2.8.4.7.6 1.5.9 2.3 0 .1 0 .4.2.4a7 7 0 0 1 3.2 3c1.7 2.6 2.7 5.5 3.8 8.4.9 2.5 1.2 5 1.6 7.7l.9 4 .1 1.2.9 5v2.9l.5 6.5.5 5.4c0 .9.2 1.7.3 2.6l-.1.5v3.8c0 1.7.1 3.4.3 5 0 1.8.3 3.6.4 5.3l.3 3.8.3 5v3.8l.1 3.5-.2 7.1v6.2l.2 5.9.5 4.3.3 3.3.3 7.5.2 5.9.3.7-.2.9.2 2.7c0 .5-.2 1 .3 1.4V147.6l.2 5.7.3 4.8v5.9l-.1 3.7-.2 6.6-.4 6.6-.1 5.8-.1.6c-.1 1.2-.3 2.3-.3 3.5v8.1c.6.3.2.7 0 1 0 .5-.3 1-.3 1.4 0 1-.3 2-.4 3v2.4c0 .3.4.5.6.7 1 .6 1.2 1.8.7 2.8l-.2.4-.2 4c.1 2-.2 3.9-.3 5.8.3 5.1-.5 10.3-.6 15.4.1 2-.4 3.8-.3 5.8 0 6-1 12-1.3 18l-.1 10.2c0 1.1-.3 2.3.1 3.4 0 .8-.3 1.7-.4 2.5 0 3.7-1 7.3-1.3 11C69.4 297 67.5 307 66 317l-1 5.5c-.2 1.6-.8 7-1.5 8-1.4 6.3-2.5 12.7-4.4 18.9-1.1 4.8-1.2 10.6-3.5 15l-.6.1-1-.2-.3.4c.3 3.4.7 7-1 10.1-.3.6-.8.8-1.3.8-.3 0-.7-.5-.8-.8-.7-3-1.2-6.3-1-9.4 0-.5.1-1.2-.8-1.1l-.4-.5c-1.9-5.4-2-11-2.6-16.4-.9-6.6-2.4-13.1-3-19.7-1-7.7-1.4-15.5-2.5-23.2-.2-1.2-.6-2.3-.6-3.4l-.4-2.3.2-1.7c0-1.4-.4-2.8-.7-4.1l-.2-2.2c0-1-.2-2-.1-3 0-1.5-.7-3-.5-4.5-.2-4.7-.8-9.4-1-14.2-.5-5.1-1.3-10.2-1.6-15.4-.1-6.7-1.2-13.4-1-20.1-.6-6.5-.7-13-1.1-19.4l.2-2.7v-1c-.2-.7-.5-1.3-.4-2l-.2-2.6V201.6l.1-1.7v-7l.2-5.1v-8.3l-.2-4v-8.2l.1-2.8v-.5c-.8-.6-.4-1.4-.3-2.1.2-1.7.2-3.3 0-5l-.1-2.5V152l.1-3.8.4-4v-8.3c-.1-.3-.4-.7-.3-1 .4-1.6.3-3.2.4-5l.2-5v-5.2c-.3-2.4.5-4.8.3-7.3-.2-1.5.3-3-.1-4.6-.2-.8-.2-1.7 0-2.4.4-1.9.1-3.7.2-5.5L34 97v-.2l-.3-5.4v-7.8c.3-3.6.7-7 .6-10.6v-8.6c0-1 .3-1.9.4-2.8v-3.4l.1-3c0-.5-.2-.6-.7-.5-1 .2-2 .3-3.1.3-1.3 0-2.5-.1-3.7-.5l-.5.4-2.2 8c-.3 1.1-.4 2.3-.6 3.4a178.4 178.4 0 0 0-1 12.8c0 1.2-.3 2.4-.4 3.7a191.4 191.4 0 0 0-.6 10.4c-.3 1.3-.2 2.6-.3 3.9v2.9l-.1 2.6-.3 3.3c0 1.3 0 2.7-.2 4v2.8c-.2 1.5-.4 3-.4 4.5v9.2l-.2 5.8.6 8.5c.1 2.3 1.2 12.8 1.4 13.8.1 1 .2 2 .5 3l1 3.5c0 .6.2 1.2.4 1.7 0 .3 1.1 1.8 1.3 2.2l.3.2 1.5.5c.9.5 1.7 1 2.4 1.7.8.8 1.3 4.4 1 5.1-.3.8-1 1.2-1.7 1.5-.6.2-3.2 1.3-4 1.1l-2-.5c-1-.3-3.3-3.5-3.7-4.3a72.6 72.6 0 0 1-4-14.7m37.8-2.7.2-.6v-1h-.2l-.4 1.4.4.2c-.5.4-.2 1-.2 1.4h.2v-1.4zm-5.3-5.3.3 1.4h.2l-.2-2-.3.6-.2.2v2.6h.2l.6-.8h-.2l-.2.3H48v-2.3zM61.6 96l-.3-1H61v1.3l.6-.4-.5 1c-.2.5-.2 1 0 1.5h.2l.3-2.4zm-6-55 .8-1.7c.4 0 .9-1.1.7-1.9l-.2.5c-.6-.4-.6.3-.7.5L55 41.2l.7-.3c-.7 1-1.3 2.1-1.6 3.4-.4 1.7-1 3.3-1 5.1h.1l3-8.7-.1-.1-.4.3zM50 49v.5l-.5 2.8.2.4.4-1.6.3-1.4.2-1.5h-.2l-.4.8.3-1.3.6-1.8.7-7.3v-1a29 29 0 0 0-1.8 11.6l.2-.2zm11-.7.7-2.2 1-3.6c0-.2.3-.4.5-.5l.1.7-.9 3.3v.8l.2.8-.5 2.4-.4 2 .2-.2c.9-2.3 1.9-4.5 3.3-6.6.3-.5.7-1 1.6-1.2v.7l-.3 1.3-1.8 9.7c-.3 1.2-.5 2.4 0 3.6l.2 1.7v.6c0 .5-.6 1 0 1.5v.3c0 .4 0 .8-.2 1.2 0 .3-.3.5-.4.8l.4.4.3-1.2.8-3.7c.2-.6.7-1 1.1-1.1l.9 1.2.2.6.1 2.3.5.4.1-.1V58.6c0-1.2.2-2.4.1-3.6 0-2-.3-4-.5-6-.1-1.1-.1-2.4-.7-3.5V45L68 46h.2l-.3-1.8-.3-1.7-.4-2.3a71 71 0 0 0-.7-3.2L65 32c-.5-1.5-1-3.1-2-4.5-.6-1-1.1-2.1-1.8-3.1L59.8 22c-.4-.7-1-1-1.7-1l-3.2.5c-2.2.2-4.4.1-6.6.6l-3 .7c-.1 0-.3.2-.3.4l-.6 1.2c-.4.6-.3 1.1.1 1.8l1-2.5h.3c0 1.4-.6 2.7-.8 4l1.7-1.7.3-.6 1-2 .4.6-.9 1.7.6 2.2.3-.8c0-.2.3-.3.4-.3.1 0 .3.2.3.4l-.1.6-.6 1.5-1.5 6.6-.4 2.6h.2l.3-.3.3-1.6a94.4 94.4 0 0 1 2.2-7.8c0-.3.3-.5.5-.8l.2.1-2 6.7h.3l.1-.3 1.8-5.5.7-1.1c0-.2.3-.2.5-.3l.2.1-.8 3.3c1-1.3 1.3-1.4 2.3-1l.5-1 .6-.9h.7c.2 0 .3.3.3.5l-.1.7L53.9 40l-.2 1.6h.2l.4-.7 2.2-4.4 1.6-3c.1-.3.5-.4.7-.6.1.2.3.4.2.7L58 41c0 1.3-.3 2.5-.5 3.7l-.5 5-.6 5.1v.5l.4 1 .7-.3c0 .4.2.7.3 1l.4-3.4.2.7h.2l.8-2.4c.3-.9.8-1.7 1-2.6.2-.9.2-1.8.2-2.6V43h-.2c-1 2.8-1.5 5.7-2 8.6l-.2-.4.2-1.5a170.3 170.3 0 0 1 1.7-7c0-.3.4-.4.6-.7l.4.9-.1 2.3v3zM46.6 203.7v-.9l1.3-5.4v-.5l-.6-3.4-.4-3.5-.2-1c-.2.6-.2 1.2-.2 2v3.2c0 1-.2 2-.4 3l-.4.6-.3-.8-.3-1.9c-.2-1.3-.8-2.5-1-3.8l-.6-4v5.1c0 .3.1 1-.6 1l-.7-5.7-.8 1.4-.4.4-.3-.6-.2-3.4c-.8.8-.7 1.8-1 2.6v1.4l.2 8.9.1 4.3c0 .4-.1.8-.3 1.1l-.4.3v-.5c.4-1.9.2-3.8.2-5.8l-.2-4.7v-3.7l-.1-3.8v-.4h-.3c-.2 1-.2 1.8-.6 2.7-.3.7-.2 1.6-.3 2.4l-.7 5.2c0 .5-.3.9-.4 1.3h-.2l-.3-.6c0 1 0 1.7-.2 2.4s0 1.5-.6 2h-.2l-1-9.6v8.6l.4 8.8 2.3-1.4c.4-.3.9-.7 1.4-.9a57.3 57.3 0 0 1 5.8-2l2.5-.4zm6.8-20.1h-.2c-.7 4-.5 8-.6 12a36.8 36.8 0 0 1-.1-7c0-1.8 0-3.5.4-5.2l-.2-.8h-.3c.7-.6.6-1.4.3-2.1.3-.3.4-1.6.2-2l-.7-.7v.2c-.7 2.4-1.1 4.9-.9 7.4v3.7c0 .6 0 .7.6.4.1.6-.4.5-.7.6l.2 1.1h.1l.3-.5h.1v.8l-1 .1c-.4 0-.5.2-.5.5l-.1.6H50l.1-.9-.5.4-.2-.1.4-.8-.6-1.8c.4-.6-.6-12.7-1.2-13.4 0 2.1.2 4.3 0 6.4v6.5c0 2 .5 4 .6 6l.4-1.3c.3-1 .3-1 .5-1-.3 1.2-.7 2.4-.8 3.7v3.8c-1 0-.4-.9-.7-1.3l-.2.5c-.4 1-.4 2.1-.9 3.1-.2.6.1 1 .7 1l2-.4c.2 0 .5-.4.5-.6v-5.2l.1-.3.3.3.3-.5c-.7 2.1 0 4.2-.2 6.3h1.3c.7-1.4 0-2.9.3-4.3v.5l.8.3.4-.6-.7 3.3c0 .5.5 1 1 1l.3-.3c-.3-.5 0-.9.1-1.2.2-1.4.2-2.8.2-4.1v-.3c-.1-.4-.3-.8-.2-1.2l.2-3.4-.1-3.2c0-1 .2-1.9.3-2.8v-.5c-.6 1.4-.6 1.4-1.2 1.3v-4zM60.8 58c1-1.9 1.2-4 2.8-5.6v.9L62 57.5c-.8 2.2-1.3 4.6-1 7.2L62 62c.4-1.3 1-2.5.7-3.8l.1-.4c.5-.1.4-.5.5-.8l.2-1c.3-.7.8-1.3 1-2 .5-2.1.8-4.2 1.2-6.4l.4-2.4h-.2l-.4.4-2.8 5c-.2.6-.6 1.2-.6 1.8.1 1-.2 2-.5 3l-.7 2.5zm1.4 5h-.1l-.9 3.5c0 .2 0 .5-.2.6-.6.6-.6 1.1-.3 1.8v.5l-.6 2.5c-.8 2.3-1.2 4.7-1 7.2 0 .5 0 1 .7 1.2-.8.4-.2 1-.4 1.3.1-.2.2-.9.4-.9.5 0 .4-.4.5-.7.3-1.3.2-2.6.6-3.8.3-.7.3-1.4.4-2V72l-.2-4.3.2 2.8h.3l.6-7.5zm-6-18.2H56c-.5.6-1 1.2-1.3 2-1 2.2-1.5 4.6-2 7l-.7 5.6-.2 2.8c.3-.2.4-.5.4-.7l.3-1.8c.3-1.5.9-2.8.8-4.3l.3-.5c.1-.1.4-.3.4-.5.4-1 .5-2.1 1.2-3l.2-.4.4-3.4.3-2.8zm-3.2-3 .4-1.3.5-4.7.5-4.5.3-2h-.3a12.1 12.1 0 0 0-1.8 8.6c-.7 0-.7.3-.7.7l-.5 4.8v1l.8-1.5c.3-.5.7-1 .3-1.7l.5.5zM56 67h.4a169.1 169.1 0 0 0 3.3-12.4c0-.8.2-1.6.3-2.3-.3 0-.4.2-.4.3-.9 1.8-1 3.8-1.9 5.7-.5 1-.6 2.2-1 3.3-.5 1.3-.4 2.7-1 4-.3.9-.2 2-.4 3h.3c.5-.4.4-1 .5-1.6zM35 183.3l-.7 1.1v2.9l.2 3.5.5 6 .4 1.8h.1l.3-1.9c0-1.4.2-2.8 0-4.3-.5-2-.5-4.2-.6-6.3l-.2-2.8zm7.6-12.6c-.3 3.7-.1 7.4.5 11 .5-1 0-2.1.3-3.2l.5 1.4v.6c0 .7-.3 1.4-.2 2 0 1.5.3 3 .5 4.7V183c0-1-.2-1.9.3-2.8l-.1-.8c-.7-.4-.4-1-.5-1.6l-.1-2.8-.4-.4-.1.1c0 1.2.2 2.3.3 3.4l-.3.4-.2-.1v-1.2c.2-.7.2-1.3 0-2-.2-.2 0-.8 0-.8.6 0 .4-.5.4-.7l-.2-2.7-.7-.3zm5-17a320.6 320.6 0 0 0-.2 2.7c.3.6.4 1.2 0 1.8l.1.5v1.7-.2l-.1.1 1 10.7h.3v-1.3l-.2-5.1-.4-5.4-.3-4.8-.1-.7zm-2 42h.1c.6-4.8.3-9.5-.6-14.2v8.1c-.2 1.3-.5 2.7 0 4l.4 2zm11.7 4-.1-.4c-.2-.4-.3-.6.1-1 .3-.3.3-1.1.1-1.5-.1-.4-.4-.6-.3-1l-.2-1.1-.4-1.6-.3-.5H56c.5 1-.3 2 .2 3l-.2.3-.2.5-.2 5.5c.6.5.9 0 1-.2l-.2-.4.5-1.7h.4zM47.7 51a64 64 0 0 0 2-14.2l-.4 1.7a37.6 37.6 0 0 0-1.3 7.5c.5.2.3.6.2 1l-.5 2v2zm3 114L51 180l.6-2.5c.2-.7.6-1.5.4-2.2-.1-1 .2-2-.4-2.9-.2-.2-.1-.6-.2-.9.2 0 .3.1.3.2-.8-2.1-.3-4.3-1-6.4zm-14.2 27.5.2-.3.5-5a87.5 87.5 0 0 0 0-10.4l-.2-.7h-.1l-.4 16.4zm35-100.2v.2c-.6.9-1 1.9-1 3.1l.4-.4h.2l-.3 1.2.3-.2-.1.2 1 .5.4-1.7-.1-2-.1-3H72l-.7 1.7-.5-.1-.2.7.8-.2zM53.5 94l.2.1c.2-.4.5-.9.6-1.4v-1.4l.1-1.5h.2v1.8h.3l.7-8.3h-.1c-1 3.5-1.7 7.1-2 10.7zM53 62.2h.2l.7-1.5c0-.2.1-.5.3-.7.2-.6.7-1 .8-1.6.2-1 .2-2.1.3-3.2L55 54c-.9 2.7-2.2 5.3-2.2 8.2zm-7 98.5c-.5.9 0 15 .6 16.3V171l-.3-4.2c0-2-.4-4-.1-6l-.1-.2zm16.3-90 .3-1.2c.5-1 0-2.6 1.5-3.1-.1-.5-.4-.9-.3-1.3.1-.5.3-1-.2-1.5l.1-.6-.4.3-.4.4v-1.3c-.6 2-1 7.6-.6 8.3zm2.4 4.4c-.2-.4-.6-.8.2-1l.2-.5c.3-1 .4-2 .8-2.9.4-.8-.3-1.5 0-2.3l-.5-.3-.4 2.5-.5.5.2.1.3-.4h.1l-.4 1 .5.1-.4.5c-.1.7 0 1.4-.8 1.8l-.4 4.3.1.3c.3-.6.7-1 .5-1.8-.2-.6-.1-1.3.5-1.9zM41 183.6h.2c.2-2-1.1-10.8-1.5-11.4l.3 4 .5 6.3c0 .4.3.7.5 1.1zm15.7-77.5h.1c.3-.5.6-1 .7-1.5l.4-1.8v-1c0-.3-.3-.6-.5-1 .8-.4 1-1 .7-1.4-.3-.4-.5-.8 0-1.2.2-.1 0-.5 0-.7h-.2v.5h-.2l-.2-.6h-.1l-.7 8.7zm6.1 2 .3-.1v-2c0-.7-.4-1.4.3-1.8v-.3c0-.7-.4-1.4.3-2v-.3c-.4-.3-.6-.6-.2-.9l-.5-.2c1-.3.1-.6.1-1 0 0 .2 0 .3-.2V99c-.1 0-.3 0-.4.2-.5.3-.2.7-.2 1.1v.5c-.5.4-.3 1-.3 1.4l.1 4.6.2 1.3zm-6-64c-.4.4-1.7 12.8-1.4 13.7.4-.4 1.7-12.6 1.5-13.7zM45.4 168h-.1c-.5 2.4-.2 4.8 0 7.2l.8 7.1h.2l-.5-6v-2.6l-.4-2.4v-3.2zm13.2-96.9h.2l.6-1.2.1-.4.7-1.3c.1-.6 0-1.2.3-1.7.6-1 .4-2 .2-3-.3.5-.6 1.1-.8 1.8l-.7 3.2-.6 2.6zm-4.5 1h-.2l-.3.7-.3 2.5c0 .5-.4 1-.4 1.5a73 73 0 0 0-.5 4.2l-.2 2.8h.2l.4-2.2.7-5.1.3-1 .3-3.4zm4.4-37.5c-.8.5-1 1.2-.6 1.8v.6c0 .5-.2 1-.4 1.4-.6 1.4-.6 2.8-.6 4.3.2-.1.5-.3.5-.5l1-6.7v-.9zm-3.8 159.6c1-3.3 1-6.8 0-7.7v1.3l.1 3.3v1c-.3.6-.2 1.3-.1 2.1zm.3-13.3.4-2.2-.1-1.3-.1-1h.2l-.2-1.1c-.4.6-.7 1.2-.9 2v.8c0 .6.4 1.3.2 1.9-.2.6.1.6.5.9zm5 13.6-.4 1.5-.2 1.8c0 .7 0 1.3-.2 2 0 .3-.1.4 0 .8.2.3 0 .8 0 1.3 0 .4.1 1 .5 1l.2-1.6c0-1-.2-2 .2-3v-.2c-.3-.6-.2-1.2.2-1.5-.6-.6 0-1.4-.4-2.1zM45.6 31.3c-.7.7-.5 1.6-.9 2.4l.1.1c.1.3.3.6.3 1l-.5 3.1-.3 2.1h.3c1-2.7.7-5.7 1-8.6zm20.6 45.2.3.1c0-.2.3-.4.2-.5-.2-.9 1-1.5.5-2.3l.1-.1.9-1c.3-.4.2-.8 0-1.2l.1-1.2h-.2l-.4 1.2-1 1.7-.3 1v.3c.5.2.4.4.2.8l-.4 1.2zM50 157.4h-.3l.2 9.4c.2-.2.3-.5.3-.7l.1-3.2v-2.2l-.3-1.5v-1.8zm6 28.2c-.1-.4-.5-.9-.5-1.4l.2-2.1-.2-1.6h-.1l-.2 1.7h-.1l-.3-1h-.2v1.1c.2.3.5.6.5.9-.4 1.4 0 2.8.3 4.2l.2.4h.2l-.5-2.6.8.4zm-8 8.3-.3-3v-3.5l-.3-1-1 1.1c.8 2.1 1 4.3 1.5 6.4zm2-9h.2c.6-3.2-.1-6.2-.4-9.2v7.4l.2 1.8zM44 34.8c.6-1.6.7-3.3 2-4.7l.4.6.3-2.8-.3.1c-.5.7-1.3 1.3-1.1 2.4l-.2.6a8 8 0 0 0-1 3.8zm19.6 48 .4-.7.2.1-.9 2.6h.1l.2-.5c.2.3.2.6.2.8v.7c.6-2 1-3.9.6-6-.5.5-.9 1.9-.8 3zM54.8 94h-.3c-.3.9-.8 1.7-.8 2.5v2.7l.5-.1.6-5zm-2.2-50.6c-1.1 1-2.2 5.2-1.7 6.2l1.7-6.2zm-2.8 107h-.2V156.2c0 .4 0 .9.7 1.2l-.5-7zM54.7 77h-.3a27 27 0 0 0-1 8.2l.2-1 .8-5 .3-2.1zm-2 10.3c-.5 2-.7 4.1-.3 6.2.4-2 .5-4.1.3-6.2zm-4.3.5c-.6 1.8-1 3.6-.5 5.5.6-1.7.6-3.6.5-5.5zm0-19.5h.3c.8-1.7.8-3.7 1-5.6-.4.8-.6 1.7-.8 2.5-.2.5 0 1-.5 1.5-.2.3-.2.8-.2 1.2h.1l.2-.6v1zm1.8 30.2h.2c.4-2 .6-8.3.2-8.9l-.4 8.9zm.3 70.6-.9 1v.5c0 1.2.2 2.3.3 3.5 0 1 .2 1.3.6 1.4-.3-1.6-.4-3.3-.5-5h.3v1h.1v-2.4zm8.2-95.7h-.2c-1 1.9-1.2 4-1.4 6.2h.3l1.3-6.2zM60 92.7c.5-.5.6-.8.4-1.3-.2-.4-.2-.9.3-1.1l.2-.2c.2-1 .5-2 .1-3.2l-.2.2v1l-.9 3.1.1 1.5zm-18.5 66.7c-.3.8 0 6.7.3 7.3V161.9c0-.3-.3-.6-.2-.8.4-.6 0-1.2 0-1.7zm15.3-31.2c-.5 1-.4 2.2-.5 3.5l.3-.5c0 .8-.4 1.7.1 2.6.6-2 0-3.8.1-5.6zm3.3 6.8v-2.5l.4.4h.1v-3l.3-.7h-.3l-.3 1.7c0 .5.4 1-.4 1.3v.3l-.2 3.7v.3l.7-1.7-.3.2zM43.2 41h.2l.7-1 .6-3.3.1-1.7-.2.2c-.2.9-.8 1.7-.5 2.7v.7l-.9 2.3zm-1 119c.6-1.3.3-6-.3-6.4l.3 6.5zm3.7-44.8c-.4 2-.4 3.9-.1 5.8.4-1.9.3-3.8 0-5.8zm2-49.5h.3c.3-1.7 1.4-3.3 1-5.1H49l-1.1 5.1zm1.4 104.9c-.3.6 0 8 .3 8.7l-.3-8.8zm-8.5 4.6c.4-.8 0-6.5-.6-7.1l.6 7zM60.5 53h-.3l-1 5.1h.2c.5-1.6 1.2-3.3 1.1-5zm-14.7 48.5h-.2c-.4 2-.5 4-.4 5.9h.2l.4-5.9zm9.1 73.3-.4-2.6c-.7 1.4-.4 2.8-.3 4.2.5-.4-.2-1.3.7-1.6zM43.3 165l-.3-5.8h-.2c-.2 1.9-.3 3.8.5 5.8zm1.2-137.5c-.9.9-1.8 4-1.4 4.8l1.4-4.8zM66 92.4h.2l1-3.9h-.2l-.5 1.5-.2-.8c-.7 1 .2 2.2-.3 3.2zm-13-25.8c.5-.5.6-3 .5-3.7-.9 1.2-.9 2.5-.6 3.8zm3.2 91.4h.3v-6h-.3v6zm3.4-9h-.3l-.3 6.2h.4c-.3-2.1.4-4.2.2-6.3zm-17 39v-4.3c-.6.2-.7.5-.6.9l.2 1.8.3 1.5zm3.8-2 .1.1.2-.3c.7-1 .3-2.3.5-3.4l-.2-.3-.2.3-.1 1.4-.3 2.3zm4.3-148.6c.7-1.7 1.2-3.4 1.2-5.2h-.3l-.9 5.2zm2.5 68h.2l.5-4.5h-.2c-.6 1.4-.6 3-.5 4.4zM51.8 116c-.6.6-.6 1-.2 1.7v.5c-.6.7-.3 1.6-.3 2.4.7-1.4.3-3 .5-4.6zm19.3-38.5c-.3 1.5-.2 2.6.3 3.6.3-1.3 0-2.5-.3-3.6zM49 173.4h-.1c-.2.2-.5.5-.5.8 0 1 .3 1.9.4 2.8h.2v-3.6zm-3-19.1c-.2-.1-.5-.2-.5.4l.2 3.3v.3h.2l.1-4zM61.4 78c-.1.1-.3.2-.3.4l-.2 2c0 .2.3.4.5.7l.2-.2-.3-1.1c.7-.5 0-1.1 0-1.8zm-4.7 65.6v-1.4l-.2-.5v-1.4l.3-1-.3-.2-.3.6v4l.5-.1zm-9 31.1h-.3v5.4h.2v-5.4zm2.5-96.1h.3l.3-5h-.3l-.3 5zm-1.1 67.6c.3-1.2 0-2.5 0-3.7a9 9 0 0 0 0 3.7zm-2.2 15.4c-.3.6-.1 4.8.3 5.3l-.3-5.3zm7.4 24.5h.3l-.4-2.5-.4-2.4h-.2l.6 4.9zm-.6-48.9c0 2 0 3.2.4 3.6h.1c.4-1.2-.3-2.3-.2-3.4l-.3-.2zM42.6 46.6c-.6.6-.7 3-.2 4l.2-4zM53.8 156l-.3.7h-.1v-2.4c-.6.3-.7 1.1-.3 2.7.8-.2.8-.2.7-1zm7.8-60.8h.2v-4.7h-.2v4.7zm-3-29.6h.1c.7-1.1.7-2.4.9-3.6h-.3l-.8 3.6zm-17.8 68.7c.3-1.3.4-2.6.2-4h-.2v4zm20.5-85.2h-.1l-.4 1.5c0 .6 0 1.2-.5 1.7l.7.2.3-3.4zm.9 25c-.9 1.1-.1 2.4-.3 3.6h.3v-3.6zm-4.4 8.6-.2.5c-.2.6-.1 1.3-.3 1.9-.3.5-.1.7.4 1l.1-3.4zm-10.6 66.7h-.3v4h.3v-4zm6.1-.4c-.6.4-.6 1-.2 1.9.5-.8.7-2.1.2-2.7v.8zM59 84.9c.2 1.1-.2 2.2.2 3.3l.2-2v-.7c.3-.5.3-.5-.4-.6zm-17 86.9h.2v-4c-.6 1.4-.4 2.7-.2 4zm14.2-98.4h-.3l-.6 3.7h.2l.7-3.6zm10 3.5c.9 1-.3 1.8 0 3l.4-1c.1-.4.7-.8.2-1.3v-.2c.4-.8-.1-.6-.6-.5zm1.7-7.4c1-1 .5-2.1.7-3.2h-.2l-.5 3.2zM61.2 198H61l-.2 3h.2c0-1 .6-2 .2-3zm-13-142.2h.2c.4-1 .7-2.6.4-3.2l-.7 3.2zm17.3 39h-.1l.3 3h.2c0-.7-.5-1.5.4-2l-.8-1zm-22-67.4h-.2l-1 2.3c.3 0 .6 0 .6-.2.3-.6.5-1.4.6-2zm-3 156.4.4 2.6c.5-1.3.4-2.2-.3-2.6zm17-78.1c-.3.7-1 1.4-.4 2.4.4-.8.5-1.6.4-2.4zm-21 70.2h-.2v3.6h.2v-3.6zM49.6 60.4h.2c.5-1 .6-2 .4-3H50c0 1-.2 2-.4 3zM61 125.6c-.4 1-.2 2 0 2.8.1-.9.6-1.7 0-2.8zm-.3-41.4v-1.6h-.2v2.6l1-1.5-.1-.2-.7.7zM54.5 82h.2l.6-3.8H55l-.5 3.8zm-12 35.2h.3v-3.3h-.1l-.2 3.3zm1.7-72.8c0-1 .2-1.9.3-2.9-.6.5-.8 1.9-.3 2.9zm3.5 59.6h-.2c-.4 1 0 2.2-.1 3.3h.2l.1-3.3zm10.1 63.4c.5-1 .5-1.9 0-3v3zm7.3-91.5c.4-.7.9-1.5.5-2.4l-.8 2.2.3.3zm-9.2 99.2.2-2.4c-.5.8-.8 1.5-.6 2.3h.4zm-12.4-4.8c0-2.8 0-2.8-.5-2.9l.2 1.5c0 .5.2 1 .3 1.4zm4-143h-.2c-.5 1-.5 1.6 0 2.4l.2-2.3zm-1.4 123.2h.3l-.2-3.5h-.3l.2 3.5zm-9.7 36.2c-.4 0-.4 0-.3 1.6 0 .7 0 1.3.2 2v-3.7zm10-28.1h-.1l.1 3h.3c.1-1-.3-2-.3-3zM54 152h-.2v3.2h.2V152zm2.7 29.3c0-1.3 0-1.5-.4-1.6l-.3 2 .7-.4zm9.6-84.7.3 1.7c.2-.8.7-1.4.3-2l-.6.3zm-12.5-9.2h.2l.4-2.7H54l-.3 2.7zM58 80c.8-.6 1-1.3.4-2l-.4 2zm-18.8 55.4c-.5 1.1 0 2.2 0 3.4v-3.4zM44.8 74h.2l.2-2.8H45l-.2 2.8zm.9 78.2v-3l-.4 1.2c0 .2.3.5.2.6-.4.5.3.8.2 1.2zm-6.2-26.8h.2l.4-2.8h-.3l-.3 2.8zm4.8-57.9V71v-3.4zm14.2 24.6.8-1.4-.8-.6v2zm-11 52v-2.9c-.4 1.4-.4 2.4 0 2.9zm-5-21.8h.3c0-.7.2-1.4-.3-2.2v2.3zm5.3-35.2h.2c.4-.7.3-1.5.2-2.3H48l-.2 2.3zm3-29.7h.4l.4-2.5h-.3l-.4 2.5zM46.3 55h-.3l-.3 2.5h.2l.4-2.5zM65.3 68h.7v1.4h.3v-2.2l-1 .8zM37.2 193c-.9.7-1 1.2-.5 2.3l.4-2.3zm-1.6-4.9h.1v-2.8h-.2l.1 2.8zm36.1-99.4c.7-.7.2-1.5.4-2.2l-.5-.1c-.1.8.8 1.5.1 2.3zm-20.3 26.6h.2l.4-2.8h-.3c0 1-.2 1.8-.3 2.8zM55.6 44c.7-.4.8-1 .6-2l-.6 2zM51 82.4h.2l.4-2.6h-.2l-.4 2.6zm-12-8.5h-.4l-.1 2.4h.2l.2-2.4zm1.6 54.5h.1v-3.1 3zm-1.1-7h.2l.4-2-.3-.1-.3 2.1zm17.2 67.7c-.6.6 0 1.2.1 1.8 0 .2.3.3.4.4l-.5-2.2zM46.3 80.7v2c.5-1 .5-1.8 0-2zM46 33.9h.3l.2-2.2h-.2L46 34zM60 185.4v-2c-.5 1.7-.5 2 0 2zM45.5 39.4h-.2l-.1 2.4h.2l.1-2.4zM58 202.5l.2-2.1H58l-.4 2 .4.1zM40 105a2 2 0 0 0-.3 2.3l.4-2.3zm23.5-15.7-.1 2 .5.4c-.1-.4-.4-.6-.3-.7l.3-1.5-.4-.2zM53.8 63h.2l.6-2.2h-.3l-.5 2.2zm-10.6-7.6h.1V53h-.1v2.5zm11.2 107.9h-.2l-.2 1.4.2.3.3-.2v-1.5zm2.4-73.2.4-2c-.6.3-.8 1.2-.4 2zm9.5 17-.1-.2-1 1 .7.5.4-1.4zm-12 52.6v2.7-2.7zm13.2-30h.2l.4-2.5H68l-.4 2.5zM48.4 123h.2v-1.6l-.1-1.6h-.1v3.2zM60 192.2c-.5 0-.4.4-.4.7l-.1 1.1h.1l.4-1.8zM55.4 80.8h.2l.5-2.2h-.2l-.5 2.2zm13.8-1h.1v-2.5h-.1v2.4zM56.7 123c.6-.6.5-1.2-.1-1.5l.1 1.5zm-18-46.3h-.3v2.7l.3-2.7zM54 84.1c.7-1.2.7-1.2.3-1.7 0 .6-.2 1.2-.3 1.7zm8.4 10.2h.3V93l-.2-.1-.1.2v1.2zm1.5-24.8-.2-1h-.2l-.3 1.3.7-.3zm1.9 37.5-.2-1.4-.6 1 .8.4zm1-20.4c-.3.5-.3.8 0 1.3.5-.5.6-.8 0-1.3zm-23 74h-.1l.1 2.4h.2l-.1-2.4zm14.7-65.2h-.1l-.7 1.4h.5l.3-1.4zm-1.4 39.8h-.2l-.4 1.4.6-.2v-1.2zm9.1-40.9.2.1.5-.4-.4-.7h-.2v1zm-19.7 84.4h-.2l.1 2.2v-2.2zm12 2.6h.2c0-.5.4-1 0-1.4h-.2v1.4zm2.7-44.2H61l-.3 1.8c.7-.6.4-1.2.5-1.8zm-6 57.7H55l-.3.7v.5h.3l.2-.6-.4.2v-.1c0-.3.2-.5.4-.7zM67.9 78.5c-.3.6-.1 1 .4 1l.1-.4-.5-.6zm-21.6 61.3v1.6c.1-.2 0-.5.2-.6.5-.4 0-.7-.2-1zm9.7 37.4h-.3v.8l.2.6h.1v-1.3zm-9.3-8.1.5 1.8h.1c-.3-.5.3-1.3-.6-1.8zm-1-131.3h.3l.3-2H46l-.4 2zM38.4 80H38V82h.2l.1-1.8zm4.4 14.5h.1v-2h-.2v2zM72.2 114l-.4 1.4c.6-.3.7-1 .4-1.5zm-3.6-6.8.1-.2-.2-1c-.2.3-.5.5-.4.6 0 .2.3.4.5.6zm-6.9 19.9h.2l.2-.7v-1.3l-.4 2zm-7.4 32.3h.3l-.2-1.2h-.2l.1 1.2zM48 52.6h.2l.3-1.5h-.2l-.3 1.5zm9.9 141.8.2-.8c0-.6-.1-.7-.5-.5l.3 1.3zm-3-24.6v-1.2c-.3 1-.3 1 0 1.2zm4.2-49c-.6.4-.5.7.3 1.3l-.3-1.3zm-1.9-.5h-.3l-.2 1.1h.6v-.1l-.3-.2.2-.8zM46.4 138h-.1v1.5h.1V138zm-7.2-3.2h.1V133h-.1v1.6zm8.7-4.6h.2v-1.5h-.2v1.5zm24-40 .3-1c-.6.2-.8.5-.4 1zm-25.3.6h.2l.1-1.9h-.1l-.2 1.9zm2.3 68.6h.2v-1.8h-.2v1.8zM37.5 189h.1v-1.6h-.1v1.6zm18.4-55.7h-.3v1.4h.2v-1.4zm-15.1 27.3v-1.4 1.4zm24.9-55.1h.3v-1h-.2l-.1 1zm-14.3-34h-.2l-.2 1.3h.2l.2-1.4zm8.7 65.7h-.3l-.1 1.2h.2l.2-1.2z"/>
        <path class="st0" d="M61 48.4V43l-.3-.9c-.2.3-.6.4-.6.7a47.8 47.8 0 0 0-1.7 7l-.2 1.5.2.4c.5-3 1-5.8 2-8.5h.2v3.6c0 .8 0 1.7-.2 2.6-.2.9-.7 1.7-1 2.6l-.8 2.5h-.2l-.1-.8h-.1l-.3 3.4h-.1l-.3-1-.7.4c0-.4-.2-.7-.4-1.1v-.5l.6-5.2.5-4.9.6-3.7 1-7.5c0-.3-.2-.5-.3-.7-.2.2-.6.3-.7.5l-1.6 3-2.2 4.5-.4.7h-.2L54 40l1.4-10.6c0-.2.2-.4.1-.7 0-.2 0-.5-.3-.6l-.7.1c-.3.3-.5.6-.6 1l-.5 1c-1-.5-1.3-.4-2.3.9l.8-3.3-.2-.1c-.2 0-.4.1-.5.3l-.7 1.1-1.8 5.5-.1.3h-.2l1.9-6.6-.2-.2-.5.8a183 183 0 0 0-2.2 7.8l-.3 1.6c0 .2-.2.3-.3.4h-.2L47 36l1.5-6.6.6-1.5.1-.6c0-.2-.2-.3-.3-.4l-.4.3-.3.8-.6-2.2 1-1.7-.6-.6-1 2c0 .2 0 .5-.2.6L45 27.7c.2-1.2.9-2.5.8-3.8l-.2-.1-1 2.5c-.5-.7-.6-1.2-.2-1.8l.6-1.2c0-.2.2-.3.3-.4l3-.7c2.2-.5 4.4-.4 6.6-.6l3.2-.5c.7 0 1.3.3 1.7 1l1.4 2.2 1.8 3c1 1.5 1.5 3 2 4.6.6 1.7 1 3.5 1.5 5.2l.7 3.2.4 2.3.3 1.7.3 1.8H68l-.6-1.2.1.6c.6 1.1.6 2.4.7 3.6l.5 5.9v9.3h-.2c-.2 0-.4-.2-.5-.3v-2.3l-.3-.6-.9-1.2c-.4 0-.9.4-1 1.1l-.9 3.8-.3 1c-.2 0-.4-.2-.4-.3l.4-.8.3-1.2v-.3c-.7-.4-.1-1-.1-1.5v-.6c0-.6 0-1.2-.3-1.7-.4-1.2-.2-2.4 0-3.6l1.9-9.7.3-1.3v-.7c-1 .1-1.3.7-1.6 1.2-1.4 2-2.4 4.3-3.3 6.6l-.2.1.4-2 .5-2.3-.2-.8v-.8l.9-3.3-.1-.7-.5.5-1 3.6-.6 2.2zm4.8-8.8h.3l-.6-3h-.2l.5 3zm1.4 4.8h.1l-.5-2h-.2l.6 2zM46.5 203.7l-2.5.4a57.3 57.3 0 0 0-5.8 2c-.5.2-1 .6-1.4.9l-2.3 1.4-.4-8.8V191l1 9.6h.3c.5-.5.3-1.3.5-2s.2-1.5.3-2.4c0 .3.1.4.2.5h.2l.5-1.2.6-5.2c.1-.8 0-1.7.3-2.4.4-.9.5-1.8.6-2.7h.2v.4c.2 1.3.3 2.5.3 3.8v3.7c0 1.6.2 3.2.1 4.7 0 2 .2 4-.2 5.8v.4c.2 0 .4 0 .4-.2.2-.3.4-.7.4-1l-.1-4.4-.3-8.9v-1.4c.3-.8.2-1.8 1-2.6l.2 3.4.3.6.4-.5.8-1.3.7 5.7c.8 0 .6-.7.7-1l-.1-2.3v-2.7c.3 1.3.5 2.6.6 4 .2 1.2.8 2.4 1 3.7l.3 2 .3.7.5-.7c0-1 .2-1.9.3-2.9V191c0-.7 0-1.3.2-2l.3 1 .4 3.6.5 3.4v.5l-1.3 5.4v.9z"/>
        <path class="st0" d="M53.3 183.6v4c.6.1.6.1 1.1-1.3v.5l-.2 2.8v3.2l-.2 3.4.2 1.2v4.3c-.1.5-.5.8-.2 1.3l-.3.2c-.6 0-1-.4-1-1l.7-3.2c0 .2-.2.4-.4.6l-.7-.3-.1-.5c-.4 1.4.4 2.9-.3 4.3h-1.4c.2-2.1-.4-4.2.2-6.3l-.2.5-.3-.3-.2.3v2.6l.1 2.6c0 .2-.3.5-.5.6l-2 .3c-.6.1-1-.3-.7-.9.5-1 .5-2 .8-3.1l.3-.5c.3.4-.3 1.2.6 1.3v-3.8l.8-3.7-.4 1-.4 1.3c-.1-2-.6-4-.6-6 0-2.2-.2-4.3 0-6.5.1-2.1 0-4.3 0-6.4.6.7 1.6 12.8 1.2 13.4l.6 1.8-.4.8h.1l.6-.3-.1.8h.1l.2-.5c0-.3 0-.5.4-.5l1-.1.1-.8-.4.6h-.2V190c.2-.1.7 0 .6-.6-.6.3-.7.2-.6-.4v-3.7c-.2-2.5.2-5 .8-7.4 0-.2.1-.3 0-.2l.7.7c.3.4.1 1.7-.1 2 .3.7.4 1.5-.3 2.1h.3c0 .3.3.6.2.8-.4 1.7-.4 3.4-.5 5.2a54.8 54.8 0 0 0 .2 7c.1-4 0-8 .6-12h.2zm-1.6 5.3.4-3.6c-.6 1-.8 3.3-.4 3.6zm.3 5.5h-.3l.2 2.5c.4-.3 1-.3.6-1.1l-.4.6H52v-2zm0-12.2-.3 1-.1 1.1h.2l.4-1.3.2.6h.2l-.6-1.3zm-1.6 11H50v1.9h.3v-2zM60.8 58l.7-2.4c.3-1 .6-2 .5-3.1 0-.6.4-1.2.6-1.7l2.8-5c0-.2.3-.4.4-.6h.2l-.4 2.6-1.2 6.3c-.2.7-.7 1.3-1 2a4 4 0 0 0-.2 1c0 .3 0 .7-.5.8v.4c.2 1.3-.4 2.5-.8 3.8l-.8 2.6c-.4-2.6.1-5 1-7.2l1.5-4.2v-.9C62 53.9 62 56.1 60.8 58zM62.2 63l-.6 7.5h-.3l-.1-2.8H61l.2 4.3a15.7 15.7 0 0 1-.4 4.2c-.5 1.2-.3 2.6-.6 3.8 0 .3 0 .6-.5.7-.2 0-.3.7-.4 1 .2-.4-.4-1 .4-1.4-.7-.2-.6-.6-.7-1.1-.2-2.5.2-5 1-7.3l.7-2.5v-.5c-.4-.7-.4-1.2.2-1.8.2 0 .1-.4.2-.6L62 63l.2-.1zM56.1 44.8c0 1-.2 1.9-.3 2.8a185.5 185.5 0 0 1-.6 3.8c-.7.9-.8 2-1.2 3 0 .2-.3.4-.4.6l-.3.4c0 1.5-.5 2.9-.8 4.3l-.3 1.8-.4.7.2-2.8c.2-1.9.4-3.7.8-5.6.4-2.4 1-4.8 2-7 .2-.8.7-1.4 1.2-2h.1zM53 41.7l-.5-.5c.4.7 0 1.2-.3 1.7l-.9 1.5.1-1 .5-4.8c0-.4 0-.7.7-.7-.5-3.1.1-6 1.8-8.6h.3l-.3 2-.5 4.5-.5 4.7c0 .4-.3.7-.4 1.2zM56 67.1c0 .5.1 1.2-.4 1.6h-.3c.2-1 .1-2.1.5-3 .5-1.3.4-2.7 1-4 .3-1 .4-2.3.9-3.3.8-1.9 1-3.9 1.9-5.7 0-.1.1-.2.4-.3l-.3 2.2-.7 3.1-1.5 6.3-1.1 3-.3.1zM35 183.3l.2 2.8c.1 2.1.1 4.3.5 6.3.3 1.5.2 2.9 0 4.3 0 .6 0 1.3-.2 1.9h-.1l-.4-1.8a394.5 394.5 0 0 1-.7-9.5v-2.9l.7-1.1zM42.6 170.7l.6.3.3 2.6c0 .3.2.8-.4.8 0 0-.2.6 0 .8.2.7.2 1.3 0 2v1.2h.2l.3-.3-.3-3.4h.1l.4.3.1 2.8c0 .6-.3 1.2.5 1.6.1 0 .2.6 0 .8-.4.9-.2 1.8-.2 2.8v4.2l-.5-4.7.2-2v-.6l-.5-1.4c-.3 1 .2 2.2-.3 3.2-.6-3.6-.8-7.3-.5-11zm.3 3.5c.4-.6.3-2 0-2.4v2.4zM47.7 153.7l.2.7.2 4.8.4 5.4.2 5v1.4h-.3l-1-10.7.1.1v-1.7c0-.2-.2-.4-.1-.5.4-.6.3-1.2 0-1.8v-.3l.3-2.4zM45.5 195.7l-.5-2c-.4-1.4-.1-2.8 0-4.1v-1.8l.1-6.3c1 4.7 1.2 9.4.6 14.1h-.2zM57.3 199.6h-.4l-.5 1.7.2.4c-.1.3-.4.7-1 .2l.2-5.5c0-.2.2-.4.3-.5 0-.2.1-.3 0-.4-.4-1 .4-2 0-3h.1l.3.6.4 1.6.2 1c0 .5.2.7.3 1 .2.5.2 1.3 0 1.6-.5.4-.4.6-.2 1v.3zM49.9 49.1l-.2.2c-.6-1.8.6-9.3 1.8-11.7v1.1l-.7 7.3c0 .6-.4 1.2-.6 1.8L50 49zM47.6 51.1v-2c.2-.7.5-1.3.6-2 .1-.4.3-.8-.2-1v-.4c.2-2.4.6-4.8 1.3-7l.4-1.8c-.3 4.8-.7 9.6-2 14.2z"/>
        <path class="st0" d="M50.7 165.2c.7 2 .2 4.3 1 6.4l-.3-.2c0 .3 0 .7.2.9.6.9.3 2 .4 2.9.1.7-.2 1.5-.4 2.2L51 180c0-5-.2-9.8-.3-14.7zM36.5 192.6l.4-16.3.3.6.1 5.1-.1 5.4-.5 5-.1.2h-.1zM71.4 92.4l-.8.2.2-.7h.5l.7-1.7h.2l.1 3v2.1l-.2 1.7-1.1-.5v-.2l-.2.2.3-1.1H71l-.3.3c0-1.2.3-2.2 1-3.1l-.2-.2zM53.6 94a56.6 56.6 0 0 1 2.1-10.7l-.7 8.3h-.3v-1.8h-.2v1.4l-.1 1.5c-.1.5-.4 1-.6 1.4h-.2zM52.9 62.2c0-3 1.3-5.5 2.2-8.2v1.2c0 1 0 2.1-.2 3.2-.1.5-.6 1-.8 1.6-.2.2-.2.5-.3.7l-.7 1.6-.2-.1zM46 160.7v.3c-.2 2 .2 4 .2 5.9l.2 4.2V177c-.6-1.3-1-15.3-.4-16.2zM62.1 70.7c-.3-.6.1-6.2.7-8.3v1.3l.4-.4.4-.3c0 .3-.2.5 0 .6.4.5.2 1 0 1.5 0 .4.3.8.4 1.3-1.5.5-1 2-1.5 3.1l-.4 1.2zm1-6.8v2.7c.6-.8.5-2.3 0-2.7zM64.6 75.1c-.6.6-.7 1.3-.5 2 .2.7-.2 1.1-.5 1.7v-.3l.3-4.3c.8-.4.7-1.1.8-1.8l.4-.5h-.5l.4-1h-.1l-.4.3.4-.6.4-2.5.4.3c-.2.8.4 1.4 0 2.3-.4.9-.4 2-.7 3 0 0 0 .3-.2.4-.8.2-.5.6-.2 1zM40.9 183.6l-.5-1-.5-6.4a110 110 0 0 1-.3-4c.4.5 1.7 9.4 1.5 11.3l-.3.1zM56.6 106l.7-8.6h.1l.2.6h.1v-.5h.3v.7c-.5.4-.3.8 0 1.2.3.5 0 1-.7 1.4l.5 1v1l-.4 1.8-.7 1.5h-.1zM62.7 108l-.2-1.3-.1-4.6c0-.5-.2-1 .3-1.4v-.5c0-.4-.3-.8.2-1.1l.4-.2v.4l-.3.3c0 .3.9.6 0 .9l.4.2c-.3.3-.2.6.1.9.1 0 .1.3 0 .4-.6.5-.1 1.2-.2 1.9v.3c-.7.4-.2 1.1-.3 1.7v2l-.3.1zM56.8 44c.2 1.2-1.1 13.4-1.5 13.8a84 84 0 0 1 1.5-13.7zM55.7 40.9l.4-.3h.2l-3 8.9H53c.1-1.9.7-3.5 1.1-5.2.3-1.3 1-2.4 1.6-3.4zM45.3 168.2v3.2c0 .8.3 1.6.4 2.4v2.5l.5 6.1H46l-.8-7.1c-.3-2.4-.5-4.8 0-7.2h.1zM58.5 71.2l.6-2.6.7-3.2.8-1.9c.2 1 .4 2-.2 3.1-.2.5-.2 1.1-.3 1.7l-.7 1.3-.1.4-.6 1.3h-.2zM54 72.2l-.4 3.5-.2.9-.7 5.2c0 .7-.3 1.4-.5 2.1h-.1l.1-2.8.5-4.2.5-1.5.3-2.5c0-.3.2-.5.3-.7h.2zM58.4 34.7v.9l-1 6.7-.6.5c0-1.5 0-3 .6-4.3l.4-1.4v-.6c-.4-.6-.2-1.3.6-1.8zM54.6 194.3c-.1-.8-.2-1.5.1-2.2v-5.5c1 .9 1 4.4-.1 7.7zM54.9 181c-.4-.3-.7-.3-.5-1 .2-.5-.1-1.2-.2-1.8v-.9c.2-.7.5-1.3.9-2l.2 1.2h-.2v1c.1.4.2.8.1 1.3L55 181zM59.8 194.6c.4.7-.2 1.5.5 2.1-.5.3-.6 1-.3 1.5v.1c-.4 1-.3 2-.2 3.1l-.2 1.6c-.4 0-.5-.6-.5-1 .1-.5.2-1 0-1.4v-.7c.2-.7.2-1.3.2-2l.2-1.8.3-1.5zM45.7 31.4c-.3 2.9 0 5.9-1 8.7h-.3l.3-2.2.5-3.2-.3-1c.3-.8.1-1.7.8-2.4zM66.3 76.5l.4-1.3c.2-.3.3-.5-.1-.8l-.1-.2.3-1 1-1.7.4-1.3h.2c0 .5-.2 1 0 1.3.1.4.2.8-.1 1.2l-.9 1h-.1c.4 1-.6 1.5-.5 2.3l-.2.6-.3-.1zM50 157.4v1.8l.3 1.5v2.2l-.1 3.1c0 .3-.1.6-.3.8l-.3-9.4h.4z"/>
        <path class="st0" d="m56 185.6-.7-.4.5 2.5h-.2l-.2-.3c-.3-1.4-.7-2.8-.3-4.2 0-.3-.3-.5-.4-.9l-.1-1 .2-.2.2 1.1h.2l.2-1.6c.2.4.3 1 .3 1.5 0 .7-.3 1.4-.2 2.1 0 .5.4 1 .5 1.4zM48 193.9c-.6-2.1-.8-4.3-1.5-6.4l.9-1.2.3 1.1v3.5l.2 3zM50 184.8l-.2-1.7v-7.5c.3 3.1 1 6.1.5 9.2H50zM44 34.8c.2-1.4.3-2.7 1-3.9.2-.1.3-.4.3-.5-.2-1 .6-1.7 1.1-2.4h.3l-.3 2.7-.4-.6c-1.3 1.4-1.4 3.1-2 4.7zM63.6 82.8c0-1.1.3-2.5.8-3 .5 2.1 0 4-.7 6v-1.5l-.3.5.8-2.6H64l-.4.6zM54.8 94l-.6 5-.6.2v-1l.1-1.7c0-.8.4-1.6.7-2.4h.4zM52.6 43.4l-1.7 6.2c-.5-1 .6-5.3 1.7-6.2zM49.8 150.3l.5 7c-.7-.3-.7-.8-.7-1.3v-5.7h.2zM54.6 77.2l-.2 2.1-.8 5c0 .3 0 .7-.2 1-.3-.7.5-6.7 1-8.1h.3zM52.7 87.4c.1 2 .1 4.2-.3 6.2-.4-2-.2-4.1.3-6.2zM48.4 88c.1 1.8.1 3.6-.5 5.4-.5-1.9-.1-3.7.5-5.5zM48.5 68.4v-1l-.1.6h-.2c0-.4 0-1 .2-1.2.5-.5.4-1 .5-1.5l.8-2.5c-.2 2-.2 3.9-1 5.6h-.2zM50.2 98.6l.4-8.9c.4.6.2 7-.2 9l-.2-.1zM50.5 169.2v2.4h-.2v-1H50c.1 1.7.2 3.4.5 5-.4-.1-.5-.3-.6-1.4 0-1.2-.2-2.3-.3-3.5v-.5l.9-1zM58.7 73.5l-1.3 6.1-.3.2c.2-2.3.4-4.4 1.4-6.4h.2zM60 92.7c0-.6-.2-1 0-1.5l.8-3.2v-.9l.2-.2c.4 1.1 0 2.2 0 3.2l-.3.2c-.5.2-.5.7-.3 1.1.2.5.1.8-.4 1.3zM41.5 159.4c.1.6.5 1 .1 1.7l.1.8a81.2 81.2 0 0 1 .1 4.8c-.4-.6-.6-6.5-.3-7.3zM56.8 128.2c-.1 1.8.5 3.7 0 5.6-.5-1-.3-1.8-.2-2.6l-.3.5c.1-1.3 0-2.4.5-3.5zM60.1 135l.2-.2a83 83 0 0 1-.5 1.7l-.1-.3.2-3.7v-.3c.8-.3.3-.8.4-1.3l.3-1.8.3.1-.3.7v3h-.1l-.4-.4v2.5zM43.2 41l.8-2.4c.1-.2.2-.5.1-.7-.3-1 .3-1.8.5-2.7l.2-.2v1.7L44 40c0 .4-.4.7-.7 1h-.2zM42.2 160l-.3-6.4c.6.3 1 5.1.3 6.5zM55.7 40.9l-.7.3 1.2-2.9c0-.2 0-1 .7-.5l.2-.5c.2.8-.3 2-.7 1.9a230.9 230.9 0 0 0-.7 1.7zM45.9 115.3c.2 1.9.3 3.8-.1 5.7-.3-1.9-.3-3.8 0-5.8zM47.9 65.7l1-5.2h.3c.4 2-.7 3.5-1 5.3H48zM49.3 170.6l.3 8.7c-.4-.7-.6-8-.3-8.8zM40.8 175.2l-.6-7.1c.6.6 1 6.3.6 7zM60.5 53c.1 1.8-.6 3.5-1.1 5.2h-.2l1-5.2h.3zM45.8 101.5l-.4 6-.2-.1c-.1-2 0-4 .3-5.9h.3zM55 174.8c-1 .3-.3 1.2-.8 1.6-.1-1.4-.4-2.8.3-4.2l.4 2.6zM43.3 165c-.8-2-.7-3.8-.5-5.7h.2l.3 5.8zM44.5 27.6 43 32.4c-.4-.8.5-4 1.4-4.8zM66.1 92.4c.5-1-.4-2.2.3-3.2l.2.8.5-1.5h.3a577.7 577.7 0 0 0-1.3 4zM53 66.7c-.3-1.3-.3-2.6.6-3.8.1.8 0 3.2-.6 3.8zM49.9 49.1l.4-.8h.1l-.1 1.5a18.5 18.5 0 0 1-.7 3l-.2-.4.4-2.8V49zM56.3 158v-6h.3v6h-.3zM59.7 149c.2 2-.5 4-.2 6.2H59l.3-6.3h.3zM42.6 188c0-.6-.2-1.1-.3-1.6l-.2-1.8c0-.4 0-.7.6-.8v4.1zM46.5 186l.3-2.2v-1.4l.3-.3.2.3c-.2 1.1.2 2.4-.5 3.4l-.2.3h-.1zM50.8 37.4l.9-5.2h.3a14 14 0 0 1-1.2 5.2zM53.3 105.3c-.1-1.5-.1-3 .5-4.4h.2l-.5 4.5h-.2zM51.8 116c-.2 1.6.2 3.2-.4 4.6 0-.8-.4-1.7.2-2.4v-.5c-.4-.7-.4-1.1.2-1.7zM71.1 77.5c.2 1.1.6 2.3.3 3.6-.5-1-.6-2-.3-3.6zM48.9 173.4v3.6h-.2l-.4-2.8c0-.3.3-.6.5-.8h.1zM46 154.3l-.2 4h-.2v-.3l-.2-3.3c0-.6.3-.5.5-.4zM61.4 78c0 .6.6 1.3-.1 1.8 0 .4.2.8.3 1.1l-.2.2c-.2-.3-.5-.5-.5-.7 0-.7 0-1.4.2-2 0-.2.2-.3.3-.4zM56.7 143.6h-.5v-3.9c0-.2.2-.4.3-.5h.3l-.3 1.1v1.4l.1.5v1.4zM47.6 174.7v5.4h-.2v-5.4h.2zM50.2 78.6l.3-5h.3l-.3 5h-.3zM49 146.2a9 9 0 0 1 .1-3.7c0 1.2.3 2.5 0 3.7zM47 161.6c0 1.8 0 3.5.2 5.3-.4-.5-.7-4.7-.3-5.3zM54.3 186l-.7-4.7h.2l.4 2.3.3 2.5h-.3zM53.7 137.2l.3.2c-.1 1 .6 2.2.2 3.3-.4-.3-.6-1.4-.5-3.5zM42.6 46.6l-.2 4c-.5-1-.4-3.4.2-4zM53.8 156.1c.2.8.1.8-.7 1-.4-1.6-.3-2.4.3-2.7v2.4h.1l.3-.7zM61.6 95.3v-4.7h.2v4.7h-.2zM58.5 65.7l.8-3.7h.3c-.2 1.3-.2 2.6-.9 3.7h-.2zM40.8 134.4v-4h.2c.2 1.4.1 2.7-.2 4zM61.3 49.2l-.3 3.4-.7-.2c.6-.4.5-1.1.5-1.7 0-.5.2-1 .4-1.5h.1zM62.2 74.2v3.6h-.3c.2-1.2-.5-2.5.3-3.6zM57.8 82.8l-.1 3.4c-.6-.3-.7-.5-.5-1 .3-.6.2-1.3.3-2l.2-.5.1.1zM47.2 149.5v4h-.3v-4h.3zM53.3 149v-.7c.5.6.3 2-.2 2.6-.4-.8-.4-1.4.2-1.8zM59 84.9c.7.1.7.1.5.6l-.1.7c0 .6 0 1.3-.2 2-.4-1.1 0-2.2-.2-3.3zM42 171.8c-.2-1.3-.4-2.6.2-4v4H42zM56.2 73.5l-.7 3.7h-.2l.6-3.8h.3zM66.2 77c.5-.2 1-.4.6.4v.2c.5.5 0 .9-.2 1.3l-.5 1c-.1-1.2 1-2 0-3zM68 69.5c0-1 .2-2.1.4-3.2h.2c-.2 1.1.3 2.3-.7 3.2zM61.2 198c.4 1-.1 2-.2 3h-.2l.2-3h.2zM48.1 55.7l.7-3.2c.3.6 0 2.3-.4 3.2H48zM65.5 94.7l.7 1c-.8.5-.3 1.3-.3 2h-.2l-.3-3h.1zM43.5 27.3l-.6 2.1-.7.2 1-2.3h.3zM40.6 183.7c.7.4.8 1.3.3 2.6l-.3-2.6zM57.5 105.6c.1.8 0 1.6-.4 2.4-.6-1 .1-1.7.4-2.4z"/>
        <ellipse class="st0" cx="36.4" cy="177.6" rx=".1" ry="2.6"/>
        <path class="st0" d="m49.6 60.4.4-3h.2c.2 1 .1 2-.4 3h-.1zM60.9 125.6c.6 1 .2 2 0 2.8-.2-.9-.4-1.8 0-2.8zM60.6 84.2l.7-.7.1.2-1 1.5v-2.6h.2v1.6zM54.5 82l.5-3.8h.3l-.6 3.9h-.2zM42.5 117.2l.2-3.3v3.3h-.2zM44.2 44.4c-.5-1-.3-2.4.3-2.9l-.3 2.9zM47.8 104l-.2 3.3h-.2c0-1-.3-2.2.2-3.3h.1zM57.8 167.4v-3c.5 1.1.5 2 0 3zM65 76l-.2-.3.8-2.2c.4 1-.1 1.7-.5 2.5zM56 175h-.5c-.2-.8 0-1.5.6-2.3l-.2 2.4zM43.5 170.3l-.3-1.4-.2-1.4c.5 0 .5 0 .5 2.8zM47.5 27.4l-.2 2.3c-.5-.7-.5-1.4 0-2.4h.2zM46.1 150.5 46 147h.3l.2 3.5h-.3zM36.4 186.7v3.5h-.1l-.2-1.9c-.1-1.5-.1-1.5.3-1.7zM46.5 158.6c0 1 .3 2 .2 3h-.3l-.1-3h.2zM54 152v3.2h-.3V152h.2zM56.6 181.3l-.7.3.3-1.9c.4 0 .4.3.4 1.6zM66.2 96.6l.6-.3c.3.6-.1 1.2-.3 2l-.3-1.7zM53.7 87.4c0-1 .2-1.9.3-2.8h.3l-.4 2.8h-.2zM58.1 80l.4-2c.5.7.4 1.4-.4 2zM39.3 135.4v3.4c0-1.2-.5-2.3 0-3.4zM44.8 74l.2-2.8h.2L45 74h-.2zM45.7 152.2c0-.4-.6-.7-.2-1.2l-.2-.6.4-1.2v3zM39.5 125.4c0-1 .2-1.9.3-2.8h.3l-.4 2.8h-.2zM44.3 67.5V71v-3.4zM58.5 92v-1.9l.8.6-.8 1.4zM47.6 144c-.5-.4-.5-1.4 0-2.8v2.9zM42.5 122.3v-2.2c.5.8.3 1.5.3 2.3h-.3zM47.8 87l.2-2.2h.2c.1.8.2 1.5-.2 2.3h-.2zM50.9 57.4l.5-2.5h.2l-.5 2.5h-.3zM46.1 55.1c0 .9-.2 1.7-.3 2.6h-.2c0-.9.2-1.7.3-2.6h.3zM65.3 68l1-.8v2.2H66V68l-.7-.1zM37.1 193l-.4 2.3c-.4-1.1-.4-1.6.4-2.3zM61.7 95.9l-.3 2.5h-.2c-.2-.6-.1-1 0-1.6l.5-1zM35.6 188.1l-.1-2.8h.2v2.8zM71.7 88.7c.6-.8-.2-1.5 0-2.3h.4c-.2.8.3 1.6-.4 2.3zM51.4 115.3l.3-2.8h.3l-.4 2.8h-.2zM55.6 44.1l.6-2c.3 1 .1 1.6-.6 2zM51 82.4l.4-2.6h.2c0 .9-.2 1.8-.3 2.6H51zM48 147.6v2.2h.2l.2-.3.1.1-.6.9h-.2v-2.7l.3-.1zM39 73.9l-.3 2.4h-.2l.1-2.4h.3zM40.6 128.4v-3.1h.1v3zM39.5 121.4l.3-2.1h.3l-.4 2.2h-.3zM56.7 189.1l.5 2.2-.4-.4c0-.6-.7-1.2 0-1.8zM46.3 80.7c.5.2.5 1 0 2v-2zM46 34l.3-2.4h.2l-.2 2.4H46zM59.9 185.3c-.5 0-.5-.3 0-2v2zM45.5 39.4l-.1 2.5h-.2v-2.5h.3zM58 202.5h-.3c0-.8.2-1.4.3-2.1h.2l-.2 2.1zM40 105c0 .8-.2 1.5-.3 2.3a2 2 0 0 1 .4-2.3zM63.5 89.3l.4.2-.3 1.5.3.7-.5-.4v-2zM53.8 63l.5-2.1h.3l-.6 2.2h-.2zM43.2 55.5V53h.1v2.5h-.1zM54.4 163.4v1.5l-.2.2-.2-.3.2-1.5h.2zM56.8 90.2c-.3-.8-.2-1.7.4-2l-.4 2zM66.3 107.1l-.4 1.4-.6-.4.9-1zM54.4 159.8v2.7h-.2v-2.7h.2zM67.5 129.8l.4-2.6h.2l-.4 2.6h-.2zM53.3 152.9l-.4-.2.4-1.4h.1c0 .4.2.7.1 1l-.2.6zM48.4 123v-3.2l.2 1.6v1.6h-.2zM60 192.2l-.4 1.8h-.1v-1c0-.4 0-.8.5-.8zM55.4 80.8l.5-2.2h.2l-.5 2.2h-.2zM69.2 79.7v-2.4h.1v2.4h-.1zM56.7 123l-.1-1.4c.6.3.7.9.1 1.5zM38.7 76.8l-.2 2.7v-2.6h.2zM54 84.1l.3-1.7c.4.5.4.5-.3 1.7zM62.4 94.3v-1.2l.1-.2.3.1-.1 1.4h-.3zM63.9 69.5l-.7.3.3-1.4h.2l.2 1zM65.8 107c-.2 0-.5-.3-.8-.5l.6-.9c0 .5 0 1 .2 1.4zM66.8 86.6c.6.5.5.8 0 1.3-.3-.5-.3-.8 0-1.3zM43.9 160.6v2.4l-.2-2.4h.2zM58.5 95.4l-.3 1.4h-.5a151 151 0 0 0 .8-1.4zM57 135.2v1.2l-.5.2.4-1.4h.2zM66.2 94.3l.1-1h.2l.4.7-.5.4h-.2zM46.5 178.7v2.2l-.2-2.2h.2zM58.5 181.3V180h.3c.3.5 0 1-.1 1.4h-.2zM61.2 137.1c-.1.6.2 1.2-.5 1.8l.3-1.8h.2zM55.2 194.8l-.5.7h.5l-.2.5h-.3v-.5l.3-.8.2.1zM67.9 78.5l.5.6v.5c-.6-.2-.8-.5-.5-1zM46.3 139.8c.3.3.7.6.2 1l-.1.6-.1-1.6zM56 177.3v1.3l-.2-.6v-.7h.2zM46.7 169c.9.6.3 1.4.6 1.9h-.1l-.5-1.8zM45.8 37.8c0-.7.2-1.3.3-2h.2l-.3 2h-.3zM38.3 80.1l-.1 1.8H38V80h.3zM42.6 94.5v-1.8h.2v1.9h-.1zM72.2 114c.3.6.2 1.2-.4 1.5l.4-1.5zM68.6 107.3l-.5-.6.4-.6.2 1-.1.2z"/>
        <path class="st0" d="m48 147.6.3-.6.2 2h-.2a65 65 0 0 0-.3-1.4zM61.7 127.2l.4-2v1.3l-.2.8-.2-.1zM54.3 159.5l-.1-1.2h.3v1.2h-.2zM48 52.6c0-.5 0-1 .2-1.5h.2l-.3 1.6H48zM57.8 194.4l-.3-1.3c.4-.2.6 0 .5.5l-.2.8zM54.9 169.8c-.4-.2-.4-.2 0-1.2v1.2zM59 120.8c0 .5.2.9.3 1.3-.8-.5-.9-1-.3-1.3zM57.1 120.3l-.2.8s.2 0 .3.2v.1h-.6l.2-1.1h.3zM46.4 137.9v1.5h-.1V138h.1zM39.2 134.7v-1.6h.1v1.6h-.1zM48 130v-1.4 1.5zM71.8 90c-.4-.4-.2-.7.4-.9l-.4 1zM46.6 90.7l.2-1.9h.1c0 .6 0 1.3-.2 1.9h-.1zM49 159.3v-1.8 1.8zM37.5 189v-1.6h.1v1.6h-.1zM55.9 133.3l-.1 1.4h-.2v-1.4h.3zM40.8 160.6v-1.4 1.4zM53.3 152.9v1.4h-.2c0-.5-.3-1 .2-1.4zM61.7 95.8l-.5.4V95l.5.9zM65.7 105.5v-1h.3v1h-.3zM51.4 71.4l-.2 1.5H51l.2-1.5h.2zM60 137.2l-.1 1.3h-.2V137h.4z"/>
        <path d="m65.8 39.6-.5-3h.2l.6 3h-.3zM67.2 44.4l-.6-2h.2l.5 2h-.1zM51.7 189c-.4-.4-.2-2.7.4-3.7 0 1.2-.2 2.4-.4 3.6zM52 194.4v2h.1l.4-.6c.4.8-.2.9-.6 1.1l-.2-2.5h.3zM52 182.3l.6 1.3h-.2l-.2-.6-.4 1.4h-.2l.1-1.2.2-1h.1zM50.4 193.2v1.9H50v-2h.3zM42.9 174.2v-2.4c.3.5.4 1.8 0 2.4zM63.2 63.9c.4.5.4 1.9 0 2.7v-2.7z"/>
        <path class="st1" d="m446.1 154 .2 1.9c0 .3.3.6.7.6 1.8.4 3 1.4 3.5 3.3.2.8.3 1.6.3 2.5.1 3 .2 5.9.8 8.8.3 1.8 0 3.5-.1 5.2v.4c0 2.2-.7 4.3-1 6.4-.1 2.2-1.5 3.7-3 5-1.3 1.5-3 2.2-4.8 2.9l-1.8.8-4 1.4c-1.8.7-3.8 1.1-5.8 1.4l-7.2 1.5c-2.4.5-4.9.9-7.4 1.1-3.9.3-7.8.9-11.7 1.5-2.7.5-5.4.7-8 1.1l-3.4.6-2.8.9c-2.8.9-5.7 1.5-8.6 2l-10 1.6c-2.7.5-5.4 1.3-8.2 2l-3.2.4-3.1.6c-2.7.6-5.3 1-8 1.3-3.8.5-7.6.4-11.4.6l-9.3.4-10.3.6c-3.2.1-6.4.2-9.5.1-3.2 0-6.4-.2-9.6-.4-2.3 0-4.6-.2-7-.4-.5 0-1 0-1.5-.2-1.9-.4-3.9-.7-5.7-1.6l-2-1.4a13.3 13.3 0 0 1-3.2-5.8l-.4-1c-.5-1.2-.6-2.5-.8-3.7-.2-1.7-.5-3.3-.6-5l.3-5.5c0-.7.2-1.4.3-2l.6-3.6a9 9 0 0 1 1.6-4c.4-.5 1-1 1.7-1.3 1.3-.6 2.7-1.3 4.3-1.3l5.5-.3h.4c0-1 .8-1.3 1.7-1.5 2.2-.6 4.3-.8 6.5-1a8 8 0 0 0 1.7-.3c.5-.2.9 0 1 .4.4 1 1 .8 1.9.8 1.8 0 3.5-.6 5.3-1 2-.4 4.2-.6 6.3-.8l7.2-.6 6.9-.4c1.5 0 3 0 4.6-.2 2.3-.2 4.6-.4 6.8-.8l6.7-1 5.2-.8 4-.7 2.9-.3 3.7-.4c1.4-.2 2.9-.6 4.3-.5 1.6.1 3-.3 4.6-.4.8 0 1-.2.8-1l-.6-2.4-3 .5-6.4.8c-3 .3-5.9.3-8.8.2h-7.6l-4.3-.3-6.4-.4-7.7-.7-8-.3c-2.7 0-5.4 0-8-.2-2 0-4-.3-6-.5a969.9 969.9 0 0 1-14.8-1.7c-.7-.1-1.3-.5-2-.8l-3.9-2-4.3-2.6c-.7-.3-1-.8-1.2-1.6l-1-5.7c-.2-.3-.2-.8-.2-1.2l-.6-6.4a2 2 0 0 0-.3-.9c-1.2-1.7-2.1-3.5-3-5.4-.3-.9-.4-1.8-.2-2.8l.6-4.8c.2-2.1.7-4.2 1.3-6.3l2.2-6.5 1.8-3.9c1.9-3.3 3.7-6.7 6-9.8.5-.8 1-1.7 1.7-2.5l.7-.9c.1-.1.4-.3.3-.5-.1-.8.6-1.2 1-1.8.3-.5 1-1 1.5-1.3.3-.2.8-.4 1.1-.3.7.3 1.4 0 2 0 1.5-.2 3-.4 4.5 0h.6c2.4.1 4.8.1 7 .5 1.4.1 2.8 0 4 .5.7.3 1.5.2 2 .6h.5c.5 0 1-.1 1.6 0a393.3 393.3 0 0 1 13 1.8c1.8.3 3.6.7 5.4.7l1.4.1 4.2.3 4.5.4 5.2.4 2.3.4 4 .5c3.2.5 6.2 1 9.3 1.3l2.8.3 7.3.9h1.7l3.2.5 5.4.7c1.1 0 2.2.3 3.3.4l1.2.1 3.8.5 1.9.4 3.8.7 3.8.4 5.5.7 4.8.5c1.3.1 2.7 0 4 .5h1c.8 0 1.6 0 2.4.3.5.2 1 .2 1.6.2 1.4 0 2.8.2 4.2.6 1 .3 2.1.3 3.2.5h1.2l3.6.8c.6.2 1.3.2 1.9.3 1.7.3 3.2 1 4.7 1.6a21.8 21.8 0 0 1 6.4 4.8l2 4 .3.5c-.2 1.3.3 2.4.7 3.6.4 1.4.4 3 .8 4.4.2 1 .2 2 .1 3 0 .7.3 1.3.3 2l-.3 3.2.1 1.3c.1 1 .2 2 0 3-.2.5 0 1.1-.1 1.7l-.5 2.7-.4 1.6-.6 2.7c-.2 1.4-1 2.6-1.7 3.8a9 9 0 0 1-2.7 2.7l-1 .7zm-85.2-7.8c-.1-.2-.2-.4-.5-.1h.6l1 .3v-.2h-1zm-28.4 39.4.6.3.2-1c1-.1 2.1-.4 3.2.3-.6-.6-.8-1.4-.6-2.3h-.2l-1.4 1.1-.9-.6v.8c-.2.2-.3.5-.1.7-.6 0-.5.5-.7.7l-.5.6c.4 0 .5-.3.4-.6zm39.6 15c-.5 0-1 0-1.5.2.5-.1 1 .3 1.5-.3l1 .1h-1zM331.3 116c-.4-.1-.4-.1-.6.4l.5-.4c-.2.4-.2.7.4.8 0-.4 0-.7-.3-.8 0-.2.2-.3.3-.5l-.2-.1-.2.5v.1zm16.8 16.4-.8-.2v.2h.8c.4.3.8.5 1.3.2-.4 0-.9 0-1.3-.2zm-29-13-.6-.4c-.4.5-.2.7.1 1l.4-.6.7-.2c-.4-.3-.6-.2-.6.2zm38.4-7.8-.6-.5c.1.6.4.5.6.5l-.3.7c.5-.2.9-.1 1-.7h-.7zm-16.2 80.9c-.3-.4-.6-.3-.9 0v.3l.4.1c-.2-.5.4-.2.5-.5l.8.1c-.3-.3-.6-.8-.8 0zm52.5-85.2c-.7 0-.7 0-.7.5l.7-.5-.1 1.3.7-.4.6-.2c-.2.5-.1.6.4.8.4 0 .5-.1.4-.4l-.8-.4c-.4-.2-1-.1-1.2-.7zm-43.5-1h.1c-.9 0-1.6-.3-2.3-1-.2.3-.4.6-.3.8 0 .7.6 1 1.3.9h.5c.4.3.8.6 1.2.2.4-.5-.2-.7-.5-1zm-11.9 37.8c.3.5.7.5 1.2.4v-.6l-1.2.2c-.1-1.1-.5-1.4-1.5-1 .9 0 1 .5 1 1.2l.5-.2zm-37.1-15.7 2.2.5c-.7-.3-1.4-1-2.3-.5v-.4c-.8-.4-1.8-.6-2.7-.6l2.8 1zm41.3 15.6-.7.5c1.7.5 2 .5 2.4 0-1.2 0-1.2 0-1.7-.5l-2-.7-.8.4c1 .4 2 .4 2.8.3zm10.5-37c.9.8 1.1.9 2.2.3-.8-.2-1.5-.2-2.2-.2l-.9-.2v.2h.9zm2.6 91.8 1.2-.2c.5 0 .7-.2.7-.6-.6 0-1 0-1.6.2-.3 0-.3.3-.3.6-.8-.5-1.6-.6-2.6 0h2.6zm57.4-77c.2-.5 0-.8-.4-1v1h.4l-.7 2.2 1.4-1.2-.6 1.8h-.3l-.9 1c-.2.3-.5.7-.2 1.3.3.3-.3 1.2-.7 1.3-.6.1-1.2.3-1.8.2-.5 0-.9.2-1.2.6-.3.4-.6.6-1.2.3h-1.2c-.6.2-1.3.2-1.7-.2-.5-.4-1-.5-1.7-.3.1.7-.3 1-.9 1.3l-.7.7c1 .2.8.7.8 1.3-.4-.3-.8-.4-1 0-.2.7-.7.7-1.2.8l-.6.2c-.5.3-1 .6-1.5.5-.4 0-.7.1-.7.7h2.8c.6 0 1.3 0 1.9.2 1.3.3 2.5-.4 3.8 0h.4l1.1-.1h1.3c.5 0 1.1 0 1.2-1l.7.8 1.3-.2c.6 0 1.2-.3 1.6.3l.5.1 2.8-.1h2.3c.6 0 1.4 0 2 .2 1.2.2 2.2 0 3.3.2.6 0 1.3-.2 1.7 0 .6.6 1 0 1.5 0l.9.2.5.2c1-.3 2 0 3 0h3.6c.7.1 1.5.2 2.2 0v-1.4c0-.2-.2-.4-.6-.3l-1.8.3c0-1.2-1.6-1.9-2.9-1l-.2-.6c1-.2 1-.3.6-1.3-.5.2-1 .3-1.2-.3l-.1-.6 1.2.1.6-.9-.5-.5.8-.5h-.9l.1-1.2-.9-.1.5-.7c.4-.7.2-1-.4-1.5-.6-.5-1.2-.5-1.9-.7-1 0-2.2.8-3.5-.1v1c.2.8.2 1.6.1 2.4v.7h.4c.2.8.4 1 1.1.6l.5-.1 1.3.1c.3.8-.1 1.7 0 2.5l-1.2.4-1.2.4c-.3-.7 0-1 .4-1.2.2-.2.3-.4 0-.7l-1.8.2.2-.8c-.5 0-.5 0-.8.5l-1.3.6c-.2-.4.5-.9-.2-1.3l-1.4 1h-.2l.5-1.6.5.1c.7-.3 0-1.4 1-1.6 0 .3 0 .6.2 1 .3-.3.5-.7.3-1l-.8-.7-.8.5-.2 1.3h-.3l-.1-1.7h-.8c0 .3 0 .6-.2.9l-.2.2a.6.6 0 0 1-.4-.2c-.2-.2-.2-.5-.3-.7l.5-1.3.4-.6c0 .4.1.9.7 1 .9-.3.9-1.1 1.1-2l-.8.2v.7c-.5-.7-.7-.1-1 .1.3-.7.3-1.4.2-2.1l-.1-.3-.7.2-.3-.2c-.7-.7-.9-.6-1.7-.3-.5.2-1 .6-1.6.3 0-.3-.5-.5 0-1 .2-.1-.1-.6-.5-.6l-.7.3c.3.7.3 1.3.1 1.9-.8.2-.7-.6-1-.9l-1 .8c-.1-.4.2-1-.6-1zm-48.9 56.2c.4-.5 1-.9 1-1.6-1-.2-.7 1.2-1.6 1.1l.6.5 1 1c-.7.7-1.6 1.3-1.4 2.4.2.4.1.7-.2 1-.2 0-.5-.3-.6-.2-.3.2-.6.2-1 0l-.4.2c-.2.6-.7.5-1.1.5 0 .7 0 .9.3 1 .6.2 1.1.6 1.5 0l1.2.4h.5c.3-.9 1.2-1 1.7-1.6-.5-1.4-.6-1.4-2-1.3l.8-1.3c.5.2.8-.1 1-.6-.1-.8-.4-1.4-1.3-1.5zm-40.6 21.2c1.3-.2 2.7.1 4-.3 0-.2-.2-.3-.4-.3l-3.2.2-.4.4h-1 1zm61-80.7-.8.5c0 .2 0 .3.2.4l1.4 1.4c.2.1.4 0 .8 0l-1-1.5-.6.3c-.3-.4-.3-.7 0-1h.8c-.6-.3-.6-.3-.8 0zm-52 56.6-.6.6c.6 0 .4-.4.6-.6l-.4-.3.9-1 .1 1.6 1-.7.3.6c.4 0 .7-.6 1.1-.1l.8.7.6 1.2c.9.2 1.1-.3 1.4-.7 0-.5.6-.6.8-1 .3-.6.6-.4 1-.2v.7c0 .4.3.7.8.7h3.4v-.8c.8-.1 1 .6 1.2 1.2.2.4.4.5.8.6l.1-.8.5.7 1.2-.4v.7c-.4 0-.6.1-.9.5l.4.8.5-1.3c.2 0 .3-.1.4-.3.3-.4.6-.5 1-.1.3.2.8.2 1.2.3l.1-.5.2-.4c.6.3 1.3.3 1.9 0 1.1-.6 2.3-.8 3.5-.3l.6-1.4c.2-.4 0-.7-.4-.8-.6-.2-1.2-.2-1.7.2-.9-1-1.8-1.5-3-1.4l.5 1-1.2.4-.3-.8c-.4 0-.6 0-1 .2l-.1-.6h-1.2c-.2-.1-.6-.2-.7 0-.9.7-1.6.2-2.4-.2-.4.4-1 .3-1.1 1-.3-.6-.8-.7-1.3-.9-1-.2-1-.2-1.4.9-.7-.2-1.3-.5-2-.6h-3.3v.8l-.2.8-.7-.1c.7-.8 0-1-.4-1.5l-1 .5-.3-.3-.8.2c-.6-.5-1.1-.1-1.5.3l-1.2-.4c.1.4.1.7.3.8l.8.4v.5l-1.1.7.2.8.5-.5c.6.2.7.7.7 1.2-.2.3-.8.2-.6 1l.3-.5c.5.4 1-.2 1.3-.2.6.1.4-.4.6-.5 1 0 1 0 1.4-1.6l-1.7-.1.2.6-2-.2.1-.8 1.2-.3zm18.8 5.4.8.7.7-.5.1.7c.4-.6.7-1 1.3-1.2l-1.4-.3c-.6 0-1 .3-1.5.6-.4 0-.7.2-.7.7 0 .3.2.6.6.5v-1.3zm44.8-47-1.7-.4c-.8 0-1.6-.2-2.3-.3l-.6.3.2.4 1.7.5c.6.1 1.3-.4 1.8.2l.9-.6c.4-.2.3-.5.2-.8-.5.1-.3.5-.2.8zM342.4 197l-.3.2-2 .2c-.4 0-.9.4-1.3.1-.2-.1-.6 0-.8 0v.8c1.2.3 2.3-.3 3.4-.1l.3-.4.1.6.8-.5-.2-.9c.3.2.5.5 1 0h-1zM445 149.8c-.2.1-.2.3 0 .4.5 0 .5-.3.8-.7l-.8.2c.3-.4.3-1 .3-1.5l-.7.1c-.5 0-1 .6-1.5-.2 0 0-.3 0-.5.2l-.6.7 2.1 1c.4.2.6 0 .9-.2zM348.2 192h1v-1l-1 1c-.2-.5-.5-.6-1-.2-.3.3-.6.4-1.1.3-.8-.3-1.5 0-2.3.2.5.1 1.1.4 1.4.2.6-.3 1 0 1.4.1l-.8.7 1.8.3 1.7-.1c-.2-.6-.6-.7-1.1-.6H347c.2-.7.6-1 1.1-.9zm36.4-76.9c0 .5.2.7.7.7h1.2c-.2-.6-1-1-2-.7l-1-.4-.3-.3c.1-.6-.3-.5-.7-.6-.5 0-1-.1-1.4.3l-1.2-.6c-.5-.2-.1-.8-.5-1.1l-.8 1.3 1.2.6c.3.3 0 1 .8 1 .3-.3 0-.9.7-1 .4 0 .8-.4 1.1 0v.7c.5.7.6 1.3.2 2-.2.4 0 .8.4 1l.3-1.6c0-.3 0-.6.3-1 .3-.3.6-.2 1-.3zm8.4 11.9-.5.2c-.5 0-.7.2-.5.6v.6l.5-.5 1.7.1c-.2-.7-.9-.6-1.2-1-.2-.6.2-1 .6-.9.5 0 .7-.2 1-.4l.4-.4c-.1-1-.7-1.5-1.5-1.8l-1.8 1h1c.6-.2.8.3 1.2.5h-6l1.6.6 1.8.1c.3 0 1 .2 1 .4 0 .5.5.6.7.9zm-29.5 48.7h1.5c.3 0 .5 0 .8-.2-.3-.3-.5-.5-.6-.8-.2-.3-.2-.7-.2-1-.6 0-1.2-.2-1.5.5l.7.2c-1 .7-2.1.5-3 1v-.4c-1.3-.3-2.5.3-3.6-.7l.1 1.4c.8-.2.9.6 1.4 1 .4-.2.8-.6 1.3-.2.4-.3.9-.3 1.4-.2.4-.7 1-.4 1.7-.5-.2.3-.5.5 0 1v-1zm11.6-.3h-.7l.5 1.2c.6-.2.9 0 1.1.6.3.5.4.5 1 0-.6-.4-.3-1 0-1.6-.8 0-.8-.6-1-1.2l-.3-.5c-.5-.3-.6-.7-.3-1.2l.3-.5h-.8c-1.1.1-1.2 0-1.5-1 0-.3 0-.7-.5-.9l-1.1 1.3 1.7 1.6c.4.4.5.9.3 1.2-.4.4-1 .5-1.4.3l-.5-.2c.3.8 1.2 1.3 1 2 .5.5 1.1.8 1.4 1.2.3.7.9 1 1.5 1.3l-.7-.8c-.1-.2-.4-.4-.4-.6-.2-.8-1-1-1.6-1.4 0-.8.4-1.3 1.2-1.6.3.2.8.3.8.8zm-3-64c-.2.6-1 0-1.3.4.2.6.6.2.9.3.3.1.5.4.9.7.5 0 1.2-.2 2 0 .4.2.9.3 1.2.7.2.4.6.4 1 .2l.5-.4c.8.3 1.1-.2 1.5-.7-.3-1-.6-1.3-1.7-1.4v-.9H375.4c-.2 0-.3-.2-.4-.4-.3-.4-.6-.3-1 0h-.3l-.3-.6c-.6.2-.3.6-.2.8.2.3.3.6 0 .8-.4.3-.6 0-.8-.3l-.3-.2v1zm-7.3 79.7.3.8c1.8-.2 3.6-.3 5.3-.6l4-.3.8-.2c-.2-.8-.2-.8-.7-.8-.5-.5-1-.7-1.4-.4l-1.3-.4c-.6-.2-1.3-.2-1.7-.5-.9-.5-.8-.6-1.4.1l.6 1.2-.7.2c-.2 0-.4.2-.5.3l-.2-.2v-.6l-.4-.6-.6.4v.5c-.2 1-.5 1.2-1.5 1-.2-.1-.4-.1-.5.1-.7-.2-.8-.2-1.4.7.4 0 .7.3.9-.2 0-.2.3-.3.4-.5zm75.3-62.3c.2 0 .4.2.4.3 0 .8.4 1.7-.5 2.4.3.1.5 0 .6.2.3.6.8.4 1.3.4h.4l.2.5c.4-.3.7-.5.8-.8.2-.5.4-1 .4-1.6 0-.2-.3-.4-.5-.6-.4-.3-.6-.7-.6-1.2l-.7.2-.3-1.2.8.2c-.3-.6-.6-.8-1.2-.6-.3 0-.6 0-.7-.4-.2-.5-.6-.4-1-.3-.2.4 0 1-.6 1-.5 0-.8-.3-.8-.8l-.8 1.1c-.2.4-.8.5-.5 1.1.8-.4.8-.4 1.5.3l.2.1 1.6-.3zM402 114l-.5-.3c0-.3-.2-.5-.1-.8l.6-.2h.2c-.7-.7-1.2 0-1.7.3l.4 1c.1.2 0 .5-.3.5l-.8.2c-.5 0-.6.4-.6.8h-.1c-.6.4-1.2.5-1.8.5-.5 0-.8 0-1.2.2v1.1c-.3 0-.8.3-1 .1-.5-.4.3-.6.2-1.1l-.4-.6-.8 1.8c-.7.2-.5-.5-.8-.8-.2.3-.7.6-.6.8 0 .6-.3.6-.6.7 0-.6 0-1.2-.6-1.6 0-.8.2-1.5.7-1.8l1.3.6 1 .2c.9 0 1.5-.7 1-1.5l-.1-.4c-.7.3-.5 1-.9 1.7l-.3-1.5-.6.6-1.8-.8-.8.5c-.3.4 0 .7.1.8l-.8 1.2c-.4-.5-1.3 0-1.4-.8l-1.3.2c-.3.1-.5.4-.3.5.4.4.9 1 1.3 1 .8 0 1.1.3 1.4.9l.4.2.2-.8h.2l.2 1.2 1.1-.4.3.3c1 .3 1.5.9 1.6 2l-.8-.3c-.2.6-.2.7.7 1.1v-.9l.7-.7.8.2v-.9l.6.3c.5-.7.5-.7 1.2-.4-.6.3-.6.3-.1.8.2.2.2.7-.2.9h-.6c-.3-.3-.7-.3-1.3-.2 0 .4.2.7.3 1.1.4-.4.4-1 1-.9.5.5 1 1 .9 1.7-.2-.2-.3-.7-.8-.2.2.3.4.6.8.2h.3l.8-1.7c0-.3 0-.8-.2-.9-.5-.2-.4-.5-.4-.8 0-.6 0-1.1-.3-1.6 0-.5 0-.7.5-.9.2 0 .3.2.5.3 1 .5 1 .8.8 1.9v.7l.4 1.7.6-.2c.7-.2.7-.2.6-1V118.5l-.2.3c-.3-.3-.6-.5-.8-.9-.2-.3-.3-.8 0-1.2.2 0 .4-.2.6-.1 1 .4 1 .4 1.7-.2l.3-.2.3.7 1.4.2.7-1.1.5 1.4 1.7-1.6 1 .4c-.5-.6-1-1-.4-1.6l.1-.1-.2-1.6c-.5 1.1-.8 1.4-1.7 1.3v-.4c0-.2.2-.3.3-.5-.5.1-.8.2-.7.8 0 1 0 1-.7 1.1l-.4-2h-.3l.1 1.1c0 .4 0 .5-.4.6 0-.2-.2-.4-.3-.5-.3-.9-.6-1-1.4-.4zm-90 64.7-1.2-.3v-.6c-.3.5-.7.7-1.2.4l-.5.7c.1.3.4.6.3.8-.2.4-.2 1-.1 1.4l-.3.6-.6-.8-.2 2.7-.8-.7c0 .5-.2.8-.3 1.1 0 .5-.3.7-.8.4v3l.6-1.2c.8 0 1-.1.7-.8-.2-.8-.1-1 .6-1.2l.4-.2c.1-1.5.1-1.5.5-1.6l.2 3 .9-1c0 1.1 0 1.1.7 1.3.6-.3 1-.8 1.5-.8.8 0 1.3-.3 1.5-1.2l.9.7c.2.1.5.3.8.3l1.9-.3c-.1-.7-.1-1.3-.4-2-.2-.4.3-1.2-.5-1.6l-.3 1-.6-.3c0-.7-.7-1-1-1.4-.2-.4.5-.7 0-1l-.6-.7c-.2.6.5 1.2-.1 1.7-.6-.6-.2-1.5-.8-2.3-.1.9-.6 1-1.2.9l.4-1.3c-.8.5-.5.9-.3 1.3zm14.6-75.5c-.3.8-.3.8.3 1-.1-.3.2-.8-.4-1v-.5l-1.1.3c-.2-.7-.2-1.2.4-1.6l-.5-.2-1 1-.4-.5-.9 1.6c0-.4-.1-.7-.3-1 0-.2-.2-.3-.3-.5l-.5.4-.1.2h-1.1l-.3 1.1c-.3-.3-.5-.6-.7-.6-.2-.1-.5 0-.8 0l-.4-1h-.7l-.9-.7h-.7l-.6 1.2-.2.6h-.2c0-.4-.7-.6 0-1.1l-2.2.1v1c0 .5-.4.3-.7.1l-.1.5 2 1.5.1.8-.2 1c-.5-.7-1.2-1-1.9-.9-.4 1.1-.3 1.3.7 1.7.4 0 1 0 1.2.3.8.6 1.7.3 2.5.5l.1.5c.5.2 1-.3 1.4.2l.5-.3-.3-.4-.9-.4v-1.5l1.4.2v.6l.1.5.8-1.3.6-1.4.2.5c.2 1 .4 1.1 1.3 1.2 1 0 1.2.2 1.2 1.3 0 .3.7 1 1 .9l.2-.8 1.8 1.2c.4-.2.6-.4.9-.4.6 0 1-.3 1-.9l-.2-.8c-.1-1-.3-1.8-1.3-2.3l-.8-.5c.3-.5 0-1.4 1-1.4zm47-3-1.6-.2c.6.6 1 .2 1.6.1 0 .4.2.7.5.6 1-.2 1.5.3 2.1.9.4.3.7.4 1.1.4h.7l-.3.8c1.3.5 1.9-.2 2.4-1.2l.5.3.5-.6 1.6 1.4.6-.4 1.6.6v.8h1.7v1.7c.6-.4.1-1 .6-1.4.4 0 .8.2 1 .6l.5.5c.7.3.6.8.5 1.3-.5 0-1-.5-1.3 0 .3.7.9.3 1.2.5l.3.7h.3c-.2-.8.1-1.4.5-2.1-.5-.3-1.2-.3-1.4-1l.5-.2c.5.6 1.2.4 1.9.5 0 .4-.1 1 .6 1v-.6c1.1-.5 1.9.5 2.8.6.4.5-.4 1.2.4 1.7l.3-1-.2-1.1c.4-.1.7 0 .7.4 0 .6.4.7.8 1-.4 1-.3 1 .4 1.3 0-.8 0-1.6.7-2.1 1 .5 2.3.2 3.1 1 .8-.2 1.5-.2 2.3-.2.7 0 1.2.1 1.6.6.2.2.6.4.9.4a9 9 0 0 1 3.4.6c.4.2.8 0 1.3 0l.6-.1c.6 0 1.3.5 2 0l.2.2c.4.4.8 0 1.1 0 .8 0 0 1.1.8 1.1.1-.8.3-1.1.6-1l.3.6c.4-.2 0-.7.5-.8.7-.2.5.5.8.6l.4-1.9.5.2c.6-.3.7 0 .8.5.1.8 1.1 1.3 1.9 1 .2-.2 1.3-.4 1.6-.3.6.1.6.1.9-.7l-.7-.3-2.9-.7-2.8-.3-5-.7-7.5-1.1-7.3-1.2-5.4-.7-8.3-1.4-3-.6-5.7-.5-1.1-.2zm67.7 22.5-.4.8h.1l.5-.2.4.4c.6.5.6.5.2 1.3 0 .2-.2.5 0 .6.1.2.4.2.7.4 0-1.4.2-1.7 1.4-2.4l.3.8c0 .4 0 .8.2 1 .2.3.6.6.9.6.4 0 .4-.4.5-.7 0-.8.2-1.5.3-2.2.2-2 .7-4.1.7-6.2 0-1.4-.7-2.5-1.4-3.6-.8-1-2-1.2-3.1-1.4l-5.8-1c-1.2-.2-2.4-.3-3.5-.8-1.3-.4-2.7-.6-4.1-.5l.7.4h1.2c.3 0 .6.1.5.5 0 .4-.3.4-.6.3l-.7-.2c-.7 0-1 .4-.9 1l2.3.3.5-.4 4 .6c.1 1 .5 1.4 1 1.2.7-.4 1.3 0 2 .1v-.3l1.5.7c.2.1.3.4.2.5l-.2.5c.6.5 1 1.4.6 1.9l-.7-.2v.7c0 .3.1.5-.3.7l-.3-.8-.7.9-1.4-.3c-.4-.1-.8.4-1.3-.2l1-.4-.9-.3c-1.2-.2-2.5-.2-3.7-.6-.8-.3-1.6-.3-2 .6l-.2.1-.7-.7c-.7-.6-1.7-.6-2.5-1l-1.1-.1c-1 0-1 .1-1.5-.7l-.5.1c0 .5-.2 1 0 1.5.1.2.4.5.3.8-.1.5-.7.1-.7.2-.2.4-.6 0-.8 0-.3.2-.7.1-1 .2l-.1-1c-.4.7-.4.7-.1 1.3.5 0 1 0 1.5-.2l-.1 1.3c.8.9 1 .9 2.4.4l.8.8.2-.1c0-.2-.2-.3-.3-.4l-.7-.3c.2-.4.4-.4.7-.3l1 .5.2.7 1.5.7.2-.8c.3.3.6.5.7.9l.1 1c.8 0 1.6-.4 2.2.4.8-.6.8-1.4.6-2.3-1.1.7-1.9 0-2.7-.6l1.1-1.3c.6.8.6.8 1.3.7l.8 1c.3.4 1.2.5 1.6.1.4-.4.8-.4 1.4-.4.8 0 1.7.3 2.5-.4.5-.4 1.3-.6 2-.2l.2.7-1.7.4-1.4 1.7h.8c.5.8 1 .6 1.7.3l.6.9zM287.4 196c.5 0 .6-.5.7-.9 0-.5.2-1 .3-1.4.8.4.8.4 1.2 0l-.5-.5h1.4l.4-1.7c.2 0 .3 0 .5.2l.3-.9c0-.6.4-1 1-1v1.2l.8-.7c-.4-.7-.4-1.7-1.4-1.5 0-.3 0-.6-.2-.8-.2-.3-.3-.5-.1-.7l.2-.5 1.3-.5.3.4c.2 0 .5 0 .8-.2 0 .4.2.8.3 1.1-.5.5-1.4.2-1.7 1h1c.3 0 .5.1.4.6-.1.5 0 .9.3 1.3v.3c0 1 0 2 .3 2.9.2.7.3 1.5.9 2l-.6 1.2.8.3c0-.5 0-1 .2-1.3.3-.7.3-1.5.3-2.3l-.3-3.2a11.2 11.2 0 0 0-.8-3.8l-.8-5.4-.8-4.2-.5-2-8 .8.3.5-.6.3-1 .3c-1 .3-1.3.8-1.3 1.7l.4 4.6.8 4.2.4 2.4.3 1.4.2.8c.2 1.7 1 3.2 2.1 4.5l.5-.5zm-7.2-76.6-.1-.5c0 .3-.5.6.1.5l-.3 1-.2 1 .4 3.6v1.2c-.3.9-.6 1.7-.6 2.6 0 .2-.2.4-.4.6l-.5-.6v-1c-.2.7-.4 1.4 0 2 .8 0 .8 0 1 .7l.3 1.8c.1.5.3 1.2.6 1.4.5.3.8.7 1 1.1.8 1 1.5 1.8 2.5 2.2l.5.4c.6.7 1.5 1 2.2 1.4l2 1c.5 0 1 .4 1.4.6l3.1 1 2.7.5h.4c.4-.6.8-.4 1.2-.3l3.5.6.6-.1-.7-.3c-1.2 0-2.2-.7-3.3-.8-.6-.1-1-.5-1.6-.6-1 0-1.8-.6-2.6-1-1.7-.7-3.2-1.6-4.8-2.5l-.7-.5c-.6-.3-1.2-.8-1.9-1-.2-.2-.6-.4-1-.1.5 1.1 1.8 1.5 2.5 2.5-1.7-.7-3-1.6-4-3l-.2-.4c-.2-.6 0-1.2.7-1.4l.8-.2-.2-.8c-.3-1.3 0-1.8 1.3-2.1-.2-.4-.3-.9-.9-.8l-.2-.2-1-2.5c-.2 0-.4 0-.7.2.1-.8.1-1.5 1.1-1.4l.5-.5v-.9c1.2-1 2.3-2 2.4-3.7h.4c1 .2 1 0 1-.9 0-1.1.3-2.3-.2-3.4v-.2l.4-3.4c0-.7.4-1.4-.2-2v-.5c.1-.7-.2-1.4-.4-2-.2-.2-.3-.5-.3-.8 0-.5 0-.6.8-.7l-.4-.9c-.1-.5.2-.3.5-.3v-.4c-.4-.8-.3-1.5.2-2.2l.1-.4c.1-1 .5-1.8 1-2.6l.1-.5h-.2l-1.4 1.9c-.4.6-1 1.1-1 2l-.2.4c-.5.8-.8 1.7-1.9 2 .7.2.8.4.5.8l-.5 1c-.2.9-.6 1.5-1.4 2-1 .4-1 1.2-1.1 2l.2.1.6-.8h.2l-1 4.2h-.3l-.3-1.5-.2 1.1v1c-.8 0-1.2.5-1.1 1.4 0 .5-.2 1.1-.7 1.5l1 1.9c-.7.4-1 0-1.1-.5zm166.5 40-.7-.7v1.2c0 2.5 0 5 .2 7.4 0 .7-.2 1.5.5 2.1v.6l-.7 1.6c-.4.5-1 .8-1.3 1.3-.3.4-.6.7-1 .6h-.6l-3 1-5.6 1c-1.4.4-3 .6-4.3.9-1 .2-1.7.7-2.6.2-.3.7-.3.7.3 1.9.3-.3.6-.7 1-.8.3-.2.7-.1 1.2-.2l.3-.5c.7 0 1.4-.2 2 .2v.9h.1v-.9c.1-.4.5-.5 1-.5a8 8 0 0 0 2.1-.4c.5-.2.8 0 1.1.3l.5.6h1.4l.8 1v.3l.1.6-.2.6c0 .5-.3.7-.7.8l-1 .3-.6-.7c-.5 0-.8.4-1.3.6l-.3-1-.5.6-.4.4c-.7.2-1.4.4-2.1.4-.6 0-1 .1-1.5.5-.5.3-1 .9-2 .6 0-.1-.3 0-.4.2l-.6.4c-.5 0-1 0-1.3-.3-.4-.2-.6-.6-.8-.8l-1.9 1.5c-.8-.2-1.6-.4-2.3.2-.1.2-.5 0-.8 0-.1 0-.2 0-.3-.2h.7l.2-.8c-.6-.2-1.2-.2-1.5-.5-.5-.4-.8-.4-1.3-.3v-.7c.3 0 .7 0 1-.4 0-.2.7.4 1-.2 0-.8-.7-.2-1-.5l.8-1-.9.3c-.6 0-1 .1-1.3.7-.1.3-.4.8-1 .7 0-.7 0-.7-.5-.8 0 .4.5.7-.1 1.1-.4-1-1.4-.4-2-.8-1 .3-2-.4-2.9 0h-.5l.2-.3c-.8-.3-1.4.2-2 .5l-1.3.5-.2-.6-.7.5c-.2-.4-.3-1-.9-.6v.6l-1.6.2-1.8-.1c-.2-.7-.7-.3-1.1-.5.6.8.7 1.9.2 2.6-.2.2-.5.4-.7 0-.4-.4-.9-.2-1.3-.4l-.8.8.2.6c.1.6-.3 1-.6 1.3-.3.4-.5 0-.8-.1h-.5c-1 .4-2.1.3-3.2.4-.3 0-.6.1-.5.5 0 .7-.5.8-1 1-.7.1-1.2.5-1.3 1.2-.3-.1-.3-.1-.5.4l.5-.5c0 .5.4.3.7.3a610.5 610.5 0 0 0 18.2-2.9c.6 0 1.1-.4 1.7-.4 2.2-.2 4.3-.6 6.4-.6l1.7-.2 1.3-.2c1.2 0 2.4 0 3.6-.2l3.8-.5c2-.2 4-.2 5.9-.6 1.6-.3 3.3-.5 4.8-1 1.4-.4 2.7-1 4-1.3.3 0 .6-.3.8-.5 1-1 1.7-2.1 2-3.5l1-6.5.2-4.6-.1-4.3c0-.6-.1-1.3-.8-1.7zm-101.6 24.8-1-.7h-.3c-.3.4-.6 0-.6-.2.1-.8-.5-1.4-.7-2h-1.8l-.8 1-.9-.6c-.7.1-1 .6-1 1.3v1.3l-.9.3.7 1-.7 1v-1c-.9.2-.1 1-.6 1.3-.9 0-1.7-.3-2-1.2-.1.3-.2.8-.4 1-.8.7-2 .4-2.6-.5l-.6-.8-.4 1.6.3.6.3.4c.4.3.2.6 0 .8h-.7l-.5-.6-.6-.5.2-.5c-.6 0-1.1.3-1.6-.2l-1.4 1c-.3-.4-.5.3-.7 0l-1-1.2h1l-.2-.5 1.6-.2c-.1-1.1.3-1.5 1.4-1.3l1.1-1.4.1.4 1.7.5.6-.5c0-.4-1-.8 0-1l-.5-1.6c.7 0 .5.7 1 1 .2-.1.6-.1.7-.3.2-.3.2-.8.3-1.1.5-.3.8.6 1.5.2l-1.8-1.5v.1l.2.5c-.6.5-.8-.1-1.2-.1l-2.6.1c.5-1 .5-1-.3-1.5l-.2-2-.6.2c-1 0-1.6.4-1.7 1.4 0 .2-.2.3-.3.5-.2-1-.7-1.5-1.6-1.5-.4 0-.5.3-.5.7.4.2 1 .3 1.2.7.2.6.7.6 1 .9.3.1.4.3.2.5-.5.8-1.6.3-2.2.8-.5-.5-1 0-1.6-.1v.4c-1 0-1.8-.5-2.6 0-.5-.4-.8-.8-1.3-.6-.3.5-.6 1-1 1.3 1.1 1 1.1 1 1.1 2.3l.2 1.1c.2-.9.2-.9 1-.7v1c.4-.5.2-.7 0-1 .2.2.8 0 .7.7l.1.2c.8-.2.7.4 1 .8l-.6.5.7.4c0-.5.2-1 .8-1.1l.8.1-.2.8.8.6c-.3.2-.5.5-.7.5h-2.2c-.3 0-.6-.4-.9-.6-.7 1.1-2 .4-3 .6l1 1.4h.1v-.8l1.5.7.1-.4h3.9l2.5.3h.7l.5.5-.3.6-.9.3-.5.2.5 1-1 1 .1.2.1.4c-.8.2-1.3.1-1.4-.2l.6-.3-.2-.8c-.7.4-1.2.2-1.8 0l-.4-.2-1.4-.1-2.4.7.7 1-.7 1.7c-.8-.4-.2-1.2-.7-1.6l-1.2 1.1 1.3.6c1 .2 2.2.1 3.4 0l3.2-.2h3.4l2.8-.3h.5c.7 0 1.5.2 2.1 0 .7-.3 1.3-.2 2 0 0-.5.4-.7 1-.6.8.2 1.4-.2 2.1-.6l-1.3-.1c0-.7 0-1.2-.2-1.6-1.3 0-1.3 0-1.4-.5l1.4-.4c.1 0 .4-.1.4 0 .5.4 1 0 1.3 0 0-1.2 0-1.2 1.1-1.6-.4.6-.8 1-.6 1.5.2-.1.4-.4.5-.3 1.2.2 1.7-.5 2-1.5 1 1.5 1.4 2 1.9 1.7l.4-.7c.6.3 1 .6 1.5.7l1.5.3c.5-.5 1.4-.3 1.9-1l.3.1.9.2.1 1c-.9 0-.9 0-1 .7 1.2-.3 2 .5 2.7 1.3l.8-1.2c.4 1.2.6 1.2 1.5.7l-.7-2.4c.4-.2.9-.5 1-.4.4.4.6.3 1 0l.9.4c-.2-1-1.2-1.7-1-3l-.6.7c-.3 0-.5-.2-.5-.2l-.7-.9c-.9-.4-1.4-1.3-1-2.1.4-.7 0-1-.4-1.6l-.5.5c0 .2-.2.4-.1.6.1 1-.1 1.8-1.2 2.1l-.3.5.8.5-1 .7c-.5-.6-1.1-.4-1.7-.2-.8.1-1.4-.3-2.1-.4 0-.6.5-.6.8-.7v.2l1-.1c.2 0 .3-.3.5-.4l-.1-.1-1.5.5.2-.9c-.8-.2-.8-.2-.6-1v-.6l-1.8.1v-.5zm-12.1-79c.3.5 1 .7.7 1.5-.3.2-.9.2-.7 1 .8-.7 1 .2 1.6.3v1.4l-.7 1.1 1-.2c-.2.6-1.1.8-.3 1.4.7-.3.7-.3 1.5.4.6-.4 1.1-.1 1.6.4v-.8l1 1.5.2.6-.6-.6-.8.4c.1 1 .1 1 1 1.2.5.1.8.4 1 1l-4.9-.5c-.2.4.4 1-.4 1.5l-1.2-1.6c0-.5 0-.5-.7-1l.1.6.7.4h-.7l.5 1.5-.3.6c-.2.1-.5.4-.6.3-.6-.4-.7.3-1 .5-.2-1-1.1-.9-1.7-1.3-.6.5.2.9 0 1.3-1 .5-.7-.5-1.1-.7-.3 0-.5 0-.7-.2l-.6-.6c0-.4.3-.5.6-.6l.1-.2c-1.3-.3-1.3-.3-1.8 0 0 .7.6 1.1 1 1.7l-.3 1h1c.4.5.8.4 1.3.4l1.5.2c.1-.3.2-.8.8-.5l-.2.4c-.1.3-.1.6.2.8.4.2.7.3 1 0 .3-.3.2-.6-.2-.8v-.2c-.3-.6-.2-.6.4-.9.7-.2 1.2.2 1.8 0 .2 0 .6.3.5.4 0 .3-.1.6-.3.8-.2.1-.7-.2-.7.3l-1-.1c.2.4.2.7.6 1 .4.3.7-.2 1-.2v.5c-.6.3-.8.6-.4 1.2h.3l.3-.2c0-.4-.2-.7-.3-1 .4.2.5-.3.8-.4.3.4.6.9 1 1.2.4.3.6.7.5 1.4 1-.4 1 .6 1.5.8 0-.2.2-.3.3-.5l1.2.9.7-.5c.3 0 .5-.3.6-.4-.4-.6-.6-1-1.3-.9l-.3-.4.4-.2h.9l.8 1.3.4.7c.5.4.6.8.3 1.4-.2.5-.2.9.2 1.3-1 .5-1 .5-1 .7l1.5.4.2-.2 1 .9-.5.4c.2.5.6.7 1 .6h1.7l4.2.9 4.4.9 1.6.3a478 478 0 0 0 7 .5c.8-.3 1.5-.2 2.3 0l1.4.2c1.5 0 3.1 0 4.7.2 1.6 0 3.3.3 4.9.4.4 0 .9.2 1.2-.4-1-.2-2 .3-2.5-.8-.6 0-1.3.2-1.8.1-1.1-.3-2.2-.8-3.4-.8-.5 0-1.1 0-1.7-.2-.9-.3-1.8-.4-2.7-.4l-.8-.2c-.4 0-.5-.3-.5-.6l.8.1 2.5.2c.7 0 1.4.3 2.1.2.5 0 .8 0 1.2.4l.3-.4 1.6.4 1.5.3c.5-.4-.4-.6-.3-1 .5-.4 1 .1 1.3.2l.7-.5.6.3c-.1-.7-.1-.7-.5-.8h-.7a3 3 0 0 0-3.2 0l-.7-1 .4-.8-4-.2v-.2l.9-.5-.6-1c.9.3 1 .4 1 1.6.5-.7 1.2-.8 1.8-.7h.4c.4-.1.6-.6.6-1 0-.5-.3-.7-.7-.7-.6.2-1.2 0-1.8-.2-.4-.1-1 .3-1.1-.2v-1.2l1 .1h1.4c0-.6.7-.2 1-.5.3-.8-.6-1.3-.5-2l.4-.4c.4-.4.2-1-.3-1.2-.5 0-1.2-.3-1.6-.1-.6.3-.8 0-1-.4.1-.2.2-.5.4-.6.3-.3.2-.5.1-.8l-.4-.9h-.7l.3-1.2-.2-.4h-.5c-.2.5-.5.4-1 .1h-.2c-1.2.6-2.2 0-3-.4v-1.5h-.8v.6c-.7-1-1 .5-1.4.3l-.1-.2c0-.3 0-.6-.3-.5-.4 0-.4.3-.4.5v.7l-.4-.2c-.3-.7-1-.7-1.6-.6h-.7c-.8.4-1.4 0-2-.4l-1.5-.4c-.5-.7-.6-.7-1 .2l-.3.1-.3-.5c-.4 0-.8 0-1.1-.2-.4 0-.7-.3-1-.4l-.7 1h-1.8l-2.4-.1-.6-.3-1.2-1.1c.2-1 0-1.1-1.3-1.8.7-.6.8-.6 1.3 0 .3.2.5.6.8 1l.2-.2v.8h.5l.7-.9c.8.4.9.3.9-.6 0-.4.2-.8.4-1.1-.2-.4-.3-.9-.6-1.2-.3-.4-.3-.9-.2-1.3.1-.7 0-1.2-.8-1.5.5-.6.9-1.2 1.7-1l.2-.2c.4-.5 1-.4 1.6-.3 1.3 0 2.4.7 3.6.7.4 0 .7.3 1.1.4h1.2l1.8.2h1.4c.8.4 1.7.3 2.5.4.6 0 1.2.1 1.6-.5.2.3.4.6.7.6h1l.4.2.7.3c-.3-.5-.3-1-.6-1-.9-.5-1.2-1.4-2-2l.5-.8c.2-.3.6-.5.9-.3.4.2.8 0 1.3 0h.5v.1l-1.7 1 .7.2c.4-.5 1-.2 1.5-.3 0-.4.2-.8.3-1h1.2c.3.3-.4 1 .4 1.3l.3-1.1c1 0 .3 1 .9 1.1l.6-.2-.2-1.2 1.8.6c-.2-.5-.3-1-.5-1.2-.2-.3-.6-.5-.8-.4-.7.2-1.3-.1-1.8-.2l-3-.4c-1.6-.1-3.2-.3-4.7-.6l-3.3-.6-3-.3-4.5-.6h-1.7c-2.8-.5-5.6-1-8.4-1.2l-1.8-.2c-1.1-.1-2.2 0-3.2-.2l-6.5-1c-1.2-.3-2.5-.6-3.8-.7l-7.7-.7-4.4-.5h-.5l-3.8-.8-.4.8c-.4-.3-.6-.8-.9-.8-.9-.2-1.8-.2-2.8-.3-1.2 0-2.4.7-3.5.2-.8-.3-1.6-.1-2.4-.1-1.1 0-2.1.2-3.2.5-.4.1-.6.3-.6.7v1l.3.4c.2 0 .4 0 .6-.2l.9-1c.8.2.8 1.3 1.7 1.3 0-.4.2-.7.3-1 .7 0 1 .9 1.7.3l.3.1c.2.3.4.2.7.1.3 0 .6 0 .9.3 0 .2.2.3.3.4.6-.5-.1-1.3.5-1.8l.5 1.5c0 .2.3.3.4.3.2 0 .4-.1.5-.3l.2-.7c.5.2.6.5.4.8 0 .4.1.7.6 1v-.7c-.1-.9.2-1.5.8-2 .4-.2.7-.1 1 .2l.6.8 1.6-.2-.2.3-.8-1.3.3-.2 1.8 1.8c-.1-.6-.2-1.2.5-1.5.2 1.1 1.2 1 1.8 1 1.3 0 1.8.2 2.3 1.3l-1.1-.4c-.6-.4-1.2-.3-1.8 0-.1.5-.2 1.1.3 1.6l1.4 1.4c.2.1.5.3.8.3.6-.2 1 .2 1.4.6.4.5 1 .8 1.6.7l.3 1c.7-.6.1-1.4.7-2.1l.6 1c0-.4.2-.7.3-1 .8.2 1.6.4 2.3.9.3.2.6 0 .8-.5l-.6.2.1-.6-1-.2c0-.5 0-1-.6-1.1l-2-.6c-.5-.2-.9-.5-.7-1.1l1.1.1c1.4 0 2.6.4 3.5 1.4l.7.4c.2 0 .4 0 .6.2.4.3.8.6 1.4.3.3-.1.6.1.6.5 0 1 0 1 .7 1.8-.3-1.5-.2-1.6 1-1.8.3.4.6.9 1.2.5h.3l1.2.3c.6 1.2.7 1.2 1.9.6l2.4.8.2-.1.2-.3c-.2 0-.5 0-.8-.2l.2-.2.5-.2c.6 1 1.6 1 2.5 1.3 0-.4-.2-.9.3-1l.8 1 .5.4c.2.3.1.6-.2.8-.2.1-.4 0-.5-.3 0-.2-.2-.3-.3-.4l-.4.2-.5.6c-1.7-.5-3.4-.2-5.1-.2l-.3.1c.4.6.9.9 1.5.6.3.2.5.6.7.6.8 0 1.3.6 2 .8.8.3 1.6 1 2.6.6.5 0 .6.4.4.8l-.1.4-.4-.5v.8l-.1.9c-.5-.7-1.4.2-1.6-.8l.5-.7c-1-.6-2-.7-3-.6-1-.7-1.8.6-2.8.5l1.7.5zm96.9 68.7c-2 .4-4 .1-5.8.8h-.7c-.2 0-.4-.2-.5-.4l2-.8h.4l3.5-.4 2.4-.4c1.1-.2 2.2-.4 3.4-.2l.8-.1.7-.1 3.7.1c1.6 0 2.8-.8 3.7-2 .4-.5.6-1 .6-1.7V166c0-1.5-.3-2.8-.3-4.2 0-2.3-.4-4.6-.1-6.9l-.2-.2-1.3.2c-1.5.1-3 .4-4.6.4-1.9 0-3.7-.3-5.5-.4l-9.8-.6-7.9-.5c-1-.1-2-.3-3.2-.3-1.7-.1-3.4 0-5.1-.2-2.9-.1-5.7-.7-8.6-.6l-3.9-.3-1.7-.2V157.7c-.5 2.6-.5 5.2-.3 7.8l-.2 1.6c-.1.4-.4.6-.8.6-1 0-2 0-3-.2-.8 0-1.8-.3-2.7-.4l-5.4-.5c-1-.2-1.5-.7-1.6-1.8l-.2-4.6-.1-.2-.7.5c.6.4.4 1 .4 1.5.1 2.3.4 4.6.9 6.9.1.6 0 1.3.3 1.8.5 1 .6 2.2.7 3.3a3 3 0 0 0 1 1.9l1.1 1h.7c.4.9 1.3 1 2.1 1.3h1.2c1.1.8 2.4.7 3.6.8 2.7.1 5.4.2 8-.4l-.5-.2h-1.9c-1-.3-2-.5-3.1-.4H390c-1 .2-2-.1-3 .3-.2.1-.5 0-.7-.1l.5-.5c.3-.2.6-.4 1-.4 1.4.3 2.8 0 4.2-.1a4 4 0 0 1 1.8.3c.4.2.9.3 1.3.3l2.3.1c1.7.3 3.3.4 5 0h.7c2.2 0 4.3 0 6.5-.5 1.9-.4 3.8-.5 5.7-.8l3.3-.4c1-.2 2-.2 2.8-1 .6-.4.8 0 1 .3l2.4-.5 4.2-.7.7-.4c1.7 0 3.5-.2 4.3-.7-1.5.1-3 .2-4.3.8zm-135.7-30.3v2.7c.3 2.3.2 4.6.1 6.9 0 1.2.3 2.4.4 3.6 0 .5.3.7.8.7l3 .3c1.6.2 3.1.4 4.7.2h2.4l5 .1h6.4l4.5.4c2.6 0 5.2 0 7.7.2l6.5.5 5.3.3h.8l5.8.2h8c2.3 0 4.7.2 7-.3l2.8-.4c3.2-.3 6.4-.4 9.6-1l.5-.1c1.4 0 2.8 0 4.2-.2 3-.3 6.1-.8 9.2-1.5-.1-1.4.2-2.8-.3-4.1-1.5-.2-2.9-.6-4.3-.7l-13.8-.7-3.2-.1-6-.6c-2.7-.2-5.4-.4-8-1.2-2.6-.7-5.3-1-8-1.2l-7-.4-3.5-.3-6.2-.5-2.4-.1-6.6-.6c-1.2 0-2.5 0-3.7-.2l-9.8-.7c-3.4-.2-6.7-.3-10-1l-2-.2zm1.6 29.8v1.4c.4 2 .2 4.1 1 6l.4 2 1.4 8.4c0 .7.1 1.3.3 2 .2.8.1 1.5-.2 2.3l-2.4 6.5c-.3.9-.2 1.8.1 2.6 1.2.5 2.3.7 3.5.4h.7c1-.3 1.9-.6 2.4-1.8l1.8-4.7c.8-2 1-4 .6-6l-.7-3.6c-.3-2.1-.7-4.2-.5-6.3v-.5l-1-5.6c0-.9-.2-1.7-.4-2.5-.1-.8-.3-1-1.1-1l-2.6.1-3.3.3zm-1.3 27.6-.5-.2a45 45 0 0 1-6.2-1 8.3 8.3 0 0 1-3.3-1.8 4 4 0 0 1-1.6-3.2c0-.4 0-.7-.2-1a5 5 0 0 1-.8-2.6c0-.7 0-1.4-.2-2-.8-1.6-.5-3.4-1.1-5v-.6l.2-2.7c-.4 1.6-1 3.2-1 5l-.1 1.3v2.6l.7 5.2.6 4.1c.5 2.8 2 5 4.3 6.5.8.6 1.7 1.2 2.8 1l.7.2c2 .7 4 1.2 6 1l2.5-.1 8.6-.2h.7c-.3-.3-.6-.3-1-.4l-2.6-.5c-.2 0-.3-.2-.4-.4l.4-.3 1.2-.2c.3 0 .6-.1.7-.3.5-.4 1-.4 1.5-.4h1.2l-3-.8c-.5-.1-.7 0-1 .4a6 6 0 0 1-1.7 1.5c-2.3.6-4.7.7-7-.5a2.2 2.2 0 0 1-1-2.5l.6-2.1zm-7.3-59.5.4 3.3.5 4 .2 4.7c0 1 .3 1.7 1.3 2 .3 0 .5.3.8.4 1 .5 2.1 1 3.3 1.2v-6.3c.2-1.3 0-2.5-.1-3.8l-.3-2.8c0-.5-.2-.8-.8-.9-.5 0-1-.1-1.4-.3l-3.3-1.5h-.6zm103 23.6c-.3-2.5-1-4.9-1.4-7.4l-10 2.1c.1 2 .4 3.9 1.2 5.6l3.5.3h2.2c1.4 0 3 0 4.4-.6zm-108.6-27.2-.3.1a132.1 132.1 0 0 1 .3 3.2c0 .5-.2 1-.1 1.5a41 41 0 0 0 .9 6.9 5 5 0 0 0 3.4 3.8c.4-.5.2-1 .1-1.6l-.2-1.9-.3-4.1-.3-5c0-.6-.1-1-.8-1.4-.7-.2-1.2-.7-1.8-1l-1-.5zm74.3-28.3-.1.3c.3.1.5.4.8.4.3.2.7.2 1 .2.8 0 1.5 0 2.1.5H362.1l1-.3c.3-.2.5-.2.5.2.1.6.4.6.9.4a2 2 0 0 1 1.2-.2c.8.3 1.6.3 2.3 0 .3-.1.7-.2.8-.4 0-.5.8-.8.6-1.4-.6 0-1-.2-1.6-.3l.4.8-2.2.6c-.3-.9-1.3.3-1.8-.4l.4-.3 1.8-.6c.3-.1.6-.3.5-.8-1 .2-2.4 0-3.5-.1-.8-.1-1.6-.6-2.4 0l-.2.1c-.4-.4-.8 0-1.1 0l-1.2-.3.4 1.4-1-.1v-.8l-.8 1.4-1.2-.3zM289.8 123l-.9.2c1.5 1 3 1.6 4.8 2 2.5.6 5 1.5 7.6 1.8.2 0 .5 0 .6.2.5.4.9 0 1.4-.2-1.4-.5-2.7-1-4-1.3l-1.7-.5-.8-.4-2.7-1-2.4-1.3c-.2 0-.4-.2-.5-.3l-1.6-1.2c-.7.7-.2 1.3.2 2zm153.2 14.7c-.2-.5-.6-.7-1.2-.6l-3.2.1-.3.2c.3.1.6.2.7.4l.1.8 4.3.2c.2 0 .5 0 .7.2.2 0 .4.3.5.5l-.4.5-.9.4-1 .5c.6 1 1.6 1.2 2.8.9h.2c.4 0 .7-.3.7-.7v-3c0-.8-.1-.8-1-1 0-.2.7-.3.2-.7-.8.4-.9 1.6-2.2 1.3zm-2 8 1.3.4 2.8.5.8-.2.2-2.2v-1.5l-.9.2h-.5l-1.4-.2.6.4-1.2.4c-.2.1-.6.3-.6.5 0 .7-.4 1-1 1.3l-.1.4zm-153.3 8.7v-1.9l-.4-6c0-.6-.3-1.2-.3-1.9l-.2-3.5-1-.5.3 5.3c0 1.2 0 2.4.2 3.6l.4 3.8c0 1 0 1 1 1.1zM370 183c.7-.3.7-.8.8-1.3l.5.3c-.2-1-.6-1.2-2-.4l.5-1c.2-.3.1-.6 0-.9h-.3l-.1.4-1.3-.3c0-.7-.5-1-1-1-.4-.1-.7-.2-.6-.6l.6-.2c-1.2-.6-1.2-.6-1.8.2l1 .7c-.9 1.2-.8 2.3 0 3.8l.8-.4c.4 0 .6 0 .6-.4 0-.3-.2-.8-.4-.9-.6-.1-.7-.4-.7-.9l-.1-.7c.6 0 .7.7 1 .9.9.3 1 .9.9 1.6.3.4.7.8 1.3.4l.3.7zm-61.4 18.4c1.1.6 4.2 1.3 5.4 1.3h10.9c.7 0 1.3-.2 2-.3-.2-.3-.4-.4-.6-.4l-2.4.2-5.7-.2-8-.5h-1.6zm76.6-90.4.2-.1 1 1.5c.7-.3 1-.3 1.5.4.6-.5.6-.5 1 .6.4 0 .4-.3.2-.6-.4-.6-.4-1.2-.1-2 .6.7 1.3-.2 2 .5l.4-.9-3-.6c-.8.4-2 .3-2.6-.4-.4-.3-.6-.2-1 0-.4.5-.8 1-.7 1.9l1-.3zm-80.3 30.4c1 .2 1.9.4 2.8.8.9.5 1.9 0 2.7.5.3-.4.4-.7 0-.8l-1.3-.2h-.3c0-.3-.2-.5-.3-.7l.7-.5-1-.2c-.2 1.1-.2 1.2-1 1l.6-1c-1.2.2-2-.9-3.1-.4l.2 1.5zm6.5 58c-1-.5-1.8-.2-2.8-.2-1.6 0-2 0-2.5.5 1-.2 3.5-.3 4.6-.1 0 .6-.5.6-1 .6l-2.4.2v.2c.4.1.8 0 1.2-.1l.9-.1h.9l6 .3.6.1c-.4.6-1 .3-1.5.5h2.4l-.7-.4 1-.5-4.4-.3h-2.3l-.3-.2c0-.2.2-.3.3-.5zm85.2-17.6c.3.5.7 1 1.3.7.4-.2.5-.6.3-1-2-.2-3.8-.2-5.6 0v.2l.1.5c.2.7 1.1 1.3 1.8 1.3.2 0 .5-.2.5-.3-.1-.6.5-.9.6-1.4h1zM367.5 145v-.1l-.3-.1c-1-.2-1.9-.3-2.8-.6-.8-.3-1.7-.5-2.6-.5l-1.2-.2c-1.3-.5-2.7-.6-4-.5h-.9c.5.3 1 .2 1.4.3 1.3.4 2.6.8 4 .7.6 0 1.2 0 1.7.4h1l2.7.6h1zm-39.3 53.4v.3c.2.1.5.3.8.3h3.2c1 0 1.7-.6 2.5-.8l.4.5.3-.3-.4-.4a6 6 0 0 0-1.3 0l-4.2.3-1.3.1zm114.7-51v-.3l-.5-.3c-1.5-.3-3-.2-4.6 0h-1.5l-1.1.2c0 .2.2.3.3.3h3c1.2 0 2.4-.3 3.6.1.2.1.5 0 .8 0zm-156.5-14.3c.8-.7 1.6-.1 2.3-.1-.2-.4-.6-.6-.7-1-.2-1-1-1-1.8-1-.6-.1-.9.2-.6.8l.8 1.3zm4.8-22.2c-.1 1.6 0 2 1 2.1v-1.7c0-.6.4-1.2.6-1.9-.4 0-.2-.9-1-.7 0 .7-.6 1.3 0 2.1l-.6.1zM334 128l.3.2 8 .7.6-.2v-.3c-.8.4-1.6.3-2.3-.2h-2.7c-.6 0-1 0-1.3-.5-.8.8-1.7 0-2.6.3zm111.6 1-1 .4c0-.4 0-.7-.2-1l1.4-.5v-1c-.7.2-1.5-.3-2.1.5l.8.2c-.4.8-.4.8.3 2.7.9 0 .9 0 .8-1.2zm-97 52.9.2-.4 1-.3c.5-.2.7-.5.5-1l-.4-.7-.4 1.4h-.4v-1l-1.3 1 .4 1c-.6-.1-.9 0-.7.6l.6-.3 1.5-.1.3-.4-.2-.2-1.1.4zM287.4 128c-.1 1.6.3 2 1.6 1.9l.6-.7.8.2a4.5 4.5 0 0 0-3-1.3zm54.3 71.6c.4-.2.7-.4 1-.4l3.1-.4.5-.2a63.1 63.1 0 0 0-8.5.8l-.4.1c.7.1 1.3 0 1.9.2.6.2 1.2 0 1.7-.3.4-.2.6 0 .7.2zm76.2-55.7v.3c.4.4.9.3 1.4.3l5.7.4c.4 0 1 .2 1.3-.3l-8.4-.7zm18.3 4.6.4.3c0 1 1 1 1.6 1.1h3.4c-.2-.3-.5-.4-.7-.4h-1.4l-1.3-.6-2-.4zM315.9 205l-4-.9c-1.5-.2-1.5-.2-2.4 0 2.1.6 4.2 1.4 6.4.9zm112.3-95.6-.4-.4c-1-.8-2.4-.6-3.6-1 0 0-.3 0-.3.2 0 0 0 .2.2.3l.7.3 2.5.8c.2.1.5 0 .9-.2zm4.7 80.7c2.2.4 4-.6 6-1.3-2.1 0-4 .7-6 1.3zm-127 13.6c0-.9.2-1.1 1-1l1.4-.1v-.1l-1.7-.8-.8.6-.1-1c-.4.8-1 1.4-.7 2.2l1 .2zm49.2-65.1-3.5-.6c-.4 0-.6 0-.8.5h1.3c.3.1.6.1.8.3.5.4.9.8 1.4.1h.9l1.2-.6c-.4-.5-1-.4-1.5-.4 0 .3 0 .5.2.7zm-4-6c-.4.2-.8.1-.8.7 0 .3.2.5.6.5 1-.1 1.8.6 2.7.7l3.7 1 .4.1c-.1-.2-.4-.3-.6-.3l-3.8-1.3c-.6-.2-1-.4-1.7-.3l-.3-.2-.1-.9zm82.8-9.3 1.3 1 .2-.5c0-.7 0-.7-.7-.8-.3 0-.5-.2-1-.4.7-.3 1-.6 1.5-.9-.6 0-1.1-.5-1.7-.4 0 .8 0 1.4-.2 2.1h.6zm-43.8 10.4c.1-.4.2-.9-.3-1.2-.6.3-1.2.7-2 .4l-.5.4c-.1.3.3.7.6.6l2.2-.2zm-19.9 53.5c-.2-.5-.6-.7-1-.8-.3 0-.7-.2-.9-.4l-.1-.8c-.4.5-.7 1-.7 1.5 0 .6.7.5 1.1.7h.1c.6.4 1 .1 1.5-.3zm74.3-54.6c-.3.3-.6.4-.6.6-.2.8-.6 1.2-1.4 1.2.6.4 1 .1 1.2-.3l1.2-1.5c.4-.5.7-1 .4-1.8-.4.2-.8.2-1 .4-.4.4-.2 1 .2 1.4zm-9 11.4h-8.1c0 .2.2.3.3.3 2.6 0 5.2.3 7.8-.3zm-74 57c-1.1 0-2.3.4-3.2-.3l-1.6 1.3v.2c.3 0 .7 0 .8-.2.6-.7 1.3-.4 2-.4h.6l1.4-.5zM308.8 99.7l2 1.1.1-1.4-.6-.1v-.4l-.4-.5-.6.3-.5 1zm20 9.4 1-1.4.7.6c-.3-1.1-1.3-1.2-2.1-1.5-.3.8-.1 1.5.5 2.3zm99.5 29.1v-.2l-3-.4-2.3-.1c-.3 0-.6 0-.7.4l6 .3zm-57.5 31c.9-.4 1.6-.8 2-1.6 0-.2.2-.3.4-.4l.4.3.3.7.2-.6.2-.5c-1.3-.4-1.3-.4-2 .6l-.6.4-1 .4.1.7zm4.6 20.9c.2 1.1 1.2.3 1.8.6.3.2.6 0 1-.3l-1.3-1.1-1.5.8zm-34 4 3 .2c-1.3-1.2-1.6-1.3-2.8-1.1l-.1 1zm86-47.2c-1.4-.5-2.9-.8-4.5-.5.4.5.7.7 1.3.7.9-.1 1.8-.4 2.8-.1l.5-.1zm-117.8-18-3.7-.6c-1-.6-1.4-.7-2.5-.5l1.6.5 3.6.8c.4.2.7 0 1-.2zm14.9 75.5-6.3-.4c2.2.7 4.2 1 6.3.4zM441.7 183v.2l2.3.5.3-1.7-2.6 1zm-14.2 3.1v.3l.5-.1 3-.4c.6 0 1.1 0 1.6-.5-1.8.1-3.5 0-5 .7zm-86.7-48V137l1 .6h1.4l-2.1-1c-.5-.1-1.1-.2-1.7.4l1.4 1zm-45.1-9.6-.1.2 1.4.9-.3.4.5.6 1.2-.2.2-.6c-1-.5-2-1-3-1.3zm-3.3-1.4-1.5-.3-.4.8c-.3-.9-.3-.9-.8-.8.1.7.5 1.1 1 1.3l1.7-1zm38.6-20.7 1-.2c.2 0 .3-.2.4-.3l-.2-.3-2-.3c-.2 0-.3.6 0 .7l.8.4zm35.6 80.2c-1.2-.6-1.9.3-2.7 1l2.8-.4v-.6zm-71.1-59.2c1.2 1 3 1.5 4.2 1.3l-3.6-1.3h-.6zm2.4-8.2c0-.7-.1-.7-.4-1-.4-.4-1.3-.5-1.6-1.2 0-.2-.5-.2-.8-.3 0 .8.4 1.3.8 1.3.8 0 1 .4 1.5.8l.5.4zm-6.8 6.1c1.2.6 2.2 1.7 3.7 1.6a8.6 8.6 0 0 0-3.7-1.6zm84 64.2c-.2-.9-.8-1.2-1.4-1.4-.4-.2-.8 0-1 .5.8.2 1.4.9 2.4 1zm-56.3 11.6c1 .3 3.9.3 4.6 0-1.5-.2-3-.2-4.6 0zm-11.8 5.2c1.7.7 3.3.7 5.8.7l-5.3-.7h-.5zm76.5-98.3 1 .7s.4 0 .4-.2c.3-.4.5-.8.6-1.3-.4-.2-.6-.2-.8.2-.3.3-.5.7-1.2.7zm-75.1-9.5h-1.7l.8 1c.3.4.6.4.9 0v-1zm-6.6 37.1c-.4-.5-.6-1-1.3-.8h-.7l-1.5-1c-.4-.1-.6-.2-.9.3l2.6 1c.4 0 .8 0 1 .4l.8.1zm65-32.6-1.1-.6v1.6l.8-.3.3.5h.2l-.1-1.2zm-71.6 27.4-.8.1c-.3 0-.7-.1-.6-.4 0-.6-.3-.5-.5-.6l-.5.7c.9.1 1.4 1 2.5.8l-.1-.6zm-3.8-14 .4 1.1c0 .3.2.6.6.4.4 0 .5-.5.3-.9-.2-.5-.6-.7-1.3-.7zm101.7-10.3h-.4c-.6.2-1.1.6-1.9.4-.3 0-.5.4-.2.6h1.7l.8-1zm-100.9 26 2 .8c1.2.4 1.2.4 1.7.4-1-.9-2.4-.9-3.7-1.1zm61.2 63.7v.2c1.1.1 3.3-.2 3.8-.7l-3.8.5zm37.1-68.8-2.3-.2c.2.4.6.8.9.7h1c.4.3.5 0 .4-.5zm46.1 15v-.2c-1.7-.1-3.4-.2-5.1.2h5.1zM383.1 129c-.8 0-1.4-.2-2 .5h1.4c.6 0 .7.5.9 1.1.2-.7-.3-1-.3-1.6zm-8.9-3.7-1-.6c-.4.3-1 .4-.6 1 .6.2 1.1.1 1.6-.4zm-53.1-4.6v1l1.6-.2-.7-1-1 .2zm-4-3.7c.4-.2.7-.4.5-.9l-.6-.2c-.4.3-.5.2-.7-.1h-.7l1.5 1.2zm31.7 20-2.5.2v.3l2.3.4.2-.9zm-39-31.4.2-.2-1.1-1.1-1.1.3c0 .4.3.5.7.4.3-.1.6 0 .9.3.1.2.3.2.5.3zm73 1.7-1.3.4 1 1.2c.6-.5.6-1 .4-1.6zm-2-3.9-1.3.5-.3.4c.2.1.3.3.5.3l.9-.1c0-.3 0-.6.2-1zm50.4 37.5v-.2c-1.3 0-2.6-.1-3.9.2v.2l3.9-.2zm-52-33 1.1.5.5-1.2c-.6 0-1.2-.3-1.6.6zm20 .1c0-.6-.5-.7-.8-.7-.3 0-.8 0-1 .4.5.7 1.1.5 1.8.3zm-2.3 17-.5-.8c-1 .3-1 .4-1 1 .5 0 .9 0 1.5-.2zm-90.3 49.8c.4.4.4 1.1 1 1.2l.6-1.1h-1.6zM436.1 152c.7.3 1.5-.2 2.3.2-.1-.7-.6-.7-1-.7s-1-.2-1.3.5zm-100.4 46c.3.7.8.6 1.2.5.3 0 .5-.1.4-.6h-1.6zm-30-54.7h.4c.8-.4 1.7-.3 2.6 0l.2-.1-.2-.4c-1 .2-2.1-.5-3 .5zm137.8 42.5h1.5c.5 0 .6 0 .4-.9l-1.9 1zM297 109.4c-.1.3-.8.2-.7.8.1.7 0 .7.5.9l.2-1.7zm76.7 70c-.2-.4-.6-1.1-.8-1.2l.5 1.7c.8 0 .8 0 1.3-.4l-1-.2zm4.7 10.1c.4.8.5.8 1 .6.1-.2.4-.4.2-.7-.2-.4-.6-.3-1.2.1zm-5.2-4.3-.2.3c.1.4.2 1 .7 1.3.4-.8.4-.8-.5-1.6zM323 206h3.9c-1.3 0-2.5-.7-3.9 0zm25.2-95.8c-.4.2-.7.3-.6.8l.3.4.9-.5a61 61 0 0 1-.6-.7zm-54.9 9.5.7-1-.2-.7h-.2l-.1.6-.2.1-.5-.1.5 1zm46.4 13.6c-.7-.4-1.3-.2-2-.1v.3c.4.4 1-.2 1.3.3 0 0 .4 0 .5-.2l.2-.3zm4.6 66.4 3.4-.3c-1.1-.2-2.3 0-3.4.3zm86.7-60.4v.3l3.4-.2H431zm-82.7-.7c1.6.5 1.6.5 1.7-.2-.5-.3-1 0-1.7.2zM328 205.2l.1.2 3.8-.4-3.9.2zm107-53.6v-.2l-2.7.2c.9.3 1.8.1 2.7 0zm0-18.6 1-.8c-.3-.4-.6-.4-1-.2-.3.3-.3.6 0 1zm-95.7 71c-1-.1-1-.1-1.4.6.5 0 1 .2 1.4-.5zM299 106.6l-.6-.3-.3-.4h-.5v.5c.1.3.7.4 1.4.2zm135.2 43.1v-.2c-1.3 0-2.6-.3-4 0l4 .2zm-46.8-41.5c.3-.4.3-.8-.1-1-.4-.2-.8-.6-1.2-.2l1.3 1.2zm-29.1 28.7c-.7-.6-1.5-.3-2.1-.4l.4.5.2.7h.2v-.8h1.3zm-1.4 49.8c-.1-.7-.7-.6-1.2-.9v.6c.3.3.7.6 1.2.3zm-32.7-64.8-.5-.5h-.5s-.1.3 0 .4c.2.5.6.5 1 0zm126.3 3.2-.1.1.2 2c.3-.7.3-1.4 0-2zm-45 54.8-1.9.3c.7.5 1.3.2 1.8-.3zM354 202.4c.5-.3 1-.4 1.4-1l-1.6.5.2.5zm-15.6-.8c-.5-.4-1-.8-1.8-.3.6.4 1.2.4 1.8.3zm2.9-.4v-.3H340s-.2 0-.3.2l.3.3 1.3-.2zm-24-9.3c-.2 1-.2 1 1 1 0-.3-.2-.3-.4-.5l-.5-.5zm.7-7.8c.5-.1.7-.4.6-1.1 0-.4-.3-.4-.5-.2l-.1 1.3zM428 143l.1-.3h-2.7l2.7.3zM347 204.4v-.3l-2.1.2v.1h2zm-26.2-85c.7.1 1-.1 1.2-.8-.3.4-1.1-.2-1.2.7zm51.5 65.8c-.5.6.2 1 .2 1.5.5-.5.5-.5-.2-1.5zm-58.5-55.4c.5.6.5.6 1.6.1-.5 0-1-.5-1.6-.1zM436.3 141c-1-.4-2 0-2.9.2l2.9-.2zM368 194.7l2.1-.2c-.7 0-1.5-.5-2 .2zm22.8-81.2c-.5.2-1 .5-.8 1.3.8-.2.5-1 .8-1.3zm43.2 64c.5.1.9-.1 1.3-.3-.6-.5-.6-.5-1.3.2zm-69.4-3.8.4-.8-1-.6-.1.1.7 1.3zm-80.5-40c-.3.5 0 .8 0 1l1-.2-1-.8zm59.7 67.3c-.6 0-1.3-.2-1.9 0v.2l2-.2zm-54-69.9c-.4-.5-.4-.5-1.3-.3.4.5.9.3 1.4.3zm28.8-.8v-.3c-.5-.1-1-.5-1.7-.1l1.7.4zm39.4 8.2-1.5.4c-.1.4.2.4.4.4.5 0 1.1 0 1.1-.8zm-27-1.9v-.2l-1.8-.3.2.5h1.6zm10.9 2v.2h2c-.7-.5-1.3-.6-2-.3zM316 199.1c.6.3 1.2.5 1.8.2l-.3-.2H316zm57.7-5.4c-.9 0-1.7 0-2.5.2v.2l2.5-.4zm1-86.2-1.6-.1.8.4c.4.3.6.1.8-.3zm3.4 24.7c.6.3.6.3 1.3.2-.4 0-.6-1-1.3-.2zM362.5 106l-.2.2.4 1c.3-.3.6-.5.6-.7 0-.5-.5-.4-.8-.5zm19.8 83v.3l.6.2c.3-.1.5-.4.2-.9l-.8.4zm-74-9.5c0 .4-.3.8.1 1.1.4-.7.4-.7-.1-1.1zm55.4-6.6-.4-.3c-.2 0-.3-.2-.4-.3-.3.6 0 .8.3 1.3l.5-.7zm-12.1 26.3v-.1h-1.7 1.7zm4-91.7c.2.5.2.5.4.5h1.3c-.5-.7-1.1-.4-1.8-.5zm38 4.7h-.2l.1 1 .3.2c.1 0 .3-.2.2-.3l-.3-1zm-22.3 57.4c0 .6 0 1 .7 1 .1-.6 0-1-.7-1zM329.1 138l.1-.2c-.5-.4-1-.8-1.9-.3l1.8.5zm44.6-35.5-1.1-.5.2 1.1.9-.6zm10 30.5c.4 0 .8.5 1.3 0-.4 0-.9-.6-1.3 0zm-50.5-5.3-1.5-.2v.2c.5.1 1 .5 1.5 0zm38.3-23.5v.5l.7.4.2-.2c-.1-.3-.3-.5-.5-.6h-.4zM341 139.6c.2 0 .8.3.7-.5l-1-.2.3.7zm73.2.1v.3c.6-.2 1.1.3 1.7.1v-.2l-1.7-.2zm-44.9 4.8c.5.6 1.1.4 1.7.5-.9-.6-.9-.6-1.7-.6zm-10.9 50.8v.2c.7.2 1.3 0 1.9-.3h-1.9zm62-49.3h-2c.6.2 1.3.4 2 0zM339 135.2c1 .8 1 .8 1.3.2l-1.3-.2zm17.3 57.7 1-.2c-.6-.5-.6-.5-1 .2zM334 136c.1.4.2.7.6.6.2-.1.5-.3.3-.7l-1 .1zm41.3 2.5v-.2l-1.7-.4v.2l1.7.4zm4.8-32.6c-.6-.5-1-.5-1.4 0h1.4zm-52.9-6.2c-.6 0-.6.6-1 1 .6-.1.8-.5 1-1zm31.2 5.8.7.5.3-.1v-.3c-.1-.3-.5-.3-1 0zm-70.3 30 .1-.3-1.3-.8c.3.4.6 1 1.2 1zm138 13v-.3c-.5-.1-1-.3-1.5-.1v.2l1.5.1zm-71-14.7v.3l1.8.5.1-.2-2-.6zm17.2 54.7-.7-.9-.2.2c0 .4.3.7 1 .7zm76.3-28.3h-.2l.4 1.8h.1l-.3-1.8zm-71.2 18.5c-.6-.5-.6-.5-1 0h1zm61.1-53.8.3.9.5-1h-.8zm-102.5-.1c-.4.5-.4.5-.2 1 .3-.5.3-.5.2-1zm108 22.3c.2.8.2.8.8.3l-.9-.3zm-33.6.9v-.3l-1.5.1c.5.2 1 .7 1.5.2zm-69.9 45.5-.3.6 1 .4-.7-1zm-43.6-78c0 .9.6.8 1 1l-1-1zm124.2 1c-.7-.6-.8-.6-1.4-.2l1.4.2zm-60.4-10c0-1 0-1-.8-.8l.8.9zM382 118v-.2c-.8-.3-.8-.3-1.1 0h.5l.6.2zm-45.7 85.3v-.2c-.3-.4-.3-.4-1-.2l1 .4zm-19.9 1v-.2l-1.4-.4v.2l1.4.4zm64.3-92.7 1.2.8c-.2-.6-.5-.8-1.3-.8zm-69.3 94.6h-.1 1.8-1.7zm14-106.4c-.3-.8-.7-.7-1.3-.7l1.2.7zm107 47.2c.7.5.7.5 1.3 0h-1.3zm-83.2-10.4v.3l1.2-.2c-.5-.7-.8-.2-1.2 0zm18.3 7.3-.1.3c.4.3.8.4 1.3.2l-1.2-.5zm-1.8-2.5v.3c.6.3.6.3 1.4 0l-1.4-.3zm41.7-22.3c.7.1.7.1.7-.6l-.7.6zm-95.1 24v-.2l-1.8-.1v.2l1.8.1zm68 46.6 1.2-.1-.8-.6-.3.7zm-80.5-53.2v-.2l-1.3-.4v.1l1.3.5zM416 111.1c.3.3.7.2 1-.1h-1zm-39 77c-.4-.7-1-.2-1.3-.5v.3l1.3.1zm-74.8-49.4-.1.3 1.5.3v-.1l-1.4-.5zm34 6c-.1-.7-.1-.7-1-.5l1 .5zm7.2-8h1.2c-.5-.5-.9-.3-1.2 0zm11.7 40.4-.4-.1-.4.2.4.3.4-.4zm-12.9-41.3c.2.4 0 .8.5.8l.3-.3c0-.3-.1-.6-.8-.5zm15.4 40.9-.4.4.3.3.3-.3-.2-.4zm-64-43.1c-.4-.5-.4-.5-.9-.3.4 0 .6.2.9.3zm129 47.3c-.7.1-.7.4-.4 1l.4-1zm-133.7-56.1-.1-.2c-.4 0-.7.2-1 .8l1-.6zm72.7-19h-.3c-.2.4 0 .6.4.8l-.1-.9zm-64.5-3.2c.5.9.5.9 1 .2l-1-.2zm-.7 5c-.6.3-.3.6 0 1v-1zm123.8 32.9v-.3H419v.2h1.1zm-69 38.6c-.7 0-.5.4-.4.8l.4-.8zm82.6-33.3v.1h1.7-1.7zm-147.4-17.4-.7-.6c0 .6 0 .6.7.6zm41.3 73.8v.1h.8v-.1h-.8zm10-65.6c.2.5.5.7 1 .5-.3-.3-.4-.6-1-.5zm-14.9-1c0-.7-.2-.8-1-.7l1 .8zm59.3-18.9c-.6-.5-.6-.5-1.2-.2l1.2.2zm-24.9 82.8c-.4.1-1-.2-1.2.4l1.2-.4zm6.4-61.6c-.2 0-.4 0-.6-.2-.3-.1-.5-.2-.7.1.5.5 1 .1 1.3.1zm-70.7 0v.2l1.1.6.1-.2-1.2-.6zm25.4-3.3v-.2l-.7-.2-.1.3h.8zm4.6-35.8c-.5.4-.5.4 0 .7v-.7zm32.4 11.2v-.1h-.7l.2.6.5-.5zM343 191.8v.9c.6-.3.5-.5 0-1zm-8.6-57.4v.2l1.5.2v-.2l-1.5-.2zm4.9 4.6c-.3-.5-.5-.6-.8 0h.8zm80.3 54.7c-1-.2-1.1-.2-1.7.2l1.7-.2zm-10.4-80.6h-.3c-.2.2-.3.4 0 .8l.3-.8zm21.2 37.7v.1h1.1v-.1h-1.1zM311.6 99.7c.6-.2.6-.2.3-.8l-.3.8zm129.7 53v.3h.7v-.3h-.7zM299.5 137c.6.3.6.3 1.2.2l-1.2-.2zm42.2-3-.5-.5-.2.2.3.4.4-.2zm57-20.8c-.6-.3-.6-.3-.8 0 .2.2.5.4.7 0zM309.5 194v.3h.5v-.3h-.5zm91.7-65.6c-.5 0-.5 0-.8.4l.8-.4zm49.4 6h.2l.2-1h-.3v1zm-118 10.9c-.4-.5-.6-.2-.8.2l.9-.2zm-2.5-6v.4h1v-.1l-1-.3zm43.5 29.8c-.4-.4-.4-.4-.6-.3 0 0 0 .2-.2.3h.8zm-36-32.8c.2-.5.2-.5 0-.8-.2.2-.5.5 0 .8zm-9.3 65v-.2l-1.2.1h1.2zm89.2-52.4c-.7-.4-.7-.4-1.2.1h1.2zm-82.4-12.2.3.3c.4 0 .5-.3.5-.7l-.8.4zm-43.5 55.5h-.2l-.2.8h.3v-.8zm111.7 4.1v.2l1-.2v-.2l-1 .2zm-91.3-54c-.4-.7-.4-.7-1-.1h1zm-1.3-33.4-.1.1.7.8.1-.2a50 50 0 0 0-.7-.7zM443 188c-.4 0-.8.2-1 .5l.1.2 1-.7zm-73.4-41.8c.6.2.6.2 1 0-.3-.2-.6-.6-1 0zm-41.8-31.7.1-.3-1-.3v.2l1 .4zm-4.8 76-.3-.2-.1.5.2.1.2-.5zm107-44.7v-.1h-1.5v.1h1.5zm-145-20.2c.3-.2.6-.3.5-.7-.4 0-.6.3-.4.7zm118.1-16.3-.5-.3-.2.3c0 .2.2.3.3.4l.4-.4zm-37.6 25v.3l.8.1v-.2l-.8-.1zm-11.7 2.2-1.1-.1c.3.3.5.5 1 0zm85.8 52.8c.7 0 .7 0 1-.5l-1 .5zm-149.9-63.9v.3l.7.2.1-.2c-.3 0-.5-.1-.8-.3zm101.7-17.1c.6.1.6.1.5-.6l-.5.6zm-35.3 93.9h-.2l.2.7h.5l-.6-.7zm76.6-54h-1.2 1.2zm-49-25.2-.6-.5c0 .5 0 .7.6.5zm-83.2 11v.3h.8v-.1c-.3 0-.6-.2-.8-.3zm13.1-1.4c.5.6.5.6 1.3.3l-1.3-.3zm7-25.5-.3-.3s-.2 0-.3.2l.2.3.4-.3zm54.8.8c.5-.1.5-.3.1-.6l-.1.5zm55.1 6.7v.1h.7l-.7-.1zm-66.4 19.8v-.2l-1.1-.2 1 .4zm48.3 16c-.3-.4-.5-.6-1-.2l1 .1zM299 140.2v.1l.8.3v-.2l-.8-.2zm3.2-6.3c-.2-.3-.4-.6-.9-.3l1 .3zm59.3 37.2h-.2l.2.6h.2l-.2-.6zm60.5-59.4v-.2h-.5v.2h.5zm-128 16.7c-.5-.5-.5-.5-1-.4l1 .4zm42.7 16.3.6.1h.4c-.3-.5-.6-.3-1 0zm102 6.3v.3h.8v-.1l-.8-.2zm2.8-.5v.2l.6.3.1-.3-.7-.2zM308 115l-.1-.2-.6.3v.2l.7-.3zm133.2 33.4v.2h.6v-.3l-.6.1zm-130-41.8.1-.9c-.5.2-.4.4 0 .9zM435.7 127v.2h.7v-.1l-.7-.1zm-19.9 17h1-1zm-72.5 59 .1.2c.2 0 .4 0 .6-.2l-.2-.3c-.2 0-.3.2-.5.3zm40.7-99c-.4-.1-.7-.3-.6.3l.6-.3zM345.5 197v.1h.6-.6zm56.3-53c-.6-.3-.8-.3-.7 0h.7zm-9.3-32.7.1.3.7-.5v-.1l-.8.3zm-63.9-5.8c-.2.2-.3.3-.3.5l.2.2.3-.2-.2-.5zm17.1 29v.2l.9.3v-.3l-.9-.2zm-9.2 66-1-.2v.2h1zm-16.1-65.8v-.2l-.5-.3-.1.2.6.3zm-10.1-20.3.1.2.5-.3-.1-.2-.5.3zm90 11.6-.2-.1-.3.5h.2l.3-.4zm-107-15.8.2-.4-.1-.4-.2.4.1.4zm31 80.9v-.2l-.5.1.1.2.5-.1zm52.7-44.8v.3h.7c-.2-.3-.4-.6-.7-.3zm73.9-8.3h.1v-.5h-.2v.5zm-93.2-32.1c.1-.2.3-.3.2-.4 0 0 0-.2-.2-.2l-.2.2.2.4zM425 111l.2-.3s0-.2-.2-.2h-.2l.2.5zm-93.7.6v.2h.5v-.3l-.5.1zm20.1 29.9c0-.5 0-.5-.5-.5l.5.5zm8-6.3v-.1l-.6-.2v.2l.6.1zM345.6 203l-.2-.2c0 .2-.2.3-.3.4l.1.2.4-.4zM332 143.6l-1.3-.1v.2c.4.1.7.2 1.3 0zm19.3-9.2v.2l.8.1-.4-.4h-.4zm5-28v.2h.4v-.3l-.5.1zM342 146.6l.2-.1-.2-.5-.2.2.2.4zm8.3-37.4-.3-.3-.2.2.2.2.3-.1zm36.3 5.2.2.2.3-.4-.2-.1-.3.3zm-13.2 83.2v.2l.6-.2v-.2l-.6.2zm-58.4-63.2h.3l-.1-.6h-.2v.6zm76 47.4v-.2l-.5.2v.1l.5-.1zM300 133v.2l.8.2v-.1l-.8-.3zm3 .6.1-.1-.2-.5-.5.3.6.3zm31.2-.5h.2l-.1-.6h-.2l.1.6zm-25-16.4-.3.1.2.5h.2l-.2-.6zm61.8 57.5.2.2.2-.2-.2-.2-.2.2zm71.3 13.1v-.1c-.3 0-.5 0-.8.2h.8zm-123.6-58 .2-.3-.2-.2-.3.2.3.4zm32 55.3h.2l-.1-.6-.1.1v.5zm49.8-3.2-.4-.1s-.1.2 0 .2l.2.1.2-.2zm11.8-44.8h-.8.8zm-63 42.7.2-.1-.2-.4h-.1l.1.4zm35.4-53.6-.3-.1-.2.2.2.2.3-.3zm-60.9-6-.2-.2-.2.2.2.2.2-.2zm61.6 9.7-.2.2.2.2.2-.2-.2-.2zm37-3.5v.5l.2-.1a5 5 0 0 1-.1-.4zm-83.1 54.7h.2l-.2-.7h-.1l.1.7zm33.2-42.6v-.2h-.4l.4.2zm61.8.3c.3.3.5.4.9 0h-1zm-119.5 68.8v.2l.4-.2v-.1h-.4zm64.8-95.5-.4-.2-.2.1.3.2.3-.1zm-60.4 94.2h.5-.5zm-9-65.2h.7-.7zm79.7-27.9h.1l-.2-.5h-.1l.2.5zM367.4 135h.6-.6zm-33.6 68.4v.1h.6-.6zm21-22.3-.2-.2-.2.2.2.1.2-.1zm17.4-78.7-.5-.2-.2.2.2.2.5-.2zM403 113h.2l-.2-.5h-.1v.5zm29.1-.7-.2.3.1.1h.2v-.4zM449 163l-.2.2.3.3.1-.1-.2-.4zm-74.4-18v-.2h-.5v.1l.5.1zm47.9 37.5v-.1l-.4-.1v.1h.4zm-60 17.6v-.1h-.5v.1h.6zm-56-82.7-.2-.1-.2.1.3.2.2-.2zm-17.5 0 .2.1v-.4h-.1v.4zm106.2 6 .2.2s0-.2.2-.2l-.2-.1-.2.2zM305.4 175c-.2 0-.2-.2-.3-.2h-.2l.2.4.3-.2zm7.3 24.6v-.2h-.5v.1l.5.1zM399 114h-.3v.5h.1l.2-.5zm-12.3 19.4h.1c0-.2-.2-.3-.3-.5v.1l.2.4zm-3.7 65v.2h.7v-.1h-.7zm-30.7.1-.2.2.2.2.3-.2c-.1 0-.2 0-.3-.2zm-36.2-6.1-.2.2.1.1.2-.1-.1-.2zm2-91.4H318l.2.1.1-.1zm45.4 45.4v.2h.5l-.5-.2zm32.9-23-.3-.1-.1.1.2.3.2-.2zm-21 74.5.3.1.3-.3-.3-.3c0 .2-.2.3-.3.5zm-40-21.6v-.3l-.2-.1.2.4zm87.6-28.4v.2h.7l-.7-.2zm-40.6 48.8.1.1.8-.2v-.2c-.3 0-.6.2-.8.3zm-65.4-63-.2-.2h-.3c0 .2.1.3.2.3l.3-.1zm94.6 14.7v-.2h-.7v.1h.7zm-100.1 46.3v-.2h-.4v.2h.4zm98.6-79.4h-.2v.1l.2.2v-.3zM433 151v-.1h-.6v.1h.6zm-7.6-.5v.2h.6v-.2h-.6zM345 193.6l.2.1.1-.2-.3.1zm49.2-66.7h-.1v.2h.2l-.1-.2zm-29.5-20.7-.2.2.3.2.1-.1-.2-.3zm83.4 42.3v.4-.4zm-36.4-33.8h-.3v.1l.2.1v-.2zm28.7 33.6v-.2h-.6l.6.2zm-143.8-32.5-.2-.2-.2.1.2.2.2-.1zm148 36.4v.1l.4.1-.3-.3zM371.5 197l-.2.2.1.2.2-.2-.1-.2zm34.2-50.6v.1h.6-.6zM336.6 184l-.1-.2-.3.1h.4zm34 14h-.2l-.2.1.1.1.2-.1zm-37.2-63.4c-.2-.3-.4-.5-.8-.1h.8zm30.3 11.2v-.1h-.5l.5.1zm-58.4-32.6-.1.2h.4l-.3-.2zm78.5-5.5-.1-.2h-.3l.2.3.2-.1zm48.8 16v-.2l-.3.2.1.2.2-.2zm17.4 20 .1.2V143.4zm-85.8 58.1v.1h.5l-.5-.1zm-1.4.2h.4-.4zm-30.6-67-.4-.3-.4.1v.2h.8zm15.2.2-.2.1.1.4h.2l-.1-.5zm-8.2 7.7v-.3h-.5v.3h.5zm17.1-.9v.2h.7v-.2h-.7zM343 203.3l-.2-.2-.2.2h.4zm24.4-28.7-.1-.2-.2.2H367.3zm24.1-62.3-.3-.1h-.1l.1.3.3-.2zm59.5 23h-.1v.4h.1v-.4zm-91.6-28.6v.2h.4l-.4-.2zm21.3 14.8.2.2h.3l-.5-.2zm37.3 18.7h-.6.6zm-64.3.3v-.3h-.5v.2h.5zm-2.8-5h.7-.6zm-24.3 51.4.2.2.2-.1-.1-.2h-.3zm19.7-46.7.2-.2-.6-.3-.1.1.5.4zm25 46.8v-.2h-.3l.1.2h.2zm-73.7-47.2v.1l.4.2v-.2l-.4-.1zm37.9-.1v-.2h-.5v.1h.5zm19.4-3.7-.3-.2-.2.2.2.2.3-.2zm-41.1.1v-.2h-.5v.2h.5zM292.1 119l-.2-.1v.1l.1.1.1-.1zm157.2 19.4.2-.2-.1-.1c-.1 0-.2 0-.2.2l.1.1zm-25.1 47.7v.2h.4v-.2h-.4zm-60 0h.2l-.2-.2v.1c-.1 0 0 .1 0 .2zm57-48.4v-.2h-.8v.1h.7zm-39.7-27 .3.2a4 4 0 0 0-.3-.3zm-21.9 27 .2.3.1-.1-.3-.3zm81.5 46.7v-.2h-.5v.2h.5zm-95.4-47.7.1.8c.2-.4.5-.6 0-.8z"/>
        <path d="M321.8 351.7c-.8.8-1.7 1-2.7.5l-1.7-.6c-.5-.2-1-.5-1.7-.4-.5 0-1-.4-1.5-.6l-1.6-.6h-.3c-1.2-1.2-2.8-1.4-4.2-2.2l-1-.1c-1.6-.3-2.8-1.2-4.3-1.8a2 2 0 0 1-.7-.5c-.2-.2-.4-.5-.4-.8 0-1.4.1-2.8.6-4.2l2-6.8 1-3.4c.2-.4.3-.9.3-1.4.3-1.3 1.1-2.4 1.5-3.7a65.2 65.2 0 0 1 2.7-6.8c.2-.3.8-.5 1.2-.6.6-.1 1.2 0 1.8.2l2 .7 5.9 2.5c.5.3 1.1.4 1.7.6l2 .8 3 1.6c1 .5 1.4 1.3 1 2.4l-.5.2c-1.3.5-2.3 0-3.5-.5-1.4-.8-2.7-1.6-4.3-2l-3.7-1.5-3-1c-1-.2-1 0-1.5.7-.6 1.1-.6 2.4-1 3.6l-1 3.4-.5 1.9-.7 2.5c-.4 1.5-1.2 2.9-1.7 4.3 0 .3-.3.5-.4.7l-.7 1.8-.5 1.3c-.4 1.2 0 2 1.1 2.2 1 .3 2 .7 2.8 1.3a45.1 45.1 0 0 0 10.5 4.7c1 .2 1.6.7 2 1.6zM256.4 342.6a9.4 9.4 0 0 1 2.4-4c1-1 2-2.1 3.2-3.1.8-.7 1.6-1.3 2.6-1.7.3 0 .4-.3.7-.4 1-.6 1.8-1.4 2.7-2.1 1.1-.9 2.4-1.6 3.6-2.4l1.8-.8c.4.5.5.8 0 1.2-.8 1-1.5 2-2.4 2.9l-3.3 2.9-.7.7c-1.1.8-2.2 1.7-3.4 2.4l-1.6 1.1-2.3 2 2.6 4.1 2 3.6c.6 1.1 1.1 2.3 2 3.2l.2.5c.1.7.5 1.1 1 1.6l2.4 3.3c.7 1 1.6 1.8 2.5 2.5l.8.8c.7 1 1.8 1.6 2.8 2.6l15.6-12.4.9 1c-.3.7-.7 1.3-1.2 1.9-1.8 1.6-3.4 3.4-5.1 5.1l-4.2 4c-1.7 1.5-3.5 2.6-5.4 3.8l-.5.2c-.8-.4-1.8-.4-2.3-1.3 0-.2-.2-.3-.3-.5-.5-.9-1.2-1.5-1.9-2.2-1-1-2-1.8-2.8-3-.4-.6-1.2-1-1.5-2l-.5-.4-.9-1.2-.6-.7h-.2c-1-1.7-2.5-2.9-3.3-4.7l-.2-.5c-.6-.7-1.3-1.4-1.6-2.2-.5-1.3-1.7-2.3-2-3.7-.2-.7-.9-1.2-1.3-1.8l-.3-.3zm12.6 14.9-.6-.1c-.2.3-.2.6.1.9l.5-.8zm2.7 4.2h.3c-.1-.2.4-.5-.2-.8l-.1.8zM461.6 334.4c1.6.5 3.1 1 4.5 1.8l2.4 1.2c2 1 4 2 5.9 3.2.8.4 1.6 1.2 2.3 1.8l.5.4c1.2.3 1.6 1.5 2.4 2.4v.6l-.9.3-1 4.5c-.6 1.7-1 3.5-2 4.9l-.4.7c-.3.9-.5 1.8-1 2.5-1 1.4-1.2 3.2-1.8 4.7l-1.6 4c-.4.8-1.2 1.4-1.8 2l-.5.6c-.4.6-1 .6-1.7.2l-.9-.3-1.9-.6a130.1 130.1 0 0 1-9.8-5l-3.9-2.3-.9-.5c.4-.5.6-.7 1.3-.4l4.3 1.3c.7.3 1.3.8 2 1 1 .6 2 1.2 3 1.4 2 .4 4 1.5 6 1.8 1 .2 1 .3 1.6-.7.7-1.3 1-2.6 1.5-4l1.3-3.3 1.9-4.5c.5-1.2 1.1-2.4 1.5-3.7.5-1.6.8-3.4 1.2-5 .1-.4 0-.7-.4-1-1-.9-2.3-1.2-3.4-1.9l-6-3.6-3.3-2.2c-1-.8-1-1-.4-2.3zM434.3 246.5c-1 .2-2 0-2.8-.4-1.2-.7-2.5-1.3-3.9-1.5l-.5-.2c-1.4-1.1-3-1.8-4.7-2.5l-6.2-3c-.6-.2-.8-.6-.7-1.2l.5-1.8 1.6-3 2.6-5.4c0-.1.2-.3.1-.4 0-.5.3-.7.7-.8-.3-.8 0-1.4.2-2.3l.3.8.3-.1c.3-.6.5-1 .5-1.7 0-.5-.2-1.3.7-1.5l.3-.4c.2-1.1 1.2-1.8 1.6-2.9l1-2 .2-.3 1.8-2.9 1-1.3.7-.4 1.2.3c1 .4 1.8 1 2.7 1.4l1.6.7 2.8 1.4.7.5c.8.8 1.6 1.4 2.7 1.9l1.3 1 3.7 2.6c.6.4.8 1 .8 1.9l-.9-.2a626.5 626.5 0 0 1-7.3-3.5 12 12 0 0 0-2.8-1.4l-3.5-1.7-2.6-1.2c-1 1-1.5 2.2-2.1 3.4-1 1.7-1.8 3.5-2.7 5.2l-.7 1.4-3.3 7.3-2 4.8.4.3c.4 0 .7.2 1 .6 0 .2.3.3.5.5l5.5 3 7 4c.3.2.8.4.7 1zM423 227.3c.6-.4.6-1 .8-1.4l.7-1.6.6-1.3h-.3c-.4 1.4-1.7 2.5-1.8 4.3zm-1.5 3.4h-.1l-.2.7h.1l.2-.7zM370 244.4c1.3 0 2.2.1 2.8 1.5.5 1.3 1.5 2.4 2.6 3.4 1.2 1.2 2.1 2.5 3 4l2 3c.7 1 1.3 1.8 1.7 2.9.2.6 0 1-.4 1.4l-5 5-3 3c-.3.1-.4.4-.6.6-.6.7-1.3 1.3-2 1.8-1.3 1-2.6 2-3.8 3.2l-2.3 2.4h-.2c-1.1 1-2.3 1.8-3.6 2.8.3.4.2.7-.2 1-.2.2-.4.5-.7.6-1.2.4-2.5.8-3.8.6l-.4-.1c-.4-.6-1-1-1.4-1.5-.8-.9-1.7-1.5-2.7-2a15 15 0 0 1-3-2.8l-2.2-2.3c-.2-.3-.5-.4-.8-.6 0-.9.2-.8 1-1 .8 0 1.4.4 2 .7.2.1.4.2.4.4.1.6.6.9 1 1.2l2.5 2c1 .7 2.1 1.3 3 2.2.5.3 1 .4 1.6.6l1.5-1.3c1.6-1.6 3.4-3 5.3-4.3l2.4-1.9c1.5-.9 2.5-2.3 3.8-3.4.9-.7 1.5-1.9 2.6-2.4.2 0 .4-.3.5-.5.3-1 1.2-1.5 1.9-2.1l2.9-2.6c.3-.2.4-.6.6-1 .3-.4.1-.7-.1-1l-.3.3-.9-1.1.4-.2v-.2c-.6-.2-.8-.7-1-1-.6-1-1.2-1.7-1.9-2.5l-.4-.7-1-1.6-2.3-3-1.4-1.7c-.2-.2-.3-.5-.3-.7 0-.4.2-.7.3-1.1zm4 5c0-.7 0-1-.5-1l-.2.5.7.5zm6.1 7.5-.7-1.1c0 1 0 1 .7 1.1zm-3.5-4.8c.4-.3.3-.5-.1-.8v.8zm-1.6-2.3-.1.1.4.6.1-.1-.4-.6z"/>
        <path d="m373.8 238-.5-.4v.1c.1.4 0 .7-.4.8l-1.8 1-1 .7-.6.2-.3.1c-.9 1.2-2.2 1.9-3.3 2.9-.5.5-1 1-1.7 1.4-.7.3-1 .7-1.5 1.2l-.1.3.7.5 1.1 2.4c.8 2.2 2.3 3.9 3.4 5.8.7 1.2 1.6 2.2 2.4 3.3l.4.7c.5.8.8 1.8 1.8 2.3.5.2.5.6.7 1.4a4 4 0 0 1-2.7-.1l-.2-.2c-.5-1.3-1.7-1.8-2.6-2.6-1-.8-1.7-1.7-2.5-2.6-.7-.7-1.2-1.5-1.8-2.3-.2-.2-.4-.3-.4-.6 0-.7-.5-1.3-.8-2l-1.5-3.3-.9-2.1c-.1-.7.4-1.5 1-1.8 1.5-.8 2.8-1.8 4.2-2.9 1.8-1.5 3.6-3.1 5.7-4.3l2.9-2a45 45 0 0 1 8.4-5c1.2-.9 2.5-.8 3.9-.8.6 0 .8.6 1.1 1l.8 1.5 3.6 6.3c1 1.6 1.8 3.2 3 4.5.7.6.7 1.4.6 2.1 0 .4-.3.6-.6.4l-1.7-1.2a31.2 31.2 0 0 1-3.4-4c-.9-1.5-2-2.7-2.9-4l-1-1.6-1.3-1.5c-.5-.6-.9-.6-1.5-.3-1.5.7-3 1.4-4.3 2.3l-3.2 1.6-1.2.8zM308.2 304l.9-.9c.3-.4.7-.4 1.2-.3l6.7 2 3.3.5 2.3.3 1.2.1.4-.9 2.8-10c.5-1.8 1.1-3.6 1.4-5.4.3-2 1.2-3.8 1-5.9v-.3c-.2-.4-1-.5-.7-1.2-.2 0-.6 0-.7-.2-.4-.3-.8-.4-1.2-.5-2-.4-4-.8-5.8-1.4-1.6-.6-3.2-.7-4.7-1l-1.1-.3c-.4 0-.6-.3-.5-.7 0-.4.3-.6.6-.6h2.5l2.7.1 1 .1c1.1.3 2.3.5 3.5.2l.6.2c.5.2 1 .6 1.6.7 1.5.5 2.8 1.3 4.2 2.1.5.4.7.9.6 1.5 0 .7-.1 1.3.2 1.9.3.4 0 1 .1 1.5 0 1-.3 1.9-.5 2.8-.3 1.1-.9 2.2-1 3.4-.2 1.4-1 2.8-.9 4.3v.5l-1 2.5-.5 1.3-1.2 3.4-.2.3c.2.7-.3 1.3-.2 1.9 0 .8-.5 1.3-1 1.8-.1.2-.6.4-1 .4h-4c-1.2-.2-2.3-.6-3.4-1l-5.2-1.9-3-1c-.3-.2-.6-.2-1-.2zm22.2-18.8c.6-.6.7-1 .3-1.7l-.3 1.7zm-1 2.7c.6-.8.6-.8.2-1.6 0 .7-.6 1-.2 1.6zm1.1-4.8.7.3-.2-1.1h-.2l-.3.8zm-2.8 11.8v.6-.6zm0 1h-.3l.1.5h.1v-.5zM419.6 347.5l.3 1.3c-.3.5-.6.9-1.2 1.2-.8.4-1.3 1.2-2 1.8l-3 3.1-2.3 2.6c-1 .9-1.5 2.1-2.8 2.7l-.7.2-1.2.3c-.6.3-1.2.3-1.7-.2l-3.1-3c-.9-.7-1.4-1.7-2.6-2-.3-.1-.5-.7-.8-1l-1.6-1.4-2-2.2c0-.2-.2-.4-.4-.5-.6-.8-1.3-1.4-1.8-2.3-.3-.8-.8-1.5-1.3-2.2-.4-.6-1-1.3-.6-2.2l-.1-.4c-.2-.6-.4-1.2-.4-1.8 0-.4 0-1 .2-1.3a5 5 0 0 1 1.2-1.9c1-.8 1.8-1.8 2.7-2.8l.8-.6 3.7-3.8 1.7-2s.2-.3.3-.2c.6 0 1.1-.4 1.6-.7.3-.2.5 0 .5.4-.6 1-.8 2.2-1.7 3l-.5.6-1.6 1.8-1 1.5-1 1-3.2 3.2c-.6.6-1.2 1.2-1.6 2-.2.5-.1 1.3 0 1.9 0 .4.3.9.6 1.3l3 4c2 2.3 4 4.4 6.3 6.3l2 1.9c.7.5 1.1.5 1.7 0 .3 0 .5-.3.7-.5l2.5-1.8 5.6-4.2 1.7-1.1c.3-.3.8-.5 1-.8.5-.7 1.3-1 2-1.2zM318.8 264.4c-.5.5-1 .6-1.7.4l-4.4-2a120 120 0 0 0-4.8-2.2c-.6-.3-.7-.2-1.2.4 0 .1 0 .2-.2.2-1.1.7-1.3 2-1.8 3l-1.9 4.4-1.3 3.2c-1 2.5-1.9 5-2.6 7.6l-1.1 3.3c-.3.7-.4 1.5-.5 2.3l.3.6 1 .5a726.5 726.5 0 0 0 8.2 2.8c.3 0 .7 0 1 .3.2.2.6 0 1 .1.3.6.2 1.2 0 1.8-.8 0-1.7 0-2.4-.2-1-.2-2-.3-2.9-.6-.8-.4-1.8-.5-2.8-.7-1.7-.5-3.4-1-4.9-2.2-1.2-.9-1.2-1.4-.8-2.6.3-1 .5-1.9.6-2.9 0-.6.1-1.3.4-1.8.6-1 .6-2.2 1-3.2.6-1.7 1-3.4 2-5 .4-.8.5-1.7.9-2.6l2.4-6.1.7-1.6c.4-.6.8-1.1 1.3-1.5l1.2-1c.2-.4.6-.6 1-.5a144.4 144.4 0 0 1 4.9 1.1c.7.8 1.7 1.1 2.6 1.5l2.8 1.5 1 .5c.6.3.9.6 1 1.2zM296 283.7v2.2c.3-.2.3-.5.4-.7l.1-.5c.5-.6.6-1.2.2-1.9l.6-.7v-.1l-1 .6c-.3.6.5 1.1 0 1.7l-.3-.6zm11.9 6.4v.2c.2.2.4.3.7-.2h-.7zM288 230.2l1.8-1.2.5-.2c2.1-.2 4.2-.7 6.4-.8 1.1 0 2.2-.2 3.4-.1v1c-.2.6-.6 1-1.3 1-1 0-1.9.1-2.8.5-.5.2-1 .2-1.6.2l-3.6.2c-.4 0-.7.3-.7.6v1.9c.4 2.2.9 4.5 1.2 6.8.4 2.3 1.2 4.4 1.2 6.8 0 .5.3 1 .4 1.6 3.4-.6 6.8-.9 10.2-1.1l.5 1.1c.2.7-.1 1.1-.9 1.1-1 0-1.8.1-2.5 1h-.4l-4.6 1c-.5 0-1 0-1.6-.2l-1.3-.5c-.2 0-.3 0-.4-.2-.6-.8-1.1-1.6-1.3-2.6-.8-4-1.6-7.8-1.7-11.8-.5-1 0-2.4-1-3.3v-2.8zm3.4 14.6c.6-.8-.4-1.1-.2-1.7l-.7 1.1v.4l.7-.7.2 1zm.4 1-.2.8h.2v-.8zm-1.7-9h-.2l.2.9h.2l-.2-1zm0 2.4c-.1.3-.2.6.4.5l-.4-.5zm.3.9c-.6.2-.5.4-.4.9l.4-1zM283 333.4l-.2-.2.2-.2c.2 0 .2.1.3.2l-.3.3zM344 292.6c.5.3.3.5-.1.9v-.9zM328 227.8l-.2-.5h.2l.1.5h-.2z"/>
        <path class="st1" d="m338.8 104.8 1-.7c.1 0 .3-.4.2-.5-.2-.6.2-.7.4-1l.7.5.1-1.3c-.5-.2-1-.5-1.4.2l-.2-1.9c.7-.1.7.4 1 .7.8-.6 1.4-.6 3.5.1.2.4 0 .7-.3.7-1.2.3-1.2 1.2-1.2 2.1.4.1.8.3.8-.2 0-.6.4-.5.8-.7l.3 1.5.6 1.3-.8 1-.6-1.2-1.1.7c-.2-.3 0-.8-.6-.8l-.4-.5c-.2-.3-.3-.8-.8-.7-.5 0-.4.5-.5 1-.1.6-.2.8-.9 1.2-.2-.5.2-1.3-.6-1.6zm3.1-2.7h-.2l.2.4h.1v-.4zM439.4 178.3l.6-.7.2.9 1.3-.2.3.3v.4c-.7.5-1.4.9-2.3 1.1l.7-1-.9-.7.1-.1zM338.4 176.5c-.5-.1-.8-.6-.6-1 0-.3.2-.4.4-.7.5.6.2 1.2.2 1.7zM282 115c.3-.2.5 0 .5.2.1.4-.2.6-.7.8l.3-1zM345.1 184.1l-.6.4-.4-.3v-.2l1 .2zM350.3 106.4c.1.6 0 .6-.7.6l.8-.7zM407.6 114.7l-.6-.1c.3-.4.5-.3.7 0h-.1zM442.9 170.5c-.5-1.8 0-3.5.8-5 .2.5.2 1.2 0 1.7-.4.7-.4 1.3-.4 1.9 0 .5 0 1-.4 1.4zM400.6 170l-.1-1.6c.7 0 1 .5 1.3.8-.4.7-.4.7-1.2.7zM433 169v-.6l.6-.4 1 1.2-.2.4-1.4-.6zM428.5 168c.3-.4.7-.5 1.1-.2l.8.4c-.4.4-.4.4-1 0l-.5.5c-.5 0-.5-.3-.3-.7zM433 159.8l-1.4-.7c1-.5 1.4-.3 1.5.7zM423 167.7h1.3c0 .9-.9.4-1.1 1l-.2-.2v-.8zM410.7 156.6c-.1-.3 0-.6.3-.7l1-.2c-.5.2-.6 1-1.4.8zM432.2 157.6c-.3-.8-.2-1 .7-1.3 0 .5-.2 1-.7 1.3zM433.1 157c.3-.9.5-1 1.4-.7l-.1.2-1.3.6zM428.3 165.3c-.6-.2-1-.4-1.2-1.2.6.2 1.2.4 1.2 1.2zM418.5 161.7c.4 0 .7-.2 1.1-.3l.1.3-.2.5-1-.3v-.2zM409 157.8c0 .2 0 .5-.2.5l-1.3.4c.3-.7.9-.8 1.5-.9zM399.7 154l-1.4.3c.4-.7.5-.7 1.4-.5v.3zM396.3 171.8c0-.8.1-1 1.1-1.4l-1 1.4zM404.7 170.4c.5-.4.8-.3.9 0 0 .2 0 .5-.2.5-.5.2-.5-.3-.7-.5zM400.1 169.5l-.9 1c0-1 0-1 1-1zM432.4 163.9c-.5-.3-.6-.5-.4-.9h.5c.4.3 0 .6-.1.9zM429.1 162.3v1.3c-.6-.4-.6-.7 0-1.3zM425.9 163.8l.8-1c.1.5.1.9-.1 1h-.7zM418.3 167.4c.7.4.7.4.2 1l-.2-1z"/>
        <path class="st1" d="M428.6 168h-.8v-.7l.2-.1.5.9zM420.8 161.7c0 .3.2.7-.3 1-.2-.4-.3-.8.3-1zM400.8 165c.4.5.4.7.1 1l-.4-.2.3-.8zM431.4 161.8c-.4-.5-.4-.5.3-1.2l-.3 1.2zM399.1 167c.8.1.8.1.4.8l-.4-.9zM417.1 167.8l.4.6-.2.2c-.5-.2-.5-.4-.2-.8zM404.7 156.2v.4l-.1.7-.1-1h.2zM409.1 169v-1c.4.5.4.5 0 1zM428.4 157.7c.2-.7.2-.7 1-.3l-1 .3zM422.6 162.8v-1.1c.5.5.5.5 0 1.1zM396.8 153.7c0 .3-.2.5-.3.8-.4-.5-.4-.5.3-.8zM398.5 170v.7h-.2c-.2-.2-.2-.4.2-.7zM399.8 171l.8-.4v.6c-.3 0-.5 0-.8-.2zM406.4 171.6v.6h-.2v-.5h.2zM403.2 168.6l-.2-.8.5.4v.4h-.3zM426.4 168.6l.2-1c.3.5.3.5-.2 1zM419.7 156.6l-.8.4c.2-.4.1-.8.8-.4zM410.7 156.6l.3.6-1-.5.7-.1zM426 157.2h.7c-.2.4-.4.4-.7 0zM398.7 165.4h-.6c.3-.4.3-.4.6 0zM403 161.5l-.6.2v-.2c0-.1.1-.2.3-.2h.4v.2zM417.8 156.1v.5h-.2v-.5h.2zM401.8 167l.3-.3.1.1-.3.4-.1-.2zM435 168l.3.3-.1.1-.3-.2v-.1zM431.3 168.5l.1-.4h.2l-.1.4h-.2zM406.1 167.2l.1-.6h.2v.6h-.3zM404 166.6l-.2.2-.2-.1.1-.2h.3zM397.3 165.1l-.4.1h-.2l.3-.4.3.3zM420.1 156.1l.2.2-.2.2-.1-.2.1-.2zM423 156.7V157c-.2 0-.2-.1-.3-.2.1 0 .2 0 .3-.2zM430.6 157.1l-.1-.2H430.8c0 .1 0 .2-.2.2zM407.7 157.8c0-.2-.2-.3-.3-.4l.2-.1.3.3-.2.2zM409 157.8h.5v.2l-.5-.2zM430.4 159.2l-.3.1h-.1l.3-.2.1.1zM430 161.1l-.1-.3.1-.1.2.4h-.2zM432.6 160.8l.1.3-.1.1-.2-.1.2-.3zM406.4 165.6l.2.5h-.2l-.2-.5h.2zM397.6 166.3s-.1.1-.2 0v-.2h.4l-.2.2zM413.4 167.3l.2.2c0 .1 0 .2-.2.3l-.1-.2.1-.3zM436.3 168l-.1-.3.2-.1v.1l-.1.3zM410.5 168.8l-.4.3-.1-.1.4-.4v.3zM433.3 170.2l-.2.3-.2-.3.2-.2.2.2zM338 108.8c0 .7-.1.8-1 .3l-.3.6-.6-.3-1 .7h-.1c.6-1-.4-1.7 0-2.8l.3.7c.2.5.4.6 1 .3h.2l1.5.5zM345 102c.5-1.1 1.6-1 2.5-1.3.2 0 .5 0 .8.2-.4.6-.6.8-1.3.8l-1.5.3h-.6zM362.8 99.6c0 .7-.4.8-.8.8h-.9c-.3 0-.5-.2-.5-.5s.3-.5.6-.4h1.6zM346 107.8c-1 .4-1.9.6-2.6-.4.2-.2.4-.6.8-.3.2.2.4.1.7.2l1 .2v.3zM342 106.7c-.3.4-.7.6-1.2.6s-.9-.2-1-.7l.8-.8c.4.5.6.6 1.5 1zM345.8 99.2c0 .8 0 .8-.7.8a4 4 0 0 1-.6 0l-.2-.1c0-.4-.2-1 .4-1.3l.6.6h.5zM366.4 124.6l-.9-1 .1-1.3h.5v.8c0 .3 0 .5.3.7.4.2.1.5 0 .8zM344.9 118.2l-.9-1.4c-.2-.4 0-.6.2-1l1 .7-.3 1.7zM341.8 109.2c-1.4 0-1.5-.2-1.2-1.3.5 0 .9.3 1.1.7v.6zM343.4 99.6c-.6.1-1.1.5-1.6 0 .7-1.1 1-1.1 1.6 0zM343 126c-.5.3-.8 0-1-.3.3-.5.3-.5 1.5-.6l-.6.9z"/>
        <path class="st1" d="m342 106.8 1.3-.6.1.1c-.9.4-.5 1.2-.9 1.9l-.4-1.5zM337 101.5c.9 0 1.3.2 1.7 1-.5.1-1 0-1.3-.4l-.4-.6zM345.1 121.8l.5.9c-.6.6-1 0-1.3-.2l.8-.7zM338 108.8l.7-.7.4 1c-.5.4-.9.3-1-.3-.1 0 0 0 0 0zM340.9 113.6l-.8.2-.4-1.2 1.2.8v.2zM363 128.8c.7 0 .9.4.9.8l-.5.5-.3-1.3zM368.4 122.5l-.6.4-.3-.8c.3.2.9-.3 1 .4zM357.9 115c-.2-.2-.4-.3-.4-.5 0-.3.1-.6.5-.6l.3.3c0 .3-.3.5-.4.8zM340 99.4c-.3-.4-1-.6-.6-1.2.5.3.5.7.5 1.2zM370.7 127.5c-.6.2-1 .5-1.4 0 .4-.3.8-.3 1.4 0zM335.9 118.7v.7h-.8l.6-.7h.2zM368.2 117.8c-.2.3-.3.7-.8.6.1-.5.5-.5.8-.6zM344.1 112.8l-.6-.2v-.3l.7.1v.3zM368.3 127.3l.7-.1c-.1.6-.4.4-.7.3v-.2zM356 128.2c-.6.3-1 .2-1.2-.2l1.1.2zM341.4 99.5l-.5.1v-.2l.5-.2v.3zM340.2 116.5c.4-.6.4-.6.9-.1l-1 .1zM337.1 120.6l-.1.8-.3-.2.2-.6h.2zM345.8 99.2h.8c0 .3 0 .6-.2 1l-.6-1zM363.1 102.7h-.8c.2-.5.2-.5.8 0zM317 94.8l-.9-.2c.5-.4.6-.2 1 .2zM320 97.1l-.3.3-.2-.3.2-.2.4.2zM372.4 129.9v-.6h.2v.6h-.2zM343 126l.3.3h-.1l-.2-.4zM339.1 113c.2 0 .3.2.4.3l-.1.1c-.2 0-.3-.2-.4-.3l.1-.2zM333 105.2l-.4-.7c.4.1.4.2.4.7zM361 126.6l.3.1v.2a6 6 0 0 0-.4-.2v-.1zM346.3 113.3l.2.2-.2.2s-.1-.1 0-.2v-.2zM346 122.5l.3-.3.1.2-.3.2h-.1zM353.4 126.6l-.1.2-.2-.2.1-.1.3.1zM356 128l-.2-.5.2-.1s.2 0 .3.2l-.3.4zM363 127.7v.4l-.1-.4h.2zM315 94.7c.3-.1.6-.3.9 0-.3.3-.6 0-.8 0zM332 193.7c-.5.4-.7.4-.8 0v-.9c.2-.3.5 0 .8 0 .8.2 1.6.4 2.3 1-.5.3-1 .3-1.6.3-.2-.4-.3-1-1-1l.3.6zM336.6 189l-.2.9h-.2c-.4-.3-.7-.5-1.1 0-.3.4-.6 0-.7-.1-.2-.3 0-.6.2-.7l2-.1zM319.8 193.6l.2-.5 1.7-.1-.7 1.1c-.6 0-.6-.8-1.2-.6zM323 192.7c.3.2.8.4.7 1l-.3.3-.3-.1-.4-1.1.2-.2zM328.7 178.8l.7 1c-.5.5-.9.2-1.4 0l.7-1zM337.3 193.5c-.3.4-.6.2-.8 0-.2-.3-.4-.7 0-1.2l.8 1.2zM339 184.5l.9.1v.8h-.9v-.9zM330.5 191.2l.3-.8c.6 0 .6 0 1 .6l-1.3.2zM351.3 191.5l.2-1h.4l.2.3-.4.8-.4-.1zM319.9 181.1a3 3 0 0 1 0 2c-.4-.8-.4-1.3 0-2zM353.5 190.8l-1 .6c0-1 0-1 .9-.9l.1.3zM330.6 191.9c.4-.2.6-.4.7-.3l.3.5-.1.2-1-.4zM329.8 189.3h1.2l-.3.7-1-.7zM327 180l.7-.3c.2.7-.7.5-.6 1l-.2-.1v-.6zM328.1 191.5l-.6.4-.1-.2c0-.3.2-.4.8-.2zM340.9 184.5l.1.6c-.4-.2-.4-.2-.1-.6zM330.3 193.8l-.5-.5c.7-.2.7-.2.5.5zM340 187l.4.4-.2.1-.5-.3.2-.2zM322.7 184.4l-.2.9c-.4-.4-.2-.6.2-.9zM346.1 186l-.5.3-.2-.3.2-.1c.1 0 .3 0 .5.2zM352.2 183.9l.7.2-.2.3-.5-.6zM354.3 192.3v.2l-.4-.2.1-.2.3.2zM330.1 182.5l-.2.2-.1-.1v-.2l.3.1zM353.1 187.6l-.3.1-.1-.2v-.1l.4.2zM320 183.3v.3h-.2c0-.2 0-.2.2-.3zM426.3 128l.5-1.2h-.3v-1.3c.7.4.9.8.8 1.4 0 .7-.4 1-1 1zM430.8 130.6l-.2 1-.6.5c0-.2-.2-.4-.3-.5.4-.2.2-.6.4-.9h.7zM416.6 128.3c-.6.2-.8-.2-1-.5-.1-.1 0-.4.2-.7l.8 1.2zM415.2 128.2c-.7-.6-.2-1 0-1.5.4.5-.2 1 0 1.5zM419.3 128.2l-1-.7c.6-.2.6-.2 1.1.5l-.1.2zM430.9 129.6l-1 .3.3-1 .7.7zM409.4 129l-.1.5h-.3l.2-.6h.2zM429.3 124c0 .3 0 .7-.5.7 0-.3.3-.5.5-.7zM411 183.4l-1.6.5.2-1.7c.2.7 1.4.2 1.3 1.2zM406 183c.8-.6 1.6 0 2.3-.2 0 .8-.2 1-.8.8l-1.6-.6zM446.7 163.3c-.6-.8-.2-1.6 0-2.5.3.8 0 1.7 0 2.5zM408.1 180.7l1 .7c-.3.6-.4.5-1.5-.3l.5-.4zM411.4 183c-.2-.6-.1-.9.2-1.2.2.4.2.7-.2 1.1zM400 184.7v-.7h.3c.2.2.1.4-.2.7zM408.6 184.7c-.6.1-.8.2-1-.4l1 .4zM418.6 181.6l-.3.7c-.1-.5 0-.6.3-.7zM446.7 159.3v.7c-.3-.4-.3-.4 0-.6zM446.9 166.7v.5l-.2-.4.2-.1zM418.8 180.2l-.1-.2.2-.1.1.2h-.2zM288.1 138l.8.4a19 19 0 0 0 3.4 1.6c1 .3 1.9 1 3 .9.3 0 .5.3.8.6-.6.3-1 .2-1.4 0-2.3-1-4.7-1.7-6.7-3.2l.1-.3zM281.8 128.9c.1.2.3.3.3.5v2.6c0 .3-.4.7-1 .7v-.3c.5-.8.3-1.7.3-2.6l.2-1 .2.1zM281 118.1l1-1.9c.2.8.2.8-.8 2h-.2zM281 122.5l-.4.2a1 1 0 0 1-.3-.5l.2-.3.5.6zM283 130.6l-.4.2-.2-.2.3-.1.3.1zM302 193c-.5-1-1-2-1.2-3.2-.4-2.1-.7-4.3-1.2-6.4-.5-1.7-.6-3.4-.7-5 0-.4.1-.8.3-1 .4-.6 1.2-.3 1.4.4l1.4 5.6 1.1 6v2.5c0 .6-.3.8-1 1zm-.3-3.3c.2-1-1.4-9.4-1.9-10.2.3 3.6 1.3 6.9 1.9 10.2zM289.6 183.7l.2.9-1.6.6v-1.1l-2 .4.6-1-.5-.8-.4.7-.9-.5.6-.4-.8-.7 1.1-1.8c.4.8-.5 1.5.4 2.1.3-.5.3-.9.1-1.4-.3-.7.1-1.5.9-1.7.5 0 .6-.3.7-.7.1-.3.2-.7.7-.8v1.7h1.4l.8-.9c.3 1.3-.8 2.5 0 3.9l-1-.3-.3 1.9zm-2.2 0h.2v-.8h-.2v.9zM290.8 190.4l-.1-1.5-.8-.1c-.5.6.2 1.5-.6 2.1-.2-.5-.5-1-.3-1.6v-.8c0-.9.2-1 1-1.1l.4-.2c.8 0 1 .3.8 1v.7c0 .5 0 .8-.4 1.5zM287.5 196l-.4-.1c-.3-.4-.1-1.4.3-1.8.4.6 0 1.3 0 2v-.1z"/>
        <path class="st1" d="m289.6 183.8 1.3-1.1c.4.5.4.5-.7 1.4l-.6-.4zM285 179.5l-.8-.1c.5-.6.6-.6.9.1zM291.8 182l.1-.6c0-.2.2-.3.3-.3l.2.1-.1.5-.5.2z"/>
        <path class="st1" d="M291.8 182c.3.5.3.5-.2.9-.3-.4 0-.7.2-1zM295.7 193.9l.2.7h-.3l-.2-.6.3-.1zM291 180.3l.4-.2.2.2-.2.2-.4-.2zM292.6 182.6v-.5h.2v.5h-.2zM289 187.6l-.4.4c-.3-.6-.2-.7.1-.7l.3.3zM291.3 186.6l-.4.2-.2-.2.5-.2v.2zM441.5 123.3l-.3-.6.7-.3-.4 1zM441.6 117.7v.4h-.2v-.5h.3zM442.4 117.8c-.1 0-.2.2-.3.1l-.1-.2h.2l.2.1zM378.6 102H378.3l.1-.1h.2zM378.9 101.2l-.5.2-.2-.3h.7zM326.8 108.3l-1 .8v-1l1 .2zM344.3 175.9l-.3.4-.2-.2v-1l.3-.3.6.5-.4.6z"/>
        <path class="st1" d="m344.7 175.3.5-.6.8.7c-.5.5-1 0-1.3-.1zM342 174.5l-.7.9c-.3-.9-.1-1 .7-1zM343.5 174.8l-.3-.6h.1s.2 0 .2.2v.4zM346.2 176.4l-.4-.2v-.2l.5.1v.3zM316.3 182.9h.3l-.7 1-.5-.6c.2-.4.5-.5.9-.4z"/>
        <path class="st1" d="M316.3 182.9v-1.2c.3.4.3.8 0 1.2zM311 184.7l-.1-.6h.2v.5h-.2zM402 114l.6.1.8.3c-.1.6-.8.5-1.2 1l-.2-1.4zM397.4 117.3l-1 1.3c-.2-1 0-1.3 1-1.3zM395.3 119h-.7l.2-.7h.2l.3.8zM364 110.1c-.6.4-.6.4-1.1-.1.4-.4.7-.3 1.2.1zM360.6 109.9l.1.2-.1.2h-.2l.2-.4zM442.3 132.2c-.4-.8-.4-.9.4-1.5l-.2 1.5h-.2zM443.2 129.7l.2 1.2-1-.8.8-.4zM440.2 128.9c0-.6-.4-1.1 0-1.9.3.8 0 1.3 0 1.9zM374.4 190.1v.7c-.5-.5-.5-.5 0-.7zM376.3 113.3l-.1-1-.8.4c-.4 0-.6-.5-.6-1.3l1.8.5c0 .4.5.9-.3 1.4zM372.1 111.4c.5 0 1-.3 1.4.3-.6.2-1 0-1.4-.3zM375 175.5l.8.5c-.7.1-.7.1-.7-.5zM367.3 181.4l-.6.5v-.2l.4-.4.2.1zM387.2 111c.6 0 .7.5 1 .7-.4 0-.4 0-1-.7zM364.4 182.6c-.2-.6.2-.6.5-.7.1.5-.1.6-.5.7zM333.2 176.6l.5-.3.1.2-.8.7-.2-.2.4-.5zM438.4 149.4l-.5.1v-.2h.4zM297.4 129.8l.4.1.3.5c-.6 0-.7-.2-.8-.6z"/>
        <path d="M174.1 337.3c-.8-.8-1-1.7-.5-2.7.2-.6.5-1.1.6-1.7.2-.5.5-1 .4-1.7 0-.5.4-1 .6-1.5l.6-1.6v-.3c1.2-1.2 1.4-2.9 2.2-4.3l.1-1c.3-1.5 1.2-2.8 1.8-4.2 0-.3.2-.5.5-.7.2-.2.5-.4.8-.4 1.4 0 2.8.1 4.2.5 2.2.8 4.6 1.4 6.8 2.1l3.4 1c.4.2 1 .3 1.4.3 1.3.3 2.4 1.1 3.7 1.5a65.2 65.2 0 0 1 6.8 2.7c.3.2.5.8.6 1.2.1.6 0 1.2-.2 1.8l-.7 2-2.5 5.9-.6 1.7-.8 2-1.6 3c-.5 1-1.3 1.4-2.4 1 0 0 0-.3-.2-.5-.5-1.3 0-2.4.6-3.5.7-1.4 1.5-2.7 2-4.3.3-1.2 1-2.4 1.4-3.7l1-3c.2-1 0-1-.7-1.5-1.1-.7-2.4-.6-3.6-1l-3.4-1-1.9-.5c-.8-.3-1.6-.6-2.5-.7-1.5-.4-2.9-1.2-4.3-1.7-.3 0-.5-.3-.7-.4l-1.8-.7-1.3-.5c-1.2-.4-2 0-2.2 1.1-.3 1-.7 1.9-1.3 2.8a45.1 45.1 0 0 0-4.7 10.5c-.2 1-.7 1.6-1.6 2zM118.2 54.1c1.5.6 2.8 1.2 3.9 2.4 1 1.1 2.2 2.1 3.2 3.3.6.7 1.2 1.6 1.6 2.6 0 .2.3.4.5.6.5 1 1.3 1.9 2 2.8 1 1 1.7 2.3 2.4 3.5.4.6.6 1.2.8 1.9-.4.3-.7.4-1.2 0l-2.8-2.4-3-3.3c-.1-.3-.4-.5-.6-.7-.8-1.2-1.8-2.2-2.5-3.4l-1-1.7-2-2.2-4.2 2.5c-1.1.7-2.3 1.5-3.5 2-1.2.7-2.3 1.2-3.3 2-.1.2-.3.3-.4.3-.7 0-1.2.5-1.7.9l-3.2 2.5c-1 .7-1.8 1.5-2.5 2.4l-.9.9c-1 .7-1.6 1.8-2.5 2.7l12.3 15.7-1 .8c-.6-.2-1.3-.6-1.8-1.2l-5.2-5-4-4.3c-1.5-1.6-2.6-3.5-3.8-5.3 0-.2-.2-.4-.1-.6.3-.7.3-1.7 1.2-2.2l.5-.3c.9-.5 1.5-1.2 2.2-2 1-.9 1.9-2 3-2.7.7-.5 1.1-1.3 2-1.5l.4-.5 1.2-1c.3-.1.5-.4.7-.6l.1-.2c1.6-1 2.8-2.5 4.6-3.2l.6-.3c.7-.5 1.3-1.3 2.1-1.5 1.4-.5 2.3-1.7 3.8-2 .6-.2 1.1-1 1.7-1.4l.4-.3zm-15 12.6.2-.6c-.3-.1-.6-.2-1 .2l.9.5zM99 69.5v.3c.2 0 .5.4.8-.2H99zM200.7 226c-.4 1.6-1 3.1-1.8 4.5l-1.2 2.4-3.1 5.9c-.5.8-1.2 1.5-1.9 2.3 0 .2-.3.3-.3.5-.4 1.2-1.6 1.6-2.5 2.4h-.6l-.3-.9-4.5-1c-1.7-.6-3.4-1-4.9-2l-.7-.4c-.8-.3-1.8-.5-2.5-1-1.4-1-3.1-1.2-4.7-1.8l-4-1.6c-.7-.4-1.3-1.2-2-1.8l-.6-.5c-.5-.4-.6-1-.2-1.7.2-.2.3-.5.4-.9.2-.6.3-1.3.6-1.9a130.1 130.1 0 0 1 4.9-9.8l2.4-3.9.5-.9c.5.4.6.7.4 1.3l-1.4 4.3-1 2c-.5 1-1.2 2-1.4 3-.4 2-1.4 4-1.8 6-.2 1-.2 1 .7 1.6 1.3.7 2.6 1 4 1.5l3.4 1.3 4.4 1.9c1.2.5 2.4 1.1 3.7 1.5l5 1.2c.5.1.7 0 1-.4 1-1 1.3-2.3 2-3.4l3.6-6 2.2-3.3c.7-1 1-1 2.2-.4zM226.2 222.3c-.2-1 0-2 .5-2.8.7-1.3 1.2-2.5 1.5-4 0-.1 0-.3.2-.4 1-1.5 1.8-3.1 2.5-4.8l2.9-6.2c.2-.5.7-.8 1.2-.7.6.1 1.3.3 1.9.6l3 1.5c1.8 1 3.6 1.8 5.3 2.6l.5.2c.5 0 .6.2.8.6.7-.2 1.4 0 2.2.3l-.8.3.2.3c.5.2 1 .5 1.7.4.5 0 1.2-.1 1.4.7l.4.3c1.2.2 1.9 1.2 3 1.7l2 1 .3.1 2.8 1.9 1.4 1c.2.1.3.4.3.7 0 .4 0 .8-.2 1.1l-1.4 2.8-.8 1.5-1.4 2.9-.5.6c-.7.8-1.4 1.7-1.9 2.7-.2.5-.6.9-.9 1.3l-2.7 3.8c-.4.5-1 .7-1.9.7.1-.3.1-.6.3-.8a626.5 626.5 0 0 1 3.5-7.4c.6-.8 1-1.8 1.4-2.8.4-1.2 1-2.3 1.6-3.5l1.2-2.5c-1-1.1-2.2-1.6-3.4-2.2-1.7-1-3.4-1.8-5.2-2.7l-1.4-.7-7.3-3.3-4.7-2-.3.4c-.1.5-.3.8-.7 1-.2 0-.3.3-.4.5l-3.1 5.6-4 7c-.2.3-.4.7-1 .7zm19.2-11.5c.4.6 1 .6 1.5.8l1.5.7 1.3.6.1-.2c-1.5-.5-2.6-1.8-4.4-1.9zm-3.4-1.4v-.2l-.6-.2v.2l.6.2zM190.8 187.4c0 1.2-.2 2.2-1.5 2.7-1.3.6-2.4 1.6-3.5 2.6a18.4 18.4 0 0 1-3.8 3l-3.1 2.1c-1 .7-1.9 1.2-3 1.6-.5.2-.9.1-1.3-.4l-5-4.9-3-3.1-.6-.6c-.7-.6-1.3-1.2-1.9-2l-3-3.7-2.5-2.4-.1-.1-2.7-3.6c-.4.2-.7.1-1-.2l-.6-.7c-.4-1.3-.8-2.5-.6-3.8l.1-.4c.6-.4 1-1 1.4-1.5 1-.7 1.6-1.7 2.2-2.6a15 15 0 0 1 2.6-3.1l2.4-2.1c.3-.2.4-.6.5-.8 1 0 1 .1 1 1 0 .8-.3 1.3-.7 2l-.3.3c-.6.2-1 .6-1.3 1-.6 1-1.3 1.7-1.9 2.5-.7 1-1.3 2.2-2.2 3.1-.4.4-.4 1-.7 1.6l1.3 1.4c1.7 1.6 3 3.5 4.4 5.4.6.8 1.3 1.5 1.8 2.4 1 1.4 2.4 2.4 3.5 3.7.7 1 1.8 1.5 2.3 2.7.1.2.4.4.6.4 1 .4 1.5 1.2 2.1 2l2.5 2.8 1 .7c.5.2.8 0 1.2-.2l-.4-.3 1.1-.8.2.3h.2c.2-.5.6-.7 1-1l2.4-1.8.7-.5c.6-.2 1.1-.6 1.7-1l3-2.2 1.7-1.5c.2-.2.5-.3.7-.3.4 0 .7.2 1.1.3zm-5 4c.7 0 1-.1 1-.5l-.5-.2-.5.7zm-7.6 6 1.2-.7c-1 .1-1 .1-1.2.8zm4.9-3.5c.3.4.5.3.8 0h-.8zm2.2-1.5v-.2l-.6.5h.1c.2 0 .4-.2.5-.3zM209.2 140.8l.4-.5h-.1c-.4.1-.7 0-.9-.4l-1-1.8-.7-1-.1-.6s0-.2-.2-.3c-1.1-.9-1.8-2.2-2.8-3.2-.5-.6-1.1-1.2-1.4-1.8-.3-.6-.8-1-1.2-1.5l-.3-.1-.6.7c-.8.5-1.6.9-2.3 1.1-2.2.8-3.9 2.3-5.8 3.4-1.2.7-2.2 1.6-3.3 2.4l-.7.4c-.8.6-1.8.8-2.3 1.8-.3.5-.6.6-1.5.7a4 4 0 0 1 .2-2.7l.2-.2c1.2-.5 1.8-1.7 2.6-2.6.8-1 1.7-1.7 2.6-2.5l2.2-1.8c.2-.2.4-.4.6-.4.8 0 1.4-.5 2-.8l3.3-1.5 2.2-.8c.6-.2 1.5.3 1.8 1 .8 1.4 1.8 2.8 2.9 4 1.5 2 3.1 3.7 4.3 5.8l2 2.9a45 45 0 0 1 5 8.4c.8 1.2.8 2.5.8 3.9 0 .6-.6.9-1 1.1l-1.6.8-6.2 3.7c-1.6.9-3.2 1.7-4.5 3-.7.6-1.4.6-2.2.5-.4 0-.5-.3-.3-.6.4-.6.7-1.2 1.2-1.7 1.3-1.2 2.6-2.4 4-3.4l4-2.9 1.6-1 1.5-1.2c.6-.6.6-1 .3-1.6-.8-1.4-1.4-3-2.3-4.3L210 142l-.8-1.2zM220.9 270.2l1 .8c.4.3.4.8.2 1.3l-1.9 6.6c-.3 1.1-.4 2.3-.5 3.4l-.3 2.3-.2 1.1c.4.2.6.4 1 .4 3.2 1 6.6 1.9 10 2.8 1.7.5 3.5 1.2 5.4 1.4 2 .3 3.8 1.2 5.8 1l.4.1c.3-.3.5-1 1.1-.8 0-.2 0-.5.2-.7.3-.3.4-.7.5-1.1.5-2 .8-4 1.5-5.9.5-1.5.6-3.1 1-4.7l.2-1c.1-.4.4-.6.8-.6.3 0 .6.3.6.7v2.4c0 1 0 1.8-.2 2.7v1a8 8 0 0 0-.3 3.6l-.1.5-.8 1.6c-.5 1.6-1.3 2.9-2 4.2-.4.6-1 .8-1.6.7-.6-.1-1.2-.2-1.9.2-.4.2-1 0-1.5 0-1 .1-1.8-.2-2.7-.4-1.2-.3-2.3-1-3.4-1-1.5-.3-2.8-1-4.3-1h-.5l-2.5-1-1.3-.4-3.4-1.2-.4-.2c-.6.2-1.2-.3-1.8-.3-.8 0-1.3-.5-1.8-.9-.3-.2-.5-.6-.5-1l.1-4c.1-1.2.5-2.3 1-3.4l1.8-5.2 1.1-3 .2-1zm18.9 22.2c.6.6 1 .6 1.6.2l-1.6-.2zm-2.8-1c.8.5.8.5 1.7.1-.7.1-1.1-.5-1.7-.1zm4.9 1-.3.8 1.1-.3v-.1l-.8-.3zm-11.9-2.8h-.6.6zm-1 0v-.2h-.4v.2h.4zM125.5 136.7l-1-1c.2-.6.3-1.1.7-1.7.5-.7.6-1.6.8-2.5l1.4-4.2.8-3.3c.5-1.2.4-2.6 1.3-3.6l.6-.6.8-.8c.5-.5 1-.7 1.6-.5l4.2 1.1c1 .3 2 1 3.2.7.4 0 .8.4 1.2.5l2 .5 2.8 1.2.6.2c1 .4 1.9.6 2.6 1.3.7.5 1.5.8 2.2 1.2.7.4 1.5.8 1.5 1.7 0 .2.2.3.3.4.4.4.9.8 1.2 1.3l.5 1.3c0 .8 0 1.5-.3 2.2-.5 1.2-.8 2.5-1.1 3.8-.1.3-.4.5-.5.9l-1.6 5-.5 2.6c0 .1 0 .3-.2.4-.6.2-.8.8-1.1 1.3-.2.3-.5.2-.7-.1 0-1.2-.2-2.3.2-3.4l.2-.8.6-2.4.2-1.7.4-1.4 1.5-4.3c.2-.8.5-1.6.5-2.4 0-.6-.5-1.3-.9-1.8a3 3 0 0 0-1-.9c-1.6-.8-3.1-1.6-4.7-2.2a53 53 0 0 0-8.5-2.7l-2.6-.8c-.8-.2-1.2 0-1.5.7l-.4.8-1.4 2.7-3 6.4-1 1.7-.6 1.2c-.1.9-.7 1.4-1.3 2zM208.3 106.8c-.5-.6-.5-1.1-.3-1.7.5-1.6 1.3-3 2-4.4a120 120 0 0 0 2.1-4.8c.3-.7.2-.7-.4-1.2l-.2-.2c-.6-1.2-1.9-1.4-3-1.8l-4.3-2-3.3-1.2c-2.5-1-5-2-7.5-2.6l-3.3-1.2-2.4-.4-.6.3-.5 1a726.5 726.5 0 0 0-2.8 8.1c0 .4 0 .7-.3 1v1c-.7.3-1.3.3-1.9 0 .1-.8 0-1.6.3-2.4.2-1 .2-1.9.6-2.8l.7-2.8a15 15 0 0 1 2.1-5c.9-1.1 1.4-1.1 2.6-.8l2.9.6c.6 0 1.3.2 1.8.5 1 .6 2.2.6 3.3 1 1.6.6 3.4 1 5 1.9.7.4 1.7.6 2.5.9l6.2 2.5 1.5.7c.6.3 1.2.7 1.6 1.3l1 1.1c.3.3.5.6.4 1a144.4 144.4 0 0 1-1 5c-.8.7-1.2 1.7-1.6 2.6-.4 1-1 1.8-1.5 2.7l-.5 1.1c-.2.5-.6.9-1.2 1zm-19.3-23H187c.2.3.4.4.6.4.2 0 .4 0 .5.2.7.4 1.3.6 2 .1l.6.7.2-.1-.6-.9c-.7-.3-1.2.5-1.7 0l.5-.3zm-6.3 11.9h-.3c-.1.2-.3.4.2.7v-.7zM242.6 75.9l1.1 1.8.3.5c.2 2.2.7 4.3.8 6.4v3.5l-1-.1c-.6-.2-.9-.6-1-1.2 0-1 0-2-.4-2.9-.2-.4-.2-1-.3-1.6l-.2-3.6c0-.4-.2-.6-.6-.6h-1.8l-6.9 1.2c-2.2.3-4.4 1.1-6.7 1.2-.6 0-1.1.2-1.6.4.5 3.4.8 6.8 1 10.2l-1 .4c-.8.2-1.2 0-1.2-.8 0-1 0-1.9-.9-2.6l-.1-.3-1-4.7.3-1.5c0-.5.2-1 .4-1.4l.2-.4c.9-.6 1.7-1 2.7-1.3 3.9-.8 7.8-1.5 11.8-1.7 1-.5 2.3 0 3.3-.9h2.8zm-14.7 3.4c.8.6 1.2-.4 1.8-.2l-1.2-.7-.3.1.6.6-.9.3zm-1 .4-.8-.1v.1h.8zm9-1.7v-.1l-.9.1.1.2.9-.2zm-2.3 0c-.4 0-.7-.1-.5.4l.5-.4zm-1 .3c-.1-.6-.4-.4-.8-.3l.9.3zM139.3 71l.2-.2.3.2-.3.3-.2-.3zM180.1 131.9c-.3.6-.5.3-.9 0h1z"/>
    </g>
</svg>