<svg class="grid-items-onclick-animation" id="khelovnuri-inteleqti" version="1.1" xmlns="http://www.w3.org/2000/svg" x="0" y="0" viewBox="0 0 510.2 382.7" xml:space="preserve" enable-background="new 0 0 510.24 382.68">
    <style>
        .st4{fill:#666}
    </style>
    <g id="Layer_3">
        <path d="M403.2 73.8c.6-1.7.4-3.6 1.5-5.2l1 .9c-4.5 3.1-.6 19.6-2.5 25.5.7 2.3.4 4.7.4 7.2-.3-1.6 0-3.3-.3-5-.5 1.4-.4 5.5.4 13.4V104h.2c1 21.9-5 42.6-6.5 64.3a1611 1611 0 0 1-16.2 160.3c-2 9-1.3 19.1-5.8 27.4-1.7 6.9-3 15.3-9.6 19.1-17 6.6-36.4 3.3-54.2 3-16-2.2-32-2.4-48.2-3.1-39.8 0-110.8-3.1-150.2-8.1-9.2-6.8-5-38.5-5-49.7.9-27.6.3-55.2 1.6-82.8-1.7-23.2 1.6-46.6 1.3-69.8-.3-40.8 1.9-82.4 13.3-121.9 1.8-18.3 18.2-20.2 33.3-23C185.2 12.8 245 14 272.8 9.1c36.4 0 73-3.1 109.1 0 14.4 3.7 19.6 17.4 20 31.3 2 11 2 22.3 1.3 33.4zm-16.7 213.1c.3-.4.3-.4.3-.9-.3.6-.3 1.5-.3 2.2h.2l-.2-1.3zm-3.5 26.2c-1.3 2.3-.9 5.4-1.5 8 1-3 1.3-6.1 1.5-9.2h-.2l.2 1.2zM397.4 118c.4.9 0 2 .2 3 .6-2.5.4-5 .4-7.6h-.2c0 1.6 0 3.1-.4 4.6.7-10.5 1.2-20.8 1.4-31.2.4 2.4-.3 5 .1 7.4 1.1-4.5 1.9-8.2.7-12.8l-.4 3.7c-.5-13.6 4-28.6-.8-41.3-1.2-8.6-1.1-19-8-25.2v3c2.7 0 .7 7.8 1.5 9.8.3 1.1.4 2.3.1 3.4-.2 4.7 1.6 9 1 13.7.6-.3-.1-1.3.8-1.5-.9 13.2-.7 26.3-1 39.6-1 9.2-2.8 18.4-2.6 27.7 0 37-7.3 73.9-9 110.7-2.7 18.8-2.6 38.6-3.6 57.9-3 23.1-6.2 46.3-9.9 69.1-2.4 16-60.9 11.6-75 13.7-30.2 1.9-60.5-.5-90.5-3.5-17-2.1-65.3 0-82.1-3-9.6-7.6-4.8-36-5.5-48.1 1.3-27.4 1.6-54.7 2-82 1.4-43.4.1-87 5-130.2.4-13.2 2.8-26.1 5-39.1 2.1-10.1 2.5-20.9 7.9-30-13.4 6.2-19 91.2-20 108.5-3 66.9-.8 134-3.3 201 1.7 22.5-3.2 26.5 22.7 27.9 28 2.7 87.6 1.3 115.7 3 21.9 1.3 43.8 2.4 65.8 3.8 16 0 33.2 2.3 48.6-2.7 4.5-2 5.8-8.6 7.4-12.9 3-11 3.3-22.1 4.8-33.4 4.5-19 5.2-38.3 9-57.4h-.2l-.7 3c4.2-30.6 5.6-61.6 8.1-92.3 1.6-20.2 6.3-40 5-60.3zm-58.5 240.8c8-1.2 19.6.2 25.7-5.3 3.8-15 6-30.5 7.6-45.9 4.6-46.5 5.4-93.2 11.4-139.5 1.3-28.2 5.2-63.4 4.7-91 1-16-1.3-31.9-1-47.9.5-6-2-11.9-2.8-17.6-3.2-3-10.3-1.8-14.7-2.3-21.6-.7-43 2.4-64.6 3.6-33.5 2.1-67.3 3-100.7 6.8-45.8 6.9-69.4 7.7-76 51.1-1.8 35.2-9.2 70-7.5 105.4-1.2 42.5-.6 85.1-2.4 127.7 2.3 8.7-3.8 51.7 4 53 32.6 1.7 96.4 4.6 129 5 29.2 1.4 58.2-1.7 87.3-3.1zm50.4-229.1c-1.5 6.8-3 22.6-2.3 24.8l2.3-24.8zm-2 9.8c.7-8.5 3.3-16.7 2.5-25.3-1.1 8.4-1.8 17-2.4 25.3zM396 186c-1.5 6.4-1.1 13-1.7 19.5 1.5-6.4 1.3-13 1.7-19.5zm-4.4 13.3c-1 6.7-1.6 17.4-1 19.5.2-6.5 1-13 1-19.6zm-16 135c.5-1 2.8-16 2.7-18-1.5 5.8-2 12-2.7 18zm12.6-301.8a93 93 0 0 0 .2 13.2c1-4.2.5-9-.3-13.2zm2.6 4a39 39 0 0 0 .2-12.8c-.6 2.3.1 4.9-.3 7.1-1 1.9.7 3.7.1 5.7zm-11.3 170.9a130 130 0 0 0-.7 15.9c0-5.3 1.2-10.6.7-16zm5.5-39.3h.5c1-2.9 1-6.3.7-9.3-.4 3-1 6.1-1.2 9.3zm17.5-93.5c-.6 4.2-1.3 8.3-.3 12.6l.3-12.6zm-10.6 7.8h.4c.7-2.9 0-5.8.1-8.8h-.3l-.2 8.8zM382.3 195c-.6 3.8-1.3 7.6-1.3 11.4h.3l1-11.4zm12.8-30.8c-.6 1.3-1.5 8.6-1.3 9.6.5-3.1 1.4-6.2 1.3-9.7zm5.6-32.8-.9 8.3h.4c.4-2.7 1-5.5.5-8.3zM385.1 178c-.9 2-1.3 6.5-.9 8.4l1-8.4zm-2 129.3c1.2-3.1 1.9-6.3 2.1-9.6l-2 9.6zM388.9 99h-.4l-.3 9h.3l.4-9zm-13.1 196.9h-.3l-1.6 9h.3l1.6-9zM402.9 104h-.3v6.6c.7-2.1.3-4.4.3-6.6zm-11.2 118.2c-.3 2.5-.7 5-.4 7.7.2-2.6.7-5.1.4-7.7zm-16.4 61c-.8 1.5-1.3 6.8-1 8l1-8zM400 31.5c-.2-1.7-.7-3.3-1.5-4.9.5 1.7-.2 3.9 1.5 4.9zM398.6 144c.5-2 1-6 .8-7-.4 1-1 5.7-.8 7zM377 253.3c-.4 2.4-.7 4.9-.5 7.4.6-2.5.4-5 .5-7.4zm19-83.6h.5c.2-2 .7-3.9.3-6l-.7 6zm-6.6 92.3h-.3l-.6 8.8h.2l.7-8.8zm-3.8-121c-.3 3-.7 5.8-.3 8.7l.3-8.6zm-2.4 38.4c-.3 2-.7 4-.5 6.1.5-2 .3-4 .6-6zm14.5-48h.3l.3-6h-.3l-.3 6zm-21 145.3h.5l.2-6.3h-.2l-.4 6.3zm18.9-92.5c.5-.6.7-2 .5-4.1-.5 1.3-.6 2.7-.5 4.1zm-12.8 117h.2c.2-2 1-3.9.6-6l-.8 6zm18.3-214-.2 4.6c1.3-1.6.3-3.1.2-4.6zm-2.5 29.2c.7-2 .3-4 .4-5.8-.3 2-.4 3.8-.4 5.8zm.8-4.7v4.2c.3-1.4.4-2.8 0-4.2zm1-31.4c.4-2 .2-4 0-6v6zM392.9 212c.5-1.7.8-3.3.5-5.1l-.5 5zm-.3-25.3h.2l.6-5.6h-.2l-.6 5.6zm1.8-23.7h.2c.2-1.6.7-3.2.6-5l-.8 5zm-1.2 59.3h-.2l-.4 4.9h.2l.4-5zm-3.6 17h.3l.4-4.5h-.2l-.5 4.5zm-.3-138.8h.2l.3-4.6h-.1l-.4 4.6zm5.6-81.2c.2.8.1 1.8 1 2.6 0-1.1-.4-1.9-1-2.6zm7 106.1a4 4 0 0 0-.3 3.2c0-1.1.2-2.1.3-3.2zM389.3 15c.3-1.1.3-1.1-.8-1.4 0 .6 0 1.1.8 1.4zM378.5 245c.4-1 .5-1.9.3-3.3l-.3 3.3zm12.7-228.7c.2-1.1.2-1.1-.9-1.3-.1.8.3 1 1 1.3zm7.8 109.7c.5-.6.5-1.3.4-2.1-.8.7-.6 1.4-.4 2.1zm-8.4-36.1h.3c.2-.9.3-1.7 0-2.6l-.3 2.6zm9.8 17.4v-3 3zm-9.5-89.4 1.3 1.8c0-.8 0-1.7-1.3-1.8zm10.5 77h-.3l-.3 2.2h.3l.3-2.2zm-13.9 166.8h.3l.2-2.7h-.2l-.3 2.7zm2-38.8c.8-1.2.8-1.2.1-1.6v1.6zM387.8 115v2c.8-.8 0-1.3 0-2zm15.3-60.9v2.5-2.5zm-15 57.2v-2.2 2.2zm-3.2 61.8h.3l.3-2h-.2l-.4 2zm18.3-56.5h.2l.1-2h-.2l-.2 2zm-14.6-22.3h.3v-1.8l-.3 1.8zm4 103 .3.1.2-2h-.1c-.1.7-.3 1.3-.3 2zM380.5 210h.3l.3-2.1h-.3l-.3 2zm20.3-177.2h-1.3c0 .4.2.7.3 1.1l1-1zm.2 68.7h.2v-2.2h-.2v2.2zm-10.3-1.9h.1l.2-1.7h-.3v1.7zm-4.6 53.2v-1.8 1.8zm13.3-45.2h-.2v2h.2v-2zm-7.1-21 .2-1.6h-.2v1.5zm-3 174.5h.2v-1.6l-.2 1.6zM386 149.7V148v1.6zm-3.1 48.6h.1v-1.6h-.1v1.6zm19.6-78h-.3l-.2 1.5h.1l.4-1.5zm-8.8 65.2h.1V184v1.5zm-10.2 104.4h-.1v1.5h.1v-1.5zm.3-1v-1.6c-.2.6-.2.9 0 1.5zm15.2-162h-.3c0 .3-.2.6 0 1h.1l.2-1zm1.7-76.1c.2-.4.3-.9-.2-1.1 0 .3 0 .7.2 1zm-13.5 76h-.2v1.2h.1v-1.1zm6.3 53.3V179v1.1zm-5.8-166 .3-.1-.2-.8h-.3l.2.9zm-10.1 253.5h-.2v.9h.2v-1zm9.6 10h-.2v.8h.1v-.8zm-1.2-263h-.3l.3 1h.2l-.2-1zm15.7 106.5h-.3v.9h.2v-.9zm-12.2 107.4h-.1v.7-.7zm4.7-63.6h.2v-.8h-.2v.8zM381.7 292.8v1-1zM381.4 295.4v.5-.5zM393.2 191v-.8.7zM376.2 266v.7-.6z"/>
        <path d="M386.7 135.6h.2v-.5l-.2.5zM402.5 114.8v-.7.7zM390.1 83.3h.1v-.6.6zM391 96.2h-.1v.6-.6z"/>
        <path class="st4" d="M270.4 210.4c3.7-2.3 7.4-5.5 10.3-9 20-30 25.5-67.5 23.5-102.8-1.5-22.1 2.9-56.7-24.8-63.3-42.3-8.3-45 46.3-49 75.7.1 33.1-13 82.8 25.3 99.3-.8 8.9-1 17.8-1 26.7-.6 3.4 1.2 7.7-1.2 10.4-6.5 4.7-11 11.4-10.7 19.7-4.6 5.5-10.6 10.5-12.6 17.9-4.7 14.8-6.2 32-5.2 47.5h2.7c-.5-20.8 0-46 15-62.1.5 1.9 2 10.4 4.6 8.1 1.2-1.6 1.8-3.6 3.4-4.9-1.2 19.4-1 39.8-1.4 59.1h2.2c.2-20.8-1.7-42.7 2-63.2h.2a530.4 530.4 0 0 0-.7 63.3h1c-.2-1-.2-3.2 0-5.6 11 9.1 10-14-.2-6.2-.9-15-.2-30.1.8-45 0-5.1-.3-10.2 4.5-13.4 5.2 4.3 1.5 11.5 2 17.3 1.4 17.6 1.9 35.2 2 52.9h2c-1.8-3.2-.8-18.6-.4-21.6l1 21.6h1.7c-1.9-20.7-2.3-42-2.7-62.9 2.9 2.3 3.8 6.3 5.5 9.4.2.9 1.2.6 1.8 1.2 3.7-3 5.1-7.2 6.7-11.6 10.9 8.4 14.1 21.3 14.1 34.5.8 9.6 2.6 20.8 1.2 30.4h3c.8-6 0-13.7 0-20l1.7.9c-.8 3.7 3.4 2.9.8-.1.6-1 1.2-2 2.7-2.1-1.2-.7-1.2-.7-3.3 1.7l-2-1.1c-.6-20.2-3.4-34.1-17.7-48.5.9-7-3.3-14-9.1-17.6-2.5-1.6-2-.7-2-3.6-.2-10.3.8-20.5.3-30.8 0-1.7.4-2.1 2-2.2zm-9.7 115.2c0 1.5-1.1 2.4-2.7 1.8-2.6-.3-3-1.7-3.2-3.8 1.3-3.6 6.4-1.9 5.9 2zm38.5-10.2.6 1c-.7 0-.8-.3-.6-1zM247 274.3a20 20 0 0 1 7.3-24.4c.3 3.9-1.2 8.6 3.8 9.8-4.2 4.7-7.7 9.3-11.1 14.6zm15.8 4.4h.3l1 18.7c-1.7-5.8-.8-12.5-1.3-18.7zm5.4-28.8c11.1 4.7 10.5 19 4.2 27.6-3-6.5-7.4-11.5-11.5-17.2 6.7-.9 7-4.7 7.3-10.4zm-1.3-42.2c-2.5.8-.4 6.9-1 9.2 0 9.1-2.2 18.1-1.6 27.2-.3 4.2 1.7 9.4-.7 13-1.3 1.8-3.6 1-5.3.7-3.2-.9-1.5-5.2-1.6-7.7.6-14.4.8-28.5 1.4-43-31.3-7-25.2-44.8-24.2-69 2.8-23.4.6-47.4 6.4-70.4 3.2-9.8 6.7-21.1 15.6-27.2 11.9-6.6 30.6-6.7 37.2 7.2 15.7 35.1 11 134.2-22.5 158-1.2.7-2.3 1.6-3.8 2z"/>
        <path d="M380.6 16c-7.8-.6-15.7.8-23.6.8-18.3 1.6-36.8.5-55 2.8a810.3 810.3 0 0 1-72 6.5c-14.3 1-60 2.8-74.4 3.6-5.2.8-11.4-.9-16 1.7-4.5 35.7-4.6 72.4-6.8 108.4-5 37-7.4 74.3-6.4 111.7-.2 26.7-2.8 53.3-1.2 80 .6 2.6 4.7 1.5 6.8 2 16 2.2 63.3.1 79.4.5 33.4 2.2 67 2.2 100.5 2.2 14.8-.6 30.1 2.5 44.6.5-.1-18.5 5.7-36.2 7.3-54.6 1.6-37.9 5.5-75.6 6-113.6 1-20.9 4.1-41.5 7-62.2 2.2-26.8 2-53.7 5-80.4-.4-2.6 2.2-9-1.2-9.9zm-5.3 79.1c-2.2 28.5-5.7 56.7-8 85.2-3.2 52.1-5.4 104.5-13 156.2-8.9-.8-18.2.3-26.8-1.9-10.3-2-20.4-2-31-1v-.3l-22-.6h-25.2c0 .2-23.8-.2-25-.2-2.6.7-9-.7-11.2-.5-3.2-1.3-9.7 1.9-11.2-1.4.6-.2 1.5.3 1.9-.5.2-.7.6-1.4-.2-2.2l-1.8.9-.1-.6h-.3c-.2 1-.6 3.3.8 4-14.4.4-60.2 2.4-74.5-.2-2.1-3.3-1.3-8.7-1.6-12.7 1-20.5.6-41 1.6-61.4-1.5-45.7 3.9-90.9 8-136.2 2-15 .5-30 .8-45 2.1-14.7 1.8-29.8 3.7-44.5 29.9-4.2 92-3.8 122-7.3 39.1-3.4 78.5-9 117.7-6.9-1.7 25.7-4 51.4-4.6 77.1zm-173 234.5 1-1.2c0 1.6 0 1.6-1 1.2zM236.1 340.2c12.8.3 26 1.7 38.9 2.4 6 1.7 18.8-1.8 20.5 6.1.8 7.6-21 2.4-26.3 3.3-14.8-.5-29.6-1-44.4-.9-2.7-.2-4.4-3.4-3.1-6.1 2.2-6 9.3-4 14.4-4.8zm55.5 7.8c-6.8-4-16.4-1-24.2-2.7-13.7 0-28.6-2.7-41.7.1-.6 3.2 15 1.3 18 2 15.8.3 32.3 2.1 48 .6zm-43.8-4.5v.3c14.3 1.6 29.3 0 43.3 2.9 5 4.8-14.5 1.4-16.7 2.1-16.1.2-32.3-.6-48.4-1.6-4.3-2.3 1.3-3.9 3.7-3.3v-.2c-2-.3-5.4-.9-5.8 1.7-.3 2 .6 2.7 2.4 3 21.7.5 43.7 2.6 65.3 1.1 2-.5 1.8-3.9-.3-4-4.9-.6-9.9-.8-14.8-.7-9.5-.3-19.1-1.6-28.7-1.3zm29.7.6c-16.5-1.1-33.2-3.2-49.7-1.6v.4c16.6 0 33.1.1 49.7 1.2zm15.7 5.3c-14.7 3.7-30.9-.3-46 .4 9.3 1.3 18.8 1 28.2 1.5 5.5-.5 13.5 1.6 17.8-2zm-56.5.3c2.3.3 4.6.3 6.8 0-2.3-.2-4.5-.6-6.8 0zm1-6h-4.4c1.6.7 3-.1 4.5 0zm-14.5 3.1c-.1 1.5 0 1.8 1.1 1.8l-1-1.8z"/>
        <path d="M332.8 140c-3.2 2.4.4 6.8 3.4 4.2 1.5-1.7-.4-3.8-2.3-2.9-1.2 1 0 2.9 1.7 2l-1.7-.7c4.6-1.8 1.5 4.5-1.1.5-1.1-2 1-2.8 2.7-2.7 5.5 1.7-.9 8-4 4.4-1.1-1-1-6.2 1.3-4.8z"/>
        <path class="st4" d="M138.1 211c-.8 1.2-.4 2.3 0 3.7 1.7-6 6.5.1 5 3.8-1 2.7-4.8 1.7-5.4-1-.4 2.7-1.2 5.3-.3 8 .3.7.2.7-.3 1.4-2-5 1.3-10 .1-15 0-.6 0-.6.9-.9zm4.6 5.9c-.2-1.6-.4-3.7-2.3-4-1.7-.3-2.4 3.2-2 4.7.6 2.7 4.8 2.4 4.3-.7z"/>
        <path d="M324.8 140c-3.3 1.1-.7 6 2 4 1.5-1.2-.4-4-1.8-1.9l.7.9c-2.3 1.4-1.8-3.4.6-2.6 5.6 1.2-1.6 8.6-3.8 3.6-.8-1.4.4-5.7 2.3-4zM346.4 138c-1.4 1-3.1 1-4.4 2.3 6 3.6-.8 8-2 3.5-.8-3.2 3.2-7 6.4-5.8zm-5.3 3c-.6 1.7-.3 4.4 2 3.3 1.4-1.1-.6-3-2-3.3zM303.9 240.1c-6.8-6.3 5.9-8 1.4-.3 1.4.7 2.7.3 4.2.2-1 2-3.9-.2-5.5.7-4.4 2-7-3.4-4-6-1.2 3.4-.6 7.2 3.9 5.4zm.5-.6c1.4-1 2-3.5.1-4.3-3-.6-2.4 3.6 0 4.3zM156.4 290l-.4 1.5c10 2.5 1.7 14-.6 1-2 .5-1.8 3.8-1.1 5.3l-.3.7c-1-2.2-1.3-5.6 1.3-6.7.2-1.3.2-1.3 1.1-1.9zm-.4 2.4c0 1.7 1.9 7.4 3.9 5.2.8-2.6-1-5.6-4-5.2zM314.2 246.5c-.2 2.5 0 7.7 3.5 5-1.8-6.6 5.8-5.9 1 0 .6 1 1.9.9 2.6 1.8-1.4 0-2.3-.6-3.2-1.2-3.7 2.6-5.1-2.1-4.5-5.2.1-.3.1-.3.6-.4zm5.2.7c-1.3 1-1.7 2-1.1 3.6 1.3-1 1.7-2 1-3.6z"/>
        <path class="st4" d="M309 221.2c-1.7-.7-3-.3-4.2 1.2.8-3.5 4.8-1 7.1-2.3 1.1-.3 1.1-.3 2.2 0l-3.6 1c5.9 7.5-5 9.2-1.5 0zm.8.4c-1.5 1-1.2 6.2 1.1 5.2 1.4-1.6.8-4.2-1.1-5.3z"/>
        <path d="M330.3 124.4c-3.1 7.6 5.9 1.3 1.7 1l.3 1.1c-1 1.3-2.1-.8-1.1-1.5 1.6-1.4 4.1 1 2.6 2.6-1 1.2-4.6 2-5 0 .3-.8 0-4 1.5-3.2zM334.1 224.3c-1.5-.6-1.8-2.5-.3-3 3.2-1.7 5.5 3.4 2.9 5.4-3.9 3.8-8.7-3.2-7.7-6.7 1.5 11 10.9 7.5 7.4 2.1-.5-.8-.6-1-1.9-.5-1.8.5-.6 1.3-.4 2.7zM325.2 315.2c-4.6 1.6-4-7.2-1.2-6.4-1.8 1.3-2.6 4.9-.2 5.9-3.2-6 7.5-5.2 1.4.5zm-.5-.8c.7-.7 2.4-1.4 1.6-2.6-.5-1-1.4-1-2-.1-.8.8-.7 1.7.4 2.7zM310 306.5c1 .5 1.5-.6 2.2-.4-.3 1.7-6.2 1.5-6.9.1-.6-1-.2-3.7 1.5-2.8-2.1.7-1.2 4.2 1.3 3-2.8-5 6.9-4.4 2 0zm-1-.3c1.6-.2 2.8-3.3.3-2.8-1.3.5-1.5 1.8-.4 2.8zM281.2 257.4c.5-1 1.3-4.5 2.8-3 .3.6.5 1.2 0 1.8-1.6 1.4-3.5 2.8-.7 4.4.5.2.9.6 1 1.4-1.6-1-3.2-1.8-3-3.8-1.6-.8-2.5-1.5-1.6-3.2.8-1 2-4.2 3.6-2.3-2.1-.5-5 4.2-2 4.7zm2-2.9c-.7.8-1 1.6-1.2 2.8 1.6-1.1 1.9-1.6 1.2-2.8zM331.3 99.8l-1.4-.8v-.3c3-.5 6.6 2.2 2.8 4.5-2.7 1.1-3.3-1.8-1.4-3.4zm2.5 1c-1.5-1-2.7.2-2 1.3 1 .5 1.4-.6 2-1.3zM139.7 303.7c1-2 1.5-2.5 2.7-2-.8.6-1.8.8-1.9 2 7.2 2.3-1.2 12-.8.8-1.4-.2-2 1.1-3.2 1.5.4-1.2 1.2-1.8 3.2-2.3zm.6.8c-.7 1.8.7 6.9 2.5 3.6.3-1.7-.4-3.8-2.5-3.6zM355.4 242.5c-1.2-.7-1.2-1.7 0-3.8-1-1.4-1.6-4 .6-4.7-.9 1.4-1.5 2.6-.2 4.1 7-7.6 6.2 4.5 0 1.1-1 1-.6 2-.4 3.3zm.8-4c2 2.3 4.9-.7 3.7-2.7-1.7.4-2.6 1.6-3.7 2.8z"/>
        <path class="st4" d="M130.5 221c-.7-3.9 3.5-6.9.7-10.3l1-.3c-.6 1.3.8 1.8.8 2.9.7-.3 1.2-.7 2-.5-4.8.7 1.5 9.6-4.5 8.1zm2-5.5h-.4c-.2 1.6-1.6 3.6-.8 5.1 2.5.2 1-3.6 1.1-5z"/>
        <path d="m315.4 262.3-2-2.7c-2.7-.3-2.5-4-.6-5-.4 1.8-2.2 4 1 4.3 3.3-6.5 7.8-1.7.7 1 0 .7 1.3 1 1 2.4zm2.3-6a3.5 3.5 0 0 0-3.1 2.6c2-.3 2.7-1 3-2.7zM342.7 153.2c0 1.1-.7 2.3-.2 3.3.8.6.2 1-.3 1.5-1.3-3 1-5.9-.3-9 1 .5.5 1.7 1.1 2.5 6.5-6.5 5.4 5.8-.3 1.7zm4.3-2c0-3.2-5.8 1.6-2.7 2.3 1.3.2 2.8-1.1 2.7-2.4z"/>
        <path class="st4" d="M162.8 273c-2.6-.6-3.3 1.5-4.6 3 .5-2 1.6-3.8 4.6-3.7 1.2-2.2 32.5-2.7 33.5-2.3-.8.3-32.7 1.4-32.7 2.3 7.2 2-2.5 10-.8.7zm.7 0c-.6 1.9-.4 3 .5 4 2.3-1 2.3-3.7-.5-4zM161.8 215.3c.6 2.4 32.5 2.3 34.4 2-.8-1-33.8-3.4-32.1-3.9 3.3-.6 35.9.9 34.1 3.8l2.2.3c-2.2 1-39.9 1.6-38.6-2.2zm35.7 1.7c2-2.3-30.7-4-33.5-3 0 2.3 31.8 2.5 33.5 3z"/>
        <path d="M349.2 140.5c2.6-.8 4.9 3.3 2.2 4.7-3 1.8-5-2-3-4-1 6.7 6.4 2.4.7-.4v-.3zM353 227.4c-1 1.2-1 2.5-.5 3.8-2.6-.2.4-3.7-.2-5.2-.1-1.1-1.4-3 0-3.7-.2 1.7 0 2.1.6 3.3 3.3-7.5 5.9 2.5.1 1.8zm0-.7c2.3.5 4-2 2.2-3.5-1.3.8-1.5 2.2-2.1 3.5zM317.6 328c1.9.4 3.3 2.6 1.8 4.2-1.4 1.1-4.1-.5-4-2.6l-.8.9c0-2.4 4.2-4.4 6.6-3.3l-3.5.6v.3zm-.4.7c-2.6.3 0 4.4 1.8 3 1-1.4 0-3-1.8-3zM341.8 314.4c0 .8.7 1 1.2 1.4-1.4.9-2-1.9-3.5-2-1.3-1-1-4.4 1-4.7-1.1 1.3-2 4 .2 4.4 1.4-6 6.5-1.8 1.1.9zm-.3-1.1.3.2c3.7-1.6.6-4.4-.3-.2zM329.5 318c-1.8-1.3-2.3-1.2-3 .2 4.5 3-2.3 7.1-1.2.5-2.3-.6-2.7 2-3.3 3.5-.8-1.7 1.5-4.8 3.7-4.2.7-1.7 3.3-2.3 3.8 0zm-3.5.9c-.7 1 0 4 1.2 2.3.5-1 .1-1.7-1.2-2.3zM325.7 49.6c1.6-9.3 7.8 1.7.5 1.6 0 .7 0 .7.9.6-.3.7-.8.6-1.4.5-.5-2.5-2.5-6-.5-8-.7 1.8-.4 3.5.1 5.2h.4zm.3.8c2.6 1 4.2-2.2 2.5-3.8-2-1-2 2.5-2.5 3.8zM302.7 204.2c-2 4.5 1.9 11.2 4.6 4 .4-3-4.6-1.2-2.2 1-1.5 1.3-1.5-2-.7-2.6 1.2-1.3 3.7-.4 3.6 1.5 0 2-3.8 5.5-5.3 2.9-.8-1.6-2-6 0-6.8zM323.6 259.2c3.4-7.3 6.4 1.4 1 1.4.6.8 1.8.8 2.2 2.2-2.4-1.2-6-4-4.5-6.9.2-.5.6-.7 1.2-.3-1.5 1-1.4 2.5.1 3.6zm.7.4c2.1 1 2.4-.4 2.7-2-.4-2.2-2.8.8-2.7 2zM292 206c-1.3 5 4.2 9 5.6 2.8.2-1.7-3.2-2.4-3-.4 0 .6.3.9 1 .5-.9 3.4-3.4-3.5 1.1-2.1 2.5.8 1.4 4.3-.5 5.3-3.2 2.3-6.4-4.1-4.3-6zM227.5 242.4c-1.3 1-1.2 2.3-.5 3.7 5.4-3.9 7 4.4.3 1.4 0 1.8.4 2.2 3 2.7-2.9 1-3.6-1.6-3.8-4-.6-1.5-1.2-3.2 1-3.8zm0 4.4c2 1.3 3.2 1.2 3.9-.3-1.6-1.3-2.7-1.3-3.8.3zM204.5 304c.3 1.4 1 4.5 3.1 3.9-4.1-5.3 3.8-4.5 1.2 0 .8 1 1.9 1 3 .7-.7 1.6-2.4.4-3.8-.1-2.8.7-3.8-2.6-3.8-4.6h.3zm3.8 3.4c1-1.3.2-3-1.4-2.6 0 1 .5 1.8 1.4 2.6zM337.2 266.3c-.5-.8-.5-.8-2-1.6 1.6-.8 2.2 1.5 3.7 1.2.4 0 .7.2.5.8h-1c.6 10.4-8.3 5.4-1.2-.4zm.4.6c-1.8 1-3.9 4.2-1.7 5.4 2-.5 1.9-3.5 1.7-5.4zM322.6 209.6c-1.6.9-3.1 2.3-1.4 3.9 5.6 5.3 5.4-9.7 0-8.6.2-.9.7-.7 1-.6 5 .9 4.8 13.8-.9 10-2.3-1.6-1.3-4 1-5l.3.3zM356 209.3l-.6 1.9h.2c2.2-6.2 6.6 2.3 1.4 3.3l2 3.3c-2-1.5-5.4-6.2-3-8.5zm.7 4.2c2 .7 2.9-1.8 2-3.2-1.8-2.4-3 1.7-2 3.2zM347.8 237.8c-.8-.5-1.5-1-2.2-1.7-2.1 8.1-8.9 0-1.6-1-.5-.8-.5-.8-1.7-1.6.3-.8 5.7 3.5 5.7 4.2l-.2.2zm-6.5-.2c.7 3.7 4.1.2 3-1.7-1-.7-3 .5-3 1.8zM364.7 34.6a6.9 6.9 0 0 0 3 2.4c-1.4 1.2-3.3-2.4-4.7-3-1.2-.7-2-2.7-1.7-4.2.7 1.4.6 3.1 2.3 3.8-.1-7 5.3-2.3 1.1 1zm0-4.3c-.4 1.2-.7 2.3-.2 3.5 1.6-.5 1.8-2.8.2-3.5zM305.8 181.8c-3.5-5 5.1-3.3 1.3.2 1.1.8 2.2 1.2 3.6.6-.4 2.3-4-.4-5.5-.4-1.8 0-3.9-4.5-1.2-4.6-1.6 1.4-.3 4 1.8 4.2zm.6 0c2.3-1.6 1-2.8-1-2.3l1 2.2zM326.5 267.2l-2.8-1.4c.6-.5 1.1-.4 3.3 1.1 2-.3 2.8-.2 3.6.5h-3.2c.9 7.7-6 4.3-1-.2zm.2.7c-1.3.8-2.4 3-.7 3.6.9-1 1-2.1.7-3.6zM324.6 178.2c5.1 4.1-5.3 8.2-1.1.4-1.3-.8-2.7-2.5-1.2-4-.2 2.1 0 2.6 1.6 3.5 1.2-.8 2.2-1.9 3.9-2l-3.2 2.1zm-.5.6c-.8 1.3-1.7 2.4-.8 3.8 2.4-.2 3-3 .8-3.8zM130.9 285c1-5.5 6 1.5.6 1.4-.4 1 0 1.9 0 2.8.1.6.7.3 1.3.4-1.8 1.7-2-1.3-2-2.6.1-1.3-1.5-2.2-.9-3.6.4-1.1.3-2.6 2-2.3-1.6.9-1.6 2.4-1.4 3.9h.4zm2.3-1.3c-1.5-.4-2 .8-1.6 2 1.4.2 1.8-.2 1.6-2z"/>
        <path class="st4" d="M207.2 262.8c7 1.1-.6 7.7-1 .6-1.8.5-3 1.4-3.7 3.3-.7-1.6 1.4-3.3 3.9-4 1.2-2.4 2-3 3.1-2-1 .2-2.4.6-2.3 2zm-.2.4c-.5 2.2 1 3.5 2.4 2.6 1.1-1.5-1.1-2.3-2.4-2.6z"/>
        <path d="M334 322.3c0 1 .8 1.3 1.6 1.5-.9.7-1.5.4-2.3-1.2-2.3-.7-2.8-2.3-1.1-4.1-.1 1.3-1 2.6.9 3.2.4-6.2 5.4-1.6 1 .6zm0-.9c1.4-.6 1.6-1.4.6-2.2-.7.8-.7 1-.7 2.3z"/>
        <path class="st4" d="m314.8 207.9-2.2-1.7c1.3-.5 2.2 1.3 3.2 1.8 2.6 11-8.3 6.5-1-.1zm0 .9c-1.7.7-2.5 3.7-1.4 5.1 2.3 1.6 3-3.9 1.5-5.1z"/>
        <path d="M215.2 298.2c.4 1.4 1.2 2.8 2.1 3.9l-.2.2c-1.7-1.6-4-6.4-2.8-8.6v1.4c.7-1.3 1.6-2 3.2-1.8.5 2.1.2 4.4-2.3 5zm2-4.4c-1.6.2-1.8.4-2.2 2-.1.8 0 1.2.7 1.5 1.6.3 1.3-2.3 1.5-3.5zM311.6 195.4c1-.6 1.8-1.6 3.1-1.7 0 1-1 .7-1.3 1L312 196c.9 1.7 1.3 4.8-1.4 5-1.2-1.9-.2-3.5.6-5-1.3-1-2.8-.4-4.3-.6 1.3-.8 2.8-.8 4.7 0zm-.6 5c1.3-.9 1.5-2.5.5-3.6-1.1 1.4-1.2 2.3-.5 3.6z"/>
        <path class="st4" d="M196.7 307.4c.7 1.6 2 1.5 3.1 1.9-1.8 1-3-.8-4.3-1.7-1.2-.4-34.8-3.5-32.7-3.6-.4 1.5 31.4 2.1 33 3 0-1-.5-2.3.2-3 2.4 0 2.9 2.4.7 3.4zm1-1.8c-.4-.5-.7-1-1.6-1l.3 2.4 1.3-1.4z"/>
        <path d="M290.8 193.7c.2.7.3 1.2-.6 1.1l.1 2c2.2-.3 2.5-.1 3.5 1.4-1 1.7-2.4 1.7-3.8-.1-.8 1-1.6 2-2 3.2 0 .7-.2 1.5-1.2 1.2.9-2.7 3.5-4.4 3-7.4 0-.8 0-.8 1-1.4zm-.2 4c.6 1.5 1.3 1.6 2.6.6-.8-1.2-1.4-1.4-2.6-.6zM348.7 309.8l2.2 1.6c1-.3 2.6-2.4 3.6-1.2-3.9 1.2-2.2 2.2-3.4 5-.3.8-1 1.3-1.8.8-1.3-1 .5-3 1-4-.5-.7-2-1.3-1.6-2.2zm2.2 2.8c-1 .7-1.7 1.8-1.3 2.9 1.3-.2 1.5-1.7 1.3-3z"/>
        <path class="st4" d="M301.1 272.5c2.3 1.1 2.7 2.3 1.3 4.5l1.7.6c-3.8 1.3-8.8-3.5-3-5.1zm.5 4.2c1.4-1.4 1.4-2.3.3-3.2-2.4-1.3-1.6 2.3-.3 3.2zm-1.1-.1-1-2.6c-1.1.9-.2 2.3 1 2.6z"/>
        <path d="m132.9 245.7-1.9-.6.8-.7c1 .7 1 .7 3.3.9l-1 .6c5.7 9-8.4 7-1.2-.2zm.6.5c-3.2 1.6-2.6 6.4 1 5 1.1-1.5 0-3.6-1-5zM359.7 149.6c.8.8.5 2 1 3.1.8-1.2 1.5-2.3 3-2.4 1.6 1.7.7 3.6-2.2 4.3l.6 1.2.8-.2c-1.6 3-3.1-4.6-3.5-5.9l.3-.1zm1.8 4.2c2-.2 2.8-1.3 2-2.9-1.5.5-2 1.2-2 2.9zM309 323.5l2.4.6c-1.5 1-2.5-.2-3.8-.7-1.8-.4-1.7-2.3-1.7-3.8h.3c.7 1-.3 2.7 1.5 3.1-.6-6.7 5.5-2.9 1.4.8zm-.4-.8c1.7-.5 2-2.7.2-3.2-.6 1-.7 2-.2 3.2zM204 315.4c.3-.7.8-.9 1.2-.8 1.6-.3 2.3-2 3.6-3l.5.6-2.3 2c.6 2 1.7 3.6 1.8 5.5-2 0-3-1.5-3.1-4.5l-1.8.2zm2.7-.2c-.7 2 0 3.3 1.5 3.8l-1.5-3.8zM132.5 269.7c-.8.4-1.6.8-1.8 1.8 3.5.2 1.8 6.3-1 3.6-.6 1.4-.6 2 .2 3.2-2.8-.4 0-9.2 2.5-8.9l.1.3zm-2.6 3.7c.2 2.5 2.1 2.4 2.2 0-.2-1.5-2-1.4-2.2 0zM227.2 214.3l-3-2.1c2.4 0 3 3 5.4.6l.2.3-1.5 1.3c4.8 6.5-8.6 4.3-1.1 0zm-2 2.4c2.1 2.9 5.2.6 2.5-2-1 .7-1.7 1.4-2.4 2zM335.6 260.6c-1-.6-1.7-1.5-2.8-1.9-2-.4-1.3-4.6.8-3.2-1.8.2-2.1 2.4 0 2.7 1.3-5.7 6.4-1.2 1.3.9 0 .5 1 .7.7 1.5zm-1.1-2.2c2.3 0 2.5-3 .8-2.3-.6.5-1 1.3-.8 2.3zM147.2 294.9c4.8 2.7.1 7.4-.6.6-1 0-2 .2-2.4 1.2-1-1.6 1.3-1.6 2.2-2 .4-2 1-3 3-4-.2 1.9-2.8 1.6-2.2 4.2zm1.1 3.7c.8-1.5.5-2.2-1-2.7 0 1 .1 1.9 1 2.7zM330.4 115c-2 .6-1.1 4.2.9 2.8.7-.4 2-2.3.3-2.2-.4.3-.7 0-1.1-.2.5-1.2 2.3-.3 3 .3 0 2.4-3.7 4.7-5 2.1-.2-1.2 0-3.5 1.9-2.8zM200.8 201.5c2.6.8 4.3 4.4 1.3 5.6-2.4-.3-3.2-5.3-1-6.4 1.6-.5 4.4-1.9 5.4-.1-2-.5-3.8 0-5.7 1zm-.2.5c-.8 1.5.4 6 2.2 4 1.3-1.9-.7-3.1-2.2-4zM301 185.8c1 .3 1.5 1.2 2.2 2 1.7-.2 3.5-.6 5.2-.2v.3l-4.8.3c1.2 7-7.1 3.3-1.1-.3l-1.7-1.9.2-.2zm1.8 2.8c-2 .7-2.5 1.7-1.4 3.2 1.9-.5 2.3-1.4 1.4-3.2zM320.3 318.6c-1 0-2-.2-3 .5 4 4.7-4.4 6.4-1.5.3-.7-.5-1.2 0-1.8.3.3-.9.5-1.1 1.2-1 1.6.4 4.3-2.1 5.1-.1zm-3.9 1c-.8 1-1.3 3 .5 3.2 1.2-.8 1-2.4-.5-3.2zM319 188.6c-1 1.7-2.4 1.3-3.9 1l.1 1.2 1 .2c-2.4 1.7-1.6-3.5-2-4.8 0-.3 0-.3.6-.6 0 .5 0 1-.2 1.8 1.9-3.3 3.7-1.6 4.5 1.2zm-2.1.9c2.5.2 1.3-3-.2-3.4-1.8.6-2.2 3 .2 3.4zM153 271.3c-2.2 0-2.3 1.8-2.8 3.4-.6-1.8.8-3.7 2.5-4 .9 0 2.3-2.2 2.7-.5-.5.1-1.2-.2-1.4.7 5 3.7-.1 8.5-1 .4zm1 .3c-.4 1.6.1 3 1.3 3.7.6-1.2 0-2.9-1.4-3.7zM146.1 304.3c.5-.8 1-.7 1.6-.6 1.4.1 2-1 3.4-1.5 0 1-.8.8-1 1.4 5.5 4.6-2.8 8.5-1.6.6l-2.4.1zm3.1.2c-.7 1.2.2 4.8 1.8 3.5 1-1.2.1-4-1.8-3.5zM351.8 148.7l.1 2c6.5-4.1 5.7 5.1.1 1.6v1.8h1l-1 1c-1.2-1.6-.2-3-.6-4.6 0-.6-.4-1.3.4-1.8zm.6 2.7c.9 1.6 3 1.6 3.5-.1.5-2.1-3-1.1-3.5 0zM199.6 319.4c-.8 1.2-.5 2.2.1 3.3 2.6-4.1 6.9 2.3.6 2l.2 1.7c-.2.4-.8.2-.8-.4.8-2.2-2.9-5.4-.1-6.6zm3.5 3.4c-1.3-1.5-3-1.1-2.6 1 .6 1 2.3 0 2.6-1zM136.3 282.8c.2 1.2 1 2 2 2.5-.6-2 2.7-4.3 2.6-1.5-.2 1.1-.3 2.3-1.6 2.8.8 1.4 2 .6 3.2.6-1.2 1.2-3 1-3.7-.2-.7-1.5-3.3-2.2-2.5-4.2zm2.8 3c1.1 0 1.2-1.6 1.4-2.5-1.6-.2-1.9.3-1.4 2.5zM336.6 92c3.3 3.2-3 5-1.6.7l-1.5-.6c1.1-.5 2.5-.7 3.7-1.4.5-.2.5-.2 1 .4l-1.6.9zm-.3 1.1h-.4c0 .4-.4.9.4 1.3V93zM333.5 278.6c1.3-4.6 5.5-2.6 1.6 1 .7.3 1.3.6 1.9 1.1-2-.1-7.5-2.4-4.9-5-.2 2 0 2.4 1.4 2.9zm1 .1c1.4-.4 1.9-1.3 1.3-2.3-1.2.4-1.5 1-1.4 2.4zM338 54.8c-1.2.8-.2 2.8 1 2.4-1.5-5.2 3-3.7 1.2.1 1.2.8 3 .5 4.5-.6.5 2.2-4.6 1.5-6 1-1.3.2-2.8-2.7-1-3l.3.1zm1.5 1.8c1-1.3.8-1.8-.3-2.1l.3 2.1zM324 236.4c0-2-1.5-2.4-3-3.2 1.5-.3 2.9.8 3.6 2.7 1.5-.1 2.6-1.5 4.4-1-1 1.2-4.1.6-4.3 2.5a3 3 0 0 1-.5 2.1c-2.2 1.4-1.7-2.3-.2-3zm-.7 2.8c.8-.4 1-.7.7-1.7-.7.4-1 .9-.7 1.7zM342.4 219.4c-2 2.7-.6 8.3 3.4 6.7 2.3-1.3 3.5-4 .1-4.8.9-.8 1.7.2 2.2.7 1.6 1.5-.7 3.9-2.1 4.7-4 2-7.1-5.3-3.6-7.3zM299.7 330.5c3.6-5.7 6 2.1.5 1.3-3.5-.9-.5-7.6 1.2-4.2-1.7-1-3.1 1.7-1.7 3zm.4.3c1.6 1.2 3.8-.7 2.4-1.7-1.3-.2-1.7.8-2.4 1.7zM138 274.7c-.4 1-.5 2.1-.1 3.3-1.3.4-.6-2.2-.6-3 .1-1.6-1.9-3.2-.2-4.7-.3 2-.3 2 .4 2.8 1.3-1.9 1.9-2 3.8-.8-.1 2.2-1.2 3-3.3 2.4zm.2-.8c1.3.8 2.2.4 2.4-1.3-1.5-.9-2.2-.5-2.4 1.3zM363.3 52.5c4 1.8-.3 5.1-.9.6-2-.7-3.3.8-4.3 2.5 0-2.2 1.3-3.2 4.4-3.3.7-1.2 1.9-1.5 3.3-1.5-.5 1.2-2.2.3-2.5 1.7zm.8 2.4c.3-1.2.3-1.3-1-1.6.1.7.1 1.3 1 1.6zM149.7 178.8c-.6-1.9 1-3.7.5-5.6-.2-.7-.4-1.5 0-2.5l.5 3c7-2.3 4.7 7.4-.2 1.4l-.6 3.6h-.2zm1.4-4.4c.4 1.7 2 2.7 3.4 1.7 1-1.7-2-3.1-3.4-1.7zM162.6 174.6l.6-.8c.7 1.2-.8 1.8-1.2 2.8-2.4 3-6.3-1.5-3.6-3.7-1.2 2.2.7 6 3.2 3.2-4-1.2-1.7-5 1-1.5zm-.4.5c-.7-.7-1-1.5-2-1.3-.3 1.3.5 1.8 2 1.3zM359 164.1l.6.7c-1.8.4-5.5-2-4-4 .1.8 0 1.7 1 2.2-.2-6.8 5.3-3.1 2.5 1.1zm-.7-.4c2-.7.8-5.4-.8-3.4-.2 1.2-.7 2.8.8 3.4z"/>
        <path class="st4" d="m161.1 281.8 1.4 2c3-4.8 6.7 2.5.6 1.8l.4 3.4-.4.2c-.2-2.7-.8-5-2.3-7.3l.3-.1z"/>
        <path d="M319 295c2.7-2 4 3 1 3.5-5.8-.7.4-8.6 3.3-4.2-2.2-1-4.8-.9-5 1.8-.1 1 .4 1.7 1.3 1.8 2.2-.3 2-2.8-.5-2.8zM316 277.1c.9-5.5 5.3-1.4 1.3.7.5.9 1.5.8 2.4 1.3-1.2.5-2.3 0-3.1-1-1.5-.6-3.6-2.7-1.5-4-.2 1.4-.4 2.3 1 3zm1 .1c1.1-.3 2-1.8.6-2.3-.6.5-.7 1.2-.7 2.3zM325.3 187.2c-.3 0-.6-.3-.4-.7 1.5-2.5 6.8-.5 4.4 2.3-1.2 1.2-4.4 1.7-5.2-.3-.5-1-.7-3.8 1-3.6-4 6 6.6 5.3 3.6 1.4-1.2-1-2.7-.5-3.4.9z"/>
        <path class="st4" d="m342.5 195.6-3.2.9c.5 1.8-.1 4-2.4 4-1.2-1.6-.7-4 1.2-4.4-.4-.8-1.1-1.2-2.2-1.3.7-.5 1.7-.2 2.2.3 1.3 1.7 2.9-.7 4.4.5zm-4 1.2c-1.8.3-2.1 1.1-1.4 3 1.8-.5 2.2-1.2 1.5-3z"/>
        <path d="M315.4 123.5 311 125c1.5 1.3 2 4.3-.4 4.7-2.5.2-3.2-3.5-1.1-4.5 1.8-.9 3.9-2 5.9-2.1v.3zm-5.1 2c-2.4.7-1.6 4.4.6 3.8 1.6-.8.8-3.2-.6-3.8zM131.5 320.4c-1.5 1-1.5 1-1.7 1.9 2.8-1 4.5 2.6 2.4 4.2-3.2.7-4.7-6.9-.7-6.1zM130 323c-.2 1.1 1.3 4 2.4 2.4.7-1.6-.6-3.6-2.4-2.4zM316.2 309.4c-.8 1.4-.8 1.4-.6 3 3.7-4.7 5.2 4.2.1 2l.5 1.1c-1.6 0-2.1-6 0-6.1zm-.3 4c1.1 1 2 1 2.6-.1.3-2.5-2.2-1.9-2.6.2z"/>
        <path class="st4" d="m297.5 254.8-1.5-.9c.2-.5.7-.3 1 0 1.3 1.2 2.9-.6 4 .6l-2.5.6c.6 1.7.3 3.5-1 4.7-1.9-1-1.9-2.3 0-5zm.3.8c-1.4 1.4-1.5 2.7-.3 3.4.6-1 1-2.1.3-3.4zM336.6 188c0-.6-.2-.9-.3-1.5 2.6 2.3-2 3.2-.8-.5 2.3-3.4 4.5 3.4.7 3.6-2.7 1-4.8-3.3-2.2-4-3.3 5.7 7.5 3.5 2.6 0-1 0-1.4 2.2 0 2.3z"/>
        <path d="M217.5 319.4c.7-1.5 2.7-2.8 2.4-4.6-.2-1.2.4-2.2.6-3.4.6.7-.1 2.6.1 3.8 4.6-1.7 3 4-.4 1.3-.8 1.1-1.4 2.4-2.7 2.9zm3.3-3.4c1.1 1 1.6.8 2-.3-.7-.4-1.3-.3-2 .3z"/>
        <path class="st4" d="M196.4 262.6c4.2 2.8-1.5 6-.9.5-1.6-.3-33.9.9-35.2 2.8-.5-2 33.9-3.3 35.7-3.8 1-1.3 2.2-1.5 3.1-.2-1-.2-2.1-.6-2.7.7zm0 .7-.4.1c-.2 3.5 3 2.3.4-.1z"/>
        <path d="M147.5 202.5c-1.5-1.3-2-1.4-3.6-.8 3 1.2 2.3 3.3-.5 4-2.4.4-2-3.4-.2-4.2 1.3-1 4.5-1.2 4.3 1zm-4.5-.5c-1.7 2.5-.1 4.4 2.1 2.2 1.2-1.2-1.2-1.6-2.1-2.2z"/>
        <path class="st4" d="M145.7 261.9c-2 .4-2 1.9-2.6 3.2-.4-1.5.5-3.4 2.2-3.7 1.2-.3.4-2.3 2.1-1.7l-1 1.3c6.7 1.8 0 8-.7.9zm.7 0c-.4 1.2.6 3.4 2 2.6 1.4-1.1-.6-2.8-2-2.6z"/>
        <path d="M224.3 256.3c-.5.7-1.2 1.1-.9 2.1h-.7c-.2-.6.5-1.5.8-2.1 1-1.3-.7-3 .7-4.2v2.7c6-1.5 4.4 7 0 1.5zm.3-.5c.4 1.1 3 2.8 3.2.9-.5-1.3-2.2-2.4-3.2-1zM364.6 115.6l-.5 2.4.2.1c2.8-4.2 3.8 2 .3 2.1-.4.9 0 1.7.4 2.4h.8c-1.8 3.3-3.2-6.8-1.2-7zm0 3.9c1.2.4 2.2-1.5 1.4-2.4-.8.6-1.3 1.4-1.4 2.4zM155.8 302c-.2 1.9-.2 1.9.1 2.8 4.4-3.5 5 4.4.4 2l.1 2c-.7-.1-.7-.4-.6-1 .3-2-1.7-4.1 0-5.8zm3.2 3.4c0-1.6-2.5-.9-2.6.2.1 1.3 2.6 1.5 2.6-.2zM307.6 311.7h-1.9c.2-.7.7-.7 1-.6 1.7.7 3.8-1.6 4.7-.5l-2.5 1c2.8 5.3-4.8 6.2-1.3 0zm.2 3.8c1.4-1.1 1.6-2.4.4-3.3-1.2 1.4-1.3 2-.4 3.3zM355.6 186.9c.9-.6 1.2.2 1.7.2 2.7-1.5 3.1-1.7 4.1-1.3-7 1.7-1 5.4-5.3 6.6-1-1.7 0-3 .9-4.8l-1.4-.7zm1.5 1.7c-.8 1-1 2-.8 3.1 1-.4 1.2-1 .8-3.1zM160.2 203.2h-.6c1.3-1 2.1-3.5 4-3.6-.9 1-1.8 1.5-2.2 2.6 6 2.2 0 9-1.2 1zm.9-.1c-.2 1.6 0 3.3 1.6 3.4 1.7-1 .5-3.6-1.6-3.4z"/>
        <path class="st4" d="M316.4 266.4h-1.6c.5-.7.6-.8 1.2-.5 1.4.6 3.7-1.1 4.4.8-1-.2-2-.8-3.1 0 .7 6.6-6.4 5-1-.3zm.2.8c-1.1.8-2 1.9-1.7 3.2 1.7 0 2.1-1.7 1.7-3.2z"/>
        <path d="M136.6 292.7c.1-.6.6-.7 1-.6 1.2.6 2.2-.3 3.2 0l-.8.8c4.2 5.5-3 7.4-1.4 0l-2-.2zm3.4 4.6c1.5-.9.7-3.3-.7-3.9-.6 1.5-.4 2.7.7 4zM299.9 306.2c1.3-4 4.8-.3.7 1l1.4 1.6c-1.6-.4-4.7-3.3-3.5-5 .6-1.1 1.4-2.2 2.7-1-2-.2-3.7 2.6-1.3 3.4zm2.4-.8c-1.2-.5-1.6-.2-1.4 1.1l1.4-1.1zM144.6 270.4l-1-.1.3-.4c1.4 0 2-1 2.8-1.8.5-.7.5-.7 1.3-.7l-2.2 2.6c6.8 2.1.4 8.4-1.2.4zm1 .2c0 1.3.5 3.6 2 3.2 2-1-.4-3.4-2-3.2zM154 283c-1.5-.2-1.7 0-2.6 2.3-.5-1.5.4-3 2.6-3.1.4-.7-.3-1.9 1-2.4l-.4 2.5c5.6 2.4.4 6.8-.6.6zm.7 0c0 1.3.4 2.5 1.7 2.5.6-1.3-.6-2-1.7-2.5zM155 130.2l.7.4-.5 1.3c5-2.3 5 6 0 2-1.5 1.8-1.6 3.2-.6 4.6-3-.8 1-5.8.4-8.3zm3.5 4c.1-2.3-2-3-3-1.4 0 1.3 2 2 3 1.3zM134 186.6c10.2 6.5-8 6.4 1.9-3.9-.5 1.4-1.8 2.3-1.9 3.9zm-.3.7c-.9 2.1 1.3 4.6 3 2.6-.5-1.5-1.5-2.3-3-2.6z"/>
        <path class="st4" d="M154.8 262c.4-.8 2.9-2.3 2.8-.5-.8-.3-1.4-.2-2 .5 4.7 2.9-1.5 7-1 .7-1.6-.3-2.3.8-3.4 1.9.4-1.8 1.4-2.4 3.6-2.6zm.5.8c-.4 1 .2 3.5 1.4 2.3 0-1 0-2.5-1.4-2.3z"/>
        <path d="m316.9 302.4-.8-.6v-.2c2 .4 3.3.1 5.4 0-1 1-1.6.4-2.7 1 2.5 4.9-5.4 5-1.9-.2zm1 .4c-1.5.8-2 2.3-.6 3 1.4.3 2-2.3.6-3zM340.2 106.8c-3 4.3 5.1 3.6 1.2.4 2.2-1.3 2.9 1.3 1.5 2.8-1 .9-2.7.8-3.7 0-.7-.8-.4-3.6 1-3.2zM129.5 295.8c1.5-.7.8-2.5 2.8-1.8l-1.4.8c7 .3-1.2 11-.3 1.3-.3-.2-.9.4-1-.3zm1.8 3.8c2.1-.4 3-4.3 0-3.9v4zM323.4 304.9c-.3-1.3.3-2.4 1.5-2.6 1.6 0 2.1-2.5 3.8-1.7-.9.4-1.8.7-2.1 1.7 3.2 3-2.7 5.6-1.4.7-1 0-1 0-1.8 1.9zm2.6-2c-.1.8-.8 1.7 0 2.2 1.1-.1 1.3-1.5 0-2.2z"/>
        <path class="st4" d="m342.8 131.6-2 .7c2.5 1.3 1.5 6.4-1.4 4.6-2.2-1.7-1.3-3-.4-5 1.1-.1 2.6-.4 3.7-.7l.1.4zm-2.9 1c-3.2.8-.1 6 1.6 3.3.7-1.3-.2-2.8-1.6-3.4z"/>
        <path d="M306 148c-1.4-1.3-1.1-2.6.8-4.8l-.7-1.7.3-.1 1 1.4c1.2-.5 2.3-1.1 3.7-1.4-.8 1.2-2.4 1-3.2 2 .9 2.8 0 4.1-2 4.6zm1.3-4.2c-1.3.7-2.4 2.6-1.3 3.5 1.9 0 2.1-2.2 1.3-3.5z"/>
        <path class="st4" d="m315.2 285.8 1.3-.2v.2l-1 .7c.4 6.4-8.1.6-1.2-.6l-2.7-1.9c1.1 0 2.1.6 3.6 1.8zm-.6.8c-1 0-2.3 0-2.4 1.2.6 2 3.3 1 2.4-1.2zM138.4 261.3c-1.5.3-1.8.5-2.1 2.4-1.5-2.5 2.7-3.6 4.4-4l.2.3-1 .6c3.8 3.7-1.7 7-1.5.7zm1.9 3c.7-1.6.4-2.5-1-3-.6 1-.4 3.1 1 3zM206.8 166.3c-5.6-1.8-.4-4.9 1-.7l1.2-1c0 1.6-1.5 1.3-2.2 2.3-1.1 1.6-5 .1-3-1.7 0 2.2 1.4 2.2 3 1zm.3-.7c-.2-1.2-1-1.6-2.3-1.3.4 1 1.3 1 2.3 1.3z"/>
        <path d="M314.4 83.3c-.4.4-1 .7-.7 1.5 6.7 0 2.8 7.4-.6 2l-.7 1.5h-.3c.8-1.6.3-4.7 2.3-5zm.3 2c-2.4 0-.3 3 1 3 2.5-.5.6-2.6-1-3zM158.4 187.8l.7.5c-3 1.4.8-5.4.8-6.6h.3v1c5.2-.8 1.3 6.6-.5 1.5-.8 1.1-.8 2.5-1.3 3.6zm2.5-2.3c2.6 0 .7-3.7-.8-1.8l.8 1.8zM335.8 107.3c2.4 1-1 4.6-2.7 2.9-1.4-1-.2-5 1.6-4.2-2.9 3.4.4 6.2 1.1 1.3zM146.8 328.3l-.7.6v.3c7.1-.5 1.1 6.1-.5.8l-3.1.7c.8-1.1 2-.9 2.8-1.3.3-.8.3-1.7 1.5-1.4v.3zm2.3 2.3c-.8-.9-1.6-1-2.8-.5.1 1.5 2 1.8 2.8.5zM324.9 29.7l-.4-.8c1 .3 1.6 1 3 .6 1 0 2.3-.5 3 .5l-4.4.1c2 6.9-6.4 2-1.2-.4zm.9 3.5c-.2-1 .4-2.7-1-2.8-1.7.5-1.5 2.7 1 2.8zM309.8 327.2c3.6 4.4-3 5.8-1 .3l-2-.5c.8-.8 1.6-.1 2.4-.2.5-.8 3-2.7 3.1-.6-1.2-.4-1.5-.3-2.5 1zm0 3.4c.6-1.2.6-1.6-.4-2.6-.8 1.2-.7 2 .4 2.6zM329.4 57c-.4 1 .5 1.3 1.2 2-1.2.4-1.9-.7-1.8-1.7 0-1.3-1.7-2.6-3.1-2.8 1.6-1 2.3.7 3.4 1.6 2.4-6.1 5.8 1 .3 1zm.3-.7c1.7.3 2.6-1 1.8-2-1-.2-1.8 1-1.8 2zM342 275.4c-1.2-.3-1.4-.2-2.6 1.2 0-2.9 3.3-1.1 4.9-2.4.4-.2 1-.2 1 .7-.7-.1-1.5 0-2 .6.9 4.7-3.7 5-1.3 0zm0 3.4c.7-1 1-1.7.5-2.7-.9 1.2-.9 1.3-.5 2.7z"/>
        <path class="st4" d="M323.4 133.5c-.9 1-.6 2.3-1.7 2.4.2-1.5 1.3-2.3 1.8-3.6.2-.7.2-.7 1.2-1.3l-.8 1.4c1.9-.6 5.4 1.4 3.6 3.3-1.8 1.3-3.8 0-4.1-2.2zm.5-.3c.1 1.5 1.4 3.1 3 2.3 1.8-1.4-1.3-3.3-3-2.3z"/>
        <path d="M200.4 194.4c-.7-.6-1.8-.8-2.3-1.6 2.4-1.6 2.8 2.2 5 1 0 .7-.1.8-2 .6-1.3 2.4-6.3 1.2-4.9-1.6 0 2 3 3.4 4.2 1.6zM341.5 318.5c-.7 1.8-.9 2.4-.5 3.8 2.7-3.7 4.8.2 1 1.6-1.1.8-1 0-1.4-1-1-1.4-.3-3.5.9-4.4zm.2 4.4c1 .3 2-.6 1.7-1.4-.8-.5-1.6.5-1.7 1.4zM316.3 141.7l-1.3-1.4c1 0 1.2.8 2 1l1.2-1c.3.8-.5 1-.8 1.7 4.5 6.9-5.3 5.6-1.1-.3zm.4.6c-1.3 1-1.5 4 .6 3.9 1.7-.4.3-3.1-.6-4zM344.1 114.1c1.2-.5 1.3-.5 2.6.8 1.3 0 2.4-1 3.7-1.2v.4l-3 1.3c.2 7.5-5.3 3-1.3-.2-.4-.7-1-1-2-1zm2 5c.9-1.2 1-2.3.3-3.3-1.6.8-1.8 2.2-.4 3.3zM317 151.3l-2-1.2c.5-.4 1-.2 1.2 0 1.8 2 3.5-1.2 5.1-.1l-3 1.3c-.4 6-4.7 4.3-1.2 0zm.4.6c-.8.8-1.7 1.8-.8 2.6.8-.3 1-1.6.8-2.6zM129.4 305.7l-1-.3c.3-.5.6-.5 1-.3 1.4.7 2.5-1.8 3.9-.9l-2.5 1.4c4.7 4.5-3.1 6.3-1.4.1zm.9.5c-1.3.9-.6 3.4 1 2.9 1.1-.5.1-2.7-1-2.9zM203.3 143c-2.1 0-2-1.3-2.4-2.7-1-5.3 7.6.7 2.4 2.7zm.3-2.8c.2-2.4-4-1.4-1.7.2l.5.1c.3.8 1.1.1 1.2-.3zm-2 1.1c.5 2.2 3.4 1 2.6-1-.4 1.5-1.6 1-2.5 1z"/>
        <path class="st4" d="m331.8 131.6-1 1.8c3.3-1.2 6 2.6 2.5 4.3-3.1.8-4.2-5.4-1.5-6.1zm1 5.6c2.2 0 2.1-3.5 0-3.4-2.8 0-2 3.4 0 3.4z"/>
        <path d="M197.2 292c-1 1.3-.6 2.5-.5 3.8 2.5-1.2 4.7 2 2 3.3-1 .3-2-.3-2.2-1.3.2-1.8-1.8-5 .7-5.7zm-.3 4.9c0 2 1.7 2.1 2.3.8.4-1.5-1-2.2-2.3-.8zM137.1 314.8c-.3 1 1 2.1 1.3.6.2-2.5-3.1-2.8-3.8-.7-.2 1.3 0 2.6-.2 3.8-2.2-3 2-8.5 4.3-4.3 1.5 2.8-3 3.9-1.8.6h.2zM326.1 100.7l-.3 1.3c1.8 1 2.4-2.4-1.5-1.8 1-3 6 1.2 2.7 2.7-2.1 1.3-3.3-1.6-.9-2.2zM147.3 278.7c-1.3 1.3-1.3 1.3-1.3 2.6 6.2-.5 1.5 7.7-1.2.7 1.2-1 0-3.4 2.5-3.3zm-1.5 3.4c0 2 2.3 3.3 2.7 1 0-1.6-1.5-1.3-2.7-1zM198.3 180.7l.5 2.8h.3c1-4.7 6.7.6 1 1.5l1.8 1.6c-2.3-.2-4.7-4-3.7-5.9zm3.8 2.2c-1.4-1.6-2.9-.2-2.3 1.3 1.4.2 1.9-.1 2.3-1.3zM346.3 168.7c3.4 5-5.1 5.9-1.4.1l-.4-.5 6.3-.8c-.6.9-3 1-4.5 1.2zm-.8.4c-1 .8-1.7 2.8-.3 3.3 1.8 0 1.9-2.4.3-3.3zM150.5 253.5l2.8-1.5.2.3-1.4 1c6 1.2-1.7 11.8-1.6.2zm.9.4c-.9 1.3 0 5.9 2 3.8.4-1.8 1.1-3.9-2-3.8zM296.6 284.8c-.7.4-1.2 1-1.3 2 4-4.2 6 2 .2 1.3v1c-1.6-.1-.3-6 1.1-4.3zm-.7 2.5c1.5.4 2 .3 2.7-.7-.9-1-1.5-.9-2.7.7zM358.5 115.3l-.5 1.6c5-.8 2 4.8-.3 1.5-1.9 1.5 0 3.7-1.6 4.4-.3-2.7 1.1-5.2 2.2-7.6l.2.1zm-.5 2.8c.7.9 1.3 1.2 2 .3.7-1-1.3-1.3-2-.3zM208.6 293c2.9 1 3.3 3.6.6 4.7-3.1.5-4.9-4.5-2.2-6.2.4.5-.1.8-.3 1-2 2.6 2.6 7 3.7 3 .3-1.5-2-1.1-1.8-2.5zM273.6 234.5c.2-.6-.7-1.1 0-1.9l.6 1.6 2.5-.5c-.6 1.2-1.6.6-2.3 1.3 1.8 8-7.8 3.3-.8-.5zm.2.7c-1.5.5-3.3 2.5-1.6 3.6 2 .6 2.5-2.2 1.6-3.6zM338.1 285.6c-.6.9-.9 1.6-.6 2.7 2.5-3.8 4.8 0 .4 1.6-.2.3.2.8.7 1.2-2 .6-2.7-5.7-.5-5.5zm0 3.2c1.1 0 1.7-.4 1.5-1.4-1-.1-1 .6-1.6 1.4zM137 201.6l-1.7.9c5.3 4.7-5.8 6.8-1.5-.3 1 0 2.4-1.3 3.2-.6zm-2.5 1.1c-1.2 1-2 4 .3 3.5 2.5-.4 1.3-2.8-.3-3.5zM357.5 179.7c-1 1-1 1.1-2.5 1.5l-.5 2.7c-.9-1.3.3-2.2-.5-3.4-.3-1.3-1.1-2.8-.1-4 0 1.5 0 2.7.7 3.9.7-2.3 2.5-4.3 2.9-.7zm-2.3.9c1.8-.6 2-1 1.1-2.3-.6.5-.8 1.3-1 2.3zM279.7 207.4c-1.6 1-3.3 1.9-3.6 3.8 1.8 1.8 2.1 3 1 4.2-1.9-1-.6-4.3-3.4-4 .5-.8 1.2-.2 1.7-.2 1.3-2.6 3-4.2 4.3-3.8zm-3.3 5-.3.1.8 2h.3c0-.8.1-1.7-.8-2.1zM149 184.1c1.1-1.2 2.8-.7 4.1-1.1.9-.2 1.2-1.9 2.2-1.4l-1.4 1.5c3.9 3.8-3 7.1-1 .5-1.3-.4-2.4.6-3.9.5zm4.6-.2c-.5.8-1 2.3-.2 3 1.7 0 1.5-2.4.2-3zM200.4 71c2.4 2.2 1.1 6.9-2.5 5.4-3.3-3 3.2-6.8 5.8-7.2l-3.3 1.8zm-.5.4c-1.6 1-3.6 3.3-1.9 4.6 3 1.4 4.4-3 2-4.6z"/>
        <path class="st4" d="m333.7 244.7-1.3-.9.1-.2c2.6-.4 3.5 6.2 1 6.3-2.9-.6-1.2-3.9.2-5.3zm-.1 4.7c1-.9 1-2.4.3-3.8-1.7 1.5-1.9 3-.3 3.8z"/>
        <path d="M289 255.9c-.5-1.1-.5-1.4.4-2l-.2 1.3c1 0 1.5-1.4 2.7-.7l-1.8 1c4.5 4-4.1 6.8-1.1.4zm.5.2c-.4 1.1-1.4 2.7.2 3 1.4-.2 1.5-2.1-.2-3zM205 251.9c.5-.3.5-.3 2.7.4.7-.6 1.4-1.6 2.8-1.2l-2.3 1.6c4 4-2.3 5.7-1 .1l-2.3-1zm3.6 4c.7-1 .4-2-.9-2.4-.1 1-.3 2 .9 2.5zM303.4 284.3c-4.3 5.5 6.4 7 3.9.7 4.3 3.4-5.2 7.4-5.3 2.1-.1-.8.3-3.7 1.4-2.8zM215.6 157c-.7 2.4 2 2.2 1.8.3-.5-1.4-3.6-1-4.2.2-.4 1.5-.3 3.3 1.4 3.8-3.8.8-2.3-8.3 3-4.8 2.2 2.7-4.4 4-2 .5zM351 296l-.8.3c1 2.2-1 4.4-3.3 3-3.5-2.6 1.8-4.7 4-3.3zm-2.7.2c-3.7 0-1 4.2 1.2 2.6 1-1 .2-2.6-1.2-2.6zM209.8 211.3c-.4 1.2-1.5 2.3-.7 3.8 4.2.9 1.9 6.5-.8.5l-2.2.2c.5-1 1.5-.5 2.2-.9 0-1.4-.1-2.8 1.5-3.6zm1 6.5c0-1.5-.2-1.7-1.6-2 .2.9.6 1.6 1.5 2zM142.8 321.9c2 8 7 .2 2.1 1.3l.7 1.8c-3.5-2.2 2-4 2-.8-.4 4.6-6.5.1-4.8-2.3zM345.6 100.3c7 .2.7 7.7-.8 1l-1.6.2c.3-.3.5-.6.7-.6 1.9-.1 1.2-2.2 3-2.9-.4 1-.8 1.6-1.3 2.3zm0 1c-.3 1.8 1.4 3 2.6 1.8.6-1.5-1-2.7-2.6-1.9zM143.2 196.6c-.6-1.4-.3-2.7 0-4-1-.5-2-.1-2.9-.8 1.1-.3 2-.2 3 .2 1-.7 1.8-1.4 3-1.5l.1.3-2.4 1.4c.5 1.6.8 3.1-.8 4.4zm.1-1.2c.6-1.1.6-1.1.1-2v2zM217.8 282.1c1.4 2 .7 3.8-1.5 4.1-.6-1.5-.6-1.7.2-3.6l-1-.6v-.2c2 .5 3.6-1.2 5.5 0l-3.2.3zm-1 3.5c1.4-.5 1.8-2.4.4-2.7-1 1-1 1.6-.4 2.7zM332.8 160.4l-2.1-1.2c.9-.4 1.5.4 2.3.5.8-.5 1.3-1.6 2.7-1.5l-2.2 1.8c2.2 1.1 2 3.7-.5 4.2-.9-1-.9-1.7-.2-3.8zm.2 3.1c1.8-.3 2.3-2.1.2-2.7-.5 1-.5 1.8-.2 2.7zM332.1 309.6c-2.1.6-2 4.8.8 4.2 1.5-.5 3.7-.4 4.3-2.2 1 2.4-6.5 4.3-7 1.4-.5-1 .5-5 2-3.4zM131.6 234.8c.7 0 .8.8 1.3 1 .7-.5 1.1-1.3 2.2-.8-3.5 1 .5 3.5-1 5.8-1.5 1.5-1.8-1.6-1.7-2.6.5-1.5-.2-2.2-.8-3.4zm1.8 6c.7-1.2.6-2.4-.3-3.4-.4 1.1-.5 2.2.3 3.4zM139 140c-2.1 1.1-.1 3.5-.6 5.3-1 3.7-5.5-1.9-2-3.9 1-.3 1.5-2 2.7-1.4zm-1.6 1.5c-2 .6-2.6 3.4-.7 4.3 2.2.6 1.2-3 .7-4.3zM236.7 235.2c2 2.3.6 5.6-2.4 4.1-2.4-1.2-2.2-8 1.1-7.3-3.7.8-2.7 8.6 1.3 6.7 1.6-1.1-.7-2 0-3.5zM238.8 252.8l-.5 2.3.2.1c2-3.3 5.1 1 .8 1.7l.8 2.8c-.5 0-.6-.3-.7-.6-.5-2-2.8-4.6-.6-6.3zm1.6 1.6c-1.1 0-1.9 1.8-.5 1.7 1-.1 1.5-1.3.5-1.7zM217.2 228.4l1 .5c-1.7 1-3.8-2.7-2.7-4.1h.3v1.9c.3-1.1.4-2.2 1.9-2.5 1.2 1.4 1.8 3.7-.5 4.2zm1.3-1.3-.9-2.3c-1.9 1-1 4 .9 2.3zM302.8 157.5l.9 1 2.6-1.2c.7 1-1.6 1-2.3 1.6 3.6 7-4.2 4.3-.9 0 .2-.5-1-.6-.3-1.4zm.7 2c-1.5.8-.8 3.4 1 3 0-1-.5-2-1-3zM213.5 254.8c.4-1.6 2.2-1 2.8-2.2.3-.6.7-1.3 1.7-1l-1.4 1.6c4.5 2.8-1.6 7-.9.6l-2.2 1zm3-.7c-.5 1.5-.4 1.8.5 2.5 1.2-.5.8-2.6-.6-2.5z"/>
        <path class="st4" d="M209.3 130.8c-1.8 1.8 1.5 2.9 2.3 1.1 2.2-2.7-5.2-3.6-4.4-.3-2.4-3.1 5.5-3.5 5.4-.6-1.1 4.8-6.9.8-3.3-.2z"/>
        <path d="M355.5 51.6c-1.4.3-2.7.3-3.4 1.5 5 2.4-1.6 5.2-1 .5-.6-.2-1-.4-1.6-.3.4-.6.4-.6 2-.3.8-1.3 2.6-2.4 4-1.4zm-3.8 2c-.2 1.8.6 2.5 1.6 1.8.3-1-.9-1.2-1.6-1.7zM283 233.4l-2.7-.4c1-.6 1.4-.5 3.1 0l.9-.5h.2c-1 1.5 0 3-.8 4.5-.4 1.3-2.1.6-2-.6.4-1.1.6-2 1.2-3zm.3 1c-1 1-1.1 1.8-.6 2.6.9-.6 1-1.3.6-2.6zM350 276.4c-.8-.4-.8-.4-1.5.8-.7-1.8 2.4-2.5 3-1.3-.4.3 0 .7 0 1.1 0 4.6-4.8 3.6-1.5-.6zm-.6 2.9c1.3.4 2-1.5 1.3-2.5-.8.7-1.3 1.4-1.3 2.5zM222 326c-1.5-.5-2.2-1.4-1.9-2.8l-.7-.4.1-.4c1.8-.5 2.1-3.4 4-3.6a807 807 0 0 1-2.6 3.5c.6 1.4 1.9 2.2 1.1 3.6zm-1.3-2.5c-.1 1 .2 1.4 1 1.7 0-.8-.3-1.2-1-1.7zM345.7 294.1c-1 .4-2.3 0-3.2.5.4 1.3.5 3.6-1.3 3.4-2-.5-1.1-3.8.9-4 1.2-.2 2.4-.4 3.6.1zm-4.3.9c-.8.5-1.1 2 0 2.4 1-.4 1.1-1.6 0-2.4zM230.5 265.6c1.5-1 3-5 5-4-1.5.4-2.2 1.5-2.5 3.1 3.7 1.7-.6 7-1 .7l-1.5.2zm2.3-.1c-.1 1.4-.1 1.5.5 2.4 1-.5.8-2.8-.5-2.4zM349 208.7c3.9-2.6 5.5 4.8.5 4.1-1.9-.3-4.2-3.4-3-5.2 1.4 10 10.6 1 2.5 1z"/>
        <path class="st4" d="M319 223.6c2.4 7.8 9.2 1 1-1.8 2-.5 4.3 1.8 4.6 3.8 0 3.7-6.8 1.8-5.7-2z"/>
        <path d="M157.8 258.1c-1.5-2.2 2.1-3.3 2.5-5 0-.6.3-1.1 1.2-1.2-2.3 2.2 1.3 2 1.2 4-.5 2-2.2-.4-2.4-1.3-1.6.7-2.4 1.7-2.5 3.5zm3.1-3.5c.3.7.5 1.2 1.2 1.3-.1-.5-.2-1.2-1.2-1.3z"/>
        <path class="st4" d="M131 262c1.2 0 2-1.2 3.2-1.2v.2l-2.2 1.4c5.7 4.5-3.7 6.4-1-.3zm.4 1c-.2 1-1 2.4.4 2.8.5.2 1 .4 1.3-.1.5-1.2-.2-2.3-1.7-2.7z"/>
        <path d="m343.2 254.9-.6-.6c3.2-1 2 5.7-.3 5.2-2.2-1-.6-3.8.9-4.6zm.3.7c-1.6.7-2.4 2.3-1.2 3.2 1.4.2 1.7-2 1.2-3.2zM340 124.8l-2.2-1c.5-.4.6-.4 2.5.6.8-.7 1.3-1.9 2.6-1.9l.3.3c-2.5.9-2.3 2.5-2 4.7 0 .7-.5 1-1.1 1-1.7-.4-.4-2.5-.2-3.7zm.3.7c-.3 1-1 1.6-.1 2.4 1-.5.8-1.5.1-2.4zM284.5 206.2c3.7-.4 4.5 9.8.2 7.5-.7-1-1.8-3.5.1-3.8-1.3 1.3.5 5.3 2 3 1-2.6-.1-5-2.3-6.8z"/>
        <path class="st4" d="M152.6 211.7c1.6 9.8 8.4 3.4 3.2.8 2.9-.7 3.2 4.1 1 5-2.8.8-4.7-3.3-4.2-5.8z"/>
        <path d="M273.3 223.6c1 8 4.7-2.7-1.6-3.4 2.4-1.7 5 3.3 4.1 5.5-1.3 3.7-4-1-2.5-2.1zM142.6 163l-1.5-.5c.7-.3.7-.3 1.7 0 .7-.5 1.1-1.5 2.4-1.3l-1.7 1.4c4.4 4-3 7.7-1 .5zm.7.3c-1 1.6-.9 2.6.3 3.4 1.2-1.3 1.1-2.5-.3-3.4zM228.1 67.5c.3-1.3.7-2.4 2.3-2.4.8-.2 3.7-2.2 3.6-.4-1-.1-1.8-.1-2.6.6 2.8 2.8-2.9 5-1.3.4-1.3 0-1.4 1.2-2 1.8zm2.7-1.7c-.5.8-.7 1.6 0 2.1 1.2 0 1.3-1.5 0-2zM292.3 274.5c3 2.6-1.4 6.2-1.2 0 .7-.6 2.7-3.3 3.4-1.3-1-.1-1.7.3-2.2 1.3zm0 2.8c.5-1.4.5-1.6-.4-2-.2.7-.3 1.4.4 2zM205.5 273.4c6-1.1 3.7 5.9-.7 1 0-1.3-.4-3.4 1-4-.3 1-.7 2-.3 3zm.2.7c.5 1.2 2.2 2.2 2.9 1.1.3-1.4-2-1.8-3-1zM141.2 183l-.8-.4v-.2c3 .6 4-2.9 5.2-.7-1.2-.4-1.8.5-2.7 1 2.3 3.9-4.3 3.9-1.7.3zm1 .2c-1 .6-1.3 1-1 1.5.8 1 2.5 0 1-1.5zM328.3 84c-.6 1-1 1.8-.5 2.8 2.8-6.2 5.8 1.3.4 1.6-1-1.1-2-3.7.1-4.4zm.4 3.6c1.6.2 2.8-1.7 1.5-2.7-1.2 0-1.9 1.5-1.4 2.7zM143 121.3l.8.6c-1 0-1.3.4-1.4.8.7 1.5 3.3 3.9.9 4.8-1 .4-2 0-2.4-.9-.4-1.4.6-2.7.6-4.1l1.5-1.2zm-1 2.2c-.8 1.2-1.4 4 1 3.6 1.8-.4.2-3-1-3.6z"/>
        <path class="st4" d="M222.8 132c-3.3.4-.2-3.9 1.2-1.6 2 2.6-2.5 4.3-3.9 2-.5-1-.3-2.7 1-2.6-2.5 2 1.5 4.5 2.7 2.3.5-3-3.6-1.7-1-.3v.2z"/>
        <path d="M306.4 295H305c1.1-1 2-.5 3.1-1.2.8-.3.9-.2 1.2.6-.5 0-1 0-1.6.2 2.7 3.8-4 5.6-1.3.4zm-.1 2.7c1.4.2 2.1-1.6.8-2.3-.4.7-1 1.3-.8 2.3zM327.5 330.3l.7.4c2.5-4-5.8-3.4-3.5.7-1.7.4-.5-3.4.4-3.7 2-1.3 5.7.9 3.8 3.2-.5.6-2 .6-1.4-.6zM366.2 136c-.4 1 0 1.8.4 2.9-1.3-.4-1-1.7-1-2.7.4-1.6-1-2.7.1-4.3l.3 2c3.2-3 3.4 2.2.2 2.1zm.1-1c.7 1.3 2.1-1 1.4-1.6-.8.3-1.1.9-1.4 1.6z"/>
        <path class="st4" d="M317.3 133.7c3.6 4.3-4.6 4.9-1 .2l-1-.8c.6-.3 1 .2 1.5.2 1-.4 1.7-1.4 2.9-1.5l.1.2-2.5 1.7zm-.5.4c-1.1 1-1.5 3.3.5 2.5 1-.8 0-1.5-.5-2.5z"/>
        <path d="M331.5 209.9c-2.3 7 7.7 1.3-.5-3.9 1.8.2 3 2 3.6 3.6 1.1 2.3-2.7 6.3-3.9 2.6 0-.8-.9-2.6.8-2.3zM307 85l-.8-.3.3-.3c1.4.4 2.3-2 3.3-.5-.9-.1-1.4.2-1.8 1 5 4.9-3.9 5.4-1 0zm2 3.1c.2-1.3-.6-2-1.6-2.8-1.4 1.4-.4 3.5 1.6 2.8zM138 322.1c2.3 0 3.7 2.5 1.3 3.7-2.5.1-3-4.1-.9-5.2l.2.2-.7 1.3zm-.3 1c0 .9.5 2.4 1.5 2 1.7-1 0-2.7-1.5-2zM214.6 273.3l-1.3-.3v-.3l3.5-.3-.4.6c4.4 4-3 5.4-1.8.3zm1.9 3c1.8-.5 0-3.5-1.3-2.8-.8.7.3 2.5 1.3 2.8zM330.4 22.4c.3.8.4 1.7-.3 2.5-2.3.5-3.8-2-1-3l-1.2-1.2 1 .1c1 1.2 2 .5 3.4.6-.5.7-1.3.4-2 1zm-2.3.7c.6 1.4.6 1.4 1.7 1.2.3-.6.3-1.2-.3-1.8l-1.4.6z"/>
        <path class="st4" d="M164 165.5c-.7 3 35 2.1 35.2-.3a3.3 3.3 0 0 0-2.5-1.2c-.2 1 .6 1.4 1 2.1-1.2-.3-1.6-1-1.6-2.5 3.7-.8 5 3.6 1 4-1.3-.1-34.8-.5-33.2-2zM212.9 265.7c.8-7.7 11.4-2.8 6 1.9 1.4-2 1.3-3.6-.7-5-2.4-1.8-4.2 1.2-5.3 3z"/>
        <path d="M222 285c2.4-3.9 7.4-.6 4.4 2.7-2.2 1.5-3.8-.6-4.4-2.6zm2.8 2.7c2.5.2 2.6-4 .2-4a2 2 0 0 0-.2 4zM215.4 322.8h-.7c.5-.5 1-2.5 1.8-1.6 0 .2.4.2.6.2 4.8 1.6.1 7.5-1.7 1.4zm.8-.7c0 1.4.4 2.6 1.5 2.8 1.7-1 .6-3.2-1.5-2.8zM308.4 116.7c6.7 3.7-3.1 6.1-.6 0l-1.6-1c.8-.4 1.2.4 1.9.3l1.4-1 .2.1-1.3 1.6zm0 .4c-1.2 1.8 0 3.9 2 2.4-.3-1.2-1.4-1.6-2-2.4zM219.6 247.3a189 189 0 0 0-2-1.9c0-.6.9-.6.7-1.3 1.5-4.2 7.1 2.9 1.3 3.2zm-.8-2.9c0 1.4.5 2 1.7 2 3.3-.2-1.2-5.3-1.7-2zM355.4 90c-2.8 2-.4 6.5 2.2 3.5-.4-1.2-.5-1.2-2.2-1.1.4-1.8 3.8.2 2.6 1.6-.8 1.2-3 1.4-4 .4-.6-1-.5-4.9 1.4-4.4zM138.6 173.4l-2.6.6c1 1.5 1.4 4.6-1 4.6-2.8-1.8.3-6.8 3.6-5.2zm-3.5 4.8c1.7-.4 1.6-3 .2-3.6-1 1.5-1 2.6-.2 3.6z"/>
        <path class="st4" d="M336.6 70.9c0-2.8 2.5-3.9 4-1.4 1.4 3-3.7 4.9-4 1.4zm1.8-2.2c-2.4 1.3-.9 5 1.4 3 1-1.3.4-3-1.4-3z"/>
        <path d="m150.3 165.6-2.6 1c.8-1.8 3.4-.8 3.4-3.1 0-.4.4-.8 1-.6l-.9 1.8c3.7 2.5-1 7.2-.8.9zm1 3c1-.9 1.3-2.8 0-3-.8.7-.1 1.8 0 3zM332.5 149.5c-.3 1.7.1 5.2 2.5 4.6 2.3-.2 3.5-1.6 2.8-4 3.6 4.5-7.5 7.8-5.6-.7l.3.1z"/>
        <path class="st4" d="m312.4 36.5.6.2c.8 1.6 2.2.8 3.5.8v.3l-2.3.6c1.7 5.6-5.9 2-1.1-.6l-.7-1.3zm1.1 1.7c-1.8.7-2.1 2.7 0 2.6 1-.5.1-1.5 0-2.6z"/>
        <path d="m135.3 165.8-1-.5c.2-.7.7-.3 1.3-.3.3-.5.6-1 1.6-1-.4.5-.7.7-1.1 1 5 4.5-1.9 7.3-.8.8zm2.3 2.6c-.8-2-1-2.1-2-2.2-.1 1.4.2 4.2 2 2.2zM149.7 132.4c5.6-.6 0 6.7-.8.7l-1.5 1.2c0-1 .8-1.3 1.5-1.8l.2-1.7h1c-.4.6-1 1-.4 1.6zm-.2.6c.2.9.1 1.7 1 2 2-.6 1-2.7-1-2zM218.8 137.7c-3 1-1.5 4-2.6 6.3-1.2-1-1.3-1.5-.2-4.8l-1.5-.3c.5-.8 1.2-.4 1.7-.3.9-.3 1.6-1.3 2.5-1v.1zm-2.3 2.7h-.3c-.5.7-.7 1.5-.1 2.4l.4-2.4zM326.3 127.3c-.5-1.9-1.7-1.9-3.3-1.5 1.3-2 3.4-.2 3.8 1.4-.8 1.3-3 2-4.2 1.1-1-.8-1.5-4.5.5-4.6-2.5 2.6.5 6.1 3.2 3.6zM206.7 148.3l2.7-2.1.2.2-1.7 1.8c5.8 2.4-1 7.5-1.2.2zm.8.6c-.5 1.2.3 3.3 1.9 2.7 1-1-.4-3-1.9-2.7zM351.6 84.5c-.8-.8-1.7-1-2.8-1 .8-.6.8-.6 3.3.5.7-.5 1.3-1.4 2.6-1l-2 1.2c1.4 4.5-2.7 5-1 .3zm.5 2.8c.6-1 .6-1.1 0-2-.7 1.1-.7 1.1 0 2zM150.5 83c-1.2.2-2-.6-3-1v2c-1-.4-.5-5.3 1.2-5l-1 1.3c2.2-1.4 3.6.6 2.8 2.7zm-.4-.4c.5-2.1-1-3.3-2.1-1.3.4.7 1.2 1 2 1.3zM221.3 80c-1-.3-1.7.8-2.7.5 4.3-4.3 9.8 3.5 3 3l-.3-3.5zm.9 3.1c3.4.5 2-4-.4-3.2.2 1-.1 2.3.4 3.2zM129.5 315l.1.8c-2.3-.4 1.7-3.4 2.5-2.6l-1.1 1c4.8 1.2-1 5.5-1.2.8h-.3zm1.2 1.5c1.3 0 1.3 0 1.8-.8-.5-.6-1.1-.8-2-.8l.2 1.6zM289.2 268.4c3-5-4.7-4.9-2.4 1.4-1.5-1.5-1.2-4.6.7-5.5 2.7-.9 4.2 2.8 2 4.3-.2 0-.3-.1-.3-.2zM155 199.6c-1.2.5-2 1-2.4 2.1 2.2 0 2.8 5 .4 3.5-2-1.5-.8-6.7 2-5.6zm-2.2 2.8c-.6 1 0 2.3 1 2.6.8-.8 0-2-1-2.6zM212 64.2c-1.4.2-2.5 0-3.5.7 2.2 4.7-3.4 4-1.2-.1l-2.1-1v-.1c1.4 0 2.4 1 3.7.4 1.1-.2 2.1-.7 3 .1zm-4.1 1c-1 .7-1 2.6.3 2.5 1.2-.5 0-1.7-.3-2.6zM330.4 297.5c.7-1.4.7-2.6-1.1-2.8-2.9-.7-3.3 1.4-3.6 3.7-2.7-5.7 8.8-5.8 5-.8l-.3-.1zM221.4 119.8c1.1 1.8 2.8-.5 2.5-2.1-1-.3-2.1-.5-2.7-1.8 2-.5 2.6 2 4.3.7l-.3.9c-1 .4-.8 1.7-1.3 2.5-.3 1.2-3.3 1.6-2.5-.2zM146.3 172.3l-1.8 1.3c1.2 1 2 3.6-.3 3.4-.6-.9-.5-2-.4-3l-2.8-.8c1.2-.7 2 .2 3 .2 1-1 1.3-1.1 2-1.3l.3.2zm-2.2 2.4.4 1.9c.9-.9.8-1.1-.4-2z"/>
        <path class="st4" d="M330.7 37.5c-.5.7-.7 1.4 0 2.1l.3-1.3c2.2-1 4.9 1.7 2.5 2.8-2 1-5.2-2.2-3-3.7l.2.1zm.8 3c.8.5 2.3.2 2.4-.4 0-1.8-3.6-2.4-2.4.3z"/>
        <path d="M244.8 212.8c.6 4.9 4 7 4 .6l-1-.4c4.7-1.5-1.3 12.2-3.5 0l.5-.2zM352.3 266c-1.4 2.6.2 6 2.8 3 0-.9-1-1.3-.7-2.4.6.8 1 1.4 1.3 2.2-2.6 5-6.9-.9-3.4-2.8zM140.1 236.3l-1.6.2c1-1 2-.7 3-1.7.6-.6 1-.4 1.6.6-.7 0-1.5-.6-1.8.4 2.6 3.2-.8 5-1.2.5zm.7.1c0 1 0 1.6.7 2 .4-.8 0-1.3-.7-2zM315 22.9l-.6-1h.3c1 1 2 .1 3 .3l.2.2-1.7.6c2 5.3-5.7 3.4-1.2-.1zm.4.2c-.8.8-2 1.9-.8 2.7 1.5.5 1.6-1.6.8-2.7zM139.2 246.7c-1 6.8 6.9 2.8 1.9.5 2.4-1.6 2.9 4 .4 4-2 .7-4.2-4.2-2.3-4.5zM288.5 33.1c1.3.6 1.3 1 .2 2.6.6 1.5.6 1.5 2 1.3-1 .8-1.4 1-2.6-1-2.6 0-2.7-2.5-1.3-3.3-.8 2-.5 2.6 1.3 2.6 0-.8.1-1.4.4-2.2z"/>
        <path class="st4" d="M164 318.5c-3-3.2 35-6.4 35.7-2.8.2 1.6-2.3 1.4-1.3-.3l.5 1c.8-3.3-36.5-1.4-34.8 2.1z"/>
        <path d="M207.2 175.6c-1.2-1-.8-2.2-.5-3.3l-1-.7c1.8.4 3-3.2 4.3-1.3-1 .1-2 .3-2.4 1.3 1.4 1.8 1.2 3-.4 4zm.1-.7c1-1 1-1.8 0-2.4-.3.8-.8 1.6 0 2.4zM159.7 225.1l-.2 1c5 .8-.2 6.3-1.1.9-.6.3-1 .6-1.7.7.9-1 2.2-1.4 2.9-2.6h.1zm-.5 1.8c-.6 2.2 1.8 2.6 2 .8 0-.7-.6-1-2-.8zM297.9 221c3.1-.8 5.9 4.5 2.8 5.7-1.5.1-2.8-1-2.4-2.5h.3c1.7 5.3 6-1-.7-3.2zM332.5 284.8c-.8.4-1.5.6-2 1.4l1.2 1c-.2 2-2.3 1.7-2.1-.3-.9.1-.9.1-1.8.9 0-1.6 2-1.3 2.6-2.4.5-.8 1.2-1 2.1-.6zm-2 3.4c.6-.9.6-.9-.3-1l.3 1zM306.2 30.8c4.4 4.5-4 4.9-.9-.4 1.3 0 2.7-1.5 3.9-.7l-3 1zm.6 2.9c.4-1.2.3-1.5-.9-2.3-1.6 1.1-.6 2.7.9 2.3zM294 185.1l1 .8c1.1-.7 2.6-2 3.8-.6-1.4 0-2.6 0-3.3 1.2.5 1.2 1 3-1 2.7-.7-1 .2-2 0-3.2l-1 1 .5-1.9zm1 2.4c-.1.4-.5.9 0 1.3.5-.5.5-1 0-1.3zM147.4 316c-1.2.4-1.5 1-.8 2.3-3-1.8 1.3-3.8 3-3.2 2.7 1.7-2.7 4.7-2.2.8zm.6-.3c-.5 1 .4 2 1.3 1.2.8-1-.3-1.7-1.3-1.2zM297.9 295c1.6.2 2-1.6 3.6-1v.8c-.8-.5-1.5-.3-2 .5 2 2-1 5.5-1.3 1.7 0-.6.6-1.4-.3-2zm1.2 3.2c.7-1 .7-1.3-.2-2-.2.6-.4 1.3.2 2zM150.4 139.4c-1 0-1 0-1.4.7 5.5.5-.2 6.3-.8.8l-1 .2c.3-.9 1-.6 1.4-1.6.3-.9.8-.9 1.8 0zm-1.8 1.4c0 1.5 1.9 2.9 2.3 1-.1-1.2-1.3-.9-2.3-1zM322.1 114.9c-2.4 6.4 5.8 5.4 2.2.4.6-.2.7-.2 1 .1 2.6 6.7-7 5.4-3.3-.8l.1.3zM315.8 105.5l-1.8 1c3.2 1.2 1.2 6.1-1.3 3.2-1.1-2.3.9-3.9 2.9-4.5l.2.3zm-3 2.1c-.2 1.4 1 3.6 2.3 1.9.7-1.3-.9-2.8-2.2-1.9zM326.4 245c2.5 1.2 1.9 4-.5 4.7-1.9-.6-.3-3.6.5-4.6zm-.7 4c1.5.1 2.7-2.7.6-2.6-.5.8-.7 1.7-.6 2.6zM362.1 92.3c1.5-1.7 4.4.1 2.4 1.9-2.2 1.7-4.3-3.3-1.7-4-.5.6-.7 1.3-.7 2.1zm2.7.6-1.2-1c0 1-.4 1.3-1.2 1 .9 1.5 1.5 1.4 2.4 0zM349.8 303.4c-.8 2 .5 3.3 2.3 2l-1-1c.3-1.5 2.3-1.2 2 .4-1 3-5.6 1.7-3.6-1.5h.3zM332.2 78.3c1.5-4.6 4.6.2 1 1.5.1.4.3.7.6 1.1-1.4-.3-3.2-3.4-2.2-4.7.1.7 0 1.5.6 2zm1.7-1.5c-.8.4-1.3 1.5-.7 2.2 1.1.2 1.5-1.3.7-2.2zM162 77.9c-3.5 1.8.9 6.8 1.9 3.3.3-1.8-1.5-1.9-2.9-1.8 2.3-2.1 4.8 2 2.4 3.4-3 .7-4.7-4.1-1.4-5zM150.6 147.3l1.1.7 1.8-1 .2.3-1.4 1.2c3.8 4.7-3 4.7-1.1 0l-.7-1 .1-.2zm2.2 4.2c.4-1.1 0-1.8-1.2-2.5-.6 1.3-.2 2.2 1.2 2.5zM320.5 286.7c.9-1 4-3.4 4.4-1-1.3-.6-2.3-.2-3.2.8 2.7 2.3-2.4 4.4-1.2.2zm.8.4c-.5.4-.6 1-.2 1.5 1-.6 1.1-.7.2-1.5zM336.1 66.2c-1.7-.8-.3-2.5-.2-4l.4 1c5.3-2 2.9 4.8-.3 1.6-.7.5.4.9.1 1.4zm.3-2.2c.8 2 2.3 1.4 2.5-.4-1-.5-1.7 0-2.5.4zM314.2 56.9l1.2 1.1c-2 .7-1.8-3-2-4.2l.2-.1.4.7c2-3 3 2 .2 2.5zm1-2.9c-.6.6-1 1.2-.7 2 1-.3 1.1-.7.6-2zM337.9 99.5l.9-.2c4.2 3.5-2.8 5.1-1 .2zm1.5 1.8-.7-.5c-.5.4 0 1 .7.5zM366 142.3v1.2c.8-.5 1.2-1.5 2.3-1.4.3 1.8.3 4-2.1 3l-1.1 2.6c-.5-1.8 1-2.5.6-4.1-.2-.4 0-1 0-1.3h.3zm.5 1.9.1.3c1.4.5 1.7-.6 1.1-1.8l-1.2 1.5zM146.5 147.7l-2.2 1.2c.7 1 1.3 2 .8 3.3-2.4-1-.8-3.5-3.6-4 .9-.4 1.5.1 2.2.3.8-.3 1.5-1.3 2.8-.8zm-2 3.5c0-1 0-1-.8-1.5l.7 1.5zM360.6 85c0 2.2-.1 2.6-1.4 2.6-.2-1-.1-1.4.6-2.7-.3-.8-.9-1.2-1.8-1.4 1-.3 1-.3 2.3.8 1-.4 2-.8 3-.8-.7 1-2 .6-2.7 1.5zm-1 2h.2l.2-.9h-.2l-.2.9zM364 182c-2-2.5.8-5.4 2.8-6.8 0 .7-.6 1.2-1 1.7-1.2 1.5.1 4-1.8 5zm.1-.7c.7-1 1.1-1.9.5-3-.7.9-1 1.8-.5 3z"/>
        <path class="st4" d="M200.1 131.1c-.2-3.5 3.4-1.5 4.1.3.4 3.5-4.3 3-4-.3zm.7-1.3c-.6 1.5.3 4.3 2.2 3.3 1.9-1.3-.4-3.7-2.2-3.3z"/>
        <path d="M341.8 328.8c0 1.2.2 4.7 2 2.7.5-.5 1-1 .6-1.8l-.6.3c-.5-.3-.5-.8-.3-1.3 2.6.2 1.6 3.2 0 4-2.2.6-2.8-2.6-1.7-4z"/>
        <path class="st4" d="M330 70.7c.3-4.4 5.7-1 3.3 1.8-1.2 1.3-3.3 0-3.2-1.8zm2 1.8c1.9 0 1.7-2.7.3-3.3-1.6-.6-2.5 3.3-.3 3.3z"/>
        <path d="m139.7 75.4-.7-.5.3-.3c1.3.2 1.8-1.8 3.2-.9-.7.3-1.7.3-2 1.4.6 1 1.3 1.7 1.5 2.9-2.3 1.3-3.6-.4-2.3-2.6zm1.9 2.4c-.5-.9-.7-1.6-1.5-2.1-1 1.6-.6 2.7 1.5 2zM217 212.4l-1.8-1.1c1.2-.4 1.6.6 2.4.7l1.6-.5.1.2-1.2 1c.6 1 1.3 1.9.8 3.1-1.4 0-2.3-1.6-2-3.4zm1.4 2.8c0-1.1-.1-1.4-1-1.9-.2 1 .4 1.4 1 2zM307.6 74.4l.9.8-.1.2-1-.1-1 1.5c3.5 1.6 1.3 4.3-1.5 2 .2-1.8 1.7-2.8 2.7-4.4zm.1 4.5c-.3-1.2-1-1.7-1.8-1.2-.6 1 .7 1.7 1.8 1.2zM359 74.5l-.5 2.4c4.5-.5 3.2 4 .8 2.8-1.5-1-1.8-4.4-.2-5.2zm-.1 3c-.3 1 .7 2.3 1.5 1.8 1.3-1.2-.3-2-1.5-1.7zM348 248c0 3.7-7.8 2.7-3.2-2.8.8-1 1.7.7.5.5-3 2.6-.1 5.8 2.6 2.3zM155.2 140.3c3.8-.9 4.6 3 1.4 3.8-1.8-.4-1.4-2.3-1.4-3.8zm.3 1.2c.3 5 5-1 .7-.7l.2 1.1-.9-.4zM153.9 322.5c1.9-.4 4.6.7 2.3 2.6-1.6.8-4.2-.6-2.3-2.6zm.2 2c3.4.7 2.5-2.5 0-1.1l.6.7-.6.5zM276 27.2l-1.3-.7c.6-.5 1 .1 1.2 0 .7 0 .9-1.4 1.8-.4l-.9.5c4.7 3.6-2.2 6.8-.7.6zm.7.3c-.6 1-.8 2.7.5 2.6 1.5-.3.8-2.5-.5-2.6zM156.4 315.5l1.5 1.5c.5-2.4-1.5-2-3-1.8-.9.2-.7 1.2-1 1.9-1.5-3.8 5.7-3.6 4.7-.1-.4 1.5-2.5-.4-2.2-1.5z"/>
        <path class="st4" d="m220 164.2-.7-.4c.7-.5 1.6 0 2.3 0 3.4 4.5-3.3 6.2-1.6.4zm1.2.3c-1.5.7-1.3 3 .1 2.9 1.5-.4.5-2-.1-2.9z"/>
        <path d="m201 33-.7-.8a9 9 0 0 0 5.3-.3v.3c-1 .4-2.3.8-3.4 1 2.1 5-4.2 3-1.2-.2zm.6.6c-1.7.6-1.2 2.2.5 2.1.3-.8 0-1.5-.5-2.1zM211 323c-.1 6-6.6-2.1-1-1.3.9 0 1 .3 1 1.3zm-2.4-.8c.2 2.8 2.1 2.9 2 0h-2zM316.3 157.9c-1.2 3.1 1.5 7 3.8 3 .4-1-1.2-2-.3-2.8 2 2.3-.4 6.2-3.2 4.7-.9-.9-1.7-4.3-.3-5zM364.6 25.1c-.5-1.3-.4-1.7.8-3.4l-1.4-1c.5.1.8 0 1 .2 1 .8 2 0 3.3-.1v.3l-1.9.8c0 1.4-.3 2.7-1.8 3.2zm1.2-2.8c-.8.6-1.1 1.2-1 2.2.8-.6 1.2-1.2 1-2.2zM161.7 321.7c-1 .1-1 .1-1.3.8-1.9-1.8 3.6-2.3 1.7 2.2-1.4 2-3.8-.9-3.6-2.9 1.2 3 3.8 4.4 3.2 0zM139.4 132.2c0 .6.2.8-.4 1-4.4 2.2 4.4 6 .8-1.3 1.4 1 1.9 3.7.4 4.7-3 .6-4.3-3-.8-4.4zM345 266c-2 3.2 1.5 5.7 3 1.8.8 5-7.2 2.2-3.3-2l.3.1zM197.6 224.2c-.6 2.6 1.8 5.8 3.2 2-.6-.9-1.6-.7-2.6-1 3-1.1 4.3 2 1.5 3.2-2.1 1-3.5-3.1-2-4.2zM354.6 294.4l-1.5 2c1.4-.6 3 .4 2 1.8-2.9 2.3-3.3-4.2-.5-3.8zm-1.3 3c.8.9 1.6.7 1.5-.2-.5-.6-1.1-.4-1.5.2zM152 194.6h-1.4c.3-.8 1-.4 1.7-.7.4-.3.4-1.1 1.3-1.2l-.5 1.2c3.3 2.1-2 5.9-1.1.7zm.8 2.2c1.2-.8 1.2-2.3-.1-2 0 .6-.4 1.2.1 2zM366 151.1l2-2.2.2.1v.6c-2.2 1.3-.6 3-.4 4.8-1.4 2.3-2-2.2-1.8-3.3zm.6 1.3c0 .8 0 1.4.5 2 .3-.8 0-1.3-.5-2zM316 166.6c1.8 0 4.4 2.7 2 3.9-3.1 1.4-3.9-2.2-2-4zm1 3.7c3.7-1-1.9-5.1-1.6-1.2.2.8.6 1.2 1.7 1.2z"/>
        <path class="st4" d="M225.6 267.3c4-.9.6-6.5-3.4-4 .8-1.7 2.5-1.2 3.9-.8 2.5.4 2 7.1-.5 4.8z"/>
        <path d="M314.3 176.3c-2.6 3 3.3 6 4.3 1.7 1.3 1.6-2.5 3.7-4 2.4-1.4-.4-2.5-5.3-.4-4.1zM363.4 158.6c1.9 1.6 3.4 6.5 0 6.4-.8-1.6.2-2.3 1.4-3-.3-1.4-1.6-2-1.4-3.4zm.4 6c.8-.6.9-.6.8-1.6-1 .5-1 .5-.8 1.6zM200.5 254.3l-2.3 1c.7-1.2 1.6-1.3 2.5-1.5.3-.7.1-2 1-2l-.3 2c3.2 1.2 0 4.6-.9.5zm1.2 1.4.4-.1c.1-.5.2-.9-.7-1l.3 1zM334.7 297.7c4.6 2.3 2.9-5.2-.4-1.9-.4-2.2 3.6-1.5 3.9.1.6 2.3-2.6 4.2-3.5 1.8zM313.6 296.2c-2.7 4 5.2 1.2-1.2-1.6 2.6-1.5 4.8 4.8 1 4.1-1.3-.2-1.6-2.8.2-2.5zM307.6 60.4c-1 .7-2.2 1-2.3 2.3.8.3 2.2.5 2 1.6-.3.7-.8 2-1.7 1.1-.8-.8-.6-2.3-2-2.6 1.9-.2 1.9-2.9 4-2.4zm-2.4 3c.2.8.3 1.6 1.1 1.8.8-1.2.6-1.6-1-1.8z"/>
        <path class="st4" d="M341.6 207.8c4.4 0-.7 5.7-2.8 2.8-.8-1-2.5-2.9-.3-3.8-1.6 2 1.3 5.1 3.2 3.7 1-.7 1.5-2.4 0-2.7zM311.8 132c-4.2 1.5-1.3 3.5-3.9 4.7-.7-1 0-1.8.3-2.8l-.7-.7.1-.3 1 .4c1-.5 1.6-1.7 3.2-1.3zm-3 2.6c-.8.7-.8.7-.5 1.6l.6-1.6z"/>
        <path d="M328.7 151.3c2.5 2.8-2.3 4.1-3.6 2.1-.7-.9-1.3-4.3.4-3.9-.6.7-.5 1.5-.5 2.4-.2 2 4 3 3.7.5 0-.3-.6-.7 0-1zM325 275.8c-4 .9 1.2 4.5 3.3 3 .4-.2.8-.6 1.3-.3-1.2 1.8-4.3 1.5-5.8 0-1.3-.9-1-4 1.2-2.7zM338.5 302.2c1.2-.4 2 .6 2.2 1.6-.1 1.4-2.2 1.6-3.3 1.3-1.8 0-1.7-3.6 0-3.2-3.6 3.8 6.1 3.2 1.1.3zM306.6 69l-1-.4c.8-.3.8-.3 1.4-.1 1.6-1.2 1.8-1.2 2.6-.2-.8-.2-1.6-.3-2 .7 2.6 3.7-3.4 5-1 0zm.5.6c-.9 1.3-.8 1.9.2 2.2.6-1.3.6-1.4-.2-2.2zM155.3 329c-.4 6.5 7.2-1.5.4 1.3.2-1.6 3.2-1.8 3.3 0-.3 3.3-6.3 1.5-3.7-1.4zM214.8 191.7c.7-.2 1.1.4 1.7.8l.8-.7c.4.1.2.7-.5 1.4 1 2-.6 5.7-1.5 1.8.3-2.2 1.3-1.5-.5-3.3zm1.5 2.3c-.7 1.3-.7 1.4 0 2.1.5-.7.4-1.3 0-2.2zM365.4 41.3l-.7-1 .1-.1 1.2.5 2.2-1.1c-.3 1-1.1 1-1.6 1.6 2.5 2.8-3.5 4-1.3.1zm.8.3-.4.1c-.3.5-.6 1 0 1.7.9-.5 1-.9.4-1.8zM210.4 189.7c-4.2 3.6.2 5-2.1 6-1.6-.3-.3-2.7-1.7-3.7l.2-.1.9.6c.7-1.2 1.4-2.3 2.7-2.8zM208 195h.5l-.3-1.1h-.3l.1 1.1zM232.5 29.3c-1.2.4-1.2.4-1.7 1.7 5 3.2-1.4 6.5-1 .1.9-.9 1-2.5 2.7-1.8zm-2 2.3c-.3 1-.2 3 1.2 2.7 1.1-.8.5-2.2-1.2-2.7zM152.4 224l-2 .9c3.7 2.3-1.7 5.5-1.2.5l-.6-.4c1.4 0 2.3-1.5 3.8-1zm-2.6 1.5c0 .8-.2 1.7.7 2 1.3-.2.6-2-.7-2zM317.6 239.9c-.4-.1-.5-.3-.4-.7 1.1-3.9-3-4.7-5.8-6 3 0 8.1 2.8 6.2 6.7zM213.6 314.7c1.2-.2 1.7-1.7 3.3-1.3l-1.7 1.2c2.6.7.8 4.5-.8 1.8-.1-.6 0-1.3-.8-1.7zm2 2.3c.5-1.4.3-1.7-.9-1.7l.8 1.7zM313.3 99.5l-.6-.1c.3-.9 1.7-.5 2.3-1.2l.9.2-1.6.8c3 4-2.8 5.7-1 .3zm.4.3c0 1-.7 2 .3 2.6 1.2-.2.8-2-.3-2.6z"/>
        <path class="st4" d="m215 129.8-.1-.4c2-.3 4.9 3.1 2 4.4-3 .8-3-2-1.9-4zm.9.4c-1.8.8-1.5 3.9.6 3 2-1 1-2.2-.6-3z"/>
        <path d="m304.8 152.2-1-1c.9-.2 1.1.5 1.7.7l1-.7-.7 3.8c-.3 1-2 .6-1.9-.4l.9-2.4zm.5.7c-.6.5-1.4 1.5-.5 2 .8 0 1.1-1.3.5-2zM227.3 44.3l1.3-2.2c.6 1-1 1.3-.3 2.3 2.5 1.3-.1 4.3-1 .6-1-.3-1.8.5-2.9 1 .8-1.3 1.9-1.5 2.9-1.7zm1.1 2c.4-.6.4-1-.5-1.3l.5 1.3zM224.7 57.8l3-1.1.1.3-1.6 1c.3 5.1-4.6 4.1-1.5-.2zm-.4 3.2c1.2-.3 1.6-1.2 1.1-2.6-1.2.7-1.4 1.1-1 2.6zM142.4 102.2l.2 3.8c-2.3 4.6-5.2-1-.2-3.8zm-.6 1.3c-1.1.6-3 3.7-.8 3.6 1.8-.3 1.2-2.3.8-3.6zM337.7 117c1.2-3.2 4.7 1.2 1.6 2.7-2.5.6-4-2.9-2.2-4.6-1 1.7.2 5.3 2.4 3.9 1.4-1.4 0-3.3-1.8-2zM301.1 321.2l-.4-1c-1.9 1.4-1.6 4.3.7 2.5.2-.5.2-1 .6-1.6.8 1.6-.7 3.4-2.3 2.6-3-1 2.6-6.8 1.4-2.5zM222.6 188.5c-.8 1.8-1.1 3.6-.1 5.3.4 1 2 .2 1.2-.7-.4-.7-.4-.7-.4-1.6 2 1.5 1.2 4.5-1.2 2.8-1-1.4-1.2-4.7.3-6l.2.2z"/>
        <path class="st4" d="M148.7 213.9c3.4 4.2-4.5 6.5-3.4-.6.8 1.1.5 4.6 2.4 4.1 1-.3 1.6-1.4 1.2-2.3-.1-.4-.6-.7-.2-1.2z"/>
        <path d="M350 285c.4.3.4.6.1.8-1.9 2.4-.6 4.7 1.9 2l-.6-1.4c2.4.5.1 3.2-1.3 3.3-2.5.2-1.5-3.6-.2-4.6zM318.9 99.3c-1.3 2 1 4.4 2.6 2.8.7-1.4-.5-3.3-2.2-2.8.1-.5.3-.8.8-.7 1.9.4 2.7 2.7 1.5 4.1-1.9 1.3-5.4-1.5-2.7-3.4zM154.7 67l-2-.3c.8-.7 1.5-.3 2-.3l1.3-1h.2l-.8 1c5.2 2.8-1.2 6.3-.7.5zm.8 0-.3.3c-.5 4 4 2 .3-.2zM228.3 183.8c-1.3 5.5 4.2 1-1.3-3 2.3.3 4.2 4.1 2.2 6-1.8 1.1-2.3-2-.9-3zM309.4 167.8l-1.7.9c3.2 5-3.3 5-1.1-.4 1 .5 1.5-1 2.8-.5zm-1.8 4.2c.7-1.2.6-1.7-.5-2.6-.9 1.5-.8 1.8.5 2.6zM320.5 84c-1.7 1-.2 4.3 1.5 2.9 1.1-1.5 1.2-2.6-.7-3.3 3.6-.8 2 5-.8 4-1.4-.5-1.8-3.3 0-3.6zM215.7 180.6c3-1 2.4 1.7 1.8 3.6-.3 2.2-3 1.8-3.6 0l.8-1.2h.2c-.2 1-.5 1.7.6 2 2 .7 1.7-2.6 2.1-3.9l-1.9-.2v-.3zM367.2 84.3l-2-1c.8-.6 1.4.1 2.2.5.6-.4 1.2-1 2-1 0 .6-.5.6-.8.8-1.4.7.4 2.8-1.7 3.5-.2-.9-.1-1.7.3-2.8zM358.3 47.5c-.3.3-.4 1-1 1 .5-1.4.1-2.7.1-4l.3-.1.4 1.4c2.6-2 3.2 1.7.2 1.7zm.5-.7 1-.5c-.3-.8-1.2-.4-1 .5zM347.8 93.4v1.3c3.7 1.2 2.2-4.3-1-3.2 1.1-1.8 5 1 3.4 3-1 2.2-4.5.9-2.4-1.1z"/>
        <path class="st4" d="M209.2 205.9c-1.2-4.9 5.4-6.7 6-1.3-1.5-.7-.7-2.8-2.8-2.7-2.6-.2-2.4 2.2-3.3 4z"/>
        <path d="M308.1 272.8c-3 3 1.2 5 3.9 3.4-2.3 4.2-8.5-2.3-3.9-3.4zM356.8 199.5c3 4 6.4-3.2 1.4-3.8 6.9-.7.6 9.8-1.4 3.8z"/>
        <path class="st4" d="M347.8 39c.2 4.2 5.4 2 2.5 0-.5-.2-1-.2-1.3.7l-.4-1.2c2.9-1.2 4.5 3 1.4 3.5-1.3.2-3.3-2-2.2-3z"/>
        <path d="M208.1 281c4-3.7 6.6 4.2 2 3.4l-.2-1.2h.3c.2.2.2.5.3.7 1 0 1.1-.1 1.3-1.2.6-2.3-2.2-2.2-3.7-1.8zM351.8 60.3h1.3c1-.9 1-.9 1.6-.7l-1 1c2.4 2.5-2.2 5.3-1.1 1.1 0-.3.3-.6-.2-.9l-1 1 .4-1.5zm1.4 1.1c-.4.7-.6 1.3-.2 2 1-.4 1-.9.3-2zM328.9 62.6c-1-.6-1.6-.1-2.1.7.2-2.2 2-.9 3.2-1.7.3-.1.7 0 1 .1l-1.2.6c3 3.2-3 4.9-1 .3zm.4.3c-.2.7-.7 1.7.1 2 1.1-.2 1.1-1.4-.1-2zM152.5 109.1l.1.6c6.9.8-.3 6.6-.6.7h-1.6l2.1-1.3zm.1 1.2c-.7 2 1.7 3.2 2.5 1.3 0-1.2-1.6-1-2.5-1.3z"/>
        <path class="st4" d="M162.4 140.8c-.4-3.6 37.4-1.4 35.4 1-1.4 1.6-35.7 1-35.4-1zm.9-1.6c-1.5 1.8 31.8 3.8 33.7 2.5 2-1.6-32.5-1.9-33.7-2.4z"/>
        <path d="m202.8 66-1.8-1.4c.4 1.9-1 4-2.9 3-1.6-2.4 4.1-5.3 4.7-1.6zm-4.6 1c1.7.9 3-.5 2-2-1.3.1-1.9.9-2 2z"/>
        <path class="st4" d="M339.8 37.5c-1.4 1.5.5 3 2 3 .8-1-.3-3-1.6-1.5-.2-2.9 3.5.1 2.2 1.8-1.4 1.7-5.6-2.5-2.6-3.3z"/>
        <path d="M348.6 319.5c1.7.3 2.7 2.5 1.4 4-2.1 1-2.2-2.6-1.4-4zm.5 1c-.8 1.2-.7 1.9.4 2.5.8-1.4.7-1.6-.4-2.4zM143.2 117c-.2-2.2 3.2-1.6 4.1-.5 1.1 1 0 2.9-1.3 2.3-1-.6-1.6-1.3-2.8-1.9zm.8-.7c.6 1 2 2.8 3.1 1.8.8-1.6-1.8-2.5-3.1-1.8zM209.6 39.6l-.4-.8.1-.1 1 .7 3.2-1c-.6 1.2-1.8.9-2.7 1.4l.3 1.8c-2 1.4-3.4-.3-1.5-2zm.6.4c-1.3.3-1.3 2 0 1.6.7-.4 0-1 0-1.6zM338.5 329.2c2.4 4-6.9 4.5-3.2-1.3l.3.1c-2 3.9 2.7 5.2 3 1.2zM345.4 184.8c3.3 4.9-7.7 5-3.8-.1-2.2 4.6 5.6 4.4 3.5.1h.3zM231.4 224.7c.9 1.5 2.5 4 3.6 1.2-.4-1-1.2-1.7-2-2.4 3 0 3.2 5 .1 4.1-.9-.6-2.3-1.7-1.7-3zM370.7 67.6l-1 1.5.6.6c.8-.3 1.7-2 2.6-.8.7 1.5-1.6 1.7-2.5 2.1-1.2-1.2-1.5-2.4 0-3.6l.3.2zm.5 2.2c1 .3 1 .2 1.1-.7-.6-.1-.8.3-1.1.7zM347.4 33c-1.1 6.6-7.2-4.1-3-4-2.6 1.5 1.2 8.3 2.9 4h.1zM298.4 194.6c-1.2 5.6 2 6 5.6 2.6-.5 2-2.8 2.6-4.6 2.7-2.1-.3-2.3-4-1-5.3zM131.4 255.6l-1-.5c2-.5 3-2.2 4.8-1.3l-2.7.8c3.2 1.8-1.4 4.5-1.1 1zm.7-.2c-.2.6-.4 1 .3 1.2 1 0 .8-1.3-.3-1.2zM292.9 268.7c-2.2-8.5 6.2-5.2 2.8-1.5-.3-1 .9-2.2-.3-2.8-3-2-2.2 2.5-2.5 4.3zM300.2 173.3c.2-2.6 2.4-2.9 0-5.6 1.5.1 1.1 1.8 2.1 2-.7 3.4-.8 3.4-2.1 3.6zM223.5 156c1 5-2.8 5.6-1.4.2 1-.4 1.9-1.6 3.1-1.1l-1.7 1zm-1 3.5c1-.8 1-1.4.4-2.4-.8 1.2-.8 1.4-.4 2.4zM344 160.2c2.2 4.3-4.7 5.1-5 1-.1-.8 0-.9.7-1.2-1 4 5.3 5 3.9.3h.3zM322.9 61.2c-1 .2-1.8.2-2.5.9.2 1 1 2.4-.2 2.9-.5 0-.9-.4-.9-1 0-1.2 1-2.9-1-2.2l.7-1 1 .6c1-.1 1.9-1 2.9-.2zm-2.7 1.5c-.6 1.2-.6 1.2.1 1.7l-.1-1.7zM240.3 235.6c.5-.6 1-1.2 1.9-1.4l.3.4-1.2.7c4.6 2.8-.8 5.5-1 .3zm2 2.5c.2-1.4-.1-2-1.3-2 0 1.3.3 1.7 1.4 2zM144.5 131.1c-.5-.4-1.3-.7-1.7-1.5 2.5.3 3.8 4.6 1.3 4.7-1.5-.7-1.7-3.3.4-3.2 0 .4-.2.7-.7.8-.7.4-.3 1.7.6 1.8.6-.9.4-1.7.1-2.6zM347.7 160.9c-.3 2.6 5.6 3.2 4.2.3-.3-.6-.6-.8-.3-1.6 4.1 5.1-4.8 5.5-4.2 1.2h.3zM217.1 308.6l.2-2c-.7.2-1.2.3-1.3-.5 2-1 2.5 2.3 1 3-1.8.5-3.5-4-1.8-4.7-.3 2 .3 3.7 2 4.2zM309.7 257.8c-.5 1.4-1.8.7-2.9 1-2.3 0-3.5-4.3-1.3-5-1.8 3.4 1.1 5 4.2 4zM151 65.3l-.7.8c2.7.6 1.7 3.3-.7 3.2-2.8-.4-.3-4 1.4-4zm-.8 3.6c2-.7 1.5-2.6-.5-1.8-1.5-.2-1.1 2 .5 1.8zM211.3 243.1c2.6-.4 4.3 3.2 1.9 4.3-1.2.5-4.3-1.2-3.2-2.6 2 4.8 6.7.4 1.3-1.7z"/>
        <path class="st4" d="M162.5 46.5h-1.8v-.3c1-.1 1.7-.4 2.8-1l-.2.9c4.5 1.8-.4 5.3-.8.4zm33.2 3.3c.2-1.2-31.2 1.1-32.5 1.2.2 1.3 31.5-1.2 32.5-1.2z"/>
        <path d="m221.2 97 .2 1c5-2.3-3-7.2-2.1 1.2-1-1-.3-2.5 0-3.6.4-2.1 3.9-2 4 .1.5 2.7-3.2 3.7-2.1 1.3zM337.2 176.1c-.6 4.5 4.6 4.5 6 1 .1-.3.3-.4.5-.3-.3 4.4-9 4.4-6.5-.7zM284.7 27.3c.8 4.3-4.7 2.6-1.2-.1l-.8-1 .1-.2 1.3.6 1.5-1 .3.3-1.4 1.3h.2zm-.7.4c-1.6 1-1.3 1.4-.2 1.9.4-.7.7-1.3.2-2zM203 52.6c1.7-.2 2.2 2 1 3-4.1 2.2-3-4.4.4-4.2-7.3 5 2.9 5.7-1.3 1.2zM222.6 224c.7 1.7 3.4 5.6 4 1.9l-1.4-1.5c5.8 1.8-2 7-2.6-.4zM361.9 98.1c-3 3.6 2.2 7 2.7 1.7.9 1.6-.6 3.6-2.3 3.2-2.3-.1-2.5-4.5-.4-4.9zM222.7 150.7c-.3-1.3-1-2.5-.6-3.9l.7 2.6c3.7-3.2 4.2 2.3-.2 1.3zm.5-.9c1 .8 2.2.4 2-.7-.7-.5-1.3.3-2 .7zM200.2 80.8l-1.2-.2v-.3l1.5-.3c.3-.5.6-1.1 1.6-1l-1 .9c1 .4 2 .1 2.5 1.3-.7 1.7-3.3 1.4-3.4-.4zm.9-.2-.3.2c.3 1 1.4 1.4 2.1.5-.5-.8-1.2-.5-1.8-.7z"/>
        <path class="st4" d="M347.2 72.2c-2.3.1-2.5-4.5.2-3.3 1.8.7 1.6 3.3-.2 3.3zm.9-1.6c0-1.3-2-1.6-2.2-.3 0 1.3 2.2 2.1 2.2.3z"/>
        <path d="M161.7 147.6 159 149c4 3.8-1.6 5.4-.8-.2 1-.3 1.9-1.4 3.4-1zm-2.1 4.3c.8-.9.6-1.5-.7-2.2-.4 1.1-.3 1.5.7 2.2z"/>
        <path class="st4" d="M164.1 53c1.8 3.4-2.7 4-2 1.2.2-.8 1.3-1.1.7-2.1 1 .7 33.3-.7 34.4-.8-.4.9-32.6 1.2-33 1.7zm-.4.3c-1.2.4-1.9 2-.6 2.3 1.4 0 .8-1.4.6-2.3z"/>
        <path d="m337.8 21.3 1 .8 1.4-.4.1.2c-2.3.8-1 4.8-4.2 2.2.2-1 1.2-1 1.9-1.5l-.3-1.1.1-.2zm-1 2.5v.3c1.1.4 1.3.4 1.6-1l-1.5.7zM133.4 229.8c-1-.3-1.4-1.3-2-2h-1.2l.2-.5c1.6-.1.3-2.4 2.1-2.3-2 2 1.6 2.8 1 4.8zM308.4 24c.8-.3 1-1.4 2.2-1l-1.7 1.4c1.4 1.3.2 3.3-1.4 1.9l.5-1.7-.9-.9.2-.2 1 .5zm.4 1.3h-.4c0 .4-.4.8.3 1v-1zM198.6 148c1 .4 2-.4 3 .3l-2.1.3c2.7 7-4.6 3.8-.9-.6zm.2 1c-1.5.7-.9 2.9.4 3.4.7-1 .6-2.2-.4-3.4zM371 29c-.3 3.6 4.9 5.5 2.4.7 1.2-.6 1.6 2.1 1.1 2.9-1.9 2.2-4.2-1.6-3.8-3.6h.3zM150.5 155.2c6.8 1.6-1.6 7-2.4.7l.3-.1c.8 4.6 7.4 1.7 2-.4l.1-.2zM325.8 75.3c2.6-1 3.7 3.6 1.3 4.2-1.7.5-3-2.7-1.5-3.4-.7 6.4 5.6.7.2-.8zM143.2 67.5l-1.4-.2c0-.6.4-.5.7-.5 1.3.5 1.4-1.5 2.7-.9l-.8.7.2 2.7c0 .6-.3.9-.9.9-1.4-.1-.6-1.8-.5-2.8zm.8 2.2c.2-.7.3-1.3 0-2-.9 1-.9 1.5 0 2zM149.7 242.9c-2.5.8.8 2.5-.1 4-1.2 1.5-1.5-1.1-1.7-2l-.6-.2c.2-.6 1.1-.6 1.2-1.5.1-.7 1-1.5 1.2-.3zm-1 3.8.5-.1-.4-1.4h-.3l.3 1.5zM208.4 45.2l2.8-.3v.2l-1.7.6c1.4 4.3-3.6 3.7-1.1-.5zm.7 1h-.4c-2 2.2 1.5 2.9.4 0zM135.8 328.7c4-3.6 5.1 3.5 1.4 1.2-.3-.6-.6-1-1.3-1v-.2zm1.4 0c.4 1 1.5 1.6 1.7.4-.5-.6-.8-.4-1.7-.4zM155.6 244.6l-1.8-.2v-.3l2.4-.3c1.3 1.2 2.5 3 .1 3.8-1-.8-.4-2-.7-3zm.7.3c0 .7-.4 1.4.3 2 .8-1 .8-1-.3-2zM343.8 303.5c-1.2 4.3 4.4 1.5 1.3.1l-.4 1c-1.1-1.3.8-2.1 1.6-1 2 3.4-5.6 3.8-2.5-.1zM212.8 97.3c2.7 3.3 6.4-3.2-.6-2.5.9-.9 2.5 0 3.6 0 1.3.6.9 2.6 0 3.4-1 .6-3.2.9-3-1zM345.1 75.5c1.2 0 2.3-1.2 4-.4l-2.7.6c2 4.1-2 4.4-1.3-.2zm1.2 3c.2-.9.3-1.5-.3-2-.6 1.2-.6 1.2.3 2zM361.6 66.3c.3 1.5-.8.9-1.7 1.5 4.2 5.8-6 1.7 1.7-1.5zm-2 2c-.5 1.5-.4 1.7 1 1.7l-1-1.7zM225.6 202.6c7.8-1.4 2.5 7.4 1.8 3.5 2.2 1 3.4-3.6-1.9-3.2v-.3zM142.4 35.3c1.5-.5 1.4-2.4 3.2-2l-1.7 1.3c5.1 1.8-.5 5.4-.6 1l-.9-.3zm1.5 0c-.4 1.6.6 2.2 1.5 1.6.3-.9-.6-1.6-1.5-1.5zM338.4 243c-.5 2.9-.2 6.2 3.4 6.2l-.1.7c-3.6-.6-5-2.7-3.3-6.8zM234 255.1c.5.1.7.3 1 .5-1.4 5-7-.9-2.8-3.4-3.2 3.3 2.3 7.3 1.8 3zM160.3 167.9c0-1.2-1.2-1-1.8-1.5 2-.8 3.5 1.9 1.4 2.5-2.7.5-3.7-3.3-2.5-5.3-.4 1.8.4 6.4 3 4.3zM351.2 246c1-.4 1.8.7 1.6 1.6-1.7 3.3-4.5 0-2.9-2.5h.3c-1 5 3.6 3 1 1zM158.2 34.3l-1.1.5c.9 4.8-4.6 2.8-1-.2l-1.2-1v-.1c1 .1 1.7 1.2 2.7.6h.6v.2zm-1.7.9c-1.1.1-1.7 1.8-.7 2 1.2.1.7-1.2.7-2zM355.5 274.7c2 .1 3.4 4 1.3 5-1 .3-3-.8-1.4-1.9-.3.9.4 1.1 1 1.3 1.7-1 0-3.1-.9-4.4zM157.3 72l-2.5 1.2c2.1 4.5-3.5 3.7-1.2 0l3.5-1.6.2.4zm-3.1 1.7c-1.6 1-.2 3 .6 1.7.2-.7 0-1.2-.6-1.7zM136.8 148.5v1.6c.8-.2 1.4-.3 2-.2l.1.2-1.5.7c.3.9.9 1.6.5 2.6-2.2-.3-1.5-3.5-1.3-5h.2zm.4 3c-.1.8-.1.8.4 1.2l-.4-1.1zM200.4 88.3c-.5.2-.9.6-1.2-.2 1.3-.3.9-1.5 2.2-2l-.7 1.4c5.3.7 1.7 5-.3.8zm.7 0c.6 1.5.8 1.6 2 1-.4-.8-1-1-2-1zM133.8 195.4l-1.2-.3c1-.8 2 .1 2.6-.5 4 2.5-3.2 4.8-1.4.8zm2 .7c-.1-1-2-.5-1.8.4.2 1.2 2 .3 1.9-.4zM355.8 30.1c.8 2.2 1.3 2.6 2.8 2.5v-1.5h.2c1.8 4.4-3.9 1.6-3.7-1.5l2-.2v.2l-1.3.5zM147.2 73.4c.4-.3.7-.8 1.6-.9l-1 1.1c3 2.9-2.3 5-1 .4l-1.3-.3c.4-.5.4-.5 1.7-.3zm.2.9c-.5.6-.6 1.9.4 2 .8-.5.6-1.7-.4-2zM160 73.5l-2-.3c.8-.5 1.6-.2 2.3-.2.9-.4.7-1.9 2-1.5L161 73c.5.7 1.5.8 1.5 1.8-1.4 1.2-2.3.3-2.6-1.4zm2 1-1.1-.7c-.1 1 0 1.1 1.1.7zM323.5 166.9c6.5 3.7-5.3 5.9-.1 1l-.1-.8.2-.2zm-.8 3.2c1.9.5 3.3-1.1 1.2-2-.8.5-1.5.9-1.2 2z"/>
        <path class="st4" d="M319 68.5c3.7.6 1.7 5.4-.2 3.4-.6-1-.8-2.7.3-3.4zm0 .8c-.3 1.7-.1 2.1.9 2.6 1.3-1 .7-2.5-1-2.6z"/>
        <path d="m308 99.2-.6-1 2.2.7c-.6.8 0 2-.6 3-1.3 2-2.5-1.8-1-2.7zm.5.5c-1 1-1 1.5 0 2 .3-.6.4-1.2 0-2z"/>
        <path class="st4" d="M357.8 39.5c-.3 5.4 3.8.5 1.4-.2l-.3.6c-.4 0-.2-1-.2-1 .4 0 1-.2 1.3 0 1.1 1 0 3.7-1.4 3.6-1.2 0-2-2.6-.8-3z"/>
        <path d="M197.6 170.9c-1.3 4.5 6.1 3.7 1.4.5 1.5-.7 3.4 2.4 1.4 3.1-1.9 1-4.4-1.8-2.8-3.6z"/>
        <path class="st4" d="M161.3 64.7c1 .2 33.1-1.2 34.2-.7-.7.2-32.6 1-33.2 1.2 2 5.3-4.6 3-1-.5zm.3.6c-1.5 1.3-1.1 2.6.3 2.6.8-.7 0-1.6-.3-2.6z"/>
        <path d="M354.4 139.8c0 2.6 2 6 3.4 2 0-.7-.4-1 .3-1.7 1.5 5.8-5.4 4.9-3.7-.3zM294.9 26.9l-1.7.2 2.2-1.7c4.7 2.2.5 5.4-.5 1.5zm.7-.4c-.1 1.4.2 1.7 1.4 1.4-.2-1.1-.3-1.2-1.4-1.4zM149.4 34.7c4.4 1 1 5.2-.6 2 0-.7-.3-1.2-1-1.5 1.3-.1 1-1.6 2.4-1.7l-.8 1.2zm-.2.8c-.2 1.3 1 2.6 1.9 1.2.2-.9-1.2-1.4-2-1.2zM326.9 197c.8-1.7 3.5-2.5 4.9-1.6 1 .8 1.6 3.8 0 4.3 1.6-4-2.3-5.6-5-2.6zM232.8 46.4c.8-.9 1.4-1.3 3.2-2l-.2.6c2.1.6.6 2.5-.8 1.4-.9-1.3-1.3.1-2.2 0z"/>
        <path class="st4" d="m163.3 33.7-1.6-.7v-.3c1.2 0 33.3.4 34.6.2l-.5.4c1.5 4.7-34.7 3.8-32.5.4zm.6 3c.6-1.3.6-1.7-.2-2.4-.9 1-.8 1.2.2 2.3z"/>
        <path d="m144.3 40.7-.5-1c.2 0 .3-.2.3-.2.8 1.3 2.2.5 3 1.5h-1.6c-.2 4.2-3.7 3.2-1.2-.3zm-.3 2.6c1-.6 1.2-1 .6-2-.5.6-1 1.2-.6 2zM294.8 246c-.6 4.3 5.3-.8.6-.5 1.2-1.2 3.3.1 2.2 1.6-.9 2.2-5.1 1-2.8-1.2zM371 59c-1.7 2.2-.9 5.9 2.2 3l-1-1c4.3.1-3 5.2-2.5.9.3-1 0-2.9 1.4-3zM151 52.4l-1.1.7c2.2 1.1.5 5.4-1.5 3.1-.7-1.2 1-4.6 2.5-3.8zm-1.6 1.3c-.7.6-1.2 3 .2 2.6 1.3-.3 1.2-2.2-.2-2.6zM361.6 23.3c-.4 2.1-1.6 2-2.5.3l-1.1.8-.2-.1c.3-1 1.4-1.1 1.8-2 .4-.8.8.3 1.3.6.2.2.5.1.7.4zm-1.8.1.7 1.2.5-1.2h-1.2z"/>
        <path class="st4" d="M162.4 242.7c-2 3.2 35.5 6.3 33.8 1.6 1.4 0 1 1.7.4 2.4-2.1 1.9-36.9-3-34.2-4z"/>
        <path d="M302.9 53.5c1.6 0 2-1.5 3.5-2-.6 1.2-1.6 1.7-2.4 2.5 0 .9.5 1.9-.3 2.8-1.4-.8-.3-2.2-.8-3.3zM334.7 84.4c-2 4.5 4.7 5 3.3.4 2.2 1.4-1.3 5.4-3.2 3.2-.9-1.1-1.7-2.3 0-3.6zM285 221.9c.1 4.4 5.7 1.4 1.9-.5 3-.6 2 3.7-.3 3.5-1.2-.3-2.6-1.9-1.6-3zM332 177c5.3 1.4.2 8-1 1.4.5-.3.7-.1.7.3 1.3 4.7 3.7 0 .2-1.7zM142 88.6l-.5.7c2.7 3-2.6 5.9-.7.7l-1.2-.3c.3-.6.8-.4 1.3-.5.3-.2.4-1 1-.6zm-.5 1.4c-.5.8-1 1.6-.6 2.6 1-.6 1.1-1.3.6-2.6zM239 226.7c2.5 3.8 5.5-1.8.7-2.4 1.9-.9 4 1.5 3 3.2-.8 1.5-4.3 1.5-3.7-.8zM214.9 88c-1.4 2 .9 2.7 1.9 1.5 1-1.7-.9-2.7-2.6-2.4-.1-1.7 4 .3 3.3 1.8 0 2.8-5.7 1.3-2.6-.9zM206.8 97.6c.7 5.5 6-1.4.9-2.2 2.4-.8 3 2.1 2.2 3.8-.9 2-4.7.4-3-1.6zM351.3 116.5c-1 1.5.3 1.8 1.3 2.5 2.4 1 1.6-2.8.2-3.6 1.8 0 2 2.6 1.5 3.8-1 1.8-5.7-1.5-3-2.7z"/>
        <path class="st4" d="M299.8 268c-1.1-.2-.3-1.9-.2-2.7.9-2.6 6 .6 2.8 2.2l.4-1.5c-1.6-2.4-3.9-.1-3 2z"/>
        <path d="M250.5 213.2c.3 1.4 1 5 2.9 3.4a2 2 0 0 0 .3-2.5c1.8-.4.4 2.1 0 2.9-2 2.1-4-2.1-3.2-3.8z"/>
        <path class="st4" d="M337.3 239.9c-.6-.6-.2-1 0-1.4.6-2.3-3-4-4.5-5.3v-.3c2.6 1 6.8 4 4.5 7z"/>
        <path d="M281 222.3c1-.7 1.5.8 1.4 1.6-1.2 3.3-6-1.4-3.3-3-1.8 3.8 5 5 2 1.4zM237 215c1.7 4.6 3.8-.4-.8-.8 6.5-1.4 1.9 7.5.5.8h.2zM351.3 185.3c2.6.4 1 4.6-1 4.3-1.3 0-2.7-1.6-1.3-2.6 0 4.3 4.8 1.1 2.3-1.7zM351 77.3c.7-3 4.7-.2 3 1.8-1.7 1.1-1.7-1.3-1.1-2.4-.8-.5-1.3 0-2 .6zm2.4 1.7c.6-1 .6-1 0-1.7-.5.5-.6 1 0 1.7zM337.5 170.9l.2 1c3.4-.3 2-3.6 0-4.8 6.8 2-1.5 8.5-.2 3.8zM369.4 126.3c-1.4 3-5 4-4.8-.4h.2c.4 3.3 2.3 3.1 4 .6l-.9-1c.7-.1 1 .1 1.5.8zM222 73.8c1 .5 1 .5 1.8-.4-.3-1.5-1.8-2-3.8-1 0-1.7 3.2-1.2 3.8 0 1.5 2-1.7 3-2.7 1.2l1-.7.2.1-.4.8zM223.8 64c1 2 .8 5-1.9 3.7-1.1-1.3 0-3.7 1.9-3.6zm-.3 1c-1.5.1-2 1.2-1.3 2.2 1.6 1.4 2-1.2 1.3-2.3zM315.5 126.1c1.1 4.4 5.3.5 1.6-1.6 2-.4 2.7 2.7 1.2 3.8-.7 1-4.4-.5-2.8-2.2zM142.8 224.8c-2.8.3-.1 2.2-1.2 3.7-.8-.5-.7-1.4-1-2.3H139c.6-1 2.3-.6 3-1.8.3-.3.7-.3 1 .4zM352 195.3c3.5-.3 4.2 5 .5 5.7l-.1-1.2.7.5c2-1.4 1.8-3.4-1.1-5zM353.4 287.6c0-2 3.2-1.7 3 .1-.1 2.1-3 2.6-3 0zm.7.3c0 1.7 1.6 1 1.8-.2 0-1-2-1.6-1.8.2zM360.8 59l-.5 1.1c4.3.5-.4 5.2-1.4.8l1.7-2 .2.1zm-.6 1.6c-1 2.2 1.1 2.2 1.4.8 0-1-.9-.5-1.4-.8zM225 31.6c-.4-.8-1.1-.7-1.8-1 2-1.3 3.5 2.1 2.8 3.5-1.7 2-3-1.5-1-2.5zm.5.6c-1.4.6-1.5 1.7-.4 2 1-.2.5-1.3.4-2zM149.8 117l1-.5c6.6 1.2-.5 6.6-1 .5zm.6.5c-.2 1.4 1.9 2.9 2.7 1.3.4-1.3-1.7-1.9-2.7-1.3zM309.4 158.3c.8-1.2 3.1.8 2.8 1.7 0 2.5-4.4 3.6-3.9.2 1.7 4.4 6-1.5 1-1.9zM206 157.3c-.5 1.4 0 3 1.6 2.7 1.9-.5 1.6-3.6-.7-2.5-.6-1.6 3.4-.5 2.3 1.4-.8 3.7-5.8.4-3.2-1.7zM349.2 259.9c-.5-.5-.2-.8 0-1 1.6-2.3-1.5-2.4-3-2.7 1.8-2 6.2 1.4 3 3.7zM156.3 45c.8.6 1.6-.5 2.5.2l-1 .4c.9 1.6-.5 3.4-2.2 2.5-.4-1.2.7-1.9.7-3.1zm-.3 2.8c1.6-.2 1.8-.6 1-1.8-.7.4-1 1-1 1.8zM356 170.8c0 2-3.6 2-3.3-.2 0-2.5 3.2-1.5 3.3.2zm-2.1-1.3c-1.7 1.1 0 3.2 1.3 1.8.7-1-.6-1.4-1.3-1.8zM208.4 180.7c-2 1.4.6 5.2 1.5 2l-1.6-.2c2.2-1.6 3 1.3.9 2-2 .5-3-3.7-.8-3.8zM346.7 287.6c-1.7 4.2-6.9-2.3-2.5-2.7-2.5 2.1-.1 4.5 2.5 2.7z"/>
        <path class="st4" d="M162.3 86.7c.8-.3 33-.5 33.7-1.2l.2.2-.4.6c.7.9 2.7 4.2.2 2.8-1-1.1-31.8-2.3-33.7-2.4zm34 2.3.3-.2c-.3-.9-.3-.9-1.1-1.4l.9 1.5z"/>
        <path d="M220.2 172.8c1.2 3.4 5.6-.3.2-1.5 1.6-.4 3.8.8 3.1 2.4-.9 1.3-4.2 1.8-3.3-1zM146.4 88.6l-.7-.7h1.4c.4 1.2 2 2.2 1.2 3.5-2.3 1.6-2.5-1-2-2.8zm.7.5-.3.1c-1.4 3.2 3.1 2.5.3 0zM289.3 231.9c-1.6 2.5 0 6.6 3.4 5.6-2.6 3.2-6.7-4.6-3.4-5.6zM303.4 46.9l-.6.8c4.6 2.1-1.8 6-1 0 .8-.8.8-.8 1.6-.8zm-.6 3.5c2-.4 1.1-2.1-.3-2-.2.8-.3 1.5.3 2zM347 178.6c.4 3 3.8-1.1 2.1-2.8 3.2-.3-.8 7-3 3.6l1-.8zM329.6 108c1.3 3-2.6 3.5-3.7 1.5-.5-1.2-.9-2.9 1-3.2-3.2 2.8 2.8 6.2 2.7 1.7z"/>
        <path class="st4" d="M365.6 67.8 364 67c1.3-.3 1.9.7 2.8.6 1.1 4.2-4 3.9-1.2.2zm.5.5h-.4c-1.6 2.5 1.7 2.4.4 0z"/>
        <path d="M204 284.8c4.1-1.8-1.2-3.5-3.4-3 4.6-2.7 7.7 3.8 3.4 3zM237.3 243.7c-1.3.6-1.3 2.3.4 2.8 1.4.3 1.9-1.3.5-2 .9-.2 1-.2 1.3.4.4.9-.1 2-1.1 2.2-2 .5-4.1-3.5-1.1-3.4zM211.9 328.4c1.5 3.4-2.5 2.9-3.3.2 1.4.8 1.9-.4 3.3-.2zm-.5 1.9.3-.4c-.3-1.2-1.2-1.2-1.4 0l1.1.4zM314 77.3h-.9c-2.2 3.9 4.6 2.3 1.7 0 3-.5 0 4.3-1.9 2.7-1.3-.5-.4-4.6 1-2.7zM319.5 107c.4 5.5 5.8 2.7 1.7-.7 2-.4 2.7 4 .7 4.3-1.4.2-3.8-2.2-2.4-3.5zM268.5 27.8c-.4 1.4.8 2.7 1.8 1.2.4-2.6-3.8-1.8-4.2.3-.3-4.8 8.5-1 3 .8-.9 0-1.7-1.8-.6-2.3zM145.3 59l-1.3.7c.1 1.3.8 2.7-.3 3.6-.8.4-1.8 0-1.7-1 .1-1.5 1.7-3.8 3.3-3.2zm-1.9 1.5c-.9.6-1.4 2-.4 2.5 1.2 0 1.2-1.8.4-2.5zM218.6 44.9l-1.2-.4c1.4-.3 2.7.2 4 .6l-1.2.1c-.4 3-4.7 2.1-1.6-.3zm-.7 1.6c1.4.1 1.5 0 1.4-1.2-.7.1-1.1.5-1.4 1.3zM137 256.8c.1-3.5 6.3-3 3.4.6-.6.3-1.6-.4-.7-1l.4.5c2-2.7-2.5-2.4-2.8 0a4 4 0 0 0-.4 0z"/>
        <path class="st4" d="M300 39.6c.5.2.7.4 1 .8-2.6 4-4.6.3-1.9-2.3l1 .6c-.5.4-1-.2-1.3.4-.2.7-.5 1.4-.5 2.1.5 1.4 2-.7 1.7-1.6z"/>
        <path d="m317.7 48.6.2-2c-.4-.4-1-.6-1-1.2l1.4.6c.6 0 .8-1.1 1.7-.7l-1 1.1c1 1.2.6 3.1-1.3 2.2zm.8-1.6c-.3.7-.4 1 .2 1.3.5-.6.3-.8-.2-1.3zM156.3 158.8c0 1.8 2.6 1.8 3.5.7.7-1-.8-2.3-1.9-1.8-.2-1.4 2.4-.3 2.5.7 1 2.7-5.4 3.4-4 .3zM201.7 244.8c2 3.3 5.6 1.7 3.2-1.4.7.2.7.2 1.4.9.6 3.5-4.6 4-4.6.5zM160.5 192.1c1.9.6 2.6 2.5.9 3.1-1.3.6-4.5-1.3-2.9-2.7.2 3.3 5.4 2.8 2-.4zM152.3 58.8l-.4.8c4.3 6-4.4 4.1.1-1l.3.2zm-.4 1.5-.4.1c-1.5 3.1 2.8 3.2.4 0zM363.3 141c2.6 4.5-3.5 4.5-2.4-.9h.3c-.1 3.2 2.4 5.9 2 .9z"/>
        <path class="st4" d="M309.6 268.9c1.6-3.3-1.8-4.5-3-1.1-.6-4.6 6.8-2.1 3 1z"/>
        <path d="M334.4 304.4c-.7 3.8-6.5-1.2-2.4-2.9-1.8 2.3 0 4.4 2.4 3zM307 91.8c.8-.4 1.6-1.2 2.8-.7l-1.4.5c.8 2 .6 2.8-1 3.3l-.5-3.1zm.8 2.6c.6-.8.7-1.4 0-2.1-.4.7-.3 1.3 0 2.1zM211 108.5c1.4.7 2.8 2.8 1.1 3.9-2.5.7-2.8-2.7-1.1-4zm0 .7c-1.2 1.3-.7 3 .9 2.7 1.2-.6.1-2.4-.9-2.7zM326.2 159.2c2.7 2.8-3 6.3-3.2.5l.7-.2c-.5 3 3.4 4.4 2.5-.3zM222 180.8c.7.9 1.4 3.5 2.8 2.3 1.2-1.3-.5-1.7-1-2.6 5 1.2-1 6.8-1.9.3zM215.4 175.6c-1.8-1-1.1-2.6-1.1-4.3l1.2.4c0 1.3 1.6 3.3-.1 4zm.3-.6c0-1-.1-1.7-1-2.3-.1 1-.2 1.8 1 2.3zM356 256.4c6.5-2.1 3.4 5.5 1.5 3.2 1.3 0 2.9-2.3 1.1-2.8l-2.5-.4zM156.8 103.4l-1.5-.9c1.8-.5 4.7 2.8 2.5 3.8-1.6.2-2.9-2.1-1-3-.5 1.4-.7 2.4 1.1 2.3.2-1 0-1.3-1.1-2.2zM208.6 87c1.8.7 3.7 2.2 1.3 3.5-2 .5-3-2.7-1.3-3.5zm-.3.7c-.9 1.9 1.6 3.5 2.2 1.3 0-1-1.4-.8-2.2-1.3zM130.7 329.5c1-1.4 1.2-1.4 2.3-1 0 .8-1.1 0-1.2 1 .3.5 1.5.5 1.5 1.5-1.3.4-1.3.4-2.6-1.5zM144.6 103.4l1.6-.6c3.3 1.7-.4 7.2-.8 1.9 0-.6 0-1.1-1-1l.2-.3zm1.4.4c-.4 1.3-.3 1.8.5 2.7 1-1.1.9-2.2-.5-2.7zM144 81.8c-.8.7-1.7.2-2.4.7 1 7-6.5-1.5 2.3-.7zm-3.1.8c-1 .7-1.1 1.3-.2 2.1 1-.7 1-.8.2-2.1zM348.4 106.9c1.5 0 2.2 2.7 1.2 3.6-1.7 1.8-4.4-1-2.6-3-1.1 4.9 5 3.3 1.4-.6zM320 76.5c-2.5 3 4.6 3.3.8-1.1 2.6.2 1.9 4.7-.7 3.8-1.1-.4-1.8-2.9-.2-3l.2.3zM155.4 53.5l-1.7-.2c.7-.9 1.7 0 2.3-.6a7 7 0 0 1 2.1 2.2c-1.3 1.1-2.3.6-2.7-1.4zm2 1.3c-.3-.6-.7-1-1.4-1 .2 1 .3 1.1 1.4 1z"/>
        <path class="st4" d="m161.6 327.6.7 1.2c7-1.4-.4 5-.7-1.3zm2.6-1.4c1 .8 32.2.3 32.7-.6l-32.7.6z"/>
        <path d="M208 52.6c2.2-.5 4.5 3.1 1.8 3.3-1.6-.2-2-1.8-1.8-3.3zm.6.6c-.3 1.1.1 2 1.1 2.2 2 0 .1-2.4-1-2.2zM148.8 48.6l-1.5-.6c.3-.7.3-.7 1.8.2.9 0 1.2-1.3 2.5-1.1l-1.7 1.4c-.7.5 0 1.3-.5 2h-1.1l.5-1.9zM157.8 109.8c1-1 3-.7 3.9.3-.2 3.4-3.1 2.7-3.9-.3zm1 .2c-.3 1.8 1.4 2.7 2.4 1 .7-1.3-1.5-1.6-2.4-1zM355.2 108l1.8-1-.5 1c.6 1.4.8 4-1.3 3-1.1-.8.1-2 0-3zm.6.5c-.5.8-1 2 .1 2.2 1-.4.7-1.5-.1-2.2zM353.4 23.8c-1.5-1 1.5-1.5 2.3-1.7 1.9.6 1.4 3.6-.5 1.8-.7-1-1-1.3-1.8 0zm2-.8.7 1c.4-.7.4-.7-.8-1zM356.3 126.4c0 5.3-6.9 1.7-3.7-1.7-1.6 2.2 2 5.8 2.9 2.8 0-.5-.1-1.2.8-1.1zM152 87.4l.1.7c2.7.1 2 2.8-.4 2.3-1.5-.6-1.4-2.7.4-3zm-.9 1.3c-.1 1.5 2 2 2.3.4-.7-.5-1.4-.5-2.3-.4zM223 295c2.6.4 1.5 3.5-.4 2.7-.8-.4-2-2.4-1.3-3.2 1.2 4.3 4.3 2.3 1.4.8l.4-.4zM360.4 212.6c1.5 1.4 3.5-1.1 2.7-2.5-.5-.8-1-1.4-1.8-2.1 3.3.7 3.3 5.3-.5 5.7 0-.3-.2-.6-.4-1zM198.4 107.8l-.4 1c6 4.7-4 4 0-1.2l.4.2zm-.6 1.5c-.5 1.5.6 2.8 1.6 2 .2-1-1-1.4-1.6-2zM348.2 136c2.8-1 .3-3.3-1.6-2.3 1.7-3.2 5.7 3 1.3 2.7-.6-.9-.6-.9-.4-1.7l.7 1.2zM147.7 96.8c-.2.3-.6.6-.6 1 2.7 2.3 3.3-3-1.2-2 2-1.3 4.9.4 3.3 2.6-1.3 1.3-3.7-.5-1.7-1.8l.2.2zM324 92.2l-1 .6c1 3.1 2.5.6 1.8-1.5 1.5.6.9 3.6-.7 3.5-1.5 0-2.7-3.3-.1-2.6zM207 225.6c-1.6 4.7 4.7 2.6.4 0 1.7-.7 2.2 1.6 1.8 2.8-1.3 2.2-4.5-1.3-2.2-2.8zM331.8 90c-2.7.8.3 3.2-1.5 4.6-1.5-.9-.7-5.5 1.5-4.6zm-1.4 2.5h-.4c.1.4-.2.9.4 1.4v-1.5zM317.9 116.9c2.9 3.7-5.3 5-3-.5-.6 3.9 3.5 4.7 3 .5zM145.1 238.5c0-2.6 6.8-5.1 5.9-1.1h-.3l-.4-1.5c-2.3-.2-3.9.8-5.2 2.6zM210.3 33.3l-.5-2h.2l.8 1.6.8.2c-1.1.4-.7 1.5-1.2 2.3-.5.8-1.3.6-1.8-.1-.2-1 1-1.5 1.7-2zm-.5 2.3.5-1.5-.2-.1-1.2 1c.4.4.3.5 1 .6zM252 29.4c.7-1.3 2.5-.7 3.3 0 .7 3-3 3-3.2 0zm1.8-.2c-1.3 0-1 2.1.1 2.1 1.2-.1 1.4-2.2-.1-2.1zM359.1 167.8l.8 3.6c1.4.2 1.7 0 2.5-2 .5 1-.3 1.7-1 2.3-2.3 1.6-2.8-2.3-2.3-4zM352.3 320.7c-.2 1.7-.2 1.7.6 2.2.9-1 .2-2-.4-3 1.8 0 2 3.5.2 3.6-1.3-.3-1.7-1.6-.4-2.8zM342 85c.4-2 3.9-1.4 4.4.2.3.9-.1 3.8-1.4 3 2.8-2.8-.6-5.3-3-3.3zM218.2 328.8l-1.2-.5v-.2c7-.1 1.2 5 1.2.7zm1.6.8c-.3-.7-.3-.7-1.1-.7.2.9.2.9 1 .7zM204 108.6c1.3 1 3.5 3 1.8 4.3-2.5.6-2-2.6-1.8-4.3zm2 3.7c0-1.2-.7-1.9-1.5-2.6-.6 1.4-.5 3.3 1.4 2.6zM329.4 167c3.7-.8 5.2 3.4 2.5 5 1.7-3.5.6-3.8-2.5-5zM356 133.3c2 .5.6 3-1 3-1.7-.2-2.8-2-1.8-3.7-.7 3.2 4.1 4.6 2.8.7zM229 194.6c1.2-1 1.2-1.1.6-2.6 2 .3.6 3.7-1 3-.6-1-1.9-2.4-1.4-3.6l1.8 3.2zM201 103.4c1.3 2.3 1.8 2.7 3 1.9-.3-1.1-1.2-1.6-2.4-2.3 1.4-.3 1.6.6 2.5 1.3 1.9 3-3.5 2.2-3-.9z"/>
        <path class="st4" d="M162 95.2c1.3 0 33.1.3 33.7 1-1.3 2.4-36.6 1.5-35.6-1.2.8 2.6 2 3.2 3.7 1.8l-1.9-1.6z"/>
        <path d="M318.5 91.2c-1 .7-.6 3 .7 2.6 1.2-.6 0-1.4-1-1.6.9-.9 3 .5 2 1.5-2.3 2.9-3.8-3.1-1.7-2.5zM297.1 177.3c1.8.5 2 2.6 1.9 4.1-.3 1.8-4 .8-2.4-.7.2 1.5 2.2 1.5 2 0-.4-1.3-.6-2.3-1.5-3.4zM141.2 99l.1 1c.5.4 1 .2 2.2-.8-.7-1.4-2.1-.9-3.3-1 .5-1.5 5.2 0 3.3 1.6-1 1.2-3.8 1.3-2.3-.8zM356 100.3c2-.3 1.2 2.7-.2 2.9-1.8.4-2.8-2.2-1.8-3.6-.3 4.4 4.1 3.5 2 .7zM349 329.5c-1.2 1.1-1.2 1.8 0 2.8.8-.2 1.3-.8 1.5-1.7 1 1.2-1.2 3-2.3 1.9-1.1-.6-.8-3.9.9-3zM322.4 22.4l-.4-1.2c1.5.9 2.2 3.3.4 3.9-1.6-.3-1.5-2.2 0-2.7zm0 2.2c.6-.4.8-.8.3-1.3-1-.3-1.4 1-.3 1.3zM291.6 222.2c.6 2.4 3 2.8 2.4-.3h-.8c-.5-.7.6-.8 1-.4.6.4.6 2 .2 2.6-1 1.4-3.7-.4-2.8-2zM347.4 124.6c1.6-.2 1.5 1.8 1.8 2.9-.4 2.8-3 1-2.8-1.3.8.4.7.9.8 1.3.1 1.2 1.7 1 1.5-.2 0-1-.5-1.9-1.3-2.7zM155.3 235.8c.9-1.6 5.2-2.2 5 .4 0 1.1-.2 1.5-1.2 1.8 2.5-3.3-1.6-3.7-3.7-2l-.1-.2zM159.4 90.6c-2.6.7-1.2-2.6-3-3.4h2.1l1 3.4zm-.8-.5c.2-1.2 0-1.4-.7-1.8 0 .7 0 1.3.7 1.8zM215.5 146.9h2.1c.1 1 1 1.9.7 3-.1.8-1.2.8-1.6.3-1-1.1.4-2.5-1.2-3.3zm1.5 1c-.5 1.3-.4 1.7.6 2.2.6-1 .4-1.5-.6-2.2zM217 58.7c2.3-.4 3.2 2.3.9 2.6-1.9.3-3-2.6-.8-2.6zm-.8.6c.2 1.5 2 2.2 2.6.6-.2-1-1.6-.5-2.6-.6zM352.2 233.9c0 1.8-1.3 3.8-.5 5.5.2.2.2.3-.4.8-1.2-1.2-.3-5.2.6-6.5l.3.2zM289.3 24.4l-.7 1.4c6 5-4.3 2 .6-1.4zm-.7 2.2c.4 1.2.4 1.2 1.4 1l-1.4-1zM223 87.4c3 2.7-.3 5.7-1.7 2.8-.2-1.4.5-2.1 1.6-2.8zm0 .9c-1.4.2-1.8 2.1-.7 2.5 1.9.1 1.8-1.6.6-2.5zM197.3 157.2c1-1.2 3.2-.3 2.5 1.2-.5 2.1-5.3 1.6-3-.8-1 4.4 6.1-1 .5-.4zM309.6 55.4c-1.6.2-.8-1.7-2-1.9 1-1 1.6-2.9 3.2-2.4-2.3 1-1.9 2.4-1.2 4.3zM202.8 96.1l-1.7-1c6.8.7-4.7 6.5-2.1-.2-.8 2.9 2.5 3.9 3.8 1.2zM237.7 204c3.5-2.3 5.8 4.5 2.8 4.2 2.2-2.3-.4-4.5-2.8-4.1zM143.7 253c1.6-1.3 5-.3 3.8 2.1-.5 1-2 1.9-2.4.6 1.1.3 2-.2 2.1-1.4-.1-1.8-2.3-1.1-3.5-1.4zM373 88l-.7-1.8-1-.2 1.1-.6v-1.9h.3c.3 1 0 2 .9 2.6.8.7.6 1.3-.7 1.8zM155.6 39c-.1 1.9 2 1.4 2.3 3-1.6.8-2-1.7-3.6-1.2-.2 0-.3-.1-.5-.4l1.4-.3.4-1.1zM297 239.7c-3.1 1.3-3.5-5.2-1.6-5.7-.8 2-1 5 1.5 5.7zM295.1 32.7c-.3 1.5.3 2.2 2 2.5.5-.4.1-1 0-1.5-.6 0-.9-.2-.6-1 1.4 0 2 2.7.5 3-1.3.5-3.5-2.5-1.9-3zM260.3 29.3c1-.7 2.2-.6 3.6.4-1.3 2.7-2.4 1.6-3.6-.4zm1.8.4c-.7 1.5.6 1.5 1 .2-.7-.7-1.4-.7-2.2-.5.2.9.8.1 1.2.3z"/>
        <path class="st4" d="M212.3 163c-.6 4 4.3 3.7 1.8 1 4.3 2-3 5-2-1h.2z"/>
        <path d="m227.9 72.7 1.4-1c4 1.8-2 5.3-1.4 1zm2.2.4c0-1-2-.4-1.9.3.1 1.3 2 1.3 2-.3zM224.7 274c3.4-1.6 3.2 3.5.4 3.8-.4-.5-.9-1-.3-1.9l.4 1.3c2.2-1 2-3.2-.5-3.1zM153.2 81.9c.2-1.7 3-1.3 3 0 .2 1-.8 2-1.6 1-.4-.2-.3-1.2-1-.8l-.4-.2zm1.3-.5c0 .8.8 2 1.3 1 0-.8-.5-1-1.3-1zM215.3 65.8l-1.8-.1c.6-.8 1.3-.4 1.8-.6.5-.2.8-.9 1.6-.6l-1 .8c.7.5 1.1.8 1.5 1.5-1.5.5-1.7.4-2.1-1zM221.2 140.6c1.3-1.3 3.5.4 2.5 2-1.1 1-2.5-.7-2.5-2zm2 1.7c.4-1.2 0-1.6-1.2-1.4 0 1.2 0 1.2 1.2 1.4zM369 54.3c1-3.2 5.6-2.3 3.6 1.3h-.3c.9-3.3-1.5-3.1-3.3-1.3z"/>
        <path class="st4" d="M163.7 115.8c2.3-.3 34.9 2.9 32.3 2.8-1.9-.2-33.2-1.5-32.3-2.8zm.3.5c-1.3 1.1 31.3 2.4 32.7 1.6a383 383 0 0 0-32.7-1.6z"/>
        <path d="M221.3 207.5c2.6-2.2.6-4.3-1.9-5.4 3-.5 5.2 4 2.2 5.6l-.3-.2zM341 91.3c.6-1.4 2.7.3 2.8 1.2.6 1.7-1.8 4.6-2.5 1.6.5.4.7.6 1.2.8 1.6-1.3 1-3.8-1.5-3.6zM223.2 39.5l1.7-1.2c.1 0 .2 0 .2.2l-.7.8c2.8.7 1.7 3.6-.3 1.4-.2-.5-.3-1-1.1-.8l.2-.4zm1.6.6-.3.3c.2.3.5.6 1.3.4l-1-.7zM207.6 102.6c0 3.6 5.1 1.6 2.5.2-.3 0-.5 0-.5-.5.8-.7 1.8.3 1.7 1.2 0 2.6-5.3 1.8-3.8-1zM234.5 38.3l-.7-1.3c1.9.4 1.9 3.7 0 3.7-1.8-.6-.5-2 .7-2.4zm0 .7c-.7.1-1 .3-1 1 .4.6 1.3-.1 1-1zM302 24.1v1.2l2 1.4c-1.6 2-3.8-.9-2-2.6zM216.4 109.3c1.3.4 3 3.3 1 3.8-2.2.3-3-2.6-1-3.8zm0 .6c-1.4 1.4-.6 3.2 1.3 2.6.1-1.2-.2-2-1.3-2.6zM367.4 110.6c1.2.6 2-.3 2.7-1 .2-1.3-1.5-2.1-1.6-3.3 5 3-.8 6.9-1.1 4.3z"/>
        <path class="st4" d="m161.6 129.9 1 .3c-2.4 1.7 33.3 4.7 33.4 1.4 2.6 1.4-35.6 4.6-34.4-1.7z"/>
        <path d="M224 123.4c.7-.6 1.2-1.5 2.5-1.2-3.3 1.5-.7 2-2.2 3.8-.5-1.5 0-2.2-1.9-2.7.6-.3.6-.3 1.7 0zM231.6 58.9l.7-2 .3.5c-.8 2.1 2.4 1.3 1.9 3.4-1.4.3-1.9-1.2-3-1.9zm2 .8-.2.3.5.3.1-.1-.4-.5zM240 29.6c.8 1.2.5 3.7-1 4-1.7-1.4.2-3 1-4zm-.8 3.7c.7-.7.9-1.4.6-2.3-1 .3-1.3 1-.6 2.3zM244.7 31c.7 0 0-1.6 1.3-1.3l-.4.9c4.5 1.1.5 4.8-.9.3zm1 .2-.1.2c.8 2.5 2.7.3.2-.2zM347 200.2c1.4-2.3.3-3.7-1.3-5.2 2.3 0 3.8 4.5 1.3 5.2zM239.6 37.1v1.6c6.4.4-1.6 5-.4-1.6h.4zm.3 2.2c1 1.1 1 1.1 1.7.3-.6 0-1-.2-1.7-.3zM155.8 115.9c2 0 2.9 2 1.5 3-2 .6-2.3-1.7-1.5-3zm-.2 1.4c.7 2.6 3.2 0 1-.9l-1 1zM305.6 248.2c-1.3 3.3-5.1.1-3.8-2.4.5 2.7 1.1 4 3.8 2.4zM217.6 31.9l-1.4-1c1-.5 1.6.7 2.4 1.3-.5.7.2 2.2-.9 2.6-1.7-.2-1.8-2.4 0-3zm.2.9c-1.3-.5-1.3 1.4-.2 1.6.4-.8.4-.8.2-1.6zM144.1 141c.8 1.7-.1 3.5-1.8 1.9l.4-1.5-1.1-.1c.4-.8 1.7-.1 2.5-.3zm-.3 1.9c0-.7 0-.7-.5-1-.5.8-.5.8.5 1zM214.7 72.2c-.3 4.2 4.7.8.2-.8 2-1.3 3.6 3.1 1 3.3-1 .2-3-1.9-1.2-2.5zM147.3 109.4c1 .8 3 3.2.5 3.3-1.6 0-1.8-2.5-.5-3.3zm-.2.9c-.3 1.8.3 2.3 1.4 1.6.2-.8-.8-1-1.4-1.6zM213.2 79.3c1.2 0 2.7.7 2.7 2-1.1 2.1-3.2-.2-2.7-2zm.5.5c-.1 1.2.9 2.6 1.8 1.4-.2-.9-1-1-1.8-1.5zM204.4 124c-1.3 1-2.3 2.9-4.3 2 .9-1.3 1.2 1 3.4-2.1l-1.7-.7c.7-.4 1.4-.2 2.6.8zM142.3 54.3c.8-.3.7-1.5 1.7-1.8.4 1-.9.9-.6 1.7 2.3 1.8-1.5 4-1.2.1zm.6 2c.8-.6 1-1.4 0-1.3v1.2zM224.7 174.2c1 .2 1.5.8 2-.2 1.2-1.3-.4-2.3-1-3.2 3.7 0 1.2 6.8-1 3.4zM144 50.3c-.2.5-.8.5-.9.1-.3-.9-1-1-2-1.6l1.8-.4c.4-.5.1-1.5 1.1-1.7-.8 2-.8 2.2 0 3.6zM219.5 38h1c0 1 .7 2.2 0 2.9-2 .7-2.4-1.7-1-2.9zm.7 2.6.2-.3-.5-1.3h-.4c-.5.9-.3 1.3.7 1.6zM307.2 106c1.8 0 2.5 2.6 1.8 3.9-1 1.4-2.4-.6-1.3-1.9 0 .8-.2 1.5.6 1.8.9-1.2.7-1.9-1.1-3.8zM340.6 76.5c1.3 1.1-.3 3.5-2 2.6-1.4-.4-1.5-4.1.6-3.4-3.4 1.6 1.9 5.6 1.4.8zM202.1 116.8c-1.2 4.5 5.4-.5.7-1 .3-.7.8-.3 1-.2 2 .4.8 3.2-.6 3.5-1.3.5-2.3-1.3-1-2.3zM208.8 137.4c-3 2 2.3 4.6 1.9 1.2 2.1.5-.5 2.5-1.6 2.2-1.7 0-2.4-3.6-.3-3.4zM362 132.8c2.8 3.6-4.6 3.3-1.6-1-.9 3.1 2 4.4 1.6 1zM157 122.9l1.4-.2c4.2 2.6-1.9 4.4-1.3.2zm2.5 1.8c-.4-1-1.1-1.2-2-1.4.2 1.4.7 1.8 2 1.4zM309 246.5c-1 1.7 1.7 4.3 1.5 1.3 3 2.6-4.1 2.8-1.8-1.4h.3zM362.3 109.2c0 .5-.3 1 .4 1.1 1.9.1.8-3.1-.8-2.8 1.2-1.6 2.8 1.5 2 2.6-.5 1.6-3.4.3-1.6-1zM366 62c.9-.3 1-1 .8-1.9 1.2 0 .5 1.2.1 1.8-2.1 2.2-3-3.1-.5-3.3-.7 1-1.8 2.3-.5 3.4zM353 330l-1-.9c2.1-.8 2 2.5.5 2.8-1.1 0-1.7-1.1-1.5-2.4l1 1.6c.7-.2.7-.2 1-1.1zM234 205.8c-.3-.4 0-.7.2-1 1.2-1.6-2.2-1-3-1.8 1.8-1 6 1.3 2.7 2.8zM195.5 237.3c-1.4-3.5 6-4 4.6 0h-.3c.4-3.3-4-3-4.3 0zM348.7 22.4c.1 2 2 2.3 2.6.4l-2-1c6.3-.3-1.6 6.2-.6.6zM201.5 46l-.7.4c-1.4-1.7 3.9-.3 3.5 1-1 1-2.4-.3-2.8-1.5zm2.3 1-1.3-.7c.2.8.6 1 1.3.7zM372.5 20c-.5 4-3.6 2.6-1.3-.5l1.3.6zm-.9.7c-.9.5-.9.5-.5 1.2.6-.3.7-.7.5-1.2zM344.8 61.2c-2.4 1.6.9 5.9 2 2.3.7 1.6-1.8 2.8-2.7 1.2-.9-1-1.1-3.4.7-3.5zM150.5 103.5c-.4.8.1 1.2.7 1.6.4-1.5-.1-2-2.2-2.3 1.6-1.6 4 1.9 2.4 2.9-.9.1-2.3-2.2-1-2.2zM316 31.4l-1.4.4.4 1.8c-1.8.2-1.3-1-1.8-2.1 1 0 1.8-.6 2.8-.1zM215 102.7c0 1.6 2.3 2.5 3.2 1l-1-.7c.4-.6 1 .1 1.5.2 0 3.2-5.8 1-3.7-.5zM208 78.8c1.3.9 1.4 3.7-.6 2.7-1.5-.7-.8-2.7.6-2.7zm.3 2.4c.6-.8-.2-1.8-1-1.5-.5.7.2 1.7 1 1.5zM242 244.7c0 1.3 1.3 3.2 2.6 2.2.5-.7-.7-.8-.4-1.6 1.1.5 1.6 2.1 0 2.4-1.3.3-3.5-1.9-2.1-3zM371 78.4l.9-2-1.2-1.6c2-.4 3.2 5.8.4 3.6zm1.2-1.1c-.4.4-.6.7-.2 1.2.3-.6.4-.6.2-1.2z"/>
        <path class="st4" d="M324 70c.5-1.1 1.6-2 2.6-.6 1 2.6-1.4 2.4-2.7.7zm2 1c.8-.8 0-2.3-1-1.5-.6.7.5 1.1 1 1.5z"/>
        <path d="m372.6 91.7 1.2-1c0 .3.2.4.1.5-1 .9-.4 2.1-1.2 3.2-.6-.3-.5-.7-.4-1 .4-1.2-.8-1.4-.7-2.4l1 .7zM228.4 95.6c2.7 4-5.1 4.3-2.4.1-1 3.7 3.2 3.2 2.4 0zM361.5 125.6c3.4 2.8-3.9 4.5-2.1-.2 0 3 3.1 3.6 2.1.2zM312.4 70.5c-.2-1.7 2.6-.9 2.5.3 0 2-2.6 1.9-2.5-.3zm.7-.5-.3.3c.4 3 3.1 0 .3-.3z"/>
        <path class="st4" d="M351.7 69.2c1.8-.7 2-.6 2.7.5-1 2.6-3 2-2.7-.5zm2.2.5c-1.5-1-2.7.3-.8 1.2l.8-1.2z"/>
        <path d="M356.3 268c-.2-1.6 2.5-1.3 2.4 0 0 1.4-2.4 2-2.4 0zm.8.7h.5l.4-.9-1-.4-.2.2.3 1zM361.6 191.8c3.5.2 1.6-2.8 1.9-4.9 1.3 1.9 1.4 6-2 5.2v-.3zM355.8 245.3c.4 1.3 1.9 2 1.2 3.4-.2.6-.3 1.3-1.1 1.6-.3-.5 0-.7.2-1 1.5-1.7-1.6-2.6-.3-4zM153.3 97.3c1-1 2.3-1 3.7-.8.9 2.5-2.2 3.3-3.9 2.4 1.3-.2 2-.2 3.1-.5 2-2.3-1.6-1.6-2.9-1.1zM162.5 104.4l-.2-1.4-1.4.7c1-3 6.5 0 1.6.7zM227.8 88.6c-.8 1.6.3 2.6 1.7 1.3 1.2-1.4-1.2-1.9-2-2.7 2.2-.1 4 3 1.3 3.6-1.5.6-2.6-1.4-1-2.2zM140.1 110.9l1.6-.6c-.2.9.5 1 .8 1.4.8.7-.4 2-1.1 1.4-.7-.6-.9-1.4-1.3-2.2zm1 .3c.2 1.5.3 1.6 1.3 1.2l-1.3-1.2zM209 61.3c-.7 0-1.5-1-1.1-1.8 1.5-1.9 4.7 1.6 1.2 1.8zm1.3-1.2c-.6-.6-1.3-.7-2-.4-.3 1.2 1.6 1.7 2 .4zM212.1 117.5l-2-2c1.5-.1 3.4 2.5 1.3 2.9-1.2.2-2.7-.5-2.3-1.8.7 1.3 1.7 1.7 3 .9zM222.3 109c2.1-.3 2.7 2.4 1 2.9-2.1.5-3.5-1.2-1.5-2.6-2.6 4 5.4 2 .5-.3zM146 123.4l1.1-1c0 1 .4 1.3.8 2 .1.5 0 1-.5 1.1-1 .2-1-1.4-1.4-2.1zM351.6 256.8c1.8-2.8 4.3 2.5.8 2.8 1.5-1.3 1.8-3-.8-2.8zM366.9 75c-1.3 2.9 1.7 3.8.2 1.6 1-.8 1.4 1.2.8 1.6-2 1-2.5-2.8-1-3.2zM156 60l-1.4-.4v-.2c1.1 0 2-.3 2.6-1.1l.2.2c-1.6 1 .3 2.2-.7 3.4-1-.4-.6-1.2-.7-1.9zM150 324c-.5 1.4-.3 2.4 1 2.3-.1-.5-.2-.7-.6-1 1.4-.6 1.5.9 1 1.6-1.4 1.1-3.5-2.5-1.3-2.9zM310.6 154.8l-.2-.8c1-.1 1.2-.2 2-1.3l-1.7-1.8c.4-.4.7 0 1 .2 2 1.3 1.1 2.7-1 3.7zM369.1 117.8c0 .9 0 1.7.7 2.4 1-.2 1.1-1.2 1.6-1.9 1 3.4-4.3 2.7-2.3-.5zM312 92.1l1.7-.2c2.3 2.5-1.4 4.5-.6.7l-1-.1-.1-.4zm1.7 2h.2l-.1-.8h-.3l.2.8zM322.6 57.6c-3 2.3-4.8-3.7-1.5-3.6-2.6 1.6-.9 4 1.5 3.6zM196.1 122c1.6-.2 2.6 1.6 1.4 2.8-.6.8-2.9-.3-1.4-1.2.3 2.6 3-.7 0-1.2v-.3z"/>
        <path class="st4" d="m162.2 39.8.8.5c.6-.1 32.5-.8 33-1l.1.4c-2.8.3-33 3.4-34.4 3-.7-1.1 1.1-1.6.5-2.9z"/>
        <path d="M318.9 197.4c-.3-2.2 5-3.2 5.2-.7-2.4-1.3-3.6-1.2-5.2.7zM150.5 42.8l.7-1.6c0-.3-.2-.6-.4-.8l2.4.2-1 .7c0 1.1 0 2.5-1.7 1.5zm.7-.2h.3l.1-.7c-.4 0-.4.3-.4.7zM138.3 127.2v-1.9l-1.6-.7c2-.5 4.3 1.4 1.6 2.6zM248.4 237.4l1-.1c.3-1.8-1.5-2.5-2.3-3.8 1.5.2 3.9 3 2.4 4.4-.5.4-.8.2-1-.5zM222.8 51.8l1.3-.7c3.3 2.3.1 3-1.3.7zm1.4.4-.1.2.8.4c0-.6-.3-.5-.7-.6zM335.8 46l-1 .7c0 1.5 1.4 2.4 1.8.6.9 1.2-.8 2.2-1.6 1.2-.8-1-1.3-2.8.8-2.4zM349.9 47.9c-1.7-.1-.5-2-1.9-2.2l1.7-1.2c0 1.1 0 2.2.2 3.4zM359.7 178.3c-.9.6-.7 1.3-.2 2 .7-.4.8-1 .6-2 1.3.7.5 2.4-.6 2.6-1.2 0-1.4-3.6.2-2.7zM244.4 226.8c.8 1.7 3.2.6 2.3-1-.2-.4-.5-.6-.2-1 3.1 1.8-2.1 5.6-2.1 2zM240.5 45.5l.6-2 .3.1-.1 1.2c.4.6 1.5 0 1.7 1-.8.8-1 .8-2.5-.3zM284.4 247c-.2-1-.2-1.8.5-2.4 2.6.3 1.7 2.5-.5 2.3zm1.6-1.4c-.7-.5-1.6 0-1 .8.5-.2.7-.3 1-.8zM373.3 42.3l-.3-2.2-1.2-.4c1.8-1 3.3.8 1.5 2.6zM238 264c2.7-1.4 4.2 4.6 1.3 3.5 2.3-.9.4-3.5-1.4-3.5zM202 39.8c0-.3-.3-.6-.5-1l.2-.2 1 .9.8-.3v.4c-.9.4-.5 1.2-.7 1.9-1.1 1.3-1-.9-.7-1.8zM312.8 64.2c1.2-.4.2-1 .3-1.5 2.1.4 0 3.2-.9 1.4-.2-1-.3-2.7 1-2.9-.3 1.2-1 1.8-.4 3zM370.1 92.4c1.6 1.3-1.9 3-2 .9 0-1-.4-2.1.6-2.9.1 1.2-.9 3 .5 3.3 1 0 .6-.8 1-1.3zM151 123.2l.8-.4 1.7 2.6c-1.6.6-1.9.3-2.4-2.2zm1.8 2c-.5-.6-.3-.8-1-.8.3.6.2.6 1 .8zM199.3 58c.3 1 0 3.2 1.6 1.9l-1-.8c1.1-.7 2.3 1.1.8 1.7-1.5.5-2.2-1.5-1.4-2.8zM341.8 46.3c-.9 1.4 0 2 1.3 2l-.2-1.2.2-.1.8 1c-.5 1-2.2 1.4-2.7.3 0-1-.9-2 .6-2zM226.4 236.8c1.4-.7 1.4-1.4-.1-3.8 2.8.2 1.6 5.8.1 3.8z"/>
        <path class="st4" d="m304.8 38.2 1.6-.2c-.9.9.2 1.3 0 2.2-.9 1.8-1.8-1-1.6-2zm.8 1c-.3.5-.2.8.4 1l-.4-1z"/>
        <path d="M368.2 101.7c1-.2 1-1.1 1.4-1.9.7 3.3-4 3.4-1.8-1.1.3 1.2-.4 2.2.4 3zM143 156.4c2.3 3.6-4.6 2.6-2.3-.2-.2 1 .5 2.3 1.6 2 .3 0 .7-.3.5-.8-.2-.5-.2-.5.1-1z"/>
        <path class="st4" d="M323 40v.5h.3c.3-1.4-.2-2.4-1.2-3.6 1.7 0 2.6 3.4 1.2 4.2-.7 0-1-.6-.6-1.3l.3.2z"/>
        <path d="M212.6 237.1c1.8-1.6.5-2.8-1.6-2.8 2.7-1.6 4.4 2.3 1.8 3l-.3-.2zM277.5 243.3c4 1-1.6 5-1.1 1.5.4 0 .2 1 1 .8 1.5-.4.8-1.4 0-2.3zM251.8 226.2l-1.2-1c.9-.1 1.4.3 2 .8-1 1.9-3 1.5-3.3-.6.8.6 1.2 1.9 2.5.8z"/>
        <path class="st4" d="M195.6 60.4c-.2 1.6-33.7 1.2-33.7 0 .3-1.8 33.7-1.6 33.7 0z"/>
        <path d="M273.3 246c-.6-.4-1-.4-1-1 3.6-1 .2 4.3-1 1 1 .6 1.2.6 2 0zM374.8 20.3c1.3-.3 1.7 2 1.5 2.8-.7 1.6-3-.4-1.3-1.2-.2.5-.1 1 .3 1.3 1-.8.3-2-.5-2.9zM343.2 20c.7.8 2.2 2.2.4 2.6-1 0-1.7-2.5-.4-2.6zm.2 1.2-.3.3.6.5.2-.2-.5-.6zM354.6 311.6c3.2 1.2-.4 5.6-.4 2l.7.6c.7-.9 0-1.6-.3-2.6zM207.6 71.4l1.5 2.5c-2 1.4-3.1-1.2-1.5-2.5zm.6 2.5c0-.7-.3-1-1-1.4.1.7 0 1.4 1 1.4zM290 247.4c.5-.4 1.4-.5 1.5-1.5l-1.3-1.2c2.7-.4 2.2 3.5-.2 2.7zM214.9 118l1-.6-.3.9c1.5 1 3-1.8.6-2 3.5-1.3.8 5.2-1.3 1.7zM364 168.5c.5.8.6 1.9 1.8 2.1v-1.5l.2-.1c1.8 3.2-2.7 2.5-2-.5zM360.1 228c1-2.6 1-3.9-.6-5.3 2.3 0 2.3 4.6.6 5.3zM247.6 244c.5 1.2.5 2.5 2 2.3V245c2.5 3.3-3.3 2-2-.8zM280.5 244.3c2.8-.7 1.9 3.7-1 2 1.2-.5 1.9.4 2-1.3l-1-.3v-.3zM224.2 103c.8 2-5 2.6-3.1 0-.2 1.9 2.6 1.5 2.9-.1h.2zM371.8 47.6c-2 1.2-1.7-4.2 0-3.4-1 1.3-1.3 2.3 0 3.4zM352.3 45.1c.6-1.2 1.9-.6 3-.8V46h-.5c-.6-1.2-1.5-.8-2.5-.8zM139 117.6c4.7 1.4 1.5 4.8 0 .3v-.3zm2 2.4c0-1 0-1-1-1.1.3.4.5.7 1 1.1zM359.1 248.2c1.6-1.5 1.3-2 .5-2.8.5-1.1 1.8.8 1.3 1.4-.3.6-1 2-1.8 1.3zM229.4 78.6c-.2.9.5 2-.7 2.5-.6-1-.6-1.6 0-3.1l1.6.2v.2l-.9.2zm-.4.7c-.3.7-.3.7 0 1.2v-1.2zM332 31.6c1-1 2-.9 4 .6 0 1.4-2.4-1.6-4-.7zM233.8 195.4l-.4-1.2c.8.3.9 1 1.2 1.5-1.3 1.3-2.6-1-2.7-2.4l1.7 2.2.2-.1zM311.9 45.1l-.8 1.1.8 1.2c-.5.5-1 .4-1.5.2l-.2-1.4c.4-.4.7-1 1.7-1zM365 44.7l-.5.9c.5.3.5.3 1.7 0-1 2.7-4-.9-1.2-.9zM206.1 236.2l.5-1c-1-1-1.9-.2-2.8-.2 1.1-2 5.2-.1 2.3 1.2zM136.2 157c.4-.5.8-1.2 2-.7-1.7.3-1.5 1.5-1.6 2.8l-1.5-2.2 1.1.1z"/>
        <path class="st4" d="M224 164.8c1-.5 1.7-.3 2.4 0 .5 2-1.5 2.7-2.1 1 .8.5 1 .4 1.7 0-.4-1-1-.8-2-1z"/>
        <path d="M372 98.9c-.8 2 .8 2.5 1.5.5.6 3-4 2.1-1.5-.5zM232.1 51.6c1.6.8.4 3-.6 1.4 0-.6-.2-1.3.6-1.4zM232 277.1l.2-1.8-1.8-.5c2.4-1 3.2.6 1.6 2.3zM245.2 37.7l2.2-1 .1.3-.8.6.8 1c-1 .6-1.5-.5-2.3-.9zM219.1 306.3c.7.5 1.8.6 1.8 1.8-1.1.4-1.7-.3-1.8-1.9zM218.4 51.2c3 2-1.4 3.7-.3.1h.3zm0 .9c0 .6 0 .6.5.8 0-.6 0-.6-.4-.8zM254.6 37.5c.9-1.4.5-2.4-1.1-2.9 1.4-1.7 3.2 3.7 1.1 2.9zM213.2 123.2c1.4-.9 1.3-1.2-.5-2.3 2.4-1 2.4 3.5.5 2.3zM233.6 73.4l.2.7c.5-.7-.1-1.2-.3-1.8 1.1.5 1.2 1.4.4 2.7-1-.5-1-.5-.3-1.6zM240 53.6c-.8.1-1.4-.3-1-.8.6-.8-.3-.9-.3-1.5.9.2 1.2.7 1.4 2.4zM217.6 123.7c0-1.2 1.2 0 1.4-1l-.7-.4c1.7-1 1.8 2.1-.7 1.4zM236.9 58.4l1 1.6c-1.1 1.5-2-.7-1-1.6zM234.5 66.1c.5.2 1.2.7 1.2 1.2-.8 1-2 .2-1.2-1.2zM209.5 123l-.6 1.3c-.9-.3 0-.8-.4-1.2l-1.5-.3v-.2c.8-.3 1.6 0 2.5.3zM220 236.1c.5-1.1.5-1.1-.9-2.2 1.7-.5 3 1.8.9 2.2zM226.8 111.8l.4-2.1h-1.5c.5-.6 1-.6 1.6-.6.5 1.1.3 1.8-.5 2.7zM152 332.5c-1.5-1.1-1.6-2-.4-2.8-1 2 .7 1.3.3 2.8zM228 104.2l-.4-1.5h.2l1 1.7c-1.4.7-1.8.6-2-.5.5.3.5.3 1.2.3z"/>
        <path class="st4" d="M227.2 131.7c-1.7.6-2.7-.6-1.3-1.8-.3 1.2.1 1.4 1.3 1.8z"/>
        <path d="m251.8 245 .8 1.1.5-.8c1.3 1.4-1.8 1.7-1.3-.3zM225.8 160.6c1-1 0-2 .1-3 1.1 1.3 1 2.4-.1 3zM226.4 142c-.3-1-.3-1-1.5-1.7.8-.3.8-.3 1.8 0 0 .6-.2 1.1-.3 1.7zM251.7 237.5c.6-.7.7-1.5.2-2.4 1.5.3 1 2.3-.3 2.4zM262.3 33.3l-.5.4.8 1c-1.2.7-1.7-2-.4-1.7l.1.3zM373.7 45.7c0 .5.8.9.4 1.6-.8-.2-1.2-1.2-.6-1.7h.2zM231.3 96.7l-.6-.7c1.3 0 1.7 1.4.5 1.7-.6-.5.3-.5.2-1zM221.8 330.4l1.1-1.6c1 .7-.1 1.6-1 1.6zM227.9 115.1c.6 1.5-1.6 1.5-1.6.2.6.4 1.1.6 1.6-.2zM268.9 33.2c.4-1.4.4-1.4 1.4-1.5l-1.4 1.5zM231.9 81.8l-.5-1.1c.7 0 1.5.6.5 1.1zM350.9 252c-.9.6-1-1-.2-.3l.2.3zM279.3 32.9h-.9c.3-.6.6-.5 1 0zM310 307.7l.3.8h-.1c-.3-.2-.3-.2-.2-.8z"/>
        <path class="st4" d="M245.6 79.4c1.6-27.3 45-32 46.2-2-.1 14.1-20.4 23.8-32.2 17.6a17.6 17.6 0 0 1-10.8-10.1c-1-2-1.2-4.3-3.2-5.5zm15-5c.8 4 2.9 12.3 8.2 10.8 9-.3 9-2 10.5-10.3 1-4.6-3.8-11.3-8.8-10.1-7 2.5-8.6.8-9.8 9.6zm28.5 8.4-.2-.2c-2 1.3-3 3.7-5.7 3.8-4.6 1-9.5 3-14.3 1.9-6-1.8-13-.7-18.2-5 .7 4.8 5 8.2 9.4 9.8 9.8 5.7 23.6-1.2 29-10.3zm-1.6-12.7c-1.4-6.5-11.7-12.4-18.2-11.7-8.2 1.4-20.2 5.5-20.4 15.4 10.5-13.9 26.1-16.6 38.6-3.7zm-26.8-3a33 33 0 0 0-12 11c5.1 1.2 8.7 5.6 13.9 6.7-3.8-5.3-5-11.8-1.9-17.8zm27.7 11.6c-1.7-4.3-4-8-8.4-10.2 2.4 5.2.4 10.3-.9 15.4 3.3-1.5 6.3-3 9.3-5.2zM254.2 303.8c0-5.2 6.2-5.1 7-.4 1 5.8-7.3 6.5-7 .4zm3.5 2.8c5.3-.4-.6-7.8-1.7-3.2.1 1.2-.2 3.3 1.7 3.2zM255.7 283.4c.1-4.8 6.4-2 4.7 1.7-.8 3-5.5 1.1-4.7-1.8zm3.3.1c0-2.3-2.6-1.2-1.8.7.4 1.5 2 .6 1.8-.7z"/>
        <path d="M289.5 347.5c-12.3 1.5-25-.9-37.5-.8-8.6 0-17 .3-25.6-.5v-.3c20.8-.2 42.2 1 63.1 1.6z"/>
        <path class="st4" d="M162.1 152c1.2.5 35.7.7 33.7 2.3-1.9 1.4-35.2-.7-33.7-2.4z"/>
        <path d="M269.3 74.5c.8-2 .7-3.7 3-4.2 2.6-.9 1.3 4 1.6 5.5 1.1 4.3-3.6 6.3-7 4.2-1.8-.8-1.6-2.8-2.3-4.4-.5-4 2.8-5.2 4.7-1.1z"/>
    </g>
</svg>