<svg class="grid-items-onclick-animation" id="cifruli-samotxe" version="1.1" xmlns="http://www.w3.org/2000/svg" x="0" y="0" viewBox="0 0 510.2 382.7" xml:space="preserve" enable-background="new 0 0 510.24 382.68">
    <style>
        .st0{fill:#fff}
        .st1{fill:#666}
    </style>
    <g id="Layer_1">
        <path class="st0" d="M41.7 303.3c1 6.2-1.1 16.2 5.7 19.4 5.3 1.5 9.2-1.8 10.2-6.8 2.7-3.6-2-10.4 1.6-12.7 31.2-1.3 62.4-1.8 93.4-2 29-.3 57.8-4.7 87-2.5 28.5-3.2 56.5 1 84.8 1.9 19.3.2 38.8-.4 58-2.8a418 418 0 0 0 79.6-3.2c1 7.6-4 22 7.4 21.8 3.5 0 8.6.6 9.8-3.6 1-6.4-1-13 0-19.5 2.8-1.6 7-.7 10.2-1.6 17.4-2.6 22.7-12 18.7-28.9a1151 1151 0 0 0-1.6-37c-1-32.7 2.7-65.4-2.1-98-3.4-22.6 1-53-22.5-65.5-8.7-6-20.4-4.4-30-8-3-.7-6-1-9.2-1-22.5 1.4-45.6 5.3-68.3 3.8-3 1.5 8.2.9 9.3 1.7-2 1.6-4.4-.2-6.6 0-4 1.8-13.7-.1-3.9-1.2-5.3-1-11.6-1.2-17.1-.5 3 1.3 8.1-.5 11.7 1-4 1-7.8.6-11.8 0 .1.7.1 1.5 1 1.4-.5.3-1.4 0-2 .2.3-2.4-1.3-1.5-2.7-1.2-1.7-.1-3.5-.2-5.1.2-7.6-.3-6.2.7.4.7-5.8.7-12.2 1.6-18.3.6 3.3-1 6.1-1.4 9 0 4-4.5 12-1.3 17.4-2.7-16.5-1.3-34.5 2.7-51.1 3.8 7.6 0 16.6-1.2 24.3.3-7.9 1.4-18-.6-25.7 1.3-1-.4-2 .2-2.8.2.2-3-5.1-.8-7-1.1-22.3 3.4-44.8.3-67.8.3-36.5-1-71.7 5.1-108.2 5.6-34 3.6-71.2-6.9-103.2 6.7-12.4 8.2-5.8 27.1-9.5 39.8-7.8 37.6-3.2 76.7-3.7 115-1.4 31.2-3.7 78.8 40.7 74zM302.5 61.8c-.7-.9-.7-.9-1.7 0h1.7zm165 274.4-1.4.6c1 .7 1.3.3 1.4-.6zM303.7 62c.6-.8 0-1.3-.6-.7l.6.7zm162.5 277.6c.2-.6 0-1-.7-1.2.1.6 0 1 .7 1.2zm-125-280.4c-.8-.6-.8-.6-1.1.1l1-.1zm155.2 268.6v-.5c-1 .1-1 .6 0 .5z"/>
        <path d="M41.7 303.3c-44.4 4.6-42.1-42.9-40.6-74.1.4-38.3-4.2-77.4 3.7-115 3.5-12.7-3-31.6 9.4-39.8 32-13.6 69.3-3.1 103.3-6.7C154 67.2 189 61 225.6 62c23 0 45.5 3 67.8-.3 2.2.2 7-1.8 7 1 .9 0 1.8-.5 2.8 0 7.8-2 17.8 0 25.7-1.4-7.6-1.5-16.7-.3-24.3-.3 16.6-1.1 34.6-5.1 51-3.8-5.3 1.4-13.3-1.8-17.2 2.6-3-1.3-5.8-1-9.1 0 6.1 1.1 12.5.2 18.4-.5-6.7 0-8-1-.5-.7a16 16 0 0 1 5-.2c1.5-.3 3.2-1.2 2.7 1.2.8-.1 1.7 0 2.2-.2-1 0-1-.6-1.1-1.4 4 .6 7.9 1 11.8 0-3.6-1.5-8.7.3-11.7-1a56 56 0 0 1 17.1.5c-9.8 1-.2 3 3.9 1.3 2.2-.3 4.6 1.5 6.7 0-2.1-1.5-11.7.2-9.4-1.8 24.6 1.9 49.4-3.5 73.9-3.7 13.6 4.4 30.2 3.1 41.3 14.4 15 15.3 11.7 40 14.8 60 5 34.4.7 69 2.3 103.5 1.3 11 .5 22 1.8 33 4 18.8-5.2 26.2-23 28-12-1.6-4 13.6-6.3 20.6-1.2 4-6.3 3.5-9.8 3.5-11.4.2-6.4-14.3-7.4-21.8a418 418 0 0 1-79.6 3.3 437 437 0 0 1-58 2.7c-28.3-1-56.3-5.1-84.9-2-29.1-2.1-58 2.3-86.9 2.7-31 .1-62.2.6-93.4 2-3.8 2.2 1.2 9-1.6 12.6-.9 5-5.1 8.4-10.2 6.8-7-3.2-4.5-13.2-5.7-19.4zM462.3 61.9c.6.6 1.2.2 1.8 0-1.2 0-2.4 0-3.6-.3v.3h1.8zM361.9 287.8c.4.3.9.7 1.6 0l-6 .2v.3c1.3-.3 3.6.7 4.4-.5zM499.2 134c.3-2.5.1-5-.4-7.6-1.2 3.6.5 8.1.8 12 .7-1.2-.4-3-.4-4.4zm-3.6 2c.6-.2 1.4 0 1.7-1l-1-.2.6-.9-1.4-.6c.1 3.4-1.3 6.6.3 10.2.8-1.3.7-5-.2-7.5zM264 286.5c-2-1-.3 2.7 0 0 1.3 1.1 3.1.6 4.7.7 0-.6-.7-.4-1.2-.7 1-1.2 2.4-.3 3.6-.6-1.5-.8-3.6-1-4.7.2 0-3-4.4-1.8-6.5-1.5 1.6.7 3.2.5 4.5 1.3l-.4.6zM501.2 182c-.3 0-.7-.2-1.1-.4l-.4 2.8c.8-.5.7-3.2 2-2a228 228 0 0 1-.7-16l-.6.7-.6-.5c-1 5.5 1.1 10 1.4 15.4zM277 66.7c1.2.7 1.3-1-.1-.7.6 2.2-2.5-.2-2.7 1.5h-2.4v-.8c-2.5.8-5 .5-7.3-.7-1.3-1.9-4.2 2.2-5.5-.3.7 0 1.5.8 1.8-.2l-1.3-.5c.2-.4.8-.2 1.3-.4-22.6 1.8-46.2-.4-69.5 0-35.8 1.6-71.5 5.8-107.4 5-13.5-1.4-65.3-4-69.3 8.7-.5 56-3 112-3 168.2.4 26.3-2.6 42.6 30.7 37.2 42.2-1.9 84.5 1.9 126.7 1.6 78-4.5 156.7-3.2 234.8-5.2 18.8.6 37.6-.2 56.3-1.9 11.9-.9 25 3.1 35.3-5 15.8-9.8-.2-39.6 3-57-4.2-36.3-3-73.2-7.3-109.6C488.5 75 489.8 78 462.3 71a26 26 0 0 0-9.2-1l6.8 1.2c-5.3 1.2-10.3-2.2-15.5-2.8 1.7-1 3.5.2 5-.8-7-.8-14.2-1.7-21 0 4.8.6 9-.1 13.8.7l-1.8.6c-21.4-.4-45 3.3-67.5 3.5 1.2-1 10.8-.5 4.5-1.7l.4-.7c-4.7 2.5-10.9-.5-15.5 1l2 .5c-5.4.7-10.8-1-16.4-1.5l1.4-1h-1.8v.9c-1.7-.3-10.8 1-10.1-1.1-.8-.2-.6.1-1 .7-3-.7-9 1-11-1 2.3-1 4.4.6 6.4-.1a12 12 0 0 0-7.2-.9l.8 1c-.5.6-1.5-.8-1.6.2h1.1c-1.6.9-3 0-4.8 0l.7-1-1.7-.2c-7.7 0-29.7.1-42.4-.2l.3-.6zM13.3 77c-10.4 9.3-3.5 28.4-8.4 41-5.5 18.4-2.4 36.7-2.6 55.4 1.1 24.2-.4 48.6-.2 72.9-3 77 45.3 50 97.9 54.8 54.4 0 108.3-4.2 162.7-4.4 67.2 3 136-1.8 202.3-4.5l11-.8c-.3-2.7 2.8-2.5 4.6-2.6 25-1.4 28.6-10.2 25.6-33.3-.5-10.1-1-50.6-3-25-.7-4.7 0-9.4-.1-14-.5.2 0 1-.6 1.1l-.6-2.2a95 95 0 0 0-.1 28.5c1.6 7 1.9 14.4 2.9 20.5-2.3 4.3-2.2 10-7 12.4-13.9 7-29.7 7.8-45 8.6-47.8 6.7-96.2 2-144 5-54-2.3-108.3-3-162.4-2.4-34.6.4-69 5.7-103.8 2.4-42.5-.6-29.7-30.8-31.2-61.4 2-20.5-1.9-40.8-.7-61.2 1.2-30.3 3.9-60.4 2.7-90.8zm31.6 226.3c-.2 5.2-2.3 17.7 6.1 16.3 3-1 5-3.2 4.5-6.5-.7-10-.2-11-10.6-9.8zm458.3-97.6c5.5-22 2.4-48.7.8-71.8a44.3 44.3 0 0 0-.2 15.3l.6-.7c1.2 2.6-1.5 4-.8 6.5l1-1.3c-.6 7.8-.2 15.2 0 22.9l-.8-1.8c-.7 9.9-.1 20.7-.6 30.9zm-4-28.6c-1-5-.7-9.7-1.5-13.7-3.2 1.9-.6 16 .3 19.7 0 5.9 1.2 11.5 1.3 17.2 2 2.4-1.5 6.4 1.3 7.6 1.3-7.7-3.5-26-.7-28.6.3-1 .2-1.9-.7-2.2zm1.4-18.5c-.3-3 .5-6 .4-8.8-.3-2-4-18.3-3.8-8.5l1.1-.8c.6 1.5-.6 3 .3 4.4l.5-1c.5 3.7-1.2 7.3-.5 11 2.8-13.3-1.9 12.5 2.5 10.5-.2-1.9.6-3.1 1.1-4.8-.6-3.5.2-6.3.2-9.7l-1.8 7.7zm-.8-38 .8-.1c-.7 4.1-1.2 9.8.8 13.5.3-3.1 1-6.1.4-9.1.4.3.4.5.6 1 .3-1.6-.2-2.3-.4-3.7.6-2 .8-3.8-.1-6-.3 1.6-.5 2.4 0 3.8-1.3.8.5 2.7-.3 4.3-1-3.6-.5-7.1-1.7-10.6-.4 2.3.2 4.5-.1 7zM466 280.5v-.4c-10.8 1.7-22 .2-32.7 2 10.9 0 21.9 0 32.7-1.6zm-1 21 10.2-.3c.5-3-10.5-3.2-10.2.3zm-.2 7.2c3.9-.7 7.4-1 11.3-.8-.8-2.7-11.8-3.3-11.3.8zm37-125.3c-2.2 3.3-.4 10-.8 14.2 1.2 11.3.7-9.8.7-14.2zM357.3 62c3.4 1.2 7 1 10.1-.6-1.4-1.8-6.5-2-8.3-.5h4.4c-2 1-4.1 1-6.2 1zm21.2 2.8c-3.8.5-21-1-8.2 1.6l.1-.9c2.2 0 7.7 2.3 8-.7zM476.7 310c-2.2-1-14-.7-10.1 1.8 3.4-1.1 6.8-.6 10.1-1.8zm-11-6.4c2.6 2 7.1 0 10.3 1-.9-3.3-7.5-1.7-10.3-1zm-66.6-234a46 46 0 0 0-13.6 2c3-.8 13.2.4 13.6-2zm36-11c-1.2-.3-1.6-.3-2.4.2l1 .5-5 .4.1 1c3.7-1.1 7.8 1 11.4-.7-1.9-.7-3.7-.5-5.5-.9l.4-.5zM465.6 295c3.3 0 6.5-.7 9.8-.3-.5-2.8-7.7-.8-9.8.3zM499 99.3c0 3 .4 6.1 2.3 8.6 0-3-.3-6.7-2.3-8.6zm-83.6 187.2c2.5 1 7.8.5 11.2-.2-3.7-1.1-7.5-.2-11.2.2zM460 67.1c-7.6-.7-6.3 2 .4 1.6L460 67zm15.4 229.4c-2.6-.6-5-.5-7.4.5 2.3.6 4.8.3 7.2.8l.2-1.3zm24-87.8c.3 12.8 1 11.2 1-.1l-1 .1zm-2-52.1c.7-2.3 1.5-7.2-.4-9.3-.2 3 .3 6.1.4 9.3zm-38-97.9c-2 .2-3.6.2-5.2.9 1.4 1.6 4.9 1.9 5.2-.9zm37.9 70.1h.1c-.4-3.6.2-7.2.1-10.9-2.4 2.6.1 7.4-.3 11zM408 62.3c-1.1-.6-4.4-.4-6.2.3 1 0 1.2.4 1.2 1 1.9-.4 3-.5 5-1.3zm94.4 112c.6-2 1.6-4.4.1-6.2-1.3 2.1-.4 4 0 6.3zm.8 41.3a32 32 0 0 0-.2-9.3c-.6 2.7 1.2 7.3-1.4 8.5.6.1 1.4.6 1.6.8zm-7.6-53.1c.6-.2 1-.4 1.3.2-1-2.3-.4-4.7-1-7.1-.9 1.5 0 4.7-.3 6.9zM475.8 60.6c-.6 2 2.6 2.6 3.7 1.7-.9-1-1.6-1.4-3.7-1.7zm19.6 83.8c-.5 1.8-.3 3.4.2 5.3 1.2-1 1.3-4.4-.2-5.3zM360.5 66.7v-.4c-5.7-2.3-6.6 1.7 0 .5zm42.5-.4c-.2-1-6.8-1.9-7-.3l7 .3zm45-5.1c-1.4.3-2.6-.3-3.8.6 2 .8 4-.4 6-.3-1-1-1.8-2.5-2.2-.3zM204 63.5v.5c2.3 0 4.6.9 7.2-.5H204zm152-2.8c-1.6 1.5-3-.6-4.9.4 1.4 1.6 3.3.4 5 1.5v-1.9zm5.5 3c-2.3 1.3-3.7-.3-6.2 0 1.8.5 6 3 6.2 0zm139.4 75c-.8 1.7-.2 5.1.6 7.1.4-2.4-.5-4.7-.6-7zm-5.9-10.2c2-.6 0-3.6.2-5.4a8.5 8.5 0 0 0-.2 5.4zM345.1 62c1.3.9 3.6 1 4.8.5-1.5-1.1-2.9-.7-4.8-.5zm86.3 222c2.7.9 6-.4 8.8-.3v-.3l-8.8.6zM380.6 70v.4c8.6-.1 8.6-1.3 0-.4zm13.3-7.8c-2 .4-3.3-.6-5 .8 1.9 0 3.9.7 5-.8zm-11.6 2c2 .8 4 .8 5.1 0-.8-.3-3.5-.4-5 0zm120 70.3c-.4 1.6-.3 5 .3 6.3.2-2.2.3-4.2-.2-6.3zM397 58.3v-.4c-2 .2-4.3 0-6 1.1l6-.7zm100.5 133.4h-.2c.2 2-.3 4.3 1 6-.2-2.3-.5-4.1-.8-6zm-224.4-127c.7 1 2.7 2.1 2.7.2-.8-.7-1.6-.3-2.7-.2zm201 217c-1.9.3-3.8 0-5.5.7 1.9.2 3.7 0 5.4-.6zM415.3 62.7v.4h4.4a7.1 7.1 0 0 0-4.4-.4zm86 149.9c1.4-.5 1-2.4.6-3.5-.8.3-.3 2.3-.6 3.5zM467.5 59.8v.4c1.5 0 2.6 1 4.1-.1-1.5 0-2.8-.5-4-.3zm-16-2.5c.7.8 2.7-.2 3.9 0-1.3-.3-2.7-1.3-3.9 0zm-391.7 233h3.6c-1.1-.5-2.3-.7-3.6 0zm436.4-183.9c.4 1.1-.1 2.4.5 3.5-.1-1.2.5-2.4-.5-3.5zM392 69.5c1-.4 2-.2 2.8-1.3-1.1.2-2.2-.2-2.8 1.3zm-20.6-1.4h3.1c-1-.3-2-.7-3.1 0zM242.3 285.8c1.2.3 2.4 1 3.7.1l-3.7-.1zm256.6-179c-.7 1-.8 1.7-.2 3.3l.2-3.3zm4.5 54.3c-.4 1.8-.3 3.1.3 3.9 0-1.4-.2-2.7-.3-4zm-88-102.6v-.3c-1 0-2.2-.2-3 .8l3-.5zm83 105.5c.2-1 .4-2 0-3a3 3 0 0 0 0 3zm5.8 50.9v3c.4-1 .6-2 0-3zM494 90.3c0 .8-.4 1.7.6 2.4.2-1 0-1.7-.6-2.4zm-28.6 207c1 .6 1.3.6 2-.3-.7-.2-1.4-.3-2 .4zm-21-241.5c.9-.2 1.2 1 2.2.8-.3-1.5-1.4-.8-2.2-.8zm-8.8 230c-1 .1-2-.3-3.3.2 1.3.6 2.3-.2 3.3-.1zm59.9-131.3h.4l-.2-2.8c-.4 1-.5 1.9-.3 2.8zM225.8 63.3c.9.5 1.7.8 2.6 0h-2.6zM475.6 66c0-.5 0-.8-.2-1.2l-1.8.7c.6.8 1.3.4 2 .5zm-4.4-1.4c-.9 0-1.7-.5-2.6.1 1.2.2 1.8 1.2 2.6-.1zm-57.4-1c-.9-.2-1.7-.4-2.8 0 1.2.5 2 .4 2.8 0zm81.7 24.7-.3.1.8 2.6h.3c-.2-1 0-2-.8-2.7zM406.7 287c.8.5 1.6.7 2.6 0h-2.6zM462 65.2c.7.7 1.4.4 2.1 0-1.2-.7-1.2-.7-2 0zM262 287.2c.3-3.4-2.6 1.5-.6-1l.6 1zM366.9 67c-.8-1-1.6-.4-2.3-.1l2.2.2zm29 219.6c-.9-.6-1.3-.6-2.1 0h2zM397.5 63c-1.1-.8-1.1-.8-2 .2l2-.2zM337 65.4c-.4-.7-2.2.2-3.1 0 1 .2 2.1.5 3.1 0zM246.6 286c1 .6 1 .6 2.1 0h-2.1zM442.4 61.8c-.5-1-1-.7-1.8-.2.5 1 1.2-.2 1.8.2zM502.6 175c-.5.8 0 2.4-.2 3.5h.2V175zm-9.8-63.3h.4l-.3-1.9h-.3l.2 2zM379.5 66.5v.4l2.3-.2c-1-1-1.6-.1-2.3-.2zm72.8-1.9c-.6-.8-1.4-.2-2.2-.4.8.5 1.4.9 2.2.4zM234.7 64v-.4c-.6 0-1.7-.3-2.2 0l2.2.4zm117.6-4.3v.4l1.7-.2c-.7-1-1.2-.5-1.7-.2zm48.2 3.6v.4l1.6-.2v-.3h-1.6zm100.9 83.1c-.6.8-.5 1.4 0 2v-2zM251.2 286.1v.5l1.8-.1c-.6-.2-1.2-.1-1.8-.4zM364.4 66l.3-1h-1.4l1 1zm104.9-3.5V62c-.5 0-1.8-.9-1.9 0l1.9.4zm-171.6 220h-2.4c1 .7 1.6 0 2.4 0zM135 287l.1-.1h-2.6v.1h2.5zm359-166h.4c0-1.2 0-1.2-.5-1.8l.2 1.7zm8.7 7.7c.3-.6.3-1.2-.4-1.8.2.8.1 1.2.4 1.8zM426 63.4l-1.8-.2c.4.8 1 .7 1.8.2zm72 40.7c-.2 1.5-.2 1.5.4 1.6a2 2 0 0 1-.4-1.6zM218 63.4v.5l2-.3-.1-.4-2 .2zM498.3 158c.4-.7.8-1.3 0-2v2zM458 65.8c0-.6-.7-.2-1-.3 0 .5.6.2 1 .3zM418.6 58h-1.7c.7.7 1.2.4 1.7 0zm-215.8 6c-.3-.8-1.4-1-1.4-.3l1.4.2zm77.3 2V66h-1.4c.5 1 .8.5 1.4.2zM496 94.3h.4l-.4-1.6h-.3c0 .6.2 1.1.3 1.6zM329 66v-.2l-1.5-.2v.3l1.5.2zm137.2 216.7c0 .5.8 0 1.1 0-.4-.4-.8-.3-1.1 0zm-1-214h1.4c-.6-.2-.6-.2-1.5 0zm32.3 88.8h-.3c0 .5.2 1 .3 1.4h.2l-.2-1.4zM407 58.8c.1.6 1.2.3 1.7-.5l-1.7.5zm59.6 5.6c0-.7-.8-.5-1.4-.3.7.3.8.5 1.4.3zM393 286.3c0-.6-1 0-1.6-.2v.2h1.6zm-43-218.9.1-.2c-.5 0-1-.6-1.7.1l1.6.1zm143 19 .3 1.1c.8-.6.2-.9-.3-1.2zM384.6 68.4h1.4c-.4-.7-.9-.4-1.4 0zM276.4 285v.2h1.3v-.2h-1.3zM451.9 59.9h-1.7c.5.4 1 .5 1.7 0zM253.6 284.5v.4h1.6c-.1-.5-1.1-.2-1.6-.4zM496.2 86.7l-.4.1.3 1c.4 0 0-.7.1-1zm-227-21.4.1.3h.8v-.3h-.8zm225 33.8.4-.1-.3-1.2h-.3c0 .5.2.9.3 1.3zm-57 186.3v.3c.5 0 .9 0 1.3-.2 0-.4-.9 0-1.3 0zm54.3-180.6c.4-.3.1-1-.2-1.5l.2 1.5zm-28.9-45.3v.4c.3-.1 1 .1 1-.3l-1-.1zm18.5 8.5 1.3.5c-.4-.6-.6-1-1.3-.5zm-15.9 2v.1l1.2.1v-.1h-1.2zm.2-3.1c.3.2 1 0 1.4 0h-1.4zm-122.6.8v-.5h-.9c-.2.5.5.3.9.5zM244 285v-.2l-.7-.2v.3l.7.1zm260.4-74h-.3l.2.6c.3 0 .1-.4.1-.7zM429.2 56c0 .3.6 0 .9 0h-.9zm73.8 74.8h.4l-.2-.8c-.4 0-.1.5-.2.8zm-143.5-60v.2c.3 0 1 .2 1.1-.2h-1zm-119 215v.2h.8c0-.4-.6-.2-.8-.3zM462.9 68.2c.2.3.9 0 1.3.1-.2-.3-1 0-1.3-.1zm34 47.2h.2l-.3-.7h-.2l.2.7zM286.5 286.1v.2l.8-.2c-.1-.1-.5 0-.8 0zm212-86.7h-.3l.1.8h.3l-.1-.8zM215.9 63.6v-.2h-.9c0 .4.6.1 1 .2zm245.2-4.2v.2l.7.1v-.3h-.7zm40.4 145.8c-.3.1-.3.4 0 .7.5 0 .1-.5 0-.8zM212.7 63.5v-.1h-1v.2l1-.1zm289.5 100v.9c.1-.2 0-.6 0-.8zm.1 17.7h.2l.2-.7h-.3v.7zM333.7 68h.3c-.2-.3 0-.8-.5-.6l.3.6zm145.8 212.8-.1-.2-.8.3.1.2c.3 0 .5-.2.8-.3zm-393.4 9c-.1.4.7.2 1 .2 0-.4-.6-.2-1-.3zm418.4-81.2c-.3 0-.1.5-.2.8h.3v-.8z"/>
        <path d="M302.5 61.8h-1.7c1-.8 1-.8 1.7 0zM467.5 336.2c-.1.9-.4 1.3-1.4.6l1.4-.6zM303.8 62l-.7-.7c.6-.6 1.2 0 .6.7zM466.2 339.6c-.6-.2-.6-.6-.7-1.2.6.3.9.6.7 1.2zM341.1 59.2l-1 .1c.3-.7.3-.7 1-.1zM496.4 327.8c-1 0-1-.4 0-.5v.5z"/>
        <path class="st0" d="m324.9 68.8.5-.3c2 2 8 .4 11 1 .3-.5.2-.9 1-.7-.7 2 8.4.9 10.1 1.1v-.8h1.7l-1.3.9c5.6.6 11 2.3 16.5 1.5l-2.1-.4c4.6-1.6 10.8 1.4 15.5-1l-.4.6c6.3 1.3-3.3.7-4.6 1.8 22.5-.3 46.2-4 67.6-3.6l1.8-.5c-4.9-.9-9-.1-13.8-.7 6.8-1.8 14-.8 21 0-1.5 1-3.3-.2-5 .7 5.2.6 10.2 4 15.5 2.8l-6.8-1c1-.6 7.5.2 9.2.8 26.7 7.2 26.3 2.9 28.7 35.7 4.3 36.4 3.2 73.3 7.4 109.6-3.1 17.4 12.7 47.2-3 57-10.3 8-23.4 4-35.3 5a472.4 472.4 0 0 1-56.3 1.8c-78.1 2-156.8.8-234.8 5.2-42.2.3-84.5-3.5-126.7-1.6-32.7 5.5-30.6-10.6-30.8-37.2 0-56.1 2.6-112.1 3-168.2 3.6-12.8 56.8-10 69.4-8.7 35.9.8 71.6-3.3 107.3-5 23.4-.4 47 1.8 69.6 0-.5.2-1.2 0-1.4.4l1.4.5c-.3 1-1 .2-1.8.3 1.3 2.4 4.2-1.7 5.5.2a9 9 0 0 0 7.2.7v.9l2.4-.1c.5-1.5 1.9 0 3-.8h-.1l-.3.7c12.6.2 34.8 0 42.4.1l1.6.2-.7 1c1.8 0 3.3 1 5 0h-.1zm-11 108.7c8.7-2.2 8.2-11.7-.9-12.8-4.4-.4-14.3 1.8-12.9 7.6.8-.4.8-.4.7-1-.3-2.4 2.2-3 3.8-4.2-1 3.3-1 7.8 2.2 9.6-2.5-.1-4-2.8-5.8-4.2.4 2.7 4.8 5.7 7.3 4.8 1.5 1 4 1 5.7.2zm11-17.1c-5.5-6.5-21.8-.7-29.6.2-2.5 5.4-2.8 25 4.6 26.6 13 2 30.7 2.1 26.7-16 .5 16.2-7.6 15.8-21.3 16-12.5 1.8-12.7-19.8-8.8-26.2-.2 7.5-1.7 17.7 4.6 23 7.2 1.9 23 3 22.3-7.4-.4-3.6-1.3 2.5-1.4 3.8-4.5 4.7-16.5 5.4-22 1.6-2.6-4.5-5.9-19.4-.9-22 15.9-.3 27.2-9 23.8 14.1 2.2-3.2-1.3-15.6 2-13.8.8 2.3.8 4.8 1.8 6.9.3-2.1 0-5.4-1.9-6.8zm-220.2 88.5c-5-5.7-28.5-5.8-34.6-1.6-2.1 8.6-6.4 24.5 1.7 30.5 24.1 3.3 44.4 4.9 35.5-26.6 2.2 11.2 3.8 27.8-12 26.9-8 1-17.5.8-24.9-2.2-5-9.5 1.3-39.8.6-13-2.1 15.4 9.3 12 19.9 12.3 18.2 5.7 14-15.4 13.8-26.4.3.6.7 1 1.3 1-.5-.8-.5-.8-1.3-1zm293.8-25.5h-.2c-2.6 10.2 31.5 3 38.7 5 12.7-1.4 53.1 11 51.2-9.5-.3-8.1 1-20-3.5-27-13.3-.8-26.4 1.4-39.7 1.1-39.8 4-53.4-16.4-46.5 30.4zM210.1 234v.2c-13.1 1.8-28.2-.3-40.1 5a41 41 0 0 0 2.7 33.5c18.5 9.3 41 1.5 61 2.5 31.5-2.2 62.8 1.3 94 1.6 13.6-.3 27.3 2 40.7-1.6 15-1.1 8.3-28.9 7.1-39-6.2-7-37-4-47.7-5.1-39.3-2.4-78.4 1.7-117.7 3zm121-21.3h.2c-1.3-14-2-23.6-19.2-19.8-6.8 2-21.8-3.3-23.8 5 .5 7.3-3.5 27.4 6 28.4 8 .6 15.9-.4 23.6-1.4 7.8.4 15.6-3.2 13.2-12.2zm-87-1.9c-.2 12 3 17.7 15.7 16.5 7.7-1.4 21.3 3 25.5-5 1.2-7.3-1.1-14.7-1-22-1-6.5-7-5.3-12-5.6-14.5 3.8-29.4-4.8-28.3 16.1zm-42.6-73.8c-3 21.8 13.1 22.4 30.3 20.2 16.1.2 15.5-16.7 14.1-28.7-.2-11.2-13.3-9.7-21.3-10-14.1-3.2-27 2-23 18.5zM351 119.5c-22-.1-19 5.8-19.2 24.7 1 15 24.8 9.7 33.7 5.5 3-8.3 1.3-19.8-1-28.3-3-4.6-9-1.6-13.5-1.9zM235.4 228.8c10.2-1.1 4.3-22.4 3.8-29.7-3.4-4.6-10.8 0-15.8-.7-5.2 1.1-11.9-1.4-16.3 1.4-4.4 35.5-3.5 28 28.3 29zm154.3-43c6.2-1.6 18.4 2 20.1-6-.1-6.2 3.5-27.5-4.7-27.7-8 1.4-25-4.5-26.3 6.8 2.3 8.8-3.2 31.7 11 27zm-251.4 14.3c7-1.8 19.1 1 21.6-7.7 1.2-7.5 3.7-23.6-5.8-26.2-9.6-1.7-28.4-5.7-32.2 6.4-3.6 17.2-4.5 27.7 16.4 27.5zm244-80.8c-7-.6-13.9 3-11.4 10.9.6 5.6-.6 11.8 2.1 17 7.4 6.7 20.2 1.3 29.1.3 3-7 .2-16.4-1-24-2.8-7.5-12.5-4.2-18.7-4.3zm-2.7 66.2c-1.2-10-1.7-20.3-3-30.3-1.9-2-6-.2-8.8-.5-4.6.6-9.9-1.3-14.1.4-3.4 6.7-4.8 27 3.2 30.7 7.4 0 16 2.4 22.7-.3zm-64.8-30.8v.1c15.4 1.2 13.9-20.5 10.7-30.4-7.9-4.6-20-2.3-29.2-2.2-7.5 4.1-5.2 16-5.2 23.5.4 12.4 15.3 8.7 23.7 9zM455.4 260h-.1c-1.4 16.4 18.4 14.5 29 10.6 8-5 3-22.9 3-31.4-2.2-7.6-14.1-3.2-20.2-5.4-16-3.4-12.1 16-11.7 26.2zM328 181.2h-.1c-.6 9.4 12.5 6.5 18.2 5.1 8.8-5.9 3.4-20.3 4-29.4-25.1-8.3-22.2 4.5-22 24.3zM87 239.8c13.1 1.8 36.2 2.9 30.3-16.6 0-11.1.4-15.5-11.7-18.7-17.4 6.9-90.7-1-89.9 10.7.5 23.3-2.5 27.4 23.6 25 16-2.5 32 3.4 47.8-.4zm309.2-133.5c14.2 11 34.4 3.3 51 4 19.4 0 36.5 2.8 33.2-23.2-.8-18-50.4-7.8-64.5-10-27-2.3-23.1 6.8-19.7 29.2zm-198.5 36c-1.4-6.9-.2-18.4-8.7-20.6-11-2.2-34.4-5.3-34 11.3 1 9-.7 27.5 12.2 26.3 12.5 0 31.9.3 30.5-17zm211.8 4c26.7-2 19-2.1 16.5-25.3-1.7-5.6-20-3.2-21.7 1-.2 5.7-2.2 23.8 5.2 24.4zm-392.3 1c-1.7 26.7 42.2 11.3 58.2 15.6 8.8-.4 22.7 1.2 27.7-7.2 1.5-9.7 4.2-26-4.9-32.3-16.8-4.2-34.6.6-51.8.3-21.6-.5-30.1-2-29.2 23.6zm145.7-47.8c.3-21.6-9.4-22.4-28.3-21.9-14.8-1.9-17.3 12.5-16.9 24.6 1.7 15.7 7.7 15.1 21.5 15.6 14.9-1.6 25 .3 23.7-18.3zm72.3-24c-6.1 2.1-17.8-1.6-20.5 5.6-.7 10-3.3 25.8 7.1 31.4 10.4.1 24.4.7 32.8-6 6-13.2-1.9-35.5-19.4-31zM100.5 200c4.8-1.3 12.4.4 15.3-4.7.2-8 2.5-17.3-1.4-24.7-6.6-7.9-20.5-3.3-29.8-3.7-15.8 1.7-31.5-1.2-47.3-.7-9.8.5-20.5-.3-18.4 13-1 7-.8 14.3.3 21.3 2.6 2.5 7.2 1.6 10.5 2.4 23.5-3.4 47-3 70.8-2.9zm315.2-46.6c-5.3 16.6-8.7 36.1 15.7 33.3 17.2-2.3 37.4 1.8 53-4.1 1.7-7.8 7-25-1.4-29.5-21.8-4-45.6-1.6-67.3.3zM173.5 77.6c-6.8 7.2-7.3 29.1.4 36 11 2.8 30.7 4.2 37.2-6.6 2.7-34.8-7.3-33.4-37.6-29.3zM45.6 243.8v-.3c-7.6 1.2-19.6-.8-23.8 6.8-1.2 8.3-3.5 22 5.4 26.8 10 .6 32.8 4 36.3-7.8-.7-14.5 3-30-17.9-25.5zm370.8 23c-.3-36.2 3.7-35-32.6-33.1a46.9 46.9 0 0 0 2.2 34.6c7.8 5.3 23.7 5.6 30.4-1.5zM286.7 130.7c.5-17.8-22-8.7-32.3-7.3-6.6 4-8.6 20-6.6 27.4C253 161 269.7 158 279 157c12-1.5 7.8-17.8 7.6-26.2zM345 97.9c1.2-20.5-21.5-23.3-36.5-18.3-4.4 9.3-5.7 27.7 5.7 32 11.3-.4 31.6 3 30.8-13.7zm-192.4 38.6c1-6.4-3.5-15.5-10.8-13.3-8.4-.2-17.5-1.3-25.6 1.4-7-.4-9.9 5.4-8.9 11.7.6 6.5-1 13.9 2.3 19.8 8.8 7.4 22.8 3.2 33.5 2.6 11-1.1 10-14 9.5-22.2zm276.1-9.6c.9 10.1.6 22 14.3 15.1 3.8-3.6 2.2-22-2.8-24-6.3-.4-12.7 1.3-11.5 8.9zM361.5 111c38.2 3 31.7-35.7 12-32.1-9.5-.3-27.7-2.7-26 11.8-.2 9.4 1.2 23 14 20.4zm-59-15.6c-1.5-6.5-2.3-17-10.5-17.8-10-1.6-31.5-7.3-30.6 8.7-.9 8.3-1.3 22.2 8 25.5 13.3 2.2 35 2.4 33-16.4zM69 104.8c-.8 19.5 28.3 9.7 39 5.5 5.5-7.4 4.6-21-.5-28.5-7.3-9.9-22-2.8-32.2-2.2-6.1 6.2-5.7 17-6.3 25.2zM32.8 82.4V82c-8.4-.8-11.3 6.4-10 13.7-.8 5.6-1.1 12.4.6 17.5 5.8 8.7 19.5 5.4 28.6 5.3 13.2-2.4 12-21.8 9.5-31.5-6.7-7-19.6-5-28.7-4.7zm344.3 145.1c6.3-2 17 1.1 17.9-8-1.3-7 2.8-21.5-4.6-24.6-7.7 1.1-21.2-4.6-25.6 3.3-1.3 12.9-5.8 29.4 12.3 29.3zm56.8 24.9c6-1 18.6 1.9 19.8-6.6 1-6-2-11.6-8.4-12.2-8.2 1.5-20.9-2.8-26.8 2.7-1.4 13.4 1.9 17.1 15.4 16zm37.9-135.8c-7 1.7-16.8-4.3-22.6 1-3.8 7-4 21 1 26.8 5.8.6 26.9 4 28.4-2.6-2.2-8.3 3-21-6.8-25.3zm-51.9 144.6c-1 9.9 5.6 13.8 14.4 12 5.6-1 16.1 1.5 19-4.5-.9-13.8 2-17.3-14.2-14.7-5.5.3-11 1.7-16.6.9-3.1 0-2 4.9-2.6 6.3zm-84-65.9c-1.1 10.3-4.6 30.2 11.7 27.2 5 1.8 4.2 1 9-.6 6-1 3-9.2 3.9-13.6 3.7-17.4-12.7-15-24.5-13zm-137.7-15.7c1.3-22-14.8-13.3-29.6-13.6-1.5.8-4-.7-3.8 1.8l-.2 10.5c-1.7 16.1 2.7 19.4 18.4 17.8 15.1-1.3 14.8-1.6 15.2-16.5zm-70 91.3c8 2.3 17.1-3.6 20.3-10.9 1.3-16.9-24-14-30.6-3-2.3 4.9 5 12.7 10 14-3.2-2.4-8-4.3-8.4-9a18.8 18.8 0 0 0 21.4 5.2c-3.3 3.6-8.3 3-12.7 3.7zm77.3-105.7c-4.4 4.8-.9 16.7-.3 23.3 4.2 8.4 26 6 32.7 1.6 4.4-7.2 2-18.1-.2-25.7-5-4.1-29-4.3-32.3.8zm-48.6 94.4c-.7-4.3 2-12.9-3.6-14.1-10.8-2.3-22-3-33-2.2-13.6-3.1-7.4 21-6.3 28.6 10.8 6 25.4 2.7 37.6 4.4 6-1.3 6.5-9.3 5.3-14.3 3.5 20-19.2 11.3-31.3 12-15.7.9-12.4-15.1-12-26.3-1.7-6.3 22-3.1 25.9-2.4 14.2.5 17-1.4 17.4 14.3zm108.4-69.4c12.2 4.1 22.4-6 18.7-18.6 2.2-10.7-8.8-11.9-16.9-12-5.6.5-14.8 0-17 6.4.7 10.8-.6 27.8 15.2 24.3-3.7-1.6-8.8 0-11.5-3.3-3.2-6.4-4.9-20 .5-24.5 3 22 .8 29.2 27.9 21.6-2.5 6.8-11.1 5.7-17 6.1zm-142.6 29.3c-.5 8 .7 16.5 10.4 16.1 8 1.3 16 .1 23.8-2.4 2.6-3 2-28-3.2-28.4-12-.2-35-3.6-31 14.7zm75.7-6.7c2.3-11.9-10.6-11-18.7-11-12.4-2.3-17.8 2-15.1 14.7-.3 17.8 18 14.4 30.4 12.7 5-3.1 2.5-11.3 3.4-16.4zm60.7-145c-.4-2-4-.5-5.6-1.2-6-.3 3.2 1.3 5.6 1.1zm106.6 4c1.7.5 4.2.7 5.4.3a18 18 0 0 0-5.4-.4zm-39.4 98c.5-1 .5-1 0-1.6v1.5zm117-101.2c-.3-.4-.6-.7-1-.1h1zM371 72c.4.6 1.4.7 1.1 0h-1zm-110.2-4.6-.2-.4c-1 .3-.7.8.2.4zm-3.4-1.5c.7.6.7.6 1 0h-1z"/>
        <path class="st0" d="M13.3 77c1.2 30.4-1.5 60.5-2.7 90.8-1.2 20.4 2.7 40.7.7 61.2 1.5 30.4-11.3 60.9 31.2 61.4 34.7 3.3 69.2-2 103.8-2.4 54.7-.7 110 .1 164.5 2.4 33.4-4.5 178.6 6.5 191.4-19.7 4-7.5 1-14.6.3-23a90.4 90.4 0 0 1-.6-32.3l.6 2.2c.6-.2.1-.9.6-1.1 0 4.6-.6 9.3 0 14 2.2-25.6 2.6 14.9 3.1 25 3 23-.6 32-25.6 33.3-1.8.1-5 0-4.7 2.6l-11 .8c-66.2 2.7-135 7.6-202.2 4.4-54.4.3-108.3 4.5-162.7 4.5C47.6 296.3-1 323.3 2 246.3c-.2-24.4 1.3-48.8.2-73 .2-18.6-2.9-37 2.6-55.3 4.9-12.6-2-31.7 8.4-41z"/>
        <path class="st0" d="M44.9 303.3c10.4-1.2 10-.2 10.6 9.8.5 3.3-1.5 5.5-4.5 6.5-8.4 1.4-6.3-11-6.1-16.3zM503.2 205.7c.5-10.2-.1-21 .6-30.9l.7 1.8c0-7.7-.5-15 .2-22.9l-1.1 1.3c-.8-2.5 2-3.9.8-6.5l-.6.7c-1.1-5-.5-10.7.1-15.3 1.7 23 4.8 49.8-.7 71.8zM499.2 177c1 .4 1 1.3.7 2.3-2.8 2.6 2 20.8.7 28.6-2.8-1.2.6-5.2-1.3-7.6-.1-5.7-1.4-11.3-1.3-17.2-.9-3.8-3.5-17.7-.3-19.7.8 4 .6 8.7 1.5 13.7zM500.6 158.6l1.8-7.7c0 3.4-.8 6.2-.2 9.7-.5 1.7-1.3 2.9-1 4.8-4.5 2 .2-23.8-2.6-10.5-.7-3.7 1-7.3.5-11l-.5 1c-.9-1.4.3-3-.3-4.4l-1 .8c-.3-9.8 3.4 6.4 3.7 8.5 0 2.9-.6 5.7-.4 8.8zm-.3 2.3.3 3h.4c-.4-1 .6-2-.7-3zm.2-1.5h-.1v1l.3-.1-.2-.9zM499.8 120.7c.3-2.5-.3-4.7 0-7 1.3 3.5.9 7 1.8 10.6.9-1.6-1-3.5.3-4.3-.5-1.3-.2-2.2 0-3.7 1 2.1.7 4 .2 5.9.1 1.4.6 2 .3 3.7-.2-.5-.1-.7-.6-1 .5 3 0 6-.4 9-2-3.6-1.5-9.2-.7-13.4-.4 0-.6 0-1 .2zM466.1 280.4a233 233 0 0 1-32.7 1.7c10.7-2 21.9-.4 32.7-2.2v.5zM465.1 301.4c-.3-3.5 10.7-3.3 10.2-.3l-10.2.3zM464.9 308.6c-.5-4 10.5-3.6 11.3-.8-3.9-.2-7.4 0-11.3.8zM501.2 182.1c-.3-5.4-2.5-10-1.4-15.4l.6.5.6-.7c0 5.3.3 10.6.7 16l-.5-.4zm-.8-8.7h.2v-1h-.2v1z"/>
        <path class="st0" d="M501.8 183.3c0 4.4.5 25.5-.7 14.2.4-4.1-1.4-11 .7-14.2zM357.4 62c2-.2 4.3-.2 6.2-1.1h-4.4c1.8-1.5 6.9-1.3 8.3.5a12.6 12.6 0 0 1-10.1.6zm7.2-1.2v.3l2 .2c-.6-.7-1.3-.6-2-.5zM378.6 64.8c-.4 3-5.9.8-8.1.7l-.1.9c-12.8-2.7 4.4-1.1 8.2-1.6zM476.7 310c-3.3 1.2-6.7.7-10.1 1.8-3.9-2.5 8-2.7 10.1-1.8zM465.7 303.6c2.8-.7 9.4-2.3 10.3 1-3.2-1-7.7 1-10.3-1zM399.1 69.6c-.4 2.4-10.7 1.3-13.6 2 4.3-1.5 9-2 13.6-2zM435.1 58.6c0 .2-.2.3-.4.5 1.8.4 3.6.2 5.5 1-3.6 1.7-7.7-.5-11.4.6v-1l5-.4-1.1-.5c.8-.5 1.2-.5 2.4-.2zM264 286.5l.4-.5c-1.3-1-3-.6-4.5-1.4 2-.2 6.5-1.5 6.5 1.5 1-1.2 3.2-1 4.7-.2-1.2.3-2.5-.6-3.6.6.5.3 1.2.2 1.2.7-1.6 0-3.4.4-4.7-.7zm1.4-1c-.6-.7-.9-.7-1.3-.1h1.3zM465.6 295c2-1.2 9.3-3.2 9.8-.4-3.3-.4-6.5.3-9.8.3zM499 99.3c1.9 1.9 2.2 5.7 2.2 8.6a14 14 0 0 1-2.3-8.6zM415.3 286.5c3.7-.4 7.5-1.3 11.2-.2-3.4.7-8.7 1.3-11.2.2zM460 67l.4 1.7c-6.7.4-8-2.3-.4-1.7zM475.4 296.5l-.2 1.3c-2.4-.5-4.9-.2-7.2-.8 2.4-1 4.8-1.1 7.4-.5zM499.5 208.7l1-.1c0 11.4-.8 12.8-1 .1zM495.6 136c1 2.5 1 6.2.3 7.5-.6-2.2-1.8-5.8-.3-7.5zM497.4 156.6c-.1-3.2-.6-6.2-.4-9.3 1.9 2.1 1.1 7 .4 9.3zM459.4 58.7c-.3 2.7-3.8 2.5-5.2.9 1.6-.7 3.2-.7 5.2-.9zm-1.1 1.2-1.3.1c.4.5.7.6 1.3 0zM497.3 128.8c.3-3.5-2.2-8.3.2-10.9 0 3.7-.5 7.3 0 11h-.3zM408 62.3c-2 .8-3.1 1-5 1.3 0-.6-.2-1-1.2-1 1.8-.7 5-.9 6.2-.3zM325.4 68.5l-.8-1c2-.5 5.9 0 7.2 1-2 .7-4.3-1-6.4 0zM502.4 174.4c-.3-2.2-1.2-4.2.1-6.3 1.5 1.8.5 4.3 0 6.3zM503.2 215.6a4 4 0 0 0-1.6-.8c2.6-1.2.8-5.8 1.4-8.5.6 1.1.5 7.7.2 9.3zM495.6 162.5c.3-2.2-.6-5.4.3-7 .6 2.5 0 4.9 1 7.2-.4-.6-.7-.4-1.3-.2zM475.8 60.6c2 .3 2.9.6 3.7 1.7-1 1-4.3.3-3.7-1.7zM495.4 144.4c1.5.9 1.4 4.3.2 5.3-.5-1.9-.7-3.5-.2-5.3zM360.5 66.8c-6.7 1.2-5.7-2.8 0-.5v.5zM403 66.3l-7-.3c.2-1.6 6.9-.8 7 .3zM448 61.2c.4-2.2 1.2-.7 2.2.3-2 0-4 1-6 .3 1.2-.9 2.4-.3 3.8-.6zM203.9 63.5h7.2c-2.6 1.4-5 .5-7.3.5v-.5zM356 60.8v1.8c-1.7-1.1-3.6.1-5-1.5 1.8-1 3.3 1.1 5-.4zM361.4 63.6c-.3 3.1-4.4.6-6.2.1 2.4-.3 3.9 1.3 6.2 0zM499.2 134c-.5-2.3-1.5-5.4-.4-7.6.5 2.6.7 5 .4 7.6zM500.8 138.8c0 2.3 1 4.6.6 7-.8-2-1.4-5.5-.6-7zM495 128.5c-.6-1.1-.6-3.6 0-5.4 0 1.8 1.8 4.8 0 5.4zM345 62c2-.2 3.4-.6 5 .5-1.3.6-3.6.4-5-.5zM431.4 284l8.8-.6v.3c-2.9 0-6.1 1.2-8.8.3zM380.5 69.9c8.6-1 8.6.3 0 .4V70zM393.8 62.1c-1.1 1.5-3.1.8-5 .8 1.7-1.4 3-.4 5-.8zM382.2 64.2c1.6-.5 4.3-.5 5.1 0-1.1.7-3.2.7-5 0zM502.3 134.4c.5 2.1.4 4.1.2 6.3-.6-1.3-.7-4.7-.2-6.3zM397 58.3l-6 .7c1.7-1.2 4-.9 6-1.1v.4zM495.6 136v-2.7l1.3.6-.7.9 1 .2c-.1 1-1.1.8-1.6 1zM497.5 191.7l.9 6c-1.4-1.7-1-4-1.2-6h.3zM273 64.7c1.2-.1 2-.5 2.8.2 0 2-2 .8-2.7-.2zM474 281.8c-1.7.5-3.5.8-5.4.6 1.8-.7 3.6-.4 5.4-.6zM415.4 62.6a7 7 0 0 1 4.4.4h-4.3v-.4z"/>
        <path class="st0" d="M501.4 212.5c.3-1.2-.2-3.2.6-3.5.3 1.1.8 3-.6 3.5zM467.5 59.9c1.3-.3 2.6.1 4.1.2-1.5 1-2.6.2-4.1 0v-.3zM451.5 57.3c1.2-1.3 2.6-.3 3.9 0-1.2-.2-3.2.8-3.9 0zM59.8 290.2c1.3-.6 2.5-.4 3.6 0h-3.6zM361.9 287.8c-.8 1.2-3 .2-4.4.5v-.3l4.4-.2zM496.2 106.4c1 1 .4 2.3.5 3.5-.6-1.1-.1-2.4-.5-3.5zM499.2 134c0 1.4 1.1 3.2.4 4.4-.6-1.4-.5-3-.4-4.4zM392 69.5c.6-1.5 1.7-1 2.8-1.3-.8 1.1-1.8.9-2.8 1.3zM501.1 182c-.9.7-.7 1.8-1.4 2.6 0-1 .2-1.8.4-2.9l1 .4zM371.4 68.1c1-.7 2-.3 3.1 0h-3.1zM242.3 285.8l3.7.1c-1.3.8-2.5.2-3.7-.1zM499 106.8l-.3 3.3c-.6-1.6-.5-2.3.2-3.3zM503.4 161l.3 4c-.6-.8-.7-2-.3-4zM415.5 58.5l-3.1.5c.8-1 2-.8 3-.8v.3zM498.4 164a3 3 0 0 1 0-3c.4 1 .2 2 0 3zM504.2 214.9c.6 1 .4 2 0 3v-3zM494 90.3c.7.7.9 1.5.7 2.4-1-.7-.6-1.6-.6-2.4zM465.5 297.4c.6-.7 1.3-.6 2-.4-.7.9-1 1-2 .4zM444.5 55.8c.8 0 1.9-.7 2.2.8-1 .3-1.3-1-2.2-.8zM435.7 285.9c-1-.1-2 .7-3.3.1 1.3-.5 2.3 0 3.3-.1zM495.6 154.5c-.3-1-.2-1.9.2-2.8l.2 2.8h-.4zM225.8 63.4h2.6c-.9.7-1.7.4-2.6 0zM475.6 66c-.7-.1-1.4.3-2-.5l1.8-.7.3 1.2zM471.2 64.6c-.8 1.3-1.4.3-2.6.1.9-.6 1.7 0 2.6-.1zM413.8 63.5c-.8.5-1.6.6-2.8.1 1-.4 2-.2 2.8 0zM495.5 88.3c.7.8.6 1.8.8 2.7h-.3l-.8-2.6h.3zM406.7 287h2.6c-1 .6-1.8.4-2.6 0zM462 65.2c1-.7 1-.7 2.1 0-.7.4-1.4.7-2 0zM261.9 287.3l-.6-1.2c-2 2.6 1-2.3.6 1.2zM366.8 67l-2.2-.2c.7-.2 1.5-1 2.2.2zM395.8 286.5h-2c.8-.6 1.3-.6 2 0zM397.6 63.1l-2 .2c.9-1 .9-1 2-.2zM337 65.4c-1 .5-2.2.2-3.2 0 .9.2 2.7-.7 3.1 0zM246.6 286h2.1c-1 .6-1.1.6-2.1 0zM442.4 61.8c-.6-.4-1.3.8-1.8-.2.7-.5 1.3-.8 1.8.2zM502.6 175v3.5h-.2c.2-1-.3-2.7.2-3.5zM492.8 111.8l-.2-2h.2l.4 2h-.4zM379.5 66.5c.7 0 1.3-.7 2.3.2l-2.3.2v-.4zM452.3 64.6c-.8.5-1.4.1-2.2-.4.8.2 1.6-.4 2.2.4zM234.7 63.9l-2.2-.3c.5-.4 1.6 0 2.3-.1v.4zM352.3 59.6c.5-.3 1-.7 1.7.2-.6 0-1.1 0-1.6.2v-.4zM400.5 63.2l1.5-.1v.3l-1.5.2v-.4zM501.4 146.3v2c-.5-.6-.6-1.2 0-2zM277 66.7l-.1-.7c1.6-.2 1.1 1.3.1.7zM251.2 286.1l1.8.4h-1.9v-.4zM364.4 66l-1.1-1.1h1.4l-.3 1zM469.3 62.4l-1.9-.3c0-1 1.4-.1 2-.1l-.1.4zM297.7 282.4c-.7 0-1.4.7-2.4 0h2.4zM135.1 287.1h-2.5v-.1h2.6l-.1.1zM494.2 121l-.2-1.7c.5.6.5.6.5 1.8h-.3zM502.8 128.8c-.3-.6-.2-1-.4-1.8.8.6.7 1.2.4 1.8zM426 63.4c-.8.5-1.4.5-1.8-.2l1.8.2zM264 286.4c0 .8-.9 1.6-1 .5 0-.7.6-.7 1-.4zM498 104.1c0 .6 0 1.1.4 1.6-.6-.1-.6-.1-.4-1.6zM217.9 63.4l1.9-.2v.4l-2 .2v-.4zM498.3 158v-2c.8.8.4 1.4 0 2zM462.3 62h1.8c-.6 0-1.3.5-1.8-.1zM457.9 65.8c-.4-.1-1 .2-1-.3.3.1 1-.3 1 .3zM418.6 58c-.5.4-1 .7-1.7 0h1.7zM202.8 64l-1.4-.3c0-.6 1-.5 1.4.2zM280.1 66c-.6.4-.9.9-1.4 0l1.4-.1v.2zM496 94.2l-.3-1.5h.3c0 .4.2 1 .4 1.4l-.4.1zM329 66l-1.5-.2v-.3l1.5.2v.3zM466.2 282.6c.3-.3.7-.4 1.1 0-.4 0-1 .5-1.1 0zM465.1 68.7c.9-.3.9-.3 1.5 0H465zM497.5 157.4l.2 1.3h-.2l-.3-1.2h.3zM407 58.8l1.6-.5c-.5.8-1.6 1-1.7.5zM466.5 64.4c-.6.1-.7 0-1.4-.3.6-.2 1.4-.4 1.4.3zM393.1 286.3h-1.6v-.2c.5.1 1.5-.4 1.6.2zM350 67.4h-1.5c.7-.7 1.2-.3 1.7-.2l-.1.2zM493.1 86.3c.5.3 1 .6.3 1.2l-.3-1.2zM384.6 68.5c.5-.4 1-.7 1.4 0h-1.4zM462.3 61.9h-1.8v-.3l1.8.3zM276.4 285h1.3v.2h-1.3v-.2zM451.9 59.9c-.8.5-1.2.4-1.7 0h1.7zM253.6 284.5c.5.2 1.5-.1 1.6.3l-1.6.1v-.4zM496.2 86.7c0 .4.4 1-.2 1.1l-.2-1h.4zM269.3 65.3h.7v.2h-.7v-.2zM494.3 99 494 98l.3-.1.3 1.2h-.3zM437.2 285.4c.4.1 1.2-.3 1.3.2l-1.2.1v-.3zM491.5 104.8c0-.4 0-.8-.2-1.5.3.6.6 1.2.2 1.5zM462.6 59.5h1c0 .5-.7.3-1 .4v-.4zM481 68c.8-.4 1 0 1.4.5l-1.3-.5zM465.2 70h1.2v.2h-1.2V70zM465.4 66.9h1.4c-.5 0-1 .2-1.4 0zM361.9 287.8h1.6c-.8.7-1.2.3-1.6 0zM342.8 67.7c-.4-.2-1 0-.9-.5h1l-.1.5zM244 285h-.8v-.4l.9.2v.2zM504.4 211c0 .2.2.6-.1.6l-.2-.6h.3zM429.2 56h.9c-.3 0-.8.3-.9 0zM503 130.8c0-.3-.3-.8.2-.8l.2.8h-.4zM359.5 70.8h1.1c0 .4-.8.1-1.1.2v-.2zM240.5 285.7c.2.1.8 0 .8.3h-.8v-.3zM462.9 68.3c.4 0 1.1-.2 1.3.1-.4 0-1.1.2-1.3-.1zM325 68.7h-1.2c0-.6.8-.3 1 0h.1zM496.8 115.5l-.3-.6.3-.1.3.6-.3.1zM286.6 286l.8.1-.9.2v-.2zM498.6 199.4v.8h-.2l-.1-.8h.3zM216 63.6c-.4 0-1 .2-1-.2h1v.2zM461 59.4h.8v.3h-.8v-.3zM501.5 205.2c.1.2.5.6 0 .7-.3-.3-.3-.6 0-.8zM212.8 63.6h-1v-.1h1zM502.2 163.7c0 .2.1.6 0 .8 0-.3-.1-.7 0-.8zM502.3 181.3l.1-.8h.3l-.2.9h-.2zM333.8 68l-.3-.6c.5-.3.3.2.5.6h-.3zM479.5 280.8l-.8.3v-.2l.7-.3v.2zM86.1 289.7c.4.1 1-.1 1 .3-.3 0-1.1.2-1-.3zM504.5 208.6l.1.8h-.3c.1-.3-.1-.8.2-.8z"/>
        <path class="st1" d="M398.5 223.4c-7-46.9 7-26.4 46.5-30.4 13.3.2 26.4-1.9 39.7-1 4.3 5.7 2.6 15 3.8 22-.9 3.8.3 8-.6 12-12.3 8.5-29.5 3-43.5 2.8-8.8-.2-17.4-.8-26.1-.5-6-.5-19.8 4.3-20-5h.2zm78.3 4.7c-.3-1.1-1.2-.3-1.6-.6.4.5.8 1 1.6.6z"/>
        <path d="M210.1 234.1c39.3-1.2 78.5-5.3 117.7-3 11 1.1 41.2-1.8 47.7 5.2 1.3 10.1 7.8 37.9-7.1 39-13.4 3.6-27 1.3-40.6 1.6-31.3-.3-62.6-3.8-94-1.6-20-1-42.6 6.8-61.1-2.5a41 41 0 0 1-2.8-33.5c12-5.3 27.1-3.2 40.2-5v-.2zm97.2 35.2c19.3.4 44.7 3.8 62-3 2.8-8.6 3.7-26.7-5-31.2-30.3-1.5-60.4-5.5-91.4-1.6-32.1 2.2-64.6.8-96.8 4.5-5 .5-2.8 8.5-3.3 12.2 1.2 6.6-.3 20.9 9.5 19.7 8.2.8 16.4.1 24.7 0 33.3-.5 67.1-.6 100.3-.6zm-133 1.7c14.6 8.5 37.7 2.3 55.1 3 24.5-.9 49-.7 73.4.3 23 .8 49.1 5.4 70.7-3 5.2-3.7.2-45.1 0-32 .8 1.3.6 3 .8 4.3-1.5 5.6 1.7 11.5-.2 17 2 11-13 13.1-21 12-15-2.9-31.2 1-46 1a479.8 479.8 0 0 0-90-2c-14.4 0-29.6 5.5-42.8-.6zm-1.6-1.4c-1-9.5-1.8-19-1.8-28.4-4.1 7.6-2.2 20.6 1.8 28.4zm.7.3c-.2 0-.3.2-.4.3l.7.6c.4-.3-.2-.6-.3-1z"/>
        <path class="st1" d="M331.1 212.8c2.4 9-5.4 12.6-13.2 12.2-7.7 1-15.7 2-23.5 1.4-9.6-1-5.6-21.1-6.1-28.4 2-8.3 17-3 23.8-5 17.1-3.7 17.9 5.8 19.2 19.8h-.2zM244 211c-1-21 13.8-12.5 28.3-16.2 5 .3 11-.9 12 5.6-.1 7.3 2.2 14.7 1 22-4.2 8-17.8 3.6-25.5 5-12.7 1.2-15.9-4.5-15.8-16.5z"/>
        <path d="M201.5 137.1c-4-16.5 9-21.7 23.1-18.4 8 .2 21-1.3 21.3 10 1.4 11.9 2 28.8-14.2 28.6-17.1 2.2-33.2 1.7-30.2-20.2zm41-12.3c-1.1 11 5.4 29.5-11.5 28.6-25.5 3-25.6-4-27.4-26.6-2.3 21.8-.5 32.7 24.5 28.7 6-1.4 15 0 15.4-8.6.4-7 2.1-15.9-1-22.1zm-18.2 2c-10-.8-12.5 15.8-1.2 14.8 9.2 2 11.5-16.3 1.2-14.8zm6.5 1.7c9 18.6-25 18.6-14 .2-15 4.8-2.9 15 7 15 5.7 1.6 11-2.8 14.9-6.5 1.6-3.7-5-6.8-7.9-8.7zm2.3 22.3c-1.8-.6-4 0-5.5 1 1.9 0 3.7-.8 5.6-1zm-23.8-22.3v.3c.4 0 .7-.2 1-.3-.1-.5-.7 0-1 0z"/>
        <path class="st1" d="M351 119.5c19.8-5.5 15 14.6 15.7 27.4-1.4 7.8-26.7 8.7-31.8 4.6-5.8-7.6-2.2-17.8-2.4-26.6 2.5-6.6 12.8-4 18.5-5.4zM235.4 228.8c-31.8-.9-32.7 6.4-28.3-29 4.5-2.8 11-.3 16.3-1.4 5 .8 12.3-3.9 15.8.7.5 7.3 6.4 28.6-3.8 29.7zM389.7 185.9c-14.1 4.7-8.7-18.2-10.9-27 1.4-11.3 18.3-5.4 26.3-6.8 8.2.2 4.6 21.5 4.8 27.6-1.8 8-14 4.5-20.2 6.2z"/>
        <path d="M138.3 200c-20.9.3-20-10.2-16.4-27.4 3.8-12 22.6-8 32.2-6.4 9.5 2.6 7 18.7 5.8 26.2-2.5 8.7-14.5 6-21.6 7.7zm8.3-15.8c-1.5-1.6.6-4.4-1-6.5-3-6-13.4-5.8-12.2 2.5l-1.1.3c-.2-2.3.2-5.8 2.5-7-11.8.5-7.4 11 1.9 12.8.5-1.7 2.8-1.2 1.7.6l1.9.4c-1.7-2.4 3.5-2.4.8-.2 5.7.8 10.2-3.4 13.7-7.3 1-5-10.8-8.4-14.2-6.8 5.8-1.2 7.8 6.8 6 11.2zm-22.5-13.3c-11.3 27.6 6 31.2 29.7 25.8 8.8-1.9 7.6-23.7 2.4-28.5 7.2 26.7.5 31.8-25.7 27-11.7-.3-5.6-16.6-6.4-24.3zm22.5 20.8c1.4.5 5.2 0 5.5-2.2-2 .7-3.5 2.1-5.5 2.2zm-15-24.4c-1.9-.3-2.9 1.4-4 2.8 1.6-.8 3.2-1.2 4-2.8zm2.1 26.6c-2.2-.9-4.4-.7-6.7-.9 2.1 1.2 4.4.9 6.7 1zm6-26.3c-1.7 0-3.3-.2-4.9.2 1.6.4 3.2.7 5-.2zm16 2.4c-.6-1.5-1.2-2-2.6-2l2.5 2zm-15-4H137c1.3.5 2.4.5 3.6 0zm15.8 10.8c-.7-.6-1.3-1.3-2.2-1.3.7.4 1.1 1.4 2.2 1.3zm-5.2-4.2c1 .3 1.5 1 2.3.8-1-1.2-1-1.2-2.3-.8zm-5.5 15.1c1.4.5 1.7-.9 2.5-1.3l-2.5 1.3zm-7.7 2.5c.7.6 1.2.5 2 .4-.6-.6-1.2-.8-2-.4zm9.3 5c.4.5 1.7 0 2.4.1v-.3l-2.4.1zm-5.5-.8v-.5l-1.7-.1c0 .6 1.3.3 1.8.5zm-5.4-2.2c-.6-.2-1-.5-1.7-.2.5.7 1.1.3 1.7.3zm21-5.1c-.7.5-.7.7-.4 1.8l.3-1.8zm-15-19.1 2 .5c-.7-1-1.4-.5-2-.5zm7.9 26.9c0 .7 1.2.7 1.5-.3l-1.5.3zm-1.2-27.2c.6 1.1.6 1.1 1.5.7l-1.5-.7zm-1.3-1.3-.1.4 1.3.2c.1-.5-.9-.4-1.2-.6zm-14.2 23.4.1-.4-1.2-.3-.1.3 1.2.4zm-5-15.2c-.8-.1-.8-.1-1.1.8l1.2-.8zm20-1.8.3-.3-1.6-.4c0 .5 1 .4 1.4.7zm-2-6c-.7-.5-.7-.5-1.4-.2l1.3.1zm4.1 6.9v-.2l-1.2-.5v.2l1.2.5zm3.5 15.8c.6-.7 0-1.1-.6-.8l.6.8zm-2.7 3.4-.3-.3-.5.7c.4.4.6-.2.8-.4zm-23.5-4.8.1-.2-.7-.6-.2.2.8.6zm-1-2c.3 0 .2-.2 0-.5-.7-.7-.4.2 0 .6z"/>
        <path class="st1" d="M382.4 119.3c6.2 0 16-3.3 18.8 4.2 1 7.6 4 17 .9 24-8.9 1-21.7 6.4-29-.3-2.8-5.2-1.6-11.4-2.2-17-2.4-8 4.5-11.5 11.5-11zM379.6 185.5c-2.8 2-25 2-26-2.1-2-6.3-6.1-28.6 3.3-29 30 .1 16.9-2.7 22.7 31.1z"/>
        <path d="M314.8 154.7c-8.4-.3-23.3 3.4-23.7-9 0-7.4-2.3-19.3 5.2-23.5 9.3 0 22-2.4 29.2 2.2 3.2 9.9 4.7 31.6-10.7 30.4v-.1zm-11.6-21.5c-9.6 5.8 6 13.5 12 9 2.7-.2 5.7-3.7 5.8-6.2-.6-.4-1.8-.3-1.4-1.6-.4-.5-1.7-2.1-2.4-1 1.2.7 2 1 1.2 2.3-.7-1-2-1.3-2-2.6h-.6c2.7 11.5-16.2 11.3-11.7-.1l-.7 1-.2-.8zm7.8.1c-2.2-3.1-5.9.2-5.9 3.4-.2 9.8 16.6-1 6-3.4zm-6.3-.9.3.2.7-.8-.3-.3-.7 1zM455.4 260c-.4-10.3-4.3-29.6 11.7-26.2 6 2.2 18-2.2 20.2 5.4 0 8.5 5 26.3-3 31.4-10.6 4-30.4 5.8-29-10.6h.1zm6.8-5c-2.3 10.2 5.8 11.2 13.7 10.5 2.7 0 8.7 1 9.4-2 2-7.3 1.7-17.7-1.7-25-5.7-3-13.5-.2-19.9-1.6-5.2.3-1.6 9.7-2 13.5 2.3-14.8 13.8-13 22-3.5 5.5 13.3-15.8 20.6-21.5 8.2zm21.7 13.3c-16.1-1.4-25 4-26-16.2-.1 5.7-3 17 5.3 18.2 6.9-.1 14.5 1.1 20.7-2zm-14.8-16c1.1 9.3 13.6-.8 6.5-6.8-4-3.4-8 3-6.5 6.8zm-5 1.6c.4 6 12.5 8.4 15.2 3.1-5.7 1.2-10.9 1.5-15.2-3.1zm.8-8.6v.3c4-1.7 7.7-4.3 12-2-3.4-3.4-10.1-3.6-12 1.7zm2.5 9c-.2-2.7.3-4.7-.2-7.4-3.3 2.3-2.6 5 .2 7.4zm12.2-5.6-.9 6.2c4-.6 4-4.3.9-6.2zm-21.5-4.9h-.3c.2 1.5-.6 3.4.2 4.6 0-1.6.7-3 .1-4.6zm21.1 1.5 2.7 3c0-1.4-1.1-2.7-2.7-3z"/>
        <path class="st1" d="M328 181.2c-.1-19.8-3-32.6 22.1-24.3-.6 9.1 4.8 23.5-4 29.4-5.7 1.4-18.8 4.3-18.2-5h.1z"/>
        <path d="M87 239.8c-15.6 3.8-31.8-2-47.7.4-26 2.4-23.1-1.7-23.6-25-2.1-11.2 73.6-4.2 90.2-10.6 11.9 3.2 11.5 7.5 11.5 18.6 5.8 19.5-17.3 18.4-30.3 16.6zm27.1-18.1c-.7-4.9-.6-11.6-4.8-14.7-12-1-24.4 2.4-36.6 2.4-12 3.7-53.6-5.6-55.7 7.3-.2 6.6-1.7 16.7 2.9 21.9 12.3 2.4 25.8-.6 38.4-1 16.5-4.3 55.3 9.5 55.8-16zM112 233c-.7.4-1.4.5-1.5 1.5.7-.3 1.3-.5 1.5-1.5zM101.8 206v.3c.8 0 1.6.2 2.3-.4l-2.3.1zm15 15.8h-.4l.2 1.4c.3-.2 0-1 .1-1.4zM101.1 239v-.1H100v.1h1.3zM396.2 106.3c-3.4-22.4-7.3-31.5 19.7-29.2 14.3 2.2 63.6-8 64.5 10 3.3 26-13.7 23.3-33.3 23.2-16.5-.7-36.7 7-51-4zm66-.6c7.6 1.1 13.2-2 12.6-10.3 1-8.6 3.2-17.4-8.5-16.5-16-1.1-32.2.1-48.2.2-7.1.4-22-4.1-18.8 8 0 10.6 2.8 20.4 15.6 19 15.7.7 31.5.3 47.3-.4zm-65.4-24.5c-9.4 36.5 18.8 29.7 44 28 20.3-1.2 46 5.9 36.7-25-1 7 .3 18-5.9 22.4-12.3 1.2-24.8.8-37.2 1.5-25.7-.7-37.6 4.9-37.6-26.9zM197.7 142.3c1.3 18.8-21.5 17.2-34.7 16.7-8.5-3.8-7.1-17.9-8-26-.4-16.7 23-13.5 34-11.3 8.5 2.3 7.3 13.7 8.7 20.6zm-5.8.3c4.3-22.5-15.7-22.3-31.4-17.2-3 4.4-.8 22.4 3.3 25.8 8 3.3 29.4 4.2 28.1-8.6zm-17.3 13.2c20.4 3 23.6-11.6 18.3-28.7 3 18 3.2 28.8-18.3 28.7zm-1 .6c-11.2-.5-15.9-6-16-17 .3 12 2 19.6 16 17z"/>
        <path class="st1" d="M409.5 146.4c-7.4-.6-5.4-18.7-5.2-24.5 1.6-4 20-6.5 21.7-1 2.5 23.3 10.2 23.4-16.5 25.5z"/>
        <path d="M17.2 147.3c-.9-25.6 7.5-24 29.2-23.6 17.2.3 35-4.5 51.8-.3 9.1 6.3 6.4 22.6 4.9 32.3-5 8.4-19 6.8-27.7 7.2-16-4.3-59.9 11.1-58.3-15.6zm4.8 2.6h.1c-6.6 12.6 66.6 8.6 73.7 5.5 7.3-7 3.3-19.6 3.6-28.7-.8-3-4.8-3.2-7.3-3.5-5.6.7-11 2.8-16.6 1.4-12.8-1-25.8 1.4-38.7 1-18.3-4.7-14 12-14.8 24.3zm-.4-21.3c-16.4 39.9 17 33.6 44.6 32.3 30.6 2.1 44.3.7 34.5-33.9 3.9 41-10.2 30.5-42.8 32.7-29.6-4.5-41.6 8.6-36.4-31.1zM163 99.5c1.1 18.6-8.9 16.7-23.8 18.3-13.8-.5-19.8 0-21.5-15.7-.4-12 2-26.4 17-24.5 18.8-.5 28.6.3 28.2 22zm-39.6-9.7c1.3 6.5-.2 21.3 8.4 21.7 8-1 18.6.3 24.9-4.4-.4-7.8 2.1-24.2-6.7-27.1-9.4-.1-29.2-5.5-26.6 9.8zm-1.7-3.5c-8 31.3 10.7 34 36.6 26.5 4.6-2.7 2.2-26.7-1.4-30 2.8 7.5.8 16.2 1.7 24.3-1.2 6.2-10.2 4.4-14.9 5.8-5.7-.4-13.4 2.6-18-1.4a88.8 88.8 0 0 1-4-25.2zM235.2 75.6c17.5-4.6 25.5 17.7 19.4 31-8.4 6.6-22.4 6-32.8 5.9-10.4-5.6-7.8-21.4-7-31.4 2.6-7.2 14.3-3.5 20.4-5.7v.2zm-14.8 19.2c0 6.8.5 14 9.2 12.5 7.6 0 24.7 1.8 22.4-10-1-9.7-3-21.8-15.5-19.4-13.2-1.6-16.8 4.4-16 16.9zm.7-16.1c-10.7 3.7-5 22-1.6 30 5.4 5.9 15.8.4 22.9.8v-.3c-6.9 0-15.5 1.6-21.4-2-3.3-8.6-5-20.2 0-28.5zm28.5 28.7c3.3.2 5.7-3.8 4.3-6.9-.3 3-1.8 5.2-4.3 6.9zm3.8-11.4c.6-3.4-.2-7.8-1.6-11.2-.5 3.1 1.3 7.7 1.5 11.3zm-4.9 12.3v-.3l-1.2.4v.2l1.2-.3zm5.4-9.4h-.3l.3.9c.4 0 0-.6 0-1z"/>
        <path d="M100.5 200c-23.7 0-47.3-.5-70.8 3-3.3-.9-7.9 0-10.5-2.5-1.1-7-1.3-14.3-.3-21.3-2-13.3 8.5-12.5 18.4-13 11.6-.3 23.2 1 34.9 1.3 13.2 1.4 31.7-6.5 42.1 3 4 7.5 1.7 16.9 1.5 24.8-2.9 5.1-10.6 3.4-15.3 4.7zm-58.4-33c-5.5 1.5-17-1.6-20 4 .3 7.6-1.8 16.7.9 23.5 16.8 4.5 37.4 1.5 55.3 3 8.6-1.2 17-2.5 25.7-3.4 7.5.2 6.7-7 6.8-12.5 3.2-19-11.6-13.8-24.8-14-14.6 2.2-29.2 0-43.9-.5zm70 23c-5.1 9.7-23.6 4.9-33.1 8.6 10.2-1.7 38.7 6 36.1-10.7 0-6 2.2-14.8-3.9-18.6 1.3 7-.3 14.1 1 20.7zm-91-18.6c-2 7.8-4.1 22 .2 29.4 8.8 1.9 17.4-.8 26.2-1.3 6.1-.9 12.2 1.6 18.2-.7-13.8-4.3-32.4 4-44-4.5-1.7-7-.3-15.4-.6-23zM415.7 153.4c21.7-1.9 45.5-4.3 67.3-.3 8.4 4.4 3 21.7 1.5 29.5-15.7 5.9-36 1.8-53.1 4-24.3 3-21-16.5-15.7-33.2zm1.6.6c-.6 8.1-2.8 18.7 2.5 25.2 19.1 5.7 39.9 4 59.5 2 4.2-1.3 4.6-23.4 2.7-26.5-20.6-5.8-43.3-.6-64.7-.7zm-1.5 4c-10.5 30.5 7.6 28.3 31.8 26.6-21.7-2.4-36.4 1.6-31.8-26.7zm67.3 22c2.4-6 4.3-17.3 1.3-23.8-.8 8 0 15.8-1.3 23.7zM173.5 77.7c30.3-4 40.3-5.5 37.6 29.3-6.5 10.8-26.1 9.4-37.2 6.6-7.7-6.8-7.2-28.8-.4-36zm25.4 31.1c5 .2 9.8-2.1 8.8-7.8-1.1-6.8.4-15.4-3.2-21.2-8.4-3.4-18.6-1.1-27.5-1.2-7 6.4-2.4 20.1-1.5 28.7 6.6 3.4 16 1.1 23.4 1.5zm8.5-.2c-9.3 3.5-20 1.9-29.8 2-8-3-6-14.8-6.5-21.7-3.4 13.6-.9 29 19.7 24.6 20.1 0 21.6-8.6 18-26.2-1 7 2.5 14.7-1.4 21.3zM45.6 243.8c20.8-4.6 17.3 11 18 25.5-3.6 11.9-26.4 8.4-36.4 7.8-9-4.7-6.6-18.5-5.4-26.8 4.1-7.6 16.2-5.6 23.8-6.8v.3zm8.1 1c-8 2-27.6-3.6-27.7 8.2.1 5.8-1.7 12.9 3.8 16.7 6.9 3 23.3 3.5 28.3-2.5-.3-7 1.3-19.3-4.4-22.4zm5.8 3.7c1 14 3.8 28.3-15.6 24.7-21 1.9-20-4.7-19.9-23.1-5.4 18.7-1.4 29.6 20 25.8 4.6-1.3 11.6.4 14.8-3.3 2.7-7.4 4.4-17 .7-24zM416.4 266.8c-6.7 7.1-22.5 6.8-30.4 1.5a46.8 46.8 0 0 1-2.2-34.7c36.3-1.9 32.3-3 32.6 33.2zm-29.8-31.3c-.4 6.9.8 14.4.8 21.6-1.9 12.3 16.3 8.2 23.5 7 3.5-7.5-.3-17.5-.7-25.7-4-7.1-16.7-2.5-23.6-3zm-2.7 3.4c-1.2 17.3-2.8 35.1 20.6 31 10.6 1 11.6-9 10.5-17.1-1.4-5.3.2-12.6-3.3-16.7-.4 10.5 9.9 33.8-8.6 30.6-24.2 4.8-15-13-19.2-27.8zm0-.7c1.1-.3.6-1 .7-1.7 0 .6-1 .8-.6 1.7zM286.7 130.7c.2 8.4 4.4 24.8-7.6 26.3-9.4 1-26 4-31.3-6.2-2-7.4 0-23.4 6.6-27.4 10.2-1.5 32.8-10.5 32.3 7.3zm-11 20c10.9 1.3 6.9-19.2 6-26-4.2-6.2-16-1.2-22.6-1-10.2 2.7-5.6 16.4-5.4 24-.4 3 20.2 4.3 22 3zm7.4-27.1c1 10 6 31.2-10.1 29.5-21.5-1-21.4.1-22.5-21.1-7.2 28 10 26.2 31.3 22.4 7.3-5.4 4.5-23.3 1.3-30.8zM344.9 97.9c.8 16.6-19.4 13.3-30.8 13.6-11.4-4.2-10-22.6-5.7-31.8 15-5 37.7-2.3 36.5 18.2zm-5.4-4.5c1.6-14.2-14.4-14.5-24.9-13.8-6.3 4.6-3.1 16.4-2.3 23.3 5.7 4 15.4 1.7 22.4 2.4 5.3-.9 4.2-7.6 4.8-12zm1.4-5.3h-.3c4.3 22.6-9 20.7-26.2 18.1-8.3-2.9-4.7-16-5.6-23-3.5 8.8-3.3 28.2 10.1 27.3 16.4-1.7 30.5-1 22-22.4zM152.5 136.5c.5 8.2 1.6 21-9.5 22.2-10.6.7-24.7 4.8-33.5-2.6-3.3-6-1.7-13.3-2.3-19.8-1-6.3 2-12.2 9-11.7 8-2.7 17.1-1.6 25.5-1.5 7.3-2.1 11.8 7 10.9 13.4h-.1zM132 124.3c-7.1 1-21-1.6-20.6 8.2 2.3 6.4-1.8 17.2 3.8 21.2 10.6.9 22.6 1.2 32.4-2 2-16.1 6-29.3-15.6-27.4zm-21.2 3.3c-4 4-4.1 30.1 4.3 30.1 24.6 3.3 43.3 2 35-28.2.8 28.6.6 25.3-27 26.1-5.6.5-13 .4-12-7.3 1-7-2-14-.3-20.7z"/>
        <path class="st1" d="M428.6 126.9c-1.2-7.6 5.2-9.3 11.5-9 5 2 6.5 20.5 2.8 24.1-13.7 7-13.4-5-14.3-15.1z"/>
        <path d="M361.5 111.2c-12.8 2.7-14.2-11-14-20.4-1.7-14.5 16.5-12.1 26-11.8 19.5-3.7 26.3 35.2-12 32.1zm2.6-31c-17.3-1.2-15.3 11-9.5 22.8 6.5 5.4 19.2 5 26.6 1.6 3-6.3 2.7-15.2 1.5-22-4.3-4.7-12.9-1.2-18.6-2.5zM349.4 92h-.2c-.8 19.7 6.9 18.4 23 16.9l.1-.3c-11.2-.2-24.5-2.1-22.9-16.5zm35.7-7.3c-1 7 1.6 15.5-2.9 21.2 6.1-3.5 7.6-16 2.9-21.2zM302.5 95.5c2 18.8-19.8 18.6-33 16.4-9.4-3.3-9-17.2-8.1-25.5-.9-16 20.6-10.3 30.7-8.7 8.1.8 8.9 11.3 10.4 17.8zm-22.9 12c21.4 2.3 19.8-8.3 16.9-25.4-6.4-6-19.2-4.9-27.4-4.1-4.7.6-3.3 6.6-3.5 10.3-1 9.8 1.7 21.3 14 19.2zM265 79c-4.4 7.8-5.3 28.3 5.7 31.7 9.4.9 24.4 2.8 29.5-7.1 1.2-5.3 1.8-13.2-1.4-17.3-.2 6.7 2.3 17-3.8 21.4-26.6 4.2-34.1-1.3-30-28.7zM69 104.8c.6-8.2.2-19 6.3-25.2 10.1-.6 24.9-7.7 32.2 2.2 5 7.5 6 21.1.5 28.5-10.7 4.2-39.8 14-39-5.5zm26.2-26.5V78c-8 1.9-24.1-.8-21.8 11.8.6 5.8-2.6 16 2.8 19.5 9.8-.1 22.4.7 30.9-4 0-9.6 3-30-11.9-27.1zm-22.8 11c-6.9 21.6-1.4 29.6 22.3 24 18.3-1 18.2-16.8 12.5-30 2.7 23 4.9 27-20.7 27.3-3.9-.1-8 1.3-11.4 0-5.5-4.3-2.4-14.7-2.7-21.2zM32.8 82.4c9-.3 22-2.2 28.7 4.7 2.6 9.7 3.7 29.2-9.5 31.5-9 .1-26.9 3.9-29.2-7.7.1-9.5-4.8-29.9 10-28.8v.3zM59 95.3c2.6-15.7-16.4-11.6-26.5-11.6-10.4-.7-5.4 20.1-4.6 26.6 4 4.4 12 2.2 17.5 3.5 15.1 3.4 14.1-7.2 13.6-18.5zM57 114.9c-29 1-34.3 1.9-31.3-29.3-3 6.7-6.2 29.5 4.2 31.3 8.8.3 19.4 3.3 27.1-2zm2.8-28c.2 7.2-.6 15.7.5 23.1 1.5-8 2.5-15.8-.5-23.2zM377.1 227.5c-18 .1-13.6-16.4-12.3-29.3 4.4-8 17.9-2.1 25.6-3.3 7.4 3.1 3.3 17.6 4.6 24.5-1 9.2-11.6 6.2-17.9 8.1zm-7.2-31c1.5 13.5-5.8 29 15 24.3 8.8-1.8 4.2-14.3 4-20.6-.2-7.6-13.3-3.7-19-3.8zm-1.2-.6c-6.3 5-3.7 19.8-2 27 6.9 5 29.5 5.6 26.9-7.4 1.2-5.5-3.6-30.1-2.7-11.3.7 6.2 3 17.6-6 18-5-.4-13 2.5-15.7-2.9-1.7-7.6 0-15.6-.5-23.4zM433.9 252.4c-13.5 1-16.9-2.7-15.4-16 6-5.6 18.6-1.3 26.8-2.8 6.5.6 9.4 6.2 8.4 12.2-1.2 8.5-13.8 5.5-19.8 6.6zm-8.1-17c-5.7-1.4-5.2 7.7-2.4 10 7 2 20.6 5 25.8-.8 4.7-14.6-15.2-8.3-23.4-9.2zm-5.3 10.2c-4 8.5 35 6.2 30.7-.3-5.3 7.8-23.2 3.7-30.7.3zm30.9-.8c.4-.5.6-1 0-1.6v1.6zM471.8 116.5c9.7 4.3 4.6 17 6.8 25.3-1.5 6.5-22.6 3.2-28.4 2.6-5-5.8-4.8-19.8-1-26.7 5.8-5.4 15.5.6 22.6-1.2zm-4.2 24.8c9.4 1.3 7.1-14.8 6.6-20.9-5-4.6-14-2.5-20.4-2.8-7.5.6-1.5 14.8-1.7 20.1 2.4 5.3 10.8 2.5 15.5 3.6zm-18.8-20c-2.3 6.4 0 13.6.2 20.2 1.8 2.9 6.5 2.5 9.5 2.8 16.6-.5 21.2 3.6 17.6-16.4 0 19.8-7.3 15-22.9 13.5-5.5-4.6-2.3-13.9-4.4-20.2z"/>
        <path d="M420 261.2c.5-1.4-.6-6.3 2.5-6.3 8.2.6 16.4-1.1 24.6-1.6 8.7-1.9 4.8 10.4 6.1 15.4-2.8 6-13.3 3.5-19 4.4-8.7 1.8-15.4-2-14.3-11.9zm5.5 4.8c8 .7 29 4.5 25.3-9-2.2-4.7-17.2.3-22.6-.5-7.9-1.6-4.5 5.2-2.7 9.5zm-3.2-2.8c-2.2 8 6.3 9.5 12.4 8.3 4.6-.9 16.2 1.9 16.2-4.5-8.8 0-24.7 6.6-28.6-3.8zM336 195.3c11.8-2 28.2-4.4 24.5 13-1 4.4 2.1 12.6-3.9 13.6-4.8 1.6-4 2.4-9 .6-16.3 3-12.8-17-11.6-27.2zm11.4.4c-7.4-1.3-8.7 2.2-7.6 8.8 1.8 4-.9 10.3 2.8 13 3.5.5 10.6 1.1 12.2-2.5-1-7 4-22-7.4-19.3zm8.3.5c-1 6.5 4.7 20-3.5 22.1-16 4.6-12.7-6.8-13.7-18-.3-1.5.2-3 0-4.4-1.7 0-1.9.3-1.9 1.7.2 2.8-.3 5.5-.5 8.2 1 4.5-1 12.4 3.7 14.7 4.3.5 9 2.2 12.6-.8 1-1 1.7.7 2.3 1.3 6.7 2.7 6.3-25.7 1-24.8zM104.7 248.8c.1 11 4.4 32.1-13.8 26.4-10.6-.2-22 3-19.9-12.3.7-26.8-5.6 3.5-.6 13 7.4 3 16.8 3.1 24.9 2.2 15.8.9 14.2-15.7 12-27 9 31.6-11.4 30-35.5 26.7-8.1-6-3.8-21.9-1.7-30.5 6-4.2 29.6-4.1 34.6 1.6zm-.7 12.3c-.6-4.1 1.3-10.5-2-13.3-9-1.9-22.5-4.8-30 .4.9 8-3.1 19.4 3 25.6 13.2-1.1 32 8.2 29-12.8zM198.2 179.6c-.4 15 0 15.2-15.2 16.5-15.6 1.6-20.1-1.6-18.4-17.8l.2-10.5c-.2-2.5 2.3-1 3.9-1.8 14.7.3 30.9-8.4 29.5 13.6zm-31.6-3.6c-3 15.9 14 15 24.8 13.4 4.8-1 5.9-6.5 5.7-10.8-.3-13.6-1.4-13.8-14.6-12.4-8.5 1.8-18-2.9-16 9.8zm30.4 11c-6.2 6.5-25.8 6.9-31.3-1.3-.2 8 5 10.9 12.4 8.8 6.4-.8 20.2 2.5 18.9-7.4zM128.2 270.9c4.4-.8 9.4-.1 12.7-3.7-7.8 3-16 1-21.4-5.3.4 4.8 5.2 6.7 8.4 9-5-1.2-12.3-9-10-13.9 6.6-11 31.9-13.9 30.6 3-3.2 7.3-12.3 13.1-20.3 10.9zm1.5-6.3c-4.6-1.4-4.4-7.5-3.2-11.2-14 3.2-3.2 13 5.6 13.1-.8-.7-2-.9-2.5-2 4 2.3 7.7-.3 10.4-3.1-1.3 2.8-4 3.9-6.6 5 9.7 1.6 21.9-12.3 6.2-13.3.5 1.8 1 3.5.7 5.3-.3-13-22.1-5.1-10.6 6.2zm15-12.7c-6-6.3-16.8-2.4-22.8 1.9a31.1 31.1 0 0 1 22.8-2zm-1.6 14c0-.2-.1-.2-.2-.3-.2.2-.6.4-.3.7l.5-.5zM205.4 165.2c3.2-5.2 27.2-4.9 32.3-.8 2.2 7.6 4.6 18.5.2 25.7-6.7 4.5-28.5 6.8-32.7-1.5-.6-6.7-4.1-18.6.3-23.4zm-.2 13c-.8 11 13.2 9 20.7 9.2 13.1-.8 14.9-9.7 11.4-20.7-4.6-7.6-22.3-3.4-30.3-2.5-2.7 4-.8 9-1.8 14zm.6 6.8c-1 6.8 7.4 8.2 12.7 7.1 6.2-.2 20.8 3 19.5-7.6-9.3 4.5-23.5 7.3-32.2.4z"/>
        <path d="M157 259.6c-.6-15.6-3.3-13.8-17.5-14.3-4-.8-27.5-3.9-25.9 2.4-.4 11.2-3.7 27.2 12 26.3 12.1-.7 34.8 8 31.3-12 1.2 5 .6 13-5.3 14.3-12.2-1.7-26.7 1.5-37.6-4.4-1.1-7.6-7.3-31.7 6.2-28.6a114 114 0 0 1 33.2 2.2c5.5 1.2 2.8 9.8 3.5 14.1zM265.3 190.2c5.8-.4 14.4.7 16.8-6.1-27.1 7.6-24.8.3-27.8-21.6-5.4 4.6-3.6 18-.5 24.5 2.7 3.3 7.8 1.7 11.5 3.3-15.8 3.5-14.5-13.5-15.2-24.3 2.2-6.4 11.4-6 17-6.4 8 .1 19.2 1.3 17 12 3.6 12.7-6.6 22.8-18.8 18.6zm-9-27.6c-2 20.6 3.6 28.2 24.5 21 2.3-.6 2.6-1.7 2.6-4 3-20.3-11-21.2-27-17zM122.7 219.5c-4-18.3 19-15 31-14.7 5.2.2 5.7 25.4 3.2 28.4a50.2 50.2 0 0 1-23.8 2.4c-9.7.4-10.9-8-10.4-16.1zm33.8-2.2c.4-8.6-.3-12.7-9.9-11.2-9.7-.5-25.6-1.8-22.9 12.3-2.6 18.2 10.7 18.3 24.5 15.5 13-.4 8.4-7.2 8.3-16.6zM324.9 160.4c-3.3-1.8.2 10.5-2 13.8 3.4-23-8-14.5-23.8-14.1-5 2.5-1.7 17.4 1 21.9 5.4 3.9 17.4 3.1 22-1.6 0-1.2.9-7.4 1.3-3.8.6 10.5-15.1 9.3-22.3 7.5-6.3-5.4-4.8-15.5-4.6-23-3.9 6.3-3.7 28 8.8 26.1 13.7-.2 21.8.2 21.3-16 4 18.1-13.7 18-26.7 16-7.4-1.6-7-21.2-4.6-26.6 7.7-1 24.1-6.6 29.5-.2zM198.4 212.8c-1 5 1.5 13.3-3.4 16.4-12.4 1.7-30.7 5-30.4-12.7-2.7-12.7 2.7-17 15-14.8 8.2 0 21-.8 18.7 11h.1zm-23.7-10.3c-12.7-1.7-9.6 15-6.4 22.4 4.7 9.2 17.5 2.6 25.6 3.5 5.5-2.3 2.4-11.5 3.5-16.4 1.2-12.5-14.9-8.4-22.7-9.5z"/>
        <path d="M306.8 176.7c-3.3-1.9-3.2-6.3-2.2-9.7-1.6 1.3-4.2 2-3.8 4.3.1.6 0 .6-.7 1-1.4-5.8 8.5-8 12.9-7.6 9.1 1.1 9.6 10.6 1 12.9 8-4.2 6.8-12-2.5-12 5.3 3 4.6 9.6-.9 12h3.4c-2.5 1.2-5 .2-7.2-.9zm-1.6-6.2c-1 9.3 13 5.8 8.3-2-1.9-3-9-2.1-8.3 2zM259 67.7c-2.3.2-11.6-1.4-5.5-1.1 1.6.7 5.2-.9 5.6 1.1z"/>
        <path d="m306.8 176.7 1.5.6c-2.5.9-7-2.2-7.3-4.8 1.9 1.4 3.3 4 5.8 4.2zM324.8 160.4c1.8 1.4 2.2 4.6 1.9 6.8-1-2-1-4.8-1.9-6.8zM365.7 71.7a18 18 0 0 1 5.4.4c-1.2.4-3.7.2-5.4-.4zM326.3 169.7v-1.5c.5.7.5.7 0 1.5zM104.7 248.9c.8 0 .8 0 1.3 1-.6-.2-1-.6-1.3-1zM443.4 68.6l-1.1-.1c.4-.5.7-.3 1 0z"/>
        <path d="M371 72h1.1c.3.7-.7.6-1 0zM260.8 67.4c-.9.4-1.2 0-.2-.4l.2.4zM257.4 66h1c-.3.5-.3.5-1 0zM500.3 161c1.3 1 .3 2 .7 2.8h-.4l-.3-2.9zM500.5 159.4l.2.9h-.2l-.1-.9h.1zM500.4 173.4v-1h.2v1h-.2zM364.6 60.8c.7-.1 1.4-.2 2 .5l-2-.2v-.3zM265.4 285.5l-1.3-.1c.4-.6.7-.6 1.3 0zM458.3 60c-.6.6-.8.5-1.3 0h1.3z"/>
        <path class="st0" d="M307.3 269.3c-33.2 0-67 0-100.3.6-8.3.1-16.5.8-24.7 0-9.9 1.2-8.2-13-9.5-19.7.4-3.7-1.6-11.7 3.3-12.2 32.2-3.7 64.7-2.3 96.8-4.5 31-3.9 61.1 0 91.5 1.6 8.7 4.5 7.6 22.6 5 31.2-17.4 6.8-42.9 3.4-62.1 3zm6.1-26.2c-15.2.6-14.5 15.2.2 15.5 14.6 1.6 13.6-15.8-.2-15.5zm-16 8c1.2-19.9-35.6-19.3-39-2.7-1.3 20.8 39 24.8 39 2.7zm-83.6-.2c5.6 12.9 31.2 20.1 38.5 6.3 3.4-23-32.6-24.2-38.5-6.3zm152.6-.5c-5.6-13.8-36.4-14-37.6 2.4 3.6 20 35.3 15.7 37.6-2.4zm-160.9 1c-1.8-13.2-22.7-11.3-29.4-1.8-3 17 32 22.3 29.4 1.9zM315.2 233c-11.5-.2-18.7 8.1-2.7 9.2 12.1 3 16.9-8.1 2.7-9.2zm-3.6 26.6v-.2c-17.6 2.9 4 15.4 10 6.2.6-3.6-6.6-6.8-10-6z"/>
        <path class="st0" d="M174.3 271c13.2 6.1 28.4.6 42.7.6 30-1.3 60.9-2.2 90 2 14.9 0 31-4 46-1 8 1.1 23.2-1 21-12 2-5.5-1.2-11.4.3-17-.2-1.3 0-3-.8-4.3.2-13.1 5.2 28.4 0 32-21.6 8.4-47.7 3.8-70.7 3-24.4-1-49-1.2-73.4-.3-17.4-.7-40.5 5.5-55.1-3zM172.7 269.6c-4-7.9-6-20.8-1.8-28.4 0 9.5.7 19 1.8 28.4zM173.3 269.9c.2.3.8.6.4.9l-.7-.6.3-.3zM242.6 124.8c3 6.2 1.3 15.1 1 22-.5 8.7-9.6 7.3-15.5 8.7-25 4-26.8-6.9-24.5-28.7 1.8 22.6 1.9 29.6 27.4 26.6 16.9.9 10.4-17.7 11.6-28.6z"/>
        <path class="st0" d="M224.3 126.8c10.3-1.5 8 16.8-1.2 14.8-11.3 1-8.7-15.6 1.2-14.8zm0 5.8c-10-3.6-1.3 10.3 3.7 3.6 1.3-2.3-1.5-5.8-3.7-3.6z"/>
        <path class="st0" d="M230.8 128.5c3 1.8 9.5 5 7.9 8.7-3.8 3.7-9.2 8.1-14.8 6.6-10 0-22.1-10.3-7.2-15-11 18.3 23 18.3 14.1-.3zM133.4 180.2c-1.2-8.3 9.1-8.4 12.1-2.5 1.7 2-.5 5 1.1 6.5-1.5-.1-1.5-.1-1.7.9 4.3 1.3 2.6-14.5-4.3-12 3.4-1.7 15.2 1.7 14.2 6.6-3.5 4-8 8.1-13.7 7.4 2.7-2.2-2.5-2.2-.8.2l-1.9-.4c1-1.8-1.2-2.3-1.7-.6-9.3-1.8-13.7-12.3-1.9-12.8-2.3 1.2-2.7 4.6-2.5 7l1-.3c-1.9 2.2.7 4 2.5 5.1 1.5-1.2-1.4-2.5-2.5-2.6.5-.8.2-1.6 0-2.5zm4-1c.5 8 11-.8 1.4-1.4-1-.7-1.7.5-1.4 1.4zm6.2 7.8c.4-.8 1.4-1.4.2-1.9-1.5-.3-1.4 1-.2 2z"/>
        <path class="st0" d="M124.1 171c.8 7.6-5.3 23.9 6.4 24.2 26.3 4.8 32.9-.4 25.6-27 5.3 4.8 6.5 26.6-2.3 28.5-23.8 5.4-41 1.8-29.7-25.8z"/>
        <path class="st0" d="M146.6 191.7c2-.1 3.6-1.5 5.5-2.2-.3 2.3-4 2.7-5.5 2.2zM131.6 167.3c-.8 1.7-2.4 2-4 2.8 1.2-1.4 2.1-3.2 4-2.8zM133.7 194c-2.3-.1-4.6.2-6.7-1 2.3.2 4.5 0 6.7 1zM139.8 167.6c-1.8.9-3.4.6-5 .2 1.6-.4 3.2-.2 5-.2zM155.6 170l-2.5-2c1.4 0 2 .5 2.5 2zM140.6 166c-1.2.5-2.3.5-3.6 0h3.6zM156.5 176.8c-1.1.1-1.5-.9-2.2-1.3 1 0 1.5.7 2.2 1.3zM151.3 172.6c1.3-.4 1.3-.4 2.3.8-.8.1-1.4-.5-2.3-.8zM145.8 187.7c1-.5 1.7-1 2.5-1.3-.8.4-1 1.8-2.5 1.3zM138.1 190.2c.8-.4 1.4-.2 2 .4-.7 0-1.3.2-2-.4zM147.4 195.1l2.3-.1v.3c-.6-.1-2 .4-2.3-.2zM142 194.3c-.6-.2-1.9.1-1.8-.5l1.8.1v.4zM136.5 192.3c-.6 0-1.2.4-1.7-.3.6-.3 1.2 0 1.7.3zM157.4 187l-.3 1.9c-.3-1-.3-1.3.3-1.8zM142.5 168c.6 0 1.3-.5 2 .5l-2-.5zM150.4 194.9l1.5-.3c-.3 1-1.5 1-1.5.3zM149.2 167.7l1.5.7c-1 .4-1 .4-1.5-.7zM147.9 166.4c.3.2 1.3 0 1.2.6l-1.3-.2v-.4zM133.7 189.8l-1.2-.4v-.3l1.3.3-.1.4zM128.8 174.6l-1.2.8c.3-1 .3-1 1.2-.8zM148.8 172.8c-.4-.3-1.5-.2-1.4-.7l1.5.4-.1.3zM146.6 166.7l-1.3-.1c.7-.3.7-.3 1.3.1zM150.8 173.7l-1.3-.5.1-.2 1.3.5v.2zM154.3 189.5l-.6-.8c.6-.3 1.2 0 .6.8zM151.6 193c-.2.1-.4.7-.8.3l.5-.7.3.3zM128 188c-.2 0-.4-.3-.7-.5l.2-.2.7.6-.1.2zM127 186.2c-.3-.4-.6-1.3.1-.6.2.3.3.5 0 .6zM300.3 138.2c-1.4-1.6 2.4-6.7 3.1-4.2l.7-1c-4.5 11.4 14.4 11.6 11.7 0l.6.2c0 1.2 1.3 1.6 2 2.6.8-1.4 0-1.7-1.2-2.3.6-1.2 2 .4 2.4 1-.4 1.2.8 1.1 1.4 1.5-.9 6.3-9.8 8.4-15.2 7"/>
        <path class="st0" d="M311 133.3c10.7 2.5-6 13.2-5.9 3.4 0-3.2 3.8-6.5 6-3.4zm-4.3 2c.1 8.5 10.2-1.6 2.4.1-.8-1.3-1-1.3-2.4 0zM462.2 255c5.7 12.5 27 5.2 21.5-8-8.2-9.7-19.7-11.4-22 3.4.3-3.8-3.2-13.1 2-13.5 6.4 1.4 14.2-1.4 19.9 1.6a40.5 40.5 0 0 1 1.7 25c-.7 3-6.7 2-9.4 2-7.9.7-16-.3-13.7-10.4z"/>
        <path class="st0" d="M483.9 268.3c-6.2 3.1-13.8 1.9-20.7 2-8.4-1.3-5.4-12.5-5.2-18.2 1 20.3 9.8 14.8 25.9 16.2zM469 252.3c-1.4-3.8 2.6-10.2 6.6-6.8 7.1 6-5.4 16-6.5 6.8zm3.8-3.6c-3.3-2.8-2.8 4 0 4 3.1.7 3.8-5.8 0-4z"/>
        <path class="st0" d="M464 253.9c4.4 4.6 9.6 4.3 15.3 3.1-2.7 5.3-14.8 3-15.2-3.1zM464.9 245.3c1.9-5.3 8.6-5.1 12-1.6-4.3-2.4-8 .2-12 2v-.4zM467.4 254.3c-2.8-2.4-3.5-5.1-.2-7.4.5 2.7 0 4.8.2 7.4zM479.6 248.7c3 1.9 3.1 5.6-.9 6.2l.9-6.2zM458.1 243.8c.6 1.5 0 3 0 4.6-.9-1.2-.1-3.1-.3-4.6h.3zM479.2 245.3c1.6.3 2.6 1.6 2.7 3l-2.7-3zM114.1 221.7c2.2 25-48.3 11.9-65.3 16.6-24 .4-35 9.6-31.7-21.5 2.3-13.1 43.5-3.6 55.7-7.4 12.1 0 24.4-3.5 36.5-2.4 4.2 3.1 4.1 9.8 4.8 14.7zm-71.8-6c-2-4-9.9-1-14-1.2-7 1.2-10.5 14.2-2.7 17.1 10 8.4 29.8-7.8 17.3-15.2l1.8 1.9c-5.9-4.8-15-2.9-21 1.8 2-7.2 12.8-5 18.6-4.5zm67.1 2c-8-4-13.2-6.2-21 1.3-3 2-2.3 3.3-1.7 6-.4 5.1 6.2 5.8 10 6.6 9.3 3.3 17.4-4.8 12.7-13.8zM67 234c5.9.2 17.5-6.1 13.9-13-2.5-3.4-6-7.3-10.6-7.5-5.5.7-15.3 2.9-16.7 8.7a13 13 0 0 0 13.4 11.8z"/>
        <path class="st0" d="M112 233.1c-.2 1-.8 1.2-1.5 1.5 0-1 .8-1 1.5-1.5zM101.8 206l2.3-.2c-.7.6-1.5.3-2.2.4v-.3zM116.7 221.7c0 .4.2 1.2-.1 1.4l-.2-1.4h.3zM101.2 239H100v-.1h1.3v.1zM462.2 105.7c-15.8.7-31.6 1.1-47.3.5-12.7 1.3-15.6-8.5-15.6-19.2-3.2-12 11.7-7.5 18.8-7.9 16 0 32.1-1.3 48.2-.2 11.6-1 9.6 8 8.5 16.5.5 8.2-5 11.4-12.6 10.3zm-32-23.8v-.2c-69.4 12.8 19.8 35.8 37.3 9.5-6.4-11.1-25.2-10-37.3-9.3z"/>
        <path class="st0" d="M396.8 81.2c0 31.8 11.8 26.1 37.6 26.9 12.4-.7 24.9-.3 37.2-1.6 6.2-4.3 4.8-15.3 6-22.3 9.1 31-16.5 23.8-36.9 25-25 1.7-53.3 8.5-43.9-28zM192 142.6c1.2 12.8-20.1 11.9-28.2 8.6-4.1-3.4-6.2-21.3-3.3-25.8 15.7-5.1 35.7-5.3 31.4 17.2zm-15-11.4c-18 .5-16 15.7.2 15.8 15.2-1.9 16.7-14.6-.3-15.8z"/>
        <path class="st0" d="M174.6 155.8c21.5.1 21.3-10.7 18.3-28.7 5.3 17.2 2 31.6-18.3 28.7zM173.6 156.4c-14 2.6-15.7-5-16-17 .1 11 4.8 16.5 16 17zM22 150c.8-12.4-3.6-29.1 14.9-24.5 14.8.5 29.7-2.5 44.3-.3 1.8-1.2 4-.5 6.1-1 1.7 0 3.1-1.4 4.8-1 2.5.3 6.5.6 7.3 3.5-.3 9.1 3.7 21.8-3.6 28.7-7.1 3-80.2 7.2-73.7-5.5H22zm70.8-11.1c-7.7-7-17-11.9-27.5-12.2-12-.4-48.2 1.5-34.6 20.7 13 11.9 59.7 14.8 62.1-8.5z"/>
        <path class="st0" d="M21.6 128.6c-5.4 42.3 8.7 26.1 41.8 31 31.2-1 40.7 4 37.3-32.6 9.8 34.6-3.9 36-34.5 34-27.7 1.2-61 7.5-44.7-32.4zM123.4 89.8C120.8 74.5 140.6 80 150 80c8.8 3 6.3 19.3 6.7 27.1-6.3 4.7-17 3.4-24.8 4.4-8.7-.4-7.2-15.2-8.5-21.6zm31.3 3c-6.6-10.2-22.7-9.5-28.2 1.4 3.8 10.8 25.1 11.2 28.2-1.5z"/>
        <path class="st0" d="M121.7 86.3c.2 8.5 1.4 17.1 4 25.2 4.6 4 12.3 1 18 1.4 4.7-1.4 13.7.4 14.9-5.8-.9-8 1-16.8-1.7-24.4 3.6 3.4 6 27.4 1.4 30.1-25.9 7.5-44.5 4.7-36.6-26.5zM220.4 94.8c-.7-12.5 2.9-18.5 16.1-16.9 12.6-2.4 14.5 9.7 15.5 19.3 2.3 11.9-14.8 10.2-22.4 10.1-8.7 1.4-9.2-5.7-9.2-12.5zm23.8 6c10.8-11.1-6.3-22-16.5-14.5-13.4 9.7 6.8 21.6 16.5 14.6z"/>
        <path class="st0" d="M221 78.7c-5 8.3-3.3 19.9 0 28.5 5.9 3.6 14.5 2 21.4 2v.3c-7.1-.4-17.5 5-22.9-.7-3.4-8-9-26.4 1.6-30.1zM249.6 107.4a8.7 8.7 0 0 0 4.3-6.9c1.3 3-1 7.1-4.3 6.9zM253.3 96c-.2-3.5-2-8-1.5-11.2 1.3 3.4 2.2 7.8 1.5 11.3zM248.5 108.3c-.4 0-.8.2-1.1.3l-.1-.2 1.1-.4.1.3zM254 98.9c0 .3.3.8 0 1a84 84 0 0 0-.4-1h.3zM42.1 167c14.7.6 29.3 2.8 44 .7 13 .2 28-5.1 24.7 14-.1 5.4.7 12.6-6.8 12.4-8.6.9-17.1 2.2-25.7 3.4-17.9-1.4-38.4 1.5-55.3-3-2.7-6.8-.6-15.9-1-23.4 3-5.7 14.6-2.6 20.1-4zm-1.6 7.5a111 111 0 0 1 28.6-.9c1.6-.7 3.5.7 4.4-1-16.7.3-35.6-3-48 11C42 197.4 88 195.2 104.4 182c-4.9-3.8-11-6.7-17.1-7 4.6 2 13.7 3.2 15.4 7.4-8.2-5.7-33.8-9.2-43-6.9 5.4 0 16.6-2 12.4 6.8-7.2 15.2-27.5-5.5-13-6.5-1.5-1.8-5.4.1-7.6.6-4.2 1-9.3 1-13.3 2.5 5 .5 10-1.7 15.1-2-.5 4.2 1.3 7.5 4.7 10.2-2.2.2-3.9-1.1-6.1-.6 13.5 4 28.4 2 42.3 0-16.3 6.5-52.3 9.7-66.2-2.6H30c-.6-1-.5-1.1 0-2.3l-1.8 1c2.4-4.6 9.1-5.1 12.3-8.1zm22.8 6c-5.2-4-3.8 4.6.6 3.3 2.6-.8 2.4-5.6-.6-3.2zm23.2-5.4c-3-2.3-8.7-1.4-12.6-2.2v.4c4.1.7 8.4.8 12.6 1.8zM32 180c1.7.4 4.1-.3 5.8-1.1-1.3-.2-4.6.3-5.8 1.2zm7.3 4.8c2.4.7 4.9.8 7.4.4l-7.4-.4zm-5.3-.6c.1 1 1.3 1 2.3.7l-2.3-.7zm-3.3-.7v.4h1.7c-.2-.4-1.2-.2-1.7-.4zm19.6 3.1v-.4l-1-.2-.1.4 1 .2zm-13.5-1.6c-.1.4 1 .6 1 0h-1zm-6.7-4.3c.6.5.6.6 1 .2-.3-.6-.5-.6-1-.2z"/>
        <path class="st0" d="M112.1 190c-1.2-6.6.4-13.8-.9-20.7 6 3.8 3.9 12.5 4 18.6 2.5 16.8-26 9-36.2 10.7 9.5-3.7 28 1 33.1-8.6zM21.1 171.4c.3 7.5-1 16 .5 22.9 11.8 8.5 30.3.2 44 4.5-5.9 2.2-12-.2-18.1.7-8.8.5-17.4 3.2-26.2 1.2-4.3-7.3-2.1-21.5-.2-29.3zM417.3 154c21.3 0 44.1-5.1 64.7.7 2 3.1 1.4 25.2-2.7 26.6-19.6 2-40.4 3.5-59.5-2-5.3-6.7-3.1-17.2-2.5-25.3zm37.2 23.6c57-6.2 0-31.5-23.6-18-28.8 13 10.3 20.1 23.6 18z"/>
        <path class="st0" d="M415.8 158c-4.6 28.2 10.2 24.2 31.8 26.6-24.2 1.7-42.3 3.9-31.8-26.7zM483 180c1.4-8 .6-15.8 1.5-23.8 2.9 6.5 1 17.8-1.4 23.7zM198.9 108.8c-7.5-.4-16.8 1.9-23.4-1.5-1-8.6-5.6-22.3 1.5-28.7 9 0 19.1-2.1 27.5 1.2 3.6 5.8 2 14.4 3.2 21.2 1 5.7-3.8 8-8.8 7.8zm-8.4-2.7v.1c18.5-1 18-21.8-.3-22.1-5.3 2.2-16.1 4-14.9 11.5a14 14 0 0 0 15.2 10.5z"/>
        <path class="st0" d="M207.4 108.6c4-6.6.4-14.4 1.5-21.3 3.5 17.6 2 26.2-18 26.2-20.7 4.4-23.2-11-19.8-24.6.6 6.9-1.6 18.8 6.5 21.7 9.8-.1 20.5 1.5 29.8-2zM53.8 244.8c5.6 3.1 4 15.3 4.3 22.4-5 6-21.4 5.6-28.3 2.5-5.5-3.8-3.7-11-3.8-16.7.1-11.8 19.6-6.3 27.8-8.2zm-12.4 22.4c10.3.4 18.1-9.2 8.7-16.7-17-8.8-31.2 12.4-8.7 16.7z"/>
        <path class="st0" d="M59.5 248.5c3.7 7.1 2 16.7-.7 24-3.2 3.8-10.2 2-14.8 3.4-21.5 3.9-25.4-7.2-20-25.8-.2 18.4-1.2 25 19.9 23 19.4 3.7 16.7-10.6 15.6-24.6zM386.6 235.5c7 .4 19.7-4.2 23.6 2.9.4 8.2 4.2 18.2.7 25.8-7.2 1.1-25.4 5.2-23.5-7 0-7.3-1.2-14.8-.8-21.7zm14 22c10.1.5 12.9-17 3-19.6-16.6-4.9-20.8 19.8-3 19.6z"/>
        <path class="st0" d="M383.9 239c4.2 14.8-5 32.5 19.2 27.7 18.4 3.2 8.2-20 8.6-30.6 3.5 4 1.9 11.4 3.3 16.7 1.1 8 0 18.2-10.5 17.1-23.4 4.1-21.8-13.7-20.6-31zM384 238.2c-.5-.9.6-1 .6-1.7 0 .6.4 1.4-.6 1.7zM275.6 150.8c-1.6 1.2-22.3-.2-21.8-3-.3-7.7-4.9-21.4 5.3-24.2 6.6-.1 18.4-5.1 22.6 1.1.9 6.8 4.9 27.3-6 26zm-19.8-14.5c2.5 11.3 19.7 12.3 24.3 1.8-.9-10.8-19.6-11-24.3-1.8z"/>
        <path class="st0" d="M283.1 123.6c3.5 8.5 7.7 32.8-7 31.9-20.8 2.8-31.7.1-25.6-23.5 1 21.3 1 20 22.5 21 16 1.8 11.2-19.4 10.1-29.4zM339.5 93.4c-.6 4.3.5 11-4.8 12-7-.8-16.7 1.5-22.3-2.5-1-6.9-4-18.7 2.2-23.3 10.5-.7 26.5-.4 24.9 13.8zm-4.2 4.8c6.3-13.6-17-19.9-21.3-7.1-3.7 11.5 15.6 17.6 21.3 7.1z"/>
        <path class="st0" d="M341 88c8.4 21.5-5.6 20.8-22.1 22.5-13.4 1-13.5-18.5-10.1-27.2 1 7-2.6 20 5.6 23 17.2 2.5 30.5 4.4 26.2-18.2h.3zM132 124.3c21.7-2 17.5 11.3 15.6 27.4-6.7 2-30.7 5.8-34.7-.4-1.2-21.3-7-27.3 19.1-27zm-.6 23.9c5.7.4 9-4 12.7-7.6 4.1-7.5-11.6-11-17.1-9.5-3.7 1-13.4 3.2-11.1 8.3 3.6 5.6 8.5 9 15.5 8.8z"/>
        <path class="st0" d="M110.8 127.6c-1.8 6.7 1.2 13.7.3 20.7-1 7.7 6.4 7.7 12 7.3 27.6-.8 27.8 2.5 27-26.1 8.3 30.1-10.4 31.4-35 28.2-8.5 0-8.4-26-4.3-30.1zM364.1 80.1c5.7 1.3 14.2-2.2 18.6 2.5a38.9 38.9 0 0 1-1.5 22c-7.4 3.5-20.1 3.8-26.6-1.6-5.8-11.8-7.8-24 9.5-22.9zM355.3 94c1.7 14.1 27 12.3 23.7-2.9.4-3.1-8.5-7.5-11.6-7.2-5.1-.4-16 4.4-12 10z"/>
        <path class="st0" d="M349.4 92c-1.6 14.5 11.8 16.4 22.9 16.6v.3c-16.3 1.5-24 2.7-23.1-16.9h.2zM385 84.8c4.8 5 3.3 17.6-2.8 21.1 4.6-5.7 2-14.2 2.9-21.2zM279.6 107.5c-12.3 2-15-9.4-14-19.2.2-3.7-1.2-9.7 3.5-10.3 8.2-.8 21-1.9 27.4 4 3 17.3 4.5 27.8-16.9 25.5zm1.8-25.3c-13.1.4-18.1 15.5-4.7 20.7 17.7 3.9 23.8-17.2 4.7-20.8z"/>
        <path class="st0" d="M265 79.1c-4.1 27.4 3.4 32.9 30 28.7 6.5-4.4 3-15.2 4-21.5a26 26 0 0 1 1.2 17.4c-5.1 9.9-20.1 8-29.5 7.1-11-3.4-10-23.9-5.6-31.7zM95.2 78.3c14.9-2.8 12 17.5 11.9 27-8.5 4.8-21.1 4-30.9 4.1-5.3-3-2.2-14-2.8-19.5C71 77.3 87.2 80 95.2 78.1v.2zm-5.8 7.9c-17.1-.2-17.4 17-.5 17.5 8 .6 14.7-3.9 14-12.4-1-5.9-9.2-3.9-13.5-5.1z"/>
        <path class="st0" d="M72.4 89.4c.3 6.5-2.8 16.9 2.7 21.2 3.5 1.3 7.5-.1 11.4 0 25.5-.3 23.4-4.3 20.7-27.3 5.7 13.3 5.8 29-12.5 30-23.7 5.6-29.2-2.4-22.3-24zM59 95.3c.5 11.3 1.5 22-13.6 18.5-5.5-1.3-13.5.9-17.5-3.5-.8-6.5-5.8-27.3 4.6-26.6 10 0 29-4.1 26.5 11.6zM41 107c23-.8 15.3-22.4-4.4-17.7-12.1 2.6-6.5 20 4.4 17.7z"/>
        <path class="st0" d="M57.1 114.9c-7.3 4.3-29.6 5.8-33.2-3.7-.6-8.1-1.9-18.4 1.9-25.6C22.8 116.8 28 116 57 115zM59.9 86.8c3 7.4 2 15.3.5 23.2-1-7.4-.3-15.9-.5-23.2zM370 196.4c5.5.1 18.7-3.8 19 3.8 0 6.3 4.7 18.8-4 20.6-20.9 4.6-13.6-10.8-15-24.4zm18.8 9.6c-5-3.6-11.7-4.6-17-.9-2.3 10.8 17.8 13.3 17 1z"/>
        <path class="st0" d="M368.7 195.9c1.7 7.9-4.7 22.6 4.3 26.3 15 2.4 21.5-2.5 17.9-18-.9-18.8 4 5.8 2.7 11.3 2.6 13-20 12.4-26.8 7.4-1.8-7.2-4.4-21.9 1.9-27zM425.8 235.4c8.2 1 28-5.4 23.4 9.2-5.2 5.9-18.8 2.7-25.8.8-2.8-2.3-3.3-11.3 2.4-10zm-1.8 4c6.8 10.6 23.8 3.8 18.2-.5-5.7-2-13.3-3.8-18.2.4z"/>
        <path class="st0" d="M420.5 245.6c7.5 3.4 25.4 7.5 30.7-.3 4.4 6.4-34.6 8.8-30.7.3zM451.4 244.8v-1.6c.6.6.4 1.1 0 1.6zM467.6 141.3c-4.7-1.1-13 1.6-15.5-3.6.2-5.3-5.8-19.5 1.7-20.1 6.4.3 15.4-1.8 20.4 2.8.6 6 2.8 22.2-6.6 20.9zm-6-17.4c-14.4.9-7.8 11.6 3.4 9.5 11.5-2.7 5.8-10.1-3.4-9.5z"/>
        <path class="st0" d="M448.8 121.2c2 6.3-1.1 15.6 4.4 20.2 15.6 1.5 22.9 6.3 22.9-13.5 3.6 20-1 15.9-17.6 16.4-3-.3-7.7.1-9.5-2.8-.2-6.6-2.5-13.8-.2-20.3zM425.5 266c-1.8-4.3-5.2-11 2.7-9.5 5.4.8 20.3-4.2 22.6.5 3.7 13.5-17.2 9.7-25.3 9zm1.8-6c4.3 7.7 22.2 3.3 15.9-1.7-5.1-1.8-12-2.8-16 1.8z"/>
        <path class="st0" d="M422.3 263.2c4 10.4 19.8 3.8 28.6 3.8 0 6.4-11.6 3.6-16.2 4.5-6.1 1.1-14.6-.3-12.4-8.3zM347.4 195.7c11.3-2.7 6.4 12.3 7.4 19.3-1.6 3.7-8.7 3-12.2 2.4-3.7-2.6-1-9-2.8-12.9-1-6.6.2-10 7.6-8.8zm-6 9.6c3.3 7.2 18.3 2.8 9.6-2.7-3.5-.4-7.9-1.5-9.5 2.7z"/>
        <path class="st0" d="M355.7 196.2c5.3-1 5.6 27.5-1 24.8-.7-.6-1.2-2.3-2.3-1.3-3.7 3-8.3 1.3-12.5.8-4.8-2.3-2.8-10.2-3.8-14.7.2-2.7.7-5.4.5-8.2 0-1.4.2-1.6 1.8-1.7.3 1.4-.2 2.9.1 4.3 1 11.3-2.3 22.7 13.7 18.1 8.2-2 2.4-15.6 3.5-22zM104 261c3 21-15.8 11.7-29 12.8-6.1-6.2-2.1-17.5-3-25.6 7.6-5.2 21-2.3 30-.4 3.3 2.8 1.4 9.2 2 13.2zM77.8 259c-5 9.7 21 15.5 23 4-1.6-12-16.8-13.2-23-4zM166.6 176c.7-2.6-1-7.2 1.3-8.7 6.7-.5 13.5-1 20.3-1.2 9.2-3.2 8.4 6.2 9 12.6 0 4.2-1 9.8-5.8 10.7-10.8 1.6-27.9 2.5-24.7-13.4h-.1zm23.7-2.1c-26.3-6-28.8 18.5-2 10.8 16-10.6-11.3-19.5-17.4-9.4 4.9-4.1 14-4.6 19.4-1.4z"/>
        <path class="st0" d="M197 187c1.3 10-12.5 6.7-19 7.5-7.3 2.1-12.5-.8-12.3-8.8 5.5 8.2 25 7.8 31.3 1.4zM129.7 264.6c-11.5-11.3 10.3-19.2 10.7-6.2.3-1.8-.3-3.5-.8-5.3 15.7 1 3.5 14.9-6.2 13.3 2.6-1.1 5.3-2.2 6.6-5-2.7 2.8-6.5 5.5-10.4 3.1zm3.3-8c-4.8-4-3.9 4.4.5 4 5.1.4 3.6-8.2-.5-4z"/>
        <path class="st0" d="M129.6 264.5c.5 1.1 1.7 1.3 2.6 2-8.9 0-19.7-10-5.7-13.1-1.3 3.7-1.2 10 3.1 11.1z"/>
        <path class="st0" d="M144.8 251.9c-7.3-2.7-16.1-1.3-22.9 1.9 6-4.3 16.8-8.2 22.8-2zM143.1 265.8l-.5.5c-.3-.3.2-.5.3-.7l.2.2zM205.2 178.2c1-5-.9-10 1.9-14 7.9-1 25.6-5 30.3 2.5 3.4 11 1.6 19.9-11.5 20.7-7.5-.1-21.5 1.8-20.7-9.2zm14 6.1c7.3.5 17.2-5.3 13-13.3-11.6-17.2-37.7 10.2-13 13.3z"/>
        <path class="st0" d="M205.8 185c8.7 6.8 22.9 4 32.2-.5 1.3 10.6-13.3 7.4-19.5 7.6-5.3 1.1-13.7-.3-12.7-7.2zM256.3 162.6c16.1-4.2 30.1-3.2 27 17 0 2.3-.2 3.4-2.5 4-21 7.2-26.5-.4-24.5-21zm13.7 18c11.6.5 11.5-14-.6-13.1-13.3-.4-11.9 14.3.6 13.2zM156.5 217.3c0 9.3 4.7 16.2-8.3 16.6-13.8 2.8-27.1 2.7-24.4-15.5-2.8-14 13.1-12.8 22.8-12.3 9.6-1.4 10.3 2.6 9.9 11.2zm-14.8-7c-9-.7-21 8.6-11.4 16.6 13.3 17.9 37-17.8 11.4-16.7zM174.7 202.5c7.8 1 24-3 22.7 9.5-1 4.9 2 14.1-3.5 16.4-8.1-1-20.9 5.7-25.6-3.5-3.2-7.3-6.3-24.1 6.4-22.4zm6.2 22.3c12.5 1.4 17-14 4-17.4-16-5.2-23.8 17.9-4 17.4zM305.2 170.5c-.7-4.1 6.4-5 8.3-2 4.7 7.8-9.3 11.3-8.3 2zm4.3 1.2c-1.4-2.8-3.2-1.3-1.7 1 1.7 2.5 4.8-.5 2.7-2.7l-1 1.7z"/>
        <path class="st0" d="M314 177.5h-3.4c5.5-2.3 6.2-9 .9-12 9.4.1 10.4 8 2.5 12z"/>
        <path d="M313.4 243.1c13.8-.3 14.8 17 .2 15.5-14.8-.3-15.4-15-.2-15.5zm1 9.5c-2-1.2-2.2-5.9.5-3.1 2-.6 2.4 1 1.7 2.6 3-.6-.2-5-2-5.2-4.3-.7-4.5 6.7-.1 5.7zm-3.8-.2c-.5-1.5-.9-2.8-.3-4.3-4.7.2-4 4.3.3 4.3zm6.3 3c-3.3-1.2-7.8 0-10.7-2.6 1.5 3.6 7.4 3.5 10.7 2.7zm4.8-4.8c-1.6-2.3-2.7-3.1-4-3 2.5 1.2.1 5.7 4 3zm-1.7 4c.5 0 1.2 0 1.5-.7-.9-.4-1.2.2-1.5.7z"/>
        <path d="M297.4 251c0 22.2-40.3 18.2-39-2.6 3.4-16.7 40.2-17.2 39 2.7zM278 240c-5.8 0-18.6 3.9-17.6 10.8 3.7 6.1 10 12.7 17.8 11 22.4-1.8 22.4-21.5-.2-21.7zm17 6.2c-2.4-12.5-32.5-11.4-34.4.4 8.7-9.3 25.7-10.5 34.5-.4zm-34.3 8.7c3.2 12 27.7 13 32.6 2.5-10 7.5-24.5 8-32.6-2.5zM213.8 250.9c5.9-17.9 41.9-16.7 38.5 6.3-7.4 13.8-33 6.6-38.5-6.3zm35.4-1.4c-2.2-2.3-5-3.7-8.2-4 7.5 18.5-24.8 17.6-13-.6-14 1.3-16 6.8-3 13.7 9.2 5.2 19.1-1.2 24.2-9zm-15-5.3c-5.9-1.3-9 6-7.1 10.8 7.6 11.7 23.1-10.4 7.2-10.8zm16.4 6c-7.6 11.5-21.8 15.2-32.3 5.2 7 10.2 37.9 13 32.3-5.2zm-.9-2.2c-3.7-12.2-24.8-9.9-32.1-1.8 10.3-3.4 22.7-4.8 32.1 1.8zM366.4 250.4c-2.3 18-34 22.3-37.6 2.4 1.2-16.3 32-16.2 37.6-2.4zm-16.9 11.1c11.2-2.9 7.8-20.2-5.2-14.3-5 4.2-2.4 15.2 5.2 14.3zm13-13.7c-5.2-9.8-28-8.3-32.3 2.4 9.9-4.2 22.1-7.3 32.3-2.4zm-20.4-.2c-17.1 1.8-12.2 7.8.5 12.2-2.4-5-2.1-7.3-.5-12.2zm11.2 13.7c3.2.4 7-2.3 9-5 6.5-5.5-2.3-9-7.4-10 3.9 4.7 2.3 11-1.6 15zm-22.6-6.8c1 8.5 15.1 14.2 22.4 8.9-8.4-.5-16-3.8-22.4-9zM205.5 251.5c2.6 20.4-32.4 15.1-29.4-1.9 6.7-9.5 27.6-11.4 29.3 1.9h.1zm-21 2c-.5 9 14 8.5 12.8-.2 1.9-10.3-13.8-9.4-12.7.2zm12-7.7c2 4.8 4 11.7-2.3 14.7 9.5 1.6 14-14.3 2.4-14.7zm-19.5 7.1c2.4 11.2 23 16.2 27.2 3.8-6.9 8.7-22.2 5.5-27.2-3.8zm.3-1.6c1.8 3.5 4 6.4 8 7.5-2.3-3.9-2.1-7.6.3-11.5-3.4.4-5.9 2-8.3 4zm23-5.4c-5.6-6.8-18.1-1.8-23 4 6.5-4.3 15.4-6.8 23-4zM315.2 233c20.4 4.4 2 13.2-9 7.9-9.5-3.3 4.6-8.7 9-7.9zm-4 5-.7-2.7c-5.1 1.8-4.5 2.3.6 2.6zm7 .4c1.1 0 2.1.2 3-.7-1.3-2.1-3-2-3 .7zm-5.2-3.2c-1.5 0-1.3 2.8.2 2.3 0-.7 0-1.5-.2-2.3zm3.6.4.1 1.6c.4-.6.6-1 0-1.6zM311.6 259.6c3.4-.8 10.5 2.4 10 6-6.1 9.2-27.6-3.4-10-6.2v.2zm-1.6 2.1c-2.7.2-3 1.2-1.4 3 2.5 2.9 1.8-1 1.4-3zm7 1.6.2 1.9 1.3-.8c-.5-.6-.6-.8-1.4-1.1zm-4.5-1.2c-1 .6-.7 1-.2 1.7l.2-1.7zm2.3.3-1.5-.2c.6.6.6.6 1.5.2zM224.3 132.6c2.2-2.3 5 1.3 3.7 3.6-5 6.7-13.7-7.1-3.7-3.6zM137.4 179.2c-.3-1 .4-2.1 1.4-1.4 9.5.6-.9 9.4-1.5 1.4h.1zM133.3 182.7c1 .1 4 1.4 2.5 2.6-1-.7-2.5-1.2-2.5-2.6zM143.6 187c-1.2-.9-1.3-2.2.2-1.9 1.2.5.2 1-.2 2zM133.4 182.7c-1.7 0-.5-1.8 0-2.5.1.8.3 1.9 0 2.5zM146.6 184.1c-.1 1.3-.4 1.5-1.7 1 .2-1 .5-.9 1.7-1zM306.7 135.4c1.4-1.3 1.6-1.3 2.4 0 7.8-1.7-2.3 8.4-2.4 0zM472.8 248.7c3.8-1.8 3.2 4.7 0 4-2.8 0-3.3-6.8 0-4zM42.3 215.6c-5.8-.5-16.5-2.7-18.7 4.5 6.1-4.7 15.2-6.6 21-1.8l-1.6-1.8c12.4 7.4-7.5 23.5-17.4 15.1-7.8-2.9-4.3-16 2.8-17 4 0 11.8-2.8 13.9 1zm-8.8 2c-7.7-.4-3.8 11 .7 12.3 6.1-1 5.6-12.2-.7-12.3zm2.4-.7c4.3 3 5.7 10.3.6 13.3 5.8 2.3 11.4-5.6 8.8-10.3-2.8-1.8-6-4-9.4-3zm-3.6 13.5c-2.8-3.2-5.2-7.1-4-11.6-10.9 4-4 10.4 4 11.6zm6.2 1.6c-5.7.5-10.3-1.5-15.3-4.4 2.8 4.2 10.5 6.7 15.3 4.4zM109.4 217.8c4.7 9-3.5 17-12.6 13.8-3.9-.8-10.5-1.5-10.1-6.7-.5-2.6-1.3-3.8 1.7-5.9 7.8-7.5 13-5.2 21-1.2zm-6.1 3.5c.7-4.2-7.3-4.8-8.8-1.5-4.3 8.3 9.5 10.6 8.8 1.5zm5.4-1.5c-5.5-11-31.4-1-14.8 7.8-1.4-3.3-2-6.5.6-9.7l-3.2.6c5.4-2.7 12.8-2.6 17.4 1.3zm-8.3 9.6c8.4 1.2 13.3-9.6 3.3-11.6 1.6 4.4 1.2 9.4-3.3 11.6zm7.1-.5c-8 2.9-14 .2-19.8-5.5-2.2 6.2 17.2 10.3 19.8 5.5zM66.9 234a13 13 0 0 1-13.4-12c1.4-5.7 11.2-7.9 16.7-8.6 4.5.2 8 4.1 10.6 7.6 3.6 6.8-8 13-14 13zm13.8-12c-5-9.6-15.9-9-23.7-3.5 3.7 0 9.3-2.8 12.2-.2-2.2-.7-4.2-1.2-6 .7-.4-1-.6-1.2-1.4-1-10.3 1.1-8.2 6.7 0 9.2 0-1-1.2-1.6-.4-2.6 3.2 11.1 22-3.4 8.4-6.4 4.1-.7 7.3 1.9 11 3.7zm-4.1 7c-7.3 3.2-14 .4-20.1-3.8.7 9.4 14.7 9.3 20 3.7zm-1.9-9c1.5 4.8-1.8 8-6.1 9.6 7.2.8 18.5-6.4 6.1-9.7zM430.3 81.9c12-.7 30.8-1.8 37.2 9.3-17.5 26.4-106.7 3.3-37.3-9.5v.2zm9 17.1c8.2 1.3 20.1 0 25.7-7a41.1 41.1 0 0 0-25.8-9 9.2 9.2 0 0 1 .1 16zm-12-16c-27.7 4.8-27.4 13.5.5 15.4-5-4.2-3.8-10.5-.4-15.4zm15.8 8.2c.3-9.4-17.8-11.4-17.7-1-1.6 11 17.6 12 17.7 1zm-37 3.4c9 9.5 27.5 9.1 39.1 6-13.2-.3-27-.2-39.2-6zm43.3-11.8c5.4 2 10.9 4.5 16 7.4a35.8 35.8 0 0 0-16-7.4zM177 131.2c16.9 1.2 15.4 14 .2 15.8-16.3 0-18.2-15.3-.3-15.8zm-11 9.5c4.1 7.6 17.9 6.9 21.1-.8-6.5 3.7-14.2 1.4-21 .8zm20-5c-5.1-4.7-17-4.4-20.5 1.6a37 37 0 0 1 20.4-1.5zm2.3 1.4c-6.2-1-7.2-2.7-9.4 4 3.2-.4 8.3-.6 9.4-4zm-15.1 3.5c0-5.3-5-4.6-7.8-1.7 1.7 2 5.4 1.5 7.8 1.7zm2.5-4.6v.1c-6.3-.4-.5 7 2.8 3.4 3-2.8.2-4-2.8-3.5zM92.8 138.9c-1.7 23.3-52.5 21-63.5 6.7-8.6-18.7 24.4-18.8 36-18.9 10.6.3 19.8 5.1 27.5 12.2zm-54.2 10c8.9 3.6 20 7 29.6 4-13.7.2-30-.9-39.4-11.6C30 150.4 43 152.8 51 154.1c-6.2-2.8-15-2.6-19.1-8.6 1.4.7 2.2 2.1 3.6 1.6.3 1.2 2 1.2 3 1.9zm24.4 2.2c28.8.4 39.8-17.4 3.4-15.7 4.2 4.9 2.3 13-3.5 15.7zM56 134.8c-11.6-.7-7.4 18.6 3.5 16 11.9-2.5 9.3-18.7-3.5-16zm-4.3 15.4c-12.7-8.2 12.6-23.4-22-11.2 5.7 6 13.9 9.8 22 11.2zM68 129.5a56.2 56.2 0 0 0-32 3.4c10.3-3.4 21.2-3.1 32-3.4zm1.5 1.8a107 107 0 0 0-29.2 1.3c9.6.2 19.5-1.5 29.2-1.3zm-9 1.3v.3c17.8 1.9 18.3-1.6 0-.3zm18.8-1.4a40 40 0 0 0-22-3.2c7.5 0 14.7 1 22 3.2zm4.6 19.7-.1-.4-8.7 2.6c3.3.4 6-.8 8.8-2.2zm1.6-1.9c-2.8-.6-5.2 1.1-7.7 2 2.1 0 5-1.4 7.8-2zm-8.6 2.4c-4 .2-5.6.5-7 1.5 2.7-.6 4.7-.5 7-1.5zm-8.4 2.7c.2.6 1 0 1.5 0v-.3l-1.5.3zM154.7 92.7c-3 12.7-24.4 12.3-28.2 1.4 5.5-10.8 21.6-11.5 28.2-1.4zm-3.1 3.8c-6 1-13.7 4-20 2 5.8 3.6 15.8 4 20-2zm-12-6.3c-4.2-.5-4.8 6.8-.4 6.7 5.7.8 6-7.1.4-6.7zm12 1.3c-4.4-6.4-14-6.2-19.3-1.8 6.5-2.8 13-1 19.2 1.8zm-16.6 0c-7.6 1-3.3 7.5 1.3 5.5-1.7-1.5-1-3.6-1.3-5.5zm9.6 4.9c2.2-.3 4-1.6 6-2.4-1.7-1.7-4.4-3-6.1-2.8.8 1.6.1 3.3 0 5.2zM244.2 100.9c-9.7 7-29.9-5-16.5-14.6 10.2-7.5 27.3 3.4 16.5 14.6zm-9-12c-2.3-.4-4 2.6-3.9 4.6 2.6 12 17.5-6.2 3.9-4.6zm-10 6.7c1.7 5.6 13.1 8.2 17.7 3.7-6.3 2-12.5-.4-17.7-3.7zm16.6-5.6c.4 3-.2 5.5-2.5 7.9 5 0 9.3-6.4 2.5-7.9zm-16.1 3c1.5 1.9 3.5 3 5 3-.9-2 0-4 .1-6.1-2.3.2-4.2.8-5.1 3.1zm1.4-4.7a29 29 0 0 1 15-.6c-3.8-4.2-10.8-2.3-15 .6zM40.5 174.4c-3.2 3-9.9 3.6-12.3 8.2l1.8-1c-.5 1.2-.6 1.3 0 2.3h-2c13.7 12.3 49.8 9.2 66 2.6-13.8 2-28.7 4-42.2 0 2.2-.5 3.9.8 6 .7-3.3-2.7-5-6.1-4.6-10.4-5 .4-10.2 2.6-15.1 2 4-1.3 9-1.3 13.3-2.4 2.2-.5 6-2.4 7.6-.5-14.5 1 5.8 21.7 13 6.4 4.2-8.9-7-6.9-12.3-6.8 9.1-2.3 34.7 1.2 43 7-1.8-4.3-10.8-5.5-15.5-7.5 6.1.3 12.2 3.2 17.1 7C88 195 42 197.4 25.6 183.6c4.1-4.6 9.1-7.3 15-9.2zm61.1 9c-6.7-7-19.1-5.4-28.3-6.8 1.6 5-2.1 9.6-6.5 11.6 11.6-1 24-.4 34.8-4.8z"/>
        <path d="M40.5 174.5c10.3-4.2 22.1-.8 33-1.9-1 1.7-2.8.3-4.4 1-9.4-1-19.8-.6-28.6.9zM63.3 180.6c3-2.4 3.3 2.4.6 3.2-4.4 1.3-5.8-7.2-.6-3.2zM86.5 175c-4.2-1-8.5-1-12.7-1.7v-.4c4 .8 9.7-.2 12.7 2.2zM32 180.2c1.2-1 4.5-1.4 5.8-1.2-1.6.8-4 1.5-5.8 1.2zM39.3 185l7.4.3c-2.5.4-5 .4-7.4-.4zM34 184.3l2.3.7c-1 .2-2.2.3-2.3-.7zM30.7 183.6c.5.2 1.5 0 1.7.4h-1.7v-.4zM50.3 186.7l-1.1-.2v-.4l1.1.2v.4zM36.8 185h1c0 .7-1.1.5-1 0zM30 180.8c.7-.4.8-.4 1.1.2-.4.4-.4.3-1-.2zM454.5 177.6c-13.3 2.1-52.4-5-23.5-18 23.6-13.5 80.6 11.8 23.6 18zm-.2-2c31-.3 25-16.6-1.8-16.8 8.4 2 7.4 12 1.8 16.8zm-7.7.3c13 .5 14-17 .1-16.8-10.5-2.2-11.2 18.5 0 16.8zm-7.2-16.4c-6.8 1.4-12.7 4-17.2 9.1a31.7 31.7 0 0 0 17.7 6.9c-4.4-4.6-3.6-10.8-.5-16zM190.5 106.1a14 14 0 0 1-15.2-10.5c-1.3-7.5 9.6-9.3 15-11.5 18.2.3 18.7 21.2.2 22.1v-.1zm.8-17.1c-9.2-1.2-10.7 9.8-2.5 11.7 5.4-.1 10.6-11.8 2.5-11.7zm5.2.4c1.6 4.6-.7 8.7-3.6 12 7.5-.5 14.2-9.8 3.6-12zm-17.8 10c3 7.6 17.8 7.6 22.3.3-6.4 4.7-16.2 5.2-22.3-.4zm-1.5-4.4c1.1 2.2 5.3 5 6.8 5-1.6-2.5-2-5.5-2.5-8.6-1.7 1.3-3.5 1.8-4.3 3.6zm3.1-4.8a28.7 28.7 0 0 1 17.7-2.5c-3.8-4.4-15.1-1.1-17.7 2.5zM41.4 267.2c-22.5-4.3-8.2-25.5 8.7-16.7 9.4 7.5 1.6 17.1-8.7 16.7zm-1.2-4.2c-3.6-2.3-4.2-5.7-3.4-9.7-11.8 4-.5 10.1 6.5 10-1.5-.7-1.8-.7-3.1-.3zm.5-10.2c-6 0-3.5 10 1.6 9 6 .4 3.8-9.9-1.6-9zm3.2 10.3c9 1.7 12.7-8.1 1.7-9.6 2.2 2.9 2.1 8.3-1.7 9.6zm-12.1-8.6c6.2-4.2 14-3.3 20.2.4-1.9-7.5-17.5-6.2-20.2-.4zm1 6.7c3 6 12.2 5.9 17.2 2.4a23 23 0 0 1-17.2-2.4zM400.5 257.5c-17.7.2-13.4-24.5 3-19.6 10 2.6 7.2 20.1-3 19.6zm-.3-6.7c6-.5 5.1-11.3-1.3-8.8-4.1.8-3.4 9.3 1.3 8.8zm5.9 1.5c-4.6 2.5-10 2.6-14-1.3-1.6 4.9 12.7 7 14 1.3zm-11.4-8.5c-5.6 1.2-1.9 7.2 2 7.8-2.3-3.3-2.4-3.8-2-7.8zm10.8-.8c.9 2.2-.2 4.9.3 6.6 1.6-1.9 2.9-5.4-.3-6.5zM401 240c-1.7-1.5-7.1-.6-8 2 2.6-1.2 5-2.1 8-2zM255.8 136.3c4.7-9.2 23.4-9 24.3 1.8-4.6 10.5-21.8 9.5-24.3-1.8zm14.4-5.1c-2.4-1.3-4.5-1-6.4 1.3l-.2-1.1c-10 2-6.3 11.2 1.7 12.4-2.3-1.6-3.5-4.1-3-6.7 1.1 10.8 12.7 4.3 9.3-4 3 2.7.2 10.2-4.3 10.6 4.8 2.1 13-2.9 11.4-8-1.9-1.9-6.3-6.3-8.5-4.5zM335.3 98.2c-5.7 10.5-25 4.4-21.3-7.1 4.4-12.8 27.6-6.5 21.3 7.1zm-13.8-4.5c-.2 3.2 2.7 5 5.8 3.3 6.7-5-5.6-14.2-5.8-3.3zm7.2-5.2c3.5 3.6 2 8.5-1.9 10.5 7.4.7 10.5-9.5 2-10.5zm-7 9.7c-2.2-2.8-1-5.9-.7-9-6 2.5-6.5 9 .6 9zm-4.1 1c3.1 4.5 12.6 4.5 15.2-.5-4.5 3.8-10.2 1.6-15.2.5zm-2.2-8.5c4.7-4 9.9-5.6 16-3.4-4.4-3.6-13.8-2-16 3.4zM131.4 148.2c-7 .1-12-3.2-15.5-8.8-2.4-5.1 7.4-7.3 11-8.3 5.6-1.5 21.3 2 17.2 9.5-3.7 3.7-7 8-12.7 7.6zm-6.1-12.7c-3.5.2-5.6 1.2-8.3 3.4 4 2.1 8 5.2 12.7 4.5-4.7-3.3-4.7-3.6-4.4-7.9zm11.2.3c.6 3.3-.7 5.4-2.9 7.8 8.7.4 14.2-5.3 2.9-7.8zm-9-.6c-2.1 3.4 1 7.5 5 7.1 5-4.8 1.2-9.5-5-7.1zm15.2 1.7c-5.7-7.7-19.6-5.7-25.9.3 7.9-4.5 18-4.7 26-.3zm-4.7 7.7c-6.5.6-12.8-.1-18.6-3.1 3.5 4.5 14 8.4 18.6 3.1zM355.3 93.9c-3.8-5.7 7-10.5 12-10.1 3.2-.3 12 4 11.7 7.2 3.4 15.2-22 17-23.7 2.9zm6.8-.3c-.3 5.3 7.7 7.3 9.4 2 2.6-8.1-9-10.8-9.4-2zm9.9 4.7c5.7-2.4 6.8-10.6-.7-10.4 3 5.6 2 6.3.7 10.4zm-13 0c3.7 6 16.4 5 18.2-1.7-4.5 5.6-12.3 4-18.2 1.7zm3.7-9.1c-6.9.3-6.2 8.3.2 8.5a8.4 8.4 0 0 1-.2-8.5zm9.8-2.5c-3.5-3.2-12-2.4-14.3 2 4.7-1.7 9.4-2.9 14.3-2zM281.4 82.2c19.1 3.5 13 24.6-4.7 20.7-13.4-5.3-8.4-20.3 4.7-20.8zm.5 6c-4.1-.8-5.7 5.7-2.2 7.2 5.5 3 7.5-7.5 2.2-7.2zm7-.8c-3.5-5.5-15-4.6-17 1.7 5.4-3.6 11.3-4.7 17-1.7zM283 97c8.2 0 8.9-5.8 1.8-8.4 2 3.3 1 6.1-1.8 8.4zm-4.3-.5c-2.9-2-2-4.9-1.3-8a58.7 58.7 0 0 0-6 4.4c2.2 1.9 4.6 3 7.3 3.7zm10 3c-5.9 1.5-13.2 1.5-18-3.3 3.4 6.6 12.6 7.3 18 3.2zM89.4 86.2c4.3 1.2 12.6-.8 13.5 5 .7 8.6-6 13-14 12.5-16.9-.6-16.7-17.7.5-17.5zm.7 13.3c8.2 0 4-11.4-3-8-3.5 1.4-1.7 9.3 3 8zm11.2-8.2c-2.1-5-20.4-4.3-23.1 1 7.3-2.2 15.6-4.1 23-1zm-6.9-.1c1.4 2.7 1.8 5.1.8 7.8 6.2-2.9 7.8-8.2-.8-7.8zm-13.3 7.3c3.9 6 16.3 5 19.5-1.4-5.6 4.2-13.5 5.4-19.5 1.4zm-1.6-5c.7 2.9 4 5.8 6 5.5-1.8-2.1-1-4.5-.7-7-2 .3-3.8.2-5.3 1.6zM41 107.1c-10.8 2.3-16.5-15.1-4.4-17.7 19.7-4.7 27.4 16.9 4.4 17.8zm.7-5.1c6.6 0 4.8-10.6-2.3-8.5-3.4 1.9-2.2 9.3 2.3 8.5zm-11-4.2c.4 9.6 14.3 10 20.2 5-7.3 1.7-15.8 2.5-20.1-5zm15.2 4c8.4-1.6 8.3-5.3.3-7.3.7 2.4.7 4.7-.3 7.2zm6-7.1c-.9-6.3-15.7-6.3-18.6-1.7 6-3.4 13-1.5 18.5 1.7zm-14.5-.8c-7.6 1-6.1 4.6-.2 7-1-2.4-1.2-4.6.1-7zM388.8 206c.8 12.4-19.3 9.9-17-.9 5.3-3.7 12-2.7 17 1zm-11.8 1.5c-.7 6.5 7.8 7.7 8 .9.2-4.3-8.1-6-8-.9zm-.8 3.6c-.7-2.2-.7-4.2-.1-6.5-4.4.6-2.9 5.3 0 6.5zm10.6-2.3c.3-1 .6-2.6-.6-2.3l.6 2.3zM424 239.3c4.8-4.2 12.4-2.4 18.2-.4 5.7 4.2-11.3 11.2-18.2.4zm12 2.5c2.4.3 4.4.1 6.2-1.5-1.8-1.6-3.7-1.6-5.8-1.4 0 1 1 2-.4 3zm-4.1-.4c-1.1-2.8-3-4-5.3-1.7 1.6 1.7 1.5 1.6 5.3 1.7zm-2.3 1c1.7 2.2 6.3 2 8.6.8l-8.6-.7zM461.6 123.9c9.2-.6 15 6.8 3.4 9.5-11.2 2-17.8-8.6-3.4-9.5zm2.2 1.3c1.5 2.4 3.6 4.9.7 7.1 7.6-.8 6.8-7.3-.7-7.1zm-4.9 4.5c.5 1-.4 2.7 1.6 2.6 10 .2-.9-13.2-1.6-2.6zm-1 2.3c-.2-2.8.1-4.6 1.3-7-4.8.9-7 5-1.2 7zM427.3 260c3.9-4.5 10.8-3.5 15.9-1.7 6.3 4.9-11.5 9.5-16 1.8zm3.8 1.3c3.2 2.3 6.3 2.5 9.2.7-3.2.5-6 .3-9.2-.7zm11.7-1.8c-1.3-.4-2.5-1-4-1.1.2 2.9 2.1 2.3 4 1.2zm-9.2 1.2-.8-2.4c-.7.6-1.8.2-2.2 1.5l3 .9zM341.5 205.3c1.6-4.3 6-3.1 9.5-2.6 8.7 5.5-6.4 9.8-9.5 2.6zm6.4-1c.3.9.2 1.8.2 2.9 3-.5-1.6-5-1.5-1.8l1.3-1zm-2.6-.8c-2.5.4-2 2.8 0 3.4v-3.4zm7 3c0-1.8-.7-2.5-2-2.1.3 1 .4 1.7.3 3 .6-.4 1.1-.6 1.7-.8zM77.8 258.9c10.5-15.7 34 3.2 16.8 9.8-5.8 2.5-19-1.9-17.5-9.3 4.8-2.1 12.2-5.4 18.8-3.5-5-6.5-13-.2-18 3zm9.7-2c-5 7.8 8 11.1 6.9 1.9 1 1.4.7 2.4-1.4 6.2 14-2 2.8-10.2-5.5-8zm12 7.4c-7.8 3.2-16.1 2.6-21.6-4.3-1 8.8 17.9 12 21.6 4.3zM80 259.5c.7 3 5.8 6.2 8.6 5.5-4.5-2.8-3.3-3-2.5-8-2.1 1-4.4 1.2-6.1 2.5zM190.3 173.9a18.5 18.5 0 0 0-19.4 1.4c3.5-5.7 13.7-4.8 19.2-2.6 9.4 6.6-4.3 15.9-11.8 13.5-5.3.1-9.7-3-9.1-8.8 4.2-4 14.3-5 21.1-3.5zm-12.4 2.1c-1.8 3.8 2.2 7.5 5.8 6 6.5-3.1-.8-11.5-5.7-6.3l-.1-1.1c-9.7 2.5-6.7 6.7 1.3 8-1.4-1.7-3.4-5-1.3-6.6zm7.8-1.7c2.4 3.3 1.5 6-1 8.7 8-.3 10.2-8.4 1-8.7zm2.9 9.3c-5.8.5-14.5 1.6-18.6-4.7-.6 8.5 13.1 7.9 18.6 4.7zM133 256.5c4-4.1 5.6 4.5.5 4-4.3.5-5.3-7.9-.5-4zm.5 1.8c-5-5.3-3 2.9 1.1 1.2 3.6-1.7-.3-5.5-1.1-1.2zM219.1 184.3c-24.6-3 1.5-30.5 13-13.3 4.3 8-5.6 13.8-13 13.3zm-.3-15.2c-8.7-.7-12 10.1-1.5 12.1 12.8 2 22.4-9.7 5-12.4 5.6 2.3 6.5 11-.4 11.9-7 2-8.1-9-3.1-11.5zm2.5.2c-5.3.1-7 8-2.6 10.4 7.8 2.5 10-8.3 2.6-10.4zm8.5 10.5a17.6 17.6 0 0 1-19.4-.7c3.3 6.4 15.2 5.6 19.4.7zm-14-11.4c6-1 11.8-.6 16.2 4.4-2.8-5.7-10.8-8-16.2-4.4zM270 180.7c-12.5 1.2-13.9-13.6-.6-13.2 12-.9 12.2 13.6.6 13.2zm3-8c0-5.9-7.6-5-8.2 0-2.2 8.6 8.9 8.8 8.3 0zm-.6-4c3 3.9.5 7.7-1 11.2 7.4.2 9-11 1-11.2zm-6.7.1c-7.5 1.3-5.7 10.4 1.1 11-4.3-2.4-3.3-7.3-1-11zM141.7 210.2c25.6-1.1 1.9 34.6-11.4 16.7-9.6-8 2.5-17.3 11.4-16.7zm-6.6 12c2.8 8.9 14 5 12-3.8-1.7-8.5-13.4-4.8-12.1 3.2-.5-2.7.2-5.1 1.7-7.7l-4 1.5c5.1-3.9 14.7-3.4 19.7.5-3.2-8.4-25-5.2-24.2 4l.9-.6c-.1 3.7 5 7 8.4 7.7-1.3-1.5-2.3-2.8-2.4-4.7zm10.7-8.1c3.7 3.9 2.5 9.7-.8 13.5 7.4-1.2 11-14.1.8-13.5zm.8 13.8c-7.3 2.5-14-1.5-18.7-6.9 1.2 7.7 12.9 14 18.7 6.9zM181 224.8c-20 .5-12.2-22.6 3.9-17.4 13 3.3 8.5 18.8-4 17.4zm-.1-13.2c-8.1-.4-5.6 10.9 1.8 9 4.8-.7 3-10.2-1.8-9zm-11.2 6c2.4 7 15.7 8.2 20.1 2.6-7.4 3.6-13.9 2.3-20-2.7zm15.1-6.9c2.2 3.2 3.2 6 1.6 9.7 6.3-2.6 5.1-9.2-1.6-9.7zm-15 4.8c1.3 2.3 3.5 3 5.6 4.4a7.5 7.5 0 0 1 .6-8.7c-2.6.8-4.9 1.8-6.2 4.3zm4-5.5c4.6-2 9.3-1 13.9.2-3.5-2.7-10.6-3.4-13.8-.2zM309.5 171.7l1-1.6c2 2-1 5.1-2.7 2.7-1.5-2.4.3-4 1.7-1.1z"/>
        <path class="st0" d="M314.5 252.6c-4.4 1-4.2-6.4 0-5.7 1.9.2 5.2 4.6 2 5.2.8-1.5.4-3.2-1.6-2.6-2.7-2.8-2.5 1.8-.4 3z"/>
        <path class="st0" d="M310.6 252.4c-4.4 0-5-4-.3-4.3-.6 1.5-.2 2.8.3 4.3zM317 255.5c-3.4.8-9.3.9-10.8-2.7 3 2.7 7.4 1.4 10.7 2.7zM321.7 250.6c-3.9 2.7-1.5-1.8-4-3 1.3-.2 2.4.7 4 3zM320 254.6c.3-.5.6-1.1 1.5-.7-.3.8-1 .6-1.5.7zM278.1 240c30.5 1.8 15.3 26.6-7 21-18.4-10-9.8-19.5 7-21zm-6.5 4-.3-.2c-9 7-.2 18.8 9.5 16.8 11.5-5 2-23.5-8.6-17.2 11.1-4.9 19 13.1 7.4 16.5-9 .8-15.4-9.2-8-15.9zm4.6 7c-3.9-5.3-4.2 3.8.4 3 3.4-.3 3.4-6-.4-3z"/>
        <path class="st0" d="M295.2 246.2c-8.8-10-25.8-8.9-34.5.4 2-11.8 32-13 34.5-.4zM260.8 254.9c8.1 10.6 22.7 10 32.6 2.5-4.9 10.5-29.4 9.4-32.6-2.5zM249.2 249.5c-5 8-15 14.3-24.1 9-13.1-6.8-11.2-12.3 3-13.6-12 18.2 20.4 19 12.9.6 3.2.3 6 1.7 8.2 4z"/>
        <path class="st0" d="M234.3 244.2c16 .3.3 22.5-7.2 10.8-1.8-4.8 1.2-12.1 7.2-10.8zm-.6 8.2c-1.4-4.7-5-1.7-1.5.9 6 3.2 4.4-8.1 1.6-1z"/>
        <path class="st0" d="M250.6 250.2c5.6 18.2-25.3 15.5-32.3 5.2 10.5 10 24.6 6.3 32.3-5.2zM249.7 248c-9.4-6.6-21.8-5.2-32.1-1.8 7.3-8 28.4-10.4 32.1 1.8zM349.5 261.5c-7.6.9-10.2-10.1-5.2-14.3 13-6 16.4 11.4 5.2 14.3zm-4.2-8.8c3.7 11.2 10.3-4.2 3.8 2-.7-1.8-1.8-4-3.8-2z"/>
        <path class="st0" d="M362.5 247.8c-10.2-5-22.4-1.8-32.3 2.4 4.2-10.7 27.1-12.2 32.3-2.4z"/>
        <path class="st0" d="M342.1 247.6c-1.6 5-1.9 7.2.5 12.2-12.7-4.5-17.6-10.4-.5-12.2zM353.3 261.3c4-4 5.4-10.3 1.6-15 5.1 1 14 4.5 7.3 10-2 2.7-5.7 5.4-9 5z"/>
        <path class="st0" d="M330.7 254.5c6.4 5.2 14 8.4 22.4 8.9-7.3 5.3-21.4-.4-22.4-9zM184.6 253.5c-1-9.6 14.6-10.5 12.7-.2 1.2 8.7-13.3 9.1-12.7.2zm6.8-1.8c-4.3-4-3.7 5.2.8 3.5 2-1.1 1.3-5.5-.8-3.4z"/>
        <path class="st0" d="M196.6 245.8c11.6.4 7.1 16.3-2.4 14.7 6.3-3 4.3-9.9 2.4-14.7z"/>
        <path class="st0" d="M177 253c5 9.2 20.3 12.4 27.2 3.7-4.1 12.4-24.8 7.4-27.2-3.8z"/>
        <path class="st0" d="M177.3 251.3c2.4-2 4.9-3.6 8.3-4-2.4 3.9-2.6 7.6-.3 11.5-4-1-6.2-4-8-7.5z"/>
        <path class="st0" d="M200.3 246c-7.6-3-16.5-.4-23 4 4.9-5.9 17.4-10.9 23-4zM311.1 238c-5-.4-5.7-1-.6-2.7l.6 2.6zM318.2 238.4c0-2.6 1.7-2.8 3-.7-.9 1-1.9.8-3 .7zM313 235.2l.2 2.3c-1.5.5-1.7-2.3-.2-2.3zM316.6 235.6c.7.6.5 1 .1 1.6v-1.6zM310 261.7c.4 2 1.1 5.9-1.4 3-1.7-1.8-1.3-2.8 1.4-3zM317 263.3c1 .4 1 .5 1.5 1.1l-1.3.8-.1-2zM312.5 262.1l-.2 1.7c-.5-.7-.7-1.1.2-1.7zM314.8 262.4c-1 .4-1 .4-1.5-.2l1.5.2zM33.5 217.6c6.3.1 6.8 11.3.7 12.3-4.5-1.4-8.4-12.7-.7-12.3zm.8 4.8c-1-.2-1.8.7-2.8 0-.2-.2-.8 0-1 .3-.6 2.8 4.7 4.2 4 .4l-1.5.8c-.1-1.2 1-.8 1.3-1.5z"/>
        <path class="st0" d="M36 217c3.3-1.2 6.5 1 9.3 2.9 2.6 4.7-3 12.6-8.8 10.3 5.1-3 3.7-10.2-.6-13.3zM32.3 230.4c-8-1.2-14.8-7.6-4-11.6-1.2 4.5 1.2 8.4 4 11.6z"/>
        <path class="st0" d="M38.5 232c-4.8 2.3-12.5-.2-15.3-4.4 5 3 9.6 4.9 15.3 4.4zM103.3 221.3c.7 9-13.1 6.8-8.8-1.5 1.5-3.3 9.5-2.7 8.8 1.5zm-7.2 1.5c0 6.8 7.9-1.2 2.8.8-.2-2-1.4-2.2-2.8-.8z"/>
        <path class="st0" d="M108.7 219.8c-4.6-3.8-12-4-17.4-1.3l3.2-.6c-2.7 3.2-2 6.4-.6 9.6-16.6-8.6 9.4-18.7 14.8-7.7z"/>
        <path class="st0" d="M100.4 229.4c4.5-2.2 4.9-7.2 3.3-11.6 10 2 5 12.8-3.3 11.6z"/>
        <path class="st0" d="M107.5 229c-2.5 4.7-22 .6-19.8-5.6 5.8 5.7 11.8 8.4 19.8 5.5zM80.7 222c-3.6-2-6.8-4.5-10.9-3.8 13.7 3-5.2 17.5-8.3 6.4-.9 1 .3 1.7.3 2.6-8.2-2.5-10.3-8 0-9.2.8-.2 1 0 1.3 1 1.9-2 3.9-1.4 6.1-.7-2.9-2.6-8.5.1-12.2.2 7.8-5.6 18.7-6 23.7 3.4zm-15-.4c-2.6 4.2 6.3 5.5 3.5.6-1.5 1.2-2.2.4-3.4-.6z"/>
        <path class="st0" d="M76.6 229c-5.4 5.5-19.4 5.5-20.1-3.8 6.1 4.2 12.8 7 20 3.7z"/>
        <path class="st0" d="M74.7 220c12.4 3.2 1 10.4-6.1 9.6 4.3-1.5 7.6-4.8 6.1-9.7zM439.3 99a9.2 9.2 0 0 0 0-16c9.2-.5 18.4 3.6 25.7 9-5.6 7-17.5 8.3-25.7 7zM427.4 83c-3.4 5-4.6 11.2.4 15.4-28-1.9-28.1-10.6-.4-15.4z"/>
        <path class="st0" d="M443 91.2c0 11-19.2 10-17.6-1 0-10.4 18-8.4 17.7 1zm-9.3-2.2c-3-6.7-6.2 4.3-1 5 5.4 1.1 6.8-10 1-5z"/>
        <path class="st0" d="M406 94.6c12.3 5.8 26 5.7 39.2 6-11.6 3.1-30 3.5-39.2-6zM449.4 82.8c5.5 1 11.8 3.7 16 7.4-5.1-2.9-10.6-5.4-16-7.4zM166 140.7c6.9.6 14.6 2.9 21.1-.8-3.2 7.7-17 8.4-21 .8zM186 135.8a37 37 0 0 0-20.5 1.5c3.6-6 15.4-6.4 20.4-1.5z"/>
        <path class="st0" d="M188.3 137.1c-1 3.4-6.2 3.6-9.4 4 2.2-6.7 3.3-5 9.4-4zM173.2 140.6c-2.4-.2-6 .3-7.8-1.7 2.8-2.9 7.8-3.6 7.8 1.7z"/>
        <path class="st0" d="M175.7 136c3-.6 5.9.7 2.8 3.5-3.3 3.6-9-3.8-2.8-3.4v-.1zm2.4 3.4.6-2.5c-4-.6-5.4 3-.6 2.5zM63 151.1c5.7-2.7 7.6-10.9 3.4-15.7 36.4-1.7 25.3 16.1-3.5 15.7z"/>
        <path class="st0" d="M56.1 134.8c12.8-2.7 15.4 13.5 3.5 16-10.9 2.6-15.1-16.7-3.5-16zm-2 4.2c-3.9 3.6 2 9.9 6 6 3-2.7 1.2-7.3-2.1-3a6 6 0 0 0-3.9-3z"/>
        <path class="st0" d="M51.8 150.2a40.3 40.3 0 0 1-22-11.2c34.7-12.2 9.2 3 22 11.2zM35.6 147c-1.4.6-2.2-.8-3.6-1.5 4.2 6 13 5.8 19.1 8.6-6.5-1-14-2.4-19-6.8-1-1.8-4.2-3.8-3.3-6 1.9 2 4.5 3.9 6.8 5.8zM68 129.5c-10.8.3-21.7 0-32 3.4 9.2-5 22-4.8 32-3.4z"/>
        <path class="st0" d="M69.5 131.3c-9.7-.2-19.6 1.5-29.2 1.3 9.3-1.3 20.3-2.6 29.2-1.3zM45.3 151c7.6.8 15.3 2.6 23 1.9-7.3 2.5-16.2.8-23-2zM60.5 132.6c18.4-1.2 17.7 2.2 0 .3v-.3zM79.3 131.2a78.3 78.3 0 0 0-22-3.2 40 40 0 0 1 22 3.2zM83.9 150.9A14.9 14.9 0 0 1 75 153l8.7-2.6v.4zM85.5 149c-1.8.3-8.2 2.8-7.1 1.6 2.5-.5 4.4-2.3 7.1-1.6zM38.7 148.9c2.1.7 4.6 1 6.6 2-2.3 0-4.9-.3-6.7-2h.1zM76.9 151.4c-2.3 1-4.3 1-7 1.5 1.4-1 3-1.3 7-1.5zM38.6 149c-1-.7-2.7-.7-3-2 .8.7 2.4 1.3 3 2zM68.5 154l1.5-.2v.2c-.5 0-1.3.7-1.5 0zM151.6 96.5c-4.2 6-14.2 5.6-20 2 6.3 2 14-1 20-2zM139.6 90.2c5.6-.4 5.3 7.5-.4 6.7-4.4 0-3.8-7.2.4-6.7zm1.4 1.3c-4.3-1.2-4.5 4.3-.4 3.6 1.3-.6 1-2.6.4-3.6z"/>
        <path class="st0" d="M151.5 91.5c-6.1-2.8-12.7-4.6-19.2-1.8 5.3-4.4 14.9-4.6 19.2 1.8zM135 91.5c.3 1.9-.4 4 1.3 5.5-4.6 2-9-4.4-1.3-5.5zM144.6 96.4c0-2 .7-3.6-.1-5.2 1.7-.1 4.4 1 6.2 2.8-2.1.8-4 2-6.1 2.4zM235.2 89c8.2-2 6.4 9-.4 8.5-5-.5-4.3-8.9.4-8.6zm-1.2 1.5c-3.9 3.6 5.2 6.4 4.5 1.2-.8-1.4-3.4.3-4.5-1.2z"/>
        <path class="st0" d="M225.2 95.6c5.2 3.3 11.4 5.8 17.7 3.7-4.6 4.5-16 1.9-17.7-3.7zM241.8 90c6.8 1.5 2.5 8-2.5 7.9 2.3-2.4 3-5 2.5-7.9zM225.7 93c.9-2.3 2.8-2.9 5.1-3.1-.1 2-1 4-.2 6.1-1.4 0-3.4-1.1-5-3zM227.1 88.3c4.2-2.9 11.2-4.8 15-.6a29 29 0 0 0-15 .6zM101.6 183.4c-10.9 4.4-23.2 3.8-34.8 4.8 4.4-2 8.1-6.6 6.5-11.6 9.2 1.4 21.6-.2 28.3 6.8zM454.3 175.6c5.6-4.8 6.6-14.8-1.8-16.8 26.8.2 32.6 16.5 1.8 16.8z"/>
        <path class="st0" d="M446.6 176c-11.1 1.6-10.4-19.1.1-17 13.9-.1 12.9 17.4 0 17zm2-11.1c-4.2-6.2-9.3 1.2-3.6 4.8 5.6 5 11.5-8.8 3.6-4.8z"/>
        <path class="st0" d="M439.4 159.5c-3.1 5.2-3.9 11.4.5 16-6.5-.2-12.5-3-17.7-6.9a30.5 30.5 0 0 1 17.2-9.1zM191.3 89c8 0 2.9 11.6-2.5 11.7-8.2-1.9-6.7-13 2.5-11.7zm-2.3 3.5c-4.1-3.8-3.4 5.5.6 4.2 2.7-.5 2.7-5.9-.6-4.2z"/>
        <path class="st0" d="M196.5 89.4c10.4 2 4 11.8-3.6 12 3-3.3 5.2-7.4 3.6-12z"/>
        <path class="st0" d="M178.7 99.3c6.1 5.6 16 5 22.3.4-4.5 7.3-19.3 7.3-22.3-.4z"/>
        <path class="st0" d="M177.2 95c.8-1.8 2.6-2.3 4.3-3.6.5 3.1 1 6 2.5 8.7a13 13 0 0 1-6.8-5zM180.3 90.2c2.8-3.7 13.6-6.9 17.7-2.5-6.3-1-12-.2-17.7 2.5zM40.7 252.8c5.3-.9 7.6 9.4 1.6 9-5.1 1-7.5-9-1.6-9zm2 3.1c-1 1.6-3.3-2.2-3.3.6 0 4.6 7 2.3 3.2-.6z"/>
        <path class="st0" d="M43.9 263c3.8-1.2 4-6.6 1.7-9.5 11 1.5 7.2 11.3-1.7 9.6z"/>
        <path class="st0" d="M31.8 254.5c2.7-5.8 18.3-7.1 20.2.4-6.2-3.7-14-4.6-20.2-.4z"/>
        <path class="st0" d="M40.2 263c-7-1.2-13.4-6.3-3.4-9.6-.8 4-.2 7.3 3.4 9.6z"/>
        <path class="st0" d="M32.8 261.2a23 23 0 0 0 17.2 2.4c-5 3.5-14.1 3.5-17.2-2.4z"/>
        <path class="st0" d="M40.2 263c1.2-.4 1.6-.4 3 .3l-3-.3zM400.2 250.8c-4.7.5-5.4-8-1.3-8.8 6.4-2.5 7.3 8.3 1.3 8.8zm0-5.7c-3.4-4.6-3.8 3.3-.5 4 3 1.3 3.8-4.6.6-4zM406.1 252.3c-1.3 5.7-15.6 3.6-14-1.3 4 3.9 9.4 3.8 14 1.3z"/>
        <path class="st0" d="M394.8 243.8c-.5 4-.4 4.5 1.9 7.8-3.9-.6-7.6-6.6-2-7.8zM405.5 243c3.2 1.2 1.9 4.7.3 6.6-.5-1.7.6-4.4-.3-6.5zM401 239.9c-3-.2-5.4.8-8 2 .9-2.6 6.3-3.5 8-2zM271.6 133.2c3.4 8.2-8.2 14.7-9.2 4-.6 2.5.6 5 2.9 6.7-8-1.3-11.7-10.5-1.7-12.5l.2 1.1c1.9-2.2 4-2.6 6.4-1.3.3.8.5 1.7 1.4 2zm-3.2 1.4c-1.4.8-3.4-1.2-3 1.1-.6 4.4 5.4 2.5 3-1z"/>
        <path class="st0" d="M270.2 131.2c2.2-1.8 6.6 2.6 8.5 4.4 1.6 5.2-6.6 10.2-11.4 8.1 4.6-.3 7.2-8.1 4.4-10.5-.3-.8-.7-1.6-1.5-2zM321.5 93.7c.2-11 12.5-1.7 5.8 3.3-3 1.6-6 0-5.8-3.3zm4-1.6c-2.7-2.8-3 3.3-.6 3.4 2.9.7 4.3-4.7.6-3.4z"/>
        <path class="st0" d="M328.7 88.5c8.6 1 5.5 11.2-1.9 10.5 3.9-2 5.4-7 2-10.5zM321.6 98.2c-7.1 0-6.6-6.5-.6-9-.4 3.1-1.5 6.2.6 9z"/>
        <path class="st0" d="M317.6 99.2c5 1 10.7 3.3 15.2-.5-2.6 5-12 5-15.2.5zM315.4 90.7c2.2-5.3 11.6-7 16-3.4-6.1-2.2-11.3-.6-16 3.4zM125.3 135.5c-.3 4.3-.3 4.6 4.4 7.9-4.7.7-8.7-2.4-12.7-4.5 2.7-2.2 4.8-3.2 8.3-3.4zM136.5 135.8c11.3 2.4 5.8 8.2-2.9 7.8 2.2-2.4 3.5-4.5 2.9-7.8z"/>
        <path class="st0" d="M127.5 135.2c6.2-2.3 10 2.3 5 7.1-4 .4-7.1-3.7-5-7.1zm.5 2c1.6 7.5 8.5-1.8 3-.2-1.8-1-2.1-1.5-3 .1z"/>
        <path class="st0" d="M142.7 137c-8-4.5-18-4.3-25.9.2 6.3-6 20.2-8 26-.3zM138 144.6c-4.6 5.3-15.1 1.4-18.6-3.1 5.8 3 12 3.7 18.6 3.1zM362 93.6c.4-8.8 12.1-6.1 9.5 2-1.7 5.3-9.7 3.3-9.4-2zm7.3-1.2c.2-1.6-1.5-.5-2-1.4-5.9-3.8-.5 9.6 2 1.4z"/>
        <path class="st0" d="M372 98.3c1.3-4 2.3-4.8-.7-10.4 7.6-.2 6.4 8 .7 10.4z"/>
        <path class="st0" d="M359 98.3c5.8 2.3 13.7 4 18.2-1.7-1.8 6.6-14.5 7.6-18.2 1.7zM362.7 89.2a8.4 8.4 0 0 0 .2 8.5c-6.4-.2-7-8.2-.2-8.5zM372.5 86.7c-4.9-.9-9.6.3-14.3 2 2.4-4.4 10.8-5.2 14.3-2zM282 88.2c5.2-.3 3.2 10.3-2.3 7.2-3.5-1.5-2-8 2.2-7.2zm.8 2.8c-1.7.5-1.5-2.1-3-1.5-3.4 2.6 3.8 7 3 1.5z"/>
        <path class="st0" d="M288.9 87.4c-5.7-3-11.6-2-17 1.7 2-6.3 13.4-7.2 17-1.7zM283 97c3-2.4 3.9-5.2 2-8.5 7 2.6 6.3 8.3-2 8.4z"/>
        <path class="st0" d="M278.8 96.5c-2.7-.7-5.1-1.8-7.3-3.7 2-1.6 3.9-3 6-4.3-.7 3-1.6 5.8 1.3 8zM288.8 99.3c-5.4 4.1-14.6 3.4-18-3.2 4.8 4.8 12.1 4.9 18 3.2zM90 99.5c-4.6 1.3-6.4-6.6-2.8-8 7-3.4 11.1 8 2.9 8zm1.3-4.5c0-1.8-3.8-2-4.4-.5-1.6 4.2 4.1 4 4.4.5z"/>
        <path class="st0" d="M101.3 91.3c-7.5-3.1-15.8-1.2-23.1 1 2.7-5.3 21-6 23-1z"/>
        <path class="st0" d="M94.4 91.2c8.7-.4 7 5 .8 7.8 1-2.7.6-5.1-.8-7.8z"/>
        <path class="st0" d="M81 98.5c6 4 14 2.8 19.6-1.4-3.2 6.4-15.6 7.5-19.5 1.4z"/>
        <path class="st0" d="M79.5 93.6c1.5-1.4 3.4-1.3 5.3-1.6-.3 2.5-1 4.9.7 7-2 .3-5.3-2.6-6-5.4zM41.7 102c-4.5.8-5.7-6.6-2.3-8.5 7-2 8.9 8.5 2.3 8.4zm-.8-5.8c-.5-.8-.8-1.1-1.5-1.8-1.4 1.8-1.2 4.2 1.1 5 2.6.7 3.5-4.5.4-3.2z"/>
        <path class="st0" d="M30.8 97.8c4.3 7.5 12.8 6.7 20 5-5.9 5-19.7 4.6-20-5z"/>
        <path class="st0" d="M46 101.7c.9-2.5 1-4.8.1-7.2 8.1 2 8.2 5.7-.2 7.2zM51.8 94.7c-5.6-3.2-12.6-5-18.5-1.7 2.9-4.6 17.7-4.6 18.5 1.7zM37.4 93.9a7.4 7.4 0 0 0-.2 7c-6-2.4-7.4-6 .1-7zM377 207.5c-.1-5 8.2-3.4 8 .9-.2 6.8-8.7 5.6-8-.9zm6.2 2c.1-2.7-2.7-2.9-4.7-3-1.9 3.6 2.4 6 4.7 3zM376.2 211.1c-3-1.2-4.5-6-.1-6.5-.6 2.3-.6 4.4 0 6.5zM386.8 208.8l-.6-2.3c1.2-.3.9 1.3.6 2.3zM436 241.8c1.3-1 .4-2 .4-2.9 2-.2 4-.2 5.8 1.4-1.8 1.6-3.8 1.8-6.2 1.5zM431.9 241.4c-3.7 0-3.7 0-5.3-1.7 2.3-2.2 4.2-1 5.3 1.7zM429.6 242.5l8.6.7c-2.3 1.3-6.9 1.5-8.6-.7zM463.8 125.2c7.5-.2 8.3 6.3.7 7.1 3-2.3.8-4.7-.7-7.1z"/>
        <path class="st0" d="M459 129.7c.6-10.6 11.5 2.8 1.5 2.6-2 0-1.1-1.6-1.6-2.6zm1.2-2c-2.5 5.6 5.4 3.6 2.4 1.2-1.4.4-1.6.2-2.4-1.1zM458 132c-5.8-2-3.6-6.1 1.2-7a11.2 11.2 0 0 0-1.2 7zM431.1 261.3c3.1 1 6 1.2 9.2.7-2.9 1.9-6 1.6-9.2-.7zM442.8 259.6c-1.9 1-3.8 1.6-4-1.2 1.5.2 2.7.7 4 1.2zM433.6 260.7l-3-.8c.4-1.4 1.5-1 2.2-1.6l.8 2.4zM345.3 203.5v3.4c-2-.6-2.5-3 0-3.4zM352.3 206.6l-1.7.7c0-1.2 0-1.9-.4-3 1.4-.3 2.1.4 2 2.3zM347.9 204.3c1 .6 2 2.5.2 2.9 0-1 0-2-.2-2.9zM347.9 204.3l-1.3 1c0-1.2.3-1.2 1.3-1zM87.5 257c8.3-2.2 19.5 6 5.5 8 2.1-3.8 2.3-4.8 1.4-6.2 1 9.2-11.8 6-6.9-1.9zm1.3 2.3c-1.5 2.4 3.7 4 2.7.3-1.2 1.1-1.7.3-2.7-.3z"/>
        <path class="st0" d="M99.5 264.3c-3.7 7.7-22.7 4.5-21.6-4.3 5.5 7 13.8 7.5 21.6 4.3z"/>
        <path class="st0" d="M80 259.5c1.7-1.3 4-1.5 6.1-2.4-.8 5-2 5.1 2.5 7.9-2.8.6-7.8-2.5-8.6-5.5z"/>
        <path class="st0" d="M77.8 258.9c5-3.1 13.2-9.5 18-3-5.3-1-12.2-.7-16.4 3-.8.7-.8.7-1.5 0zM178 175.7c4.9-5.2 12.2 3.2 5.7 6.4a4.6 4.6 0 0 1-5.7-6.4zm2.8.5c-1.7 1.1-.2 4.1 1.6 3.4 2.4-.5 1-4.6-.7-1.8l-.9-1.6z"/>
        <path class="st0" d="M185.7 174.3c9.2.3 7 8.4-1 8.7 2.5-2.7 3.4-5.4 1-8.7z"/>
        <path class="st0" d="M188.6 183.6c-5.5 3.2-19.2 3.8-18.6-4.7 4 6.3 12.8 5.2 18.6 4.7z"/>
        <path class="st0" d="M178 175.7c-2 2-.5 5 1.2 7-8-1.4-11-5.6-1.3-8.1l.1 1zM133.5 258.3c.8-4.3 4.7-.5 1.1 1.2-4.2 1.7-6-6.4-1.1-1.2zM218.8 169.2c-5 2.6-4 13.4 3 11.5 7-1 6.1-9.6.4-11.9 17.5 2.6 7.9 14.3-5 12.4-10.3-2-7.1-12.8 1.6-12z"/>
        <path class="st0" d="M221.3 169.3c7.5 2 5.2 12.8-2.6 10.4-4.5-2.5-2.7-10.3 2.6-10.4zm-2 3.7c-2.8 2 1.2 5.1 3.2 4 1.4-1 1.9-4.5-.7-3l-2.5-1z"/>
        <path class="st0" d="M229.8 179.8c-4.2 4.9-16.1 5.7-19.4-.7 6 4.2 13 4.3 19.4.7zM215.8 168.4a11.5 11.5 0 0 1 16.2 4.4c-4.4-5-10.1-5.4-16.2-4.4zM273 172.7c.7 8.8-10.4 8.6-8.2 0 .6-5 8.2-5.9 8.3 0zm-6.6.9c-.2 2 2.3 2.2 3 .5 1-1.5-1-1-1.6-1.8-.7-1.3-1.3.5-1.4 1.3z"/>
        <path class="st0" d="M272.4 168.7c8 .3 6.4 11.4-1 11.2 1.5-3.5 4-7.3 1-11.2zM265.7 168.8c-2.2 3.7-3.2 8.6 1.1 11-6.8-.6-8.6-9.7-1-11zM135 222.3c.2 1.8 1.2 3.2 2.5 4.7-3.5-.6-8.5-4-8.4-7.8l-1 .7c-.7-9.1 21-12.4 24.3-4-5-3.9-14.6-4.4-19.7-.5l4-1.5c-1.5 2.6-2.2 5-1.7 7.7-1.3-8 10.4-11.7 12.1-3.2 2 8.7-9.2 12.7-12 3.9zm6.4 1.8c2.5-.6 3.8-6.6 0-5.6-5.3-.5-3.8 4.4 0 5.7zm-12-5.3c1.4-.8 1.7-2.5 3-3.5-1.6.7-2.2 2.1-3 3.5z"/>
        <path class="st0" d="M145.8 214c10.1-.5 6.5 12.4-.8 13.6 3.3-3.8 4.5-9.6.8-13.5z"/>
        <path class="st0" d="M146.6 227.9c-5.8 7-17.5.8-18.7-6.9 4.6 5.4 11.4 9.4 18.7 6.9zM180.9 211.6c4.9-1.2 6.6 8.3 1.8 9-7.4 1.9-10-9.4-1.8-9zm-.5 3c-5.1-2.5-4 4 .2 3.7 3.5-.2 3.8-6-.2-3.8z"/>
        <path class="st0" d="M169.7 217.5c6.3 5 12.7 6.3 20.1 2.7-4.4 5.7-17.7 4.5-20-2.7z"/>
        <path class="st0" d="M184.8 210.7c6.7.5 7.9 7 1.6 9.7 1.6-3.7.7-6.5-1.6-9.7zM169.8 215.5c1.3-2.5 3.6-3.5 6.2-4.3a7.5 7.5 0 0 0-.6 8.7c-2-1.4-4.3-2.1-5.6-4.4zM173.8 210c3.3-3.2 10.4-2.5 13.9.2-4.6-1.3-9.3-2.2-13.8-.2z"/>
        <path d="M271.6 244c-7.4 6.7-1 16.7 8 15.9 11.5-3.4 3.7-21.4-7.5-16.5 10.7-6.3 20.2 12.1 8.7 17.2-9.7 2-18.5-9.7-9.5-16.8l.3.2z"/>
        <path d="M276.2 251c3.8-3 3.8 2.7.4 3-4.7.8-4.3-8.3-.4-3zM233.8 252.4c2.7-7.2 4.4 4-1.6.9-3.6-2.6.1-5.6 1.6-1zM345.3 252.7c2-2 3.1.2 3.8 2 6.5-6.2-.1 9.2-3.8-2zM191.4 251.8c2-2.2 2.9 2.3.8 3.4-4.5 1.7-5-7.5-.8-3.4zM34.3 222.4c-.3.7-1.4.3-1.3 1.5l1.5-.8c.7 3.8-4.6 2.4-4-.4.2-.3.8-.5 1-.4 1 .8 1.9 0 2.8.1zM96.1 222.8c1.5-1.4 2.6-1.2 2.8.8 5-2-2.7 6-2.8-.8zM65.8 221.6c1.2 1 2 1.8 3.4.6 2.8 4.9-6.1 3.6-3.4-.6zM433.7 89c5.8-5 4.4 6.1-1 5-5.2-.7-2-11.7 1-5zM178 139.4c-4.7.5-3.3-3 .7-2.5l-.6 2.5zM54.1 139a6 6 0 0 1 3.9 3c3.3-4.3 5.1.3 2.2 3-4 3.9-10-2.4-6-6zM141 91.5c.6 1 .9 3-.4 3.6-4 .7-3.9-4.8.4-3.6zM234 90.5c1.1 1.5 3.7-.2 4.5 1.2.7 5.2-8.4 2.4-4.5-1.2zM448.6 164.9c8-4 2 9.8-3.6 4.8-5.7-3.6-.6-11 3.6-4.8zM189 92.5c5-1.8 1.8 7.1-1.7 3.5-2.3-1.6-.9-6.5 1.7-3.5zM42.6 255.9c3.8 2.9-3.2 5.2-3.2.6 0-2.8 2.3 1 3.2-.6zM400.3 245c3.1-.5 2.3 5.4-.6 4.2-3.3-.8-3-8.6.6-4.1zM268.4 134.6c2.4 3.6-3.6 5.5-3 1.1-.4-2.3 1.6-.3 3-1zM270.2 131.2c.8.4 1.2 1.2 1.5 2-1-.3-1.2-1.2-1.5-2zM325.5 92.1c3.7-1.3 2.3 4.1-.6 3.4-2.4-.2-2-6.2.6-3.4zM128 137.1c.9-1.5 1.2-1 3-.1 5.6-1.6-1.4 7.7-3 .1zM369.3 92.4c-1 6.6-8.1-1.6-3-2.2 1 1.6 3 .6 3 2.2zM282.8 91c.8 5.6-6.4 1-3-1.5 1.5-.6 1.3 2 3 1.5zM91.3 95c-.3 3.5-6 3.7-4.4-.5.6-1.5 4.4-1.3 4.4.5zM40.9 96.2c3.1-1.3 2.2 4-.4 3.2-2.3-.8-2.5-3.2-1.1-5 .7.7 1 1 1.5 1.8zM383.2 209.5c-2.3 3.1-6.9.2-4.5-3 2 .4 4.6.2 4.5 3zM460.2 127.8c.9 1.3 1 1.6 2.4 1.1 3 2.4-5 4.3-2.4-1.1zM88.8 259.3c1 .6 1.5 1.4 2.7.3 1 3.8-4.2 2.1-2.7-.3zM180.8 176.2l.9 1.6c1.8-2.8 3.1 1.3.7 1.8-1.8.7-3.3-2.3-1.6-3.4zM219.3 173l2.5 1c2.6-1.5 2.1 2 .7 3-2 1.1-6-2-3.2-4zM266.4 173.6c.1-.8.7-2.6 1.4-1.2.7.7 2.5.2 1.7 1.7-.8 1.7-3.3 1.5-3-.5zM141.4 224.2c-3.8-1.3-5.3-6.2 0-5.7 3.8-1 2.5 5 0 5.7zM129.5 218.8c.7-1.4 1.3-2.8 2.8-3.5-1.2 1-1.5 2.7-2.8 3.5zM180.4 214.5c4-2.2 3.6 3.6.2 3.8-4.2.3-5.3-6.2-.2-3.8z"/>
    </g>
</svg>