<svg xmlns:xlink="http://www.w3.org/1999/xlink" id="Layer_1" x="0" y="0" version="1.1" viewBox="0 0 1165 903" xml:space="preserve" xmlns="http://www.w3.org/2000/svg"><style>.st0{fill:#fff}.st2{fill:#1a1818}</style>
	<path id="Path_844" d="M998.3 459c-.8-168.2-103.5-374.7-300-403.3-247.8-55.8-567.1 106-533.4 366-31.5 599.2 772.4 594 833.4 37.4" class="st0"/><g id="Group_66" transform="translate(87 68.1)"><defs>
	<path id="SVGID_1_" d="M137.5 22.3h720.7v714.3H137.5z"/></defs><clipPath id="SVGID_00000057139999416303058510000006033580847519527554_"><use overflow="visible" xlink:href="#SVGID_1_"/></clipPath><g id="Group_61_00000106143561417180106260000007314762341818108041_" clip-path="url(#SVGID_00000057139999416303058510000006033580847519527554_)">
	<path id="Path_839_00000038400327658266262790000011387765664678716579_" d="M857 419.3c7.8 45.2-24.6 90.7-33.8 135.6-18.6 59.5-77.5 89.6-118.3 132.4-65.3 46.6-155.7 40.5-232.9 48.6-209.7 15.3-358.8-210.8-331.2-405-3.3-64.7 37.7-118 67.2-172.2C297.4 1.6 496 1.8 649 52c138.8 61 205.1 221.8 208 367.2m-81.8-24.1c0-468.3-579.8-431.4-602.8 4.9 7 131 89 287.9 231.8 302 180.9 33.5 405.2-105.7 371-307" class="st2"/>
	<path id="Path_840_00000112625471144404825370000008859697527264091042_" d="M172.5 400.1c6.9 131 88.8 287.9 231.7 302 180.9 33.5 405.2-105.7 371-306.9 0-468.3-579.8-431.4-602.7 4.9" class="st0"/>
	<path id="Path_841_00000128475050885955926310000000605750814585988254_" d="M321.8 608.4c-4-131.6 31.9-264.4 12-397-1.6-8.2-3-15.9-.6-24.5 2.6-14-6.8-45.2 18.8-34.1 46 17.3 81.6 52.8 122.3 79.2 55.5 46.7 128.8 47.7 189.6 83 37 16 124 62.6 38.6 82.3-40.4 17.7-73.7 52.6-112.5 75.1-81.2 58.1-163.6 110.6-246.5 165.3-17.4 16-18-18.5-23.6-29l1.9-.3m318.3-236C539.8 356 475.9 269 379.5 245.5c-8.2 89.6-4 178 2.8 267.9 84.4-50.6 179.6-80.1 257.8-141" class="st2"/></g></g>
	<path id="Path_839-2_00000182502605852658452900000015784569477214906300_" d="M944 487.4c7.8 45.2-24.5 90.8-33.8 135.7-18.5 59.5-77.4 89.6-118.3 132.3-65.2 46.7-155.7 40.5-232.8 48.6-209.7 15.3-358.8-210.8-331.3-405-3.3-64.7 37.8-118 67.2-172.2C384.5 69.8 583 70 736 120.3c138.8 61 205.2 221.7 208 367.1m-81.8-24C862.2-5 282.5 32 259.5 468.1c7 131.1 88.9 287.9 231.7 302.1 181 33.5 405.2-105.7 371-307" class="st2"/>
	<path id="Path_840-2_00000016796470855600978070000012635447866715849378_" d="M259.5 468.2c7 131.1 88.9 288 231.7 302.1 181 33.5 405.2-105.7 371-307 0-468.3-579.7-431.4-602.7 5" class="st0"/>
	<path id="Rectangle_27-2" fill="none" d="M224.5 90.4h720.7v714.3H224.5z"/>
	<path id="Path_845" d="M400.9 242.2c-12.8 137.1-7 275.3 17.1 410.9 6.1 34.4 108.5 34.7 102.3 0a1528.8 1528.8 0 01-17-410.9c3.1-34.8-99.2-34.7-102.4 0" class="st2"/>
	<path id="Path_846" d="M753.4 627.5c13.9-120 9.4-241.5-13.3-360.1-6-32.5-108.5-32.8-102.3 0a1190.4 1190.4 0 0113.3 360.1c-3.8 32.8 98.6 32.7 102.3 0" class="st2"/>
</svg>