<svg xmlns="http://www.w3.org/2000/svg" width="120.995" height="120.875" viewBox="0 0 120.995 120.875">
  <g id="pause-icon" transform="translate(-231 -497)">
    <g id="Group_1" data-name="Group 1" transform="translate(173.712 -109.116)">
      <path id="Path_1" data-name="Path 1" d="M126.188,456.067c-15.333,4.166-31.284,1.227-46.762-.484-16.692,1.531-33.328,0-50.013-.71-20.75,3.469-24.2-6.461-21.952,10.951.651,2.724-.979,7.061.987,8.827.071.592.869,1.118.671,1.744L7.866,475.9c2.791,31.557-1.443,63.31.385,94.92-.046,2.54,3.263.937,4.721,1.3,8.366-.06,16.822,1.026,25.122.027,30-1.806,60.113,5.762,89.766,2.98-5.413-21.056-3.4-42.326-2.138-63.814,1.744-18.483.245-36.811.466-55.254m.8,96.252c.452-.284.339-.416.153-.8-.45.191-.371.36-.153.8" transform="translate(50.423 151.243)" fill="#fff"/>
    </g>
    <g id="paused-icon" transform="translate(176.55 -112.69)">
      <path id="Path_834" data-name="Path 834" d="M2.89,13.257a169.339,169.339,0,0,0,45.5-1.9c3.811-.676,3.849-12.011,0-11.331a169.338,169.338,0,0,1-45.5,1.9C-.968,1.567-.958,12.9,2.89,13.257" transform="translate(94.453 695.953) rotate(-90)" fill="#1a1818"/>
      <path id="Path_835" data-name="Path 835" d="M2.719,12.834a131.837,131.837,0,0,0,39.887-1.473c3.589-.676,3.623-12.018,0-11.331A131.838,131.838,0,0,1,2.719,1.5c-3.632-.419-3.619,10.916,0,11.331" transform="translate(121.4 692.971) rotate(-90)" fill="#1a1818"/>
    </g>
  </g>
</svg>
