<svg xmlns="http://www.w3.org/2000/svg" xmlns:xlink="http://www.w3.org/1999/xlink" width="114.258" height="113.252" viewBox="0 0 114.258 113.252"><defs><clipPath id="a"><rect width="114.258" height="113.252" fill="none"/></clipPath></defs><g clip-path="url(#a)"><path d="M114.067,62.94c1.236,7.172-3.89,14.388-5.357,21.509-2.941,9.433-12.283,14.2-18.752,20.985-10.348,7.395-24.688,6.417-36.921,7.7C19.792,115.558-3.848,79.718.52,48.931,0,38.67,6.5,30.226,11.17,21.627,25.36-3.277,56.832-3.243,81.1,4.736c22,9.672,32.521,35.153,32.97,58.2M101.1,59.123c.007-74.241-91.917-68.39-95.558.778,1.1,20.78,14.091,45.64,36.739,47.893,28.68,5.3,64.235-16.766,58.819-48.671" transform="translate(0 0.001)" fill="#1a1818"/><path d="M4.149,58.465c1.1,20.78,14.091,45.64,36.739,47.893,28.68,5.3,64.235-16.766,58.819-48.671.005-74.241-91.917-68.39-95.558.778" transform="translate(1.395 1.436)" fill="#fff"/><path d="M21.939,87.81C21.308,66.948,27,45.884,23.861,24.876a7.89,7.89,0,0,1-.1-3.894c.41-2.2-1.078-7.161,2.977-5.4,7.279,2.742,12.938,8.365,19.381,12.558,8.806,7.406,20.421,7.557,30.069,13.146,5.874,2.552,19.654,9.941,6.12,13.053-6.411,2.821-11.691,8.356-17.842,11.916-12.875,9.211-25.94,17.529-39.073,26.21-2.77,2.542-2.85-2.942-3.748-4.614l.3-.037M72.4,50.4C56.514,47.786,46.37,33.992,31.1,30.277c-1.3,14.209-.649,28.223.442,42.468C44.916,64.72,60.008,60.045,72.4,50.4" transform="translate(7.277 5.115)" fill="#1a1818"/></g></svg>