<svg viewBox="0 0 114.258 113.252" width="114.258" height="113.252" xmlns="http://www.w3.org/2000/svg"><defs><clipPath id="a"><path fill="none" d="M0 0h114.258v113.252H0z"/></clipPath></defs><g clip-path="url(#a)"><path fill="#1a1818" d="M114.067 62.941c1.236 7.172-3.89 14.388-5.357 21.509-2.941 9.433-12.283 14.2-18.752 20.985-10.348 7.395-24.688 6.417-36.921 7.7C19.792 115.559-3.848 79.719.52 48.932 0 38.671 6.5 30.227 11.17 21.628 25.36-3.276 56.832-3.242 81.1 4.737c22 9.672 32.521 35.153 32.97 58.2m-12.97-3.813c.007-74.241-91.917-68.39-95.558.778 1.1 20.78 14.091 45.64 36.739 47.893 28.68 5.3 64.235-16.766 58.819-48.671"/><path fill="#fff" d="M5.544 59.901c1.1 20.78 14.091 45.64 36.739 47.893 28.68 5.3 64.235-16.766 58.819-48.671.005-74.241-91.917-68.39-95.558.778"/><path fill="#1a1818" d="M29.216 92.925c-.631-20.862 5.061-41.926 1.922-62.934a7.89 7.89 0 01-.1-3.894c.41-2.2-1.078-7.161 2.977-5.4 7.279 2.742 12.938 8.365 19.381 12.558 8.806 7.406 20.421 7.557 30.069 13.146 5.874 2.552 19.654 9.941 6.12 13.053-6.411 2.821-11.691 8.356-17.842 11.916-12.875 9.211-25.94 17.529-39.073 26.21-2.77 2.542-2.85-2.942-3.748-4.614l.3-.037m50.455-37.414c-15.886-2.614-26.03-16.408-41.3-20.123-1.3 14.209-.649 28.223.442 42.468 13.374-8.025 28.466-12.7 40.858-22.345"/></g></svg>