<svg xmlns:xlink="http://www.w3.org/1999/xlink" id="Layer_1" x="0" y="0" version="1.1" viewBox="0 0 1165 903" xml:space="preserve" xmlns="http://www.w3.org/2000/svg"><style>.st0{fill:#fff}.st2{fill:#1a1818}</style>
	<path id="Path_840" d="M998.9 455.6c-.8-168.3-103.6-374.8-300-403.4-247.9-55.9-567.2 106-533.4 366-31.5 599.2 772.4 594 833.4 37.4" class="st0"/><g id="Group_17" transform="translate(87 68.1)"><defs>
	<path id="SVGID_1_" d="M138.1 18.8h720.7v714.3H138.1z"/></defs><clipPath id="SVGID_00000160913197246775809590000017778253711373317042_"><use overflow="visible" xlink:href="#SVGID_1_"/></clipPath><g id="Group_61" clip-path="url(#SVGID_00000160913197246775809590000017778253711373317042_)">
	<path id="Path_839" d="M857.5 415.8c7.8 45.2-24.5 90.7-33.8 135.6-18.5 59.5-77.4 89.6-118.2 132.4-65.3 46.6-155.7 40.5-233 48.6-209.6 15.3-358.7-210.8-331.2-405-3.2-64.7 37.8-118 67.2-172.2C298-2 496.5-1.7 649.5 48.6c138.9 61 205.2 221.8 208 367.2m-81.8-24.1c0-468.3-579.7-431.4-602.7 4.9 7 131 88.9 287.9 231.8 302 180.8 33.5 405.1-105.7 371-307" class="st2"/>
	<path id="Path_840-2" d="M173 396.6c7 131 88.9 287.9 231.8 302 180.8 33.5 405.1-105.7 371-306.9 0-468.3-579.8-431.4-602.8 4.9" class="st0"/>
	<path id="Path_841" d="M322.3 604.9c-4-131.6 32-264.4 12.1-397-1.6-8.2-3-15.9-.6-24.5 2.6-14-6.8-45.2 18.8-34.1 45.9 17.3 81.6 52.8 122.2 79.2 55.6 46.7 128.8 47.7 189.7 83 37 16 124 62.6 38.6 82.3-40.5 17.7-73.8 52.6-112.6 75.1C509.3 527 427 579.5 344.1 634.2c-17.5 16-18-18.5-23.7-29l2-.3m318.2-236C540.4 352.4 476.4 265.4 380.1 242c-8.2 89.6-4.1 178 2.8 267.9 84.4-50.6 179.6-80.1 257.7-141" class="st2"/></g></g><g id="Group_64" transform="translate(87 68.1)"><defs>
	<path id="SVGID_00000097470328879367339650000005181099699617341625_" d="M138.1 18.8h720.7v714.3H138.1z"/></defs><clipPath id="SVGID_00000084506908905532474360000012008625574096971653_"><use overflow="visible" xlink:href="#SVGID_00000097470328879367339650000005181099699617341625_"/></clipPath><g id="Group_61-2" clip-path="url(#SVGID_00000084506908905532474360000012008625574096971653_)">
	<path id="Path_839-2" d="M857.5 415.8c7.8 45.2-24.5 90.7-33.8 135.6-18.5 59.5-77.4 89.6-118.2 132.4-65.3 46.6-155.7 40.5-233 48.6-209.6 15.3-358.7-210.8-331.2-405-3.2-64.7 37.8-118 67.2-172.2C298-2 496.5-1.7 649.5 48.6c138.9 61 205.2 221.8 208 367.2m-81.8-24.1c0-468.3-579.7-431.4-602.7 4.9 7 131 88.9 287.9 231.8 302 180.8 33.5 405.1-105.7 371-307" class="st2"/>
	<path id="Path_840-3" d="M173 396.6c7 131 88.9 287.9 231.8 302 180.8 33.5 405.1-105.7 371-306.9 0-468.3-579.8-431.4-602.8 4.9" class="st0"/><path id="Path_841-2" d="M322.3 604.9c-4-131.6 32-264.4 12.1-397-1.6-8.2-3-15.9-.6-24.5 2.6-14-6.8-45.2 18.8-34.1 45.9 17.3 81.6 52.8 122.2 79.2 55.6 46.7 128.8 47.7 189.7 83 37 16 124 62.6 38.6 82.3-40.5 17.7-73.8 52.6-112.6 75.1C509.3 527 427 579.5 344.1 634.2c-17.5 16-18-18.5-23.7-29l2-.3m318.2-236C540.4 352.4 476.4 265.4 380.1 242c-8.2 89.6-4.1 178 2.8 267.9 84.4-50.6 179.6-80.1 257.7-141" class="st2"/></g></g>
</svg>