<svg xmlns="http://www.w3.org/2000/svg" width="38.083" height="49.489" viewBox="0 0 38.083 49.489"><path d="M262.513,51.906c2.267-.085,4.224-.266,6.173-.2a2.266,2.266,0,0,1,2.381,2.57c.011,6.74,3.244,11.408,9.14,14.44a27.947,27.947,0,0,1,5.088,3.072,12.453,12.453,0,0,1,4.481,10.367,32.147,32.147,0,0,1-1.544,10,8.124,8.124,0,0,1-3.356,4.245,29.356,29.356,0,0,1-12.379,4.4,22.049,22.049,0,0,1-6.125.255,11.123,11.123,0,0,1-3.916-1.328c-4.472-2.465-7.579-6.013-8.754-11.067-.746-3.211-2.148-6.29-1.991-9.687.036-.791.06-1.584.095-2.5,2.266-.062,4.381-.163,6.494-.136a1.515,1.515,0,0,1,1.078.849,6.939,6.939,0,0,1,.462,2.369,29.908,29.908,0,0,0,2.364,10.71c1.425,3.633,4.2,5.635,8.178,5.465a15.589,15.589,0,0,0,8.162-2.343c3.01-1.976,4.064-4.928,4.7-8.158A11.033,11.033,0,0,0,278.069,73.1a38.459,38.459,0,0,0-4.76-2.773c-2.242-1.033-3.725-2.851-5.187-4.663a24.334,24.334,0,0,1-4.161-8.2c-.534-1.718-.915-3.485-1.448-5.559" transform="translate(-251.697 -51.693)"/></svg>