<svg xmlns="http://www.w3.org/2000/svg" width="55.847" height="102.192" viewBox="0 0 55.847 102.192"><path d="M14.69,56.23c-1.089-3.747,1.494-6.153,2.4-9.5,2.565-5.121,9.539-5,14.5-4.451,3.212.523,3.3.2,4.053-2.939,1.326-6.179,3.6-11.751,4.6-18.057-3.958,1.358-9.4,12.651-13.184,8.1-2.127-3.346-5.5-6-5.832-10.174C27.6,14.867,57.522-13.542,55.773,7.952,54.306,28.73,49.6,49.263,45.484,69.668c-2.263,18.305-10.437,35.258-31.808,32.155C-4.585,99.092-.444,75.332,2.983,62.337c1.227-3,5.278.828,7.615.55.981.123,2.026-.265,2.762.864,1.787,2.709.055,5.834-.58,8.635-1.384,4.319-.742,8.664-.133,12.977.875,6.716,10.6,2.877,12.882-1.633C29.943,75.922,38,62.938,33.5,54.255c-2.886-3.438-6.538-.525-7.385,2.976-1.9,3.182-8.4-.494-11.429-1" transform="translate(0 0)"/></svg>