<svg xmlns="http://www.w3.org/2000/svg" width="45.966" height="71.998" viewBox="0 0 45.966 71.998"><path d="M325.362,66.771a9.387,9.387,0,0,0-3.316-4.459c-5.273-3.632-7.107-7.9-16.9-8.772-8.915-.52-13.092,7.128-15.1,7.619.726-7.01,2.209-15.5,2.9-22.24,9.263,1.093,18.482,1.33,27.769,1.924,4.929.41,3.126-8.7,3.715-12-7.317-3.2-15.6-2.053-23.38-3.37-3.429.409-16.337-3.752-16.658.442-1.7,15.365-4.988,30.41-3.438,45.953.145,14.179,17.1,28.934,30.892,22.678,10.2-3.932,17.629-17.041,13.515-27.774m-23.25,18.717c-2.454-.3-4.416-1.241-5.241-3.37-.778-3.421-4.042-7.723-1.883-10.986,4.1-4.381,11.783-11.046,17.19-4.695,7.488,7.713-.78,20.147-10.067,19.05" transform="translate(-280.551 -24.026)"/></svg>