<svg viewBox="0 0 62.764 50.756" width="62.764" height="50.756" xmlns="http://www.w3.org/2000/svg"><path d="M21.575 46.588c-5.519 1.306-9.861 2.493-15.177 4.168-6.852-13.4-10.632-32.557 1.476-43.993 6.659-4.641 14.885-.952 18.979 5.863C30.453 4.98 37.23.064 45.807 0c15.92 1.7 13.26 29.065 16.957 40.854a88.679 88.679 0 00-19.024 5.4c-1.694-8.8 3.084-17.989.1-26.848-.647-3.3-4.77-5.7-6.969-2.263-3.038 3.95-2.094 9.218-2.47 13.84l-10.917 1.824c-2-3.7-1.484-8.565-4.173-11.979-9.193-6.03-6.62 12.9-2.965 16.581 1.348 1.808 2.244 4.11 3.864 5.662 1.734.831 1.662 2.219 1.367 3.521"/></svg>
