<svg xmlns="http://www.w3.org/2000/svg" width="86.571" height="77.869" viewBox="0 0 86.571 77.869"><g transform="translate(-9808.434 144.671)"><path d="M247.119,67.581c-.1,24.34-32.909,19.356-26.366-3.3,7.454-14.624,25.252-15.971,26.366,3.3m-23.735,1.554c-.167,5.736,4.267,13.734,10.842,12.061,4.217-.975,8.7-5.47,7.8-10.914-.591-4.459-1.712-14.748-7.949-13.361-4.8,2.149-11.086,6.265-10.691,12.215" transform="translate(9639.002 -187.232)"/><path d="M223.5,73.792c-4.913-.13-9.395-1.282-11.592,1.5-3.662,4.644-4.025,17.871-3.873,24.211a54.427,54.427,0,0,1,28.083,13.615,22.078,22.078,0,0,1-2.677,6.151,21.7,21.7,0,0,1-4.272,4.043,130.725,130.725,0,0,0-12.247-8.431c-12.278-7.265-27.8-5.981-33.344-4.6-.265-2.576-1.263-5.158.76-12.374,3.489.021,7.75-.376,11.3.189a120.1,120.1,0,0,1-1.7-18.8c-.761-15.815,16.647-25.492,34.378-20.637,0,0,1.147-1.728,2.842-4.023,7.682-9.526,23.016-12.952,31.451-3.953,4.463,4.762,8.431,15.641,6.608,24.083-1.665,7.713-2.919,11.511-8.865,17.993-5.363,5.844-9.88,6.56-15.121,6.458-11.057-.214-21.254-9.98-21.729-25.429m3.013-4.215c1.009,5.427.063,11.415,3.433,16.461,6.185,9.266,15.967,14.107,26.5,5.593,12.368-10,12.817-28.812,4.714-37.807-4.217-4.68-10.748-6.7-19.121-3.431C231.159,54.639,232.039,64.342,227.11,62.9c-10.983-3.213-25.031-1.419-27.984,10.478-3.218,9.273-1.409,17.9.025,27.437-4.994.706-7.46.246-12.06-.176a10.407,10.407,0,0,0,.029,6.49,57.7,57.7,0,0,1,23.148,1.821c7.051,2.075,18.846,10.777,18.846,10.777,2.222-1.026,3.8-5.316,3.761-5.585-1.484-2.454-6.489-5.422-10.415-7.427a42.9,42.9,0,0,0-11-4.021c-1.337-.32-6.324-1.2-6.324-1.2-1.008-8.706-1.062-22.059,3.362-28.129,3.44-4.719,9.991-3.954,18.023-3.792" transform="translate(9625.334 -190.116)"/></g></svg>