<svg xmlns="http://www.w3.org/2000/svg" width="127.415" height="79.761" viewBox="0 0 127.415 79.761">
  <path id="Path_140" data-name="Path 140" d="M251.192,15.256C261.7-2.195,279.8,1.813,289.049,17.543c1.775-2.71,3.263-5,4.765-7.291,5.264-8.056,12.514-9.292,20.8-4.24,8.575,5.23,10.364,13.982,13.286,22.475,7.209,20.966-7.3,51.989-36.068,53.778-18.467,1.147-36.423.492-54.529-3.905-8.643-2.1-14.433-6.9-20.038-12.692-3.6-3.728-23.9-26.763-10.33-51.457C209.8,4.373,226.512.8,236.78,6.524,241.511,9.166,246.058,12.136,251.192,15.256Z" transform="translate(-202.318 -3.001)" fill="#868686"/>
</svg>
