<svg xmlns="http://www.w3.org/2000/svg" width="66.989" height="113.458" viewBox="0 0 66.989 113.458">
  <path id="Path_125" data-name="Path 125" d="M253.67,66.346V47.967c-5.953-3.059-13.75-1.352-18.85-7.052,4.322-4.6,9.517-4.322,14.255-4.991,3.072-.43,4.7-1.693,5.271-4.608.594-3.031-.594-5.223-3.475-5.994-6.1-1.632-7.36-6.991-6.909-11.49a13.312,13.312,0,0,1,8.684-11.156C258.619.627,264.778-.677,270.7,3.822c4.39,3.325,6.09,5.9,4.847,11.19-.635,2.7-1.488,5.735-3.277,7.674-2.485,2.7-2.437,5.312-1.673,8.657,5.223,2.594,10.452,5.516,16.87,4.881a3.973,3.973,0,0,1,3.27,1.871,3.988,3.988,0,0,1-1.01,3.694,43.76,43.76,0,0,1-9.121,4.875c-3,1.1-6.3,1.352-10.091,2.1,0,5.052-.007,9.92.007,14.795.007,3.243,1.413,5.407,4.806,5.865,11.251,1.5,17.157,8.671,20.031,18.973,1.045,3.741,2.444,7.558,2.526,11.367.123,5.578-3.557,9.026-8.732,10.4-9.838,2.615-19.614,5.107-30.1,3.666-6.131-.84-12.548,1.427-18.707-1.154-2.533-1.058-5.216-1.741-7.838-2.608-1.222-5.482-3.441-10.459,1.236-15.436,1.509-1.6,1.557-4.847,1.741-7.38.71-9.79,5.919-15.962,14.924-19.266C251.28,67.67,252.072,67.158,253.67,66.346Zm28.715-25.179-.253-1.741-15.846-1.1a42.036,42.036,0,0,0-.471-6.971,64.269,64.269,0,0,0-2.724-7.681c9.811-5.96,10.439-11.531,2.267-17.88-3.673.908-7.619,1.516-11.265,2.888-3.612,1.359-5.933,5.277-5.434,8.281.6,3.557,3.639,3.618,6.39,4.335,1.591.416,3.946,1.727,4.144,2.936.785,4.745.853,9.613,1.188,14.453-8.309.13-8.828.259-13.422,3.482h13.627c-3.216,9.381-1.529,18.406-.539,26.94-5.134,2.13-9.852,3.584-14.05,5.946-5.6,3.161-7.681,10.248-5.564,16.515,1.468,4.335,7.073,7.715,12.842,7.408q12.269-.635,24.523-1.652c4.84-.416,9.647-1.215,14.48-1.843,1.263-5.086-.881-8.95-2.772-12.992-4.356-9.319-12.856-9.565-21.3-9.333-.669-5.851-1.195-10.937-1.857-16.01-.4-2.983-1.085-5.933-1.5-8.916-.444-3.216.792-4.854,4.315-4.656A27.536,27.536,0,0,0,282.385,41.167Zm-43.6,62.571c.942,4.206,2.471,6.779,7,6.438,5.107-.382,10.316-1.195,15.327-.567,7.92.99,15.341-.4,22.8-2.553a10.75,10.75,0,0,0,7.442-6.691Z" transform="translate(-230.903 -0.793)" fill="#868686"/>
</svg>
