<svg xmlns="http://www.w3.org/2000/svg" width="116.445" height="128.006" viewBox="0 0 116.445 128.006">
  <path id="Path_143" data-name="Path 143" d="M361.483,92.714c-4.245,1.262-8.378,2.672-12.607,3.658-1.556.363-3.355-.233-5.032-.458-2.767-.38-5.534-1.582-8.491,0-.121,11.258-1.522,22.3-6.087,33.047-9.26-.623-18.426.83-27.141-1.669a22.85,22.85,0,0,0-9.2-1.115c-3.329.363-4.92-.917-5.681-4.168a72.505,72.505,0,0,1-1.28-7.324c-.994-7.557-1.911-15.114-2.9-22.957-8.577-3.061-20.121-2.853-28.819-2.058-1.02-1.8-.38-6.468-.259-10.255.259-8.586-.476-17.2-.692-25.8-.121-4.73-.026-9.459-.026-14.993,3.225-.562,7.22-1.288,11.223-1.945.744-.13,9.589-.683,10.341-.8,0,0,.865-.527.043-8.621-.571-5.646-.527-11.362-.64-17.051-.06-2.7,1.02-4.15,3.995-5.179,10.549-3.658,21.3-4.531,32.312-3.874,3.4.2,6.813.026,10.661.026.467,2.49,1.28,4.539,1.15,6.52-.562,8.335,1.6,16.29,3.1,24.323.821,4.41,2.2,5.508,6.675,5.4,5.145-.138,10.272-.761,15.417-1.133,3.026-.216,6.052-.476,9.079-.432.994.009,1.98.925,2.966,1.435,2.153,1.115,4.2,2.68,6.494,3.251,2.888.718,3.857,2.326,3.528,4.911-1.738,13.445-3.476,26.891-5.43,40.3C363.844,88.131,362.434,90.345,361.483,92.714ZM277.646,35.37l7.618,2.853V8.1c-1.6.1-6.442,1.349-7.479,1.409C277.11,11.419,277.361,29.058,277.646,35.37Zm46.138,41.538c2.214,0,4.245.1,6.26-.026,3.364-.2,6.727-.545,10.091-.83.519-.043,15.65-.96,15.391-5.517-.13-2.257-.571-23.4.095-26.13.285-1.176-.207-2.542-.415-4.4-4.332.208-9.053,1.038-15.132,1.038-2.992.251-5.6.441-8.206.692-2.646.242-5.274.553-8.88.934-.329-1.366-.908-3.441-1.306-5.542-.588-3.121-1-6.286-1.591-9.407-.2-1.089-2.248-16.385-2.282-20.9,0,0-23.744,1.029-25.931,2.283,0,3.381.061,6.814-.026,10.238-.035,1.219.571,22.351-.1,24.928-2.118.19-4.392,1.038-6.174.432-4.436-1.5-8.7-.009-13.013.061-5.248.086-5.845.908-5.577,6.251.3,5.914.925,11.777-.259,17.691-.329,1.634.631,3.536.873,4.678,4.531,0,8.422-.631,11.993.173,3.614.821,10.082-.372,10.082-.372.251,3.139,2.058,21.807,2.2,23.519.432,4.764.986,9.511,1.323,14.276.285,4.064,1.712,5.361,5.672,5.032,4.358-.363,8.733-.674,13.108-.83,3.813-.13,7.635-.026,11.552-.026C324.1,113.129,323.672,78.577,323.784,76.908Zm32.036,3.467c-3.813,1.219-17.907,3.225-22.178,3.346,2.075,4.055,4.2,6.8,8.206,7.868,5.326,1.435,9.425-1.651,13.878-3.415a2.305,2.305,0,0,0,.951-1.885C356.564,84.448,356.174,82.632,355.82,80.375Zm5.439,3.986c.674-4.418,1.34-8.266,1.85-12.14.891-6.727,1.513-13.489,2.594-20.181.692-4.228-.381-6.468-5.56-8.69-.19,4.453-.328,8.742-.588,13.03-.536,8.863,2.654,17.665.38,26.554C359.892,83.108,360.368,83.41,361.259,84.361Zm-67.417,37.872c7.661,4.41,24.081,1.98,32.044,1.617-.311-1.5-.441-3.476-.769-3.5-2.5-.251-4.8-1.721-7.575-.8-1.669.562-13.7.329-16.385.173A44.218,44.218,0,0,0,293.841,122.233Zm-36.7-44.314c1.487-1.582,6.113-5.672,6.113-5.672,1.634-4.5,1.133-25.36,1.02-25.663l-8.378-3.234C257.3,55.231,255.891,67.267,257.136,77.92Zm23.51.45c-3.5.7-11.958-2.265-15.01-1.358C264.7,77.28,259,82.355,259,83.3c0,1.7,7.739,1.721,9.338,1.4a35.292,35.292,0,0,1,8.067.389c4.038.821,4.488.484,4.453-3.683C280.863,80.643,280.759,79.891,280.646,78.369Zm49.407,8.794c-1.824,10.713-1.747,18.9.381,24.617.467-4.548,1.4-8.517,1.133-12.408S333.3,91.149,330.053,87.163Z" transform="translate(-253.236 -0.955)" fill="#868686"/>
</svg>
