<?xml version="1.0" encoding="utf-8"?>
<!-- Generator: Adobe Illustrator 26.4.1, SVG Export Plug-In . SVG Version: 6.00 Build 0)  -->
<svg version="1.1" id="Layer_1" xmlns="http://www.w3.org/2000/svg" xmlns:xlink="http://www.w3.org/1999/xlink" x="0px" y="0px"
	 viewBox="0 0 93 122" style="enable-background:new 0 0 93 122;" xml:space="preserve">
<style type="text/css">
	.st0{clip-path:url(#SVGID_00000163763640278651407080000001415052340769650819_);}
	.st1{fill:#86888B;}
</style>
<g>
	<defs>
		<rect id="SVGID_1_" x="13.35" y="13.65" width="68.71" height="97.22"/>
	</defs>
	<clipPath id="SVGID_00000044135790227351992490000012901560010767206280_">
		<use xlink:href="#SVGID_1_"  style="overflow:visible;"/>
	</clipPath>
	<g id="Group_67" transform="translate(0 0)" style="clip-path:url(#SVGID_00000044135790227351992490000012901560010767206280_);">
		<path id="Path_860" class="st1" d="M48.43,13.66c17.35-0.41,31.44,10.73,33.55,27.87c0.51,4.15-1.66,8.62-2.5,12.96
			c-0.48,2.49-0.77,5.02-1.08,7.54c-0.32,2.58,0.13,5.52-0.98,7.67c-2.19,4.22-0.88,7.99-0.18,12.14
			c1.03,5.63,1.42,11.36,1.17,17.08c-0.33,5.52-4.09,9.08-9.63,10.1c-8.79,1.62-17.58,3.23-26.45-0.03
			c-6.09-2.24-10.86-5.3-11.37-12.54c-0.18-2.61-1.22-5.19-1.2-7.77c0.04-4.33-1.76-6.57-5.26-9.41
			c-5.14-4.16-10.55-9.11-10.15-17.24c0.23-4.69-1.42-9.52-0.88-14.14C15.12,33.51,23.6,23.21,35.44,15.9
			C38.91,13.76,44.05,14.33,48.43,13.66 M41.36,102.56c-0.29-0.73-0.54-1.48-0.74-2.25c-1.66-9.03-4.05-17.96-2.97-27.32
			c0.11-0.97-1.62-2.14-2.49-3.22c-0.97,0.72-1.88,1.52-2.7,2.41c-0.44,0.67-0.63,1.47-0.51,2.27c1.15,7.77,2.11,15.6,3.74,23.27
			c0.51,2.4,1.87,5.76,5.9,4.59c0.86,0.92,1.83,1.72,2.9,2.39c7.43,3.32,14.92,1.72,22.32-0.12c5.27-1.3,8.69-5.33,8.62-10.68
			c0.07-7.81-2.58-15.39-7.5-21.45c0.85,7.72,1.57,13.9,2.2,20.09c0.65,6.38,0.27,7.48-6.15,8.39
			C56.53,101.98,48.92,102.04,41.36,102.56 M75.24,54.47c7.71-16.76-3.93-30.79-16.1-35.41c-7.91-3.01-16.34-1.98-23.7,1.76
			c-7.12,3.63-12.39,9.82-15.73,17.24c-3.73,8.31-3.3,16.78-0.99,26.72C28.44,45.02,58.52,39.42,75.24,54.47 M45.2,99.36
			c5.2-0.4,9.91-0.46,14.5-1.21c5.41-0.89,6.65-2.49,6.3-7.92c-0.35-5.48-0.99-10.94-1.92-16.35c-0.78-4.56-3.35-6.58-8.05-7.01
			c-5.06-0.46-9.84,0.31-14.08,3.44C41.6,79.87,41.23,89.26,45.2,99.36 M72.98,69.41C74.81,62.36,73,57.8,67.55,54.1
			c-10.1-6.83-20.51-4.24-30.99-1.16c-5.11,1.46-9.4,4.96-11.85,9.67c-2.82,5.06-4.28,7.98,2.95,13.29
			c0.32-1.67,0.53-3.13,0.89-4.55c1.41-5.45,4.03-7.39,9.36-7.56c4.39-0.15,8.78-0.51,13.14-1.06c6.26-0.78,12.37-1.3,17.53,3.44
			C69.72,67.21,71.08,68.02,72.98,69.41"/>
		<path id="Path_861" class="st1" d="M46.56,81.66c3.55,0.5,4.58,2.74,3.86,5.93c-0.1,0.46-1.28,1.01-1.9,0.94
			C46.43,88.32,45.89,86.23,46.56,81.66"/>
		<path id="Path_862" class="st1" d="M59.94,86.72c-4.52-3.1-4.52-3.1-0.41-6.33C59.69,82.93,59.82,84.82,59.94,86.72"/>
	</g>
</g>
</svg>
