<svg xmlns="http://www.w3.org/2000/svg" width="243.191" height="100.389" viewBox="0 0 243.191 100.389">
  <g id="Group_16" data-name="Group 16" transform="translate(-1647.355 -1231.689)">
    <path id="Path_144" data-name="Path 144" d="M95.2,51.949,93.074,53.2c-.621,8.056-.874,16.023-1.932,23.875-1.3,9.722-6.4,16.911-15.743,20.837-5.052,2.116-10.316,3.455-15.627,2.615A25.973,25.973,0,0,1,45.857,93.2c-6.288-6.1-8.6-13.982-9.244-22.386-.724-9.449-1.106-18.925-1.577-28.387-.178-3.5.109-7.032-.335-10.487-.628-4.957-1.5-5.448-6.609-5.038a14.718,14.718,0,0,0-3.6.628c-6.179,2.144-12.623,1.645-18.973,1.85-2.874.1-3.687-1.181-4.567-4.124-1.1-3.666.184-6.479,2.84-8.991-.546-.635-.949-1.079-1.318-1.55A6.62,6.62,0,0,1,6.471,3.927a16.554,16.554,0,0,1,8.466.061,18.143,18.143,0,0,0,6.7.505C33.876,3.251,42.068,9.184,47.66,19.308c3.762,6.814,4.943,14.276,4.533,22.12-.567,10.958-.669,21.936-.976,32.9-.123,4.226,1.83,7.21,5.3,9.462a5.916,5.916,0,0,0,5.2.833C72.8,81.531,73.842,79.21,76.075,68.143a59.962,59.962,0,0,0,.3-19.178,74.18,74.18,0,0,1-.416-16.5c.56-5.516,1.481-11.019,4.13-16.249a40.91,40.91,0,0,1,6.083-9.387C91.484.977,98.386-.026,105.452.52c6.192.485,12.323,2.028,17.5,6.049,5.667,4.4,9.7,9.783,10.473,17.054.58,5.469.8,10.985,1,16.488a29.691,29.691,0,0,1-.662,5.441,55.485,55.485,0,0,0,.949,23.6,10.443,10.443,0,0,0,15,6.581c3.782-2.062,4.8-6,5.318-9.647.881-6.144.833-12.391,1.857-18.59.628-3.81-.655-7.892-.621-11.852.055-7.605,1.222-14.945,7.018-20.652,2.246-2.212,3.5-5.189,6.616-6.807,6.9-3.591,13.62-4.54,20.263.068,7.947,5.51,14.665,12.016,16.276,22.25.307,1.946,1.222,3.782,1.686,5.708a36.886,36.886,0,0,1,.273,16.747c-.935,4.3-.99,8.793-1.6,13.176-.587,4.2.963,7.858,2.751,11.415a4.515,4.515,0,0,0,2.69,2.069c4.444,1.045,8.957,1.809,13.422,2.745,4.492.942,8.855,2.2,12.644,4.984,1.208.881,2.745,1.324,3.939,2.226.73.56,1.6,1.666,1.5,2.4a3.012,3.012,0,0,1-2.069,1.9c-6.581,1.017-13.095,2.437-19.888,1.236-4.315-.765-8.862-.246-13.19-.983-5.626-.949-10.76-3.291-14.549-7.824a10.936,10.936,0,0,1-1.809-3.127c-1.106-2.99-1.782-6.179-3.147-9.039a34.41,34.41,0,0,1-2.806-20.092c.635-4.567,1.379-9.128.075-13.654-1.222-4.219-2.622-8.4-4.151-12.521a5.272,5.272,0,0,0-5.455-3.448c-2.253.143-3.707,1.877-4.567,4.021a30.026,30.026,0,0,0-2.26,13.852c.457,5.612,1.3,11.224.328,16.911-1.816,10.623-4.533,20.9-10.541,30.026a4.258,4.258,0,0,1-1.55,1.632c-3.782,1.625-7.551,4.151-11.449,4.4-4.52.294-9.449.1-13.682-2.69a29.471,29.471,0,0,1-9.544-10.3c-4.9-8.527-6.192-17.785-6.7-27.316-.294-5.612-.771-11.217-.976-16.836-.28-7.967-4.185-13.149-11.613-15.8-3.455-1.236-8.022,1.161-9.1,4.642-2.171,6.991-1.55,14.235-1.925,21.383C93.129,49.314,94.269,50.352,95.2,51.949ZM54.364,95.268l1.652.847a14.817,14.817,0,0,0,10.534,1.679c-.389-3.728-.157-4.049,3.741-4.957l-1.324,4.547a34.505,34.505,0,0,0,5.168-1.693c2.43-1.277,4.656-2.922,7.052-4.26a11.2,11.2,0,0,0,5.264-7.155A90.584,90.584,0,0,0,89.36,70.451c1.086-8.486,1.195-16.966,1.386-25.472.13-5.953-.061-11.92,1.625-17.764C93.982,21.63,99,18.3,104.5,19.6c7.3,1.72,12.337,7.066,13.108,14.132.382,3.489.655,7,.935,10.5.539,6.848,1.051,13.7,1.563,20.338,4.363,1.324,5.168,2.772,4.335,7.524l-2.553-3.147a10.147,10.147,0,0,0,.655,5.359c.963,2.4,2.116,4.731,3.3,7.032,3.12,6.063,9.667,12.555,17.519,11.053l5.428-4.206,1.734,2.588c4.84-1.051,6.5-1.987,8.493-5.6a64.287,64.287,0,0,0,4.731-9.852c3.291-9.442,5.236-19.055,3.823-29.22-.894-6.383-.56-12.8,2.376-18.884a11.013,11.013,0,0,1,6.179-5.748c1.57-.635,3.011-.69,4.226.56,1.461,1.5,3.161,2.895,4.158,4.67a38.381,38.381,0,0,1,4.438,27.015c-.963,4.977-1.3,9.968,1.079,14.822,1.4,2.847,2.26,5.96,3.373,8.944a49.385,49.385,0,0,0,2.43,6.308c2.874,5.318,8.486,6.308,13.552,7.5a83.364,83.364,0,0,0,16.337,1.843c4.178.13,8.746,1.167,12.808-2.608-2.5-1.324-4.642-2.922-7.046-3.618-4.219-1.222-8.6-1.877-12.91-2.785-2.826-.594-5.667-1.154-8.466-1.871a3.636,3.636,0,0,1-2.171-1.427c-2.4-4.349-4.13-8.964-3.687-14.016a94.659,94.659,0,0,1,1.857-13.627c2.444-10.316-.683-19.683-4.356-28.975-2.478-6.288-7.988-9.777-13.095-13.709-5.981-4.595-11.866-3.045-17.43-.014-4.922,2.683-7.831,7.681-10.282,12.548a23.931,23.931,0,0,0-2.328,13.887c1.161,8.643-.56,17.082-.99,25.609a56.754,56.754,0,0,1-1.065,7.722c-1.12,5.926-5.236,8.65-10.746,9.8-3.6.751-8.793-1.782-11.046-5.694-1.359-2.362-2.956-4.9-3.25-7.5-.69-6.049-1.509-12.3-.717-18.256a115.759,115.759,0,0,0,.328-22.8c-.608-9.783-9.722-20.563-19.437-21.26a47.6,47.6,0,0,1-5.878-.84c-7.7-1.529-13.873.771-19.048,6.738-2.826,3.257-3.9,7.128-5.626,10.835-2.362,5.066-2.7,10.432-2.82,15.662-.171,7.455,1.1,14.931,1.249,22.414a50.209,50.209,0,0,1-4.41,20.966,5.379,5.379,0,0,1-.737,1.147c-3.536,4.526-9.415,4.363-13.927,6.936-.109.061-.3-.02-.457-.027-5.919-.457-11.217-5.844-11.176-11.989q.113-18.556.765-37.1a34.2,34.2,0,0,0-3.912-18.126c-3.106-5.6-6.663-11.081-13.866-12.3a19.528,19.528,0,0,1-2.963-1.222c-.84-.3-1.823-.833-2.581-.642-5.079,1.3-9.988.15-14.993-.519A9.488,9.488,0,0,0,5.406,7.887c-2.69,1.755-2.069,4.26,1.031,5.312,2.021.683,4.1,1.195,6.1,1.959.867.335,1.563,1.1,3.209,2.308-2.465.956-4.042,1.645-5.667,2.151a17.95,17.95,0,0,1-2.287.089,10.511,10.511,0,0,0-2.144.662c-1.475.587-2.342,1.809-1.843,3.25a4.044,4.044,0,0,0,2.4,2.314c5.434,1.284,10.848.294,16.228-.628,3.141-.533,6.226-1.454,9.381-1.755a4.509,4.509,0,0,1,3.427,1.8,11.518,11.518,0,0,1,2.1,5.387c.806,13.293,1.3,26.6,2.082,39.884A38.131,38.131,0,0,0,44.4,87.341c2.663-2.2,4.67-1.229,7.264.833l-5.612,1.092C48.8,91.991,50.6,94.885,54.364,95.268Z" transform="translate(1646.794 1231.299)" fill="#868686"/>
    <path id="Path_145" data-name="Path 145" d="M8.652,17.777c-.089-.744-.225-1.481-.246-2.226a10.055,10.055,0,0,1,.382-1.864c.942.731,1.632,1.311,2.376,1.823.826.567,1.7,1.065,2.526,1.584-.587,2.13-2.178,1.352-3.386,1.529Z" transform="translate(1692.506 1308.79)" fill="#868686"/>
    <path id="Path_146" data-name="Path 146" d="M8.992,19.261c-3.147-4.322-3.5-9.7-.567-12.876Z" transform="translate(1680.915 1266.234)" fill="#868686"/>
    <path id="Path_147" data-name="Path 147" d="M2.47,3.054c1.9-1.83,3.345-1.475,4.567.492.976,1.563.683,4.2-.737,4.868A2.3,2.3,0,0,1,4.129,7.7,28.494,28.494,0,0,1,2.47,3.054Z" transform="translate(1657.916 1239.859)" fill="#868686"/>
    <path id="Path_148" data-name="Path 148" d="M34.393,3.351c-2.717,3.694-5.346.314-8.056.15C28.945.927,31.71,3.467,34.393,3.351Z" transform="translate(1796.994 1242.683)" fill="#868686"/>
    <path id="Path_149" data-name="Path 149" d="M17.273,1.569l6.984,4.779c-1.427,1.441-3.011,1.106-4.342.171C18.461,5.5,16.263,4.7,17.273,1.569Z" transform="translate(1742.681 1238.17)" fill="#868686"/>
    <path id="Path_150" data-name="Path 150" d="M18.589,5.768c2.212,1.707,2.56,3.748,1.693,8.254C18.063,11.5,17.7,9.926,18.589,5.768Z" transform="translate(1749.23 1262.638)" fill="#868686"/>
    <path id="Path_151" data-name="Path 151" d="M29.012,3.7a16.519,16.519,0,0,1,3.653,8.534C29.272,9.556,28.166,7.091,29.012,3.7Z" transform="translate(1810.997 1250.617)" fill="#868686"/>
    <path id="Path_152" data-name="Path 152" d="M29.488,12.026c1.645,0,2.615-.307,3.065.048,2.615,2.048,3.782,4.52,3.448,7.21Z" transform="translate(1815.355 1298.388)" fill="#868686"/>
    <path id="Path_153" data-name="Path 153" d="M20.246,11.709c2.1,2.669,3.905,4.957,6.022,7.64-2.936.109-4.349-1.645-5.728-3.25C19.577,14.979,18.791,13.634,20.246,11.709Z" transform="translate(1756.824 1297.257)" fill="#868686"/>
    <path id="Path_154" data-name="Path 154" d="M11.773,11.756A17.984,17.984,0,0,1,6.352,4.683c1.454.123,2.43-.061,3.072.321C10.674,5.748,11.445,8.267,11.773,11.756Z" transform="translate(1680.537 1256.316)" fill="#868686"/>
    <path id="Path_155" data-name="Path 155" d="M13.772,18.437c-2.519-2.676-2.075-4.1,2.383-7.742Z" transform="translate(1714.838 1291.349)" fill="#868686"/>
    <path id="Path_156" data-name="Path 156" d="M21.469,2.531,14.533,7.188c-.157-1.441-.505-2.567-.266-2.71C16.383,3.228,18.308,1.378,21.469,2.531Z" transform="translate(1726.182 1241.659)" fill="#868686"/>
    <path id="Path_157" data-name="Path 157" d="M20.907,17.354c-2.43-3.523-1.12-6.581-2.26-9.442,1.092,0,1.8-.143,1.877.027C21.9,10.691,21.521,13.5,20.907,17.354Z" transform="translate(1752.182 1274.804)" fill="#868686"/>
    <path id="Path_158" data-name="Path 158" d="M15.064,10.32c-1.27-1.311-2.519-2.069-2.437-2.615.321-1.994,1.481-3.489,4.356-3.83Z" transform="translate(1717.076 1251.607)" fill="#868686"/>
    <path id="Path_159" data-name="Path 159" d="M17.811,14.4c-2.308.69-4.171,3.3-6.964,1.864l-.328-1.236L17.4,12.987Z" transform="translate(1704.825 1304.705)" fill="#868686"/>
    <path id="Path_160" data-name="Path 160" d="M31.981,13.177c2.478-.84,4.233.526,6.158,1.645C35.374,17.615,33.517,17.11,31.981,13.177Z" transform="translate(1829.882 1304.296)" fill="#868686"/>
    <path id="Path_161" data-name="Path 161" d="M26.865,9.761c1.167,3.98-.69,6.117-2.014,8.909C23.459,16.377,23.459,16.377,26.865,9.761Z" transform="translate(1783.241 1285.906)" fill="#868686"/>
    <path id="Path_162" data-name="Path 162" d="M22.756,6.913c-6.936-.826-6.936-.826-6.691-4.41C17.868,4.5,21.063,3.65,22.756,6.913Z" transform="translate(1736.72 1243.612)" fill="#868686"/>
    <path id="Path_163" data-name="Path 163" d="M28.929,3.749,25.6,9.661C23.6,6.186,23.9,5.6,28.929,3.749Z" transform="translate(1785.977 1250.873)" fill="#868686"/>
    <path id="Path_164" data-name="Path 164" d="M31,12.87c-1.9-1.994-2.806-4.2-2.253-6.793C31.292,7.8,31.572,10.235,31,12.87Z" transform="translate(1810.09 1264.439)" fill="#868686"/>
    <path id="Path_165" data-name="Path 165" d="M26.4,14.35c-2.949-3.3-2.949-3.3.1-8.206A14.975,14.975,0,0,1,26.4,14.35Z" transform="translate(1784.516 1264.829)" fill="#868686"/>
    <path id="Path_166" data-name="Path 166" d="M8.938,18.713C6.358,16.624,6.276,14.078,7.2,10.275,9.539,13.477,9.177,16.105,8.938,18.713Z" transform="translate(1682.354 1288.901)" fill="#868686"/>
    <path id="Path_167" data-name="Path 167" d="M28.389,12.348c-.853,3.96-3.721,3.509-5.4,5.291l-1.324-2.567Z" transform="translate(1769.763 1300.981)" fill="#868686"/>
    <path id="Path_168" data-name="Path 168" d="M20.66,9.559c-1.461-1.741-2.745-3.5-1.884-6.138C21.848,4.909,20.974,7.353,20.66,9.559Z" transform="translate(1751.316 1248.962)" fill="#868686"/>
    <path id="Path_169" data-name="Path 169" d="M9.185,6.489v5.093C6.365,9.739,6.365,9.739,9.185,6.489Z" transform="translate(1684.723 1266.84)" fill="#868686"/>
    <path id="Path_170" data-name="Path 170" d="M12.332,11.852,17.009,9a3.134,3.134,0,0,1-1.686,4.192C14.858,13.436,13.779,12.534,12.332,11.852Z" transform="translate(1715.384 1281.46)" fill="#868686"/>
    <path id="Path_171" data-name="Path 171" d="M31.395,14.347c-2.212-2.471-1.584-4.752-1.208-7.933A9.128,9.128,0,0,1,31.395,14.347Z" transform="translate(1817.217 1266.403)" fill="#868686"/>
    <path id="Path_172" data-name="Path 172" d="M31.01,9.552v4.779c-1.673-1.625-3.188-3.222-1.079-5.025Z" transform="translate(1811.928 1283.255)" fill="#868686"/>
    <path id="Path_173" data-name="Path 173" d="M30.644,13.822a19.6,19.6,0,0,1-1.249-3.98c-.061-.519,1.017-1.161,1.57-1.748.355.546,1.017,1.106,1,1.645a27.388,27.388,0,0,1-.587,3.905Z" transform="translate(1814.793 1276.192)" fill="#868686"/>
    <path id="Path_174" data-name="Path 174" d="M21.008,5.771v4.513C18.284,7.526,18.284,7.526,21.008,5.771Z" transform="translate(1754.034 1262.656)" fill="#868686"/>
    <path id="Path_175" data-name="Path 175" d="M12.795,11.64l.485-4.888c2.294,1.953,2.11,3.68.444,5.3Z" transform="translate(1718.082 1268.372)" fill="#868686"/>
    <path id="Path_176" data-name="Path 176" d="M6.925,12.069c.2-.928.4-1.864.655-2.779.007-.02,1.072.13,1.079.246.082.949.034,1.912.027,2.867Z" transform="translate(1683.876 1283.154)" fill="#868686"/>
  </g>
</svg>
