<svg xmlns="http://www.w3.org/2000/svg" width="142.226" height="99.904" viewBox="0 0 142.226 99.904">
  <g id="Group_15" data-name="Group 15" transform="translate(-1647.355 -1386.976)">
    <path id="Path_129" data-name="Path 129" d="M160.672,93.774C157.156,99,151.79,98.32,146.7,98.71c-3.6.273-7.312.444-10.732,1.475-4.342,1.3-8.193.225-12.187-.983a15.9,15.9,0,0,0-4.219-.867c-9.449-.191-18.9-.6-28.34-.287-5.694.2-11.572-1.3-17.17,1.6-1.284.662-3.673-.69-5.51-1.236a57.736,57.736,0,0,0-5.53-1.85c-3.53-.649-7.1-1.072-10.671-1.447a4.33,4.33,0,0,1-4.117-3.721c-.9-4.089-2.137-8.152-2.492-12.3-1.318-15.423-2.574-30.859-3.352-46.316a111.421,111.421,0,0,1,1.133-19.526C43.8,11,45.716,8.789,47.327,6.945c1.14-1.3,3.024-1.946,4.581-2.881L50.748,2.624C60.872,2.125,71,1.4,81.129,1.176c9.783-.218,19.58.13,29.371.123,9.121-.007,18.235-.178,27.357-.232,4.69-.027,9.381.075,14.071.048,3.8-.02,7.6-.15,11.395-.239,7.913-.178,12.193,4.745,16.167,10.773,4.349,6.609,3.734,13.866,4.042,21.082.253,5.967.512,11.934.669,17.908.068,2.526-.225,5.066-.184,7.592.123,8.1.335,16.208.5,24.312a6.711,6.711,0,0,1-.218,2.157c-2.041,6.247-10.152,14.876-19.457,10.876ZM124.065,55.528l3.236.416,3.775-12.985c-3.844,3.154-4.554,4.124-4.5,8.015.034,2.273-.4,3.891-2.649,4.7l-1.768-5.694-1.57,5.264c-2.683-5.455.539-10.507.253-15.825-5.687,4.014-2.137,10.357-4.09,16.426-1.591-3.987-2.861-6.957-1.5-9.906,1.973-4.267,3.864-8.834,6.936-12.241a18.832,18.832,0,0,1,10.214-5.865c12.316-1.843,24.571,3.5,30.026,15.211,1.5,3.216,1.823,6.977,2.792,10.937l4.049.717c.444-.669.826-.976.812-1.27-.328-7.824-.594-15.655-1.106-23.465a7.643,7.643,0,0,0-4.97-6.691c-7.257-3.147-14.713-5.359-22.721-5.551a58.789,58.789,0,0,1-8.077-1.236c-2.137-.348-4.26-.894-6.411-1.038-9.8-.669-19.615-1.195-29.418-1.85A30.651,30.651,0,0,1,92,12.687a68.951,68.951,0,0,0-29.6-.806c-4.363.792-5.544,1.775-6.547,6.7-.471,2.335.034,4.861-.02,7.3-.177,7.271-.478,14.535-.58,21.806a37.13,37.13,0,0,0,.785,5.632,5.417,5.417,0,0,0,1.352-3.625c.717-9.565,10.275-20.051,19.662-21.478a16.883,16.883,0,0,1,3.27,0c1.645.082,3.284.266,4.922.321,13.613.41,22.755,9.64,24.325,21.6.259,1.966,1.461,3.816,2.239,5.742l-6.465,2.26-1.6-2.99c-2.185.758-3.912,1.727-5.721,1.912-4.206.444-3.932-4.772-6.984-6.076V56.8c-1.768-.171-3.68-.942-4.4-.321-4.39,3.816-7.592,1.584-10.807-1.529-.1-4.274,2.635-6.022,6.247-7.032-7.626-.423-9.258.84-10.978,8.111-3.065-.027-6.063.43-9.21-.437-2.041-.56-5.107-.9-6.472,2.574a14.6,14.6,0,0,0,3.27,1q15.269.789,30.558,1.413a104.5,104.5,0,0,0,10.944,0c5.059-.335,10.1-1.543,15.136-1.427,11.92.28,23.847-1.263,35.768.232,1.925.239,3.967-.451,5.96-.621,1.816-.157,3.653-.191,5.475-.273l.15,1.345c-2.4,1.536-5.264,1.775-8.042,1.809-7.442.1-14.883.048-22.325-.075-4.369-.075-8.746-.717-13.1-.546-9.258.369-18.495,1.345-27.746,1.577-6.117.157-12.248-.546-18.372-.874-5.755-.307-11.511-.628-17.887-.976.444,8.787.724,16.72,1.345,24.619.157,2.035,1.393,3.98,2.26,6.308l16.665-1.038c.232-1.3.355-2.369.614-3.414,1.208-4.881,1.734-9.954,4.472-14.378,1.372-2.232,2.779-4.1,5.673-4.492,7.2-.963,14.351-2.41,21.574-3.093a230.8,230.8,0,0,1,35.9-.178c2.806.171,4.445,1.284,5.127,3.946.321,1.236.724,2.444,1.024,3.687q2.243,9.268,4.458,18.549c2.437-1.174,2.874-1.236,7.537-1,4.636.225,6.9-1.413,7.285-6.063.4-4.711.2-9.476.355-14.214.089-2.833.362-5.667.539-8.377l-6.322-2.526,5.537-1.311a23.862,23.862,0,0,0-12.03-2.021c-7.954.594-15.907,1.331-23.875,1.8A60.565,60.565,0,0,1,124.6,57.1C124.372,57.084,124.222,56.1,124.065,55.528ZM174.354,93.1c1.482-2.355,2.451-4.622,4.062-6.24A6.9,6.9,0,0,0,180.4,81.45c-.034-3.461.082-6.93-.082-10.391-.655-14.378-1.591-28.756-2-43.141a24.552,24.552,0,0,0-4.95-14.023,8.618,8.618,0,0,0-4.13-3.141c-3.455-1.051-7.114-1.413-10.616-2.321a108.222,108.222,0,0,0-32.409-3.8,37.5,37.5,0,0,1-6,.055c-4.1-.478-8.152-1.625-12.248-1.755-8.746-.28-17.5-.191-26.251-.061-6.738.1-13.477.348-20.2.806-5.414.369-10.766.806-14.5,5.953a12.493,12.493,0,0,0-2.547,7.558q-.123,11.183.075,22.366c.1,5.824.171,11.668.676,17.471.669,7.619,1.679,15.211,2.69,22.8.437,3.243,1.167,6.452,1.925,9.64a3.033,3.033,0,0,0,3.257,2.649c-.6-4.117-1.468-7.858-1.625-11.627-.341-8.179-.266-16.372-.451-24.557-.15-6.711-.239-13.429-.73-20.113-.43-5.817-.881-11.558.287-17.362,1.058-5.264,3.243-8.029,8.459-8.4a212.359,212.359,0,0,1,23.479-.751c7.578.287,14.863,2.888,22.707,2.4,7-.43,14.132,1,21.2,1.625,9.039.812,18.133,1.256,27.083,2.615,5.086.771,10.309,1.912,14.6,5.51,2.786,2.335,4.854,4.52,5.079,8.486.4,7.066,1.994,14.057.867,21.205a29.7,29.7,0,0,0,.061,4.922c.061,5.032.123,10.07.15,15.1.014,1.625-.055,3.243-.109,4.861-.143,4.144-.089,8.316-.587,12.412-.164,1.365-1.679,2.642-2.765,3.775a8.962,8.962,0,0,1-2.4,1.324l.307.84ZM97.33,95.658c.73-1.263,1.188-2.041,1.625-2.826a19.242,19.242,0,0,0,1.284-2.39c1.659-4.253,2.676-4.9,7.141-4.711,3.455.15,6.916.266,10.377.239,6.4-.048,6.411-.1,8.118,6.192.526,1.918,1.5,3.55,3.68,3.325,6.752-.69,13.491-1.563,20.12-2.355-1.857-8.486-3.694-16.884-5.612-25.684-4.11,0-7.824-.847-10.876.212-3.789,1.311-7.5.84-11.224,1.318-2.308.3-4.656.246-6.977.471-3.591.355-7.175.8-10.753,1.243C99.2,71.312,94.2,72.2,89.151,72.555c-3.42.232-4.854,2.294-5.673,4.991-.792,2.587-1.092,5.318-1.659,7.974-.71,3.277-1.475,6.54-2.28,10.138Zm25.261-52.9c2.4-2.1,3.953-3.338,5.359-4.731,5.277-5.223,14.993-6.82,20.9-2.615,6.056,4.315,10.978,9.811,12.6,17.5.116-.075.341-.171.335-.232-.068-.519-.218-1.031-.266-1.557a22.139,22.139,0,0,0-7.373-14.7c-4.916-4.526-10.432-6.281-16.986-4.492-1.024.28-2.205-.048-3.257.171C128.523,33.257,123.935,35.387,122.59,42.761ZM102.559,95.323a38.741,38.741,0,0,0,18.536.69c-.539-3.373-2.376-4.52-5.045-4.554-3.27-.041-6.534.027-9.8-.02C103.672,91.4,102.75,92.845,102.559,95.323ZM80.582,41.375l.935.928,3.2-3.8c3.284,1.57,7.046,2.738,10.022,4.957,3,2.246,5.223,5.544,7.783,8.377-2.622-6.657-6.452-12.767-13.709-14-5.353-.915-11.524-2.021-17.689,2.854l10.459-1.229Zm71.61,11.4,1.01-1.065c-.969-1.632-1.543-3.864-2.97-4.786-4.083-2.642-8.623-3.775-13.47-1.789-2.963,1.215-3.407,2.28-2.3,6.028l5.12-5.434C144.383,47.847,150.425,46.413,152.193,52.776ZM88.072,30.745c-12.187-.956-12.187-.956-16.454,3.065,2.588-.505,5.243-.874,7.817-1.563C82.037,31.551,85.048,33.947,88.072,30.745Zm48.234,9.005h8.479C141.781,36.8,139.2,36.869,136.306,39.75ZM74.363,43.007C69,44.024,69,44.024,69.017,48.038ZM64.73,51.063l-1.29-.246-.259,3.011.881.123Zm84.186,2.26.751-.294-1.563-2.7-.4.232ZM131.9,38.419l.826,1.058,2.615-1.639-1.106-1.126Zm.007-8.09.423.58,2.492-1.256a1.824,1.824,0,0,0-1.57-.143A8.05,8.05,0,0,0,131.909,30.328Z" transform="translate(1605.065 1386.104)" fill="#868686"/>
    <path id="Path_130" data-name="Path 130" d="M52.912,5.109c.048,2.717-3.011,5.987-4.834,6.083a3.685,3.685,0,0,1-3.523-3.407c.007-1.686,2.977-4.554,4.834-4.267A12.942,12.942,0,0,1,52.912,5.109ZM49.764,7.867l-.4-1-2.335.942a7.27,7.27,0,0,0,.4.894C48.228,8.468,48.993,8.161,49.764,7.867Z" transform="translate(1618.262 1401.411)" fill="#868686"/>
    <path id="Path_131" data-name="Path 131" d="M52.545,17.974c-.1,1.488-1.707,2.062-3.687,2.021-2.267-.048-3.8-1.167-4.13-3.482-.212-1.468,2.26-3.734,3.953-3.8C50.77,12.649,52.641,14.738,52.545,17.974Zm-1.987-.587c-.348-.86-.464-1.639-.724-1.686a5.589,5.589,0,0,0-1.864.232c.123.485.116,1.27.4,1.393A6.608,6.608,0,0,0,50.558,17.387Z" transform="translate(1619.196 1455.124)" fill="#868686"/>
    <path id="Path_132" data-name="Path 132" d="M61.968,12.177c2.8.089,5.161,2.608,4.929,4.458-.273,2.137-1.918,2.5-3.646,2.451-2.028-.048-4.124-2.035-3.673-3.939C59.879,13.87,61.367,12.88,61.968,12.177Z" transform="translate(1705.449 1451.985)" fill="#868686"/>
    <path id="Path_133" data-name="Path 133" d="M60.307,4.231c2.465-.041,4.5,2.028,4.451,3.926-.041,1.652-.826,2.8-2.574,2.915-1.864.123-3.475-1.83-3.2-4.165A8.246,8.246,0,0,1,60.307,4.231Z" transform="translate(1702.16 1405.676)" fill="#868686"/>
    <path id="Path_134" data-name="Path 134" d="M53.695,21.285c-1.488-2.656-2.54-5.441-1.27-8.855l9.237-1.14a27.35,27.35,0,0,1,.608,3.12C63.089,23.975,60.918,22.562,53.695,21.285Z" transform="translate(1660.811 1446.816)" fill="#868686"/>
  </g>
</svg>
