<svg xmlns="http://www.w3.org/2000/svg" width="86.276" height="125.458" viewBox="0 0 86.276 125.458">
  <g id="Group_14" data-name="Group 14" transform="translate(-1649.642 -1567.352)">
    <path id="Path_135" data-name="Path 135" d="M105.212,1.732C115.379.7,124.99,3.512,134.626,6.182c9.029,2.5,12.058,10.141,14.891,17.732,6.17,16.534,7.06,33.779,6.265,51.212-.1,2.182.368,4.39.308,6.581-.214,8.045.95,16.509-1.207,24.014-2.824,9.816-8.122,17.63-19.889,18.811-7.762.779-15.507,2.319-23.278,2.43a84.213,84.213,0,0,1-19.6-2.268c-8.635-1.951-10.578-9.457-11.784-16.859Q76.508,84.3,73.145,60.706C71.3,47.877,69.037,35.074,70.312,21.972c.522-5.374,1.831-10.244,6.316-13.436A38.545,38.545,0,0,1,94.942,1.8,95.547,95.547,0,0,1,105.212,1.732ZM78.733,81.348l-.214-.24c-.394,11.494,3.577,22.165,6.675,32.923,1.926,6.675,6.5,8.147,12.906,6.162,2.533,1.361,4.536,3.363,6.53,3.355,11.468-.06,22.987-.205,34.112-3.6,1.558-.479,2.893-1.669,4.33-2.533-12.948-.753-25.118,2.91-37.656,1.677-6.812-.676-13.291-.394-17.142-8.327-1.849-3.8-4.27-6.47-2.139-10.835.565-1.155-.017-2.893-.146-4.356C85.383,89.007,85.118,82.383,84,75.9c-.625-3.646.993-8.584-4.322-10.544-.522-.188-1.07-2.182-.736-2.542,4.082-4.476.334-9.191.941-14.609L78.143,52.55c-.873-2.251-1.421-4.912-.334-6.23,2.927-3.56,2.362-7.625,1.729-11.194-1.215-6.906.146-13.607.308-20.385.043-1.566.009-3.132.009-5.477-4.382,2.473-6.881,5.845-6.846,9.654C73.076,26,70.252,33.44,74.8,40.209c.359.531-.223,1.686-.359,2.542a16.789,16.789,0,0,0-.59,4c.522,5.606,1.1,11.211,1.891,16.774C76.594,69.486,77.723,75.409,78.733,81.348Zm69.534,2.062-.214-.017c0-.984.026-1.96-.009-2.944A437.368,437.368,0,0,0,141.6,19.978c-.993-5.665-5.1-8.473-9.876-9.782C118.9,6.7,105.931,4.531,92.614,8.022,85.486,9.9,84.3,10.881,83.646,18.241a29.368,29.368,0,0,0,.069,3.68c.291,7.334.265,14.694.95,21.986,1.438,15.336,3.252,30.638,4.921,45.948.445,4.142.736,8.31,1.4,12.418,1.463,9.037,4.947,12.024,13.873,11.562q15.379-.8,30.715-2.208c8.173-.77,10.184-2.55,11.442-10.672C147.908,95.178,147.883,89.264,148.268,83.41Zm1.823-41.8a136.579,136.579,0,0,0,3.158,34.994C153.1,64.856,153.248,53.081,150.091,41.613ZM154.2,83.436l-1.712-.128-1.54,21.378,1.677.12Z" transform="translate(1579.703 1565.84)" fill="#868686"/>
    <path id="Path_136" data-name="Path 136" d="M122.03,63.153c0,5.691.154,10.347-.06,14.994a36.059,36.059,0,0,1-1.326,9.363c-2.311,7.129-3.483,7.514-11.168,6.761-6.812-.668-13.71-.608-20.5-1.455C80.6,91.771,78.991,90.359,77.665,82c-1.643-10.372-2.884-20.839-3.748-31.305C72.975,39.25,72.632,27.756,72.1,16.28a24.888,24.888,0,0,1,.3-6.538C73.685,3.9,75.183,2.8,81.3,2.647c4.9-.12,9.8-.24,14.7-.223,15.353.051,23.569,12.366,24.168,22.842C120.909,38.231,121.448,51.2,122.03,63.153Zm-2.773-5.606h-.873c0-6.615.325-13.256-.094-19.846a117.5,117.5,0,0,0-2.5-18.126A17.092,17.092,0,0,0,105.376,6.969C96.706,3.717,87.489,4.855,78.461,5.813c-2.893.308-4.116,2.311-3.937,5.212.128,2.2.094,4.416.205,6.615.445,9.294.565,18.622,1.472,27.874C77.348,57.2,78.888,68.852,80.754,80.44c1.113,6.889,3.252,8.669,10.193,9.345,6.333.616,12.726.548,19.093.847,5.263.257,7.069-.8,8.37-5.931a35.826,35.826,0,0,0,.813-8.019C119.325,70.307,119.257,63.931,119.257,57.547Z" transform="translate(1595.483 1572.721)" fill="#868686"/>
    <path id="Path_137" data-name="Path 137" d="M90.3,18.94c-5.682,2.413-10.732,1.874-16.218.223.693-3.62,2.43-5.9,5.8-5.554C83.591,13.976,88.58,12.239,90.3,18.94Z" transform="translate(1611.02 1657.003)" fill="#868686"/>
    <path id="Path_138" data-name="Path 138" d="M71.162,18.324c-.257-2.456-.882-4.981,2.422-8.473l.685,9.825c-1.729-.822-2.525-1.207-3.321-1.592Z" transform="translate(1587.274 1628.864)" fill="#868686"/>
    <path id="Path_139" data-name="Path 139" d="M72.722,3.846v8.986l-.976.1L70.48,3.88Z" transform="translate(1583.788 1583.478)" fill="#868686"/>
  </g>
</svg>
