<svg xmlns="http://www.w3.org/2000/svg" width="93.854" height="123.046" viewBox="0 0 93.854 123.046">
  <g id="Group_13" data-name="Group 13" transform="translate(-1650.566 -1706.555)">
    <path id="Path_127" data-name="Path 127" d="M181.044,49.983a3.246,3.246,0,0,0-.679-1.457c.017-1.416.033-2.823-.075-4.222-.82-10.879-4.653-21-8.784-30.907-2.5-6-6.789-7.791-14.456-10.333C152.529,2.037,144.755.2,138.14,1.011a88.563,88.563,0,0,0-23.588,6.234C109.543,9.423,100.817,18.919,99.5,21.121,91.991,33.7,86.584,50.472,88.613,64.712c4.28,1.258,7.8-.356,11.442.075,4.107.488,6,2.492,6.45,6.267.207,1.78.124,3.6.19,5.4.24,7.286.157,14.6.878,21.841.315,3.13,1.954,6.276,3.56,9.091,3.411,5.978,8.486,9.5,15.317,11.583,11.931,3.618,23.232,8.685,35.518.439,6.541-4.388,12.361-9.033,15.317-16.327C182.84,89.418,182.675,64.414,181.044,49.983Zm-63.983,55.886c-3.047-2.012-2.807-5.415.008-11.715-1.085-.422-1.772-.737-2.492-.96-2.981-.9-5.175-2.326-4.181-5.994a6.119,6.119,0,0,1,6.98-4.769c5.117,1.109,11.632.936,13.272,8.652-2.8.679-14.77,1.432-17.908,2.194,1.507,5.084,15.284,1.051,17.585,4.322.406,4.115-1.656,9.273-5.464,10.018A11.547,11.547,0,0,1,117.061,105.869Zm56.97-3.982c-2.732,6.408-6.085,12.758-13.264,15.217a48.127,48.127,0,0,1-25.856,1.747c-4.189-.886-8.1-2.749-10.738-8,8.784-2.194,15.458-7.65,15.739-15.6-.985-6.781-2.881-6.681-4.794-9.662-1.813-2.823-6.2-6.913-9.679-7.369-5.39-.7-10.333,1.192-16.079-.207.141-3.005-.19-5.647.5-7.99.778-2.683,2.542-5.1.008-8.213-2.492-.166-5.307-.149-8.039-.6-2.633-.431-6.772.629-9.372-.075-2.36-16.542,2.31-24.225,7.584-33.622.679-1.209,5.862-8.031,6.292-9.389,9.414-9.157,19.109-9.256,24.631-11.533,3.726-1.54,10.8-3.833,21.866-1.987,14.323,2.981,16.989,12.162,20.2,23.455,2.169,7.609,3.949,15.159,4.355,23.05a5.86,5.86,0,0,0,.083,1.664C180.315,66.037,179.3,89.55,174.031,101.886Z" transform="translate(1562.383 1705.745)" fill="#868686"/>
    <path id="Path_128" data-name="Path 128" d="M90.906,17.781C94.06,6.861,95.253,5.8,105.213,4.758A31.011,31.011,0,0,0,110.992,4c9.7-2.964,17.776,1.192,25.691,5.762a5.9,5.9,0,0,1,1.35,9.207c-2.128,2.26-5.05,4.661-7.94,5.158-8.892,1.523-17.892,2.956-26.585-1.788C99.616,20.224,95.1,19.255,90.906,17.781ZM96.362,13.8,109.9,20.207l-.662-12.651Zm30.6,7.162,7.766-4.686c-4.918-3.958-8.859-7.112-14.5-8.453Zm-7.311-4.752c-1.01-1.126-1.648-2.368-2.583-2.683-.58-.2-1.631,1-2.476,1.573a12.4,12.4,0,0,0,2.384,2.558C117.325,17.873,118.393,16.92,119.652,16.208Z" transform="translate(1582.204 1721.744)" fill="#868686"/>
  </g>
</svg>
