<svg xmlns="http://www.w3.org/2000/svg" width="103.183" height="143.374" viewBox="0 0 103.183 143.374">
  <path id="Path_123" data-name="Path 123" d="M186.57,143.994c11.145.069,24.75.783,25.107-8.389.129-3.143-4.442-4.165-2.191-6.287,3.6-3.391,5.642-7.952-.01-12.276,4.581-8.607-3.679-9.351-10.362-8.736-10.58.347-7.288-17.868-7.288-24.908,4.323-.476,12.841.555,17.551-1.537,3.659-1.626,5.2-5.632-.466-10.531,4.046-3.689,1.081-6.544-1.289-9.251,18.334-23.371-34.1-5.513-43.471-12.95l-.773-6.534c6.921-2.112,16.728-10.917,15.647-21.031,1.4-3.342-3.342-24.323-23.481-20.387-9.42,1.834-18.78,8.815-22.38,17.65-2.876,7.05-2.132,15.042,5.007,21.725,1.934,1.8,5.394,2.4,6.693,4.343l-.357,5.3c-3.718,1.14-12.91.04-20.585.664-9.569.773-16.787,3.887-8.071,13.406-1.7,1.9-2.449,3.252-2.469,4.6-.01,1.507.9,2.995,2.459,5.236-2.251.506-5.146,1.993-5.791,4.482-.922,3.6.892,5.741,3.56,8.726,2.053,1.854,17.938,3.332,17.938,3.332s.178,7.843-.178,18c.645,6.168-10.213,4.065-16.252,5.5-2.648.625-3.818,1.864-3.808,4.9,0,1.468-.258,2.667,2.588,5.6-.159-.159-1.567,1.8-1.824,3.857-.1,2.945,1,3.322,1.854,4.67a5.143,5.143,0,0,0-3.461,4.869c.129,6.088,6.465,5.285,13.317,5.612,19.673.922,28.369,2.38,29.152-21.3-.129-10.124-1.19-18.007-1.408-27.13-.664-9.251,3.689-10.283,10.233-8.756,9.2,2.152,4.809,16.718,5.077,25.246-.208,13.892-2.2,26.316,5,30.62C175.2,144.341,177.7,143.994,186.57,143.994Z" transform="translate(-109.807 -0.688)" fill="#868686"/>
</svg>
