<svg xmlns="http://www.w3.org/2000/svg" width="116.224" height="104.838" viewBox="0 0 116.224 104.838">
  <g id="Group_12" data-name="Group 12" transform="translate(-1940.555 -1705.997)">
    <path id="Path_141" data-name="Path 141" d="M183.468,105.348c-12.146,1.092-23.322-1.864-32.033-10.036-6.035-5.66-9.906-13.572-15.19-20.113-6.814-8.432-6.848-17.157-3.031-26.817,2.567-6.493,3.946-13.45,6.131-20.113a28.644,28.644,0,0,1,15.327-17.744c14.583-7.032,29.8-11.463,45.947-9.2,14.132,1.98,24.926,10.562,33.788,21.4,7.237,8.848,9.647,19.792,12.275,30.565a7.657,7.657,0,0,1-.232,4.294c-8.322,21.533-20.8,39.277-44.363,45.865C196.167,105.1,189.688,104.767,183.468,105.348ZM157.75,51.672c-.109,18.222,10.336,30.879,25.657,31.091,17.4.246,35.126-16.563,35.146-33.317.014-12.61-16.952-28.77-30.2-28.551C169.206,21.216,157.068,35.745,157.75,51.672Zm-19.5-11.927C146.39,28.856,155.688,23.2,162.427,19c9.278-5.783,19.574-9.06,30.415-7.025,15.989,3,21.854,6.827,36.109,20.113,3.468,3.113,13.463,12.664,14.836,19.1.055-9.763-8.22-25.056-18.188-34.2C215.508,7.712,200.441,3.063,193.293,2.892c-14.508-.362-27.875,4.424-40.56,11.845C144.239,20.9,141.1,29.894,138.252,39.745ZM244.271,55.9c-9.456-20.461-37.1-36.075-42.841-37.215,15.334,14.194,21.3,22.257,21.3,35.536,0,13.927-15.614,26.326-33.958,34.464C219.98,88.683,235.177,75.042,244.271,55.9ZM141.488,77.793c1.215,1.591,8.22,10.487,9.6,11.92,5.3,5.51,12.931,11.647,22.107,12.965,16.016,2.314,38.826-3.338,46.664-10.289,6.609-5.585,14.48-13.163,17.109-20.577-19.143,19.86-33.023,20.7-55.28,20.461C170.387,91.55,153.415,88.2,141.488,77.793Zm30.49,7.162c-13.538-8.732-19.935-19.628-20.406-30.518-.608-14.009,8.582-28.019,24.974-37.454-33.1,9.79-41.059,30.06-43.674,40.588-1.884,7.565,5.981,15.122,14.542,20.7C149.1,79.684,167.315,87.3,171.978,84.955Z" transform="translate(1809.896 1705.269)" fill="#868686"/>
    <path id="Path_142" data-name="Path 142" d="M152.935,36.2c-10.76-2.485-17.689-12.849-15.976-21.472,1.229-6.151,10.964-11.763,13.484-6.554,2.492,9.626,4.445,15.491,9.879,1.359,1.461-3.8,7.947-1.441,10.787,2.84,2.8,4.212,2.437,11.565.027,14.883C167.225,32.627,161.2,37.475,152.935,36.2Z" transform="translate(1845.099 1736.665)" fill="#868686"/>
  </g>
</svg>
