<svg xmlns="http://www.w3.org/2000/svg" width="106.012" height="108.662" viewBox="0 0 106.012 108.662">
  <path id="Path_124" data-name="Path 124" d="M170.038,74.33c-.4-.683-1.051-3.079-2.615-4.356-9.394-7.674-9.538-15.8-.15-23.793.4-.341.765-.731,1.85-1.775-2.84-2.041-5.557-3.967-8.247-5.933-6.472-4.731-7.162-12.316-1.324-17.812,2.308-2.178,5.271-3.673,8.438-5.824-1.516-4.315-.246-6.493,4.8-8.916A51.851,51.851,0,0,1,199.231.637c6.943.416,13.927.061,20.884.307,3.851.13,6.855,3.448,11.476,2.246,2.424-.628,5.12-4.042,8.78-.7,2.6,2.376,6.861,2.874,10.275,4.458,3.393,1.577,5.059,4.5,6.076,8.1a139.129,139.129,0,0,1,4.779,35.14c.191,9.148.014,18.317-.389,27.459-.492,11.04,1.017,15.081-9.51,20.611-2.567,1.352-25.308,7.92-46.111,10.275-21.813,1.379-24.23.587-29.855-2.082-11.231-5.182-18.01-13.5-14.562-21.908C162.534,80.972,166.358,78.385,170.038,74.33Zm2.308-59.991c4.014,1.236,7.114,2.1,10.159,3.154,2.929,1.017,4.124,3.325,4.1,6.308-.027,3.147-1.55,4.922-4.6,5.3-5.537-8.636-5.605-8.7-9.674-9.2l1.9,24.039c4.158.457,7.387.642,10.541,1.2s4.39,3.277,4.533,5.94c.082,1.522-1.195,4.021-2.465,4.513-2.874,1.1-4.1-1.365-5.25-3.673-1.652-3.3-4.39-4.369-8.1-3.284-1.837,9.258-1.7,17.3.314,27.473,3.434,0,8.93,0,12.8-5.189,2.4-1.959,5.155,5.189,2.622,5.83a42.078,42.078,0,0,1-5.591,2.178c-3.025.731-5.182.963-9.012,1.625.812,5.12,1.406,9.046,3.2,12.835,4.342.184,9.947-.847,14.392-1.277,10.439-1,20.843-2.4,31.214-3.946,4.649-.69,9.183-2.123,14.378-3.366C234.582,60.75,231.578,37.8,228.4,14.885c-.84-6.056-4.226-9.879-10.664-10.343-11.811-.853-23.772-1.311-35.344,1.864C178.537,7.464,174.229,9.089,172.345,14.339Zm7.6,89.2.519,2.512c15.293,5.571,68.88-6.861,73.918-11.422,2.437-2.2,4.219-9.66,4.479-13.1.628-8.281.382-16.133.888-24.428.751-12.5-1.6-26.169-4.028-38.26a35.552,35.552,0,0,0-2.84-7.687c-.533.212-3.892-1.256-4.417-1.045,4.424,8.275,4.014,22.011,3.618,31.2-.178,4.028.505,17.737.4,21.779-.225,8.9.84,14.1.28,19.41-.259,2.451-.519,5.817-1.754,8.691C250,93.514,219.917,104.383,179.944,103.536Zm-2.021-8.172c-.055-.321.683,2.888.683,2.888,2.765-.2,16.979-.7,33.651-3.188,16.911-2.519,33.289-7.169,33.262-7.551-1.147-13.948-4.219-40.861-5.755-53.744-.471-3.96-1.12-25.513-2.6-29.357-2.4,2.028-7.442,1.966-7.442,1.966,1,9.094,2.984,23.26,5,37.727,2.028,14.508,4.328,32.115,5.5,42.39.02.191-13.47,3.475-27.862,5.434C195.742,94.183,177.9,95.153,177.923,95.364Zm61.9-89.279c.833,8.534,1.823,21.335,2.826,34.546.676,8.862,1.352,17.9,1.987,25.977.492,6.254,1.618,17.28,2.041,21.833a255.061,255.061,0,0,1-35.44,8.083,319.593,319.593,0,0,1-32.279,2.765l.533,2.943A245.471,245.471,0,0,0,215.425,99.4c17.409-2.908,33.726-8.568,33.726-8.848,2.745-7.162,1.741-26.128,1.352-39.338-.273-9.087-.58-17.744-.847-22.407-.212-3.775-.71-14.16-3.427-19.485C246.229,9.321,241.566,8.1,239.825,6.085Zm-71.843,14c-4.212,1.679-7.551,3.68-7.838,8.281-.239,3.912,2.26,6.076,8.828,8.158C171.123,31.018,169.867,25.843,167.983,20.088Zm1.365,61.294c-3.83,1.557-5.906,4.41-5.168,8.568,1.024,5.769,5.612,8.227,11.224,11.033C173.267,94.067,171.43,88.134,169.348,81.382Zm-.737-30.524c-5.626,6.192-5.6,7.619,0,12.671Z" transform="translate(-155.566 -0.532)" fill="#868686"/>
</svg>
