<svg xmlns="http://www.w3.org/2000/svg" width="93.513" height="112.438" viewBox="0 0 93.513 112.438">
  <path id="Path_126" data-name="Path 126" d="M237.707.289c11.128.478,20.283,5.516,29.166,11.265,4.342,2.82,5.871,6.814,4.622,11.845-.649,2.594-1.482,5.155-1.966,7.783a8.972,8.972,0,0,0,.055,4.642c4.724,11.989,6.233,24.079,2.39,36.655-1.543,5.032-2.444,9.831.143,15.429,2.649,5.735-.874,11.285-5.865,14.61-10.439,6.957-21.294,12.473-34.737,9.278-7.23-1.727-12.774-5.755-17.525-10.8-1.789-1.891-2.021-5.9-1.836-8.869.4-6.261-.922-8.213-7.319-8.568-1.884-.1-3.8.123-5.66-.1-6.616-.785-13.306-2.355-16.01-9.121-3.291-8.254-4.137-16.966,2.253-24.414a37.509,37.509,0,0,1,8.8-6.882c5.728-3.571,10.1-7.5,10.3-15.143.157-6.151,3.892-11.326,8.575-15.04A128.991,128.991,0,0,1,230,1.948C232.184.712,235.12.8,237.707.289ZM220.1,85.206c1.393,7.66,12.009,13.914,17.437,14.139,3.632.15,11.19.683,17.273-3.632,11.251-8.083,14.549-21.328,15.2-35.256.294-6.172-.949-16.44-3.926-22.53-10,8.206-23.342,13.374-34.423,8.957-11.122-4.431-18.631-12.8-19.13-26.107-4.144,4.765-5.837,9.6-3.734,15.293,9.326.7,11.026,2.895,9.148,11.6l-7.483,2.717a88.112,88.112,0,0,0,.061,9.947c.785,7.046,1.359,7.476,8.159,8.657,6.172,1.079,8.227,4.287,5.892,10.056C223.65,81.328,221.622,83.164,220.1,85.206ZM240.52,43.43c3.154-.512,6.424-.662,9.442-1.611,8.548-2.683,13.033-9.381,14.917-17.525,1.454-6.295-3.3-9.667-8.213-12.378a3.69,3.69,0,0,1-.614-.519C244.473.719,229,1.648,219.649,13.82a13.772,13.772,0,0,0-2.594,7.257C216.352,34.637,226.743,42.816,240.52,43.43ZM221.493,73.04c-5.735-.109-10.746-.137-15.743-.314-6.131-.218-13.538-8.93-12.705-14.9a4.386,4.386,0,0,1,.833-2.212c3.926-4.424,7.537-9.21,14.4-9.353,2.355-.048,4.69-1.3,7.537-2.164-2.7-3.973-5.209-4.2-8.411-3.345a43.029,43.029,0,0,0-18.488,10.814c-5.51,5.271-5.776,12.583-3.256,19.662,2.465,6.93,8.281,8.664,14.9,8.855,4.854.143,9.715.273,14.562.471C219.178,80.727,220.967,78.6,221.493,73.04ZM214.8,93.466c1.092,2.239,1.611,5.236,3.386,6.581,5.7,4.335,11.435,8.3,19.382,8.582,10.712.382,19.3-3.728,27.083-10.138,2.813-2.314,5.728-5.462,3.482-10.357C250.856,104.185,241.175,107.162,214.8,93.466Zm-9-42.581c-7.51,4.369-9.278,6.568-8.459,9.79,1.086,4.281,5.612,7.646,10.473,7.53Z" transform="translate(-180.641 -0.289)" fill="#868686"/>
</svg>
