<svg xmlns="http://www.w3.org/2000/svg" width="60.764" height="60.719" viewBox="0 0 60.764 60.719"><g transform="translate(-37.761 -178.57)"><path d="M5.132,173.284c2.3-.045,4.617-.465,6.886-.529,5.484-.168,10.843,1.028,16.31.712,10.922-.2,21.616-1.872,32.435-3.2-.628-10.072-.12-20.152-.462-30.216-.866-8.719-3.339-17.8-1.667-26.538a3.849,3.849,0,0,1,.043-.667l-1.4-.042c-19.013,3.65-38.025,1.22-57.281.253,5.384,19.717,5.708,39.919,5.132,60.229" transform="translate(37.761 65.769)" fill="#fff"/><path d="M14.211,134.145a197.715,197.715,0,0,0,28.263-.623c2.367-.222,2.391-3.95,0-3.726a197.715,197.715,0,0,1-28.263.623c-2.4-.118-2.391,3.608,0,3.726" transform="translate(40.766 69.88)" fill="#1a1818"/><path d="M15,141.14a173.412,173.412,0,0,0,26.31-.484c2.367-.222,2.39-3.952,0-3.726a173.412,173.412,0,0,1-26.31.484c-2.4-.138-2.387,3.589,0,3.726" transform="translate(40.957 71.607)" fill="#1a1818"/><path d="M15.082,149.154c9.185-.122,18.37-.281,27.554-.4,2.395-.032,2.4-3.758,0-3.726-9.185.12-18.37.279-27.554.4-2.4.032-2.4,3.758,0,3.726" transform="translate(40.976 73.569)" fill="#1a1818"/></g></svg>