<svg viewBox="0 0 16.472 23.878" width="16.472" height="23.878" xmlns="http://www.w3.org/2000/svg"><path fill="#1a1818" d="M10.786 12.769a39.822 39.822 0 015 0c.693.029.835-4.315.555-5.331-.011-.238-.466-.365-.74-.262a16.314 16.314 0 01-4.639.163c-.086-4.651 4.8-2.559 4.94-3.91a4.2 4.2 0 00.318-1.636 14.1 14.1 0 00-.107-1.512c-.016-.088-.238-.2-.3-.206a4.13 4.13 0 00-1.277-.04 28.13 28.13 0 00-4.872.6c-4.332 1.272-2.131 6.388-4.2 6.913C3.192 7.596-.798 6.512.143 10.19c.191.54-.1.995-.091 1.507.631 2.222 4.21.591 5.883 1.536.4 3.127-.283 6.413.072 9.479.7 1.818 2.633.919 4.094 1.082 2.385.442-.032-9.062.686-11.027m4.125-4.192c.248 1.164.556 2.1-.052 2.488-1.015.638-3.447.206-4.65.173-1.333 0-.645 1.406-.855 2.3.247 2.691.125 5.359.379 8.021.1.451.052.5-.43.517-1.168.263-1.734.243-1.985-.019-.419-.437.041-1.549.057-3.15.027-2.511.273-6.454-.113-7.462-.679-.561-1.1-.143-1.78-.212-1.32-.137-2.767.132-4.061-.291l-.089-2.006c1.731-.707 5.688.96 5.931-1.13.857-7.4 2.442-6.464 7.365-6.9.867-.078.836 2.292-.353 2.326-4.384.128-4.341 2.69-4.475 4.841.476 1.273 3.767-.169 5.111.512"/></svg>