<svg xmlns="http://www.w3.org/2000/svg" width="24.916" height="25.108" viewBox="0 0 24.916 25.108">
  <g id="instagram" transform="translate(-1210 -1022)">
    <path id="Path_847" data-name="Path 847" d="M86.941,181.88c-.8,4.489,1.856,14.22-1.509,16.857-4.774,2.059-10.427.817-15.543,1.254-4.663.159-7.144-.862-7-6.051.374-5.811-3.371-15.607,4.064-18.346,5.362-.2,10.8-1.119,16.136-.463,3.792-.324,3.787,4.02,3.853,6.749m-2-4.776c-4.182-1.467-8.743-.425-13.024.062a14.527,14.527,0,0,0-6.275.724c-1.976,2.247-.746,5.325-.941,7.97-.278,3.625-1.287,8.494.58,11.622,2.4.743,19.8,1.644,19.821-1.329,1.4-3.033.535-6.557.458-9.777.129-3.1.45-6.218-.62-9.272" transform="translate(1147.728 847.102)" fill="#1a1818"/>
    <path id="Path_848" data-name="Path 848" d="M66.387,189.877c-.628-2.9-.974-7.306,2.217-8.861,3.582-3.435,10.06-1.61,11,3.386.327,3.532-.84,8.286-4.071,10.2-4.645,1.3-7.784.078-9.2-4.664l.053-.061M72.374,193c2.284-.308,4.776-1.222,5.357-3.689,1.038-3.521.719-8.364-3.94-8.375-2.951-.939-6.745,1.874-6.264,5.04-.253,2.857,1.261,7.291,4.846,7.024" transform="translate(1149.645 847.383)" fill="#1a1818"/>
  </g>
</svg>
