<svg xmlns="http://www.w3.org/2000/svg" width="18.674" height="21.215" viewBox="0 0 18.674 21.215"><path d="M68.248,135.174a46.245,46.245,0,0,0,4.461-2.659c.768-.576,2.018-1.5,2.018-1.5a4.947,4.947,0,0,1,.077-2.047,2.716,2.716,0,0,1,1.345-1.627,3.577,3.577,0,0,1,4.671.943,3.081,3.081,0,0,1-1.175,4.668c-2.085,1.1-3.232.13-4.509-1.058-1.595,1.1-2.927,1.919-4.45,3.016-1.016.732-1.719,1.32-1.719,1.32a2.453,2.453,0,0,1-.308,1.959s2.381,1.671,3.14,2.065a38.717,38.717,0,0,0,4.028,2.347,4.284,4.284,0,0,1,3.286-.806,3.224,3.224,0,0,1,2.191,4.184,3.112,3.112,0,0,1-4.561,1.585c-1.366-.823-2.13-1.517-1.336-4.07,0,0-2.277-1.356-3.252-1.96-1.2-.743-3.228-2.108-4.054-2.54a2.964,2.964,0,0,1-3.165.977,2.784,2.784,0,0,1-2.114-2.929,3.039,3.039,0,0,1,2.18-2.86,2.706,2.706,0,0,1,3.244.987" transform="translate(-62.82 -126.816)" fill="#1a1818"/></svg>