<svg viewBox="0 0 174.6 177.5" xmlns="http://www.w3.org/2000/svg"><path fill="#fff" d="M43.6 108.9c-.5-.8-1.2-3.5-3-4.9-10.6-8.7-10.8-18-.1-27 .5-.4.9-.8 2.1-2-3.2-2.3-6.3-4.5-9.3-6.7-7.3-5.4-8.1-14-1.5-20.2 2.6-2.5 6-4.2 9.6-6.6-1.7-4.9-.3-7.4 5.4-10.1 9.8-4.7 19.4-6.6 30-6 7.9.5 15.8.1 23.7.4 4.4.1 7.8 3.9 13 2.5 2.7-.7 5.8-4.6 9.9-.8 3 2.7 7.8 3.3 11.6 5.1 3.9 1.8 5.7 5.1 6.9 9.2 3.7 13 5.1 26.4 5.4 39.9.2 10.4 0 20.8-.4 31.2-.6 12.5 1.2 17.1-10.8 23.4-2.9 1.5-28.7 9-52.3 11.6-24.7 1.6-27.5.7-33.9-2.4-12.7-5.9-20.4-15.3-16.5-24.8 1.7-4.3 6.1-7.2 10.2-11.8zm2.6-68c4.6 1.4 8.1 2.4 11.5 3.6 3.3 1.2 4.7 3.8 4.7 7.2 0 3.6-1.8 5.6-5.2 6-6.3-9.8-6.4-9.9-11-10.4.7 9.1 1.4 18 2.2 27.3 4.7.5 8.4.7 12 1.4 3.6.6 5 3.7 5.1 6.7.1 1.7-1.4 4.6-2.8 5.1-3.3 1.2-4.7-1.5-6-4.2-1.9-3.8-5-4.9-9.2-3.7-2.1 10.5-1.9 19.6.3 31.2 3.9 0 10.1 0 14.5-5.9 2.7-2.2 5.8 5.9 3 6.6-2.1.8-4.2 1.9-6.3 2.5-3.4.8-5.9 1.1-10.2 1.8.9 5.8 1.6 10.3 3.6 14.6 4.9.2 11.3-1 16.3-1.4 11.8-1.1 23.6-2.7 35.4-4.5 5.3-.8 10.4-2.4 16.3-3.8-3.7-27.3-7.1-53.3-10.7-79.3-.9-6.9-4.8-11.2-12.1-11.7-13.4-1-27-1.5-40.1 2.1-4.2 1-9.1 2.8-11.3 8.8zm8.7 101.2l.6 2.9c17.3 6.3 78.1-7.8 83.9-13 2.8-2.5 4.8-11 5.1-14.9.7-9.4.4-18.3 1-27.7.9-14.2-1.8-29.7-4.6-43.4-.6-3.1-1.9-5.7-3.2-8.7-.6.2-4.4-1.4-5-1.2 5 9.4 4.6 25 4.1 35.4-.2 4.6.6 20.1.5 24.7-.3 10.1.9 16 .3 22-.3 2.8-.6 6.6-2 9.9-1.3 2.6-35.4 14.9-80.7 14zm-2.3-9.3c-.1-.4.8 3.3.8 3.3 3.1-.2 19.3-.8 38.2-3.6 19.2-2.9 37.8-8.1 37.7-8.6-1.3-15.8-4.8-46.3-6.5-61-.5-4.5-1.3-28.9-2.9-33.3-2.7 2.3-8.4 2.2-8.4 2.2 1.1 10.3 3.4 26.4 5.7 42.8 2.3 16.5 4.9 36.4 6.2 48.1 0 .2-15.3 3.9-31.6 6.2-19 2.5-39.3 3.6-39.2 3.9zm70.2-101.3c.9 9.7 2.1 24.2 3.2 39.2.8 10.1 1.5 20.3 2.2 29.5.6 7.1 1.8 19.6 2.3 24.8 0 0-18.9 6-40.2 9.2-12.6 1.9-26.1 2.7-36.6 3.1l.6 3.3c1.7 0 21.9-.1 40.8-3.2 19.7-3.3 38.3-9.7 38.2-10 3.1-8.1 2-29.7 1.5-44.6-.3-10.3-.6-20.1-1-25.4-.2-4.3-.8-16.1-3.9-22.1.2-.1-5.1-1.5-7.1-3.8zM41.3 47.4c-4.8 1.9-8.6 4.2-8.9 9.4-.3 4.4 2.6 6.9 10 9.3 2.5-6.3 1-12.2-1.1-18.7zm1.5 69.5c-4.3 1.8-6.7 5-5.9 9.7 1.2 6.5 6.4 9.3 12.7 12.5-2.3-7.8-4.4-14.5-6.8-22.2zM42 82.3c-6.4 7-6.3 8.7 0 14.4V82.3z"/></svg>