<svg xmlns="http://www.w3.org/2000/svg" width="60.497" height="54.035" viewBox="0 0 60.497 54.035"><path d="M40.766,388.492c.142,2.39,1.1,14.724-1.358,14.707-2.683-1.965-5.41-3.917-8.343-5.65-2.771-2.962-6.759-4.234-9.947-6.451a76.965,76.965,0,0,0-9.914-7.71c-1.037-1.9,4.384-5.426,4.7-8.291,5.919-9.22,24.142-26.749,24.578-25.9.114,4.284.835,6.588.6,12.726-.046,1.185.108,4.511,1.688,3.979,8.759-2.149,17.731-.092,26.6-.438,4.161,1.078,1.084,15.885,1.29,19.774-.055,1.221-.237,2.939-1.9,2.305-3.751-.148-7.538.2-11.321-.176-5.6-.833-11.114.628-16.68,1.129M16.22,382.241a128.682,128.682,0,0,1,21.253,16.451c-.237-3.717-2.13-11.591.636-14.256,9.58-1.787,19.513-.363,29.364-.468-1.195-4.69-.861-9.227-.724-14.009-7.889,1.01-17.787-.661-25.792.124-.307.014-1.482,0-1.822,0a1.315,1.315,0,0,1-1.127-1.135c-1.251-4.769.389-9.746-.457-14.561-4.029,4.689-7.609,9.81-11.564,14.653-3.162,4.562-5.461,9.49-9.767,13.2" transform="translate(-11.073 -349.163)" fill="#1a1818"/></svg>