<svg xmlns="http://www.w3.org/2000/svg" width="120.994" height="120.994" viewBox="0 0 120.994 120.994"><path d="M5.36,345.759c21.8,2.663,43.458.636,65.224.909,17.608-1.392,35.065-8.3,52.985-7.833-.1-24.767-1.995-49.255-3.825-73.857-.426-8.822,4.146-23.775-1.246-30.074-17.76-8.385-38.537-4.716-55.818-7.429-.663-.016-1.382,1.146-2.094.152-1.294-1.245-2.01,2.915-3.775,2.135-4.884-.458-9.689,1.274-14.645,1.252-7.2,1.346-15.165-.971-22.319,2.623a94.479,94.479,0,0,0-10.141,3.257c-2.1,1.221-6.767-.14-6.954,3.43-.821,35.026,1.407,70.67,2.608,105.435m40.687,2.063c-1.19-.272-1.19-.272-1.945.564l1.945-.564" transform="translate(-2.574 -227.393)" fill="#fff"/></svg>