<svg xmlns="http://www.w3.org/2000/svg" width="120.994" height="120.884" viewBox="0 0 120.994 120.884"><path d="M126.188,456.067c-15.333,4.166-31.284,1.227-46.762-.484-16.692,1.531-33.328,0-50.013-.71-20.75,3.469-24.2-6.461-21.952,10.951.651,2.724-.979,7.061.987,8.827.071.592.869,1.118.671,1.744L7.866,475.9c2.791,31.557-1.443,63.31.385,94.92-.046,2.54,3.263.937,4.721,1.3,8.366-.06,16.822,1.026,25.122.027,30-1.806,60.113,5.762,89.766,2.98-5.413-21.056-3.4-42.326-2.138-63.814,1.744-18.483.245-36.811.466-55.254m.8,96.252c.452-.284.339-.416.153-.8-.45.191-.371.36-.153.8" transform="translate(-6.866 -454.872)" fill="#fff"/></svg>